<svg width="413" height="328" viewBox="0 0 413 328" fill="none" xmlns="http://www.w3.org/2000/svg">
    <path d="M413 308C413 319.046 404.046 328 393 328L20 328C8.95431 328 0 319.046 0 308L0 16C0 12.6863 2.68629 10 6 10L407 10C410.314 10 413 12.6863 413 16L413 308Z" fill="#F5F5F5"/>
    <circle cx="31" cy="10" r="10" fill="white"/>
    <circle cx="319" cy="10" r="10" fill="white"/>
    <circle cx="287" cy="10" r="10" fill="white"/>
    <circle cx="383" cy="10" r="10" fill="white"/>
    <circle cx="351" cy="10" r="10" fill="white"/>
    <circle cx="255" cy="10" r="10" fill="white"/>
    <circle cx="223" cy="10" r="10" fill="white"/>
    <circle cx="191" cy="10" r="10" fill="white"/>
    <circle cx="159" cy="10" r="10" fill="white"/>
    <circle cx="127" cy="10" r="10" fill="white"/>
    <circle cx="95" cy="10" r="10" fill="white"/>
    <circle cx="63" cy="10" r="10" fill="white"/>
</svg>
