<svg width="500" height="500" viewBox="0 0 500 500" fill="none" xmlns="http://www.w3.org/2000/svg">
    <path d="M424.66 264.41C424.66 264.41 423.17 247.41 426.76 230.71C430.35 214.01 439.07 201.16 449.81 196.14C460.55 191.12 473.31 197.96 464.08 209.39C454.85 220.82 436.74 241.66 436.84 271.44L424.66 264.41Z" fill="#E0E0E0"/>
    <path d="M430 264.22C429.957 264.23 429.913 264.23 429.87 264.22C429.787 264.218 429.706 264.199 429.63 264.165C429.555 264.131 429.487 264.082 429.43 264.022C429.374 263.961 429.33 263.89 429.3 263.813C429.271 263.735 429.257 263.653 429.26 263.57C430.26 227.09 442.41 208.82 456.45 199.57C456.519 199.523 456.596 199.49 456.678 199.473C456.76 199.456 456.844 199.456 456.926 199.471C457.007 199.487 457.085 199.519 457.155 199.565C457.224 199.611 457.284 199.671 457.33 199.74C457.422 199.881 457.454 200.052 457.42 200.217C457.387 200.382 457.29 200.527 457.15 200.62C443.3 209.78 431.51 227.68 430.52 263.62C430.515 263.765 430.461 263.903 430.367 264.012C430.272 264.122 430.142 264.195 430 264.22Z" fill="white"/>
    <path d="M478.83 232.06C478.62 234.06 476.99 235.62 475.43 236.93C473.87 238.24 472.18 239.64 471.76 241.62C470.91 245.62 475.65 249.32 474.62 253.28C474.345 254.095 473.907 254.847 473.333 255.488C472.759 256.129 472.061 256.647 471.28 257.01C470.03 257.69 468.67 258.13 467.35 258.69C466.693 258.887 466.025 259.048 465.35 259.17C463.341 259.356 461.45 260.199 459.97 261.57C457.78 263.95 458.06 267.57 457.28 270.73C456.34 274.49 454.11 276.73 449 278.48L432.75 269.1C427.09 265.21 425.6 256.51 429.62 251.35C432.03 248.24 436.54 247.85 438.82 244.75C440.82 241.97 439.68 237.95 440.93 234.75C442.18 231.55 445.51 230.42 448.65 229.88C451.79 229.34 455.13 230.63 458.2 229.51C461.27 228.39 464.11 226.58 467.28 225.78C468.826 225.326 470.454 225.229 472.042 225.496C473.63 225.763 475.138 226.386 476.45 227.32C477.205 227.854 477.817 228.566 478.232 229.393C478.647 230.219 478.852 231.135 478.83 232.06Z" fill="#EBEBEB"/>
    <path d="M446.2 247.85C446.232 247.777 446.28 247.712 446.34 247.66C454.57 236 467.46 230.47 471.81 229.49C471.929 229.466 472.053 229.489 472.156 229.554C472.258 229.619 472.332 229.722 472.36 229.84C472.384 229.958 472.361 230.08 472.295 230.181C472.23 230.282 472.128 230.353 472.01 230.38C467.88 231.31 455.91 236.38 447.85 247.12C451.135 246.013 454.613 245.597 458.067 245.896C461.52 246.196 464.875 247.204 467.92 248.86C468 248.914 468.06 248.991 468.094 249.081C468.127 249.171 468.131 249.27 468.106 249.362C468.08 249.455 468.027 249.537 467.952 249.598C467.878 249.658 467.786 249.694 467.69 249.7C467.599 249.702 467.508 249.677 467.43 249.63C464.311 247.94 460.859 246.953 457.318 246.739C453.776 246.524 450.231 247.088 446.93 248.39C442.127 255.269 439.723 263.538 440.09 271.92C440.091 272.035 440.05 272.146 439.974 272.233C439.899 272.319 439.794 272.375 439.68 272.39C439.56 272.393 439.443 272.348 439.355 272.266C439.267 272.183 439.215 272.07 439.21 271.95C438.833 263.367 441.289 254.899 446.2 247.85Z" fill="white"/>
    <path d="M59.0702 278.48C59.2402 266.35 59.0102 255.16 52.8502 237.91C47.6902 223.44 34.4202 208.84 25.4602 209.46C17.1102 210.03 15.2602 220.29 22.7702 229.46C30.2802 238.63 46.6402 256 47.6602 268.59L51.0002 283.17L59.0702 278.48Z" fill="#E0E0E0"/>
    <path d="M55.37 275.41C55.2568 275.382 55.1558 275.318 55.0819 275.228C55.008 275.138 54.9652 275.027 54.96 274.91C53.65 246.68 37.89 223.17 24.74 215.91C24.6178 215.839 24.5278 215.723 24.4887 215.587C24.4496 215.451 24.4644 215.305 24.53 215.18C24.5634 215.118 24.609 215.063 24.6641 215.018C24.7192 214.974 24.7826 214.941 24.8507 214.921C24.9187 214.901 24.99 214.896 25.0603 214.904C25.1306 214.913 25.1985 214.935 25.26 214.97C38.63 222.32 54.71 246.22 56.03 274.83C56.0354 274.972 55.985 275.11 55.8896 275.215C55.7942 275.319 55.6615 275.382 55.52 275.39L55.37 275.41Z" fill="white"/>
    <path d="M46.8902 285.51C46.3802 281.26 43.3602 272.86 36.2102 266.03C28.3002 258.46 17.4902 253.84 15.6602 248.65C13.4602 242.41 18.9702 239.07 28.0902 241.03C39.0902 243.37 51.4102 256.1 53.4502 281.73L46.8902 285.51Z" fill="#EBEBEB"/>
    <path d="M50.23 280.65C50.1289 280.624 50.0374 280.57 49.9664 280.494C49.8954 280.418 49.8481 280.322 49.83 280.22C45.63 257.83 30.66 247.81 23.33 245.64C23.2479 245.635 23.1679 245.612 23.096 245.573C23.0242 245.533 22.9624 245.477 22.9154 245.409C22.8684 245.342 22.8374 245.265 22.8248 245.183C22.8121 245.102 22.8182 245.019 22.8426 244.941C22.8669 244.862 22.9089 244.79 22.9652 244.73C23.0216 244.671 23.0908 244.624 23.1677 244.595C23.2447 244.566 23.3272 244.555 23.409 244.563C23.4908 244.571 23.5698 244.597 23.64 244.64C31.74 247.04 46.64 257.2 50.88 280.06C50.8929 280.129 50.8921 280.2 50.8774 280.268C50.8628 280.337 50.8346 280.402 50.7946 280.46C50.7546 280.517 50.7035 280.567 50.6444 280.604C50.5852 280.642 50.5191 280.668 50.45 280.68C50.3754 280.685 50.3004 280.675 50.23 280.65Z" fill="white"/>
    <path d="M250 478.86C380.444 478.86 486.19 417.81 486.19 342.5C486.19 267.191 380.444 206.14 250 206.14C119.556 206.14 13.8101 267.191 13.8101 342.5C13.8101 417.81 119.556 478.86 250 478.86Z" fill="#F5F5F5"/>
    <path d="M427.21 393.61L396.73 376C396.652 375.974 396.585 375.924 396.537 375.858C396.489 375.791 396.463 375.712 396.463 375.63C396.463 375.548 396.489 375.468 396.537 375.402C396.585 375.335 396.652 375.286 396.73 375.26L440.35 350.09C440.551 349.986 440.774 349.932 441 349.932C441.226 349.932 441.449 349.986 441.65 350.09L472.12 367.69C472.198 367.716 472.265 367.765 472.313 367.832C472.361 367.898 472.387 367.978 472.387 368.06C472.387 368.141 472.361 368.221 472.313 368.288C472.265 368.354 472.198 368.404 472.12 368.43L428.5 393.61C428.301 393.713 428.08 393.767 427.855 393.767C427.631 393.767 427.409 393.713 427.21 393.61Z" fill="#E0E0E0"/>
    <path d="M313.95 444.44C347.082 444.44 373.94 428.935 373.94 409.81C373.94 390.684 347.082 375.18 313.95 375.18C280.818 375.18 253.96 390.684 253.96 409.81C253.96 428.935 280.818 444.44 313.95 444.44Z" fill="#E0E0E0"/>
    <path d="M377.77 390.17L346.16 371.91C345.78 371.7 345.78 371.35 346.16 371.14L396.77 341.91C396.978 341.806 397.207 341.752 397.44 341.752C397.673 341.752 397.902 341.806 398.11 341.91L429.73 360.17C429.812 360.197 429.884 360.249 429.935 360.319C429.986 360.389 430.014 360.473 430.014 360.56C430.014 360.647 429.986 360.731 429.935 360.801C429.884 360.871 429.812 360.923 429.73 360.95L379.12 390.17C378.912 390.279 378.68 390.335 378.445 390.335C378.21 390.335 377.978 390.279 377.77 390.17Z" fill="#E0E0E0"/>
    <path d="M74.3399 383.26L175 432.79C176.404 433.383 177.92 433.663 179.443 433.611C180.966 433.56 182.46 433.177 183.82 432.49L240.19 400C242.58 398.62 242.67 396.24 240.38 394.69L155.23 337C153.96 336.234 152.516 335.804 151.034 335.752C149.552 335.699 148.081 336.025 146.76 336.7L74.1799 378.6C71.7899 379.93 71.8599 382 74.3399 383.26Z" fill="#E0E0E0"/>
    <path d="M87.4401 48L79.6801 52.48C79.7187 52.148 79.7387 51.8142 79.7401 51.48V49.24C79.7401 45.24 76.9301 43.62 73.4701 45.62C71.9745 46.5312 70.6977 47.7602 69.7301 49.22C69.1601 44.22 65.2101 42.31 60.4101 45.08C55.2301 48.07 51.0001 55.35 51.0001 61.34V64.71C50.9665 66.0507 51.2402 67.3813 51.8001 68.6L45.3501 72.33C44.3411 72.9881 43.5007 73.8739 42.8963 74.9159C42.2919 75.958 41.9404 77.1274 41.8701 78.33C41.8701 80.55 43.4301 81.45 45.3501 80.33L87.4401 56.08C88.4507 55.4236 89.2925 54.5383 89.8971 53.4958C90.5017 52.4534 90.8522 51.2831 90.9201 50.08C90.9201 47.83 89.3701 46.93 87.4401 48Z" fill="#EBEBEB"/>
    <path d="M122.76 63.0798L117.76 65.9698C117.791 65.7512 117.808 65.5307 117.81 65.3098V63.8598C117.81 61.2698 115.99 60.2198 113.75 61.5198C112.788 62.1095 111.966 62.9011 111.34 63.8398C110.97 60.5898 108.42 59.3798 105.34 61.1698C103.574 62.3194 102.105 63.8695 101.052 65.6941C99.9994 67.5187 99.3921 69.5662 99.2799 71.6698V73.8398C99.2561 74.7077 99.4305 75.5695 99.7899 76.3598L95.6299 78.7598C94.976 79.1887 94.4318 79.7649 94.0411 80.4423C93.6503 81.1196 93.4238 81.8791 93.3799 82.6599C93.3799 84.0899 94.3799 84.6598 95.6299 83.9598L122.8 68.2698C123.443 67.8365 123.977 67.2595 124.359 66.5843C124.741 65.9092 124.96 65.1545 125 64.3798C125 62.9398 124 62.3598 122.76 63.0798Z" fill="#EBEBEB"/>
    <path d="M388.39 274.67C387.558 274.241 386.626 274.043 385.691 274.1C384.756 274.156 383.854 274.464 383.08 274.99C378.73 277.5 375.19 284.76 375.19 291.17V306.28C375.19 306.463 375.263 306.639 375.392 306.768C375.521 306.897 375.697 306.97 375.88 306.97C376.063 306.97 376.238 306.897 376.368 306.768C376.497 306.639 376.57 306.463 376.57 306.28V291.17C376.57 285.17 379.8 278.47 383.77 276.17C384.334 275.763 384.998 275.519 385.69 275.462C386.383 275.406 387.078 275.54 387.7 275.85C389.34 276.8 390.28 279.2 390.28 282.45V297.5C390.28 297.683 390.353 297.859 390.482 297.988C390.611 298.117 390.787 298.19 390.97 298.19C391.153 298.19 391.328 298.117 391.458 297.988C391.587 297.859 391.66 297.683 391.66 297.5V282.46C391.66 278.71 390.47 275.87 388.39 274.67Z" fill="#263238"/>
    <path d="M422.16 361.34L417.93 288.68L405.81 281.7L401.83 349.61L422.16 361.34Z" fill="#92E3A9"/>
    <path opacity="0.4" d="M422.16 361.34L417.93 288.68L405.81 281.7L401.83 349.61L422.16 361.34Z" fill="white"/>
    <path d="M363.23 306.29L359.25 374.19L401.83 349.61L405.81 281.7L363.23 306.29Z" fill="#92E3A9"/>
    <path opacity="0.3" d="M363.23 306.29L359.25 374.19L401.83 349.61L405.81 281.7L363.23 306.29Z" fill="white"/>
    <path opacity="0.05" d="M363.23 306.29L359.25 374.19L401.83 349.61L405.81 281.7L363.23 306.29Z" fill="black"/>
    <path d="M363.23 306.29L375.35 313.26L379.58 385.92L359.25 374.19L363.23 306.29Z" fill="#92E3A9"/>
    <path opacity="0.55" d="M363.23 306.29L375.35 313.26L379.58 385.92L359.25 374.19L363.23 306.29Z" fill="white"/>
    <path opacity="0.2" d="M379.58 385.92L370.84 373.66L369.75 330.83L368.66 372.92L359.25 374.19L379.58 385.92Z" fill="#92E3A9"/>
    <path opacity="0.05" d="M379.58 385.92L370.84 373.66L369.75 330.83L368.66 372.92L359.25 374.19L379.58 385.92Z" fill="black"/>
    <path d="M417.92 288.68L375.35 313.26L379.58 385.92L422.16 361.34L417.92 288.68ZM388 315C387.16 315.48 386.48 315.08 386.48 314.11C386.508 313.583 386.661 313.07 386.925 312.613C387.189 312.156 387.557 311.768 388 311.48C388.84 310.99 389.53 311.39 389.53 312.37C389.5 312.898 389.346 313.411 389.08 313.868C388.814 314.325 388.444 314.713 388 315ZM403.09 306.22C402.25 306.7 401.57 306.3 401.57 305.33C401.6 304.802 401.754 304.289 402.02 303.832C402.286 303.375 402.656 302.987 403.1 302.7C403.94 302.21 404.62 302.61 404.62 303.59C404.586 304.109 404.432 304.613 404.17 305.063C403.908 305.512 403.545 305.895 403.11 306.18L403.09 306.22Z" fill="#92E3A9"/>
    <path opacity="0.7" d="M417.92 288.68L375.35 313.26L379.58 385.92L422.16 361.34L417.92 288.68ZM388 315C387.16 315.48 386.48 315.08 386.48 314.11C386.508 313.583 386.661 313.07 386.925 312.613C387.189 312.156 387.557 311.768 388 311.48C388.84 310.99 389.53 311.39 389.53 312.37C389.5 312.898 389.346 313.411 389.08 313.868C388.814 314.325 388.444 314.713 388 315ZM403.09 306.22C402.25 306.7 401.57 306.3 401.57 305.33C401.6 304.802 401.754 304.289 402.02 303.832C402.286 303.375 402.656 302.987 403.1 302.7C403.94 302.21 404.62 302.61 404.62 303.59C404.586 304.109 404.432 304.613 404.17 305.063C403.908 305.512 403.545 305.895 403.11 306.18L403.09 306.22Z" fill="white"/>
    <path d="M400.53 281.58C399.7 281.15 398.769 280.953 397.836 281.009C396.903 281.066 396.002 281.374 395.23 281.9C390.88 284.41 387.34 291.67 387.34 298.08V313.2C387.36 313.368 387.441 313.522 387.567 313.634C387.693 313.745 387.856 313.807 388.025 313.807C388.193 313.807 388.356 313.745 388.482 313.634C388.609 313.522 388.69 313.368 388.71 313.2V298.08C388.71 292.08 391.94 285.38 395.91 283.08C396.475 282.674 397.141 282.429 397.835 282.373C398.53 282.316 399.226 282.45 399.85 282.76C401.49 283.76 402.43 286.11 402.43 289.36V304.41C402.45 304.578 402.531 304.732 402.657 304.844C402.783 304.955 402.946 305.017 403.115 305.017C403.283 305.017 403.446 304.955 403.573 304.844C403.699 304.732 403.78 304.578 403.8 304.41V289.37C403.8 285.62 402.61 282.78 400.53 281.58Z" fill="#37474F"/>
    <path d="M436.49 293C435.766 292.622 434.952 292.448 434.136 292.497C433.321 292.547 432.534 292.817 431.86 293.28C428.06 295.47 424.97 301.8 424.97 307.4V320.59C424.97 320.749 425.033 320.902 425.146 321.014C425.258 321.127 425.411 321.19 425.57 321.19C425.729 321.19 425.882 321.127 425.994 321.014C426.107 320.902 426.17 320.749 426.17 320.59V307.44C426.17 302.22 428.99 296.36 432.46 294.35C432.954 293.998 433.534 293.787 434.138 293.739C434.742 293.692 435.348 293.81 435.89 294.08C437.32 294.9 438.14 297 438.14 299.83V313C438.14 313.159 438.203 313.312 438.316 313.424C438.428 313.537 438.581 313.6 438.74 313.6C438.899 313.6 439.052 313.537 439.164 313.424C439.277 313.312 439.34 313.159 439.34 313V299.83C439.34 296.56 438.3 294.09 436.49 293Z" fill="#263238"/>
    <path d="M465.96 368.68L462.27 305.26L451.69 299.18L448.22 358.44L465.96 368.68Z" fill="#92E3A9"/>
    <path opacity="0.2" d="M465.96 368.68L462.27 305.26L451.69 299.18L448.22 358.44L465.96 368.68Z" fill="black"/>
    <path d="M414.53 320.63L411.06 379.89L448.22 358.44L451.69 299.18L414.53 320.63Z" fill="#92E3A9"/>
    <path opacity="0.3" d="M414.53 320.63L411.06 379.89L448.22 358.44L451.69 299.18L414.53 320.63Z" fill="black"/>
    <path d="M414.53 320.63L425.11 326.72L428.8 390.13L411.06 379.89L414.53 320.63Z" fill="#92E3A9"/>
    <path opacity="0.15" d="M414.53 320.63L425.11 326.72L428.8 390.13L411.06 379.89L414.53 320.63Z" fill="black"/>
    <path opacity="0.15" d="M428.8 390.13L421.18 379.43L420.22 342.05L419.27 378.78L411.06 379.89L428.8 390.13Z" fill="black"/>
    <path d="M462.27 305.26L425.11 326.72L428.8 390.13L466 368.68L462.27 305.26ZM436.17 328.2C435.44 328.62 434.84 328.27 434.84 327.42C434.87 326.96 435.006 326.513 435.236 326.115C435.467 325.716 435.786 325.375 436.17 325.12C436.9 324.7 437.5 325.05 437.5 325.9C437.477 326.361 437.344 326.81 437.113 327.21C436.881 327.61 436.558 327.95 436.17 328.2ZM449.34 320.54C448.61 320.96 448.01 320.61 448.01 319.76C448.04 319.3 448.176 318.853 448.406 318.454C448.637 318.056 448.956 317.715 449.34 317.46C450.07 317.04 450.67 317.39 450.67 318.24C450.644 318.701 450.511 319.149 450.28 319.549C450.048 319.948 449.727 320.288 449.34 320.54Z" fill="#92E3A9"/>
    <path d="M447.09 299.07C446.365 298.694 445.552 298.521 444.737 298.571C443.921 298.62 443.135 298.889 442.46 299.35C438.66 301.54 435.57 307.87 435.57 313.47V326.66C435.57 326.819 435.634 326.972 435.746 327.084C435.859 327.197 436.011 327.26 436.17 327.26C436.329 327.26 436.482 327.197 436.595 327.084C436.707 326.972 436.77 326.819 436.77 326.66V313.47C436.77 308.26 439.59 302.39 443.06 300.39C443.552 300.034 444.132 299.82 444.736 299.771C445.341 299.721 445.948 299.839 446.49 300.11C447.92 300.94 448.74 303.03 448.74 305.87V319C448.74 319.079 448.756 319.157 448.786 319.23C448.816 319.302 448.86 319.368 448.916 319.424C448.972 319.48 449.038 319.524 449.111 319.554C449.183 319.584 449.262 319.6 449.34 319.6C449.419 319.6 449.497 319.584 449.57 319.554C449.643 319.524 449.709 319.48 449.765 319.424C449.82 319.368 449.864 319.302 449.895 319.23C449.925 319.157 449.94 319.079 449.94 319V305.87C449.94 302.59 448.9 300.12 447.09 299.07Z" fill="#37474F"/>
    <path d="M99.2198 158.33H99.0998C98.931 158.314 98.767 158.265 98.6173 158.185C98.4676 158.105 98.3351 157.997 98.2274 157.866C98.1197 157.735 98.0388 157.584 97.9894 157.422C97.9401 157.26 97.9232 157.089 97.9398 156.92C99.4498 141.49 110.16 132.27 116.4 128.15C125.81 121.95 137.25 119.15 144.23 121.38C144.404 121.42 144.567 121.496 144.711 121.602C144.854 121.709 144.973 121.843 145.062 121.998C145.15 122.153 145.206 122.325 145.224 122.502C145.243 122.68 145.225 122.859 145.171 123.029C145.116 123.199 145.028 123.356 144.91 123.49C144.792 123.624 144.648 123.732 144.486 123.807C144.324 123.882 144.149 123.923 143.97 123.927C143.792 123.931 143.615 123.898 143.45 123.83C137.27 121.83 126.45 124.59 117.82 130.31C111.96 134.17 101.91 142.8 100.51 157.17C100.475 157.489 100.325 157.783 100.087 157.997C99.8485 158.211 99.5399 158.33 99.2198 158.33Z" fill="#263238"/>
    <path d="M237.26 36.4302L154.45 84.2402L133.36 126.86L154.45 145.12L156.83 146.49L239.64 98.6802V37.8002L237.26 36.4302ZM151.56 119C151.652 117.243 152.159 115.532 153.038 114.008C153.917 112.484 155.145 111.19 156.62 110.23C157.279 109.828 158.029 109.598 158.8 109.56C159.147 110.244 159.319 111.003 159.3 111.77C159.204 113.528 158.697 115.239 157.818 116.764C156.939 118.289 155.713 119.586 154.24 120.55C153.573 120.951 152.817 121.181 152.04 121.22C151.695 120.533 151.53 119.769 151.56 119Z" fill="#92E3A9"/>
    <path d="M156.83 85.6203L135.74 128.23L156.83 146.49L239.64 98.6803V37.8003L156.83 85.6203ZM156.62 121.9C153.81 123.52 151.56 122.21 151.56 118.98C151.652 117.223 152.159 115.513 153.038 113.988C153.917 112.464 155.145 111.17 156.62 110.21C159.41 108.6 161.68 109.91 161.68 113.13C161.584 114.887 161.076 116.596 160.197 118.12C159.318 119.643 158.093 120.939 156.62 121.9Z" fill="#92E3A9"/>
    <g opacity="0.3">
        <path d="M161.68 113.13C161.585 114.886 161.077 116.596 160.198 118.119C159.319 119.643 158.093 120.938 156.62 121.9C154.62 123.07 152.85 122.71 152.04 121.2C152.818 121.165 153.575 120.934 154.24 120.53C155.713 119.566 156.939 118.269 157.818 116.744C158.697 115.218 159.205 113.508 159.3 111.75C159.319 110.99 159.147 110.237 158.8 109.56C159.15 109.545 159.499 109.601 159.827 109.722C160.155 109.844 160.455 110.03 160.71 110.27C161.053 110.659 161.315 111.112 161.482 111.603C161.648 112.094 161.715 112.613 161.68 113.13Z" fill="black"/>
    </g>
    <g opacity="0.3">
        <path d="M239.64 37.8002L237.26 36.4302L154.45 84.2402L156.82 85.6202L239.64 37.8002Z" fill="white"/>
    </g>
    <g opacity="0.15">
        <path d="M156.82 85.6202L135.74 128.24L133.36 126.86L154.45 84.2402L156.82 85.6202Z" fill="black"/>
    </g>
    <g opacity="0.3">
        <path d="M135.74 128.24L156.82 146.49L154.45 145.12L133.36 126.86L135.74 128.24Z" fill="black"/>
    </g>
    <path d="M145.33 136.78C144.096 136.773 142.867 136.618 141.67 136.32C141.358 136.219 141.095 136.004 140.935 135.718C140.775 135.432 140.728 135.096 140.806 134.777C140.883 134.458 141.078 134.18 141.351 133.999C141.624 133.818 141.956 133.747 142.28 133.8C144.755 134.516 147.406 134.301 149.733 133.196C152.06 132.09 153.902 130.171 154.91 127.8C156.25 124.66 156.31 120.03 152.08 117.34C151.932 117.25 151.803 117.132 151.701 116.991C151.599 116.851 151.527 116.692 151.487 116.523C151.448 116.354 151.443 116.179 151.472 116.008C151.502 115.837 151.565 115.674 151.658 115.528C151.752 115.382 151.873 115.256 152.016 115.158C152.159 115.059 152.32 114.991 152.49 114.955C152.659 114.92 152.834 114.919 153.004 114.953C153.174 114.986 153.336 115.053 153.48 115.15C158.72 118.49 159.17 124.42 157.29 128.82C156.306 131.18 154.645 133.196 152.516 134.612C150.388 136.029 147.887 136.783 145.33 136.78Z" fill="#37474F"/>
    <path d="M167.41 407.35C167.171 405.169 166.42 403.075 165.217 401.24C164.015 399.405 162.395 397.88 160.49 396.79C158.61 395.79 156.97 395.89 155.86 396.72L151.74 399.39L161.65 414.24L165.73 411.58C166.87 410.86 167.53 409.4 167.41 407.35Z" fill="#455A64"/>
    <path d="M156.22 399.58C158.125 400.67 159.745 402.194 160.947 404.03C162.15 405.865 162.901 407.959 163.14 410.14C163.37 414.14 160.64 415.95 157.05 414.14C155.147 413.049 153.528 411.524 152.325 409.689C151.123 407.854 150.371 405.761 150.13 403.58C149.9 399.56 152.63 397.77 156.22 399.58Z" fill="#37474F"/>
    <path d="M154.43 405.75C154.34 404.18 155.26 403.4 156.43 404.01C157.111 404.443 157.681 405.032 158.093 405.727C158.505 406.422 158.747 407.204 158.8 408.01C158.89 409.58 157.97 410.36 156.8 409.74C156.117 409.31 155.547 408.724 155.135 408.03C154.723 407.336 154.481 406.555 154.43 405.75Z" fill="#263238"/>
    <path d="M163 393.25C163 393.25 163.69 399.65 160.4 402.39C159.78 402.9 159.11 403.27 158.73 403.63C157.9 404.41 158.55 405.72 159.65 406.23C161.24 406.97 169.25 404.95 172.43 397.91L163 393.25Z" fill="#92E3A9"/>
    <path opacity="0.3" d="M163 393.25C163 393.25 163.69 399.65 160.4 402.39C159.78 402.9 159.11 403.27 158.73 403.63C157.9 404.41 158.55 405.72 159.65 406.23C161.24 406.97 169.25 404.95 172.43 397.91L163 393.25Z" fill="white"/>
    <path d="M160.07 394.63C160.07 394.63 160.48 401.71 157.19 404.45C156.57 404.96 155.9 405.34 155.52 405.7C154.69 406.47 155.34 407.78 156.43 408.29C158.03 409.03 166.32 406.29 169.5 399.29L160.07 394.63Z" fill="#92E3A9"/>
    <path opacity="0.7" d="M160.07 394.63C160.07 394.63 160.48 401.71 157.19 404.45C156.57 404.96 155.9 405.34 155.52 405.7C154.69 406.47 155.34 407.78 156.43 408.29C158.03 409.03 166.32 406.29 169.5 399.29L160.07 394.63Z" fill="white"/>
    <path d="M156.6 406.16C156.779 406.265 156.932 406.41 157.046 406.584C157.161 406.757 157.234 406.954 157.26 407.16C157.26 407.55 157.02 407.72 156.67 407.55C156.491 407.445 156.338 407.3 156.224 407.127C156.11 406.953 156.036 406.756 156.01 406.55C156 406.16 156.25 406 156.6 406.16Z" fill="#263238"/>
    <path d="M114.12 381.13C113.881 378.949 113.13 376.855 111.927 375.02C110.725 373.185 109.105 371.66 107.2 370.57C105.32 369.62 103.68 369.67 102.57 370.5L98.4502 373.17L108.36 388L112.44 385.34C113.58 384.64 114.24 383.18 114.12 381.13Z" fill="#455A64"/>
    <path d="M102.93 373.36C104.834 374.451 106.453 375.976 107.655 377.811C108.858 379.646 109.61 381.739 109.85 383.92C110.08 387.92 107.35 389.73 103.76 387.92C101.856 386.83 100.236 385.305 99.0331 383.47C97.8304 381.635 97.079 379.541 96.8402 377.36C96.6102 373.34 99.3402 371.55 102.93 373.36Z" fill="#37474F"/>
    <path d="M101.14 379.53C101.05 377.96 101.97 377.18 103.14 377.8C103.817 378.226 104.385 378.806 104.796 379.492C105.208 380.178 105.452 380.952 105.51 381.75C105.6 383.32 104.68 384.1 103.51 383.49C102.834 383.06 102.267 382.479 101.855 381.791C101.444 381.103 101.199 380.329 101.14 379.53Z" fill="#263238"/>
    <path d="M109.66 367C109.66 367 110.35 373.4 107.06 376.14C106.44 376.66 105.78 377.03 105.39 377.39C104.56 378.16 105.21 379.47 106.31 379.98C107.9 380.72 115.91 378.7 119.09 371.66L109.66 367Z" fill="#92E3A9"/>
    <path opacity="0.3" d="M109.66 367C109.66 367 110.35 373.4 107.06 376.14C106.44 376.66 105.78 377.03 105.39 377.39C104.56 378.16 105.21 379.47 106.31 379.98C107.9 380.72 115.91 378.7 119.09 371.66L109.66 367Z" fill="white"/>
    <path d="M106.78 368.41C106.78 368.41 107.19 375.49 103.9 378.23C103.28 378.75 102.61 379.12 102.23 379.48C101.4 380.25 102.05 381.56 103.15 382.07C104.74 382.81 113.03 380.07 116.21 373.07L106.78 368.41Z" fill="#92E3A9"/>
    <path opacity="0.7" d="M106.78 368.41C106.78 368.41 107.19 375.49 103.9 378.23C103.28 378.75 102.61 379.12 102.23 379.48C101.4 380.25 102.05 381.56 103.15 382.07C104.74 382.81 113.03 380.07 116.21 373.07L106.78 368.41Z" fill="white"/>
    <path d="M103.31 379.94C103.489 380.045 103.642 380.19 103.756 380.363C103.871 380.537 103.944 380.734 103.97 380.94C103.97 381.32 103.73 381.49 103.38 381.32C103.201 381.215 103.049 381.07 102.934 380.897C102.82 380.723 102.747 380.526 102.72 380.32C102.7 379.94 103 379.77 103.31 379.94Z" fill="#263238"/>
    <path d="M173.54 346.83C173.294 344.651 172.54 342.56 171.338 340.726C170.136 338.891 168.52 337.365 166.62 336.27C164.73 335.32 163.09 335.37 161.98 336.2L157.87 338.87L167.78 353.72L171.85 351.06C173 350.34 173.65 348.88 173.54 346.83Z" fill="#455A64"/>
    <path d="M162.35 339.06C164.25 340.155 165.866 341.682 167.068 343.516C168.27 345.35 169.024 347.441 169.27 349.62C169.49 353.62 166.76 355.43 163.17 353.62C161.269 352.524 159.652 350.996 158.45 349.16C157.248 347.324 156.494 345.231 156.25 343.05C156 339 158.75 337.25 162.35 339.06Z" fill="#37474F"/>
    <path d="M160.56 345.23C160.47 343.66 161.38 342.88 162.56 343.49C163.24 343.924 163.808 344.512 164.218 345.207C164.629 345.903 164.869 346.684 164.92 347.49C165.01 349.06 164.1 349.84 162.92 349.22C162.238 348.79 161.668 348.204 161.257 347.51C160.847 346.816 160.608 346.035 160.56 345.23Z" fill="#263238"/>
    <path d="M169.87 331.8C169.87 331.8 169.76 339.13 166.48 341.87C165.86 342.38 165.19 342.75 164.8 343.11C163.97 343.89 164.63 345.2 165.72 345.71C167.31 346.45 175.2 344.71 178.38 337.61L169.87 331.8Z" fill="#92E3A9"/>
    <path opacity="0.3" d="M169.87 331.8C169.87 331.8 169.76 339.13 166.48 341.87C165.86 342.38 165.19 342.75 164.8 343.11C163.97 343.89 164.63 345.2 165.72 345.71C167.31 346.45 175.2 344.71 178.38 337.61L169.87 331.8Z" fill="white"/>
    <path d="M167 332.86C167 332.86 166.63 341.19 163.35 343.93C162.73 344.44 162.06 344.81 161.67 345.17C160.84 345.95 161.49 347.26 162.59 347.77C164.18 348.51 172.47 345.77 175.65 338.77L167 332.86Z" fill="#92E3A9"/>
    <path opacity="0.7" d="M167 332.86C167 332.86 166.63 341.19 163.35 343.93C162.73 344.44 162.06 344.81 161.67 345.17C160.84 345.95 161.49 347.26 162.59 347.77C164.18 348.51 172.47 345.77 175.65 338.77L167 332.86Z" fill="white"/>
    <path d="M162.72 345.64C162.9 345.744 163.053 345.889 163.168 346.062C163.283 346.236 163.355 346.434 163.38 346.64C163.38 347.03 163.14 347.2 162.8 347.03C162.62 346.925 162.465 346.781 162.349 346.607C162.233 346.434 162.158 346.237 162.13 346.03C162.11 345.64 162.37 345.47 162.72 345.64Z" fill="#263238"/>
    <path d="M219.44 378.11C219.194 375.931 218.44 373.84 217.238 372.006C216.036 370.171 214.42 368.645 212.52 367.55C210.63 366.6 208.99 366.65 207.88 367.49L203.77 370.15L213.68 385L217.75 382.34C218.89 381.63 219.55 380.17 219.44 378.11Z" fill="#455A64"/>
    <path d="M208.25 370.34C210.151 371.436 211.768 372.964 212.97 374.8C214.172 376.636 214.926 378.729 215.17 380.91C215.4 384.91 212.67 386.71 209.07 384.91C207.17 383.815 205.554 382.289 204.352 380.454C203.15 378.62 202.396 376.529 202.15 374.35C201.93 370.32 204.66 368.53 208.25 370.34Z" fill="#37474F"/>
    <path d="M206.46 376.51C206.37 374.94 207.28 374.16 208.46 374.78C209.144 375.21 209.715 375.798 210.125 376.494C210.536 377.19 210.774 377.973 210.82 378.78C210.91 380.36 210 381.13 208.82 380.52C208.139 380.085 207.57 379.495 207.159 378.798C206.749 378.101 206.51 377.317 206.46 376.51Z" fill="#263238"/>
    <path d="M215.78 363.09C215.78 363.09 215.66 370.41 212.38 373.15C211.76 373.67 211.09 374.04 210.71 374.4C209.87 375.18 210.53 376.48 211.62 376.99C213.21 377.73 221.1 375.94 224.28 368.9L215.78 363.09Z" fill="#92E3A9"/>
    <path opacity="0.3" d="M215.78 363.09C215.78 363.09 215.66 370.41 212.38 373.15C211.76 373.67 211.09 374.04 210.71 374.4C209.87 375.18 210.53 376.48 211.62 376.99C213.21 377.73 221.1 375.94 224.28 368.9L215.78 363.09Z" fill="white"/>
    <path d="M212.87 364.15C212.87 364.15 212.5 372.47 209.22 375.21C208.6 375.73 207.93 376.1 207.55 376.46C206.71 377.24 207.37 378.54 208.46 379.05C210.05 379.79 218.34 377.05 221.52 370.05L212.87 364.15Z" fill="#92E3A9"/>
    <path opacity="0.7" d="M212.87 364.15C212.87 364.15 212.5 372.47 209.22 375.21C208.6 375.73 207.93 376.1 207.55 376.46C206.71 377.24 207.37 378.54 208.46 379.05C210.05 379.79 218.34 377.05 221.52 370.05L212.87 364.15Z" fill="white"/>
    <path d="M208.62 376.92C208.8 377.025 208.955 377.169 209.071 377.342C209.187 377.516 209.262 377.713 209.29 377.92C209.29 378.3 209.05 378.48 208.7 378.3C208.52 378.196 208.367 378.051 208.252 377.878C208.137 377.704 208.065 377.506 208.04 377.3C208 376.92 208.28 376.75 208.62 376.92Z" fill="#263238"/>
    <path d="M237.55 378.23C237.531 378.165 237.508 378.102 237.48 378.04C237.48 377.98 237.38 377.93 237.33 377.87C237.272 377.802 237.208 377.738 237.14 377.68L151.82 319.53L151.65 319.46C151.574 319.418 151.493 319.385 151.41 319.36C151.327 319.351 151.243 319.351 151.16 319.36C151.083 319.355 151.007 319.355 150.93 319.36C150.839 319.376 150.751 319.407 150.67 319.45C150.611 319.461 150.553 319.481 150.5 319.51L86.59 356.31C86.4057 356.432 86.2559 356.599 86.1549 356.796C86.0539 356.993 86.005 357.212 86.0131 357.433C86.0211 357.653 86.0857 357.869 86.2007 358.057C86.3158 358.246 86.4773 358.402 86.67 358.51L187.1 407.93L187.26 407.99H187.35C187.45 408 187.55 408 187.65 407.99C187.766 408.01 187.883 408.013 188 408H188.11L188.3 407.92L237 379.75C237.112 379.686 237.21 379.601 237.29 379.5L237.35 379.43C237.35 379.38 237.35 379.32 237.42 379.27C237.467 379.185 237.504 379.094 237.53 379C237.535 378.93 237.535 378.86 237.53 378.79C237.545 378.704 237.545 378.616 237.53 378.53C237.544 378.431 237.55 378.331 237.55 378.23ZM187.55 405.39L89.87 357.3L151 322L234 378.59L187.55 405.39Z" fill="#455A64"/>
    <path d="M87.1201 358.26C86.8397 358.262 86.5669 358.169 86.3456 357.996C86.1243 357.824 85.9674 357.582 85.9001 357.31L76.7601 320.38C76.6806 320.058 76.7323 319.717 76.9039 319.433C77.0755 319.149 77.3529 318.945 77.6751 318.865C77.9974 318.786 78.338 318.837 78.6221 319.009C78.9062 319.18 79.1106 319.458 79.1901 319.78L88.3301 356.72C88.4088 357.041 88.3572 357.38 88.1867 357.663C88.0162 357.946 87.7406 358.15 87.4201 358.23L87.1201 358.26Z" fill="#455A64"/>
    <path d="M151.09 321.73C150.803 321.727 150.526 321.627 150.304 321.445C150.082 321.263 149.929 321.011 149.87 320.73L141.75 282.8C141.715 282.637 141.714 282.469 141.745 282.305C141.777 282.141 141.842 281.986 141.935 281.848C142.029 281.709 142.149 281.592 142.289 281.501C142.429 281.41 142.586 281.349 142.75 281.32C142.913 281.287 143.081 281.286 143.244 281.319C143.407 281.351 143.562 281.416 143.7 281.509C143.838 281.602 143.956 281.722 144.047 281.861C144.138 282.001 144.2 282.157 144.23 282.32L152.36 320.25C152.397 320.433 152.393 320.621 152.348 320.802C152.304 320.983 152.219 321.152 152.102 321.296C151.984 321.44 151.836 321.557 151.668 321.637C151.5 321.718 151.316 321.76 151.13 321.76L151.09 321.73Z" fill="#455A64"/>
    <path d="M77.98 320.08L187.65 374.02L236.4 345.88L142.97 282.55L77.98 320.08Z" fill="#92E3A9"/>
    <path opacity="0.3" d="M77.98 320.08L187.65 374.02L236.4 345.88L142.97 282.55L77.98 320.08Z" fill="white"/>
    <path d="M220.8 354.19L202.8 343.25L218.31 334.25C218.576 334.074 218.765 333.804 218.838 333.493C218.911 333.183 218.863 332.857 218.703 332.581C218.543 332.305 218.284 332.101 217.979 332.009C217.674 331.918 217.345 331.947 217.06 332.09L200.37 341.72L183.03 331.17L199.62 321.59C199.763 321.508 199.887 321.399 199.988 321.268C200.088 321.138 200.161 320.989 200.204 320.83C200.247 320.671 200.258 320.506 200.237 320.343C200.215 320.18 200.162 320.022 200.08 319.88C199.998 319.738 199.889 319.613 199.758 319.512C199.628 319.412 199.479 319.339 199.32 319.296C199.162 319.253 198.996 319.242 198.833 319.263C198.67 319.285 198.513 319.338 198.37 319.42L180.6 329.68L163.26 319.13L181 309C181.266 308.824 181.455 308.554 181.528 308.243C181.601 307.933 181.553 307.607 181.393 307.331C181.233 307.055 180.974 306.851 180.669 306.759C180.364 306.668 180.035 306.697 179.75 306.84L160.89 317.73L143.55 307.17L162.31 296.34C162.598 296.174 162.808 295.901 162.894 295.58C162.98 295.26 162.936 294.918 162.77 294.63C162.604 294.342 162.331 294.132 162.01 294.046C161.69 293.96 161.348 294.004 161.06 294.17L141.12 305.69L122 294C121.716 293.826 121.375 293.772 121.052 293.85C120.728 293.928 120.449 294.131 120.275 294.415C120.101 294.699 120.047 295.04 120.125 295.363C120.203 295.687 120.406 295.966 120.69 296.14L138.69 307.08L120.55 317.56L100.31 306.48C100.018 306.321 99.6753 306.284 99.3565 306.378C99.0377 306.472 98.7692 306.688 98.61 306.98C98.4509 307.272 98.4142 307.615 98.5079 307.934C98.6017 308.252 98.8183 308.521 99.11 308.68L117.94 319L99.29 329.78C99.0483 329.916 98.8586 330.128 98.7506 330.383C98.6426 330.638 98.6226 330.922 98.6936 331.19C98.7645 331.458 98.9226 331.695 99.1428 331.863C99.363 332.031 99.6329 332.122 99.91 332.12C100.131 332.117 100.348 332.058 100.54 331.95L120.54 320.42L138.82 330.42L121.25 340.56C121.013 340.698 120.827 340.911 120.723 341.165C120.619 341.419 120.601 341.701 120.673 341.966C120.744 342.232 120.902 342.466 121.12 342.633C121.338 342.8 121.605 342.89 121.88 342.89C122.097 342.89 122.31 342.835 122.5 342.73L141.39 331.82L159.68 341.82L143.19 351.34C142.953 351.478 142.769 351.69 142.664 351.943C142.559 352.196 142.541 352.477 142.611 352.741C142.682 353.006 142.837 353.24 143.054 353.408C143.27 353.576 143.536 353.668 143.81 353.67C144.032 353.672 144.249 353.613 144.44 353.5L162.24 343.22L180.53 353.22L165.12 362.12C164.883 362.258 164.697 362.471 164.593 362.725C164.489 362.979 164.471 363.261 164.543 363.526C164.614 363.792 164.772 364.026 164.99 364.193C165.208 364.36 165.475 364.45 165.75 364.45C165.969 364.453 166.184 364.394 166.37 364.28L183.09 354.63L203.33 365.7C203.513 365.805 203.719 365.86 203.93 365.86C204.154 365.858 204.374 365.798 204.568 365.683C204.761 365.569 204.92 365.406 205.03 365.21C205.109 365.066 205.159 364.907 205.177 364.743C205.195 364.58 205.18 364.414 205.133 364.256C205.087 364.098 205.01 363.951 204.906 363.823C204.803 363.695 204.675 363.588 204.53 363.51L185.63 353.16L200.39 344.64L219.53 356.29C219.724 356.414 219.95 356.48 220.18 356.48C220.395 356.478 220.605 356.423 220.792 356.318C220.979 356.213 221.137 356.062 221.25 355.88C221.408 355.595 221.45 355.259 221.366 354.944C221.282 354.629 221.079 354.359 220.8 354.19ZM141.33 329L123 319L141 308.6L158.33 319.16L141.33 329ZM162.18 340.42L143.9 330.42L160.83 320.64L178.16 331.2L162.18 340.42ZM183 351.79L164.72 341.79L180.56 332.64L197.9 343.2L183 351.79Z" fill="#92E3A9"/>
    <path opacity="0.7" d="M220.8 354.19L202.8 343.25L218.31 334.25C218.576 334.074 218.765 333.804 218.838 333.493C218.911 333.183 218.863 332.857 218.703 332.581C218.543 332.305 218.284 332.101 217.979 332.009C217.674 331.918 217.345 331.947 217.06 332.09L200.37 341.72L183.03 331.17L199.62 321.59C199.763 321.508 199.887 321.399 199.988 321.268C200.088 321.138 200.161 320.989 200.204 320.83C200.247 320.671 200.258 320.506 200.237 320.343C200.215 320.18 200.162 320.022 200.08 319.88C199.998 319.738 199.889 319.613 199.758 319.512C199.628 319.412 199.479 319.339 199.32 319.296C199.162 319.253 198.996 319.242 198.833 319.263C198.67 319.285 198.513 319.338 198.37 319.42L180.6 329.68L163.26 319.13L181 309C181.266 308.824 181.455 308.554 181.528 308.243C181.601 307.933 181.553 307.607 181.393 307.331C181.233 307.055 180.974 306.851 180.669 306.759C180.364 306.668 180.035 306.697 179.75 306.84L160.89 317.73L143.55 307.17L162.31 296.34C162.598 296.174 162.808 295.901 162.894 295.58C162.98 295.26 162.936 294.918 162.77 294.63C162.604 294.342 162.331 294.132 162.01 294.046C161.69 293.96 161.348 294.004 161.06 294.17L141.12 305.69L122 294C121.716 293.826 121.375 293.772 121.052 293.85C120.728 293.928 120.449 294.131 120.275 294.415C120.101 294.699 120.047 295.04 120.125 295.363C120.203 295.687 120.406 295.966 120.69 296.14L138.69 307.08L120.55 317.56L100.31 306.48C100.018 306.321 99.6753 306.284 99.3565 306.378C99.0377 306.472 98.7692 306.688 98.61 306.98C98.4509 307.272 98.4142 307.615 98.5079 307.934C98.6017 308.252 98.8183 308.521 99.11 308.68L117.94 319L99.29 329.78C99.0483 329.916 98.8586 330.128 98.7506 330.383C98.6426 330.638 98.6226 330.922 98.6936 331.19C98.7645 331.458 98.9226 331.695 99.1428 331.863C99.363 332.031 99.6329 332.122 99.91 332.12C100.131 332.117 100.348 332.058 100.54 331.95L120.54 320.42L138.82 330.42L121.25 340.56C121.013 340.698 120.827 340.911 120.723 341.165C120.619 341.419 120.601 341.701 120.673 341.966C120.744 342.232 120.902 342.466 121.12 342.633C121.338 342.8 121.605 342.89 121.88 342.89C122.097 342.89 122.31 342.835 122.5 342.73L141.39 331.82L159.68 341.82L143.19 351.34C142.953 351.478 142.769 351.69 142.664 351.943C142.559 352.196 142.541 352.477 142.611 352.741C142.682 353.006 142.837 353.24 143.054 353.408C143.27 353.576 143.536 353.668 143.81 353.67C144.032 353.672 144.249 353.613 144.44 353.5L162.24 343.22L180.53 353.22L165.12 362.12C164.883 362.258 164.697 362.471 164.593 362.725C164.489 362.979 164.471 363.261 164.543 363.526C164.614 363.792 164.772 364.026 164.99 364.193C165.208 364.36 165.475 364.45 165.75 364.45C165.969 364.453 166.184 364.394 166.37 364.28L183.09 354.63L203.33 365.7C203.513 365.805 203.719 365.86 203.93 365.86C204.154 365.858 204.374 365.798 204.568 365.683C204.761 365.569 204.92 365.406 205.03 365.21C205.109 365.066 205.159 364.907 205.177 364.743C205.195 364.58 205.18 364.414 205.133 364.256C205.087 364.098 205.01 363.951 204.906 363.823C204.803 363.695 204.675 363.588 204.53 363.51L185.63 353.16L200.39 344.64L219.53 356.29C219.724 356.414 219.95 356.48 220.18 356.48C220.395 356.478 220.605 356.423 220.792 356.318C220.979 356.213 221.137 356.062 221.25 355.88C221.408 355.595 221.45 355.259 221.366 354.944C221.282 354.629 221.079 354.359 220.8 354.19ZM141.33 329L123 319L141 308.6L158.33 319.16L141.33 329ZM162.18 340.42L143.9 330.42L160.83 320.64L178.16 331.2L162.18 340.42ZM183 351.79L164.72 341.79L180.56 332.64L197.9 343.2L183 351.79Z" fill="white"/>
    <path d="M144.05 281.93C143.968 281.788 143.859 281.662 143.729 281.562C143.598 281.462 143.45 281.388 143.291 281.345C143.132 281.302 142.966 281.292 142.803 281.313C142.64 281.334 142.483 281.388 142.34 281.47L122.12 293.15L117.33 273.79L138.18 261.79C138.323 261.708 138.448 261.599 138.548 261.468C138.648 261.338 138.722 261.189 138.764 261.031C138.807 260.872 138.818 260.706 138.797 260.543C138.775 260.38 138.722 260.223 138.64 260.08C138.558 259.938 138.449 259.813 138.318 259.713C138.188 259.612 138.039 259.539 137.88 259.496C137.722 259.453 137.556 259.442 137.393 259.464C137.23 259.485 137.073 259.538 136.93 259.62L116.7 271.26L111.91 251.9L132.76 239.9C132.903 239.818 133.028 239.709 133.128 239.578C133.228 239.448 133.302 239.299 133.344 239.141C133.387 238.982 133.398 238.816 133.377 238.653C133.355 238.49 133.302 238.333 133.22 238.19C133.138 238.048 133.029 237.923 132.898 237.823C132.768 237.722 132.619 237.649 132.46 237.606C132.302 237.563 132.136 237.552 131.973 237.574C131.81 237.595 131.653 237.648 131.51 237.73L111.29 249.41L106.5 230L127.35 218C127.638 217.834 127.848 217.561 127.934 217.24C128.021 216.92 127.976 216.578 127.81 216.29C127.644 216.002 127.371 215.792 127.05 215.706C126.73 215.62 126.388 215.664 126.1 215.83L61.1002 253.36C60.8635 253.498 60.6787 253.71 60.5741 253.963C60.4696 254.216 60.4511 254.497 60.5215 254.762C60.592 255.026 60.7474 255.261 60.964 255.428C61.1806 255.596 61.4463 255.688 61.7202 255.69C61.9413 255.688 62.1582 255.63 62.3502 255.52L82.5702 243.84L87.3602 263.21L66.5102 275.21C66.2728 275.349 66.0876 275.561 65.9832 275.816C65.8788 276.07 65.8612 276.351 65.9329 276.617C66.0046 276.882 66.1617 277.116 66.38 277.283C66.5982 277.45 66.8654 277.54 67.1402 277.54C67.3585 277.542 67.573 277.483 67.7602 277.37L88.0002 265.7L92.7902 285.07L71.9402 297.07C71.7978 297.151 71.6729 297.259 71.5727 297.389C71.4724 297.518 71.3987 297.666 71.356 297.824C71.3132 297.982 71.3022 298.147 71.3235 298.31C71.3448 298.472 71.3981 298.629 71.4802 298.77C71.5891 298.961 71.7462 299.119 71.9358 299.23C72.1253 299.341 72.3407 299.399 72.5602 299.4C72.7811 299.397 72.9977 299.339 73.1902 299.23L93.4102 287.55L98.2002 307L77.3502 319C77.064 319.167 76.8552 319.441 76.7691 319.761C76.683 320.081 76.7265 320.422 76.8902 320.71C76.9711 320.854 77.0798 320.98 77.21 321.081C77.3403 321.182 77.4894 321.256 77.6486 321.299C77.8078 321.342 77.974 321.353 78.1374 321.331C78.3008 321.308 78.4581 321.254 78.6002 321.17L143.6 283.65C143.743 283.568 143.869 283.457 143.969 283.326C144.069 283.194 144.142 283.044 144.184 282.884C144.226 282.724 144.236 282.558 144.213 282.394C144.19 282.23 144.135 282.072 144.05 281.93ZM84.8402 242.51L104.24 231.31L109 250.67L89.6002 261.88L84.8402 242.51ZM90.2502 264.4L109.66 253.2L114.45 272.56L95.0002 283.77L90.2502 264.4ZM100.46 305.66L95.6702 286.29L115.08 275.09L119.87 294.45L100.46 305.66Z" fill="#92E3A9"/>
    <path d="M237.62 346C237.625 345.977 237.625 345.953 237.62 345.93L241.7 292C241.705 291.947 241.705 291.893 241.7 291.84C241.71 291.754 241.71 291.666 241.7 291.58C241.679 291.503 241.649 291.429 241.61 291.36C241.58 291.288 241.54 291.221 241.49 291.16C241.441 291.09 241.38 291.03 241.31 290.98C241.276 290.938 241.239 290.898 241.2 290.86L127.81 216.07L126 208.59C124.298 203.021 120.691 198.227 115.81 195.05L113.73 193.85C112.735 193.335 111.631 193.065 110.51 193.065C109.39 193.065 108.285 193.335 107.29 193.85L97.6002 199.45C97.4479 199.526 97.3129 199.633 97.2034 199.764C97.0939 199.894 97.0123 200.046 96.9635 200.209C96.9147 200.372 96.8998 200.544 96.9197 200.713C96.9396 200.882 96.9939 201.046 97.0792 201.193C97.1646 201.341 97.2792 201.469 97.416 201.571C97.5528 201.672 97.7089 201.745 97.8747 201.784C98.0406 201.823 98.2127 201.828 98.3804 201.798C98.5482 201.768 98.708 201.704 98.8502 201.61L108.5 196C109.122 195.691 109.806 195.53 110.5 195.53C111.194 195.53 111.879 195.691 112.5 196L114.57 197.2C118.869 200.038 122.05 204.279 123.57 209.2L125.44 216.77C125.431 217.008 125.49 217.244 125.61 217.45L141.8 282.86C141.83 282.979 141.877 283.094 141.94 283.2C141.94 283.2 141.94 283.2 141.94 283.25C141.94 283.25 142 283.31 142.02 283.35C142.086 283.428 142.16 283.498 142.24 283.56L235.66 346.88H235.75L235.87 346.94C235.976 346.984 236.087 347.014 236.2 347.03H236.27H236.37C236.509 347.026 236.648 347.003 236.78 346.96H236.87C236.993 346.907 237.108 346.836 237.21 346.75C237.271 346.697 237.325 346.637 237.37 346.57C237.373 346.543 237.373 346.517 237.37 346.49C237.418 346.417 237.452 346.335 237.47 346.25C237.535 346.177 237.586 346.092 237.62 346ZM176.53 269.8L195.11 282.16L196.25 298.54L178.8 286.83L176.53 269.8ZM176 285L158.69 273.39L155.29 255.73L173.76 268L176 285ZM197.71 283.94L216.43 296.39V312.1L198.85 300.31L197.71 283.94ZM197.49 280.79L196.36 264.38L216.43 277.63V293.38L197.49 280.79ZM194.9 279L176.09 266.5L173.82 249.5L193.76 262.66L194.9 279ZM173.32 264.65L154.66 252.24L151.26 234.56L171.05 247.62L173.32 264.65ZM151.74 250.3L133.23 238L128.7 219.69L148.34 232.69L151.74 250.3ZM152.4 253.74L155.8 271.39L138.65 259.89L134.12 241.59L152.4 253.74ZM156.46 274.85L159.86 292.48L144.07 281.78L139.54 263.5L156.46 274.85ZM159.39 276.85L176.47 288.31L178.73 305.31L162.78 294.5L159.39 276.85ZM179.24 290.17L196.47 301.73L197.6 318.1L181.51 307.19L179.24 290.17ZM199.1 303.49L216.46 315.15V330.88L200.23 319.88L199.1 303.49ZM219 316.79L236.49 328.53L235.35 343.63L219 332.55V316.79ZM219 313.79V298L237.84 310.53L236.71 325.64L219 313.79ZM219 295V279.25L239.2 292.57L238 307.69L219 295Z" fill="#92E3A9"/>
    <path opacity="0.15" d="M237.62 346C237.625 345.977 237.625 345.953 237.62 345.93L241.7 292C241.705 291.947 241.705 291.893 241.7 291.84C241.71 291.754 241.71 291.666 241.7 291.58C241.679 291.503 241.649 291.429 241.61 291.36C241.58 291.288 241.54 291.221 241.49 291.16C241.441 291.09 241.38 291.03 241.31 290.98C241.276 290.938 241.239 290.898 241.2 290.86L127.81 216.07L126 208.59C124.298 203.021 120.691 198.227 115.81 195.05L113.73 193.85C112.735 193.335 111.631 193.065 110.51 193.065C109.39 193.065 108.285 193.335 107.29 193.85L97.6002 199.45C97.4479 199.526 97.3129 199.633 97.2034 199.764C97.0939 199.894 97.0123 200.046 96.9635 200.209C96.9147 200.372 96.8998 200.544 96.9197 200.713C96.9396 200.882 96.9939 201.046 97.0792 201.193C97.1646 201.341 97.2792 201.469 97.416 201.571C97.5528 201.672 97.7089 201.745 97.8747 201.784C98.0406 201.823 98.2127 201.828 98.3804 201.798C98.5482 201.768 98.708 201.704 98.8502 201.61L108.5 196C109.122 195.691 109.806 195.53 110.5 195.53C111.194 195.53 111.879 195.691 112.5 196L114.57 197.2C118.869 200.038 122.05 204.279 123.57 209.2L125.44 216.77C125.431 217.008 125.49 217.244 125.61 217.45L141.8 282.86C141.83 282.979 141.877 283.094 141.94 283.2C141.94 283.2 141.94 283.2 141.94 283.25C141.94 283.25 142 283.31 142.02 283.35C142.086 283.428 142.16 283.498 142.24 283.56L235.66 346.88H235.75L235.87 346.94C235.976 346.984 236.087 347.014 236.2 347.03H236.27H236.37C236.509 347.026 236.648 347.003 236.78 346.96H236.87C236.993 346.907 237.108 346.836 237.21 346.75C237.271 346.697 237.325 346.637 237.37 346.57C237.373 346.543 237.373 346.517 237.37 346.49C237.418 346.417 237.452 346.335 237.47 346.25C237.535 346.177 237.586 346.092 237.62 346ZM176.53 269.8L195.11 282.16L196.25 298.54L178.8 286.83L176.53 269.8ZM176 285L158.69 273.39L155.29 255.73L173.76 268L176 285ZM197.71 283.94L216.43 296.39V312.1L198.85 300.31L197.71 283.94ZM197.49 280.79L196.36 264.38L216.43 277.63V293.38L197.49 280.79ZM194.9 279L176.09 266.5L173.82 249.5L193.76 262.66L194.9 279ZM173.32 264.65L154.66 252.24L151.26 234.56L171.05 247.62L173.32 264.65ZM151.74 250.3L133.23 238L128.7 219.69L148.34 232.69L151.74 250.3ZM152.4 253.74L155.8 271.39L138.65 259.89L134.12 241.59L152.4 253.74ZM156.46 274.85L159.86 292.48L144.07 281.78L139.54 263.5L156.46 274.85ZM159.39 276.85L176.47 288.31L178.73 305.31L162.78 294.5L159.39 276.85ZM179.24 290.17L196.47 301.73L197.6 318.1L181.51 307.19L179.24 290.17ZM199.1 303.49L216.46 315.15V330.88L200.23 319.88L199.1 303.49ZM219 316.79L236.49 328.53L235.35 343.63L219 332.55V316.79ZM219 313.79V298L237.84 310.53L236.71 325.64L219 313.79ZM219 295V279.25L239.2 292.57L238 307.69L219 295Z" fill="black"/>
    <path d="M59.6999 227.44L55.6299 220.44L98.2999 195.81C98.629 195.597 99.0157 195.49 99.4075 195.505C99.7993 195.519 100.177 195.654 100.49 195.89C101.329 196.438 102.026 197.177 102.525 198.046C103.024 198.915 103.31 199.889 103.36 200.89C103.411 201.277 103.343 201.67 103.164 202.017C102.985 202.364 102.705 202.648 102.36 202.83L59.6999 227.44Z" fill="#92E3A9"/>
    <path opacity="0.25" d="M59.6999 227.44L55.6299 220.44L98.2999 195.81C98.629 195.597 99.0157 195.49 99.4075 195.505C99.7993 195.519 100.177 195.654 100.49 195.89C101.329 196.438 102.026 197.177 102.525 198.046C103.024 198.915 103.31 199.889 103.36 200.89C103.411 201.277 103.343 201.67 103.164 202.017C102.985 202.364 102.705 202.648 102.36 202.83L59.6999 227.44Z" fill="black"/>
    <path d="M55.6299 220.4C56.6999 219.79 58.4798 220.86 59.6298 222.81C60.7798 224.76 60.7998 226.81 59.7298 227.44C58.6598 228.07 56.8798 226.98 55.7298 225.04C54.5798 223.1 54.5699 221 55.6299 220.4Z" fill="#92E3A9"/>
    <path d="M193 320.17C193.01 320.004 192.99 319.838 192.94 319.68C192.909 319.613 192.873 319.55 192.83 319.49C192.799 319.41 192.755 319.336 192.7 319.27C192.597 319.14 192.468 319.035 192.32 318.96L191.71 318.66L134.09 289.54L62.8501 253.54L61.0001 246.11C59.2991 240.545 55.6956 235.756 50.8201 232.58L48.7401 231.38C48.3801 231.17 48.3001 231 48.2901 230.96C48.2801 230.92 48.3801 230.75 48.7401 230.55L57.8201 225.3C58.1501 225.11 58.1401 224.47 57.8201 223.87C57.5001 223.27 56.9301 222.94 56.6001 223.13L47.5101 228.38C47.0062 228.597 46.5771 228.957 46.2756 229.416C45.9741 229.874 45.8135 230.411 45.8135 230.96C45.8135 231.509 45.9741 232.045 46.2756 232.504C46.5771 232.962 47.0062 233.322 47.5101 233.54L49.5901 234.75C53.8874 237.589 57.0679 241.829 58.5901 246.75L60.5901 254.63V254.73L76.0001 317.34L76.7501 320.34V320.39C76.763 320.447 76.7867 320.501 76.8201 320.55C76.8499 320.631 76.8902 320.709 76.9401 320.78C76.9358 320.796 76.9358 320.813 76.9401 320.83C76.9675 320.862 76.9976 320.892 77.0301 320.92C77.1013 320.991 77.1821 321.051 77.2701 321.1C77.2929 321.125 77.32 321.145 77.3501 321.16L187.1 375.14C187.231 375.204 187.374 375.242 187.52 375.25H187.66H187.77C187.843 375.255 187.917 375.255 187.99 375.25H188.08H188.19L188.36 375.13L188.44 375.05C188.546 374.958 188.631 374.846 188.69 374.72C188.756 374.578 188.796 374.426 188.81 374.27L190.16 356.27L191.52 338.27L192.87 320.27L193 320.17ZM164.51 307.71V323.71L142.31 312.59L141.16 295.95L164.51 307.71ZM141 330.81L120.29 320.5L118 303.18L139.9 314.18L141 330.81ZM138.49 294.61L139.65 311.25L117.55 300.18L115.24 282.86L138.49 294.61ZM117.56 319.16L97.0001 308.91L93.5301 290.91L115.32 301.83L117.56 319.16ZM112.56 281.49L114.87 298.83L92.8701 287.83L89.4001 269.83L112.56 281.49ZM63.5601 256.76L86.5601 268.38L90.0301 286.38L68.1801 275.38L63.5601 256.76ZM69.0001 278.64L90.6601 289.49L94.1301 307.49L73.6401 297.33L69.0001 278.64ZM79.0001 319.21L74.3801 300.51L94.7401 310.6L98.2101 328.6L79.0001 319.21ZM101 330L97.5301 312L118 322.15L120.31 339.5L101 330ZM123 340.81L120.69 323.47L141.23 333.68L142.38 350.34L123 340.81ZM142.47 315.43L164.47 326.43V342.43L143.63 332.1L142.47 315.43ZM145 351.64L143.83 335L164.47 345.25V361.25L145 351.64ZM186.56 372.08L167 362.45V346.45L187.73 356.75L186.56 372.08ZM187.92 354.08L167 343.69V327.69L189.08 338.76L187.92 354.08ZM189.27 336.08L167 324.93V309L190.43 320.84L189.27 336.08Z" fill="#92E3A9"/>
    <path opacity="0.5" d="M193 320.17C193.01 320.004 192.99 319.838 192.94 319.68C192.909 319.613 192.873 319.55 192.83 319.49C192.799 319.41 192.755 319.336 192.7 319.27C192.597 319.14 192.468 319.035 192.32 318.96L191.71 318.66L134.09 289.54L62.8501 253.54L61.0001 246.11C59.2991 240.545 55.6956 235.756 50.8201 232.58L48.7401 231.38C48.3801 231.17 48.3001 231 48.2901 230.96C48.2801 230.92 48.3801 230.75 48.7401 230.55L57.8201 225.3C58.1501 225.11 58.1401 224.47 57.8201 223.87C57.5001 223.27 56.9301 222.94 56.6001 223.13L47.5101 228.38C47.0062 228.597 46.5771 228.957 46.2756 229.416C45.9741 229.874 45.8135 230.411 45.8135 230.96C45.8135 231.509 45.9741 232.045 46.2756 232.504C46.5771 232.962 47.0062 233.322 47.5101 233.54L49.5901 234.75C53.8874 237.589 57.0679 241.829 58.5901 246.75L60.5901 254.63V254.73L76.0001 317.34L76.7501 320.34V320.39C76.763 320.447 76.7867 320.501 76.8201 320.55C76.8499 320.631 76.8902 320.709 76.9401 320.78C76.9358 320.796 76.9358 320.813 76.9401 320.83C76.9675 320.862 76.9976 320.892 77.0301 320.92C77.1013 320.991 77.1821 321.051 77.2701 321.1C77.2929 321.125 77.32 321.145 77.3501 321.16L187.1 375.14C187.231 375.204 187.374 375.242 187.52 375.25H187.66H187.77C187.843 375.255 187.917 375.255 187.99 375.25H188.08H188.19L188.36 375.13L188.44 375.05C188.546 374.958 188.631 374.846 188.69 374.72C188.756 374.578 188.796 374.426 188.81 374.27L190.16 356.27L191.52 338.27L192.87 320.27L193 320.17ZM164.51 307.71V323.71L142.31 312.59L141.16 295.95L164.51 307.71ZM141 330.81L120.29 320.5L118 303.18L139.9 314.18L141 330.81ZM138.49 294.61L139.65 311.25L117.55 300.18L115.24 282.86L138.49 294.61ZM117.56 319.16L97.0001 308.91L93.5301 290.91L115.32 301.83L117.56 319.16ZM112.56 281.49L114.87 298.83L92.8701 287.83L89.4001 269.83L112.56 281.49ZM63.5601 256.76L86.5601 268.38L90.0301 286.38L68.1801 275.38L63.5601 256.76ZM69.0001 278.64L90.6601 289.49L94.1301 307.49L73.6401 297.33L69.0001 278.64ZM79.0001 319.21L74.3801 300.51L94.7401 310.6L98.2101 328.6L79.0001 319.21ZM101 330L97.5301 312L118 322.15L120.31 339.5L101 330ZM123 340.81L120.69 323.47L141.23 333.68L142.38 350.34L123 340.81ZM142.47 315.43L164.47 326.43V342.43L143.63 332.1L142.47 315.43ZM145 351.64L143.83 335L164.47 345.25V361.25L145 351.64ZM186.56 372.08L167 362.45V346.45L187.73 356.75L186.56 372.08ZM187.92 354.08L167 343.69V327.69L189.08 338.76L187.92 354.08ZM189.27 336.08L167 324.93V309L190.43 320.84L189.27 336.08Z" fill="white"/>
    <path d="M241.69 291.91C241.7 291.827 241.7 291.743 241.69 291.66C241.669 291.582 241.643 291.505 241.61 291.43C241.61 291.43 241.61 291.35 241.61 291.31C241.589 291.276 241.562 291.245 241.53 291.22C241.488 291.151 241.433 291.09 241.37 291.04C241.314 290.982 241.25 290.931 241.18 290.89L240.98 290.79C240.9 290.756 240.816 290.733 240.73 290.72C240.693 290.716 240.656 290.716 240.62 290.72C240.62 290.72 240.54 290.72 240.5 290.72C240.424 290.71 240.346 290.71 240.27 290.72C240.169 290.738 240.071 290.772 239.98 290.82H239.9L191.09 319L191.02 319.07C190.938 319.122 190.864 319.186 190.8 319.26C190.751 319.309 190.708 319.363 190.67 319.42C190.631 319.491 190.597 319.564 190.57 319.64C190.532 319.719 190.508 319.803 190.5 319.89C190.494 319.923 190.494 319.957 190.5 319.99L186.44 373.93C186.44 373.93 186.44 374.01 186.44 374.05C186.43 374.133 186.43 374.217 186.44 374.3C186.461 374.382 186.487 374.462 186.52 374.54C186.52 374.54 186.52 374.62 186.52 374.65L186.62 374.79L186.68 374.87C186.78 374.973 186.894 375.061 187.02 375.13H187.08C187.197 375.186 187.322 375.224 187.45 375.24H187.6C187.74 375.239 187.879 375.212 188.01 375.16H188.12H188.23L237 347C237 347 237.06 346.94 237.1 346.91C237.17 346.862 237.234 346.805 237.29 346.74C237.342 346.685 237.389 346.624 237.43 346.56C237.471 346.494 237.505 346.424 237.53 346.35C237.559 346.276 237.579 346.199 237.59 346.12C237.594 346.084 237.594 346.047 237.59 346.01L241.7 292C241.7 292 241.69 292 241.69 291.91ZM209.16 311.45L222.79 303.58L221.66 318.58L208 326.41L209.16 311.45ZM192.91 320.83L206.54 313L205.41 328L191.78 335.87L192.91 320.83ZM202.7 363.88L189.08 371.75L190.2 356.75L203.83 348.88L202.7 363.88ZM204.06 345.88L190.43 353.75L191.56 338.75L205.18 330.88L204.06 345.88ZM219 354.5L205.37 362.37L206.5 347.37L220.13 339.5L219 354.5ZM220.36 336.5L206.73 344.37L207.85 329.37L221.48 321.5L220.36 336.5ZM235.25 345.1L221.57 353L222.7 338L236.33 330.13L235.25 345.1ZM236.6 327.1L222.93 335L224.05 320L237.68 312.13L236.6 327.1ZM237.96 309.1L224.28 317L225.41 302L239 294.2L237.96 309.1Z" fill="#92E3A9"/>
    <path opacity="0.7" d="M241.69 291.91C241.7 291.827 241.7 291.743 241.69 291.66C241.669 291.582 241.643 291.505 241.61 291.43C241.61 291.43 241.61 291.35 241.61 291.31C241.589 291.276 241.562 291.245 241.53 291.22C241.488 291.151 241.433 291.09 241.37 291.04C241.314 290.982 241.25 290.931 241.18 290.89L240.98 290.79C240.9 290.756 240.816 290.733 240.73 290.72C240.693 290.716 240.656 290.716 240.62 290.72C240.62 290.72 240.54 290.72 240.5 290.72C240.424 290.71 240.346 290.71 240.27 290.72C240.169 290.738 240.071 290.772 239.98 290.82H239.9L191.09 319L191.02 319.07C190.938 319.122 190.864 319.186 190.8 319.26C190.751 319.309 190.708 319.363 190.67 319.42C190.631 319.491 190.597 319.564 190.57 319.64C190.532 319.719 190.508 319.803 190.5 319.89C190.494 319.923 190.494 319.957 190.5 319.99L186.44 373.93C186.44 373.93 186.44 374.01 186.44 374.05C186.43 374.133 186.43 374.217 186.44 374.3C186.461 374.382 186.487 374.462 186.52 374.54C186.52 374.54 186.52 374.62 186.52 374.65L186.62 374.79L186.68 374.87C186.78 374.973 186.894 375.061 187.02 375.13H187.08C187.197 375.186 187.322 375.224 187.45 375.24H187.6C187.74 375.239 187.879 375.212 188.01 375.16H188.12H188.23L237 347C237 347 237.06 346.94 237.1 346.91C237.17 346.862 237.234 346.805 237.29 346.74C237.342 346.685 237.389 346.624 237.43 346.56C237.471 346.494 237.505 346.424 237.53 346.35C237.559 346.276 237.579 346.199 237.59 346.12C237.594 346.084 237.594 346.047 237.59 346.01L241.7 292C241.7 292 241.69 292 241.69 291.91ZM209.16 311.45L222.79 303.58L221.66 318.58L208 326.41L209.16 311.45ZM192.91 320.83L206.54 313L205.41 328L191.78 335.87L192.91 320.83ZM202.7 363.88L189.08 371.75L190.2 356.75L203.83 348.88L202.7 363.88ZM204.06 345.88L190.43 353.75L191.56 338.75L205.18 330.88L204.06 345.88ZM219 354.5L205.37 362.37L206.5 347.37L220.13 339.5L219 354.5ZM220.36 336.5L206.73 344.37L207.85 329.37L221.48 321.5L220.36 336.5ZM235.25 345.1L221.57 353L222.7 338L236.33 330.13L235.25 345.1ZM236.6 327.1L222.93 335L224.05 320L237.68 312.13L236.6 327.1ZM237.96 309.1L224.28 317L225.41 302L239 294.2L237.96 309.1Z" fill="white"/>
    <path d="M315.37 94.3L312.11 88.17L314.73 80.6V76L306.73 80.63V85.27L310.18 91.27C310.237 91.363 310.32 91.4363 310.42 91.48L315.37 94.3Z" fill="#92E3A9"/>
    <path opacity="0.3" d="M315.37 94.3L312.11 88.17L314.73 80.6V76L306.73 80.63V85.27L310.18 91.27C310.237 91.363 310.32 91.4363 310.42 91.48L315.37 94.3Z" fill="black"/>
    <path d="M330.36 43.3199C330.32 42.4887 330.086 41.6784 329.676 40.9542C329.266 40.23 328.692 39.612 328 39.1499L326 37.9999C325.255 37.6206 324.431 37.4229 323.595 37.4229C322.759 37.4229 321.935 37.6206 321.19 37.9999L293.05 54.2099C292.35 54.667 291.768 55.2829 291.351 56.0075C290.933 56.7321 290.693 57.545 290.65 58.3799V89.6999C290.697 90.5341 290.938 91.3458 291.355 92.0699C291.771 92.7941 292.352 93.4105 293.05 93.8699L295 94.9999C295.747 95.3794 296.572 95.5771 297.41 95.5771C298.247 95.5771 299.073 95.3794 299.82 94.9999L311.73 88.1599L315.18 94.1599C315.228 94.2465 315.301 94.3171 315.389 94.3631C315.476 94.4091 315.576 94.4285 315.674 94.4189C315.773 94.4094 315.867 94.3713 315.944 94.3093C316.021 94.2473 316.079 94.1641 316.11 94.0699L319.75 83.5699L328 78.8099C328.701 78.3534 329.285 77.7378 329.704 77.0133C330.123 76.2887 330.365 75.4756 330.41 74.6399L330.36 43.3199Z" fill="#92E3A9"/>
    <path d="M305.32 69.7299C305.344 67.8781 305.734 66.0495 306.47 64.3499C307.144 62.5739 308.34 61.0435 309.9 59.9599C312.25 58.5699 314.21 61.3799 314.52 64.6999C314.8 61.0399 316.72 55.9499 319.07 54.5699C319.583 54.1835 320.222 54.0041 320.861 54.067C321.5 54.13 322.092 54.4308 322.52 54.9099C323.364 56.0666 323.781 57.4802 323.7 58.9099C323.7 64.5099 320.36 69.5899 317.54 74.9099L314.54 80.5199L311.54 78.4199C308.74 76.4399 305.35 75.3299 305.32 69.7299Z" fill="#FAFAFA"/>
    <path opacity="0.3" d="M290.65 89.7C290.697 90.5342 290.938 91.3459 291.355 92.07C291.771 92.7941 292.352 93.4106 293.05 93.87L295 95C295.679 95.3397 296.421 95.5322 297.18 95.5649C297.938 95.5976 298.694 95.4699 299.4 95.19C298.27 95.62 297.4 94.98 297.4 93.61V62.29C297.43 61.4505 297.67 60.6319 298.1 59.91L291.35 56C290.92 56.7219 290.68 57.5405 290.65 58.38V89.7Z" fill="black"/>
    <path opacity="0.3" d="M330.28 42.6297C330 41.6297 329.06 41.2897 327.95 41.9297L299.82 58.1197C299.108 58.5603 298.525 59.1813 298.13 59.9197L291.36 55.9997C291.764 55.2679 292.345 54.649 293.05 54.1997L321.17 37.9997C321.919 37.6233 322.746 37.4272 323.585 37.4272C324.423 37.4272 325.25 37.6233 326 37.9997L328 39.1297C328.596 39.5295 329.105 40.0456 329.497 40.6471C329.889 41.2485 330.155 41.9229 330.28 42.6297Z" fill="white"/>
    <path d="M282.81 245.13C281.816 244.508 280.673 244.162 279.5 244.13C279.166 244.087 278.827 244.107 278.5 244.19C278.341 244.24 278.199 244.332 278.09 244.457C277.98 244.583 277.908 244.736 277.88 244.9C277.217 244.317 276.361 244.001 275.479 244.012C274.596 244.023 273.748 244.361 273.1 244.96L274.63 247.6C276.053 248.745 277.73 249.531 279.52 249.89C280.368 250.095 281.252 250.095 282.1 249.89C282.524 249.782 282.916 249.576 283.244 249.287C283.573 248.999 283.828 248.636 283.99 248.23C284.14 247.655 284.107 247.047 283.895 246.492C283.684 245.936 283.305 245.46 282.81 245.13Z" fill="#F28F8F"/>
    <path d="M299.65 165.52C293.08 167.71 288.65 167.61 281.23 176.28C274.23 184.39 267.88 192.21 262.84 198.61C259.25 203.17 258.69 205.5 262.06 211.29C264.86 216.11 278.61 234.4 279.87 235.66C280.52 236.31 279.87 239.33 279.74 241.2C279.61 243.07 280.39 244.81 280.19 246.27C279.82 249.15 278.93 249.27 276.96 247.47C274.57 245.32 272.32 243.4 271.62 246.1C271.47 246.67 275.98 251.61 276.9 252.67C278.5 254.5 282.21 254.24 285.97 252.67C289.73 251.1 292.87 248.47 293.36 244.67C293.85 240.87 294.51 236.35 291.82 232.22C288.65 227.34 278.62 206.04 278.62 206.04L297.06 188.39L299.65 165.52Z" fill="#FFA8A7"/>
    <path d="M294.26 165.52C289.52 166.76 289.31 166.52 280.84 175.91C275.265 182.201 270.04 188.794 265.19 195.66C268.622 195.728 271.951 196.844 274.73 198.86C279.82 202.31 280.03 204.7 280.03 204.7L299.27 188.13L294.26 165.52Z" fill="#37474F"/>
    <path d="M290.59 380.09C290.32 376.09 287.91 335.9 287.91 335.9L307.63 350.37C304.49 373.37 303.25 379.54 303.13 383.37C303.214 383.696 303.248 384.033 303.23 384.37C303.17 388.92 297.87 391.32 293.72 394.32C290.193 396.968 286.446 399.31 282.52 401.32C279.52 402.76 273.45 402.83 272.71 400.94C277.76 397.27 283.59 393.26 287.62 389.04C289.54 387 290.92 384.88 290.59 380.09Z" fill="#FFA8A7"/>
    <path d="M264.13 405.71C263.87 405.71 263.45 408.46 264.84 409.65C266.43 411.02 271.13 413.29 277.38 412.57C283.63 411.85 287 410 289.55 408C292.1 406 295.6 403.15 298.43 402.58C301.06 402.04 303.92 400.91 304.77 400.13C305.62 399.35 305.54 395.83 305.54 395.83L264.13 405.71Z" fill="#263238"/>
    <path d="M303.19 382.26C303.416 382.272 303.631 382.361 303.8 382.512C303.969 382.663 304.082 382.867 304.12 383.09C304.31 384.09 304.48 386.88 304.88 388.47C305.497 391.275 305.676 394.159 305.41 397.02C305.04 398.82 300.76 400.02 298.01 401.02C294.79 402.353 291.787 404.159 289.1 406.38C286.1 408.71 279.95 411.09 275.88 411.02C271.07 410.94 265.66 409.36 264.44 407.17C262.93 404.46 264.16 402.92 271.33 399.77C272.68 399.17 277.46 396.48 279.09 395.5C283.49 392.86 287.86 389.17 289.93 384.44C290.087 383.859 290.441 383.35 290.93 383C291.37 382.818 291.857 382.78 292.32 382.89C293.507 383.064 294.66 383.418 295.74 383.94C296.74 384.39 298.05 384.94 298.01 386.12C297.986 386.536 297.891 386.945 297.73 387.33C297.65 387.57 297.57 387.9 297.79 388.05C298.01 388.2 298.27 388.05 298.46 387.87C299.173 387.184 299.825 386.437 300.41 385.64C300.744 385.225 301.127 384.853 301.55 384.53C301.974 384.3 302.385 384.046 302.78 383.77C303.26 383.34 303.16 382.82 303.19 382.26Z" fill="#37474F"/>
    <path d="M289.1 406.37C290.36 405.37 291.69 404.43 293.03 403.58C293.03 403.58 284.58 408.47 281.21 406.17C279.04 404.69 280.1 402.94 280.21 402.37C280.32 401.8 274.9 399.37 272.78 399.06C272.19 399.38 271.69 399.63 271.38 399.77C264.21 402.92 262.98 404.46 264.49 407.17C265.71 409.36 269.62 411.1 275.84 411.17C279.86 411.2 286.15 408.7 289.1 406.37Z" fill="#455A64"/>
    <path d="M280.76 400.72C276.31 402.41 278.19 403.23 279.43 403.42C280.67 403.61 288.19 399.42 292.78 395.96C297.57 392.35 300.61 388.37 302.39 387.04C303.05 386.55 303.77 385.94 304.39 385.37C304.28 384.42 304.2 383.55 304.11 383.09C304.072 382.867 303.959 382.663 303.79 382.512C303.621 382.361 303.406 382.272 303.18 382.26C303.18 382.82 303.25 383.34 302.81 383.76C302.415 384.036 302.004 384.29 301.58 384.52C301.157 384.843 300.774 385.215 300.44 385.63C299.855 386.427 299.203 387.173 298.49 387.86C294.58 392.62 285.22 399 280.76 400.72Z" fill="#263238"/>
    <path d="M279.75 402.79C279.831 402.789 279.91 402.766 279.979 402.723C280.047 402.68 280.102 402.619 280.139 402.547C280.175 402.474 280.19 402.393 280.184 402.313C280.177 402.232 280.148 402.155 280.1 402.09C279.051 401.016 277.788 400.175 276.392 399.622C274.996 399.069 273.5 398.816 272 398.88C271.94 398.879 271.88 398.892 271.824 398.916C271.769 398.941 271.719 398.976 271.679 399.021C271.638 399.066 271.608 399.119 271.589 399.177C271.57 399.234 271.564 399.295 271.57 399.355C271.577 399.415 271.596 399.473 271.626 399.526C271.656 399.578 271.697 399.623 271.746 399.659C271.795 399.694 271.851 399.719 271.911 399.731C271.97 399.743 272.031 399.743 272.09 399.73C273.445 399.685 274.795 399.92 276.056 400.419C277.317 400.918 278.462 401.67 279.42 402.63C279.46 402.679 279.511 402.718 279.568 402.746C279.625 402.773 279.687 402.788 279.75 402.79Z" fill="#F0F0F0"/>
    <path d="M283.65 400.51C283.731 400.509 283.81 400.486 283.879 400.443C283.947 400.4 284.003 400.339 284.039 400.267C284.075 400.194 284.09 400.113 284.084 400.033C284.077 399.952 284.048 399.875 284 399.81C282.95 398.738 281.686 397.898 280.291 397.345C278.896 396.792 277.4 396.538 275.9 396.6C275.785 396.61 275.679 396.665 275.604 396.753C275.529 396.841 275.492 396.955 275.5 397.07C275.515 397.183 275.574 397.286 275.663 397.357C275.753 397.428 275.866 397.461 275.98 397.45C277.334 397.41 278.682 397.646 279.942 398.143C281.202 398.639 282.348 399.387 283.31 400.34C283.352 400.39 283.404 400.432 283.462 400.461C283.521 400.49 283.585 400.507 283.65 400.51Z" fill="#F0F0F0"/>
    <path d="M287.54 398.35C287.621 398.349 287.7 398.326 287.769 398.283C287.837 398.24 287.892 398.179 287.929 398.107C287.965 398.034 287.98 397.953 287.974 397.873C287.967 397.792 287.938 397.715 287.89 397.65C286.841 396.576 285.578 395.735 284.182 395.182C282.786 394.629 281.29 394.376 279.79 394.44C279.733 394.443 279.677 394.459 279.626 394.485C279.575 394.511 279.53 394.547 279.494 394.591C279.457 394.635 279.43 394.686 279.414 394.741C279.398 394.795 279.393 394.853 279.4 394.91C279.406 394.966 279.424 395.021 279.451 395.071C279.479 395.121 279.516 395.165 279.561 395.2C279.605 395.235 279.657 395.262 279.711 395.277C279.766 395.292 279.824 395.297 279.88 395.29C281.235 395.245 282.585 395.48 283.846 395.979C285.107 396.478 286.252 397.23 287.21 398.19C287.252 398.237 287.302 398.276 287.359 398.303C287.416 398.331 287.477 398.347 287.54 398.35Z" fill="#F0F0F0"/>
    <path d="M291.16 395.87C291.26 395.869 291.358 395.838 291.44 395.78C291.485 395.745 291.523 395.701 291.551 395.651C291.579 395.601 291.597 395.547 291.603 395.49C291.61 395.433 291.605 395.375 291.589 395.321C291.573 395.266 291.546 395.215 291.51 395.17C290.457 394.101 289.193 393.264 287.798 392.711C286.404 392.158 284.909 391.903 283.41 391.96C283.353 391.965 283.299 391.982 283.248 392.008C283.198 392.035 283.154 392.071 283.118 392.114C283.081 392.158 283.054 392.208 283.037 392.262C283.021 392.317 283.015 392.374 283.02 392.43C283.025 392.487 283.042 392.541 283.068 392.592C283.094 392.642 283.131 392.686 283.174 392.722C283.218 392.759 283.268 392.786 283.322 392.803C283.377 392.819 283.433 392.825 283.49 392.82C284.844 392.774 286.194 393.007 287.455 393.504C288.716 394.002 289.861 394.752 290.82 395.71C290.862 395.759 290.914 395.799 290.973 395.826C291.031 395.854 291.095 395.869 291.16 395.87Z" fill="#F0F0F0"/>
    <path d="M294.7 393.39C294.749 393.395 294.798 393.39 294.845 393.375C294.892 393.359 294.934 393.334 294.97 393.3C295.017 393.267 295.056 393.225 295.086 393.177C295.116 393.128 295.135 393.074 295.142 393.018C295.15 392.961 295.146 392.904 295.13 392.849C295.114 392.794 295.087 392.744 295.05 392.7C293.35 390.57 289.47 389.13 286.2 389.44C286.14 389.44 286.08 389.452 286.025 389.476C285.969 389.501 285.92 389.537 285.879 389.581C285.839 389.626 285.808 389.679 285.789 389.737C285.77 389.794 285.764 389.855 285.77 389.915C285.777 389.975 285.796 390.033 285.826 390.086C285.857 390.138 285.898 390.183 285.947 390.219C285.996 390.254 286.052 390.279 286.111 390.291C286.17 390.303 286.231 390.303 286.29 390.29C289.23 390.01 292.85 391.29 294.36 393.23C294.4 393.282 294.452 393.323 294.511 393.351C294.57 393.379 294.635 393.392 294.7 393.39Z" fill="#F0F0F0"/>
    <path d="M330.69 350L349.62 347.8C350.62 360.67 350.05 375.12 350.96 387.19C351.13 389.47 352.85 404.8 352.46 409.55C351.87 416.69 343.24 416.55 342.35 412.43C341.46 408.31 340.6 390.27 340.35 388.43C339.63 380.7 335.78 371.09 332.35 357.43C332.25 356.72 330.85 350.64 330.69 350Z" fill="#FFA8A7"/>
    <path d="M339.44 415.65C339.69 419.79 340.35 422.53 341.86 424.96C343.37 427.39 346.21 428.14 349.08 427.43C351.95 426.72 355.64 424.82 356.46 421.26C357.2 418.018 357.2 414.651 356.46 411.41L339.44 415.65Z" fill="#263238"/>
    <path d="M350.86 385.71C352.04 385.8 352.4 391.35 353.08 396.91C353.82 402.91 355.65 405.33 356.31 410.22C357.06 415.8 356.76 418.3 354.76 421.67C352.76 425.04 345.65 428.36 342.15 423.52C339.29 419.58 339.15 415.21 339.43 409.64C339.752 404.917 339.836 400.181 339.68 395.45C339.45 391.27 339.15 387.22 340.18 386.75C340.26 387.37 340.33 388.15 340.42 388.75C340.51 389.35 340.6 391.48 341.27 391.5C341.32 390.974 341.32 390.445 341.27 389.92C341.2 389.446 341.314 388.962 341.59 388.57C341.957 388.242 342.42 388.042 342.91 388C344.07 387.78 345.24 387.58 346.43 387.47C347.019 387.417 347.609 387.393 348.2 387.4C348.708 387.384 349.216 387.455 349.7 387.61C349.841 387.653 349.972 387.726 350.084 387.822C350.196 387.918 350.286 388.037 350.35 388.17C350.404 388.379 350.425 388.595 350.41 388.81C350.41 389.198 350.46 389.585 350.56 389.96C350.56 390.12 350.72 390.32 350.89 390.28C351.06 390.24 351.08 390.08 351.08 389.95C351.08 389.27 351 388.78 350.96 388C350.96 387.64 350.89 387.14 350.88 386.78C350.87 386.42 350.88 386.06 350.86 385.71Z" fill="#37474F"/>
    <path d="M356 408.63C356.11 409.44 356.82 414.77 355.33 415.73C353.84 416.69 352.83 412.58 352.83 412.58C352.83 412.58 349.05 411.45 343.55 413.8C343.83 414.66 342.98 417.51 341.47 416.91C339.96 416.31 339.38 410.2 339.37 410.12C339.14 415.46 339.37 419.7 342.11 423.52C345.61 428.36 352.71 425.05 354.72 421.67C356.73 418.29 357.02 415.8 356.27 410.22C356.23 409.66 356.14 409.14 356 408.63Z" fill="#455A64"/>
    <path d="M352.44 412.94C352.44 414.94 354.51 414.27 354.59 411.42C354.67 408.57 353.07 401.81 353.08 396.91C352.4 391.35 352.08 385.8 350.86 385.71V385.91L351.02 388.74C351.064 389.142 351.087 389.546 351.09 389.95C351.09 394.06 351.72 402.02 352.09 405.78C352.338 408.158 352.455 410.549 352.44 412.94Z" fill="#263238"/>
    <path d="M344.22 413.74C343.711 411.403 343.333 409.039 343.09 406.66C342.68 402.93 341.64 395.11 340.83 391.05C340.603 390.302 340.465 389.53 340.42 388.75C340.34 388.19 340.27 387.48 340.19 386.88C340.19 386.88 340.19 386.8 340.19 386.76C339.45 387.11 339.4 389.34 339.52 392.14C339.67 393.75 339.94 395.75 340.31 398.14C341.31 402.95 341.14 409.92 341.81 412.7C342.48 415.48 344.61 415.72 344.22 413.74Z" fill="#263238"/>
    <path d="M343.47 414C343.523 414.013 343.578 414.013 343.63 414C346.491 412.703 349.698 412.38 352.76 413.08C352.815 413.095 352.872 413.1 352.928 413.093C352.984 413.086 353.038 413.068 353.087 413.04C353.137 413.012 353.18 412.975 353.215 412.93C353.249 412.886 353.275 412.835 353.29 412.78C353.318 412.669 353.301 412.551 353.243 412.452C353.185 412.353 353.091 412.281 352.98 412.25C349.707 411.474 346.268 411.827 343.22 413.25C343.17 413.274 343.125 413.309 343.088 413.351C343.051 413.393 343.024 413.443 343.007 413.496C342.99 413.549 342.984 413.606 342.99 413.661C342.996 413.717 343.013 413.771 343.04 413.82C343.087 413.888 343.152 413.941 343.229 413.973C343.305 414.005 343.389 414.015 343.47 414Z" fill="#F0F0F0"/>
    <path d="M342.48 409.58C342.526 409.59 342.574 409.59 342.62 409.58C345.854 408.247 349.409 407.899 352.84 408.58C352.953 408.605 353.07 408.585 353.169 408.526C353.267 408.466 353.339 408.371 353.37 408.26C353.394 408.149 353.372 408.032 353.311 407.937C353.249 407.841 353.151 407.774 353.04 407.75C349.413 407.013 345.647 407.393 342.24 408.84C342.188 408.862 342.141 408.895 342.102 408.937C342.063 408.978 342.034 409.027 342.015 409.081C341.996 409.135 341.989 409.192 341.993 409.248C341.997 409.305 342.013 409.36 342.04 409.41C342.089 409.478 342.157 409.531 342.235 409.561C342.313 409.591 342.398 409.598 342.48 409.58Z" fill="#F0F0F0"/>
    <path d="M352.55 404.35C352.634 404.345 352.715 404.315 352.781 404.263C352.847 404.211 352.896 404.14 352.92 404.06C352.939 404.007 352.947 403.95 352.943 403.894C352.94 403.838 352.925 403.783 352.9 403.733C352.874 403.682 352.839 403.637 352.797 403.601C352.754 403.564 352.704 403.537 352.65 403.52C347.33 401.77 342.09 404.4 341.87 404.52C341.818 404.544 341.772 404.579 341.735 404.622C341.697 404.665 341.668 404.715 341.65 404.769C341.632 404.823 341.626 404.881 341.631 404.937C341.636 404.994 341.653 405.05 341.68 405.1C341.735 405.201 341.828 405.277 341.938 405.311C342.049 405.344 342.168 405.333 342.27 405.28C342.33 405.28 347.42 402.7 352.36 404.34C352.422 404.357 352.487 404.361 352.55 404.35Z" fill="#F0F0F0"/>
    <path d="M352.24 400.43C352.322 400.422 352.4 400.392 352.465 400.343C352.531 400.293 352.581 400.226 352.61 400.15C352.629 400.097 352.638 400.04 352.635 399.984C352.632 399.927 352.618 399.872 352.594 399.821C352.57 399.77 352.536 399.724 352.494 399.686C352.452 399.648 352.403 399.619 352.35 399.6C350.545 399.008 348.639 398.791 346.747 398.963C344.855 399.135 343.019 399.692 341.35 400.6C341.302 400.629 341.259 400.667 341.225 400.712C341.191 400.757 341.167 400.809 341.153 400.864C341.139 400.919 341.136 400.976 341.144 401.031C341.152 401.087 341.171 401.141 341.2 401.19C341.264 401.288 341.363 401.357 341.477 401.383C341.591 401.409 341.71 401.39 341.81 401.33C343.372 400.507 345.083 400.005 346.841 399.854C348.6 399.703 350.371 399.905 352.05 400.45C352.114 400.458 352.179 400.451 352.24 400.43Z" fill="#F0F0F0"/>
    <path d="M351.88 396C351.961 395.993 352.038 395.964 352.103 395.917C352.168 395.869 352.219 395.804 352.25 395.73C352.27 395.677 352.28 395.62 352.278 395.563C352.276 395.506 352.262 395.45 352.238 395.399C352.214 395.348 352.179 395.302 352.136 395.264C352.094 395.226 352.044 395.198 351.99 395.18C346.51 393.18 341.14 396.13 340.91 396.25C340.861 396.278 340.817 396.315 340.782 396.36C340.747 396.405 340.722 396.457 340.707 396.511C340.692 396.566 340.688 396.624 340.696 396.68C340.703 396.736 340.721 396.791 340.75 396.84C340.81 396.938 340.906 397.01 341.018 397.04C341.13 397.07 341.249 397.055 341.35 397C341.35 397 346.6 394.12 351.68 396C351.746 396.014 351.814 396.014 351.88 396Z" fill="#EBEBEB"/>
    <path d="M336.73 220.4C340.52 228.85 344.61 234.77 345.11 250.7C346.17 284.56 345.81 309.01 345.81 309.01C346.04 312.01 347.6 316.37 349.69 331.75C351.44 344.64 351.08 364.48 351.08 364.48C351.08 364.48 342.23 369.02 334.08 365.77C330.81 354.77 324.97 326 321.4 311.26C318.16 297.88 314.95 278.26 314.95 278.26L309.8 311.41C309.8 311.41 310.8 324.7 310.34 332.52C309.82 341.62 305.48 367.15 305.48 367.15C305.48 367.15 296.41 371.03 289.37 365.94C289.37 365.94 285.86 320.14 285.78 309.17C285.61 287.67 284.44 242.36 288.26 219.86L336.73 220.4Z" fill="#37474F"/>
    <path d="M351.51 361.27C348.17 363.27 337.58 364.65 333.04 363L334.33 368.2C334.33 368.2 336.39 369.62 342.65 369.27C348.91 368.92 351.34 366.39 351.34 366.39L351.51 361.27Z" fill="#455A64"/>
    <path d="M306.39 362.73C302.81 364.33 292.97 364.34 288.68 362.13L289.27 367.45C289.27 367.45 290.73 369.45 297 369.56C303.27 369.67 305.55 367.79 305.55 367.79L306.39 362.73Z" fill="#455A64"/>
    <path d="M314.91 278.29L311.11 254.37C311.11 254.37 296.47 252.68 291.11 247.69C291.11 247.69 297.83 256.93 307.77 258.43L312 278.26L309.82 311.16L314.91 278.29Z" fill="#263238"/>
    <path d="M333.48 214.22L337.14 191.78C337.14 191.78 330.33 182 331.87 166.56C327.57 164.79 322.45 164.39 322.63 161.38L305.63 164.13C301.83 168.13 293.96 171.44 290.05 178.13C285.27 186.24 285.17 193.92 289.99 199.53C290.24 205.12 289.17 223.31 289.17 223.31C306.28 234.88 335.94 225.45 335.94 225.45C334.47 221.22 333.15 218.14 333.48 214.22Z" fill="#FFA8A7"/>
    <path d="M322.39 156.67C322.54 153.94 327.05 151.22 330.9 147.05C336.26 141.26 339.19 130.96 331.14 123.41C329.33 111.41 315.28 108.51 303.83 111.32C296.96 113 290.62 117.62 288.22 124.32C286.49 129.15 286.51 135.18 289.84 139.69C289.439 138.007 289.459 136.252 289.9 134.58C290.125 135.377 290.461 136.137 290.9 136.84C291.127 137.182 291.421 137.473 291.765 137.697C292.109 137.921 292.496 138.071 292.9 138.14C293.74 138.21 294.24 137.74 294.98 137.5C295.72 137.26 295.72 137.37 296.34 137.82C296.96 138.27 297.83 138.9 298.58 139.44L303.83 143.25L314.91 151.25C315.4 151.6 322.39 156.81 322.39 156.67Z" fill="#263238"/>
    <path d="M344.77 144.349C343.64 145.009 342.48 144.639 341.18 145.119C339.6 145.719 338.87 147.579 337.42 148.449C336.081 149.082 334.56 149.217 333.13 148.829C332.316 148.754 331.539 148.449 330.89 147.949C330.546 147.614 330.262 147.221 330.05 146.789C329.228 145.177 328.649 143.451 328.33 141.669C327.93 139.749 327.28 138.179 327.47 136.139C327.56 135.139 327.77 134.139 327.81 133.189C327.897 132.195 327.651 131.199 327.11 130.359C326.273 129.492 325.288 128.781 324.2 128.259C323.302 127.717 322.585 126.92 322.14 125.969C321.713 124.67 321.713 123.269 322.14 121.969C322.714 119.488 324.037 117.243 325.93 115.539C326.875 114.703 327.991 114.083 329.2 113.722C330.409 113.361 331.682 113.268 332.93 113.449C334.545 113.748 336.003 114.605 337.05 115.869C337.589 116.477 337.977 117.203 338.18 117.989C338.225 118.826 338.38 119.653 338.64 120.449C339.21 121.416 340.125 122.131 341.2 122.449C342.264 122.759 343.3 123.154 344.3 123.629C345.387 124.336 346.3 125.28 346.97 126.389C347.564 127.201 348.008 128.112 348.28 129.079C348.413 129.566 348.445 130.074 348.372 130.573C348.3 131.072 348.126 131.551 347.86 131.979C347.31 132.799 346.36 133.279 345.76 134.069C345.262 134.73 345.04 135.558 345.14 136.379C345.32 137.819 346.45 138.989 346.68 140.379C346.758 141.05 346.67 141.73 346.422 142.358C346.174 142.986 345.775 143.543 345.26 143.979C345.108 144.116 344.944 144.24 344.77 144.349Z" fill="#263238"/>
    <path d="M325.26 149.18C326.386 149.088 327.465 148.691 328.38 148.03C330.88 146.29 331.53 142.51 330.29 139.83C329.45 138.01 326.49 137.11 324.99 138.66C324.21 139.45 323.81 142.09 322.26 141.58C321.2 141.23 321.34 139.73 321.26 138.86C320.665 134.25 318.458 129.999 315.03 126.86C313.54 125.408 311.816 124.218 309.93 123.34C308.336 122.551 306.567 122.179 304.79 122.26C303.691 122.434 302.643 122.847 301.72 123.47C301.144 122.799 300.377 122.32 299.52 122.1C296.91 121.4 294.64 123.82 293.71 126.01C292.06 129.9 292.07 134.55 292.07 138.69C292.07 146.6 293.55 151.69 296.8 155.12C298.3 156.69 301.8 157.93 305.58 157.71L305.66 162.59C305.66 162.59 300.39 168.03 302.76 174.02C306.413 173.685 310 172.83 313.41 171.48C321.03 168.12 322.57 164.78 322.57 164.78L322.92 147.66V147.75C323.109 148.205 323.437 148.588 323.858 148.845C324.278 149.102 324.769 149.219 325.26 149.18Z" fill="#FFA8A7"/>
    <path d="M312.14 118.49C316.14 118.77 319.27 120.82 321.79 124.06C324.53 127.6 326.09 132.36 324.63 136.7C324.434 137.465 324.025 138.159 323.45 138.7C323.072 138.996 322.595 139.138 322.117 139.097C321.638 139.057 321.193 138.836 320.87 138.48C319.874 137.403 319.108 136.133 318.62 134.75C318.626 136.564 319.046 138.353 319.85 139.98C318.008 139.614 316.364 138.586 315.23 137.09C313.17 134.35 313.16 130.58 311.6 127.53C309.52 123.53 306.87 120.92 301.71 123.53C301.71 123.5 301.71 117.77 312.14 118.49Z" fill="#263238"/>
    <path d="M307.43 136.16C307.372 136.601 307.488 137.048 307.753 137.406C308.018 137.764 308.411 138.006 308.85 138.08C309.064 138.12 309.284 138.116 309.496 138.068C309.709 138.021 309.909 137.931 310.086 137.804C310.263 137.677 310.412 137.515 310.524 137.329C310.637 137.142 310.71 136.935 310.74 136.72C310.798 136.278 310.683 135.831 310.418 135.473C310.153 135.115 309.759 134.873 309.32 134.8C309.106 134.761 308.887 134.766 308.675 134.814C308.463 134.862 308.263 134.952 308.087 135.079C307.911 135.206 307.762 135.367 307.649 135.553C307.536 135.738 307.462 135.945 307.43 136.16Z" fill="#263238"/>
    <path d="M294.36 131.87L298.13 130.57C298.058 130.321 297.935 130.09 297.771 129.889C297.607 129.689 297.403 129.524 297.173 129.405C296.944 129.285 296.692 129.213 296.434 129.194C296.175 129.174 295.916 129.207 295.67 129.29C295.163 129.47 294.744 129.838 294.5 130.318C294.256 130.798 294.206 131.354 294.36 131.87Z" fill="#263238"/>
    <path d="M308 130.719L311.48 132.659C311.618 132.439 311.71 132.193 311.75 131.935C311.789 131.678 311.776 131.415 311.71 131.163C311.645 130.911 311.529 130.676 311.369 130.47C311.209 130.265 311.008 130.095 310.78 129.969C310.309 129.712 309.757 129.646 309.239 129.786C308.721 129.925 308.277 130.26 308 130.719Z" fill="#263238"/>
    <path d="M308.67 145.93L302.53 148.49C302.711 148.918 302.978 149.303 303.316 149.622C303.653 149.94 304.054 150.185 304.491 150.34C304.929 150.496 305.394 150.558 305.857 150.524C306.32 150.489 306.771 150.358 307.18 150.14C307.557 149.964 307.895 149.715 308.175 149.407C308.454 149.099 308.67 148.739 308.808 148.347C308.947 147.955 309.006 147.54 308.983 147.125C308.959 146.709 308.853 146.303 308.67 145.93Z" fill="#B16668"/>
    <path d="M305.37 150.48C305.395 149.614 305.74 148.788 306.338 148.162C306.937 147.536 307.746 147.154 308.61 147.09C308.72 147.09 308.82 147.09 308.93 147.09C308.995 147.711 308.86 148.336 308.545 148.876C308.231 149.415 307.753 149.84 307.18 150.09C306.618 150.367 305.996 150.501 305.37 150.48Z" fill="#F28F8F"/>
    <path d="M295.19 135.879C295.135 136.306 295.246 136.738 295.502 137.085C295.757 137.431 296.136 137.666 296.56 137.739C296.767 137.776 296.98 137.771 297.185 137.725C297.39 137.678 297.584 137.59 297.755 137.467C297.926 137.344 298.07 137.188 298.179 137.008C298.288 136.828 298.36 136.628 298.39 136.419C298.445 135.993 298.334 135.561 298.079 135.214C297.823 134.868 297.444 134.633 297.02 134.559C296.813 134.521 296.6 134.525 296.394 134.571C296.188 134.617 295.994 134.705 295.823 134.828C295.652 134.951 295.507 135.108 295.399 135.289C295.29 135.47 295.219 135.67 295.19 135.879Z" fill="#263238"/>
    <path d="M303.15 134.54L302.26 144.7L297.26 143.46L303.15 134.54Z" fill="#F28F8F"/>
    <path d="M305.57 157.74C309.57 157.33 317.62 155.85 320.3 150.74C320.3 150.74 319.17 154.99 316.54 156.8C313.91 158.61 305.6 160.05 305.6 160.05L305.57 157.74Z" fill="#F28F8F"/>
    <path d="M294.26 165.52C291.26 166.26 293.13 170.99 287.36 179.38L305.23 164.19L305.65 162.62C305.65 162.62 298.4 164.49 294.26 165.52Z" fill="#37474F"/>
    <path d="M292.61 174.05C300.21 167.74 305.19 164.29 305.19 164.29C304.19 168.29 305.14 170.66 307.13 171.29C309.12 171.92 316.13 170.47 320.18 166.71L342.12 182.48C340.81 186.34 338.19 193.08 337.48 197.2C336.77 201.32 335.26 209.37 335.73 213.52C336.2 217.67 342.23 229.72 343.57 237.26C343.57 237.26 331.62 248.32 308.01 247.11C289.18 246.11 285.96 238.23 285.96 238.23C285.96 238.23 286.75 225.23 287.05 220C287.35 214.77 288.29 204.87 288.29 204.87C288.29 204.87 281.13 198.25 282.72 189.68C284.24 181.51 289.48 176.65 292.61 174.05Z" fill="#92E3A9"/>
    <path d="M322.66 159.87C322.33 162.46 319.66 165.94 317.34 167.54C312.34 170.94 308.55 171.54 306.34 170.24C304.13 168.94 305.34 164.65 305.64 162.62L304.45 162.92C303.45 165.04 301.89 171.14 305.32 172.67C310.07 174.78 318.64 171.06 321.95 166.86C325.26 162.66 325.4 160.38 325.4 160.38C324.922 160.429 324.439 160.429 323.96 160.38C323.512 160.249 323.077 160.079 322.66 159.87Z" fill="#263238"/>
    <path d="M367.9 103.11C367.9 106.82 360.66 130.69 360.66 130.69C360.66 130.69 374.83 139.57 374.93 139.2C375.03 138.83 379.93 107.64 381.15 102.75L367.9 103.11Z" fill="#FFA8A7"/>
    <path d="M325.61 163.86C330.34 157 333.7 155.17 337.71 153.5C341.72 151.83 356.71 141.64 356.71 141.64L363.71 117.75L377.41 124.75C377.41 124.75 374.75 147.88 372.92 151.06C371.09 154.24 360.75 164.31 352.87 172.62C347.42 178.37 342.33 184.17 339.75 189.17C339.06 190.52 337.44 193.47 335.48 192.98C332.48 192.21 329.28 184.11 327.83 179.43C326.166 174.414 325.414 169.141 325.61 163.86Z" fill="#37474F"/>
    <path d="M329.33 159.11C324.97 161.47 322.66 159.87 322.66 159.87C322.66 159.87 322.96 165.78 318.9 168.35C318.9 168.35 327.5 187.51 334.19 192.29C340.88 197.07 329.33 159.11 329.33 159.11Z" fill="#37474F"/>
    <path d="M367.9 103.11C367.83 96.3498 369.48 92.7998 372.6 89.7598C373.07 89.2998 373.31 88.3398 373.6 87.9198C373.89 84.0498 368.6 77.4398 372.38 76.2698C376.85 74.8798 378.27 76.2698 380.94 78.1198C383.61 79.9698 390.76 84.4398 387.58 90.3898C384.4 96.3398 382.72 97.2798 380.87 103.6C378.61 111.35 367.9 103.11 367.9 103.11Z" fill="#FFA8A7"/>
    <path d="M375.32 118.68H375.37C375.417 118.665 375.46 118.641 375.498 118.61C375.535 118.578 375.566 118.539 375.589 118.495C375.611 118.452 375.624 118.404 375.628 118.355C375.632 118.306 375.626 118.257 375.61 118.21C375.61 118.21 374.27 114.21 371.21 104.06C368.46 94.96 369.86 93.39 371.47 91.57C371.524 91.4958 371.549 91.404 371.54 91.3125C371.53 91.221 371.486 91.1364 371.418 91.0752C371.349 91.014 371.26 90.9806 371.168 90.9815C371.076 90.9824 370.988 91.0175 370.92 91.0801C368.87 93.3801 367.83 95.42 370.5 104.27C373.57 114.41 374.89 118.41 374.9 118.45C374.935 118.53 374.995 118.595 375.071 118.637C375.147 118.679 375.234 118.694 375.32 118.68Z" fill="#263238"/>
    <path d="M400.36 186.22L427.84 150.24L400.64 92.1597L375.14 125.65L400.36 186.22Z" fill="#92E3A9"/>
    <path opacity="0.15" d="M400.36 186.22L427.84 150.24L400.64 92.1597L375.14 125.65L400.36 186.22Z" fill="white"/>
    <path opacity="0.2" d="M400.36 186.22L427.84 150.24L400.64 92.1597L375.14 125.65L400.36 186.22Z" fill="white"/>
    <path d="M375.14 125.65L371.71 121.24L364.84 124.12L377.78 183.56L400.36 186.22L375.14 125.65Z" fill="#92E3A9"/>
    <path opacity="0.55" d="M375.14 125.65L371.71 121.24L364.84 124.12L377.78 183.56L400.36 186.22L375.14 125.65Z" fill="white"/>
    <path opacity="0.2" d="M377.78 183.56L387.56 180.23L374.3 133.81L390.53 180.34L400.36 186.22L377.78 183.56Z" fill="#92E3A9"/>
    <path opacity="0.05" d="M377.78 183.56L387.56 180.23L374.3 133.81L390.53 180.34L400.36 186.22L377.78 183.56Z" fill="black"/>
    <path d="M400.64 92.16L393.63 94.17L391.35 90.98L364.84 124.12L371.71 121.24L375.14 125.65L400.64 92.16Z" fill="#92E3A9"/>
    <path opacity="0.1" d="M400.64 92.16L393.63 94.17L391.35 90.98L364.84 124.12L371.71 121.24L375.14 125.65L400.64 92.16Z" fill="white"/>
    <path opacity="0.05" d="M400.64 92.16L393.63 94.17L391.35 90.98L364.84 124.12L371.71 121.24L375.14 125.65L400.64 92.16Z" fill="black"/>
    <path opacity="0.15" d="M393.63 94.1697L395.59 98.8197L400.64 92.1597L393.63 94.1697Z" fill="black"/>
    <path d="M383.83 124C383.863 124.01 383.898 124.01 383.93 124C383.975 123.98 384.016 123.952 384.049 123.917C384.083 123.881 384.109 123.839 384.126 123.793C384.142 123.748 384.15 123.699 384.147 123.65C384.145 123.601 384.132 123.554 384.11 123.51C384.06 123.4 379.02 112.88 376.11 106.51C373.26 100.37 369.73 92.7597 372.37 90.3197C372.431 90.2509 372.463 90.1623 372.462 90.0709C372.461 89.9795 372.426 89.8918 372.363 89.8247C372.301 89.7576 372.217 89.7159 372.126 89.7076C372.035 89.6993 371.944 89.725 371.87 89.7797C368.87 92.5897 372.33 100.13 375.42 106.78C378.42 113.17 383.42 123.69 383.47 123.78C383.5 123.85 383.55 123.909 383.615 123.948C383.679 123.988 383.755 124.006 383.83 124Z" fill="#263238"/>
    <path d="M387.25 124.62C387.286 124.629 387.324 124.629 387.36 124.62C387.446 124.573 387.51 124.494 387.538 124.401C387.566 124.307 387.556 124.206 387.51 124.12C387.45 124.02 381.94 113.99 377.95 106.12C377.56 105.34 377.14 104.54 376.72 103.72C373.8 98.1097 370.5 91.7197 372.78 89.6297C372.848 89.5604 372.887 89.467 372.887 89.3697C372.887 89.2723 372.848 89.1789 372.78 89.1097C372.711 89.0413 372.617 89.0029 372.52 89.0029C372.423 89.0029 372.329 89.0413 372.26 89.1097C369.56 91.6097 372.85 97.9497 376.04 104.11C376.46 104.93 376.88 105.73 377.27 106.51C381.27 114.37 386.79 124.42 386.84 124.51C386.889 124.568 386.954 124.61 387.028 124.629C387.101 124.649 387.179 124.646 387.25 124.62Z" fill="#263238"/>
    <path d="M431.25 177.64L458.14 137.52L410.78 92.4497L390.53 120.11L431.25 177.64Z" fill="#37474F"/>
    <path d="M379.49 123.82L403.42 93.2697L406.35 94.3097L410.78 92.4497L390.53 120.11L387.24 120.57L379.49 123.82Z" fill="black"/>
    <path d="M390.53 120.11L387.24 120.57L379.49 123.82L408.61 187.14L431.25 177.64L390.53 120.11Z" fill="#455A64"/>
    <path d="M431.25 177.64L416.77 175.23L395.13 138.71L414.38 176.85L408.61 187.14L431.25 177.64Z" fill="#37474F"/>
    <path d="M399.21 116.86C399.253 116.857 399.295 116.844 399.333 116.824C399.371 116.803 399.404 116.774 399.43 116.74C399.499 116.67 399.537 116.577 399.537 116.48C399.537 116.382 399.499 116.289 399.43 116.22C399.25 116.07 381.61 101.15 378.09 97.8096C375.09 94.9696 371.84 91.1096 373.19 88.8096C373.239 88.7243 373.252 88.6235 373.228 88.5285C373.204 88.4334 373.143 88.3514 373.06 88.2996C373.019 88.273 372.972 88.2552 372.923 88.2473C372.875 88.2394 372.825 88.2416 372.777 88.2538C372.729 88.266 372.684 88.2879 372.645 88.3182C372.606 88.3484 372.574 88.3863 372.55 88.4296C371.27 90.6096 372.96 93.9396 377.55 98.3296C381.09 101.69 398.74 116.62 398.92 116.77C398.96 116.804 399.006 116.829 399.056 116.845C399.106 116.86 399.158 116.865 399.21 116.86Z" fill="#263238"/>
    <path d="M400.22 114.46C400.309 114.445 400.391 114.399 400.45 114.33C400.507 114.251 400.532 114.153 400.519 114.056C400.506 113.959 400.456 113.871 400.38 113.81C400.19 113.66 381.38 99.0198 377.88 95.6798C374.38 92.3398 372.35 90.1798 373.57 88.0998C373.595 88.0579 373.612 88.0113 373.619 87.9629C373.626 87.9145 373.624 87.8651 373.611 87.8177C373.599 87.7702 373.578 87.7257 373.549 87.6865C373.519 87.6474 373.482 87.6145 373.44 87.5898C373.353 87.5423 373.252 87.5304 373.157 87.5565C373.061 87.5827 372.98 87.6448 372.93 87.7298C371.32 90.4698 374.13 93.1298 377.37 96.2198C380.91 99.5798 399.15 113.79 399.93 114.39C399.97 114.423 400.017 114.446 400.067 114.458C400.117 114.47 400.169 114.471 400.22 114.46Z" fill="#263238"/>
    <path d="M394.05 116.99L437.61 173.52L457.21 159.05L399.22 110.99L394.05 116.99Z" fill="#92E3A9"/>
    <path opacity="0.15" d="M394.05 116.99L437.61 173.52L457.21 159.05L399.22 110.99L394.05 116.99Z" fill="black"/>
    <path opacity="0.15" d="M437.61 173.52L441.96 162.62L414.38 132.66L444.27 160.88L457.21 159.05L437.61 173.52Z" fill="black"/>
    <path d="M457.21 159.05L467.07 117.43L417.25 84.25L399.22 110.99L457.21 159.05Z" fill="#92E3A9"/>
    <path d="M407.2 108.8C407.326 108.867 407.467 108.902 407.61 108.901C407.752 108.899 407.892 108.862 408.017 108.792C408.141 108.723 408.246 108.623 408.322 108.502C408.398 108.381 408.442 108.242 408.45 108.1C408.422 107.772 408.317 107.455 408.143 107.175C407.969 106.895 407.732 106.661 407.45 106.49C407.324 106.423 407.184 106.388 407.041 106.389C406.898 106.391 406.758 106.428 406.633 106.498C406.509 106.567 406.404 106.667 406.328 106.788C406.252 106.909 406.208 107.047 406.2 107.19C406.231 107.517 406.337 107.833 406.51 108.113C406.684 108.392 406.92 108.628 407.2 108.8Z" fill="black"/>
    <path d="M415.8 97.1901C415.926 97.2575 416.067 97.2921 416.21 97.2908C416.352 97.2895 416.492 97.2522 416.617 97.1825C416.742 97.1127 416.847 97.0127 416.922 96.8917C416.998 96.7707 417.042 96.6326 417.05 96.4901C417.03 96.1599 416.928 95.8401 416.753 95.5591C416.579 95.2781 416.337 95.0448 416.05 94.8801C415.924 94.8126 415.784 94.778 415.641 94.7793C415.498 94.7807 415.358 94.8179 415.234 94.8877C415.109 94.9574 415.004 95.0574 414.928 95.1784C414.853 95.2994 414.809 95.4376 414.8 95.5801C414.83 95.9078 414.936 96.2241 415.109 96.5037C415.283 96.7832 415.52 97.0183 415.8 97.1901Z" fill="black"/>
    <path d="M407.21 108C407.271 107.99 407.329 107.964 407.378 107.926C407.427 107.887 407.466 107.837 407.49 107.78C407.528 107.691 407.531 107.59 407.498 107.499C407.464 107.408 407.397 107.333 407.31 107.29C407.1 107.23 386.66 98 382 96C378.24 94.42 374.12 91.82 373.42 89.59C373.331 89.3399 373.3 89.0726 373.332 88.8088C373.363 88.5451 373.455 88.2922 373.6 88.07C373.649 87.9858 373.664 87.8859 373.642 87.791C373.62 87.6961 373.562 87.6133 373.48 87.56C373.398 87.5072 373.298 87.4892 373.202 87.5098C373.107 87.5304 373.023 87.588 372.97 87.67C372.767 87.9837 372.639 88.3399 372.596 88.7109C372.553 89.0819 372.595 89.4579 372.72 89.81C373.54 92.43 378.08 95.15 381.72 96.68C386.39 98.68 406.82 107.87 407.03 107.96C407.086 107.988 407.148 108.001 407.21 108Z" fill="#263238"/>
    <path d="M408.21 103.72C408.183 103.763 408.146 103.8 408.103 103.828C408.06 103.855 408.011 103.873 407.96 103.88C407.872 103.908 407.778 103.908 407.69 103.88L387.56 90.45V90.39C387.669 90.1893 387.766 89.9823 387.85 89.77L408.07 103.21C408.114 103.233 408.153 103.265 408.184 103.303C408.216 103.342 408.238 103.386 408.252 103.434C408.265 103.482 408.268 103.532 408.261 103.582C408.254 103.631 408.236 103.678 408.21 103.72Z" fill="#263238"/>
    <path d="M409.13 101.8C409.105 101.848 409.068 101.889 409.022 101.919C408.977 101.948 408.925 101.966 408.87 101.97C408.789 101.994 408.702 101.994 408.62 101.97L387.9 89.75C387.997 89.5192 388.077 89.282 388.14 89.04L409 101.29C409.044 101.314 409.082 101.346 409.112 101.385C409.142 101.424 409.164 101.469 409.176 101.517C409.188 101.565 409.191 101.614 409.183 101.663C409.175 101.712 409.157 101.758 409.13 101.8Z" fill="#263238"/>
    <path d="M394.31 107.24C394.267 107.265 394.22 107.282 394.17 107.29C394.1 107.302 394.027 107.293 393.962 107.265C393.896 107.236 393.84 107.189 393.8 107.13L385.36 94.1997L385.79 93.4897L394.42 106.73C394.473 106.812 394.491 106.912 394.471 107.007C394.45 107.103 394.392 107.187 394.31 107.24Z" fill="#263238"/>
    <path d="M395.79 105.61C395.741 105.646 395.682 105.666 395.62 105.67C395.555 105.683 395.486 105.678 395.424 105.653C395.362 105.628 395.308 105.585 395.27 105.53L386.05 93.0696C386.19 92.8396 386.32 92.6096 386.46 92.3896L395.86 105.09C395.89 105.128 395.912 105.173 395.924 105.22C395.937 105.267 395.94 105.316 395.933 105.364C395.927 105.413 395.911 105.459 395.886 105.501C395.862 105.543 395.829 105.58 395.79 105.61Z" fill="#263238"/>
    <path d="M416 95.9997C415.979 96.0665 415.94 96.1262 415.887 96.172C415.834 96.2179 415.769 96.2483 415.7 96.2598C415.644 96.2746 415.586 96.2746 415.53 96.2598L388.31 88.2598C388.341 88.0042 388.358 87.7472 388.36 87.4897L415.74 95.5997C415.824 95.625 415.896 95.6791 415.943 95.7523C415.991 95.8255 416.011 95.9131 416 95.9997Z" fill="#263238"/>
</svg>
