<svg width="28" height="28" viewBox="0 0 28 28" fill="none" xmlns="http://www.w3.org/2000/svg">
    <g clip-path="url(#clip0_2722_2)">
        <path d="M14.0046 0C8.1597 0 6.45029 0.00603204 6.11802 0.0335999C4.91856 0.133331 4.17218 0.322243 3.35903 0.727189C2.73239 1.03846 2.23816 1.39925 1.75041 1.90502C0.86212 2.82737 0.323758 3.96211 0.128868 5.31097C0.0341211 5.96579 0.00655303 6.09934 0.000954793 9.44412C-0.00119349 10.559 0.000954793 12.0264 0.000954793 13.9945C0.000954793 19.8362 0.00741019 21.5444 0.035412 21.8761C0.132318 23.0436 0.315355 23.7781 0.702978 24.5816C1.44377 26.1195 2.85856 27.2741 4.52534 27.7049C5.10246 27.8535 5.73988 27.9354 6.55818 27.9741C6.90489 27.9892 10.4387 28 13.9746 28C17.5106 28 21.0465 27.9957 21.3846 27.9785C22.3321 27.9339 22.8823 27.86 23.4907 27.7027C25.1682 27.2698 26.5572 26.1325 27.313 24.5729C27.6931 23.7889 27.8859 23.0263 27.9731 21.9198C27.992 21.6786 28 17.8321 28 13.9909C28 10.1489 27.9914 6.30957 27.9724 6.06832C27.8841 4.94392 27.6914 4.18786 27.2991 3.38871C26.9771 2.73453 26.6197 2.24599 26.1007 1.74649C25.1745 0.86161 24.0418 0.3231 22.692 0.128379C22.038 0.0338117 21.9077 0.00580989 18.5612 0H14.0046Z" fill="url(#paint0_radial_2722_2)"/>
        <path d="M14.0046 0C8.1597 0 6.45029 0.00603204 6.11802 0.0335999C4.91856 0.133331 4.17218 0.322243 3.35903 0.727189C2.73239 1.03846 2.23816 1.39925 1.75041 1.90502C0.86212 2.82737 0.323758 3.96211 0.128868 5.31097C0.0341211 5.96579 0.00655303 6.09934 0.000954793 9.44412C-0.00119349 10.559 0.000954793 12.0264 0.000954793 13.9945C0.000954793 19.8362 0.00741019 21.5444 0.035412 21.8761C0.132318 23.0436 0.315355 23.7781 0.702978 24.5816C1.44377 26.1195 2.85856 27.2741 4.52534 27.7049C5.10246 27.8535 5.73988 27.9354 6.55818 27.9741C6.90489 27.9892 10.4387 28 13.9746 28C17.5106 28 21.0465 27.9957 21.3846 27.9785C22.3321 27.9339 22.8823 27.86 23.4907 27.7027C25.1682 27.2698 26.5572 26.1325 27.313 24.5729C27.6931 23.7889 27.8859 23.0263 27.9731 21.9198C27.992 21.6786 28 17.8321 28 13.9909C28 10.1489 27.9914 6.30957 27.9724 6.06832C27.8841 4.94392 27.6914 4.18786 27.2991 3.38871C26.9771 2.73453 26.6197 2.24599 26.1007 1.74649C25.1745 0.86161 24.0418 0.3231 22.692 0.128379C22.038 0.0338117 21.9077 0.00580989 18.5612 0H14.0046Z" fill="url(#paint1_radial_2722_2)"/>
        <path d="M14.0046 0C8.1597 0 6.45029 0.00603204 6.11802 0.0335999C4.91856 0.133331 4.17218 0.322243 3.35903 0.727189C2.73239 1.03846 2.23816 1.39925 1.75041 1.90502C0.86212 2.82737 0.323758 3.96211 0.128868 5.31097C0.0341211 5.96579 0.00655303 6.09934 0.000954793 9.44412C-0.00119349 10.559 0.000954793 12.0264 0.000954793 13.9945C0.000954793 19.8362 0.00741019 21.5444 0.035412 21.8761C0.132318 23.0436 0.315355 23.7781 0.702978 24.5816C1.44377 26.1195 2.85856 27.2741 4.52534 27.7049C5.10246 27.8535 5.73988 27.9354 6.55818 27.9741C6.90489 27.9892 10.4387 28 13.9746 28C17.5106 28 21.0465 27.9957 21.3846 27.9785C22.3321 27.9339 22.8823 27.86 23.4907 27.7027C25.1682 27.2698 26.5572 26.1325 27.313 24.5729C27.6931 23.7889 27.8859 23.0263 27.9731 21.9198C27.992 21.6786 28 17.8321 28 13.9909C28 10.1489 27.9914 6.30957 27.9724 6.06832C27.8841 4.94392 27.6914 4.18786 27.2991 3.38871C26.9771 2.73453 26.6197 2.24599 26.1007 1.74649C25.1745 0.86161 24.0418 0.3231 22.692 0.128379C22.038 0.0338117 21.9077 0.00580989 18.5612 0H14.0046Z" fill="url(#paint2_radial_2722_2)"/>
        <path d="M14.0046 0C8.1597 0 6.45029 0.00603204 6.11802 0.0335999C4.91856 0.133331 4.17218 0.322243 3.35903 0.727189C2.73239 1.03846 2.23816 1.39925 1.75041 1.90502C0.86212 2.82737 0.323758 3.96211 0.128868 5.31097C0.0341211 5.96579 0.00655303 6.09934 0.000954793 9.44412C-0.00119349 10.559 0.000954793 12.0264 0.000954793 13.9945C0.000954793 19.8362 0.00741019 21.5444 0.035412 21.8761C0.132318 23.0436 0.315355 23.7781 0.702978 24.5816C1.44377 26.1195 2.85856 27.2741 4.52534 27.7049C5.10246 27.8535 5.73988 27.9354 6.55818 27.9741C6.90489 27.9892 10.4387 28 13.9746 28C17.5106 28 21.0465 27.9957 21.3846 27.9785C22.3321 27.9339 22.8823 27.86 23.4907 27.7027C25.1682 27.2698 26.5572 26.1325 27.313 24.5729C27.6931 23.7889 27.8859 23.0263 27.9731 21.9198C27.992 21.6786 28 17.8321 28 13.9909C28 10.1489 27.9914 6.30957 27.9724 6.06832C27.8841 4.94392 27.6914 4.18786 27.2991 3.38871C26.9771 2.73453 26.6197 2.24599 26.1007 1.74649C25.1745 0.86161 24.0418 0.3231 22.692 0.128379C22.038 0.0338117 21.9077 0.00580989 18.5612 0H14.0046Z" fill="url(#paint3_radial_2722_2)"/>
        <path d="M14.0072 3.5957C11.1798 3.5957 10.825 3.60805 9.71453 3.65855C8.60624 3.70927 7.84974 3.8846 7.18779 4.14186C6.50308 4.40756 5.92225 4.76299 5.3436 5.34143C4.76452 5.91967 4.40881 6.50006 4.14204 7.18405C3.88394 7.84572 3.70826 8.60187 3.65838 9.70891C3.60872 10.8186 3.5957 11.1733 3.5957 13.9986C3.5957 16.8238 3.60829 17.1773 3.6586 18.2869C3.70957 19.3944 3.88503 20.1504 4.14226 20.8118C4.40838 21.496 4.76407 22.0764 5.34295 22.6546C5.92139 23.2333 6.50221 23.5896 7.18649 23.8553C7.84886 24.1126 8.6056 24.2879 9.71367 24.3386C10.8241 24.3891 11.1787 24.4015 14.0059 24.4015C16.8334 24.4015 17.1872 24.3891 18.2976 24.3386C19.406 24.2879 20.1633 24.1126 20.8257 23.8553C21.5102 23.5896 22.0902 23.2333 22.6686 22.6546C23.2477 22.0764 23.6034 21.496 23.8701 20.812C24.1261 20.1504 24.3018 19.3942 24.3538 18.2872C24.4037 17.1775 24.4167 16.8238 24.4167 13.9986C24.4167 11.1733 24.4037 10.8188 24.3538 9.70913C24.3018 8.60165 24.1261 7.84572 23.8701 7.18427C23.6034 6.50006 23.2477 5.91966 22.6686 5.34143C22.0895 4.76277 21.5104 4.40734 20.825 4.14185C20.1614 3.8846 19.4044 3.70927 18.2961 3.65855C17.1857 3.60805 16.8321 3.5957 14.0039 3.5957H14.0072ZM13.0733 5.47039C13.3504 5.46996 13.6597 5.47039 14.0072 5.47039C16.7868 5.47039 17.1163 5.48036 18.2139 5.53021C19.229 5.57659 19.7799 5.74606 20.1468 5.88845C20.6327 6.077 20.979 6.3024 21.3432 6.6665C21.7076 7.03061 21.9331 7.37737 22.1222 7.86283C22.2647 8.2291 22.4346 8.77959 22.4808 9.79387C22.5306 10.8905 22.5415 11.2199 22.5415 13.9962C22.5415 16.7725 22.5306 17.1019 22.4808 18.1985C22.4343 19.2128 22.2647 19.7633 22.1222 20.1296C21.9336 20.615 21.7076 20.9607 21.3432 21.3246C20.9788 21.6887 20.6329 21.9141 20.1468 22.1026C19.7803 22.2457 19.229 22.4147 18.2139 22.4611C17.1165 22.511 16.7868 22.5218 14.0072 22.5218C11.2273 22.5218 10.8979 22.511 9.80042 22.4611C8.7854 22.4143 8.2345 22.2448 7.86731 22.1024C7.38148 21.9139 7.03445 21.6885 6.67009 21.3244C6.30572 20.9603 6.08016 20.6144 5.89102 20.1287C5.74853 19.7624 5.57871 19.2119 5.53251 18.1977C5.48263 17.101 5.47265 16.7716 5.47265 13.9936C5.47265 11.2156 5.48263 10.8879 5.53251 9.79127C5.57893 8.77698 5.74853 8.2265 5.89102 7.8598C6.07971 7.37433 6.30572 7.02757 6.67009 6.66347C7.03445 6.29937 7.38148 6.07398 7.86731 5.88499C8.23428 5.74194 8.7854 5.57291 9.80042 5.5263C10.7608 5.48295 11.133 5.46996 13.0733 5.46778L13.0733 5.47039ZM19.5643 7.1977C18.8746 7.1977 18.315 7.75621 18.315 8.44561C18.315 9.1348 18.8746 9.69396 19.5643 9.69396C20.254 9.69396 20.8136 9.1348 20.8136 8.44561C20.8136 7.75642 20.254 7.19727 19.5643 7.19727L19.5643 7.1977ZM14.0072 8.65627C11.0547 8.65627 8.6609 11.0483 8.6609 13.9986C8.6609 16.9489 11.0547 19.3398 14.0072 19.3398C16.9597 19.3398 19.3526 16.9489 19.3526 13.9986C19.3526 11.0483 16.9595 8.65627 14.007 8.65627H14.0072ZM14.0072 10.531C15.9236 10.531 17.4774 12.0834 17.4774 13.9986C17.4774 15.9136 15.9236 17.4662 14.0072 17.4662C12.0905 17.4662 10.537 15.9136 10.537 13.9986C10.537 12.0834 12.0905 10.531 14.0072 10.531Z" fill="white"/>
    </g>
    <defs>
        <radialGradient id="paint0_radial_2722_2" cx="0" cy="0" r="1" gradientUnits="userSpaceOnUse" gradientTransform="translate(27.0959 13.1239) rotate(164.25) scale(17.8904 12.8892)">
            <stop stop-color="#FF005F"/>
            <stop offset="1" stop-color="#FC01D8"/>
        </radialGradient>
        <radialGradient id="paint1_radial_2722_2" cx="0" cy="0" r="1" gradientUnits="userSpaceOnUse" gradientTransform="translate(7.43729 30.1566) rotate(-90) scale(22.3501 23.713)">
            <stop stop-color="#FFCC00"/>
            <stop offset="0.1242" stop-color="#FFCC00"/>
            <stop offset="0.5672" stop-color="#FE4A05"/>
            <stop offset="0.6942" stop-color="#FF0F3F"/>
            <stop offset="1" stop-color="#FE0657" stop-opacity="0"/>
        </radialGradient>
        <radialGradient id="paint2_radial_2722_2" cx="0" cy="0" r="1" gradientUnits="userSpaceOnUse" gradientTransform="translate(14.7075 27.6051) rotate(-59.8703) scale(9.24197 12.032)">
            <stop stop-color="#FFCC00"/>
            <stop offset="1" stop-color="#FFCC00" stop-opacity="0"/>
        </radialGradient>
        <radialGradient id="paint3_radial_2722_2" cx="0" cy="0" r="1" gradientUnits="userSpaceOnUse" gradientTransform="translate(3.799 1.14015) rotate(164.274) scale(17.692 6.02764)">
            <stop stop-color="#780CFF"/>
            <stop offset="1" stop-color="#820BFF" stop-opacity="0"/>
        </radialGradient>
        <clipPath id="clip0_2722_2">
            <rect width="28" height="28" fill="white"/>
        </clipPath>
    </defs>
</svg>
