<svg width="26" height="25" viewBox="0 0 26 25" fill="none" xmlns="http://www.w3.org/2000/svg">
    <g clip-path="url(#clip0_271_8)">
        <path d="M25.0883 15.6555L23.762 16.0708L20.4988 3.47946C20.4611 3.32165 20.3631 3.18876 20.2275 3.10571C20.0994 3.02265 19.9411 3.00604 19.7979 3.04757L14.2211 4.80006L11.0333 5.80504L5.99907 7.38311L4.66516 2.22531C4.61994 2.05089 4.5069 1.90969 4.36371 1.83494L0.927188 0.0658399C0.640811 -0.0836617 0.309217 0.0575341 0.173565 0.364843C0.0379124 0.680458 0.166028 1.04591 0.444869 1.19541L3.64777 2.84823L5.06458 8.32165C5.06458 8.32165 5.06458 8.32165 5.06458 8.32996L7.71733 18.604C7.20487 18.8947 6.78284 19.3432 6.49646 19.908C6.11212 20.6638 6.02168 21.5442 6.24023 22.3748C6.60197 23.7618 7.76255 24.7336 9.07385 24.7336C9.34516 24.7336 9.61646 24.6921 9.88023 24.609C10.6339 24.3682 11.2669 23.82 11.6437 23.0642C11.9527 22.4496 12.0733 21.7519 11.9904 21.0625L23.5133 17.4496H23.5208L25.3973 16.8599C25.6988 16.7685 25.8721 16.4197 25.7892 16.0874C25.6988 15.7552 25.3823 15.5642 25.0883 15.6555ZM14.7562 9.14391L13.8669 8.80338C13.6408 8.71202 13.3921 8.79507 13.2414 9.00272L12.6536 9.80836L11.8849 6.83494L13.9875 6.1788L14.7562 9.14391ZM10.6565 22.4662C10.4228 22.9313 10.031 23.2718 9.57125 23.413C9.40545 23.4628 9.23965 23.4878 9.07385 23.4878C8.26748 23.4878 7.55154 22.8898 7.33299 22.0343C7.19733 21.5193 7.25762 20.9795 7.49125 20.5143C7.72487 20.0492 8.11675 19.7087 8.57646 19.5675C8.74226 19.5177 8.90806 19.4928 9.07385 19.4928C9.88023 19.4928 10.5962 20.0908 10.8147 20.9462C10.9504 21.4612 10.8901 22.0011 10.6565 22.4662ZM11.6286 19.8831C11.1162 18.8864 10.144 18.2469 9.07385 18.2469C8.98342 18.2469 8.90052 18.2552 8.81009 18.2635L6.30806 8.58743L10.7997 7.17547L11.8698 11.3034C11.9301 11.5276 12.0959 11.6937 12.2994 11.7436C12.337 11.7519 12.3747 11.7519 12.4124 11.7519C12.5782 11.7519 12.744 11.6688 12.8495 11.5193L13.8744 10.1157L15.4118 10.7137C15.4721 10.7386 15.5399 10.7469 15.6078 10.7469C15.9168 10.7469 16.173 10.4645 16.173 10.124C16.173 10.0492 16.1579 9.97448 16.1353 9.90803L15.0802 5.82165L19.5718 4.40969L22.6768 16.403L11.6286 19.8831Z" fill="#0ABD19"/>
    </g>
    <defs>
        <clipPath id="clip0_271_8">
            <rect width="26" height="25" fill="white"/>
        </clipPath>
    </defs>
</svg>
