<svg width="500" height="500" viewBox="0 0 500 500" fill="none" xmlns="http://www.w3.org/2000/svg">
    <path d="M454.66 163.44L463 150.07L458.88 147.52C458.297 147.149 457.828 146.624 457.526 146.002C457.224 145.381 457.101 144.688 457.17 144C457.237 143.239 457.263 142.474 457.25 141.71C457.223 141.012 457.392 140.321 457.736 139.713C458.081 139.105 458.587 138.606 459.2 138.27L463.44 135.99L456 122.12L451.76 124.4C451.163 124.724 450.488 124.875 449.81 124.838C449.132 124.801 448.478 124.577 447.92 124.19C447.234 123.712 446.523 123.272 445.79 122.87C445.194 122.542 444.7 122.056 444.362 121.464C444.025 120.873 443.858 120.2 443.88 119.52L444.03 114.7L428.31 114.21L428.16 119.05C428.138 119.731 427.927 120.393 427.551 120.962C427.175 121.53 426.648 121.983 426.03 122.27C425.66 122.44 425.3 122.63 424.94 122.82C424.58 123.01 424.22 123.22 423.87 123.43C423.291 123.785 422.624 123.974 421.945 123.974C421.265 123.974 420.599 123.785 420.02 123.43L415.9 120.88L407.61 134.25L411.74 136.81C412.319 137.182 412.784 137.707 413.084 138.326C413.384 138.945 413.507 139.635 413.44 140.32C413.373 141.085 413.346 141.852 413.36 142.62C413.383 143.316 413.214 144.005 412.869 144.61C412.525 145.216 412.02 145.714 411.41 146.05L407.17 148.33L414.6 162.19L418.85 159.92C419.467 159.595 420.162 159.448 420.858 159.496C421.554 159.544 422.223 159.784 422.79 160.19C423.418 160.627 424.069 161.031 424.74 161.4C425.355 161.716 425.868 162.199 426.222 162.793C426.575 163.387 426.755 164.069 426.74 164.76L426.59 169.62L442.32 170.11L442.47 165.28C442.498 164.591 442.717 163.924 443.102 163.352C443.487 162.78 444.023 162.326 444.65 162.04C445 161.87 445.35 161.7 445.7 161.51C446.05 161.32 446.38 161.13 446.7 160.94C447.289 160.575 447.967 160.382 448.66 160.382C449.352 160.382 450.031 160.575 450.62 160.94L454.66 163.44ZM442.78 152.62C440.592 154.193 437.967 155.041 435.272 155.045C432.578 155.049 429.95 154.208 427.758 152.641C425.566 151.074 423.92 148.86 423.052 146.309C422.183 143.759 422.136 141 422.917 138.421C423.697 135.842 425.266 133.573 427.403 131.932C429.541 130.291 432.138 129.36 434.831 129.272C437.524 129.184 440.177 129.941 442.417 131.439C444.657 132.936 446.372 135.098 447.32 137.62C448.318 140.271 448.415 143.178 447.594 145.89C446.773 148.602 445.081 150.967 442.78 152.62Z" fill="#EBEBEB"/>
    <path d="M42.5306 287C42.9479 287.247 43.2885 287.605 43.5145 288.034C43.7405 288.463 43.843 288.946 43.8106 289.43C43.8106 289.7 43.8106 289.97 43.8106 290.24C43.8106 290.51 43.8106 290.79 43.8106 291.06C43.8433 291.541 43.7419 292.022 43.5177 292.45C43.2935 292.877 42.9553 293.234 42.5406 293.48L39.6006 295.2L45.1106 304.75L48.0006 303.06C48.4224 302.818 48.9038 302.699 49.3899 302.716C49.876 302.734 50.3475 302.888 50.7506 303.16C51.209 303.458 51.683 303.732 52.1706 303.98C52.6034 304.197 52.9678 304.53 53.2236 304.941C53.4795 305.352 53.6168 305.826 53.6206 306.31V309.68H64.6206V306.31C64.6336 305.823 64.7816 305.349 65.0483 304.941C65.3149 304.533 65.6896 304.207 66.1306 304C66.6182 303.752 67.0922 303.478 67.5506 303.18C67.9537 302.908 68.4251 302.754 68.9113 302.736C69.3974 302.719 69.8788 302.838 70.3006 303.08L73.2306 304.77L78.7406 295.22L75.8006 293.52C75.3833 293.276 75.0424 292.92 74.8163 292.492C74.5902 292.065 74.4878 291.583 74.5206 291.1C74.5206 290.83 74.5206 290.56 74.5206 290.29C74.5206 290.02 74.5206 289.75 74.5206 289.48C74.4786 288.988 74.5764 288.494 74.8029 288.055C75.0294 287.617 75.3752 287.251 75.8006 287L78.7406 285.31L73.2306 275.76L70.3106 277.45C69.889 277.692 69.4085 277.811 68.9228 277.795C68.4372 277.779 67.9655 277.629 67.5606 277.36C67.0989 277.058 66.6216 276.781 66.1306 276.53C65.6978 276.313 65.3334 275.98 65.0776 275.569C64.8217 275.158 64.6844 274.684 64.6806 274.2V270.83H53.6806V274.2C53.6768 274.684 53.5395 275.158 53.2836 275.569C53.0278 275.98 52.6634 276.313 52.2306 276.53C51.7396 276.781 51.2623 277.058 50.8006 277.36C50.3956 277.629 49.924 277.779 49.4384 277.795C48.9527 277.811 48.4722 277.692 48.0506 277.45L45.1306 275.76L39.6206 285.31L42.5306 287ZM59.1706 281.21C60.9506 281.21 62.6907 281.738 64.1707 282.727C65.6508 283.716 66.8043 285.121 67.4855 286.766C68.1667 288.41 68.3449 290.22 67.9977 291.966C67.6504 293.712 66.7932 295.315 65.5346 296.574C64.2759 297.833 62.6722 298.69 60.9264 299.037C59.1806 299.384 57.371 299.206 55.7264 298.525C54.0819 297.844 52.6763 296.69 51.6874 295.21C50.6984 293.73 50.1706 291.99 50.1706 290.21C50.1785 287.828 51.1303 285.547 52.8172 283.866C54.5042 282.184 56.7888 281.24 59.1706 281.24V281.21Z" fill="#EBEBEB"/>
    <path d="M387.07 111.18L383.86 97.4502L379.63 98.4502C379.027 98.5862 378.398 98.5516 377.813 98.3502C377.229 98.1489 376.712 97.7888 376.32 97.3102C375.882 96.7816 375.411 96.2806 374.91 95.8102C374.453 95.3825 374.123 94.8366 373.957 94.2329C373.791 93.6293 373.796 92.9914 373.97 92.3902L375.21 88.2602L361.71 84.1802L360.46 88.3202C360.289 88.9036 359.96 89.4279 359.507 89.8342C359.055 90.2405 358.499 90.5127 357.9 90.6202C357.161 90.7499 356.43 90.9202 355.71 91.1302C355.125 91.303 354.502 91.3084 353.914 91.1458C353.325 90.9832 352.794 90.6591 352.38 90.2102L349.38 87.0702L339.11 96.7202L342.11 99.8802C342.528 100.326 342.813 100.879 342.935 101.478C343.057 102.076 343.01 102.697 342.8 103.27C342.68 103.62 342.56 103.96 342.45 104.27C342.34 104.58 342.25 104.98 342.17 105.33C342.025 105.923 341.72 106.464 341.288 106.894C340.856 107.325 340.313 107.628 339.72 107.77L335.49 108.77L338.71 122.5L342.95 121.5C343.554 121.366 344.184 121.403 344.768 121.606C345.353 121.809 345.869 122.171 346.26 122.65C346.701 123.174 347.168 123.675 347.66 124.15C348.118 124.576 348.448 125.12 348.614 125.722C348.78 126.324 348.775 126.961 348.6 127.56L347.35 131.69L360.85 135.77L362.1 131.63C362.288 131.035 362.636 130.503 363.108 130.093C363.579 129.684 364.154 129.413 364.77 129.31C365.445 129.189 366.112 129.032 366.77 128.84C367.36 128.656 367.99 128.64 368.589 128.794C369.187 128.948 369.732 129.265 370.16 129.71L373.16 132.89L383.44 123.23L380.44 120.08C380.025 119.623 379.743 119.06 379.625 118.454C379.506 117.847 379.557 117.22 379.77 116.64C379.89 116.31 380 115.98 380.1 115.64C380.2 115.3 380.29 114.97 380.38 114.64C380.517 114.033 380.821 113.477 381.258 113.033C381.694 112.59 382.246 112.277 382.85 112.13L387.07 111.18ZM372.69 111.85C372.299 114.231 371.171 116.43 369.466 118.137C367.76 119.845 365.563 120.975 363.182 121.37C360.802 121.764 358.357 121.403 356.192 120.338C354.027 119.272 352.251 117.555 351.111 115.427C349.972 113.3 349.528 110.87 349.841 108.477C350.154 106.084 351.209 103.85 352.857 102.087C354.505 100.324 356.664 99.122 359.03 98.6491C361.396 98.1762 363.851 98.4564 366.05 99.4502C368.368 100.498 370.275 102.281 371.476 104.523C372.676 106.765 373.103 109.341 372.69 111.85Z" fill="#EBEBEB"/>
    <path d="M187.989 140.012C193.922 103.057 168.773 68.2895 131.818 62.357C94.8626 56.4245 60.0952 81.5733 54.1627 118.529C48.2302 155.484 73.3791 190.251 110.334 196.184C147.289 202.116 182.057 176.967 187.989 140.012Z" fill="#EBEBEB"/>
    <path d="M124.18 195.43C159.891 195.43 188.84 166.481 188.84 130.77C188.84 95.0591 159.891 66.1099 124.18 66.1099C88.4688 66.1099 59.5195 95.0591 59.5195 130.77C59.5195 166.481 88.4688 195.43 124.18 195.43Z" fill="#DBDBDB"/>
    <path d="M124.18 191.35C157.638 191.35 184.76 164.227 184.76 130.77C184.76 97.3125 157.638 70.1899 124.18 70.1899C90.7232 70.1899 63.6006 97.3125 63.6006 130.77C63.6006 164.227 90.7232 191.35 124.18 191.35Z" fill="white"/>
    <path opacity="0.5" d="M183.39 117.92C155.8 134.63 110.46 162.05 85.1203 177.08C77.956 171.04 72.2908 163.42 68.5703 154.82L152.38 77.1499C160.209 81.2736 167.041 87.0596 172.398 94.1024C177.755 101.145 181.507 109.274 183.39 117.92Z" fill="#EBEBEB"/>
    <path opacity="0.5" d="M184.71 132.89C184.49 139.628 183.138 146.281 180.71 152.57L105.15 188.31C101.859 187.219 98.6673 185.847 95.6104 184.21C118.44 171 160.14 147 184.71 132.89Z" fill="#EBEBEB"/>
    <path d="M124.76 74.5898H123.59V83.7698H124.76V74.5898Z" fill="#C7C7C7"/>
    <path d="M96.5904 81.8164L95.5771 82.4014L100.167 90.3515L101.18 89.7665L96.5904 81.8164Z" fill="#C7C7C7"/>
    <path d="M75.8106 102.174L75.2256 103.187L83.1757 107.777L83.7607 106.764L75.8106 102.174Z" fill="#C7C7C7"/>
    <path d="M77.18 130.19H68V131.36H77.18V130.19Z" fill="#C7C7C7"/>
    <path d="M83.1786 153.786L75.2285 158.376L75.8135 159.39L83.7636 154.8L83.1786 153.786Z" fill="#C7C7C7"/>
    <path d="M100.166 171.194L95.5801 179.146L96.5936 179.731L101.179 171.778L100.166 171.194Z" fill="#C7C7C7"/>
    <path d="M124.76 177.77H123.59V186.95H124.76V177.77Z" fill="#C7C7C7"/>
    <path d="M148.179 171.189L147.166 171.774L151.756 179.725L152.769 179.14L148.179 171.189Z" fill="#C7C7C7"/>
    <path d="M165.168 153.761L164.583 154.774L172.534 159.364L173.119 158.351L165.168 153.761Z" fill="#C7C7C7"/>
    <path d="M180.36 130.19H171.18V131.36H180.36V130.19Z" fill="#C7C7C7"/>
    <path d="M172.537 102.189L164.587 106.779L165.172 107.793L173.122 103.203L172.537 102.189Z" fill="#C7C7C7"/>
    <path d="M151.756 81.8228L147.17 89.7753L148.184 90.3598L152.77 82.4072L151.756 81.8228Z" fill="#C7C7C7"/>
    <path d="M125.06 78.75L127.05 134.86L121.31 134.79L123.5 78.73L125.06 78.75Z" fill="#C7C7C7"/>
    <path d="M160.01 111.21L122.26 135.3L119.52 130.25L159.27 109.83L160.01 111.21Z" fill="#A6A6A6"/>
    <path d="M126.14 130.77C126.14 131.166 126.023 131.552 125.803 131.881C125.583 132.21 125.271 132.466 124.906 132.618C124.54 132.769 124.138 132.809 123.75 132.732C123.362 132.654 123.006 132.464 122.726 132.184C122.446 131.905 122.256 131.548 122.179 131.16C122.101 130.772 122.141 130.37 122.292 130.005C122.444 129.639 122.7 129.327 123.029 129.107C123.358 128.887 123.745 128.77 124.14 128.77C124.671 128.77 125.179 128.981 125.554 129.356C125.929 129.731 126.14 130.24 126.14 130.77Z" fill="#C7C7C7"/>
    <path d="M416.56 313.31C416.56 313.31 400.9 309.76 392.32 301.85C383.74 293.94 379 279.78 379 279.78C384.951 280.923 390.817 282.467 396.56 284.4C398.712 286.611 400.503 289.145 401.87 291.91C402.002 290.123 402.002 288.328 401.87 286.54C403.873 287.407 405.747 288.544 407.44 289.92C414.55 296.15 416.56 313.31 416.56 313.31Z" fill="#DBDBDB"/>
    <path d="M388.72 286.67C386.59 285.19 384.42 283.77 382.29 282.28C382.262 282.263 382.242 282.235 382.235 282.204C382.227 282.172 382.233 282.138 382.25 282.11C382.267 282.082 382.295 282.063 382.327 282.055C382.359 282.048 382.392 282.053 382.42 282.07C386.42 284.48 390.42 287.07 394.28 289.75C395.62 290.69 396.94 291.67 398.28 292.67L398.01 292.2C397.54 291.42 397.01 290.64 396.55 289.87C395.565 288.304 394.451 286.822 393.22 285.44C393.22 285.39 393.22 285.31 393.3 285.36C394.52 286.77 395.74 288.16 396.85 289.65C397.38 290.36 397.85 291.1 398.34 291.85C398.58 292.24 398.82 292.63 399.04 293.03L399.28 293.43C401.28 295.02 403.28 296.68 405.15 298.43C406.31 299.51 407.43 300.64 408.52 301.79C407.91 299.9 407.38 297.98 406.68 296.12C406.68 296.107 406.685 296.094 406.695 296.085C406.704 296.076 406.717 296.07 406.73 296.07C406.743 296.07 406.756 296.076 406.765 296.085C406.775 296.094 406.78 296.107 406.78 296.12C407.46 298.12 408.21 300.04 408.78 302.05C409.98 303.35 411.12 304.69 412.2 306.05C412.188 305.963 412.171 305.876 412.15 305.79C411.97 305.06 411.79 304.32 411.59 303.59C411.21 302.17 410.79 300.76 410.31 299.38C409.41 296.495 407.987 293.8 406.11 291.43C406.11 291.38 406.11 291.31 406.18 291.36C409.117 295.016 411.17 299.301 412.18 303.88C412.347 304.547 412.507 305.214 412.66 305.88C412.74 306.23 412.83 306.59 412.89 306.96C413.37 307.6 413.83 308.24 414.27 308.91C416.942 312.992 419.165 317.351 420.9 321.91C422.848 327.029 424.517 332.25 425.9 337.55C425.9 337.571 425.891 337.592 425.876 337.607C425.861 337.622 425.841 337.63 425.82 337.63C425.799 337.63 425.778 337.622 425.763 337.607C425.748 337.592 425.74 337.571 425.74 337.55C422.67 328.39 419.55 319.09 414.31 310.91C413.2 309.18 412 307.51 410.73 305.91C408.138 305.744 405.579 305.236 403.12 304.4C400.432 303.495 397.868 302.256 395.49 300.71C394.134 299.799 392.829 298.814 391.58 297.76C391.52 297.71 391.58 297.63 391.64 297.68C393.829 299.441 396.244 300.901 398.82 302.02C401.352 303.181 404 304.07 406.72 304.67C407.87 304.92 409.05 305.11 410.22 305.27C408.77 303.484 407.228 301.775 405.6 300.15C405.07 299.62 404.53 299.15 403.98 298.61C402.155 297.335 400.221 296.224 398.2 295.29C395.63 294.05 393.11 292.74 390.57 291.45C389.13 290.72 387.71 289.97 386.27 289.27C386.21 289.27 386.27 289.15 386.32 289.18C388.9 290.42 391.51 291.58 394.11 292.77C396.55 293.89 399.02 295.02 401.37 296.33L401.67 296.51C399.55 294.66 397.35 292.91 395.1 291.21C392.993 289.67 390.867 288.157 388.72 286.67Z" fill="#A6A6A6"/>
    <path d="M389.61 294.74C390.89 295.3 392.18 295.79 393.44 296.38C394.7 296.97 395.97 297.7 397.2 298.38C397.212 298.387 397.221 298.398 397.225 298.411C397.228 298.424 397.227 298.438 397.22 298.45C397.213 298.462 397.202 298.471 397.189 298.475C397.176 298.478 397.162 298.477 397.15 298.47C395.9 297.87 394.64 297.31 393.4 296.69C392.16 296.07 390.88 295.37 389.58 294.8C389.52 294.81 389.55 294.71 389.61 294.74Z" fill="#A6A6A6"/>
    <path d="M467.42 234.41C464.528 238.141 462.889 242.692 462.74 247.41C462.69 248.81 462.91 250.77 463.07 253.07C459.159 255.332 455.695 258.291 452.85 261.8C455.978 259.985 459.57 259.127 463.18 259.33C463.093 260.903 462.892 262.467 462.58 264.01C460.302 264.007 458.046 264.452 455.94 265.32C458.001 265.294 460.045 265.7 461.94 266.51C459.15 275.39 450.85 284.51 427.94 288.38C425.518 277.494 426.953 266.105 432 256.16C438.86 242.66 467.42 234.41 467.42 234.41Z" fill="#DBDBDB"/>
    <path d="M420 326.38C420.39 322.59 420.89 318.8 421.48 315.04C422.64 307.49 424.182 300.004 426.1 292.61C426.998 289.143 428.103 285.734 429.41 282.4C429.34 281.789 429.31 281.175 429.32 280.56C429.32 279.83 429.32 279.1 429.32 278.36C429.32 276.9 429.41 275.43 429.53 273.97C429.764 271.073 430.235 268.2 430.94 265.38C431.36 263.75 431.84 262.14 432.32 260.53C432.32 260.517 432.325 260.504 432.335 260.495C432.344 260.485 432.357 260.48 432.37 260.48C432.383 260.48 432.396 260.485 432.405 260.495C432.415 260.504 432.42 260.517 432.42 260.53C431.662 263.345 431.097 266.208 430.73 269.1C430.323 271.951 430.066 274.822 429.96 277.7C429.96 278.48 429.96 279.27 429.96 280.06C429.96 280.39 429.96 280.73 429.96 281.06C431.082 278.317 432.371 275.645 433.82 273.06C436.144 268.964 438.764 265.044 441.66 261.33C441.665 260.897 441.726 260.467 441.84 260.05C441.95 259.54 442.06 259.05 442.18 258.52C442.407 257.473 442.667 256.433 442.96 255.4C443.53 253.32 444.28 251.32 444.96 249.27C444.96 249.257 444.965 249.244 444.975 249.235C444.984 249.225 444.997 249.22 445.01 249.22C445.023 249.22 445.036 249.225 445.045 249.235C445.055 249.244 445.06 249.257 445.06 249.27C444.46 251.27 444.06 253.4 443.59 255.46C443.36 256.46 443.14 257.46 442.91 258.53L442.58 260.06C442.585 260.1 442.585 260.14 442.58 260.18C443.51 259.01 444.45 257.86 445.42 256.73C449.79 251.6 454.59 246.86 459.42 242.17C460.01 241.59 460.62 241.03 461.22 240.46L461.29 240.53C456.68 245.35 452.14 250.21 447.84 255.31C446.84 256.52 445.84 257.74 444.84 258.99C445.36 258.63 445.84 258.29 446.4 257.99C447.73 257.12 449.08 256.27 450.47 255.49C451.86 254.71 453.26 253.95 454.69 253.24C456.12 252.53 457.69 251.92 459.15 251.1C459.21 251.1 459.26 251.17 459.2 251.19C457.751 251.859 456.354 252.634 455.02 253.51C453.63 254.33 452.23 255.17 450.87 256.04C449.51 256.91 448.17 257.73 446.87 258.6C445.75 259.32 444.66 260.11 443.5 260.78C440.791 264.203 438.287 267.782 436 271.5C434.615 273.834 433.35 276.237 432.21 278.7L433.03 278.34L435.13 277.41C436.48 276.81 437.83 276.23 439.18 275.64C441.75 274.52 444.36 273.5 446.88 272.27C448.301 271.604 449.678 270.846 451 270C451.06 270 451.11 270.05 451.05 270.09C446.36 273.33 441.05 275.61 435.89 277.91L433.64 278.91C433.02 279.18 432.4 279.49 431.76 279.73C430.222 283.171 428.928 286.717 427.89 290.34C425.835 297.634 424.166 305.031 422.89 312.5C421.58 319.98 420.69 327.5 420.01 335.08C419.92 336.02 419.83 336.96 419.73 337.91C419.73 337.99 419.698 338.066 419.642 338.122C419.586 338.178 419.509 338.21 419.43 338.21C419.35 338.21 419.274 338.178 419.218 338.122C419.161 338.066 419.13 337.99 419.13 337.91C419.21 334 419.61 330.2 420 326.38Z" fill="#A6A6A6"/>
    <path d="M433.94 263.12C434.36 260.79 434.94 258.52 435.61 256.24C435.61 256.227 435.615 256.214 435.625 256.205C435.634 256.195 435.647 256.19 435.66 256.19C435.673 256.19 435.686 256.195 435.695 256.205C435.705 256.214 435.71 256.227 435.71 256.24C435.13 258.48 434.71 260.76 434.3 263.03C433.89 265.3 433.49 267.67 433.16 270.03H433.1C433.25 267.713 433.53 265.406 433.94 263.12Z" fill="#A6A6A6"/>
    <path d="M443.81 269.44C445.41 268.392 447.081 267.457 448.81 266.64C449.64 266.2 450.49 265.79 451.33 265.38C452.17 264.97 453.11 264.61 453.97 264.17C454.04 264.17 454.09 264.24 454.03 264.27C453.19 264.69 452.39 265.2 451.57 265.65L449 267C447.32 267.9 445.68 268.89 443.92 269.62C443.899 269.618 443.88 269.612 443.862 269.601C443.844 269.59 443.83 269.576 443.819 269.558C443.808 269.54 443.802 269.521 443.8 269.5C443.799 269.48 443.802 269.459 443.81 269.44Z" fill="#A6A6A6"/>
    <path opacity="0.1" d="M416.27 286.19C416.27 286.19 401.79 282.73 395.14 273.01C388.78 263.73 386.73 247.91 386.57 246.52C386.83 247.8 389.82 261.62 399.68 268.06C407.23 273 414.53 277.05 416.27 286.19Z" fill="#A6A6A6"/>
    <path d="M402.9 261.16C405.476 263.529 407.328 266.581 408.24 269.96C407.172 266.663 405.331 263.67 402.87 261.23C402.78 261.19 402.85 261.11 402.9 261.16Z" fill="#A6A6A6"/>
    <path d="M416.27 286.19C416.27 286.19 401.79 282.73 395.14 273.01C388.78 263.73 386.73 247.91 386.57 246.52C386.566 246.487 386.566 246.453 386.57 246.42C386.57 246.42 393.52 256.3 400.82 258.82C408.12 261.34 418.37 270.05 416.27 286.19Z" fill="#DBDBDB"/>
    <path d="M389.12 251.87C390.418 254.533 391.916 257.094 393.6 259.53C395.303 261.845 397.323 263.908 399.6 265.66C401.6 267.22 403.6 268.66 405.6 270.17L405.55 270.1C405.18 269.54 404.78 269 404.37 268.48C403.54 267.42 402.63 266.42 401.72 265.43C399.92 263.43 398.08 261.56 396.47 259.43C395.57 258.265 394.789 257.012 394.14 255.69C394.14 255.63 394.21 255.6 394.24 255.69C396.59 260.58 401.29 263.69 404.63 267.85C405.109 268.436 405.556 269.047 405.97 269.68C406.302 270.139 406.584 270.631 406.81 271.15C408.643 272.623 410.3 274.3 411.75 276.15C411.623 275.201 411.43 274.262 411.17 273.34C410.835 272.05 410.316 270.814 409.63 269.67C409.63 269.61 409.69 269.55 409.72 269.61C410.428 270.755 410.995 271.98 411.41 273.26C411.715 274.274 411.893 275.322 411.94 276.38C412.654 277.355 413.305 278.373 413.89 279.43L413.71 278.5C413.43 277.06 413.11 275.62 412.71 274.19C412.029 271.29 410.851 268.53 409.23 266.03C409.23 265.97 409.28 265.92 409.32 265.97C410.978 268.441 412.277 271.135 413.18 273.97C413.64 275.39 414.01 276.83 414.33 278.29C414.49 279 414.64 279.72 414.77 280.44C414.84 280.81 414.92 281.19 414.98 281.57C416.417 284.725 417.539 288.015 418.33 291.39C419.747 297.425 420.775 303.544 421.41 309.71C422.163 316.165 422.497 322.662 422.41 329.16C422.41 329.97 422.35 330.78 422.31 331.6C422.31 331.81 421.98 331.84 421.97 331.6C421.83 328.38 421.75 325.17 421.56 321.95C421.37 318.73 421.09 315.53 420.74 312.33C420.091 306.036 419.089 299.783 417.74 293.6C416.57 288.3 415.05 282.97 412.15 278.33C410.712 276.021 408.951 273.93 406.92 272.12C404.92 270.29 402.67 268.7 400.53 267.01C398.363 265.366 396.396 263.473 394.67 261.37C392.896 259.031 391.352 256.526 390.06 253.89C389.72 253.23 389.37 252.58 389.06 251.89C389 251.87 389.09 251.81 389.12 251.87Z" fill="#A6A6A6"/>
    <path d="M469.43 279.78C469.43 279.78 469.66 300.37 457.35 306.31C445.04 312.25 438.45 307.31 430.08 309.31C430.4 308.82 436.37 300.23 445.87 297.87C455.65 295.42 466.47 288.36 469.43 279.78Z" fill="#DBDBDB"/>
    <path opacity="0.1" d="M469.43 279.78C469.43 279.78 469.66 300.37 457.35 306.31C445.04 312.25 438.45 307.31 430.08 309.31C434.499 307.201 439.224 305.807 444.08 305.18C451.85 304.22 466.68 299.17 469.43 279.78Z" fill="#A6A6A6"/>
    <path d="M429.27 309.66C430.736 308.327 432.386 307.212 434.17 306.35C434.43 306.22 434.7 306.12 434.97 306C435.24 305.88 435.24 305.68 435.38 305.53C435.75 305.15 436.14 304.78 436.54 304.43C437.312 303.765 438.142 303.169 439.02 302.65C441.02 301.45 443.29 300.65 445.38 299.49C445.44 299.49 445.49 299.56 445.43 299.59C444.43 300.12 443.43 300.71 442.43 301.3C441.43 301.89 440.43 302.41 439.51 303.02C438.651 303.567 437.835 304.179 437.07 304.85C436.85 305.04 436.65 305.24 436.44 305.45C437.801 304.994 439.191 304.626 440.6 304.35C442.85 303.89 445.13 303.57 447.38 303.09C448.485 302.857 449.577 302.563 450.65 302.21C451.65 301.39 452.65 300.57 453.65 299.68C454.821 298.606 455.889 297.424 456.84 296.15C456.844 296.144 456.849 296.139 456.855 296.135C456.861 296.131 456.867 296.128 456.874 296.127C456.881 296.126 456.888 296.126 456.895 296.127C456.902 296.128 456.909 296.131 456.915 296.135C456.921 296.139 456.926 296.144 456.93 296.15C456.934 296.156 456.936 296.163 456.938 296.17C456.939 296.176 456.939 296.184 456.938 296.191C456.937 296.198 456.934 296.204 456.93 296.21C455.453 298.226 453.778 300.088 451.93 301.77C452.46 301.57 452.99 301.36 453.5 301.12C457.727 299.226 461.355 296.21 463.99 292.4C463.99 292.34 464.12 292.4 464.08 292.45C461.845 295.722 458.958 298.496 455.6 300.6C453.916 301.648 452.118 302.501 450.24 303.14C448.055 303.814 445.826 304.338 443.57 304.71C441.363 305.072 439.184 305.59 437.05 306.26C435.088 306.929 433.242 307.901 431.58 309.14C428.443 311.576 425.916 314.708 424.2 318.29C422.003 323.023 420.63 328.096 420.14 333.29C420.14 333.51 419.77 333.51 419.79 333.29C420.29 324.68 422.6 315.67 429.27 309.66Z" fill="#A6A6A6"/>
    <path d="M443.56 303C444.202 302.04 445.071 301.253 446.09 300.71C447.251 300.095 448.272 299.248 449.09 298.22C449.09 298.16 449.22 298.22 449.18 298.27C448.44 299.213 447.539 300.019 446.52 300.65C445.403 301.248 444.417 302.064 443.62 303.05C443.6 303.05 443.53 303 443.56 303Z" fill="#A6A6A6"/>
    <path d="M437.03 324.86L436.47 336.18L434.75 370.76H408.93L407.21 336.18L406.65 324.86H437.03Z" fill="#EBEBEB"/>
    <path d="M437.03 324.86L436.47 336.18H407.21L406.65 324.86H437.03Z" fill="#DBDBDB"/>
    <path d="M438.84 320.13H404.84V330.93H438.84V320.13Z" fill="#EBEBEB"/>
    <path d="M250 444.15C381.184 444.15 487.53 432.384 487.53 417.87C487.53 403.356 381.184 391.59 250 391.59C118.816 391.59 12.4697 403.356 12.4697 417.87C12.4697 432.384 118.816 444.15 250 444.15Z" fill="#EBEBEB"/>
    <path d="M30.7598 370.76L85.5698 370.52L140.38 370.43L250 370.27L359.62 370.43L414.43 370.52L469.24 370.76L414.43 371.01L359.62 371.1L250 371.26L140.38 371.1L85.5698 371.01L30.7598 370.76Z" fill="#263238"/>
    <path d="M415.41 163.51H82.9102V385.93H415.41V163.51Z" fill="#DBDBDB"/>
    <path d="M412.99 166.22H85.3301V383.21H412.99V166.22Z" fill="#37474F"/>
    <path d="M458.71 402.6H39.6006V417.86H458.71V402.6Z" fill="#C7C7C7"/>
    <path d="M39.6006 402.6L82.9106 385.93H415.41L458.71 402.6H39.6006Z" fill="#DBDBDB"/>
    <path d="M86.7803 396.69L114.72 385.93H383.6L411.54 396.69H86.7803Z" fill="#37474F"/>
    <path d="M394.47 182.71H103.84V366.73H394.47V182.71Z" fill="white"/>
    <path d="M394.48 182.71H103.6V189.79H394.48V182.71Z" fill="#A6A6A6"/>
    <path d="M109.23 186.25C109.23 186.598 109.127 186.938 108.933 187.228C108.74 187.517 108.465 187.743 108.143 187.876C107.822 188.009 107.468 188.044 107.127 187.976C106.785 187.908 106.472 187.74 106.225 187.494C105.979 187.248 105.812 186.935 105.744 186.593C105.676 186.252 105.711 185.898 105.844 185.576C105.977 185.255 106.203 184.98 106.492 184.786C106.782 184.593 107.122 184.49 107.47 184.49C107.701 184.488 107.931 184.533 108.145 184.621C108.359 184.709 108.554 184.839 108.717 185.002C108.881 185.166 109.011 185.361 109.099 185.575C109.187 185.789 109.231 186.018 109.23 186.25Z" fill="#C7C7C7"/>
    <path d="M114.64 188.01C115.612 188.01 116.4 187.222 116.4 186.25C116.4 185.278 115.612 184.49 114.64 184.49C113.668 184.49 112.88 185.278 112.88 186.25C112.88 187.222 113.668 188.01 114.64 188.01Z" fill="white"/>
    <path d="M123.57 186.25C123.57 186.598 123.467 186.938 123.274 187.228C123.08 187.517 122.805 187.743 122.484 187.876C122.162 188.009 121.808 188.044 121.467 187.976C121.126 187.908 120.812 187.74 120.566 187.494C120.32 187.248 120.152 186.935 120.084 186.593C120.016 186.252 120.051 185.898 120.184 185.576C120.317 185.255 120.543 184.98 120.832 184.786C121.122 184.593 121.462 184.49 121.81 184.49C122.042 184.488 122.271 184.533 122.485 184.621C122.7 184.709 122.894 184.839 123.058 185.002C123.221 185.166 123.351 185.361 123.439 185.575C123.527 185.789 123.572 186.018 123.57 186.25Z" fill="#92E3A9"/>
    <path d="M168.61 167.36C158.02 181.36 157.35 202.09 157.35 202.09C157.35 202.09 148.41 224.09 153.28 234.66C154.598 237.67 156.625 240.316 159.189 242.371C161.752 244.426 164.776 245.829 168 246.46L166 240.52C166 240.52 171.08 247.8 184.78 249.09C198.48 250.38 215.42 243.8 223.88 237.89C228.905 234.421 232.943 229.708 235.6 224.21L233.44 233.57C233.44 233.57 246.24 231.29 251.93 216.57C257.62 201.85 232.93 185.26 230.43 181.29C227.93 177.32 221.22 146.79 189.51 156.73C189.49 156.69 175.9 157.71 168.61 167.36Z" fill="#263238"/>
    <path d="M163.21 246.33C159.29 245.12 155.72 241.82 153.35 238.56C150.801 235.136 149.474 230.957 149.58 226.69C149.77 221.57 151.78 216.79 153.73 212.13C155.73 207.31 158.12 202.62 160.05 197.78C160.15 197.51 159.75 197.36 159.6 197.58C157.193 201.375 155.006 205.305 153.05 209.35C150.99 213.086 149.372 217.049 148.23 221.16C147.164 224.949 147.206 228.964 148.35 232.73C149.425 235.788 151.234 238.535 153.62 240.73C156.43 243.37 159.75 244.85 163.08 246.67C163.102 246.679 163.126 246.683 163.15 246.682C163.174 246.681 163.198 246.676 163.219 246.666C163.241 246.656 163.261 246.643 163.277 246.625C163.294 246.608 163.307 246.587 163.315 246.565C163.324 246.543 163.328 246.519 163.327 246.495C163.326 246.471 163.321 246.448 163.311 246.426C163.302 246.404 163.288 246.384 163.27 246.368C163.253 246.351 163.232 246.339 163.21 246.33Z" fill="#263238"/>
    <path d="M252.65 202.07C247.14 191.26 235.9 185.5 228.28 176.48C224.15 171.59 220.7 166.02 215.66 161.98C215.52 161.88 215.34 162.11 215.47 162.22C219.66 165.91 222.47 170.65 225.74 175.09C229.182 179.467 233.055 183.487 237.3 187.09C244.83 193.89 253.83 201.92 253.89 212.93C253.89 218.02 251.75 223.93 246.89 226.24C246.71 226.32 246.89 226.63 247.05 226.52C248.953 225.426 250.613 223.955 251.928 222.198C253.243 220.441 254.186 218.434 254.7 216.3C255.752 211.465 255.025 206.412 252.65 202.07Z" fill="#263238"/>
    <path d="M253.56 205.06C253.292 200.708 251.685 196.544 248.96 193.14C246.2 189.79 242.3 187.65 238.45 185.8C234 183.67 229.36 181.72 226.17 177.8C226.04 177.63 225.81 177.86 225.94 178.02C231.03 184.5 239.28 186.69 245.39 191.88C252.39 197.82 253.79 207.71 250.75 216.07C248.786 221.177 245.644 225.747 241.58 229.41C241.51 229.47 241.58 229.58 241.68 229.51C248.64 223.39 254.3 214.7 253.56 205.06Z" fill="#263238"/>
    <path d="M198 254.06C208.53 265.12 262.64 317.44 286.26 312.56C314.89 306.65 348.14 289.23 361.12 276.85C368.4 269.92 333.31 234.85 325.99 240.26C314.46 248.8 286.68 263 281.79 265C276.9 267 235.53 245.67 211.41 237.33C189.69 229.77 190.59 246.27 198 254.06Z" fill="#DD6A57"/>
    <path d="M380.91 261.12C374.56 269.59 354.79 281.82 348.91 282.94C343.03 284.06 321.09 251.14 323.06 245.29C325.03 239.44 348.63 212.6 359.06 209.91C369.49 207.22 387.5 252.35 380.91 261.12Z" fill="#DD6A57"/>
    <path d="M326.25 240C326.25 240 330 226.75 329.25 214.65C328.59 204.47 326.46 189.43 331.92 188.87C343.13 187.72 348.43 225.23 348.43 225.23C348.43 225.23 348.1 242.16 337.1 244.23C330.17 245.62 326.25 240 326.25 240Z" fill="#DD6A57"/>
    <path d="M343.81 217.28C343.25 222.86 350.15 220.33 350.15 220.33C350.15 220.33 341.15 226.33 342.75 232.33C344.35 238.08 352.57 234.72 353.17 234.49C352.69 234.82 344.52 240.59 346.8 246.42C349.17 252.48 356.8 247.7 357.34 247.42C356.98 247.86 352.41 253.85 355.15 257.89C359.85 264.83 371.97 249.89 378.74 249.41C378.74 249.41 380.79 260.81 380.91 261.13C380.91 261.13 392.73 247.13 391.64 238C391.501 236.673 390.912 235.433 389.972 234.485C389.032 233.538 387.796 232.94 386.47 232.79C386.47 232.79 390.78 228.69 389.14 224.04C388.29 221.65 383.71 220.89 383.71 220.89C383.71 220.89 387.03 217.47 385.31 213.42C383.94 210.19 379.57 209.93 379.57 209.93C379.57 209.93 381.22 205.16 378.76 202.31C373.79 196.54 345 205.33 343.81 217.28Z" fill="#DD6A57"/>
    <path d="M378.88 209.77C378.901 209.77 378.921 209.762 378.936 209.747C378.951 209.732 378.96 209.712 378.96 209.69C378.96 209.669 378.951 209.649 378.936 209.634C378.921 209.619 378.901 209.61 378.88 209.61C368.71 210.19 357.71 213.95 349.77 220.42C349.51 220.64 349.77 221.15 350.07 220.97C359.52 215.86 368.33 212.09 378.88 209.77Z" fill="#263238"/>
    <path d="M383.84 220.78C383.95 220.78 383.91 220.57 383.84 220.57C373.36 221.23 361.1 225.8 352.84 234.34C352.56 234.63 352.6 235.18 352.95 234.87C358.81 229.61 374.33 222.82 383.84 220.78Z" fill="#263238"/>
    <path d="M357 248.2C365.25 240.32 375.2 235.87 386.07 232.78C386.21 232.78 386.14 232.54 386.01 232.54C380.28 232.61 373.55 235.3 368.5 237.84C363.766 240.116 359.706 243.587 356.72 247.91C356.57 248.08 356.79 248.37 357 248.2Z" fill="#263238"/>
    <path d="M350 220.28C349.69 220.53 350.41 220.71 350.1 220.97C348.82 222.09 341.7 229.46 343.45 232.66C344.87 235.23 349.3 235.11 350.98 234.4L355.22 232.61L351.86 235.76C350.362 237.151 349.099 238.776 348.12 240.57C347.617 241.376 347.291 242.28 347.164 243.221C347.036 244.162 347.11 245.12 347.38 246.03C347.641 246.868 348.179 247.592 348.906 248.082C349.633 248.573 350.506 248.802 351.38 248.73C353.343 248.518 355.218 247.809 356.83 246.67L361.38 243.67L358.05 248C357.127 249.194 356.361 250.501 355.77 251.89C355.158 253.185 354.942 254.633 355.15 256.05C355.268 256.684 355.561 257.271 355.996 257.747C356.431 258.222 356.99 258.566 357.61 258.74C359.058 258.922 360.528 258.689 361.85 258.07C364.718 256.759 367.479 255.228 370.11 253.49C371.47 252.66 372.84 251.83 374.25 251.06C375.615 250.207 377.145 249.651 378.74 249.43C377.201 249.816 375.751 250.495 374.47 251.43C373.14 252.29 371.85 253.22 370.56 254.16C367.991 256.113 365.245 257.824 362.36 259.27C360.811 260.092 359.055 260.439 357.31 260.27C356.373 260.07 355.515 259.601 354.84 258.921C354.165 258.241 353.703 257.379 353.51 256.44C353.207 254.688 353.43 252.886 354.15 251.26C354.783 249.702 355.617 248.233 356.63 246.89L357.87 248.2C355.984 249.577 353.771 250.439 351.45 250.7C350.158 250.796 348.872 250.443 347.81 249.7C346.793 248.943 346.026 247.898 345.61 246.7C345.268 245.548 345.174 244.337 345.334 243.146C345.494 241.954 345.905 240.811 346.54 239.79C347.64 237.828 349.059 236.064 350.74 234.57L351.62 235.93C349.45 236.77 344.51 237.44 341.82 233.73C339 228.34 348.2 221.42 350 220.28Z" fill="#263238"/>
    <path d="M350.15 220.33C349.007 220.505 347.843 220.505 346.7 220.33C346.241 220.274 345.805 220.095 345.438 219.814C345.07 219.533 344.784 219.159 344.61 218.73C344.364 217.738 344.409 216.697 344.74 215.73C345.05 214.64 345.44 213.52 345.88 212.37C344.922 213.174 344.142 214.168 343.59 215.29C342.919 216.512 342.757 217.95 343.14 219.29C343.421 219.998 343.913 220.602 344.55 221.02C345.154 221.382 345.846 221.572 346.55 221.57C347.852 221.554 349.114 221.119 350.15 220.33Z" fill="#263238"/>
    <path d="M317.6 243.91L358.25 289.85C358.25 289.85 297.91 319.39 278.25 314.85C258.59 310.31 218 279.71 200.25 257.85C182.5 235.99 193.25 229.91 217.98 238.09C242.71 246.27 277.67 262.24 281.22 262.09C284.77 261.94 317.6 243.91 317.6 243.91Z" fill="#92E3A9"/>
    <path d="M358.25 289.85C358.25 289.85 297.91 319.38 278.25 314.85C266.01 312.04 245.67 299.11 227.77 284.46C227.694 284.415 227.624 284.361 227.56 284.3C216.78 275.46 206.9 266.02 200.24 257.81C194.47 250.72 191.72 245.29 191.46 241.47C191.396 240.757 191.446 240.038 191.61 239.34C192.99 233.34 202.88 233.08 217.97 238.07C242.73 246.24 277.66 262.21 281.22 262.07C284.78 261.93 317.59 243.91 317.59 243.91L358.25 289.85Z" fill="#92E3A9"/>
    <path d="M248.32 285.3C249.08 285.039 249.897 284.994 250.68 285.17C251.108 285.33 251.478 285.615 251.741 285.988C252.005 286.36 252.151 286.804 252.16 287.26C252.153 287.563 252.224 287.863 252.365 288.131C252.507 288.399 252.716 288.626 252.97 288.79C253.25 288.976 253.575 289.083 253.91 289.1C254.29 289.17 254.66 289.21 255.04 289.31C254.275 289.581 253.444 289.613 252.66 289.4C252.246 289.223 251.892 288.927 251.645 288.55C251.398 288.173 251.268 287.731 251.27 287.28C251.262 286.979 251.177 286.684 251.025 286.424C250.873 286.164 250.658 285.946 250.4 285.79C250.097 285.61 249.752 285.514 249.4 285.51C249.07 285.44 248.69 285.4 248.32 285.3Z" fill="white"/>
    <path d="M195.17 243C194.407 243.266 193.583 243.301 192.8 243.1C192.465 242.964 192.169 242.748 191.937 242.471C191.705 242.194 191.545 241.864 191.47 241.51C191.405 240.797 191.456 240.078 191.62 239.38C192.036 239.798 192.276 240.36 192.29 240.95C192.286 241.254 192.359 241.554 192.502 241.821C192.646 242.089 192.855 242.316 193.11 242.48C193.388 242.662 193.709 242.768 194.04 242.79C194.42 242.86 194.79 242.9 195.17 243Z" fill="white"/>
    <path d="M305.48 269.47C306.245 269.217 307.064 269.176 307.85 269.35C308.278 269.508 308.648 269.793 308.91 270.166C309.173 270.539 309.316 270.984 309.32 271.44C309.318 271.743 309.391 272.042 309.535 272.31C309.678 272.577 309.886 272.804 310.14 272.97C310.421 273.152 310.745 273.256 311.08 273.27C311.45 273.35 311.83 273.39 312.2 273.49C311.437 273.759 310.611 273.79 309.83 273.58C309.413 273.403 309.057 273.106 308.808 272.727C308.559 272.348 308.427 271.904 308.43 271.45C308.425 271.15 308.344 270.857 308.193 270.598C308.043 270.339 307.828 270.122 307.57 269.97C307.269 269.786 306.923 269.689 306.57 269.69C306.23 269.61 305.86 269.57 305.48 269.47Z" fill="white"/>
    <path d="M345 286.17C345.761 285.917 346.577 285.876 347.36 286.05C347.788 286.207 348.158 286.49 348.422 286.861C348.686 287.233 348.832 287.675 348.84 288.13C348.833 288.435 348.904 288.736 349.045 289.005C349.187 289.275 349.395 289.504 349.65 289.67C349.931 289.853 350.255 289.956 350.59 289.97C350.97 290.04 351.34 290.09 351.72 290.19C350.953 290.452 350.125 290.483 349.34 290.28C348.924 290.102 348.57 289.805 348.322 289.426C348.075 289.047 347.945 288.603 347.95 288.15C347.941 287.849 347.857 287.555 347.705 287.294C347.553 287.034 347.338 286.816 347.08 286.66C346.776 286.484 346.431 286.391 346.08 286.39C345.79 286.31 345.41 286.27 345 286.17Z" fill="white"/>
    <path d="M268.13 297C268.895 296.747 269.713 296.706 270.5 296.88C270.936 297.039 271.313 297.327 271.581 297.706C271.849 298.085 271.995 298.536 272 299C271.994 299.303 272.065 299.603 272.206 299.87C272.348 300.138 272.556 300.365 272.81 300.53C273.091 300.713 273.415 300.816 273.75 300.83C274.13 300.91 274.5 300.95 274.88 301.05C274.113 301.318 273.284 301.349 272.5 301.14C272.084 300.962 271.729 300.665 271.482 300.286C271.235 299.907 271.105 299.463 271.11 299.01C271.101 298.71 271.017 298.417 270.865 298.158C270.713 297.9 270.498 297.684 270.24 297.53C269.939 297.346 269.593 297.249 269.24 297.25C268.88 297.17 268.5 297.12 268.13 297Z" fill="white"/>
    <path d="M224.77 242.06C225.535 241.808 226.354 241.766 227.14 241.94C227.567 242.101 227.935 242.386 228.197 242.759C228.459 243.132 228.603 243.575 228.61 244.03C228.608 244.334 228.681 244.633 228.825 244.9C228.968 245.167 229.176 245.394 229.43 245.56C229.71 245.746 230.035 245.853 230.37 245.87C230.74 245.94 231.12 245.98 231.5 246.08C230.734 246.351 229.904 246.383 229.12 246.17C228.705 245.993 228.352 245.697 228.105 245.32C227.858 244.943 227.727 244.501 227.73 244.05C227.723 243.749 227.64 243.454 227.488 243.193C227.335 242.932 227.119 242.715 226.86 242.56C226.557 242.381 226.212 242.284 225.86 242.28C225.53 242.21 225.15 242.16 224.77 242.06Z" fill="white"/>
    <path d="M318.46 294.84C318.107 295.562 317.56 296.172 316.88 296.6C316.465 296.79 316.003 296.851 315.554 296.774C315.104 296.697 314.688 296.487 314.36 296.17C314.148 295.953 313.885 295.792 313.595 295.703C313.305 295.614 312.997 295.599 312.7 295.66C312.372 295.73 312.069 295.885 311.82 296.11C311.5 296.32 311.21 296.56 310.87 296.75C311.3 296.14 311.62 295.39 312.49 295.01C312.91 294.841 313.371 294.8 313.814 294.893C314.257 294.985 314.663 295.207 314.98 295.53C315.197 295.739 315.463 295.888 315.753 295.965C316.044 296.042 316.349 296.044 316.64 295.97C316.966 295.886 317.265 295.721 317.51 295.49C317.83 295.27 318.13 295 318.46 294.84Z" fill="white"/>
    <path d="M270.94 276C270.586 276.724 270.035 277.334 269.35 277.76C268.937 277.949 268.476 278.009 268.029 277.932C267.581 277.855 267.167 277.646 266.84 277.33C266.628 277.113 266.365 276.952 266.075 276.863C265.785 276.774 265.477 276.759 265.18 276.82C264.852 276.89 264.549 277.045 264.3 277.27C263.98 277.48 263.68 277.72 263.35 277.91C263.78 277.3 264.1 276.55 264.96 276.17C265.38 276.001 265.841 275.96 266.284 276.052C266.727 276.145 267.133 276.367 267.45 276.69C267.669 276.897 267.937 277.046 268.229 277.123C268.521 277.2 268.827 277.203 269.12 277.13C269.446 277.046 269.745 276.881 269.99 276.65C270.31 276.47 270.6 276.24 270.94 276Z" fill="white"/>
    <path d="M294.05 286.32C293.694 287.04 293.148 287.649 292.47 288.08C292.055 288.27 291.592 288.33 291.142 288.251C290.692 288.173 290.277 287.96 289.95 287.64C289.739 287.422 289.476 287.262 289.185 287.175C288.895 287.087 288.587 287.075 288.29 287.14C287.961 287.206 287.656 287.362 287.41 287.59C287.09 287.8 286.8 288.04 286.41 288.23C286.84 287.62 287.16 286.87 288.03 286.49C288.45 286.323 288.909 286.281 289.352 286.372C289.794 286.463 290.2 286.681 290.52 287C290.735 287.211 291.001 287.362 291.292 287.439C291.583 287.516 291.889 287.517 292.18 287.44C292.509 287.358 292.812 287.192 293.06 286.96C293.42 286.75 293.72 286.51 294.05 286.32Z" fill="white"/>
    <path d="M323.94 252.35C323.58 253.07 323.03 253.679 322.35 254.11C321.935 254.3 321.473 254.36 321.024 254.284C320.574 254.207 320.158 253.997 319.83 253.68C319.619 253.462 319.356 253.301 319.066 253.212C318.775 253.123 318.467 253.108 318.17 253.17C317.844 253.244 317.541 253.399 317.29 253.62C316.98 253.83 316.68 254.07 316.29 254.26C316.73 253.65 317.04 252.9 317.91 252.52C318.33 252.351 318.791 252.31 319.234 252.403C319.677 252.495 320.083 252.717 320.4 253.04C320.617 253.247 320.883 253.397 321.173 253.474C321.464 253.55 321.769 253.553 322.06 253.48C322.409 253.401 322.732 253.236 323 253C323.31 252.78 323.6 252.55 323.94 252.35Z" fill="white"/>
    <path d="M209.89 250C210.143 250.765 210.184 251.584 210.01 252.37C209.85 252.797 209.564 253.165 209.192 253.427C208.819 253.689 208.376 253.833 207.92 253.84C207.617 253.838 207.318 253.911 207.05 254.055C206.783 254.198 206.556 254.406 206.39 254.66C206.205 254.94 206.098 255.265 206.08 255.6C206.01 255.97 205.97 256.35 205.87 256.73C205.599 255.964 205.568 255.134 205.78 254.35C205.957 253.935 206.253 253.582 206.63 253.335C207.007 253.088 207.449 252.957 207.9 252.96C208.202 252.951 208.496 252.867 208.756 252.715C209.017 252.563 209.235 252.348 209.39 252.09C209.57 251.787 209.667 251.442 209.67 251.09C209.74 250.73 209.78 250.35 209.89 250Z" fill="white"/>
    <path d="M330.52 278.72C330.773 279.485 330.814 280.304 330.64 281.09C330.481 281.517 330.196 281.887 329.823 282.149C329.45 282.411 329.006 282.555 328.55 282.56C328.246 282.554 327.946 282.626 327.678 282.77C327.41 282.913 327.183 283.124 327.02 283.38C326.836 283.657 326.732 283.978 326.72 284.31C326.64 284.69 326.6 285.06 326.5 285.44C326.231 284.677 326.2 283.851 326.41 283.07C326.587 282.653 326.884 282.297 327.263 282.048C327.642 281.799 328.087 281.668 328.54 281.67C328.84 281.664 329.134 281.58 329.393 281.428C329.652 281.276 329.868 281.06 330.02 280.8C330.197 280.514 330.294 280.186 330.3 279.85C330.37 279.47 330.42 279.09 330.52 278.72Z" fill="white"/>
    <path d="M296.65 303.59C296.903 304.355 296.944 305.174 296.77 305.96C296.612 306.388 296.327 306.758 295.954 307.021C295.581 307.283 295.136 307.426 294.68 307.43C294.377 307.428 294.078 307.502 293.81 307.645C293.543 307.788 293.316 307.996 293.15 308.25C292.968 308.531 292.864 308.856 292.85 309.19C292.77 309.56 292.73 309.94 292.63 310.32C292.363 309.554 292.332 308.725 292.54 307.94C292.718 307.524 293.015 307.17 293.394 306.922C293.774 306.675 294.217 306.546 294.67 306.55C294.97 306.542 295.263 306.458 295.522 306.306C295.781 306.153 295.997 305.938 296.15 305.68C296.335 305.379 296.431 305.033 296.43 304.68C296.51 304.35 296.55 304 296.65 303.59Z" fill="white"/>
    <path d="M290.73 261.57C290.983 262.335 291.024 263.154 290.85 263.94C290.692 264.368 290.407 264.738 290.034 265.001C289.661 265.263 289.216 265.406 288.76 265.41C288.457 265.408 288.158 265.482 287.89 265.625C287.623 265.768 287.396 265.976 287.23 266.23C287.048 266.511 286.944 266.836 286.93 267.17C286.85 267.54 286.81 267.92 286.71 268.29C286.441 267.528 286.41 266.701 286.62 265.92C286.797 265.503 287.094 265.147 287.473 264.898C287.852 264.649 288.296 264.518 288.75 264.52C289.05 264.516 289.343 264.434 289.602 264.284C289.861 264.133 290.078 263.918 290.23 263.66C290.414 263.359 290.511 263.013 290.51 262.66C290.59 262.32 290.63 262 290.73 261.57Z" fill="white"/>
    <path d="M251.63 258.21C251.887 258.974 251.929 259.794 251.75 260.58C251.592 261.006 251.309 261.375 250.938 261.638C250.567 261.9 250.124 262.044 249.67 262.05C249.365 262.048 249.065 262.121 248.796 262.265C248.527 262.408 248.298 262.616 248.13 262.87C247.947 263.151 247.844 263.475 247.83 263.81C247.76 264.18 247.71 264.56 247.61 264.93C247.348 264.166 247.316 263.342 247.52 262.56C247.698 262.143 247.996 261.789 248.374 261.54C248.753 261.291 249.197 261.159 249.65 261.16C249.951 261.156 250.246 261.075 250.507 260.924C250.768 260.774 250.986 260.559 251.14 260.3C251.316 259.996 251.409 259.651 251.41 259.3C251.49 259 251.53 258.59 251.63 258.21Z" fill="white"/>
    <path d="M227.78 284.5C227.704 284.455 227.634 284.402 227.57 284.34C227.57 284.21 227.62 284.08 227.66 283.94C227.69 284.14 227.74 284.32 227.78 284.5Z" fill="white"/>
    <path d="M223.9 266.9C224.263 266.182 224.812 265.574 225.49 265.14C225.906 264.953 226.368 264.895 226.817 264.973C227.267 265.052 227.682 265.263 228.01 265.58C228.343 265.915 228.793 266.107 229.265 266.117C229.737 266.126 230.194 265.952 230.54 265.63C230.86 265.42 231.16 265.19 231.54 264.99C231.1 265.6 230.79 266.35 229.92 266.73C229.5 266.898 229.041 266.939 228.598 266.848C228.156 266.758 227.75 266.539 227.43 266.22C227.213 266.009 226.945 265.858 226.653 265.781C226.36 265.704 226.053 265.704 225.76 265.78C225.432 265.86 225.132 266.026 224.89 266.26C224.53 266.47 224.24 266.71 223.9 266.9Z" fill="white"/>
    <path d="M346 295.25C343.91 292.2 341.19 289.49 338.81 286.66C336.43 283.83 333.81 280.93 331.22 278.1C326.22 272.6 321.08 267.26 315.91 261.94C312.91 258.84 309.78 255.87 306.73 252.8C306.62 252.69 306.43 252.87 306.53 252.99C311.46 258.72 316.31 264.48 321.36 270.1C326.41 275.72 331.36 281.1 336.55 286.38C338.03 287.9 339.55 289.38 341.07 290.86C342.556 292.478 344.132 294.01 345.79 295.45C345.9 295.55 346.08 295.38 346 295.25Z" fill="#263238"/>
    <path opacity="0.1" d="M299.91 312.64C291.13 314.94 283.34 316.05 278.26 314.89C266.02 312.08 245.68 299.15 227.78 284.5C227.704 284.455 227.634 284.401 227.57 284.34C216.79 275.5 206.91 266.06 200.25 257.85C194.48 250.76 191.73 245.33 191.47 241.51C191.405 240.797 191.456 240.078 191.62 239.38C192.26 236.62 194.72 235.07 198.62 234.7L299.91 312.64Z" fill="black"/>
    <path d="M238.22 313.07L247.69 366.73H134.25C137.48 314.27 167.92 256.89 181.34 240.54C188.06 232.35 201.34 230.6 211.41 237.28C213.8 238.86 241.63 279.92 243.91 285.91C248.45 297.72 238.22 313.07 238.22 313.07Z" fill="#92E3A9"/>
    <path d="M200.6 273C201.365 272.747 202.184 272.706 202.97 272.88C203.396 273.042 203.763 273.328 204.025 273.7C204.287 274.073 204.432 274.515 204.44 274.97C204.435 275.444 204.615 275.9 204.942 276.242C205.269 276.584 205.717 276.785 206.19 276.8C206.57 276.88 206.94 276.92 207.32 277.02C206.554 277.291 205.724 277.323 204.94 277.11C204.525 276.933 204.172 276.637 203.925 276.26C203.678 275.883 203.547 275.441 203.55 274.99C203.543 274.689 203.46 274.393 203.308 274.133C203.156 273.872 202.94 273.655 202.68 273.5C202.377 273.321 202.032 273.224 201.68 273.22C201.35 273.12 201 273.07 200.6 273Z" fill="white"/>
    <path d="M208 320C208.765 319.747 209.584 319.706 210.37 319.88C210.797 320.041 211.165 320.326 211.427 320.699C211.689 321.072 211.833 321.515 211.84 321.97C211.838 322.274 211.911 322.573 212.055 322.84C212.198 323.107 212.406 323.334 212.66 323.5C212.941 323.683 213.265 323.786 213.6 323.8C213.97 323.88 214.35 323.92 214.72 324.02C213.957 324.289 213.131 324.321 212.35 324.11C211.932 323.935 211.576 323.638 211.329 323.258C211.081 322.879 210.953 322.434 210.96 321.98C210.952 321.68 210.867 321.387 210.715 321.128C210.563 320.87 210.348 320.654 210.09 320.5C209.789 320.316 209.443 320.219 209.09 320.22C208.72 320.19 208.35 320.14 208 320Z" fill="white"/>
    <path d="M180.17 288.66C180.933 288.399 181.753 288.354 182.54 288.53C182.966 288.692 183.333 288.978 183.595 289.35C183.857 289.723 184.002 290.165 184.01 290.62C184.005 290.924 184.077 291.224 184.221 291.492C184.364 291.76 184.574 291.987 184.83 292.15C185.106 292.337 185.427 292.445 185.76 292.46C186.14 292.53 186.51 292.57 186.89 292.67C186.127 292.939 185.301 292.971 184.52 292.76C184.103 292.585 183.748 292.29 183.499 291.912C183.25 291.535 183.118 291.092 183.12 290.64C183.114 290.338 183.031 290.043 182.879 289.782C182.726 289.521 182.51 289.304 182.25 289.15C181.962 288.979 181.635 288.883 181.3 288.87C180.92 288.8 180.55 288.76 180.17 288.66Z" fill="white"/>
    <path d="M165.1 336.86C165.861 336.607 166.677 336.566 167.46 336.74C167.889 336.897 168.26 337.182 168.522 337.555C168.785 337.929 168.927 338.374 168.93 338.83C168.928 339.134 169.001 339.433 169.145 339.7C169.288 339.967 169.496 340.194 169.75 340.36C170.031 340.543 170.356 340.646 170.69 340.66C171.06 340.74 171.44 340.78 171.82 340.88C171.054 341.148 170.225 341.179 169.44 340.97C169.024 340.792 168.67 340.495 168.422 340.116C168.175 339.737 168.045 339.293 168.05 338.84C168.042 338.54 167.957 338.247 167.805 337.988C167.653 337.73 167.438 337.514 167.18 337.36C166.879 337.176 166.533 337.079 166.18 337.08C165.85 337 165.47 337 165.1 336.86Z" fill="white"/>
    <path d="M232.93 360.27C233.695 360.017 234.514 359.976 235.3 360.15C235.727 360.311 236.095 360.596 236.357 360.969C236.619 361.342 236.763 361.785 236.77 362.24C236.768 362.544 236.842 362.843 236.985 363.11C237.128 363.377 237.336 363.604 237.59 363.77C237.871 363.953 238.196 364.056 238.53 364.07C238.9 364.15 239.28 364.19 239.66 364.29C238.894 364.558 238.065 364.589 237.28 364.38C236.864 364.202 236.51 363.905 236.262 363.526C236.015 363.147 235.885 362.703 235.89 362.25C235.882 361.95 235.798 361.657 235.645 361.398C235.493 361.14 235.278 360.924 235.02 360.77C234.719 360.586 234.373 360.489 234.02 360.49C233.69 360.42 233.31 360.37 232.93 360.27Z" fill="white"/>
    <path d="M140.23 343.14C139.464 343.407 138.635 343.439 137.85 343.23C137.685 343.167 137.529 343.08 137.39 342.97C137.44 342.64 137.51 342.32 137.58 341.97C137.718 342.225 137.918 342.441 138.16 342.6C138.441 342.783 138.766 342.886 139.1 342.9C139.48 343 139.85 343 140.23 343.14Z" fill="white"/>
    <path d="M188.45 239C189.213 238.739 190.033 238.694 190.82 238.87C191.246 239.032 191.613 239.317 191.875 239.69C192.137 240.062 192.282 240.505 192.29 240.96C192.283 241.263 192.354 241.563 192.495 241.831C192.637 242.099 192.845 242.326 193.1 242.49C193.38 242.676 193.705 242.783 194.04 242.8C194.42 242.87 194.79 242.91 195.17 243.01C194.407 243.279 193.581 243.31 192.8 243.1C192.383 242.926 192.027 242.631 191.778 242.253C191.528 241.876 191.397 241.433 191.4 240.98C191.394 240.678 191.311 240.383 191.159 240.122C191.007 239.861 190.79 239.644 190.53 239.49C190.227 239.31 189.882 239.214 189.53 239.21C189.2 239.13 188.82 239.09 188.45 239Z" fill="white"/>
    <path d="M228.77 307C228.414 307.72 227.868 308.329 227.19 308.76C226.775 308.95 226.312 309.009 225.862 308.931C225.412 308.852 224.997 308.639 224.67 308.32C224.459 308.102 224.196 307.942 223.905 307.854C223.615 307.767 223.307 307.755 223.01 307.82C222.681 307.885 222.376 308.041 222.13 308.27C221.81 308.48 221.52 308.72 221.18 308.91C221.61 308.3 221.93 307.55 222.8 307.17C223.22 307.002 223.679 306.961 224.122 307.052C224.564 307.142 224.97 307.361 225.29 307.68C225.505 307.891 225.771 308.042 226.062 308.119C226.353 308.196 226.659 308.197 226.95 308.12C227.278 308.04 227.578 307.874 227.82 307.64C228.14 307.39 228.44 307.15 228.77 307Z" fill="white"/>
    <path d="M155.86 291.94C155.498 292.659 154.948 293.267 154.27 293.7C153.987 293.827 153.68 293.892 153.37 293.892C153.06 293.892 152.753 293.827 152.47 293.7C152.58 293.43 152.68 293.16 152.8 292.89C153.181 293.08 153.615 293.132 154.03 293.04C154.359 292.951 154.661 292.783 154.91 292.55C155.23 292.36 155.53 292.13 155.86 291.94Z" fill="white"/>
    <path d="M155.86 324.31C155.503 325.033 154.953 325.642 154.27 326.07C153.857 326.259 153.396 326.319 152.949 326.242C152.501 326.166 152.087 325.956 151.76 325.64C151.548 325.423 151.285 325.262 150.995 325.173C150.705 325.084 150.397 325.069 150.1 325.13C149.772 325.2 149.469 325.355 149.22 325.58C148.9 325.79 148.6 326.03 148.27 326.22C148.7 325.61 149.02 324.86 149.88 324.48C150.3 324.311 150.761 324.27 151.204 324.363C151.647 324.455 152.053 324.677 152.37 325C152.589 325.208 152.857 325.357 153.149 325.433C153.441 325.51 153.747 325.513 154.04 325.44C154.367 325.353 154.666 325.184 154.91 324.95C155.23 324.74 155.52 324.51 155.86 324.31Z" fill="white"/>
    <path d="M187.31 357C186.95 357.72 186.4 358.329 185.72 358.76C185.305 358.95 184.842 359.009 184.392 358.931C183.942 358.852 183.526 358.639 183.2 358.32C182.989 358.102 182.725 357.942 182.435 357.854C182.144 357.767 181.836 357.755 181.54 357.82C181.211 357.888 180.907 358.043 180.66 358.27C180.35 358.48 180.05 358.72 179.71 358.91C180.15 358.3 180.46 357.55 181.33 357.17C181.749 357.002 182.209 356.961 182.651 357.052C183.094 357.142 183.5 357.361 183.82 357.68C184.036 357.89 184.301 358.041 184.592 358.118C184.883 358.195 185.189 358.196 185.48 358.12C185.809 358.037 186.112 357.872 186.36 357.64C186.67 357.45 187 357.21 187.31 357Z" fill="white"/>
    <path d="M189.67 317.33C189.307 318.049 188.758 318.657 188.08 319.09C187.666 319.278 187.205 319.336 186.757 319.258C186.309 319.179 185.896 318.968 185.57 318.65C185.234 318.318 184.784 318.127 184.312 318.115C183.84 318.104 183.381 318.274 183.03 318.59C182.71 318.81 182.41 319.04 182.08 319.24C182.51 318.63 182.82 317.88 183.69 317.5C184.109 317.327 184.569 317.283 185.013 317.374C185.457 317.465 185.863 317.687 186.18 318.01C186.399 318.218 186.667 318.367 186.959 318.444C187.251 318.521 187.557 318.523 187.85 318.45C188.176 318.366 188.475 318.201 188.72 317.97C189 317.75 189.33 317.52 189.67 317.33Z" fill="white"/>
    <path d="M216.33 350.3C215.964 351.017 215.416 351.624 214.74 352.06C214.325 352.25 213.862 352.31 213.412 352.231C212.962 352.153 212.547 351.94 212.22 351.62C212.009 351.402 211.746 351.242 211.455 351.155C211.165 351.067 210.857 351.055 210.56 351.12C210.231 351.186 209.926 351.342 209.68 351.57C209.36 351.78 209.07 352.01 208.68 352.21C209.11 351.6 209.43 350.85 210.3 350.47C210.72 350.303 211.179 350.261 211.622 350.352C212.064 350.443 212.47 350.661 212.79 350.98C213.005 351.191 213.271 351.342 213.562 351.419C213.853 351.496 214.159 351.497 214.45 351.42C214.78 351.338 215.082 351.172 215.33 350.94C215.69 350.73 216 350.49 216.33 350.3Z" fill="white"/>
    <path d="M209.89 250C210.143 250.765 210.184 251.584 210.01 252.37C209.85 252.797 209.564 253.165 209.192 253.427C208.819 253.689 208.376 253.833 207.92 253.84C207.617 253.838 207.318 253.911 207.05 254.055C206.783 254.198 206.556 254.406 206.39 254.66C206.205 254.94 206.098 255.265 206.08 255.6C206.01 255.97 205.97 256.35 205.87 256.73C205.599 255.964 205.568 255.134 205.78 254.35C205.957 253.935 206.253 253.582 206.63 253.335C207.007 253.088 207.449 252.957 207.9 252.96C208.202 252.951 208.496 252.867 208.756 252.715C209.017 252.563 209.235 252.348 209.39 252.09C209.57 251.787 209.667 251.442 209.67 251.09C209.74 250.73 209.78 250.35 209.89 250Z" fill="white"/>
    <path d="M232 333.9C232.261 334.663 232.306 335.484 232.13 336.27C231.969 336.696 231.683 337.064 231.311 337.326C230.938 337.588 230.496 337.732 230.04 337.74C229.737 337.737 229.437 337.81 229.17 337.954C228.902 338.097 228.675 338.306 228.51 338.56C228.325 338.84 228.218 339.165 228.2 339.5C228.13 339.87 228.09 340.25 227.99 340.62C227.721 339.858 227.69 339.031 227.9 338.25C228.075 337.833 228.37 337.477 228.747 337.228C229.125 336.978 229.568 336.847 230.02 336.85C230.321 336.847 230.617 336.765 230.878 336.615C231.138 336.464 231.356 336.249 231.51 335.99C231.69 335.688 231.787 335.343 231.79 334.99C231.82 334.65 231.86 334.28 232 333.9Z" fill="white"/>
    <path d="M227.66 283.94C227.917 284.704 227.959 285.524 227.78 286.31C227.621 286.736 227.338 287.104 226.967 287.366C226.596 287.629 226.154 287.773 225.7 287.78C225.395 287.776 225.094 287.849 224.825 287.993C224.556 288.136 224.327 288.345 224.16 288.6C223.976 288.881 223.873 289.206 223.86 289.54C223.79 289.91 223.74 290.29 223.64 290.66C223.378 289.896 223.347 289.072 223.55 288.29C223.728 287.873 224.024 287.517 224.403 287.268C224.782 287.019 225.227 286.888 225.68 286.89C225.982 286.885 226.277 286.802 226.538 286.649C226.799 286.497 227.017 286.281 227.17 286.02C227.338 285.731 227.431 285.405 227.44 285.07C227.52 284.69 227.56 284.32 227.66 283.94Z" fill="white"/>
    <path d="M204.86 296.77C205.116 297.534 205.161 298.353 204.99 299.14C204.828 299.566 204.543 299.933 204.17 300.195C203.798 300.457 203.355 300.602 202.9 300.61C202.426 300.612 201.971 300.796 201.629 301.123C201.287 301.451 201.083 301.897 201.06 302.37C200.99 302.74 200.94 303.12 200.84 303.49C200.575 302.726 200.547 301.9 200.76 301.12C200.935 300.703 201.23 300.347 201.607 300.097C201.985 299.848 202.428 299.717 202.88 299.72C203.181 299.716 203.476 299.635 203.737 299.484C203.998 299.334 204.216 299.119 204.37 298.86C204.543 298.554 204.639 298.211 204.65 297.86C204.72 297.52 204.76 297.15 204.86 296.77Z" fill="white"/>
    <path d="M154.07 351.28C154.323 352.045 154.365 352.864 154.19 353.65C154.031 354.078 153.746 354.447 153.373 354.709C153 354.971 152.556 355.115 152.1 355.12C151.797 355.116 151.497 355.189 151.229 355.332C150.962 355.476 150.735 355.685 150.57 355.94C150.388 356.217 150.284 356.539 150.27 356.87C150.2 357.25 150.15 357.63 150.05 358C149.788 357.236 149.757 356.412 149.96 355.63C150.138 355.213 150.435 354.857 150.814 354.608C151.193 354.359 151.637 354.228 152.09 354.23C152.392 354.224 152.688 354.141 152.948 353.989C153.209 353.837 153.427 353.62 153.58 353.36C153.748 353.071 153.841 352.745 153.85 352.41C153.93 352 154 351.66 154.07 351.28Z" fill="white"/>
    <path d="M170.46 272.68C170.716 273.444 170.761 274.263 170.59 275.05C170.428 275.476 170.143 275.843 169.77 276.105C169.398 276.367 168.956 276.512 168.5 276.52C168.027 276.517 167.57 276.698 167.227 277.024C166.884 277.35 166.681 277.797 166.66 278.27C166.59 278.65 166.54 279.02 166.44 279.4C166.175 278.636 166.147 277.81 166.36 277.03C166.535 276.613 166.83 276.257 167.207 276.008C167.585 275.758 168.028 275.627 168.48 275.63C168.782 275.624 169.078 275.541 169.338 275.389C169.599 275.237 169.817 275.02 169.97 274.76C170.138 274.471 170.231 274.144 170.24 273.81C170.32 273.43 170.36 273.05 170.46 272.68Z" fill="white"/>
    <path d="M170.46 305.57C170.716 306.334 170.761 307.153 170.59 307.94C170.428 308.366 170.143 308.734 169.77 308.996C169.398 309.258 168.955 309.402 168.5 309.41C168.026 309.407 167.57 309.588 167.227 309.914C166.884 310.241 166.681 310.687 166.66 311.16C166.59 311.54 166.54 311.91 166.44 312.29C166.176 311.523 166.148 310.694 166.36 309.91C166.535 309.494 166.83 309.139 167.208 308.892C167.585 308.644 168.028 308.515 168.48 308.52C168.781 308.512 169.076 308.427 169.336 308.275C169.596 308.123 169.814 307.908 169.97 307.65C170.146 307.346 170.239 307.002 170.24 306.65C170.32 306.32 170.36 305.94 170.46 305.57Z" fill="white"/>
    <path d="M196.9 333.9C197.153 334.665 197.194 335.484 197.02 336.27C196.861 336.698 196.576 337.067 196.203 337.329C195.83 337.591 195.386 337.735 194.93 337.74C194.627 337.738 194.328 337.812 194.06 337.955C193.793 338.098 193.566 338.306 193.4 338.56C193.218 338.841 193.114 339.166 193.1 339.5C193.02 339.87 192.98 340.25 192.88 340.62C192.611 339.858 192.58 339.031 192.79 338.25C192.967 337.833 193.264 337.477 193.643 337.228C194.022 336.979 194.466 336.848 194.92 336.85C195.22 336.846 195.513 336.764 195.772 336.614C196.031 336.463 196.248 336.248 196.4 335.99C196.582 335.689 196.679 335.343 196.68 334.99C196.75 334.65 196.8 334.28 196.9 333.9Z" fill="white"/>
    <path d="M223.9 266.9C224.263 266.182 224.812 265.574 225.49 265.14C225.906 264.953 226.368 264.895 226.817 264.973C227.267 265.052 227.682 265.263 228.01 265.58C228.343 265.915 228.793 266.107 229.265 266.117C229.737 266.126 230.194 265.952 230.54 265.63C230.86 265.42 231.16 265.19 231.54 264.99C231.1 265.6 230.79 266.35 229.92 266.73C229.5 266.898 229.041 266.939 228.598 266.848C228.156 266.758 227.75 266.539 227.43 266.22C227.213 266.009 226.945 265.858 226.653 265.781C226.36 265.704 226.053 265.704 225.76 265.78C225.432 265.86 225.132 266.026 224.89 266.26C224.53 266.47 224.24 266.71 223.9 266.9Z" fill="white"/>
    <path d="M183.51 263.54C183.87 262.819 184.42 262.211 185.1 261.78C185.514 261.59 185.976 261.53 186.424 261.608C186.872 261.687 187.286 261.9 187.61 262.22C187.821 262.438 188.085 262.598 188.375 262.686C188.666 262.773 188.974 262.785 189.27 262.72C189.6 262.655 189.904 262.499 190.15 262.27C190.47 262.06 190.77 261.83 191.1 261.63C190.67 262.24 190.35 262.99 189.49 263.37C189.071 263.538 188.611 263.579 188.169 263.488C187.726 263.398 187.32 263.179 187 262.86C186.783 262.65 186.515 262.5 186.223 262.423C185.93 262.346 185.623 262.345 185.33 262.42C185.003 262.5 184.703 262.666 184.46 262.9C184.14 263.11 183.85 263.35 183.51 263.54Z" fill="white"/>
    <path d="M175.68 245.67C160.6 258.12 106.42 304.23 109.68 320.6C112.96 337.18 125.51 350.6 135.16 341.3C143.16 333.67 178.48 277.04 184.89 261.9C191 247.48 190.5 233.43 175.68 245.67Z" fill="#DD6A57"/>
    <path d="M108.3 316C108.3 327.48 115.99 349.12 130.92 345.09C140.7 342.46 181.26 275.6 187.8 259.74C195.37 241.37 188.8 234.15 174.8 244.98C160.8 255.81 108.32 299.61 108.3 316Z" fill="#92E3A9"/>
    <path d="M150.42 267.93C149.657 268.199 148.831 268.231 148.05 268.02C147.931 267.972 147.817 267.912 147.71 267.84C147.906 267.684 148.093 267.517 148.27 267.34L148.36 267.41C148.638 267.591 148.959 267.695 149.29 267.71C149.67 267.79 150.05 267.84 150.42 267.93Z" fill="white"/>
    <path d="M132.29 306.92C133.055 306.667 133.874 306.626 134.66 306.8C135.088 306.958 135.458 307.243 135.721 307.616C135.983 307.99 136.126 308.434 136.13 308.89C136.128 309.194 136.201 309.493 136.345 309.76C136.488 310.027 136.696 310.254 136.95 310.42C137.231 310.603 137.556 310.706 137.89 310.72C138.26 310.8 138.64 310.84 139.01 310.94C138.247 311.209 137.421 311.24 136.64 311.03C136.223 310.853 135.867 310.556 135.618 310.177C135.369 309.798 135.237 309.354 135.24 308.9C135.235 308.601 135.154 308.307 135.003 308.048C134.853 307.789 134.638 307.573 134.38 307.42C134.078 307.238 133.733 307.141 133.38 307.14C133 307.06 132.67 307 132.29 306.92Z" fill="white"/>
    <path d="M137.08 340.09C136.86 340.33 136.64 340.57 136.42 340.79C136.37 340.547 136.271 340.316 136.128 340.113C135.986 339.91 135.802 339.739 135.59 339.61C135.286 339.434 134.941 339.341 134.59 339.34C134.22 339.27 133.84 339.22 133.46 339.12C134.225 338.868 135.044 338.826 135.83 339C136.101 339.088 136.351 339.23 136.566 339.418C136.781 339.605 136.956 339.834 137.08 340.09Z" fill="white"/>
    <path d="M155.86 291.94C155.5 292.661 154.95 293.27 154.27 293.7C153.856 293.891 153.395 293.951 152.946 293.872C152.498 293.794 152.084 293.58 151.76 293.26C151.549 293.043 151.286 292.882 150.995 292.795C150.704 292.707 150.396 292.695 150.1 292.76C149.771 292.826 149.466 292.982 149.22 293.21C148.9 293.42 148.6 293.65 148.27 293.85C148.7 293.24 149.02 292.49 149.88 292.11C150.299 291.943 150.759 291.902 151.201 291.992C151.644 292.083 152.05 292.301 152.37 292.62C152.588 292.83 152.855 292.981 153.148 293.058C153.44 293.135 153.747 293.136 154.04 293.06C154.367 292.98 154.668 292.815 154.91 292.58C155.23 292.37 155.52 292.13 155.86 291.94Z" fill="white"/>
    <path d="M172.72 248C172.973 248.761 173.014 249.577 172.84 250.36C172.685 250.788 172.402 251.158 172.03 251.421C171.659 251.684 171.215 251.827 170.76 251.83C170.455 251.827 170.154 251.9 169.885 252.043C169.616 252.187 169.387 252.395 169.22 252.65C169.038 252.931 168.934 253.255 168.92 253.59C168.85 253.97 168.8 254.34 168.7 254.72C168.438 253.953 168.407 253.125 168.61 252.34C168.788 251.924 169.085 251.569 169.464 251.322C169.843 251.075 170.287 250.945 170.74 250.95C171.041 250.941 171.336 250.857 171.596 250.705C171.856 250.553 172.074 250.338 172.23 250.08C172.406 249.776 172.499 249.431 172.5 249.08C172.58 248.75 172.62 248.37 172.72 248Z" fill="white"/>
    <path d="M170.46 272.68C170.716 273.444 170.761 274.263 170.59 275.05C170.428 275.476 170.143 275.843 169.77 276.105C169.398 276.367 168.956 276.512 168.5 276.52C168.027 276.517 167.57 276.698 167.227 277.024C166.884 277.35 166.681 277.797 166.66 278.27C166.59 278.65 166.54 279.02 166.44 279.4C166.175 278.636 166.147 277.81 166.36 277.03C166.535 276.613 166.83 276.257 167.207 276.008C167.585 275.758 168.028 275.627 168.48 275.63C168.782 275.624 169.078 275.541 169.338 275.389C169.599 275.237 169.817 275.02 169.97 274.76C170.138 274.471 170.231 274.144 170.24 273.81C170.32 273.43 170.36 273.05 170.46 272.68Z" fill="white"/>
    <path d="M123.08 325.29C123.333 326.055 123.375 326.874 123.2 327.66C123.043 328.087 122.76 328.455 122.388 328.718C122.017 328.98 121.575 329.124 121.12 329.13C120.815 329.127 120.515 329.2 120.246 329.343C119.977 329.487 119.748 329.695 119.58 329.95C119.398 330.231 119.294 330.556 119.28 330.89C119.21 331.26 119.16 331.64 119.06 332.02C118.798 331.253 118.767 330.425 118.97 329.64C119.148 329.224 119.445 328.87 119.825 328.622C120.204 328.375 120.648 328.245 121.1 328.25C121.402 328.241 121.696 328.157 121.956 328.005C122.217 327.853 122.435 327.638 122.59 327.38C122.767 327.076 122.86 326.731 122.86 326.38C122.94 326.05 123 325.67 123.08 325.29Z" fill="white"/>
    <path d="M186.92 261.76C186.81 262.01 186.68 262.28 186.55 262.55C186.172 262.362 185.739 262.316 185.33 262.42C185.003 262.5 184.702 262.666 184.46 262.9C184.14 263.11 183.85 263.35 183.46 263.54C183.91 262.92 184.2 262.2 185.05 261.78C185.341 261.639 185.659 261.563 185.983 261.56C186.306 261.556 186.626 261.625 186.92 261.76Z" fill="white"/>
    <path d="M178.15 282.87C176.8 284.75 175.31 286.53 173.87 288.34L172.87 289.64C173.77 287.913 174.65 286.173 175.51 284.42C176.824 281.909 178.003 279.328 179.04 276.69C179.11 276.52 178.85 276.44 178.76 276.58C177.41 278.7 176.33 280.96 175.05 283.12C173.77 285.28 172.54 287.47 171.32 289.66C168.86 294.03 166.32 298.38 163.73 302.66C158.52 311.22 152.97 319.59 147.23 327.81C145.62 330.11 144.03 332.43 142.34 334.68C140.65 336.93 139.06 339.37 137.34 341.63C137.28 341.71 137.39 341.82 137.46 341.74C139.08 339.74 140.75 337.87 142.4 335.94C144.05 334.01 145.45 332 147 330C150.09 326 153 321.92 155.86 317.77C161.561 309.418 166.838 300.783 171.67 291.9L172.02 291.22C172.84 290.35 173.64 289.45 174.4 288.51C175.83 286.73 177.07 284.82 178.32 282.91C178.36 282.86 178.21 282.78 178.15 282.87Z" fill="#263238"/>
    <path d="M209.32 237.22C209.32 237.22 212.63 250.78 208.68 252.65C201.31 256.14 188.14 245.3 187.28 243.36C187.07 242.86 185.97 229.83 185.15 219.71C184.61 213.19 184.15 207.87 184.15 207.87L210 218.12L209.42 235.94L209.32 237.22Z" fill="#DD6A57"/>
    <path d="M210 218.12L209.42 235.94C204.47 235.087 199.755 233.201 195.582 230.405C191.409 227.608 187.871 223.964 185.2 219.71C184.66 213.19 184.2 207.87 184.2 207.87L187.43 209.03L210 218.12Z" fill="#263238"/>
    <path d="M214.74 197.86C215.13 205.15 220.63 210.77 227.02 210.42C233.41 210.07 238.27 203.89 237.88 196.61C237.49 189.33 231.98 183.7 225.59 184.05C219.2 184.4 214.34 190.58 214.74 197.86Z" fill="#455A64"/>
    <path d="M211 198.53C211.44 206.63 217.56 212.88 224.67 212.53C231.78 212.18 237.18 205.26 236.75 197.16C236.32 189.06 230.19 182.8 223.08 183.16C215.97 183.52 210.58 190.42 211 198.53Z" fill="#C7C7C7"/>
    <path d="M232.72 192.56C235.13 223.76 216.72 228.73 209.99 229.24C203.88 229.71 182.99 230.52 177.39 199.73C171.79 168.94 185.51 157.96 199.39 156.15C213.27 154.34 230.3 161.35 232.72 192.56Z" fill="#DD6A57"/>
    <path d="M223 187C222.284 186.909 221.573 186.782 220.87 186.62C220.103 186.586 219.369 186.302 218.78 185.81C218.629 185.615 218.547 185.376 218.547 185.13C218.547 184.884 218.629 184.645 218.78 184.45C219.124 184.099 219.556 183.847 220.031 183.72C220.506 183.593 221.007 183.597 221.48 183.73C222.482 183.847 223.405 184.331 224.07 185.09C224.213 185.275 224.298 185.497 224.315 185.73C224.332 185.962 224.28 186.195 224.166 186.399C224.052 186.602 223.881 186.768 223.673 186.874C223.466 186.981 223.232 187.025 223 187Z" fill="#263238"/>
    <path d="M201.59 188.67C202.296 188.515 202.994 188.325 203.68 188.1C204.438 187.993 205.14 187.642 205.68 187.1C205.819 186.898 205.887 186.656 205.872 186.411C205.858 186.167 205.762 185.934 205.6 185.75C205.227 185.43 204.776 185.216 204.292 185.13C203.808 185.044 203.311 185.089 202.85 185.26C201.862 185.463 200.986 186.026 200.39 186.84C200.261 187.034 200.192 187.262 200.191 187.495C200.191 187.728 200.258 187.956 200.386 188.151C200.514 188.346 200.696 188.499 200.91 188.591C201.124 188.684 201.361 188.711 201.59 188.67Z" fill="#263238"/>
    <path d="M207 196.27C207 196.19 206.85 196.39 206.86 196.47C207.11 198.59 207.05 201.06 205.19 201.93C205.13 201.93 205.19 202.06 205.19 202.05C207.53 201.51 207.58 198.23 207 196.27Z" fill="#263238"/>
    <path d="M204.91 194.22C201.47 194.22 201.81 201.13 205 201.09C208.19 201.05 207.79 194.18 204.91 194.22Z" fill="#263238"/>
    <path d="M203.58 194.65C203 195.07 202.44 195.78 201.72 195.89C201 196 200.22 195.33 199.64 194.66C199.58 194.59 199.53 194.66 199.53 194.75C199.53 196.06 200.15 197.39 201.53 197.52C202.91 197.65 203.69 196.42 203.95 195.08C204 194.83 203.81 194.48 203.58 194.65Z" fill="#263238"/>
    <path d="M219.41 194.88C219.41 194.79 219.58 194.97 219.58 195.06C219.58 197.19 219.98 199.63 221.94 200.25C222 200.25 222 200.38 221.94 200.37C219.56 200.14 219.09 196.9 219.41 194.88Z" fill="#263238"/>
    <path d="M221.22 192.57C224.63 192.17 225.22 199.03 222.02 199.4C218.82 199.77 218.36 192.91 221.22 192.57Z" fill="#263238"/>
    <path d="M222.68 192.91C223.25 193.23 223.84 193.85 224.49 193.84C225.14 193.83 225.74 193.04 226.17 192.29C226.17 192.21 226.27 192.29 226.28 192.36C226.42 193.66 226.1 195.06 224.86 195.42C223.62 195.78 222.79 194.68 222.38 193.42C222.3 193.16 222.45 192.78 222.68 192.91Z" fill="#263238"/>
    <path d="M208.94 212.76C209.45 213.26 209.94 213.94 210.74 214C211.532 213.981 212.312 213.797 213.03 213.46C213.044 213.448 213.063 213.443 213.082 213.444C213.101 213.446 213.118 213.456 213.13 213.47C213.142 213.485 213.147 213.503 213.146 213.522C213.144 213.541 213.134 213.558 213.12 213.57C212.817 213.99 212.406 214.319 211.93 214.523C211.455 214.728 210.933 214.799 210.42 214.73C209.984 214.624 209.591 214.388 209.291 214.054C208.992 213.721 208.799 213.305 208.74 212.86C208.7 212.73 208.87 212.69 208.94 212.76Z" fill="#263238"/>
    <path d="M217.36 204.53C217.36 204.53 218 207.68 218.09 209.18C218.09 209.32 217.74 209.41 217.23 209.47C217.23 209.47 217.23 209.47 217.17 209.47C215.898 209.786 214.564 209.743 213.315 209.348C212.065 208.953 210.949 208.22 210.09 207.23C209.98 207.09 210.16 206.93 210.3 207.01C212.292 208.198 214.613 208.714 216.92 208.48C217 208.06 215.66 203.12 215.92 203.09C217.09 203.123 218.25 203.311 219.37 203.65C218.25 197.05 216.07 190.65 215.04 184.1C215.037 184.053 215.05 184.007 215.077 183.968C215.104 183.93 215.143 183.901 215.188 183.887C215.233 183.873 215.281 183.875 215.325 183.892C215.369 183.909 215.406 183.94 215.43 183.98C218.18 190.49 219.65 198.05 220.99 204.84C221.13 205.68 218 204.75 217.36 204.53Z" fill="#263238"/>
    <path d="M216.19 208.72C215.498 209.881 214.521 210.845 213.35 211.52C212.7 211.863 211.959 211.996 211.23 211.9C209.63 211.68 209.43 210.27 209.57 209.02C209.649 208.357 209.806 207.706 210.04 207.08C211.861 208.271 214.017 208.846 216.19 208.72Z" fill="#263238"/>
    <path d="M213.35 211.52C212.7 211.863 211.959 211.996 211.23 211.9C209.63 211.68 209.43 210.27 209.57 209.02C211.24 209 213 209.92 213.35 211.52Z" fill="#F392B9"/>
    <path d="M177.85 196.93C181.26 196.93 190.58 188.01 191.69 171.62C191.69 171.62 189.69 186.27 188.46 188.37C187.23 190.47 193.67 183.37 194.75 170.15C194.75 170.15 201.81 175.81 207.96 177.88C214.11 179.95 217.96 180.09 218.42 179.66C218.88 179.23 209.84 175.87 207.5 172.87C207.5 172.87 223.73 181.45 231.36 182.42C232.24 182.53 230.21 168.95 218.76 160.61C207.31 152.27 192.14 155.09 186.85 159.7C186.85 159.7 180.85 160.24 174 168.7C167.15 177.16 174.18 197 177.85 196.93Z" fill="#263238"/>
    <path d="M182.54 201.75C182.54 201.75 175.8 191.91 171.34 194.31C166.88 196.71 171.89 210.91 177.08 212.9C177.728 213.2 178.43 213.365 179.143 213.387C179.857 213.409 180.567 213.286 181.232 213.027C181.897 212.767 182.503 212.376 183.013 211.876C183.523 211.377 183.927 210.78 184.2 210.12L182.54 201.75Z" fill="#DD6A57"/>
    <path d="M172.88 198.35C172.867 198.355 172.856 198.364 172.848 198.376C172.84 198.387 172.836 198.401 172.836 198.415C172.836 198.429 172.84 198.443 172.848 198.454C172.856 198.466 172.867 198.475 172.88 198.48C176.52 200 178.41 203.4 179.72 206.92C178.65 205.56 177.17 204.8 175.35 206.08C175.26 206.15 175.35 206.3 175.45 206.27C176.093 206.075 176.781 206.082 177.42 206.291C178.059 206.501 178.617 206.902 179.02 207.44C179.688 208.349 180.255 209.328 180.71 210.36C180.88 210.69 181.47 210.52 181.35 210.14V210.06C181.43 205.4 177.87 198.86 172.88 198.35Z" fill="#263238"/>
    <path d="M180 211.54C179.994 211.758 179.923 211.969 179.797 212.147C179.671 212.325 179.494 212.461 179.291 212.538C179.087 212.615 178.865 212.63 178.652 212.581C178.44 212.532 178.247 212.421 178.098 212.262C177.949 212.103 177.85 211.904 177.815 211.689C177.779 211.474 177.809 211.253 177.899 211.054C177.989 210.856 178.136 210.689 178.322 210.574C178.507 210.46 178.722 210.403 178.94 210.41C179.23 210.421 179.504 210.545 179.703 210.757C179.901 210.969 180.008 211.25 180 211.54Z" fill="white"/>
    <path d="M177 209.54C176.996 209.631 176.974 209.72 176.936 209.802C176.898 209.884 176.844 209.958 176.777 210.019C176.71 210.081 176.632 210.128 176.546 210.159C176.461 210.19 176.37 210.204 176.28 210.2C176.19 210.198 176.101 210.177 176.019 210.14C175.936 210.103 175.863 210.049 175.801 209.983C175.74 209.917 175.692 209.84 175.661 209.755C175.63 209.67 175.616 209.58 175.62 209.49C175.622 209.399 175.643 209.31 175.68 209.228C175.717 209.145 175.77 209.07 175.836 209.008C175.902 208.946 175.979 208.897 176.064 208.865C176.149 208.833 176.239 208.817 176.33 208.82C176.513 208.83 176.685 208.911 176.81 209.045C176.935 209.18 177.003 209.357 177 209.54Z" fill="white"/>
    <path d="M171.65 200.51L169.5 200.96C169.444 200.972 169.386 200.972 169.33 200.962C169.274 200.951 169.221 200.929 169.174 200.897C169.126 200.866 169.086 200.825 169.054 200.777C169.022 200.73 169.001 200.676 168.99 200.62C168.966 200.509 168.988 200.393 169.049 200.297C169.111 200.202 169.209 200.134 169.32 200.11L171.47 199.66C171.526 199.649 171.583 199.648 171.639 199.659C171.695 199.67 171.749 199.692 171.796 199.724C171.844 199.755 171.884 199.796 171.916 199.844C171.947 199.891 171.969 199.944 171.98 200C172.004 200.112 171.982 200.228 171.92 200.324C171.859 200.419 171.761 200.486 171.65 200.51Z" fill="#92E3A9"/>
    <path d="M171.41 199.13L169.22 199.26C169.163 199.264 169.105 199.257 169.051 199.238C168.997 199.22 168.947 199.191 168.904 199.153C168.861 199.114 168.826 199.068 168.801 199.016C168.777 198.964 168.763 198.908 168.76 198.85C168.755 198.735 168.795 198.623 168.871 198.537C168.948 198.451 169.055 198.398 169.17 198.39L171.35 198.26C171.465 198.252 171.579 198.289 171.667 198.364C171.755 198.439 171.81 198.545 171.82 198.66C171.826 198.777 171.786 198.89 171.71 198.978C171.633 199.066 171.526 199.12 171.41 199.13Z" fill="#92E3A9"/>
    <path d="M176.07 194.24C176.07 194.24 173.43 178.5 177.2 169.24C181.4 159 201.45 150.46 217.14 159.46C217.14 159.46 193.3 154.72 183.54 169.32C179.43 175.47 181.4 194.08 181.4 194.08L176.07 194.24Z" fill="#C7C7C7"/>
    <path d="M180.49 216.771C187.566 215.995 192.586 208.828 191.701 200.763C190.817 192.698 184.363 186.79 177.286 187.566C170.21 188.342 165.19 195.509 166.075 203.574C166.96 211.639 173.413 217.547 180.49 216.771Z" fill="#C7C7C7"/>
    <path d="M187.92 200.72C188.72 207.97 184.21 214.41 177.85 215.11C171.49 215.81 165.68 210.5 164.85 203.25C164.02 196 168.57 189.55 174.93 188.86C181.29 188.17 187.13 193.47 187.92 200.72Z" fill="#455A64"/>
    <path d="M204.86 222.03L194.43 220.17L184.59 212.48L185.78 210.96L195.24 218.36L205.19 220.13L204.86 222.03Z" fill="#C7C7C7"/>
    <path d="M203.49 220.76C203.77 217.76 211.74 216.99 211.32 221.49C210.9 225.99 203.21 223.74 203.49 220.76Z" fill="#37474F"/>
    <path d="M209.4 236.83L206.77 251.43L186.49 237.83L182.88 244.29C182.88 244.29 204.88 268 204.71 266.75L207.87 254L217.56 260.42L212.71 240.26L209.4 236.83Z" fill="white"/>
    <path d="M136.5 339.83C127.22 351.16 112.12 338.22 110.4 328.14C106.35 304.47 111.56 261.06 118.46 240.49C120.68 233.87 164.64 246.49 164.75 253.94C164.86 261.76 155.32 316.84 136.5 339.83Z" fill="#DD6A57"/>
    <path d="M117.28 252.39C117.28 252.39 117.94 230.66 125.67 216.18C131.01 206.18 145.06 185.68 178.91 184.18C186.91 183.84 198.62 189.04 185.71 194.37C176.54 198.15 169.59 197.78 164.65 200.95C164.65 200.95 178.73 209.33 178.76 217.38C178.785 224.425 178.311 231.463 177.34 238.44C176.01 238.557 174.674 238.587 173.34 238.53C173.34 238.53 173.14 246.07 164.72 253.89L117.28 252.39Z" fill="#DD6A57"/>
    <path d="M132.29 207.44C137.85 205.33 149.71 201.05 160.63 200.93C172.76 200.79 196.16 203.79 196.17 212.74C196.17 219.31 187.17 218.95 187.17 218.95C187.17 218.95 196.58 222.23 195.29 228.16C194.11 233.57 187.14 232.87 187.14 232.87C187.14 232.87 192.51 235.87 190.37 240.87C187.8 246.87 176.97 239.66 169.12 243.49C167.34 244.31 132.29 207.44 132.29 207.44Z" fill="#DD6A57"/>
    <path d="M158.64 213.77C164.2 212.64 177.47 213.31 187.02 218.77C187.24 218.89 187.26 219.12 187.02 219.05C177.796 216.196 168.26 214.473 158.62 213.92C158.58 213.88 158.58 213.78 158.64 213.77Z" fill="#263238"/>
    <path d="M159.14 226C164.03 225.52 177.68 226.82 187.14 232.64C187.35 232.77 187.36 233.01 187.14 232.93C178.094 229.608 168.701 227.32 159.14 226.11C159.129 226.106 159.12 226.098 159.114 226.088C159.107 226.079 159.104 226.067 159.104 226.055C159.104 226.044 159.107 226.032 159.114 226.023C159.12 226.013 159.129 226.005 159.14 226Z" fill="#263238"/>
    <path d="M195.12 208.84C193.8 207.38 191.93 206.84 190.29 205.84C190.2 205.79 190.12 205.94 190.21 205.98C193.1 207.19 196.13 210.05 195.65 213.44C195.07 217.52 190.18 218.56 186.79 218.65C186.62 218.65 186.7 218.84 186.87 218.87C190.64 219.53 195.96 218.22 196.66 213.78C196.793 212.894 196.724 211.989 196.457 211.133C196.191 210.278 195.733 209.494 195.12 208.84Z" fill="#263238"/>
    <path d="M186.32 218.52C186.23 218.52 186.16 218.62 186.25 218.66C191.47 220.66 194.69 224.29 194.95 226.35C195.137 227.347 195.016 228.378 194.604 229.305C194.191 230.232 193.506 231.011 192.64 231.54C190.827 232.539 188.722 232.871 186.69 232.48C186.52 232.48 186.46 232.7 186.62 232.73C189.07 233.18 193.78 233.73 195.48 229.78C196.9 226.48 195.31 221 186.32 218.52Z" fill="#263238"/>
    <path d="M190.17 235.2C189.129 233.74 187.618 232.681 185.89 232.2C185.81 232.2 185.75 232.31 185.89 232.34C188.89 233.55 191.46 237.14 190.5 240.47C190.44 240.68 190.75 240.74 190.82 240.55C191.13 239.668 191.232 238.727 191.119 237.799C191.006 236.872 190.682 235.982 190.17 235.2Z" fill="#263238"/>
    <path d="M191.81 188.89C191.57 187.39 189.68 185.89 186.05 185.21C189.05 186.03 191.24 187.65 191.22 189.11C191.2 190.57 190.12 192.11 186.94 193.82C186.85 193.82 186.94 193.91 187.01 193.87C188.89 193 192.23 191.58 191.81 188.89Z" fill="#263238"/>
    <path d="M115 244.13L169.4 262.45C169.4 262.45 149.58 323.5 140.22 336.61C130.86 349.72 117.88 347.36 110.39 331.1C102.9 314.84 115 244.13 115 244.13Z" fill="#92E3A9"/>
    <path d="M143.7 263.91C144.465 263.658 145.284 263.616 146.07 263.79C146.497 263.951 146.865 264.236 147.127 264.609C147.389 264.982 147.533 265.425 147.54 265.88C147.538 266.184 147.612 266.483 147.755 266.75C147.898 267.017 148.106 267.245 148.36 267.41C148.641 267.593 148.966 267.696 149.3 267.71C149.67 267.79 150.05 267.83 150.42 267.93C149.657 268.199 148.831 268.231 148.05 268.02C147.633 267.843 147.277 267.546 147.028 267.167C146.779 266.788 146.648 266.344 146.65 265.89C146.646 265.591 146.564 265.297 146.413 265.038C146.263 264.779 146.048 264.563 145.79 264.41C145.487 264.231 145.142 264.134 144.79 264.13C144.45 264.06 144.08 264 143.7 263.91Z" fill="white"/>
    <path d="M132.29 306.92C133.055 306.667 133.874 306.626 134.66 306.8C135.088 306.958 135.458 307.243 135.721 307.616C135.983 307.99 136.126 308.434 136.13 308.89C136.128 309.194 136.201 309.493 136.345 309.76C136.488 310.027 136.696 310.254 136.95 310.42C137.231 310.603 137.556 310.706 137.89 310.72C138.26 310.8 138.64 310.84 139.01 310.94C138.247 311.209 137.421 311.24 136.64 311.03C136.223 310.853 135.867 310.556 135.618 310.177C135.369 309.798 135.237 309.354 135.24 308.9C135.235 308.601 135.154 308.307 135.003 308.048C134.853 307.789 134.638 307.573 134.38 307.42C134.078 307.238 133.733 307.141 133.38 307.14C133 307.06 132.67 307 132.29 306.92Z" fill="white"/>
    <path d="M137.15 340.24C136.91 340.48 136.67 340.7 136.43 340.91C136.395 340.643 136.301 340.388 136.154 340.163C136.006 339.938 135.81 339.749 135.58 339.61C135.278 339.431 134.932 339.337 134.58 339.34C134.21 339.27 133.83 339.22 133.45 339.12C134.215 338.868 135.034 338.826 135.82 339C136.119 339.097 136.393 339.258 136.623 339.473C136.853 339.687 137.033 339.949 137.15 340.24Z" fill="white"/>
    <path d="M155.86 291.94C155.5 292.661 154.95 293.27 154.27 293.7C153.856 293.891 153.395 293.951 152.946 293.872C152.498 293.794 152.084 293.58 151.76 293.26C151.549 293.043 151.286 292.882 150.995 292.795C150.704 292.707 150.396 292.695 150.1 292.76C149.771 292.826 149.466 292.982 149.22 293.21C148.9 293.42 148.6 293.65 148.27 293.85C148.7 293.24 149.02 292.49 149.88 292.11C150.299 291.943 150.759 291.902 151.201 291.992C151.644 292.083 152.05 292.301 152.37 292.62C152.588 292.83 152.855 292.981 153.148 293.058C153.44 293.135 153.747 293.136 154.04 293.06C154.367 292.98 154.668 292.815 154.91 292.58C155.23 292.37 155.52 292.13 155.86 291.94Z" fill="white"/>
    <path d="M118.82 295.79C118.457 296.508 117.908 297.116 117.23 297.55C116.815 297.74 116.352 297.799 115.902 297.721C115.452 297.642 115.036 297.429 114.71 297.11C114.499 296.892 114.235 296.732 113.945 296.644C113.654 296.557 113.346 296.545 113.05 296.61C112.721 296.675 112.416 296.831 112.17 297.06C111.86 297.27 111.56 297.51 111.17 297.7C111.61 297.09 111.92 296.34 112.79 295.96C113.209 295.792 113.669 295.751 114.111 295.842C114.554 295.932 114.96 296.151 115.28 296.47C115.495 296.68 115.761 296.831 116.052 296.908C116.343 296.985 116.649 296.986 116.94 296.91C117.269 296.827 117.572 296.662 117.82 296.43C118.18 296.22 118.48 296 118.82 295.79Z" fill="white"/>
    <path d="M124.87 255.71C124.513 256.433 123.963 257.042 123.28 257.47C122.867 257.659 122.406 257.719 121.959 257.643C121.511 257.566 121.097 257.356 120.77 257.04C120.558 256.823 120.295 256.662 120.005 256.573C119.715 256.484 119.407 256.469 119.11 256.53C118.782 256.6 118.478 256.755 118.23 256.98C117.91 257.19 117.61 257.43 117.23 257.62C117.66 257.01 117.98 256.26 118.84 255.88C119.26 255.711 119.721 255.67 120.164 255.763C120.607 255.855 121.013 256.077 121.33 256.4C121.549 256.608 121.817 256.757 122.109 256.834C122.401 256.911 122.707 256.913 123 256.84C123.326 256.756 123.625 256.591 123.87 256.36C124.24 256.14 124.54 255.91 124.87 255.71Z" fill="white"/>
    <path d="M130.3 276C130.556 276.764 130.601 277.583 130.43 278.37C130.268 278.796 129.983 279.163 129.61 279.425C129.238 279.687 128.795 279.832 128.34 279.84C128.036 279.833 127.735 279.905 127.467 280.048C127.199 280.192 126.972 280.403 126.81 280.66C126.619 280.933 126.511 281.256 126.5 281.59C126.43 281.97 126.38 282.34 126.28 282.72C126.014 281.956 125.987 281.13 126.2 280.35C126.375 279.933 126.669 279.577 127.047 279.327C127.425 279.078 127.868 278.947 128.32 278.95C128.622 278.944 128.917 278.861 129.178 278.709C129.439 278.557 129.657 278.34 129.81 278.08C129.979 277.79 130.075 277.465 130.09 277.13C130.16 276.79 130.2 276.41 130.3 276Z" fill="white"/>
    <path d="M123.08 325.29C123.333 326.055 123.375 326.874 123.2 327.66C123.043 328.087 122.76 328.455 122.388 328.718C122.017 328.98 121.575 329.124 121.12 329.13C120.815 329.127 120.515 329.2 120.246 329.343C119.977 329.487 119.748 329.695 119.58 329.95C119.398 330.231 119.294 330.556 119.28 330.89C119.21 331.26 119.16 331.64 119.06 332.02C118.798 331.253 118.767 330.425 118.97 329.64C119.148 329.224 119.445 328.87 119.825 328.622C120.204 328.375 120.648 328.245 121.1 328.25C121.402 328.241 121.696 328.157 121.956 328.005C122.217 327.853 122.435 327.638 122.59 327.38C122.767 327.076 122.86 326.731 122.86 326.38C122.94 326.05 123 325.67 123.08 325.29Z" fill="white"/>
    <path d="M163.33 272.64C160.372 271.291 157.344 270.099 154.26 269.07C151.16 267.87 148.03 266.81 144.9 265.74C138.82 263.65 132.69 261.79 126.56 259.95C122.99 258.87 119.4 257.95 115.83 256.95C115.7 256.95 115.65 257.17 115.83 257.22C121.97 259.52 128.09 261.91 134.28 264.06C140.47 266.21 146.45 268.2 152.59 270.01C154.34 270.53 156.11 271.01 157.87 271.48C159.659 272.071 161.482 272.552 163.33 272.92C163.42 272.94 163.46 272.71 163.33 272.64Z" fill="#263238"/>
    <path d="M170.5 262.59C170.35 262.1 164.32 260.53 164.01 260.44C163.92 260.44 163.88 260.56 164.01 260.59C164.3 260.69 169.41 262.82 169.39 262.86C166.39 270.86 163.65 278.94 160.77 286.98C157.89 295.02 154.94 303.08 152.22 311.21C150.69 315.76 150.79 316.21 152.41 312.29C154.03 308.37 155.69 305.15 157.18 301.17C160.18 293.17 162.99 285.04 165.8 276.94C167.36 272.35 170.55 262.75 170.5 262.59Z" fill="#263238"/>
    <path d="M265.47 357.63H234.53C231.532 357.627 228.658 356.435 226.539 354.314C224.42 352.193 223.23 349.318 223.23 346.32C223.229 344.835 223.52 343.364 224.087 341.991C224.654 340.618 225.486 339.371 226.536 338.32C227.585 337.269 228.831 336.434 230.203 335.865C231.574 335.295 233.045 335.001 234.53 335H265.47C268.468 335.003 271.342 336.195 273.461 338.316C275.58 340.437 276.77 343.312 276.77 346.31C276.771 347.795 276.48 349.266 275.913 350.639C275.346 352.012 274.514 353.259 273.464 354.31C272.415 355.361 271.169 356.196 269.797 356.765C268.426 357.335 266.955 357.629 265.47 357.63Z" fill="#455A64"/>
    <path d="M241.3 346.13C241.315 345.771 241.433 345.424 241.64 345.13C241.72 344.99 241.82 344.86 241.91 344.72L242.51 344.13C242.74 343.96 242.96 343.79 243.2 343.63C244.151 343.025 245.211 342.614 246.32 342.42C248.875 341.91 251.505 341.91 254.06 342.42C255.156 342.608 256.203 343.012 257.14 343.61C257.39 343.77 257.62 343.95 257.86 344.12L258.43 344.7C258.583 344.918 258.724 345.145 258.85 345.38C258.947 345.622 259.031 345.869 259.1 346.12H258.92H254C253.96 346.126 253.918 346.118 253.882 346.098C253.846 346.079 253.817 346.048 253.8 346.01C253.663 345.741 253.456 345.513 253.201 345.349C252.946 345.186 252.653 345.093 252.35 345.08C250.878 344.985 249.402 344.985 247.93 345.08C247.629 345.092 247.336 345.183 247.081 345.345C246.827 345.506 246.619 345.732 246.48 346C246.471 346.035 246.45 346.066 246.421 346.088C246.392 346.11 246.357 346.121 246.32 346.12H241.32L241.3 346.13Z" fill="white"/>
    <path d="M241.29 349V347.27C241.285 347.23 241.285 347.19 241.29 347.15H246.29C246.29 347.26 246.29 347.39 246.29 347.51C246.29 348 246.29 348.51 246.29 348.98C246.302 349.067 246.293 349.155 246.265 349.238C246.237 349.321 246.19 349.396 246.128 349.458C246.066 349.52 245.991 349.567 245.908 349.595C245.825 349.623 245.737 349.631 245.65 349.62H241.91C241.826 349.629 241.742 349.62 241.662 349.592C241.582 349.564 241.51 349.519 241.451 349.46C241.391 349.4 241.346 349.328 241.318 349.248C241.29 349.168 241.281 349.084 241.29 349Z" fill="white"/>
    <path d="M254.06 349C254.06 348.37 254.06 347.75 254.11 347.12H259.05C259.05 347.12 259.05 347.19 259.05 347.23V349C259.06 349.083 259.051 349.166 259.023 349.244C258.996 349.323 258.952 349.394 258.893 349.453C258.834 349.511 258.763 349.556 258.685 349.583C258.606 349.611 258.523 349.62 258.44 349.61H254.66C254.579 349.618 254.496 349.608 254.419 349.58C254.342 349.552 254.272 349.507 254.215 349.448C254.157 349.39 254.113 349.319 254.087 349.242C254.06 349.164 254.051 349.082 254.06 349Z" fill="white"/>
    <path d="M460.38 182.78C462.894 185.289 464.657 188.451 465.47 191.909C466.283 195.367 466.113 198.983 464.98 202.35L453.93 191.35L445.79 195.22L441.91 203.37L452.91 214.43C449.686 215.512 446.231 215.713 442.903 215.013C439.575 214.312 436.494 212.735 433.98 210.445C431.466 208.155 429.609 205.235 428.602 201.986C427.594 198.738 427.473 195.279 428.251 191.968C429.028 188.657 430.676 185.614 433.024 183.154C435.372 180.693 438.334 178.904 441.605 177.973C444.876 177.041 448.336 177 451.628 177.854C454.92 178.708 457.925 180.426 460.33 182.83L460.38 182.78Z" fill="#92E3A9"/>
    <path d="M372.48 148.86C369.967 146.35 368.204 143.188 367.392 139.73C366.579 136.273 366.748 132.657 367.88 129.29L378.93 140.34L387.07 136.46L390.95 128.32L379.9 117.26C383.124 116.178 386.579 115.976 389.907 116.677C393.235 117.377 396.316 118.954 398.83 121.245C401.344 123.535 403.201 126.455 404.208 129.704C405.216 132.952 405.337 136.41 404.559 139.721C403.782 143.032 402.134 146.076 399.786 148.536C397.438 150.997 394.476 152.785 391.205 153.717C387.934 154.649 384.474 154.69 381.182 153.836C377.89 152.982 374.885 151.264 372.48 148.86Z" fill="#92E3A9"/>
    <path d="M397.222 134.59L385.202 146.611L434.112 195.521L446.133 183.501L397.222 134.59Z" fill="#92E3A9"/>
    <path d="M253.31 167.22C251.372 164.351 250.328 160.972 250.31 157.51C250.31 145.21 263.82 135.24 280.47 135.24C297.12 135.24 310.62 145.24 310.62 157.51C310.62 169.78 297.12 179.79 280.47 179.79C273.07 179.908 265.812 177.759 259.67 173.63L249.28 176.27L253.31 167.22Z" fill="#92E3A9"/>
    <path d="M291.31 157.51C291.308 158.13 291.49 158.737 291.833 159.253C292.176 159.769 292.665 160.172 293.237 160.41C293.81 160.648 294.44 160.711 295.048 160.59C295.656 160.47 296.214 160.172 296.653 159.733C297.091 159.295 297.389 158.736 297.51 158.128C297.63 157.52 297.568 156.89 297.329 156.318C297.091 155.745 296.689 155.257 296.172 154.913C295.656 154.57 295.049 154.388 294.43 154.39C293.603 154.393 292.811 154.722 292.226 155.307C291.642 155.891 291.312 156.683 291.31 157.51Z" fill="#263238"/>
    <path d="M280.46 160.64C282.188 160.64 283.59 159.239 283.59 157.51C283.59 155.782 282.188 154.38 280.46 154.38C278.731 154.38 277.33 155.782 277.33 157.51C277.33 159.239 278.731 160.64 280.46 160.64Z" fill="#263238"/>
    <path d="M263.36 157.51C263.358 158.13 263.54 158.737 263.883 159.253C264.226 159.769 264.715 160.172 265.287 160.41C265.86 160.648 266.49 160.711 267.098 160.59C267.706 160.47 268.265 160.172 268.703 159.733C269.141 159.295 269.44 158.736 269.56 158.128C269.681 157.52 269.618 156.89 269.38 156.318C269.142 155.745 268.739 155.257 268.223 154.913C267.706 154.57 267.1 154.388 266.48 154.39C265.653 154.393 264.861 154.722 264.277 155.307C263.692 155.891 263.363 156.683 263.36 157.51Z" fill="#263238"/>
</svg>
