<svg width="32" height="29" viewBox="0 0 32 29" fill="none" xmlns="http://www.w3.org/2000/svg">
    <path d="M4.82344 14.7219V21.9633C4.82344 22.3317 5.12891 22.6371 5.49727 22.6371H7.75234C8.1207 24.0387 9.3875 25.0719 10.8969 25.0719C12.4062 25.0719 13.682 24.0387 14.0414 22.6371H22.7293C23.0977 24.0387 24.3645 25.0719 25.8738 25.0719C27.3832 25.0719 28.659 24.0387 29.0184 22.6371H30.6895C31.0578 22.6371 31.3633 22.3317 31.3633 21.9633V15.6114C31.3633 15.4676 31.3184 15.3328 31.2375 15.225L28.9016 11.9278C28.7758 11.7481 28.5691 11.6403 28.3535 11.6403H23.484V9.51992C23.484 9.15156 23.1785 8.84609 22.8102 8.84609H10.3938C9.92656 6.60898 7.94102 4.91992 5.56914 4.91992C2.84687 4.91992 0.636719 7.13007 0.636719 9.85234C0.636719 12.3141 2.46055 14.3625 4.82344 14.7219ZM10.8969 23.7243C9.8457 23.7243 8.99219 22.8707 8.99219 21.8196C8.99219 20.7684 9.8457 19.9149 10.8969 19.9149C11.948 19.9149 12.8016 20.7684 12.8016 21.8196C12.8016 22.8707 11.9391 23.7243 10.8969 23.7243ZM25.8738 23.7243C24.8227 23.7243 23.9691 22.8707 23.9691 21.8196C23.9691 20.7684 24.8227 19.9149 25.8738 19.9149C26.925 19.9149 27.7785 20.7684 27.7785 21.8196C27.7785 22.8707 26.925 23.7243 25.8738 23.7243ZM30.0156 15.836V15.9438H26.35V12.9969H28.0031L30.0156 15.836ZM25.0023 12.9969V16.6176C25.0023 16.986 25.3078 17.2914 25.6762 17.2914H30.0156V21.2895H29.0813C28.8297 19.7442 27.482 18.5672 25.8738 18.5672C24.9305 18.5672 24.077 18.9715 23.484 19.6184V12.9969H25.0023ZM22.1363 21.2985H14.1043C13.8527 19.7532 12.5051 18.5762 10.8969 18.5762C9.28867 18.5762 7.94102 19.7532 7.68945 21.2985H6.17109V14.7489C8.49805 14.4614 10.3219 12.5567 10.4836 10.2028H22.1363V21.2985ZM5.56914 6.27656C7.5457 6.27656 9.15391 7.88476 9.15391 9.86132C9.15391 11.8379 7.5457 13.4461 5.56914 13.4461C3.59258 13.4461 1.98438 11.8289 1.98438 9.85234C1.98438 7.87577 3.59258 6.27656 5.56914 6.27656Z" fill="#0ABD19"/>
    <path d="M3.99717 11.4239C4.13193 11.5587 4.30264 11.6215 4.47334 11.6215C4.64404 11.6215 4.81475 11.5587 4.94951 11.4239L5.56943 10.804L6.18936 11.4239C6.32412 11.5587 6.49482 11.6215 6.66553 11.6215C6.83623 11.6215 7.00693 11.5587 7.1417 11.4239C7.40225 11.1633 7.40225 10.7321 7.1417 10.4715L6.52178 9.85167L7.1417 9.23175C7.40225 8.9712 7.40225 8.53995 7.1417 8.2794C6.88115 8.01885 6.4499 8.01885 6.18936 8.2794L5.56943 8.89932L4.94951 8.2794C4.68896 8.01885 4.25771 8.01885 3.99717 8.2794C3.73662 8.53995 3.73662 8.9712 3.99717 9.23175L4.61709 9.85167L3.99717 10.4715C3.73662 10.7321 3.73662 11.1633 3.99717 11.4239Z" fill="#0ABD19"/>
</svg>
