<svg width="500" height="500" viewBox="0 0 500 500" fill="none" xmlns="http://www.w3.org/2000/svg">
    <path d="M248.29 470.34C368.522 470.34 465.99 412.504 465.99 341.16C465.99 269.816 368.522 211.98 248.29 211.98C128.057 211.98 30.5898 269.816 30.5898 341.16C30.5898 412.504 128.057 470.34 248.29 470.34Z" fill="#F5F5F5"/>
    <path d="M295.21 308.32L164.56 383.79C163.775 384.19 162.906 384.398 162.025 384.398C161.144 384.398 160.275 384.19 159.49 383.79L144 375.25C142.6 374.44 142.6 373.13 144 372.33L274.69 296.85C275.475 296.45 276.344 296.242 277.225 296.242C278.106 296.242 278.975 296.45 279.76 296.85L295.26 305.39C296.61 306.25 296.61 307.51 295.21 308.32Z" fill="#E0E0E0"/>
    <path d="M333.29 428.31C361.749 428.31 384.82 415.774 384.82 400.31C384.82 384.846 361.749 372.31 333.29 372.31C304.831 372.31 281.76 384.846 281.76 400.31C281.76 415.774 304.831 428.31 333.29 428.31Z" fill="#E0E0E0"/>
    <path d="M402.88 327.76C414.964 327.76 424.76 322.437 424.76 315.87C424.76 309.303 414.964 303.98 402.88 303.98C390.796 303.98 381 309.303 381 315.87C381 322.437 390.796 327.76 402.88 327.76Z" fill="#E0E0E0"/>
    <path d="M89.2102 341.16C108.43 341.16 124.01 332.694 124.01 322.25C124.01 311.806 108.43 303.34 89.2102 303.34C69.9906 303.34 54.4102 311.806 54.4102 322.25C54.4102 332.694 69.9906 341.16 89.2102 341.16Z" fill="#E0E0E0"/>
    <path d="M373.89 65.0797L380.63 68.9997V63.6197C380.63 60.5097 383.17 59.4397 386.28 61.2297L386.51 61.3697C387.94 62.2263 389.171 63.3787 390.12 64.7497C390.29 59.5197 394.7 57.7497 400.12 60.8497L400.53 61.0897C406.02 64.2597 410.53 71.3497 410.53 76.8297V86.1897L416.75 89.7897C419.39 91.3097 421.55 94.7097 421.55 97.3497C421.55 99.9897 419.39 100.89 416.75 99.3497L408.47 94.5697L392.24 85.1997L373.89 74.6597C371.25 73.1397 369.09 69.7397 369.09 67.0997C369.09 64.4597 371.25 63.5597 373.89 65.0797Z" fill="#E0E0E0"/>
    <path d="M421.57 55.0499L426.22 57.7299V53.9999C426.22 51.8599 427.98 51.1199 430.12 52.3599L430.28 52.4499C431.266 53.0447 432.115 53.8423 432.77 54.7899C432.89 51.1799 435.93 49.9599 439.64 52.0999L439.92 52.2599C443.71 54.4499 446.81 59.3299 446.81 63.1199V69.5699L451.1 72.0499C452.019 72.6027 452.796 73.3625 453.369 74.2688C453.942 75.1751 454.295 76.2028 454.4 77.2699C454.4 79.0899 452.92 79.7099 451.1 78.6599L445.38 75.3699L434.18 68.9999L421.57 61.7199C420.651 61.1693 419.875 60.4113 419.302 59.5066C418.729 58.6019 418.375 57.5756 418.27 56.5099C418.27 54.6299 419.75 53.9999 421.57 55.0499Z" fill="#E0E0E0"/>
    <path d="M78.7497 202.16C80.5465 201.983 82.3572 202.308 83.9797 203.1C87.1197 204.62 89.7197 207.04 92.5097 209.1C95.2997 211.16 98.5097 213.1 101.97 213.19C105.43 213.28 109.22 211.13 109.85 207.7C109.89 207.094 110.042 206.5 110.3 205.95C110.646 205.51 111.128 205.197 111.67 205.058C112.212 204.918 112.785 204.961 113.3 205.18C114.309 205.637 115.271 206.193 116.17 206.84C119.7 208.92 124.17 208.45 128.17 207.84C131.54 207.35 135.8 205.84 135.79 202.45C135.79 200.23 133.79 198.58 132.31 196.97C130.83 195.36 129.53 192.77 130.93 191.04C131.467 190.456 132.162 190.039 132.93 189.84C137.15 188.47 142.32 190.3 145.93 187.66C148.57 185.66 149.19 181.66 147.8 178.73C147.029 177.272 145.95 175.999 144.637 174.999C143.325 173.999 141.811 173.297 140.2 172.94C137.37 172.22 133.77 171.89 132.71 169.16C131.79 166.77 133.65 164.16 135.71 162.72C137.77 161.28 140.34 160.22 141.8 158.12C142.518 156.997 142.915 155.7 142.95 154.368C142.986 153.036 142.657 151.719 142 150.56C141.317 149.42 140.396 148.441 139.3 147.689C138.204 146.936 136.96 146.429 135.65 146.2C134.331 146.102 133.031 145.819 131.79 145.36C130.61 144.76 129.72 143.27 130.36 142.11C130.74 141.41 131.55 141.05 132.01 140.4C132.9 139.15 132.13 137.29 130.87 136.4C129.524 135.639 128.071 135.083 126.56 134.75C123.5 133.75 120.56 130.75 121.44 127.67C122.32 124.59 126.78 123.41 128.08 120.31C129.24 117.58 127.41 114.38 124.95 112.71C122.49 111.04 119.43 110.41 116.75 109.14C114.07 107.87 111.47 105.63 111.25 102.66C111.03 99.6902 113.25 97.0702 115.16 94.6602C117.07 92.2502 118.59 88.8702 116.97 86.3002C115.35 83.7302 111.97 83.6802 109.16 82.7902C107.462 82.2427 105.899 81.3422 104.574 80.1478C103.249 78.9535 102.191 77.4923 101.47 75.8602C100.73 74.1402 100.37 72.2702 99.4697 70.6302C96.7497 65.5202 89.7497 63.2902 84.3697 63.9102C81.5497 64.2902 80.6097 65.2902 79.2397 67.3902C78.4497 68.6202 77.6397 69.2402 77.3597 70.9302C76.9497 73.4002 78.2597 76.5302 75.9297 78.4202C72.3897 81.2802 66.9297 77.4202 67.1697 83.8302C67.1591 86.5417 67.5603 89.2392 68.3597 91.8302C69.3597 94.5202 71.2497 95.6802 69.6497 98.7002C67.5697 102.6 66.2097 102.58 62.0497 102.57C59.0497 102.57 56.5197 102.4 54.3097 104.69C50.4197 108.69 52.7297 112.34 56.1797 115.44C60.1097 118.96 58.0297 120.51 57.5197 125.07C57.2697 127.27 57.7697 127.94 55.8097 129.4C52.0897 132.16 50.0197 131.23 51.0597 136.63C52.0597 141.56 50.5397 139.87 46.2697 141.71C42.4797 143.34 39.9797 147.42 36.9097 149.96C34.9097 151.6 31.9097 152.86 31.7497 155.73C31.3897 161.23 38.2297 160.03 41.4797 161.34C46.7897 163.49 45.2097 170.45 41.0597 173.06C36.6697 175.81 30.2697 176.84 29.9197 183.13C29.6497 187.96 32.3897 189.03 36.1397 190.64C39.1397 191.93 38.7497 192.31 38.7397 195.88C38.7397 203.08 41.1597 205.12 48.2597 203.94C50.1997 203.62 53.1697 202.8 55.1097 203.38C57.8197 204.2 56.9097 204.87 56.9797 207.14C57.1797 212.95 63.9797 211.31 66.8097 208.82C70.1097 205.93 74.2597 202.6 78.7497 202.16Z" fill="#92E3A9"/>
    <path opacity="0.15" d="M132.86 189.9C136.1 188.85 139.86 189.67 143.1 188.9C141.211 188.461 139.293 188.16 137.36 188C135.07 187.901 132.785 188.287 130.655 189.133C128.525 189.979 126.598 191.266 125 192.91C126.694 195.004 127.578 197.638 127.49 200.33C119.49 202.51 111.49 191.73 103.87 195.01C104.34 198.9 103.87 204.13 100.1 205.01C97.8697 205.51 95.6297 204.01 94.2497 202.2C92.8697 200.39 92.0197 198.2 90.6297 196.38C88.6831 194.026 85.9313 192.478 82.9082 192.039C79.8851 191.599 76.8064 192.298 74.2697 194C72.1897 195.51 69.5897 197.79 67.5197 196.28C65.2897 194.67 66.6497 190.28 64.1897 189.07C62.5497 188.25 60.2597 189.54 58.8897 188.34C58.3794 187.785 58.0514 187.087 57.9497 186.34C56.9497 182.23 56.1297 177.48 58.7197 174.14C61.0197 171.14 65.8897 169.34 65.3697 165.62C64.9197 162.44 60.8797 161.47 57.6797 161.1C54.4797 160.73 50.4497 159.23 50.6097 156.02C50.7697 152.81 55.0397 151.35 55.6697 148.26C55.9297 146.94 55.4897 145.47 56.0897 144.26C56.9997 142.45 59.5997 142.38 61.0897 141.04C63.8197 138.62 61.6997 134.1 62.4697 130.54C63.0197 128.02 65.0597 126.04 65.7297 123.54C67.0897 118.54 62.5597 113.84 57.8297 111.81C55.9621 111.154 54.1661 110.31 52.4697 109.29L52.2997 109.16C52.4097 111.41 54.0797 113.5 56.1797 115.38C60.1097 118.9 58.0297 120.45 57.5197 125.01C57.2697 127.21 57.7697 127.88 55.8097 129.34C52.0897 132.1 50.0197 131.17 51.0597 136.57C52.0597 141.5 50.5397 139.81 46.2697 141.65C42.4797 143.28 39.9797 147.36 36.9097 149.9C34.9097 151.54 31.9097 152.8 31.7497 155.67C31.3897 161.17 38.2297 159.97 41.4797 161.28C46.7897 163.43 45.2097 170.39 41.0597 173C36.6697 175.75 30.2697 176.78 29.9197 183.07C29.6497 187.9 32.3897 188.97 36.1397 190.58C39.1397 191.87 38.7497 192.25 38.7397 195.82C38.7397 203.02 41.1597 205.06 48.2597 203.88C50.1997 203.56 53.1697 202.74 55.1097 203.32C57.8197 204.14 56.9097 204.81 56.9797 207.08C57.1797 212.89 63.9797 211.25 66.8097 208.76C70.1097 205.9 74.2597 202.57 78.7397 202.13C80.5365 201.953 82.3472 202.278 83.9697 203.07C87.1097 204.59 89.7097 207.01 92.4997 209.07C95.2897 211.13 98.4997 213.07 101.96 213.16C105.42 213.25 109.21 211.1 109.84 207.67C109.88 207.064 110.032 206.47 110.29 205.92C110.636 205.48 111.118 205.167 111.66 205.028C112.202 204.888 112.775 204.931 113.29 205.15C114.299 205.607 115.261 206.163 116.16 206.81C119.69 208.89 124.16 208.42 128.16 207.81C131.53 207.32 135.79 205.81 135.78 202.42C135.78 200.2 133.78 198.55 132.3 196.94C130.82 195.33 129.52 192.74 130.92 191.01C131.454 190.47 132.124 190.086 132.86 189.9Z" fill="black"/>
    <path d="M64.75 135.09L86.61 178.43V158.49L88.84 106.66L92.07 158.49V171.9L116.07 129.9L92.07 181.46V325.7C92.0447 325.939 91.9575 326.167 91.8173 326.361C91.677 326.556 91.4883 326.711 91.27 326.81C90.6711 327.111 90.0102 327.268 89.34 327.268C88.6698 327.268 88.0089 327.111 87.41 326.81C87.1892 326.714 86.9984 326.56 86.8577 326.365C86.7169 326.17 86.6313 325.94 86.61 325.7V189.49L64.75 135.09Z" fill="#455A64"/>
    <path d="M407.56 142.52C401.56 139.05 396.06 138.92 392.13 141.52L384.48 146C379.76 148.22 376.83 153.87 376.97 162.1V165.45C377.2 179.26 396.89 217.45 399.33 222.16L398.89 222.63L399.42 222.33L399.58 222.63C399.58 222.63 400.05 222.23 400.85 221.5L407.56 217.63C407.56 217.63 429.22 199.78 429.22 185.11V181.76C429.22 167 419.52 149.43 407.56 142.52ZM398.56 160.03C401.745 162.038 404.413 164.767 406.348 167.996C408.283 171.226 409.432 174.865 409.7 178.62C409.713 179.404 409.656 180.187 409.53 180.96C408.836 180.716 408.167 180.408 407.53 180.04C404.384 177.981 401.769 175.21 399.896 171.95C398.023 168.69 396.945 165.035 396.75 161.28H396.69C396.694 160.61 396.751 159.941 396.86 159.28C397.438 159.483 398.003 159.724 398.55 160L398.56 160.03Z" fill="#92E3A9"/>
    <path opacity="0.2" d="M377 165.4C377.25 180.13 399.61 222.58 399.61 222.58C399.61 222.58 421 204.42 420.72 189.7V186.35C420.47 171.62 410.48 154.24 398.4 147.53C386.32 140.82 376.72 147.31 376.97 162.05L377 165.4ZM387.85 166.47C387.74 159.61 392.55 156.68 398.58 160.03C401.765 162.038 404.433 164.767 406.368 167.996C408.303 171.226 409.451 174.865 409.72 178.62C409.84 185.48 405.03 188.41 398.99 185.06C395.8 183.056 393.126 180.328 391.185 177.099C389.245 173.869 388.092 170.228 387.82 166.47H387.85Z" fill="black"/>
    <path d="M274.83 58.22L170.73 118.82C169.207 119.707 167.944 120.979 167.067 122.507C166.189 124.036 165.728 125.768 165.73 127.53V371.91C165.729 372.562 165.9 373.203 166.226 373.768C166.552 374.332 167.021 374.801 167.587 375.126C168.152 375.45 168.793 375.62 169.446 375.617C170.098 375.615 170.737 375.44 171.3 375.11L274.17 315.23C275.732 314.321 277.028 313.018 277.929 311.451C278.829 309.883 279.302 308.107 279.3 306.3V60.79C279.292 60.2701 279.149 59.7612 278.886 59.3132C278.622 58.8651 278.246 58.4933 277.796 58.2342C277.345 57.975 276.835 57.8375 276.315 57.835C275.795 57.8325 275.283 57.9652 274.83 58.22Z" fill="#455A64"/>
    <path d="M279.29 60.78V61.11C279.29 60.92 279.29 60.73 279.29 60.54C279.3 60.6197 279.3 60.7003 279.29 60.78Z" fill="#37474F"/>
    <path d="M271.72 92.9999L173.91 149.9C172.778 150.559 171.839 151.503 171.187 152.639C170.534 153.774 170.19 155.06 170.19 156.37V338.51C170.19 338.829 170.274 339.143 170.434 339.419C170.594 339.695 170.825 339.924 171.102 340.083C171.379 340.241 171.693 340.323 172.013 340.321C172.332 340.319 172.645 340.232 172.92 340.07L271.58 282.7C272.457 282.193 273.186 281.464 273.691 280.587C274.197 279.709 274.462 278.713 274.46 277.7V94.6099C274.467 94.2861 274.388 93.9663 274.23 93.6834C274.072 93.4006 273.842 93.1649 273.562 93.0008C273.283 92.8368 272.965 92.7502 272.641 92.75C272.317 92.7498 271.999 92.8361 271.72 92.9999Z" fill="white"/>
    <path d="M171.28 375.11C171.125 375.206 170.961 375.286 170.79 375.35C171 375.27 171.12 375.21 171.28 375.11Z" fill="#37474F"/>
    <path d="M279.23 60.1501C279.124 59.6958 278.914 59.2725 278.616 58.9137C278.318 58.555 277.94 58.2706 277.513 58.0833C277.086 57.8959 276.621 57.8107 276.155 57.8345C275.69 57.8582 275.236 57.9903 274.83 58.2201L170.74 118.82C169.223 119.711 167.964 120.982 167.087 122.507C166.21 124.033 165.746 125.761 165.74 127.52V371.91C165.742 372.514 165.892 373.108 166.175 373.641C166.459 374.174 166.868 374.63 167.367 374.969C167.866 375.309 168.44 375.522 169.04 375.59C169.64 375.658 170.247 375.579 170.81 375.36C165.04 378.2 157.56 373.49 157.56 373.49C155.605 372.467 153.973 370.921 152.844 369.025C151.716 367.128 151.137 364.956 151.17 362.75V118.37C151.173 116.609 151.636 114.879 152.513 113.351C153.39 111.823 154.65 110.551 156.17 109.66L260.26 49.0701C260.26 49.0701 264.51 46.3801 271.92 51.0701C271.92 51.0701 278.53 54.6001 279.23 60.1501Z" fill="#263238"/>
    <path d="M279.23 60.1501C279.124 59.6958 278.914 59.2725 278.616 58.9137C278.318 58.555 277.94 58.2706 277.513 58.0833C277.086 57.8959 276.621 57.8107 276.155 57.8345C275.69 57.8582 275.236 57.9903 274.83 58.2201L170.74 118.82C169.335 119.631 168.15 120.775 167.29 122.15L152.46 113.41C153.335 111.855 154.609 110.56 156.15 109.66L260.26 49.0701C260.26 49.0701 264.51 46.3801 271.92 51.0701C271.92 51.0701 278.53 54.6001 279.23 60.1501Z" fill="#37474F"/>
    <path d="M208.8 118.61C208.677 119.871 208.259 121.086 207.58 122.156C206.901 123.227 205.979 124.122 204.89 124.77C202.73 126.02 200.98 125.28 200.98 123.12C201.104 121.858 201.523 120.642 202.202 119.571C202.881 118.499 203.802 117.602 204.89 116.95C207.05 115.71 208.8 116.45 208.8 118.61Z" fill="#37474F"/>
    <path d="M229.35 325.57C229.35 329.46 226.2 334.42 222.35 336.67C218.5 338.92 215.35 337.58 215.35 333.67C215.35 329.76 218.5 324.82 222.35 322.58C226.2 320.34 229.35 321.69 229.35 325.57Z" fill="#37474F"/>
    <path d="M154.75 160.29C154.855 161.383 155.216 162.435 155.803 163.363C156.39 164.291 157.187 165.067 158.13 165.63C160 166.71 161.52 166.07 161.52 164.2C161.414 163.106 161.051 162.053 160.463 161.125C159.874 160.197 159.075 159.421 158.13 158.86C156.26 157.78 154.75 158.42 154.75 160.29Z" fill="#455A64"/>
    <path d="M154.75 183.11C154.855 184.203 155.216 185.256 155.803 186.183C156.39 187.111 157.187 187.887 158.13 188.45C160 189.53 161.52 188.89 161.52 187.02C161.414 185.926 161.051 184.873 160.463 183.945C159.874 183.018 159.075 182.242 158.13 181.68C156.26 180.6 154.75 181.24 154.75 183.11Z" fill="#455A64"/>
    <path d="M224.12 98.5401C224.064 99.1253 223.87 99.689 223.556 100.186C223.242 100.683 222.815 101.099 222.31 101.4C221.31 101.98 220.5 101.64 220.5 100.64C220.558 100.055 220.752 99.4921 221.066 98.9955C221.38 98.4989 221.806 98.0827 222.31 97.7801C223.31 97.2001 224.12 97.5401 224.12 98.5401Z" fill="#37474F"/>
    <path d="M216.4 117.11L240.78 102.92C241.424 102.543 241.959 102.004 242.331 101.357C242.703 100.71 242.899 99.9765 242.9 99.23C242.901 98.8983 242.815 98.5722 242.649 98.2848C242.484 97.9973 242.245 97.7587 241.958 97.5932C241.671 97.4277 241.344 97.3411 241.013 97.3423C240.681 97.3435 240.356 97.4324 240.07 97.6L215.68 111.79C215.035 112.167 214.5 112.706 214.128 113.353C213.757 114 213.56 114.733 213.56 115.48C213.56 115.812 213.648 116.138 213.815 116.425C213.982 116.712 214.221 116.95 214.509 117.115C214.797 117.281 215.123 117.367 215.455 117.366C215.787 117.365 216.113 117.277 216.4 117.11Z" fill="#37474F"/>
    <path d="M198.59 135.55V180.7C198.592 182.733 197.921 184.71 196.68 186.32L170.2 220.91V156.37C170.196 155.061 170.537 153.774 171.188 152.638C171.839 151.503 172.778 150.558 173.91 149.9L198.59 135.55Z" fill="#E0E0E0"/>
    <path d="M207.87 180.38L237 163.48C237.934 162.934 238.709 162.152 239.247 161.214C239.786 160.275 240.07 159.212 240.07 158.13V111.46L205.13 131.78V178.78C205.134 179.099 205.22 179.413 205.381 179.689C205.541 179.965 205.771 180.195 206.047 180.356C206.323 180.517 206.636 180.604 206.955 180.608C207.275 180.612 207.59 180.534 207.87 180.38Z" fill="#E0E0E0"/>
    <path d="M240 172.48V199.41C239.999 199.973 239.85 200.525 239.569 201.013C239.289 201.5 238.886 201.906 238.4 202.19L219.9 213C219.477 213.249 219.126 213.604 218.882 214.03C218.638 214.457 218.51 214.939 218.51 215.43V232.95C218.507 233.543 218.35 234.125 218.054 234.639C217.758 235.153 217.332 235.581 216.82 235.88L206.61 241.81C206.456 241.907 206.278 241.959 206.096 241.962C205.913 241.965 205.734 241.919 205.576 241.827C205.419 241.735 205.289 241.602 205.202 241.443C205.114 241.283 205.072 241.102 205.08 240.92V193C205.079 192.254 205.274 191.522 205.646 190.875C206.018 190.229 206.554 189.693 207.2 189.32L238 171.34C238.201 171.219 238.43 171.154 238.665 171.151C238.899 171.149 239.13 171.208 239.334 171.325C239.537 171.441 239.706 171.609 239.824 171.812C239.941 172.015 240.002 172.246 240 172.48Z" fill="#E0E0E0"/>
    <path d="M223.55 215.45L238.92 206.5C239.032 206.435 239.16 206.401 239.29 206.401C239.42 206.401 239.547 206.435 239.66 206.5C239.772 206.565 239.866 206.658 239.931 206.77C239.996 206.883 240.03 207.01 240.03 207.14V220.82C240.03 221.284 239.908 221.739 239.676 222.141C239.444 222.543 239.111 222.877 238.71 223.11L223.71 231.84C223.589 231.908 223.452 231.943 223.314 231.942C223.175 231.94 223.039 231.903 222.919 231.834C222.799 231.764 222.699 231.664 222.629 231.545C222.559 231.425 222.522 231.289 222.52 231.15V217.28C222.518 216.912 222.612 216.549 222.793 216.229C222.973 215.908 223.234 215.639 223.55 215.45Z" fill="#E0E0E0"/>
    <path d="M223.55 241.76L238.92 232.81C239.031 232.746 239.158 232.711 239.287 232.711C239.416 232.71 239.543 232.744 239.655 232.807C239.767 232.871 239.861 232.963 239.926 233.074C239.992 233.185 240.028 233.311 240.03 233.44V247.12C240.031 247.584 239.91 248.041 239.678 248.443C239.446 248.845 239.112 249.179 238.71 249.41L223.71 258.14C223.589 258.211 223.452 258.249 223.312 258.249C223.172 258.249 223.034 258.213 222.913 258.142C222.792 258.072 222.692 257.971 222.623 257.849C222.554 257.728 222.518 257.59 222.52 257.45V243.59C222.517 243.222 222.61 242.859 222.791 242.538C222.971 242.217 223.233 241.949 223.55 241.76Z" fill="#E0E0E0"/>
    <path d="M223.55 262.72L238.92 253.72C239.032 253.655 239.16 253.621 239.289 253.621C239.419 253.621 239.547 253.655 239.659 253.72C239.772 253.785 239.865 253.878 239.93 253.991C239.995 254.103 240.029 254.23 240.03 254.36V276.36C240.029 276.824 239.907 277.28 239.675 277.682C239.444 278.083 239.111 278.417 238.71 278.65L223.71 287.38C223.589 287.451 223.452 287.489 223.312 287.489C223.172 287.489 223.034 287.453 222.913 287.382C222.792 287.312 222.692 287.211 222.623 287.09C222.554 286.968 222.518 286.83 222.52 286.69V264.55C222.518 264.182 222.611 263.82 222.792 263.499C222.973 263.178 223.234 262.91 223.55 262.72Z" fill="#E0E0E0"/>
    <path d="M243.82 286.72V298.85L207.49 320V307.62C207.49 306.919 207.676 306.23 208.027 305.622C208.378 305.015 208.882 304.511 209.49 304.16L242.3 285.85C242.453 285.757 242.627 285.707 242.806 285.704C242.985 285.702 243.161 285.747 243.317 285.836C243.472 285.925 243.6 286.054 243.689 286.209C243.777 286.365 243.823 286.541 243.82 286.72Z" fill="#E0E0E0"/>
    <path d="M198.59 197.88V255.17C198.588 256.001 198.368 256.817 197.952 257.536C197.536 258.256 196.939 258.854 196.22 259.27L170.22 274.4V232.58L197.22 197.39C197.327 197.28 197.463 197.204 197.612 197.169C197.762 197.134 197.918 197.144 198.062 197.195C198.206 197.247 198.333 197.339 198.426 197.46C198.52 197.582 198.577 197.727 198.59 197.88Z" fill="#E0E0E0"/>
    <path d="M274.47 94.6101V121.61L249.24 136C249.02 136.127 248.772 136.193 248.519 136.193C248.266 136.193 248.017 136.126 247.798 135.999C247.579 135.873 247.398 135.69 247.271 135.471C247.145 135.252 247.079 135.003 247.08 134.75V107.35L271.72 93.0001C272 92.8372 272.318 92.7515 272.642 92.752C272.966 92.7524 273.285 92.8389 273.564 93.0027C273.844 93.1665 274.075 93.4016 274.234 93.684C274.393 93.9664 274.475 94.2861 274.47 94.6101Z" fill="#E0E0E0"/>
    <path d="M274.47 138.41V202.29L248.67 217.29C248.509 217.383 248.327 217.432 248.142 217.432C247.956 217.433 247.774 217.384 247.613 217.292C247.452 217.2 247.318 217.067 247.225 216.907C247.131 216.747 247.081 216.566 247.08 216.38V167.45C247.08 166.602 247.252 165.762 247.586 164.982C247.919 164.202 248.407 163.497 249.02 162.91L274.47 138.41Z" fill="#E0E0E0"/>
    <path d="M274.46 125.38L248.46 141.45C248.035 141.711 247.684 142.078 247.44 142.514C247.197 142.95 247.069 143.441 247.07 143.94V154.22C247.068 154.392 247.117 154.561 247.211 154.705C247.306 154.85 247.441 154.963 247.599 155.03C247.758 155.098 247.933 155.116 248.102 155.084C248.271 155.052 248.427 154.971 248.55 154.85L274.46 130.22V125.38Z" fill="#E0E0E0"/>
    <path d="M218.51 246.85V288C218.51 288.727 218.318 289.442 217.955 290.072C217.592 290.702 217.069 291.226 216.44 291.59L184.77 310C184.618 310.088 184.445 310.134 184.269 310.134C184.093 310.134 183.92 310.087 183.768 309.999C183.616 309.911 183.49 309.784 183.403 309.632C183.315 309.479 183.269 309.306 183.27 309.13V277.34C183.27 276.873 183.392 276.415 183.623 276.01C183.855 275.605 184.188 275.267 184.59 275.03L203.75 263.86C204.155 263.626 204.492 263.289 204.725 262.884C204.959 262.478 205.081 262.018 205.08 261.55V253.87C205.079 253.387 205.205 252.911 205.446 252.492C205.686 252.073 206.032 251.724 206.45 251.48L216.45 245.67C216.657 245.546 216.894 245.479 217.136 245.476C217.378 245.474 217.616 245.536 217.826 245.656C218.036 245.776 218.21 245.95 218.33 246.16C218.45 246.37 218.513 246.608 218.51 246.85Z" fill="#E0E0E0"/>
    <path d="M200.57 311.87V324L172.91 340.08C172.634 340.238 172.321 340.321 172.003 340.32C171.685 340.319 171.373 340.234 171.098 340.073C170.823 339.913 170.596 339.684 170.438 339.407C170.28 339.131 170.198 338.818 170.2 338.5V283.42L173.69 281.42C173.841 281.338 174.011 281.295 174.183 281.297C174.355 281.3 174.523 281.346 174.672 281.433C174.821 281.519 174.945 281.643 175.032 281.791C175.119 281.94 175.167 282.108 175.17 282.28V320.81C175.17 321.071 175.238 321.328 175.368 321.555C175.498 321.782 175.685 321.971 175.91 322.103C176.135 322.236 176.391 322.307 176.653 322.31C176.914 322.313 177.171 322.247 177.4 322.12L198.2 310.52C198.439 310.385 198.709 310.315 198.984 310.315C199.259 310.316 199.528 310.388 199.767 310.524C200.006 310.66 200.205 310.855 200.346 311.091C200.486 311.327 200.564 311.596 200.57 311.87Z" fill="#E0E0E0"/>
    <path d="M274.47 212.11V275.36L251.21 289C250.954 289.152 250.663 289.234 250.366 289.237C250.068 289.239 249.775 289.163 249.517 289.016C249.259 288.868 249.044 288.655 248.895 288.397C248.747 288.14 248.669 287.847 248.67 287.55V229.64C248.673 228.88 248.873 228.133 249.252 227.474C249.631 226.815 250.175 226.265 250.83 225.88L274.47 212.11Z" fill="#E0E0E0"/>
    <path d="M179.71 315.87H178.71V275.26C178.713 274.72 178.853 274.19 179.117 273.72C179.381 273.249 179.761 272.853 180.22 272.57L201 260.07C201.302 259.885 201.552 259.627 201.727 259.319C201.902 259.011 201.996 258.664 202 258.31V189.53C202.002 188.83 202.188 188.143 202.539 187.538C202.89 186.933 203.394 186.43 204 186.08L241.26 163.72C241.917 163.324 242.46 162.765 242.839 162.098C243.217 161.43 243.417 160.677 243.42 159.91V139.48H244.42V159.91C244.416 160.849 244.17 161.771 243.706 162.588C243.242 163.404 242.575 164.087 241.77 164.57L204.52 186.93C204.069 187.197 203.696 187.578 203.438 188.034C203.18 188.49 203.047 189.006 203.05 189.53V258.31C203.047 258.837 202.909 259.354 202.65 259.812C202.391 260.271 202.019 260.656 201.57 260.93L180.84 273.43C180.53 273.624 180.276 273.894 180.101 274.214C179.926 274.535 179.836 274.895 179.84 275.26L179.71 315.87Z" fill="#92E3A9"/>
    <path opacity="0.4" d="M179.71 315.87H178.71V275.26C178.713 274.72 178.853 274.19 179.117 273.72C179.381 273.249 179.761 272.853 180.22 272.57L201 260.07C201.302 259.885 201.552 259.627 201.727 259.319C201.902 259.011 201.996 258.664 202 258.31V189.53C202.002 188.83 202.188 188.143 202.539 187.538C202.89 186.933 203.394 186.43 204 186.08L241.26 163.72C241.917 163.324 242.46 162.765 242.839 162.098C243.217 161.43 243.417 160.677 243.42 159.91V139.48H244.42V159.91C244.416 160.849 244.17 161.771 243.706 162.588C243.242 163.404 242.575 164.087 241.77 164.57L204.52 186.93C204.069 187.197 203.696 187.578 203.438 188.034C203.18 188.49 203.047 189.006 203.05 189.53V258.31C203.047 258.837 202.909 259.354 202.65 259.812C202.391 260.271 202.019 260.656 201.57 260.93L180.84 273.43C180.53 273.624 180.276 273.894 180.101 274.214C179.926 274.535 179.836 274.895 179.84 275.26L179.71 315.87Z" fill="black"/>
    <path d="M181.91 314C181.824 314.873 181.536 315.714 181.067 316.456C180.598 317.197 179.962 317.819 179.21 318.27C177.71 319.13 176.5 318.62 176.5 317.12C176.586 316.247 176.876 315.407 177.347 314.667C177.817 313.927 178.456 313.308 179.21 312.86C180.7 312 181.91 312.51 181.91 314Z" fill="#92E3A9"/>
    <path d="M246.43 137.92C246.343 138.793 246.054 139.633 245.585 140.374C245.116 141.116 244.481 141.737 243.73 142.19C242.23 143.05 241.02 142.54 241.02 141.04C241.106 140.167 241.396 139.327 241.867 138.587C242.337 137.847 242.976 137.228 243.73 136.78C245.22 135.92 246.43 136.43 246.43 137.92Z" fill="#92E3A9"/>
    <path d="M252.37 122.26C253.497 120.573 254.234 118.657 254.53 116.65C255.1 111.78 251.34 109.65 246.15 111.91C240.96 114.17 236.27 119.91 235.7 124.8C235.561 125.534 235.578 126.289 235.75 127.016C235.923 127.743 236.246 128.426 236.7 129.02L236.76 129.07C236.916 129.245 237.09 129.402 237.28 129.54L242.72 134.45C243.08 134.77 243.89 134.45 244.36 133.74L251.53 123.41C251.82 123.03 252.09 122.65 252.34 122.26H252.37ZM245.64 116.26C248.26 115.12 250.15 116.19 249.87 118.65C249.59 121.11 247.23 124.02 244.61 125.15C241.99 126.28 240.1 125.22 240.38 122.76C240.66 120.3 243 117.41 245.64 116.28V116.26Z" fill="#92E3A9"/>
    <path d="M220.47 249.36L210.47 255.12C210.198 255.274 209.972 255.499 209.816 255.769C209.659 256.04 209.578 256.347 209.58 256.66V267.74C209.579 267.812 209.598 267.882 209.633 267.944C209.668 268.007 209.72 268.059 209.781 268.095C209.843 268.131 209.913 268.151 209.985 268.152C210.056 268.153 210.127 268.135 210.19 268.1L213.59 266.1L214.77 268.1C214.784 268.127 214.806 268.15 214.832 268.166C214.859 268.182 214.889 268.19 214.92 268.19C214.95 268.19 214.981 268.182 215.007 268.166C215.033 268.15 215.055 268.127 215.07 268.1L216.15 264.68L220.15 262.4C220.477 262.209 220.748 261.936 220.937 261.608C221.127 261.28 221.228 260.909 221.23 260.53V249.78C221.235 249.689 221.215 249.598 221.172 249.519C221.128 249.439 221.062 249.373 220.983 249.329C220.903 249.285 220.813 249.264 220.722 249.27C220.631 249.275 220.543 249.307 220.47 249.36Z" fill="#92E3A9"/>
    <path d="M212.72 261V262.17L212.1 262.52V261.36L210.8 259.96L211.46 259.58L212.46 260.63L213.46 258.45L214.06 258.1L212.72 261Z" fill="white"/>
    <path d="M214.52 261C214.431 261.011 214.341 261 214.258 260.968C214.174 260.937 214.1 260.886 214.04 260.82C213.913 260.659 213.852 260.455 213.87 260.25C213.869 259.984 213.927 259.721 214.04 259.48C214.156 259.208 214.319 258.958 214.52 258.74C214.721 258.52 214.953 258.332 215.21 258.18C215.421 258.046 215.661 257.964 215.91 257.94C215.998 257.936 216.086 257.95 216.168 257.981C216.251 258.012 216.326 258.059 216.39 258.12C216.512 258.284 216.573 258.486 216.56 258.69C216.555 258.956 216.497 259.217 216.39 259.46C216.144 260.01 215.731 260.468 215.21 260.77C215.005 260.908 214.766 260.987 214.52 261ZM215.75 259.73C215.907 259.519 215.994 259.264 216 259C216 258.76 215.93 258.61 215.79 258.55C215.699 258.52 215.603 258.513 215.509 258.529C215.415 258.544 215.326 258.583 215.25 258.64C215.028 258.768 214.842 258.951 214.71 259.17C214.577 259.376 214.504 259.615 214.5 259.86C214.5 260.1 214.57 260.25 214.71 260.32C214.801 260.348 214.898 260.353 214.992 260.336C215.086 260.318 215.174 260.279 215.25 260.22C215.458 260.092 215.63 259.913 215.75 259.7V259.73Z" fill="white"/>
    <path d="M219.58 255.66V258.19L219.02 258.51V258.19C218.918 258.36 218.797 258.517 218.66 258.66C218.525 258.799 218.37 258.917 218.2 259.01C218.089 259.099 217.959 259.161 217.821 259.192C217.682 259.223 217.538 259.223 217.4 259.19C217.21 259.12 217.11 258.89 217.11 258.53V257.08L217.7 256.74V258.1C217.7 258.33 217.75 258.47 217.86 258.52C217.97 258.57 218.11 258.52 218.3 258.44C218.506 258.323 218.678 258.154 218.8 257.95C218.923 257.748 218.989 257.517 218.99 257.28V256L219.58 255.66Z" fill="white"/>
    <path d="M358.66 385.58C358.968 386.116 359.13 386.723 359.13 387.34C359.265 389.204 359.265 391.076 359.13 392.94C358.96 393.8 357.13 395.05 354.8 394.79C352.47 394.53 350.91 392.79 349.8 391.02C348.69 389.25 343.66 383.28 342.75 381.83C341.84 380.38 340.42 376.53 342.19 374.95C343.68 373.62 349.26 376.66 350.75 378.34C352.24 380.02 358.66 385.58 358.66 385.58Z" fill="#263238"/>
    <path d="M334.91 403.22C335.441 404.072 335.81 405.014 336 406C336.36 407.61 336.94 411.47 336.64 412.63C336.49 413.19 334.49 414.63 332.52 414.73C331.35 414.79 329.94 414.84 328.8 414.88C327.957 414.899 327.129 415.111 326.38 415.5C324.335 416.556 322.235 417.504 320.09 418.34C316.35 419.77 311.44 420.34 309.09 419.83C306.74 419.32 303.95 417.83 302.83 416.37C302.602 416.001 302.491 415.571 302.511 415.138C302.53 414.705 302.68 414.287 302.94 413.94C305.83 411.53 310.63 410.34 313.6 409.11C317.628 407.36 321.499 405.269 325.17 402.86C325.9 402.3 334.91 403.22 334.91 403.22Z" fill="#263238"/>
    <path d="M334.91 397.73V403.22C334.305 403.938 333.547 404.512 332.693 404.903C331.839 405.294 330.909 405.491 329.97 405.48C329.001 405.581 328.024 405.387 327.168 404.923C326.311 404.459 325.615 403.747 325.17 402.88C325.314 401.167 325.358 399.448 325.3 397.73H334.91Z" fill="#FFA8A7"/>
    <path d="M358.66 382.27V385.58C358.66 385.58 358.17 387.32 354.85 387.43C353.386 387.513 351.941 387.066 350.78 386.17L350.09 381.3L358.66 382.27Z" fill="#FFA8A7"/>
    <path d="M314.56 280.81C314.56 280.81 315.73 333.21 317.25 342.81C318.3 349.38 325.25 399.15 325.25 399.15C326.767 399.946 328.457 400.355 330.17 400.341C331.883 400.327 333.566 399.891 335.07 399.07C335.07 399.07 335.07 397.32 335.31 394.47C335.55 391.62 337.72 367.31 337.5 358.17C337.419 352.866 336.376 347.621 334.42 342.69L337.5 297.51L338.93 297.69C338.93 297.69 338.86 302.51 339.46 311.07C339.46 311.07 340.6 328.32 341 331.71C341.76 338.03 346 361.04 347.24 367.14C348.36 372.61 350.18 382.71 350.18 382.71C352.85 385.37 358.67 383.27 358.67 383.27C358.67 383.27 358.96 376.41 359.26 372.22C359.56 368.03 360.84 349.22 360.33 344.28C359.62 337.4 356.81 330.78 357.06 329.03C358.52 318.9 358.66 275.78 358.66 275.78L314.56 280.81Z" fill="#92E3A9"/>
    <path opacity="0.4" d="M314.56 280.81C314.56 280.81 315.73 333.21 317.25 342.81C318.3 349.38 325.25 399.15 325.25 399.15C326.767 399.946 328.457 400.355 330.17 400.341C331.883 400.327 333.566 399.891 335.07 399.07C335.07 399.07 335.07 397.32 335.31 394.47C335.55 391.62 337.72 367.31 337.5 358.17C337.419 352.866 336.376 347.621 334.42 342.69L337.5 297.51L338.93 297.69C338.93 297.69 338.86 302.51 339.46 311.07C339.46 311.07 340.6 328.32 341 331.71C341.76 338.03 346 361.04 347.24 367.14C348.36 372.61 350.18 382.71 350.18 382.71C352.85 385.37 358.67 383.27 358.67 383.27C358.67 383.27 358.96 376.41 359.26 372.22C359.56 368.03 360.84 349.22 360.33 344.28C359.62 337.4 356.81 330.78 357.06 329.03C358.52 318.9 358.66 275.78 358.66 275.78L314.56 280.81Z" fill="black"/>
    <path opacity="0.4" d="M337.5 297.46L338.93 297.65C338.93 297.65 338.85 302.77 339.49 311.87C339.49 311.87 339.77 316.21 340.11 321.07L342.45 297.9C346.801 295.35 350.594 291.949 353.6 287.9C344.1 295.18 337.5 297.43 337.5 297.43V297.46Z" fill="black"/>
    <path d="M361.23 218.62C359.857 216.739 357.925 215.339 355.71 214.62L357.47 267.95C357.47 267.95 370.47 262.15 370.87 258.71C371.26 255.63 363.64 222 361.23 218.62Z" fill="#37474F"/>
    <path d="M317.7 189.7C317.64 187.49 317.64 184.7 317.7 183.64C317.96 179.69 319.14 178.12 319.14 178.12C323.97 171.81 341.67 173.23 342.93 176.78C344.19 180.33 346.65 199.71 341.19 203.17C341.75 206.17 343.32 213.59 343.32 213.59C338.91 217.59 329.67 216.32 329.67 216.32C329.94 214.97 328.67 209.56 328.03 206.81C324.25 207.26 320.96 207.21 319.89 206.41C319.808 206.35 319.734 206.28 319.67 206.2C318.85 205.03 318.27 200.58 317.95 195.2C316.95 195.33 315.4 195.46 315.2 195.07C315 194.68 316.77 191.34 317.7 189.7Z" fill="#FFA8A7"/>
    <path d="M327.82 190.06C327.82 190.06 327.32 186.59 330.82 186.26C334.32 185.93 336.46 190.38 334.75 193.63C333.04 196.88 330.82 197.09 330.82 197.09C330.595 199.238 330.595 201.403 330.82 203.55C330.911 204.146 331.218 204.688 331.683 205.072C332.148 205.455 332.738 205.654 333.34 205.63C335.84 205.56 340.34 205.19 343.66 203.57C348.51 201.2 351.82 196.29 353.66 189.31C355.5 182.33 355.79 175.77 350.66 175.53C350.66 175.53 350.61 173.58 353.49 172.81C353.49 172.81 350.28 171.34 348.9 174.02C348.742 172.493 348.138 171.047 347.164 169.86C346.189 168.674 344.887 167.801 343.42 167.35C338.3 165.82 331.95 168.1 326.42 169.35C320.89 170.6 313.62 169.94 312.99 170.73C312.36 171.52 309.65 186.99 324.99 186.27C324.94 186.24 325.65 190 327.82 190.06Z" fill="#263238"/>
    <path d="M319.89 206.41C320.96 207.21 324.25 207.26 328.03 206.81C328.838 206.301 329.521 205.618 330.03 204.81C329.75 204.91 323.72 207.52 319.89 206.41Z" fill="#F28F8F"/>
    <path d="M314.44 244.29V281C314.44 281 327.54 286.16 339.96 284.33C352.38 282.5 358.96 275.59 358.96 275.59C358.96 275.59 359.51 227.17 358.62 221.29C357.73 215.41 353.76 212.62 350.72 211.95C347.68 211.28 343.13 212.54 343.13 212.54C339.082 214.745 334.503 215.783 329.9 215.54C326.41 216.7 322.59 218.54 319.4 219.74C310.31 223.29 314.44 244.29 314.44 244.29Z" fill="#92E3A9"/>
    <path opacity="0.4" d="M314.44 244.29V281C314.44 281 327.54 286.16 339.96 284.33C352.38 282.5 358.96 275.59 358.96 275.59C358.96 275.59 359.51 227.17 358.62 221.29C357.73 215.41 353.76 212.62 350.72 211.95C347.68 211.28 343.13 212.54 343.13 212.54C339.082 214.745 334.503 215.783 329.9 215.54C326.41 216.7 322.59 218.54 319.4 219.74C310.31 223.29 314.44 244.29 314.44 244.29Z" fill="white"/>
    <path d="M290.3 241.82L281.93 216.67L295.25 209.26L296.31 209.51L303.61 234.41L290.3 241.82Z" fill="#37474F"/>
    <path d="M291.36 242.07L282.99 216.92L296.31 209.51L304.68 234.66L291.36 242.07Z" fill="#455A64"/>
    <path d="M291.65 239.5L284.75 218.74L296.22 212.29L303.12 233.05L291.65 239.5Z" fill="white"/>
    <path d="M284.28 222.88C284.28 222.88 284.92 222.38 285.22 224.17C285.52 225.96 287.22 232.28 290.22 234.31C290.22 234.31 290.89 234.59 290.91 233.99C290.929 232.595 291.155 231.21 291.58 229.88C292.18 228.32 293.76 227.26 294.5 227.53C295.24 227.8 294.43 230.65 294.5 231.74C294.57 232.83 296.04 235.35 296.11 236.52C296.18 237.69 295.99 238.52 296.11 239.07C297.189 240.516 298.355 241.895 299.6 243.2L293.09 251.44C293.09 251.44 288.86 245.82 287.77 244.71C286.68 243.6 284.77 241.42 284.23 239.44C283.468 236.655 282.913 233.817 282.57 230.95C282.57 229.24 282.55 223.42 284.28 222.88Z" fill="#FFA8A7"/>
    <path d="M322 218.67L326.26 218.08C326.26 218.08 329.63 218.27 328.83 228.37C328.03 238.47 317.98 265.79 315.47 269.11C312.1 273.57 308.24 270.86 307.47 269.83C306.7 268.8 298.31 259.36 293.21 251.44C293.21 251.44 294.4 243.97 300.14 243.12L306.8 250C306.8 250 308.86 242.29 311.02 234C313 226.56 315 220.25 322 218.67Z" fill="#37474F"/>
</svg>
