<svg width="26" height="26" viewBox="0 0 26 26" fill="none" xmlns="http://www.w3.org/2000/svg">
    <path d="M25.7741 1.47678C25.7741 1.46944 25.7741 1.46211 25.7658 1.45477C25.7658 1.44744 25.7576 1.43277 25.7576 1.42543C25.7576 1.4181 25.7493 1.41076 25.7493 1.40343C25.7493 1.39609 25.7411 1.38142 25.7411 1.37409C25.7411 1.36675 25.7328 1.35942 25.7328 1.35208C25.7328 1.34475 25.7246 1.33741 25.7163 1.32274C25.7163 1.31541 25.7081 1.30807 25.7081 1.30074C25.6998 1.2934 25.6998 1.28607 25.6916 1.27873C25.6833 1.2714 25.6833 1.26406 25.675 1.25673C25.6668 1.24939 25.6668 1.24206 25.6585 1.23472C25.6503 1.22739 25.642 1.22005 25.642 1.21272C25.6338 1.20538 25.6338 1.19805 25.6255 1.19071C25.6173 1.18338 25.609 1.17604 25.6008 1.16871C25.5925 1.16137 25.5843 1.15404 25.576 1.1467C25.5678 1.13937 25.5595 1.13203 25.5513 1.13203C25.543 1.1247 25.5348 1.11736 25.5265 1.11003C25.5183 1.11003 25.5183 1.10269 25.51 1.10269C25.51 1.10269 25.5018 1.10269 25.5018 1.09536C25.4935 1.08802 25.4853 1.08069 25.4688 1.08069C25.4605 1.07335 25.4522 1.07335 25.444 1.06602C25.4357 1.05868 25.4192 1.05868 25.411 1.05135C25.4027 1.05135 25.3945 1.04401 25.3862 1.04401C25.378 1.03668 25.3697 1.03668 25.3532 1.03668C25.345 1.03668 25.3367 1.02934 25.3285 1.02934C25.3202 1.02934 25.312 1.022 25.3037 1.022C25.2955 1.022 25.279 1.01467 25.2707 1.01467C25.2625 1.01467 25.2542 1.01467 25.2459 1.00733C25.2377 1.00733 25.2212 1.00734 25.2129 1C25.2047 1 25.1964 1 25.1882 1C25.1799 1 25.1634 1 25.1552 1H25.1469H0.844922H0.83667C0.828418 1 0.811914 1 0.803662 1C0.79541 1 0.787158 1 0.778907 1C0.770655 1 0.754151 1 0.745899 1.00733C0.737647 1.00733 0.729394 1.00733 0.721142 1.01467C0.712891 1.01467 0.704639 1.022 0.688135 1.022C0.679883 1.022 0.671631 1.02934 0.663379 1.02934C0.655127 1.02934 0.646875 1.03668 0.638623 1.03668C0.630371 1.03668 0.613868 1.04401 0.605616 1.04401C0.597364 1.04401 0.589111 1.05135 0.58086 1.05135C0.572608 1.05868 0.556104 1.05868 0.547852 1.06602C0.5396 1.06602 0.531348 1.07335 0.523096 1.08069C0.514844 1.08802 0.49834 1.09536 0.490088 1.09536C0.490088 1.09536 0.481836 1.09536 0.481836 1.10269C0.473584 1.10269 0.473584 1.11003 0.465332 1.11003C0.45708 1.11736 0.448829 1.1247 0.440577 1.13203C0.432325 1.13937 0.424072 1.1467 0.41582 1.1467C0.407568 1.15404 0.399316 1.16137 0.391064 1.16871C0.382812 1.17604 0.374561 1.18338 0.366309 1.19071C0.358057 1.19805 0.358057 1.20538 0.349805 1.21272C0.341553 1.22005 0.333301 1.22739 0.333301 1.23472C0.325049 1.24206 0.325049 1.24939 0.316797 1.25673C0.308545 1.26406 0.308545 1.2714 0.300293 1.27873C0.292041 1.28607 0.292041 1.2934 0.283789 1.30074C0.275537 1.30807 0.275537 1.31541 0.275537 1.32274C0.267286 1.33008 0.267285 1.33741 0.259033 1.35208C0.259033 1.35942 0.250781 1.36675 0.250781 1.37409C0.250781 1.38142 0.24253 1.39609 0.24253 1.40343C0.24253 1.41076 0.234278 1.4181 0.234278 1.42543C0.234278 1.43277 0.226025 1.44744 0.226025 1.45477C0.226025 1.46211 0.226025 1.46944 0.217773 1.47678C0.217773 1.48411 0.217773 1.49145 0.217773 1.50612C0.217773 1.51345 0.217773 1.52812 0.217773 1.53546C0.217773 1.54279 0.217773 1.5428 0.217773 1.55013V24.4502C0.217773 24.751 0.49834 25.0003 0.83667 25.0003H25.1552C25.4935 25.0003 25.7741 24.751 25.7741 24.4502V1.55013C25.7741 1.5428 25.7741 1.54279 25.7741 1.53546C25.7741 1.52812 25.7741 1.51345 25.7741 1.50612C25.7741 1.49878 25.7741 1.48411 25.7741 1.47678ZM11.9521 8.83385V7.9023H14.0398V8.83385H11.9521ZM14.6669 6.80204H11.3414H5.89512L2.06621 2.10026H23.9586L20.1297 6.80204H14.6669ZM1.46382 3.24453L5.06992 7.67491C5.18545 7.81428 5.37524 7.9023 5.57329 7.9023H10.7225V9.38398C10.7225 9.68472 11.0031 9.93411 11.3414 9.93411H12.3894V23.9001H1.46382V3.24453ZM13.6189 23.9001V9.93411H14.6669C15.0053 9.93411 15.2858 9.68472 15.2858 9.38398V7.9023H20.4268C20.6249 7.9023 20.8146 7.81428 20.9302 7.67491L24.5363 3.24453V23.9001H13.6189Z" fill="#0ABD19"/>
    <path d="M8.65098 17.3125H3.26245C2.92412 17.3125 2.64355 17.5619 2.64355 17.8626V21.6255C2.64355 21.9263 2.92412 22.1757 3.26245 22.1757H8.65098C8.98931 22.1757 9.26987 21.9263 9.26987 21.6255V17.8626C9.26987 17.5619 8.99756 17.3125 8.65098 17.3125ZM8.03208 21.0827H3.88135V18.4201H8.03208V21.0827Z" fill="#0ABD19"/>
</svg>
