<svg width="26" height="24" viewBox="0 0 26 24" fill="none" xmlns="http://www.w3.org/2000/svg">
    <g clip-path="url(#clip0_397_588)">
        <mask id="mask0_397_588" style="mask-type:luminance" maskUnits="userSpaceOnUse" x="0" y="0" width="26" height="24">
            <path d="M26 0H0V23.92H26V0Z" fill="white"/>
        </mask>
        <g mask="url(#mask0_397_588)">
            <path d="M21.3941 14.041C21.2455 14.041 21.1043 14.1004 21.0003 14.2044C20.8963 14.3084 20.8369 14.4496 20.8369 14.5982C20.8369 14.7467 20.8963 14.8879 21.0003 14.9919C21.1043 15.0959 21.2455 15.1553 21.3941 15.1553C21.5426 15.1553 21.6838 15.0959 21.7878 14.9919C21.8918 14.8879 21.9512 14.7467 21.9512 14.5982C21.9512 14.4496 21.8918 14.3084 21.7878 14.2044C21.6838 14.1004 21.5352 14.041 21.3941 14.041Z" fill="#0ABD19"/>
            <path d="M24.5962 12.1167H23.1922V6.26302C23.1922 5.95845 22.9396 5.70588 22.635 5.70588H19.8642V1.85045C19.8642 1.54588 19.6116 1.29331 19.307 1.29331H11.8265V0.609877C11.8265 0.305306 11.5739 0.0527344 11.2693 0.0527344H3.22418C2.91961 0.0527344 2.66704 0.305306 2.66704 0.609877V5.70588H0.787612C0.48304 5.70588 0.230469 5.95845 0.230469 6.26302V23.1705C0.230469 23.475 0.48304 23.7276 0.787612 23.7276H22.6425C22.947 23.7276 23.1996 23.475 23.1996 23.1705V17.3167H24.6036C25.2499 17.3167 25.7773 16.7893 25.7773 16.143V13.2979C25.7699 12.6442 25.2425 12.1167 24.5962 12.1167ZM18.7499 2.40759V5.70588H17.6728V4.38359C17.6728 4.07902 17.4128 3.82645 17.1082 3.82645C17.019 3.82645 16.9522 3.75959 16.9448 3.67788C16.915 3.39559 16.6773 3.17273 16.3876 3.17273H14.1145C13.8322 3.17273 13.587 3.38816 13.5573 3.67045C13.5499 3.75959 13.4756 3.81902 13.3939 3.81902H13.3865C13.0819 3.81902 12.8293 4.07159 12.8293 4.37616V5.69845H11.8265V2.40016H18.7499V2.40759ZM13.9436 5.70588V4.81445C14.1813 4.70302 14.3819 4.51731 14.5156 4.28702H15.9939C16.1202 4.51731 16.3208 4.70302 16.5585 4.81445V5.70588H13.9436ZM3.78133 1.15959H10.7048V1.84302V5.69845H9.62761V3.12816C9.62761 2.97959 9.56818 2.83102 9.45675 2.72702C9.35275 2.62302 9.20418 2.56359 9.05561 2.57102C8.9739 2.57102 8.90704 2.50416 8.89218 2.42245C8.86247 2.14016 8.62475 1.92473 8.33504 1.92473H6.0619C5.77961 1.92473 5.53447 2.14016 5.50475 2.42245C5.49733 2.50416 5.43047 2.57102 5.34133 2.57102C5.19275 2.56359 5.04418 2.62302 4.94018 2.72702C4.82875 2.83102 4.76933 2.97959 4.76933 3.12816V5.69845H3.76647V1.15959H3.78133ZM5.89847 5.70588V3.57388C6.13618 3.46245 6.33675 3.27673 6.47047 3.04645H7.94875C8.07504 3.27673 8.27561 3.46245 8.51333 3.57388V5.70588H5.89847ZM22.0779 19.2259H20.8002C20.4436 19.2259 20.1539 19.523 20.1539 19.8944C20.1539 20.2659 20.4436 20.563 20.8002 20.563H22.0779V22.6207H1.34475V20.563H2.62247C2.97904 20.563 3.26875 20.2659 3.26875 19.8944C3.26875 19.523 2.97904 19.2259 2.62247 19.2259H1.34475V10.2076H2.62247C2.97904 10.2076 3.26875 9.91045 3.26875 9.53902C3.26875 9.16759 2.97904 8.87045 2.62247 8.87045H1.34475V6.81273H3.23161H11.2693H22.0853V8.87045H20.8076C20.451 8.87045 20.1613 9.16759 20.1613 9.53902C20.1613 9.91045 20.451 10.2076 20.8076 10.2076H22.0853V12.1167H20.1539C19.5076 12.1167 18.9802 12.6442 18.9802 13.2904V16.1356C18.9802 16.7819 19.5076 17.3093 20.1539 17.3093H22.0853V19.2259H22.0779ZM24.6556 16.1356C24.6556 16.1727 24.6259 16.195 24.5962 16.195H22.6425H22.635H22.6276H20.1465C20.1093 16.195 20.087 16.1653 20.087 16.1356V13.2904C20.087 13.2533 20.1168 13.231 20.1465 13.231H24.5962C24.6333 13.231 24.6556 13.2607 24.6556 13.2904V16.1356Z" fill="#0ABD19"/>
            <path d="M7.81464 8.87109H5.21464C4.85807 8.87109 4.56836 9.16824 4.56836 9.53967C4.56836 9.91109 4.85807 10.2082 5.21464 10.2082H7.81464C8.17122 10.2082 8.46093 9.91109 8.46093 9.53967C8.46093 9.17567 8.17122 8.87109 7.81464 8.87109Z" fill="#0ABD19"/>
            <path d="M13.008 8.87109H10.408C10.0514 8.87109 9.76172 9.16824 9.76172 9.53967C9.76172 9.91109 10.0514 10.2082 10.408 10.2082H13.008C13.3646 10.2082 13.6543 9.91109 13.6543 9.53967C13.6543 9.17567 13.3646 8.87109 13.008 8.87109Z" fill="#0ABD19"/>
            <path d="M18.2072 8.87109H15.6072C15.2507 8.87109 14.9609 9.16824 14.9609 9.53967C14.9609 9.91109 15.2507 10.2082 15.6072 10.2082H18.2072C18.5638 10.2082 18.8535 9.91109 18.8535 9.53967C18.8535 9.17567 18.5638 8.87109 18.2072 8.87109Z" fill="#0ABD19"/>
            <path d="M13.008 19.2266H10.408C10.0514 19.2266 9.76172 19.5237 9.76172 19.8951C9.76172 20.2666 10.0514 20.5637 10.408 20.5637H13.008C13.3646 20.5637 13.6543 20.2666 13.6543 19.8951C13.6543 19.5237 13.3646 19.2266 13.008 19.2266Z" fill="#0ABD19"/>
            <path d="M18.2072 19.2266H15.6072C15.2507 19.2266 14.9609 19.5237 14.9609 19.8951C14.9609 20.2666 15.2507 20.5637 15.6072 20.5637H18.2072C18.5638 20.5637 18.8535 20.2666 18.8535 19.8951C18.8535 19.5237 18.5638 19.2266 18.2072 19.2266Z" fill="#0ABD19"/>
            <path d="M7.81464 19.2266H5.21464C4.85807 19.2266 4.56836 19.5237 4.56836 19.8951C4.56836 20.2666 4.85807 20.5637 5.21464 20.5637H7.81464C8.17122 20.5637 8.46093 20.2666 8.46093 19.8951C8.46093 19.5237 8.17122 19.2266 7.81464 19.2266Z" fill="#0ABD19"/>
        </g>
    </g>
    <defs>
        <clipPath id="clip0_397_588">
            <rect width="26" height="24" fill="white"/>
        </clipPath>
    </defs>
</svg>
