<svg width="26" height="26" viewBox="0 0 26 26" fill="none" xmlns="http://www.w3.org/2000/svg">
    <g clip-path="url(#clip0_271_2)">
        <mask id="mask0_271_2" style="mask-type:luminance" maskUnits="userSpaceOnUse" x="0" y="0" width="26" height="26">
            <path d="M26 0H0V26H26V0Z" fill="#0ABD19"/>
        </mask>
        <g mask="url(#mask0_271_2)">
            <path d="M13.7773 6.39464C13.7066 6.33528 13.6172 6.30274 13.5249 6.30274C13.4326 6.30274 13.3432 6.33528 13.2725 6.39464L6.97002 11.6474C6.90908 11.6998 6.86554 11.7695 6.84515 11.8473C6.82477 11.925 6.82852 12.0071 6.8559 12.0827C6.88328 12.1583 6.933 12.2237 6.99845 12.2704C7.06391 12.317 7.142 12.3427 7.22237 12.3439H8.40464V19.3051C8.40464 19.4096 8.44608 19.5098 8.51987 19.5839C8.59366 19.6579 8.69379 19.6997 8.79832 19.7H18.2527C18.3573 19.6997 18.4574 19.6579 18.5312 19.5839C18.605 19.5098 18.6464 19.4096 18.6464 19.3051V12.3439H19.8287C19.9091 12.3427 19.9872 12.317 20.0526 12.2704C20.1181 12.2237 20.1678 12.1583 20.1952 12.0827C20.2225 12.0071 20.2263 11.925 20.2059 11.8473C20.1855 11.7695 20.142 11.6998 20.081 11.6474L13.7773 6.39464ZM14.7072 18.9101H12.3439V14.9709H14.7072V18.9101ZM17.8616 18.9101H15.4945V14.5759C15.4945 14.4715 15.453 14.3714 15.3792 14.2976C15.3054 14.2238 15.2053 14.1823 15.1009 14.1823H11.949C11.8445 14.1823 11.7444 14.2238 11.6706 14.2976C11.5968 14.3714 11.5553 14.4715 11.5553 14.5759V18.9101H9.19199V12.3489H17.8591L17.8616 18.9101ZM8.31001 11.5553L13.5249 7.20974L18.7398 11.5553H8.31001ZM26 5.12026V1.96584C25.9987 1.44422 25.7906 0.944403 25.4214 0.575918C25.0522 0.207433 24.552 0.000332233 24.0304 0H1.44473C1.34032 0 1.24019 0.041476 1.16636 0.115304C1.09254 0.189132 1.05106 0.289264 1.05106 0.393672V4.20169C0.717953 4.22188 6.61201e-06 4.06416 6.61201e-06 4.59536C6.61201e-06 5.12656 0.720476 4.97389 1.05106 4.98903V8.40338C0.717953 8.42483 6.61201e-06 8.26584 6.61201e-06 8.79831C6.61201e-06 9.33078 0.720476 9.17053 1.05106 9.19072V12.6063C0.719215 12.6278 6.61201e-06 12.4688 6.61201e-06 12.9962C6.61201e-06 13.5236 0.720476 13.3684 1.05106 13.3899V16.8042C0.719215 16.8295 6.61201e-06 16.6717 6.61201e-06 17.2017C6.61201e-06 17.7316 0.719215 17.5802 1.05106 17.5966V21.011C0.717953 21.0312 -0.00251692 20.8734 6.61201e-06 21.4046C0.00253015 21.9358 0.720476 21.7832 1.05106 21.7983V25.6063C1.05106 25.7107 1.09254 25.8109 1.16636 25.8847C1.20292 25.9213 1.24632 25.9502 1.29408 25.97C1.34184 25.9898 1.39303 26 1.44473 26H20.876C21.3984 25.9997 21.8993 25.7921 22.2688 25.4228C22.6383 25.0536 22.8462 24.5528 22.8468 24.0304V19.6962H24.0279C24.5501 19.6959 25.0509 19.4882 25.4202 19.1189C25.7895 18.7496 25.9971 18.2489 25.9975 17.7266V14.5722C25.9964 14.2654 25.9235 13.9632 25.7846 13.6898C25.6457 13.4163 25.4446 13.1792 25.1975 12.9975C25.4448 12.8156 25.6459 12.5783 25.7849 12.3046C25.9238 12.0309 25.9966 11.7285 25.9975 11.4215V8.26711C25.9966 7.96 25.9238 7.65736 25.7849 7.38347C25.646 7.10957 25.4448 6.87203 25.1975 6.6899C25.4442 6.50905 25.6452 6.27307 25.7846 6.00077C25.9239 5.72847 25.9977 5.42738 26 5.12152V5.12026ZM4.20169 25.2114H1.8384V21.7983C2.17025 21.7781 2.89198 21.9358 2.88946 21.4046C2.88693 20.8734 2.17025 21.0261 1.8384 21.011V17.5966C2.17025 17.5752 2.89198 17.7342 2.88946 17.2017C2.88693 16.6692 2.16899 16.8295 1.8384 16.808V13.3937C2.17025 13.3722 2.89198 13.5299 2.88946 13C2.88693 12.4701 2.16899 12.6215 1.8384 12.6063V9.19072C2.17025 9.17053 2.89198 9.32825 2.88946 8.79831C2.88693 8.26837 2.17025 8.41978 1.8384 8.40338V4.98903C2.17025 4.96758 2.89198 5.12656 2.88946 4.59536C2.88693 4.06416 2.17025 4.21683 1.8384 4.20169V0.788605H4.20169V25.2114ZM25.2127 14.5747V17.7291C25.2123 18.0426 25.0877 18.3431 24.866 18.5647C24.6444 18.7864 24.3438 18.911 24.0304 18.9114H22.8494V13.3937H24.0304C24.3435 13.3943 24.6437 13.5189 24.8652 13.7402C25.0867 13.9615 25.2117 14.2615 25.2127 14.5747ZM25.2127 8.27342V11.4278C25.212 11.7412 25.0872 12.0415 24.8656 12.2631C24.6441 12.4847 24.3437 12.6094 24.0304 12.6101H22.8494V7.08988H24.0304C24.344 7.09054 24.6445 7.21549 24.8661 7.43734C25.0877 7.65919 25.2123 7.95984 25.2127 8.27342ZM25.2127 5.11899C25.2133 5.2748 25.1833 5.4292 25.1242 5.57336C25.0651 5.71753 24.9781 5.84863 24.8683 5.95915C24.7585 6.06967 24.628 6.15744 24.4842 6.21745C24.3404 6.27745 24.1862 6.30851 24.0304 6.30884H22.4595C22.3553 6.30884 22.2554 6.35014 22.1816 6.4237C22.1078 6.49725 22.0661 6.59706 22.0658 6.70125V24.0304C22.0651 24.3436 21.9403 24.6438 21.7187 24.8652C21.4971 25.0866 21.1968 25.2111 20.8835 25.2114H4.9903V0.788605H24.0304C24.3436 0.788938 24.644 0.913433 24.8656 1.13481C25.0872 1.35618 25.212 1.65638 25.2127 1.96962V5.11899Z" fill="#0ABD19"/>
        </g>
    </g>
    <defs>
        <clipPath id="clip0_271_2">
            <rect width="26" height="26" fill="white"/>
        </clipPath>
    </defs>
</svg>
