<svg width="26" height="24" viewBox="0 0 26 24" fill="none" xmlns="http://www.w3.org/2000/svg">
    <path d="M13.026 22.5431H5.06193V11.1792H18.3954V12.5889C18.3954 12.7768 18.4665 12.9571 18.593 13.09C18.7196 13.223 18.8913 13.2976 19.0703 13.2976C19.2493 13.2976 19.4209 13.223 19.5475 13.09C19.6741 12.9571 19.7452 12.7768 19.7452 12.5889V10.4704C19.7452 10.2825 19.6741 10.1022 19.5475 9.96926C19.4209 9.83634 19.2493 9.76167 19.0703 9.76167H4.387C4.208 9.76167 4.03634 9.83634 3.90976 9.96926C3.78319 10.1022 3.71208 10.2825 3.71208 10.4704V22.5746H2.40724C2.2678 22.5779 2.12922 22.551 2.00017 22.4954C1.87113 22.4398 1.7544 22.3569 1.65733 22.2517C1.54549 22.1356 1.45726 21.9969 1.39797 21.8439C1.33867 21.6909 1.30955 21.5269 1.31237 21.3618V9.38366C1.30934 9.1875 1.35138 8.99347 1.43493 8.818C1.51847 8.64253 1.64106 8.49079 1.79231 8.37564L10.9412 1.61873C11.1081 1.49536 11.3071 1.42914 11.5112 1.42914C11.7152 1.42914 11.9143 1.49536 12.0811 1.61873L21.155 8.15513C21.3108 8.27226 21.4372 8.4273 21.5234 8.60698C21.6096 8.78666 21.653 8.98561 21.65 9.18678V12.5967C21.649 12.6894 21.6655 12.7814 21.6986 12.8674C21.7317 12.9533 21.7807 13.0315 21.8428 13.0974C21.9049 13.1634 21.9788 13.2157 22.0602 13.2514C22.1417 13.2871 22.2291 13.3055 22.3174 13.3055C22.4068 13.3099 22.4962 13.2948 22.5799 13.2613C22.6635 13.2279 22.7397 13.1767 22.8038 13.1109C22.8678 13.0452 22.9182 12.9663 22.9519 12.8792C22.9857 12.7921 23.002 12.6986 22.9998 12.6046V9.19466C23.0014 8.76751 22.9039 8.34639 22.7158 7.96768C22.5276 7.58898 22.2545 7.26409 21.9199 7.02111L12.8385 0.445329C12.4467 0.15554 11.9792 0 11.4999 0C11.0207 0 10.5531 0.15554 10.1613 0.445329L1.0574 7.21011C0.729744 7.45849 0.463 7.7851 0.279158 8.163C0.0953156 8.54091 -0.000358947 8.95929 2.22509e-05 9.38366V21.3697C-0.00138753 21.7225 0.0642072 22.0721 0.19297 22.398C0.321733 22.7238 0.511079 23.0195 0.749934 23.2676C0.967677 23.499 1.22689 23.6829 1.51262 23.8086C1.79835 23.9343 2.10495 23.9993 2.41474 24H4.4245H13.0335C13.2125 24 13.3842 23.9253 13.5107 23.7924C13.6373 23.6595 13.7084 23.4792 13.7084 23.2912C13.7084 23.1033 13.6373 22.923 13.5107 22.7901C13.3842 22.6571 13.2125 22.5825 13.0335 22.5825L13.026 22.5431Z" fill="#0ABD19"/>
    <path d="M11.6805 18.6245H10.6615V16.3755C10.6615 16.2759 10.6279 16.1804 10.568 16.11C10.508 16.0396 10.4268 16 10.342 16H7.66509C7.58035 16 7.49907 16.0396 7.43915 16.11C7.37923 16.1804 7.34556 16.2759 7.34556 16.3755V18.6245H6.31953C6.23478 18.6245 6.15351 18.664 6.09359 18.7345C6.03366 18.8049 6 18.9004 6 19V21.6245C6 21.7241 6.03366 21.8196 6.09359 21.89C6.15351 21.9604 6.23478 22 6.31953 22H11.6805C11.7652 22 11.8465 21.9604 11.9064 21.89C11.9663 21.8196 12 21.7241 12 21.6245V18.9958C11.9991 18.897 11.965 18.8025 11.9052 18.733C11.8453 18.6635 11.7646 18.6245 11.6805 18.6245ZM7.98462 16.751H10.0225V18.6245H7.98462V16.751ZM6.64615 19.3755H8.68402V21.2531H6.64615V19.3755ZM11.3609 21.2531H9.32308V19.3755H11.3609V21.2531Z" fill="#0ABD19"/>
    <path d="M24.9937 17.0201C24.9937 17.0143 24.9937 17.0086 24.9874 17.0086C24.9874 16.9971 24.9811 16.9914 24.9811 16.9799C24.9811 16.9742 24.9749 16.9628 24.9749 16.957C24.9749 16.9513 24.9686 16.9456 24.9686 16.9398C24.956 16.9112 24.9434 16.8883 24.9246 16.8653L22.9258 14.1891C22.8378 14.0688 22.6933 14 22.5361 14H17.4701C17.313 14 17.1684 14.0688 17.0805 14.1891L15.0817 16.8596C15.0629 16.8825 15.0503 16.9112 15.0377 16.9341C15.0377 16.9398 15.0314 16.9456 15.0314 16.9513C15.0251 16.957 15.0251 16.9685 15.0251 16.9742C15.0251 16.9857 15.0189 16.9914 15.0189 17.0029C15.0189 17.0086 15.0189 17.0143 15.0126 17.0143C15.0063 17.043 15 17.0716 15 17.1003V23.5702C15 23.8052 15.2137 24 15.4714 24H24.5286C24.7863 24 25 23.8052 25 23.5702V17.106C25 17.0716 25 17.043 24.9937 17.0201ZM17.7216 14.8596H22.2847L23.6361 16.6705H16.3639L17.7216 14.8596ZM24.0572 23.1461H15.9491V17.5358H24.0635V23.1461H24.0572Z" fill="#0ABD19"/>
    <path d="M23.1098 16.6078C23.1034 16.5247 23.068 16.4464 23.0096 16.3863C22.9512 16.3262 22.8734 16.2882 22.7897 16.2787C20.9871 16.0622 20.3807 15.1958 20.3596 15.1625C20.327 15.1123 20.2821 15.0711 20.2291 15.0427C20.1761 15.0143 20.1167 14.9996 20.0564 15C19.9965 14.9996 19.9375 15.0138 19.8846 15.0414C19.8317 15.069 19.7865 15.1092 19.7531 15.1583C19.7321 15.1958 19.1256 16.0622 17.3231 16.2787C17.2394 16.2882 17.1616 16.3262 17.1032 16.3863C17.0447 16.4464 17.0093 16.5247 17.003 16.6078C17.003 16.7619 16.7924 20.3566 19.9005 21.8186C19.9502 21.8405 20.0041 21.8518 20.0585 21.8518C20.1129 21.8518 20.1667 21.8405 20.2164 21.8186C23.3161 20.3399 23.1098 16.7619 23.1098 16.6078ZM20.048 21.0938C17.9674 20.0025 17.7316 17.7616 17.7148 16.9285C18.5778 16.8225 19.3897 16.4659 20.048 15.9039C20.7049 16.4749 21.5184 16.8402 22.3854 16.9535C22.3685 17.7449 22.1285 20.0025 20.048 21.0938Z" fill="#0ABD19"/>
</svg>
