<svg width="26" height="26" viewBox="0 0 26 26" fill="none" xmlns="http://www.w3.org/2000/svg">
    <g clip-path="url(#clip0_397_558)">
        <path d="M12.7871 25.2886C16.2006 25.2886 19.4088 23.9736 21.8263 21.584C24.069 19.3672 25.3918 16.4216 25.5515 13.288C25.5667 12.9799 25.3234 12.7094 25.0117 12.6944C24.7 12.6794 24.4263 12.9198 24.4111 13.2279C24.2667 16.0759 23.0579 18.7586 21.0129 20.7799C18.8158 22.9516 15.8889 24.1539 12.7795 24.1539C9.67017 24.1539 6.74327 22.9591 4.5462 20.7799C0.00759888 16.2938 0.00759888 8.98977 4.5462 4.50364C8.41579 0.678791 14.4368 0.0400622 19.0135 2.91809L17.7287 4.47359L21.4158 4.10538L21.0433 0.460872L19.7433 2.0389C14.7029 -1.20734 8.02047 -0.523522 3.74035 3.70711C-1.24678 8.63659 -1.24678 16.647 3.74035 21.5765C6.1655 23.9736 9.37368 25.2886 12.7871 25.2886Z" fill="#0ABD19"/>
        <path d="M4.9425 11.2602C5.02563 11.1414 5.16219 11.0702 5.30469 11.0702H8.06562V9.89453C8.06562 9.65109 8.2675 9.44922 8.51094 9.44922H18.5156C18.7591 9.44922 18.9609 9.65109 18.9609 9.89453V17.0908C18.9609 17.3342 18.7591 17.5361 18.5156 17.5361H17.2569C17.0253 18.3436 16.2772 18.9433 15.3984 18.9433C14.5197 18.9433 13.7716 18.3495 13.54 17.5361H8.60594C8.37437 18.3436 7.62625 18.9433 6.7475 18.9433C5.86875 18.9433 5.12062 18.3495 4.88906 17.5361H3.96875C3.72531 17.5361 3.52344 17.3342 3.52344 17.0908V13.4273C3.52344 13.3323 3.55313 13.2433 3.60656 13.172L4.9425 11.2602ZM4.40813 13.558H6.40312V11.9667H5.53031L4.40813 13.558ZM18.0703 10.3458H8.95625V16.6514H13.4984C13.6706 15.7548 14.4544 15.078 15.3984 15.078C16.3425 15.078 17.1322 15.7548 17.2984 16.6514H18.0703V10.3458ZM15.3984 18.0527C15.9744 18.0527 16.4434 17.5836 16.4434 17.0077C16.4434 16.4317 15.9744 15.9627 15.3984 15.9627C14.8225 15.9627 14.3534 16.4317 14.3534 17.0077C14.3534 17.5836 14.8225 18.0527 15.3984 18.0527ZM6.74156 18.0527C7.3175 18.0527 7.78656 17.5836 7.78656 17.0077C7.78656 16.4317 7.3175 15.9627 6.74156 15.9627C6.16562 15.9627 5.69656 16.4317 5.69656 17.0077C5.69656 17.5836 6.16562 18.0527 6.74156 18.0527ZM4.84156 16.6514C5.01375 15.7548 5.7975 15.078 6.74156 15.078C7.25219 15.078 7.72125 15.2798 8.06562 15.6064V11.9667H7.29969V14.0033C7.29969 14.2467 7.09781 14.4486 6.85437 14.4486H4.40219V16.6514H4.84156Z" fill="#0ABD19"/>
        <path d="M23.242 10.3457H20.0654C19.822 10.3457 19.6201 10.1438 19.6201 9.90039C19.6201 9.65695 19.822 9.45508 20.0654 9.45508H23.242C23.4854 9.45508 23.6873 9.65695 23.6873 9.90039C23.6873 10.1438 23.4854 10.3457 23.242 10.3457Z" fill="#0ABD19"/>
        <path d="M20.0654 11.0762H22.5116C22.7551 11.0762 22.9569 11.278 22.9569 11.5215C22.9569 11.7649 22.7551 11.9668 22.5116 11.9668H20.0654C19.8219 11.9668 19.6201 11.7649 19.6201 11.5215C19.6201 11.278 19.816 11.0762 20.0654 11.0762Z" fill="#0ABD19"/>
        <path d="M20.0654 12.6973H21.6092C21.8526 12.6973 22.0545 12.8991 22.0545 13.1426C22.0545 13.386 21.8526 13.5879 21.6092 13.5879H20.0654C19.822 13.5879 19.6201 13.386 19.6201 13.1426C19.6201 12.8991 19.816 12.6973 20.0654 12.6973Z" fill="#0ABD19"/>
        <path d="M20.0654 14.3184H20.5998C20.8432 14.3184 21.0451 14.5202 21.0451 14.7637C21.0451 15.0071 20.8432 15.209 20.5998 15.209H20.0654C19.822 15.209 19.6201 15.0071 19.6201 14.7637C19.6201 14.5202 19.8161 14.3184 20.0654 14.3184Z" fill="#0ABD19"/>
    </g>
    <defs>
        <clipPath id="clip0_397_558">
            <rect width="26" height="26" fill="white"/>
        </clipPath>
    </defs>
</svg>
