<svg width="26" height="26" viewBox="0 0 26 26" fill="#0ABD19" xmlns="http://www.w3.org/2000/svg">
    <path d="M9.00513 9.96127L12.2147 11.3992L11.7711 12.3891L8.49363 10.9207L9.26853 12.4969L8.29515 12.9751L6.59532 9.51838L10.3984 8.43674L10.6953 9.48041L9.00513 9.96127Z" fill="#0ABD19"></path>
    <path d="M0.520258 16.4462L0.956738 15.453L11.3199 20.0096C11.9583 19.3633 12.8443 18.9619 13.8227 18.9619C14.0279 18.9619 14.2288 18.9805 14.4246 19.0144L21.592 1.35609L25.0776 0L25.4707 1.01124L22.4216 2.19727L15.4536 19.3642C16.5748 19.9532 17.3416 21.1288 17.3416 22.4808C17.3416 24.4212 15.763 26 13.8227 26C11.8818 26 10.3032 24.4212 10.3032 22.4808C10.3032 21.9168 10.4373 21.3838 10.6742 20.9108L0.520258 16.4462ZM13.8227 24.9151C15.1649 24.9151 16.2567 23.8231 16.2567 22.4808C16.2567 21.1387 15.1649 20.0467 13.8227 20.0467C12.4804 20.0467 11.388 21.1387 11.388 22.4808C11.3881 23.8231 12.4804 24.9151 13.8227 24.9151Z" fill="#0ABD19"></path>
    <path d="M12.7001 16.8449C12.2151 17.9382 11.0155 17.8058 10.7231 17.6249L3.44004 14.4646C2.67989 14.1351 2.32974 13.2483 2.65919 12.488L5.92278 4.96563C6.18766 4.35431 6.94251 4.05399 7.55749 4.31993L15.0806 7.58373C15.8402 7.9135 16.1899 8.80026 15.8603 9.56042L12.7001 16.8449ZM14.6484 8.5791L7.12525 5.31525C7.0264 5.27699 6.94813 5.32884 6.91815 5.39713L3.65452 12.9195C3.56288 13.1311 3.65977 13.3776 3.87169 13.4693L11.1548 16.6296C11.3646 16.7192 11.6157 16.6177 11.7052 16.413L14.865 9.12908C14.9567 8.91731 14.8597 8.67074 14.6484 8.5791Z" fill="#0ABD19"></path>
</svg>