<svg width="27" height="26" viewBox="0 0 27 26" fill="none" xmlns="http://www.w3.org/2000/svg">
    <g clip-path="url(#clip0_497_9821)">
        <path d="M25.4669 15.6054H15.0844C14.7753 15.6054 14.4789 15.7282 14.2604 15.9467C14.0418 16.1653 13.919 16.4617 13.919 16.7708V24.4296H2.64492V19.6981C2.64492 17.2973 4.34376 15.3036 6.47082 15.1632H16.004C16.094 15.1726 16.1849 15.163 16.271 15.135C16.357 15.107 16.4362 15.0613 16.5035 15.0007C16.5707 14.9401 16.6245 14.8661 16.6613 14.7835C16.698 14.7008 16.7171 14.6113 16.7171 14.5208C16.7171 14.4304 16.698 14.3409 16.6613 14.2582C16.6245 14.1755 16.5707 14.1015 16.5035 14.041C16.4362 13.9804 16.357 13.9347 16.271 13.9067C16.1849 13.8787 16.094 13.8691 16.004 13.8785H6.4287C5.0055 14.0301 3.69223 14.7142 2.75223 15.7935C1.81223 16.8728 1.31501 18.2676 1.36026 19.6981V25.7423H14.8316C14.9155 25.7534 15.0005 25.7534 15.0844 25.7423H25.4669C25.776 25.7423 26.0724 25.6195 26.2909 25.401C26.5095 25.1825 26.6323 24.8861 26.6323 24.577V16.7708C26.6323 16.4617 26.5095 16.1653 26.2909 15.9467C26.0724 15.7282 25.776 15.6054 25.4669 15.6054ZM21.4094 16.8901V18.617H19.1419V16.8901H21.4094ZM25.3476 24.4576H15.2037V16.8901H17.8502V18.7925C17.8502 19.0867 17.9671 19.3688 18.1751 19.5768C18.3831 19.7848 18.6652 19.9017 18.9594 19.9017H21.5849C21.879 19.9017 22.1612 19.7848 22.3692 19.5768C22.5772 19.3688 22.694 19.0867 22.694 18.7925V16.8901H25.3476V24.4576Z" fill="#0ABD19"></path>
        <path d="M3.69857 6.81613H6.56273C6.59506 8.46508 7.25973 10.0386 8.41934 11.2113C9.57896 12.3841 11.1449 13.0665 12.7933 13.1174C14.4418 13.1683 16.0468 12.5838 17.2766 11.4849C18.5064 10.3859 19.2669 8.8564 19.4009 7.21258C19.5349 5.56877 19.0322 3.93631 17.9966 2.65266C16.9611 1.36902 15.4719 0.532333 13.837 0.315568C12.202 0.098803 10.5463 0.518532 9.21201 1.48799C7.87775 2.45745 6.96701 3.90251 6.66803 5.52445H3.69857C3.52729 5.52445 3.36302 5.59249 3.2419 5.71361C3.12078 5.83473 3.05273 5.999 3.05273 6.17029C3.05273 6.34158 3.12078 6.50585 3.2419 6.62697C3.36302 6.74809 3.52729 6.81613 3.69857 6.81613ZM13.0001 11.8495C11.6557 11.8462 10.3657 11.3184 9.40459 10.3783C8.44352 9.43819 7.88733 8.16012 7.85441 6.81613H18.1387C18.1076 8.15949 17.5529 9.43755 16.593 10.3778C15.6331 11.3181 14.3438 11.8462 13.0001 11.8495ZM13.0001 1.54411C14.1616 1.54655 15.2884 1.94084 16.198 2.66318C17.1076 3.38552 17.7469 4.39366 18.0124 5.52445H7.98779C8.25214 4.39306 8.89111 3.38421 9.80098 2.66167C10.7108 1.93912 11.8382 1.5453 13.0001 1.54411Z" fill="#0ABD19"></path>
    </g>
    <defs>
        <clipPath id="clip0_497_9821">
            <rect width="26" height="26" fill="white" transform="translate(0.998047)"></rect>
        </clipPath>
    </defs>
</svg>