<svg width="27" height="26" viewBox="0 0 27 26" fill="none" xmlns="http://www.w3.org/2000/svg">
    <g clip-path="url(#clip0_497_9798)">
        <path d="M24.6344 11H17.8061C17.5995 11 17.4013 11.0631 17.2552 11.1752C17.1091 11.2874 17.027 11.4395 17.027 11.5982C17.027 11.7568 17.1091 11.9089 17.2552 12.0211C17.4013 12.1333 17.5995 12.1963 17.8061 12.1963H24.6344C24.7402 12.1963 24.8449 12.2123 24.9426 12.2433C25.0403 12.2744 25.1291 12.32 25.2039 12.3774C25.2787 12.4348 25.338 12.5029 25.3785 12.578C25.4189 12.653 25.4398 12.7334 25.4398 12.8146V24.1788C25.4409 24.2605 25.421 24.3416 25.381 24.4174C25.341 24.4932 25.2819 24.5622 25.207 24.6203C25.1321 24.6784 25.0429 24.7246 24.9446 24.7561C24.8463 24.7876 24.7409 24.8038 24.6344 24.8038H3.38794C3.17202 24.8038 2.96494 24.7379 2.81226 24.6207C2.65958 24.5035 2.5738 24.3445 2.5738 24.1788V12.8146C2.57611 12.65 2.6629 12.4927 2.81533 12.377C2.96776 12.2612 3.17353 12.1963 3.38794 12.1963H10.1725C10.3791 12.1963 10.5773 12.1333 10.7234 12.0211C10.8695 11.9089 10.9516 11.7568 10.9516 11.5982C10.9516 11.4395 10.8695 11.2874 10.7234 11.1752C10.5773 11.0631 10.3791 11 10.1725 11H3.38794C3.07566 10.9983 2.766 11.0439 2.47671 11.1342C2.18743 11.2245 1.92422 11.3577 1.70218 11.5263C1.48014 11.6949 1.30364 11.8955 1.18281 12.1166C1.06198 12.3376 0.999191 12.5748 0.998047 12.8146V24.1788C0.998047 24.6618 1.24799 25.125 1.6929 25.4666C2.13781 25.8081 2.74124 26 3.37044 26H24.6344C24.9455 26 25.2536 25.9528 25.5409 25.8612C25.8283 25.7696 26.0892 25.6354 26.3088 25.4662C26.5284 25.297 26.7024 25.0961 26.8206 24.8752C26.9389 24.6543 26.9992 24.4176 26.998 24.1788V12.8146C26.998 12.3333 26.749 11.8718 26.3057 11.5315C25.8625 11.1912 25.2613 11 24.6344 11Z" fill="#0ABD19"></path>
        <path d="M8.37137 21.6289H5.3467C5.24581 21.6289 5.14592 21.6488 5.05282 21.6874C4.95972 21.726 4.87526 21.7826 4.80433 21.8539C4.73339 21.9252 4.6774 22.0097 4.63958 22.1027C4.60177 22.1956 4.58289 22.2951 4.58403 22.3953C4.58403 22.4959 4.60398 22.5956 4.64275 22.6886C4.68151 22.7816 4.73833 22.866 4.80995 22.9372C4.88158 23.0084 4.96661 23.0648 5.06019 23.1033C5.15377 23.1419 5.25407 23.1617 5.35537 23.1617H8.38003C8.5846 23.1617 8.7808 23.0809 8.92545 22.9372C9.0701 22.7935 9.15137 22.5986 9.15137 22.3953C9.14911 22.1927 9.06713 21.9991 8.92296 21.8559C8.77879 21.7126 8.58391 21.6311 8.38003 21.6289H8.37137Z" fill="#0ABD19"></path>
        <path d="M20.7831 21.9727H20.2092C20.19 21.9727 20.1711 21.9838 20.1534 22.0055C20.1358 22.0272 20.1197 22.059 20.1063 22.0991C20.0928 22.1391 20.0822 22.1866 20.075 22.2388C20.0678 22.291 20.0642 22.3469 20.0645 22.4032C20.0645 22.4598 20.0682 22.5157 20.0756 22.568C20.083 22.6202 20.0937 22.6677 20.1073 22.7077C20.1209 22.7476 20.1371 22.7794 20.1548 22.801C20.1726 22.8226 20.1916 22.8338 20.2108 22.8338H20.7848C20.8236 22.8338 20.8608 22.7884 20.8883 22.7077C20.9157 22.6269 20.9311 22.5174 20.9311 22.4032C20.9307 22.2894 20.9151 22.1806 20.8878 22.1002C20.8604 22.0197 20.8234 21.9739 20.7848 21.9727H20.7831Z" fill="#0ABD19"></path>
        <path d="M22.5175 21.9727H21.9436C21.9244 21.9727 21.9055 21.9838 21.8878 22.0055C21.8701 22.0272 21.8541 22.059 21.8406 22.0991C21.8272 22.1391 21.8166 22.1866 21.8094 22.2388C21.8022 22.291 21.7986 22.3469 21.7988 22.4032C21.7988 22.4598 21.8026 22.5157 21.81 22.568C21.8173 22.6202 21.8281 22.6677 21.8417 22.7077C21.8553 22.7476 21.8714 22.7794 21.8892 22.801C21.9069 22.8226 21.926 22.8338 21.9452 22.8338H22.5191C22.558 22.8338 22.5952 22.7884 22.6226 22.7077C22.6501 22.6269 22.6655 22.5174 22.6655 22.4032C22.6651 22.2894 22.6495 22.1806 22.6222 22.1002C22.5948 22.0197 22.5578 21.9739 22.5191 21.9727H22.5175Z" fill="#0ABD19"></path>
        <path d="M19.0487 21.9727H18.4748C18.4557 21.9727 18.4367 21.9838 18.419 22.0055C18.4014 22.0272 18.3853 22.059 18.3719 22.0991C18.3584 22.1391 18.3478 22.1866 18.3406 22.2388C18.3335 22.291 18.3299 22.3469 18.3301 22.4032C18.3301 22.4598 18.3339 22.5157 18.3412 22.568C18.3486 22.6202 18.3594 22.6677 18.373 22.7077C18.3865 22.7476 18.4027 22.7794 18.4204 22.801C18.4382 22.8226 18.4572 22.8338 18.4764 22.8338H19.0504C19.0892 22.8338 19.1264 22.7884 19.1539 22.7077C19.1813 22.6269 19.1967 22.5174 19.1967 22.4032C19.1963 22.2894 19.1808 22.1806 19.1534 22.1002C19.126 22.0197 19.0891 21.9739 19.0504 21.9727H19.0487Z" fill="#0ABD19"></path>
        <path d="M8.79779 7.982C8.90547 7.98286 9.01212 7.96105 9.11071 7.918C9.20929 7.87496 9.29759 7.81166 9.36979 7.73228L13.0618 3.69366V16.7826C13.0618 16.9858 13.1431 17.1807 13.2877 17.3245C13.4324 17.4682 13.6286 17.5489 13.8331 17.5489C14.0377 17.5489 14.2339 17.4682 14.3785 17.3245C14.5232 17.1807 14.6045 16.9858 14.6045 16.7826V3.60755L18.4785 7.56005C18.627 7.66388 18.8077 7.7123 18.9886 7.69676C19.1696 7.68123 19.3392 7.60275 19.4677 7.47514C19.5961 7.34753 19.6751 7.17898 19.6907 6.99919C19.7063 6.81939 19.6576 6.63988 19.5531 6.49227L14.3531 1.19644L13.7985 0.636719L8.19979 6.69894C8.13129 6.77347 8.07829 6.86071 8.04382 6.95565C8.00935 7.05059 7.99409 7.15136 7.99892 7.25218C8.00375 7.35299 8.02858 7.45186 8.07197 7.54312C8.11537 7.63437 8.17647 7.71621 8.25179 7.78394C8.32452 7.85202 8.41043 7.90469 8.5043 7.93874C8.59816 7.97278 8.69802 7.9875 8.79779 7.982Z" fill="#0ABD19"></path>
    </g>
    <defs>
        <clipPath id="clip0_497_9798">
            <rect width="26" height="26" fill="white" transform="translate(0.998047)"></rect>
        </clipPath>
    </defs>
</svg>