<svg width="27" height="20" viewBox="0 0 27 20" fill="none" xmlns="http://www.w3.org/2000/svg">
    <g clip-path="url(#clip0_497_9772)">
        <path d="M3.32594 0.078136C2.86367 0.0781381 2.41181 0.215307 2.02755 0.472276C1.64329 0.729245 1.34392 1.09446 1.16735 1.52167C0.990772 1.94888 0.944936 2.41888 1.03564 2.87216C1.12635 3.32544 1.34951 3.74161 1.67688 4.06798C2.00425 4.39435 2.4211 4.61624 2.87466 4.70555C3.32821 4.79487 3.79807 4.74759 4.22474 4.56971C4.65141 4.39183 5.0157 4.09135 5.27149 3.7063C5.52728 3.32126 5.66307 2.86897 5.66165 2.40671C5.66166 2.10031 5.60119 1.79693 5.48372 1.51395C5.36625 1.23097 5.19409 0.97395 4.97711 0.757628C4.76012 0.541307 4.50258 0.369934 4.21924 0.253333C3.9359 0.136733 3.63233 0.0771961 3.32594 0.078136ZM3.32594 3.31385C3.14652 3.31385 2.97114 3.26065 2.82196 3.16097C2.67278 3.06129 2.55651 2.91961 2.48785 2.75386C2.41919 2.5881 2.40122 2.4057 2.43623 2.22973C2.47123 2.05376 2.55763 1.89213 2.68449 1.76526C2.81136 1.63839 2.973 1.552 3.14896 1.517C3.32493 1.48199 3.50733 1.49996 3.67309 1.56862C3.83885 1.63728 3.98052 1.75355 4.0802 1.90273C4.17988 2.0519 4.23308 2.22729 4.23308 2.40671C4.23308 2.52583 4.20962 2.6438 4.16403 2.75386C4.11844 2.86392 4.05162 2.96392 3.96739 3.04815C3.88315 3.13239 3.78315 3.19921 3.67309 3.2448C3.56303 3.29039 3.44507 3.31385 3.32594 3.31385Z" fill="#0ABD19"></path>
        <path d="M3.32729 7.67189C2.86705 7.6733 2.41755 7.81107 2.03556 8.06779C1.65357 8.32451 1.35622 8.68868 1.18107 9.11429C1.00592 9.5399 0.960824 10.0079 1.05148 10.4591C1.14213 10.9103 1.36447 11.3246 1.69041 11.6495C2.01635 11.9745 2.43127 12.1955 2.88277 12.2848C3.33427 12.3741 3.80211 12.3275 4.22718 12.1511C4.65226 11.9746 5.01551 11.6762 5.27106 11.2934C5.52661 10.9106 5.663 10.4607 5.663 10.0005C5.66301 9.69406 5.60254 9.39068 5.48507 9.1077C5.3676 8.82472 5.19544 8.5677 4.97846 8.35138C4.76147 8.13506 4.50393 7.96368 4.22059 7.84708C3.93725 7.73048 3.63368 7.67095 3.32729 7.67189ZM3.32729 10.9076C3.14787 10.9076 2.97249 10.8544 2.82331 10.7547C2.67413 10.655 2.55786 10.5134 2.4892 10.3476C2.42054 10.1818 2.40257 9.99945 2.43758 9.82348C2.47258 9.64751 2.55898 9.48588 2.68584 9.35901C2.81271 9.23214 2.97435 9.14575 3.15031 9.11074C3.32628 9.07574 3.50868 9.09371 3.67444 9.16237C3.8402 9.23103 3.98187 9.3473 4.08155 9.49648C4.18123 9.64565 4.23443 9.82104 4.23443 10.0005C4.23443 10.241 4.13886 10.4718 3.96874 10.6419C3.79861 10.812 3.56788 10.9076 3.32729 10.9076Z" fill="#0ABD19"></path>
        <path d="M9.80608 2.92076H25.9989C26.1884 2.92076 26.3701 2.8455 26.504 2.71155C26.638 2.57759 26.7132 2.39591 26.7132 2.20647C26.7132 2.01703 26.638 1.83535 26.504 1.7014C26.3701 1.56744 26.1884 1.49219 25.9989 1.49219H9.80608C9.61664 1.49219 9.43496 1.56744 9.30101 1.7014C9.16705 1.83535 9.0918 2.01703 9.0918 2.20647C9.0918 2.39591 9.16705 2.57759 9.30101 2.71155C9.43496 2.8455 9.61664 2.92076 9.80608 2.92076Z" fill="#0ABD19"></path>
        <path d="M25.9989 9.18555H9.80608C9.61664 9.18555 9.43496 9.2608 9.30101 9.39476C9.16705 9.52871 9.0918 9.71039 9.0918 9.89983C9.0918 10.0893 9.16705 10.271 9.30101 10.4049C9.43496 10.5389 9.61664 10.6141 9.80608 10.6141H25.9989C26.1884 10.6141 26.3701 10.5389 26.504 10.4049C26.638 10.271 26.7132 10.0893 26.7132 9.89983C26.7132 9.71039 26.638 9.52871 26.504 9.39476C26.3701 9.2608 26.1884 9.18555 25.9989 9.18555Z" fill="#0ABD19"></path>
        <path d="M3.32595 15.2578C2.86399 15.2578 2.4124 15.3948 2.0283 15.6515C1.64419 15.9081 1.34482 16.2729 1.16803 16.6997C0.991246 17.1265 0.944991 17.5961 1.03512 18.0492C1.12524 18.5023 1.34769 18.9185 1.67435 19.2451C2.00101 19.5718 2.41719 19.7942 2.87027 19.8844C3.32336 19.9745 3.79299 19.9282 4.21979 19.7514C4.64659 19.5747 5.01137 19.2753 5.26803 18.8912C5.52468 18.5071 5.66166 18.0555 5.66166 17.5935C5.66166 16.9741 5.41558 16.38 4.97755 15.9419C4.53952 15.5039 3.94542 15.2578 3.32595 15.2578ZM3.32595 18.5007C3.14653 18.5007 2.97115 18.4475 2.82197 18.3478C2.67279 18.2481 2.55652 18.1064 2.48786 17.9407C2.4192 17.7749 2.40124 17.5925 2.43624 17.4166C2.47124 17.2406 2.55764 17.0789 2.6845 16.9521C2.81137 16.8252 2.97301 16.7388 3.14898 16.7038C3.32494 16.6688 3.50734 16.6868 3.6731 16.7554C3.83886 16.8241 3.98053 16.9404 4.08021 17.0895C4.17989 17.2387 4.23309 17.4141 4.23309 17.5935C4.23309 17.8341 4.13752 18.0649 3.9674 18.235C3.79728 18.4051 3.56654 18.5007 3.32595 18.5007Z" fill="#0ABD19"></path>
        <path d="M25.9989 16.8789H9.80608C9.61664 16.8789 9.43496 16.9542 9.30101 17.0881C9.16705 17.2221 9.0918 17.4038 9.0918 17.5932C9.0918 17.7826 9.16705 17.9643 9.30101 18.0983C9.43496 18.2322 9.61664 18.3075 9.80608 18.3075H25.9989C26.1884 18.3075 26.3701 18.2322 26.504 18.0983C26.638 17.9643 26.7132 17.7826 26.7132 17.5932C26.7132 17.4038 26.638 17.2221 26.504 17.0881C26.3701 16.9542 26.1884 16.8789 25.9989 16.8789Z" fill="#0ABD19"></path>
    </g>
    <defs>
        <clipPath id="clip0_497_9772">
            <rect width="25.7143" height="20" fill="white" transform="translate(0.998047)"></rect>
        </clipPath>
    </defs>
</svg>