<svg width="27" height="24" viewBox="0 0 27 24" fill="none" xmlns="http://www.w3.org/2000/svg">
    <g clip-path="url(#clip0_497_9909)">
        <path d="M26.1828 18.4247L26.055 18.297C26.379 17.9034 26.5565 17.4097 26.5574 16.9V2.20339C26.5574 1.61901 26.3252 1.05857 25.912 0.645358C25.4988 0.232142 24.9384 0 24.354 0H3.20144C2.61706 0 2.05662 0.232142 1.6434 0.645358C1.23019 1.05857 0.998047 1.61901 0.998047 2.20339V16.9C0.998047 17.4844 1.23019 18.0448 1.6434 18.458C2.05662 18.8712 2.61706 19.1034 3.20144 19.1034H9.54279L8.115 22.9153H5.87635C5.75948 22.9153 5.64739 22.9617 5.56475 23.0443C5.4821 23.127 5.43567 23.2391 5.43567 23.3559C5.43567 23.4728 5.4821 23.5849 5.56475 23.6675C5.64739 23.7502 5.75948 23.7966 5.87635 23.7966H21.6791C21.7959 23.7966 21.908 23.7502 21.9907 23.6675C22.0733 23.5849 22.1197 23.4728 22.1197 23.3559C22.1197 23.2391 22.0733 23.127 21.9907 23.0443C21.908 22.9617 21.7959 22.9153 21.6791 22.9153H19.4404L18.0126 19.1034H18.5855L19.0658 20.9586C19.0887 21.0429 19.1361 21.1185 19.202 21.1757C19.2679 21.233 19.3494 21.2694 19.436 21.2803C19.5226 21.2921 19.6107 21.2778 19.6892 21.2394C19.7677 21.2009 19.8329 21.14 19.8767 21.0644L21.3221 18.5834L23.6665 20.9322C23.9128 21.1842 24.229 21.3565 24.5742 21.4271C24.9195 21.4976 25.2779 21.463 25.6033 21.3278C25.9287 21.1926 26.2061 20.963 26.3997 20.6687C26.5934 20.3743 26.6943 20.0286 26.6896 19.6763C26.6915 19.4446 26.6477 19.2148 26.5608 19.0001C26.4738 18.7853 26.3454 18.5898 26.1828 18.4247ZM23.834 16.0803L25.676 15.0095V16.9C25.6751 17.1764 25.5855 17.4451 25.4204 17.6668L23.834 16.0803ZM11.9092 22.9153L12.7906 21.1525H14.7648L15.6462 22.9153H11.9092ZM18.5194 22.9153H16.6333L15.4302 20.5136C15.3936 20.4409 15.3376 20.3798 15.2684 20.337C15.1991 20.2942 15.1194 20.2714 15.038 20.2712H12.5174C12.436 20.2714 12.3563 20.2942 12.287 20.337C12.2178 20.3798 12.1618 20.4409 12.1252 20.5136L10.9221 22.9153H9.05364L10.4858 19.1034H17.0696L18.5194 22.9153ZM3.20144 18.222C2.85081 18.222 2.51455 18.0828 2.26662 17.8348C2.01869 17.5869 1.8794 17.2506 1.8794 16.9V2.20339C1.8794 1.85276 2.01869 1.5165 2.26662 1.26857C2.51455 1.02064 2.85081 0.881356 3.20144 0.881356H24.354C24.7046 0.881356 25.0409 1.02064 25.2888 1.26857C25.5367 1.5165 25.676 1.85276 25.676 2.20339V13.6875L19.5638 12.0525L18.7309 7.88373C18.6533 7.52302 18.4543 7.19982 18.1673 6.96806C17.8802 6.7363 17.5223 6.60998 17.1533 6.61017H16.8625V6.03729C16.8625 5.21916 16.5375 4.43455 15.959 3.85604C15.3805 3.27754 14.5958 2.95254 13.7777 2.95254C12.9596 2.95254 12.175 3.27754 11.5965 3.85604C11.018 4.43455 10.693 5.21916 10.693 6.03729V6.61017H10.3933C10.0219 6.61083 9.66206 6.73966 9.37462 6.9749C9.08719 7.21015 8.88976 7.53739 8.81567 7.90136L7.55974 14.2163C7.51283 14.4494 7.5182 14.6901 7.57547 14.9209C7.63275 15.1517 7.74049 15.367 7.89096 15.5512C8.04142 15.7354 8.23086 15.8839 8.44562 15.9861C8.66039 16.0882 8.89513 16.1415 9.13296 16.142H17.7923L18.3475 18.222H3.20144ZM16.673 11.96L17.5543 15.2607H9.13296C9.0242 15.2613 8.9167 15.2375 8.81846 15.1908C8.72022 15.1441 8.63378 15.0759 8.56558 14.9912C8.49739 14.9065 8.44919 14.8074 8.42458 14.7015C8.39997 14.5956 8.39959 14.4854 8.42347 14.3793L9.68822 8.04678C9.72844 7.88797 9.82049 7.74713 9.94981 7.64655C10.0791 7.54597 10.2383 7.49142 10.4021 7.49153H10.693V8.52712C10.693 8.64399 10.7394 8.75608 10.822 8.83873C10.9047 8.92137 11.0168 8.9678 11.1336 8.9678C11.2505 8.9678 11.3626 8.92137 11.4452 8.83873C11.5279 8.75608 11.5743 8.64399 11.5743 8.52712V7.49153H15.9811V8.52712C15.9811 8.64399 16.0275 8.75608 16.1102 8.83873C16.1928 8.92137 16.3049 8.9678 16.4218 8.9678C16.5386 8.9678 16.6507 8.92137 16.7334 8.83873C16.816 8.75608 16.8625 8.64399 16.8625 8.52712V7.49153H17.1621C17.3301 7.49304 17.4926 7.55201 17.6225 7.65863C17.7523 7.76525 17.8418 7.91311 17.876 8.07763L18.6252 11.797L17.2238 11.4224C17.1469 11.3995 17.0652 11.3981 16.9875 11.4183C16.9099 11.4385 16.8392 11.4795 16.7831 11.537C16.7296 11.5918 16.6912 11.6597 16.6719 11.7339C16.6526 11.808 16.6529 11.886 16.673 11.96ZM15.9811 6.61017H11.5743V6.03729C11.5743 5.45291 11.8065 4.89247 12.2197 4.47926C12.6329 4.06604 13.1933 3.8339 13.7777 3.8339C14.3621 3.8339 14.9225 4.06604 15.3357 4.47926C15.749 4.89247 15.9811 5.45291 15.9811 6.03729V6.61017ZM25.557 20.3064C25.3875 20.4673 25.1628 20.557 24.9291 20.557C24.6954 20.557 24.4706 20.4673 24.3011 20.3064L21.5469 17.5566C21.4993 17.5089 21.4414 17.4728 21.3777 17.451C21.314 17.4292 21.2461 17.4223 21.1793 17.4308C21.1125 17.4393 21.0485 17.463 20.9923 17.5001C20.9361 17.5372 20.8891 17.5867 20.855 17.6447L19.6564 19.7071L17.7438 12.4712L24.9797 14.4058L22.9174 15.6044C22.8592 15.638 22.8096 15.6845 22.7722 15.7403C22.7347 15.796 22.7105 15.8596 22.7014 15.9261C22.6928 15.9935 22.6998 16.0619 22.722 16.1262C22.7441 16.1904 22.7808 16.2486 22.8292 16.2963L25.5791 19.0461C25.663 19.1282 25.7297 19.2262 25.7752 19.3344C25.8208 19.4426 25.8442 19.5589 25.8442 19.6763C25.8442 19.7937 25.8208 19.9099 25.7752 20.0181C25.7297 20.1263 25.663 20.2244 25.5791 20.3064H25.557Z" fill="#0ABD19"></path>
    </g>
    <defs>
        <clipPath id="clip0_497_9909">
            <rect width="26" height="24" fill="white" transform="translate(0.998047)"></rect>
        </clipPath>
    </defs>
</svg>