<svg width="27" height="26" viewBox="0 0 27 26" fill="none" xmlns="http://www.w3.org/2000/svg">
    <g clip-path="url(#clip0_497_9782)">
        <path d="M20.9834 16.9214C20.9529 16.8156 20.8822 16.7263 20.7869 16.673C20.6916 16.6198 20.5793 16.6068 20.4746 16.6371L19.4395 16.9348L18.1237 12.265L18.2158 12.2383C18.3186 12.2059 18.406 12.1363 18.4614 12.0428C18.4875 11.9952 18.504 11.9428 18.51 11.8886C18.5161 11.8345 18.5115 11.7797 18.4965 11.7274L17.0052 6.32445C16.9934 6.26774 16.9698 6.21422 16.9361 6.16745C16.9023 6.12067 16.8591 6.0817 16.8093 6.05313C16.7595 6.02456 16.7043 6.00704 16.6474 6.00172C16.5904 5.99641 16.533 6.00343 16.4789 6.02231L10.9085 7.63519C10.8565 7.65035 10.808 7.67584 10.7658 7.71016C10.7237 7.74449 10.6887 7.78697 10.6629 7.83513C10.6117 7.93175 10.5977 8.04411 10.6234 8.1506L12.0226 13.1314L11.9304 13.1581C11.8253 13.1906 11.7361 13.262 11.6804 13.358C11.6543 13.4057 11.6378 13.458 11.6318 13.5122C11.6258 13.5663 11.6304 13.6211 11.6454 13.6735L13.0796 18.7431L12.4568 18.9209C12.4349 18.9244 12.4124 18.9201 12.3932 18.9087C12.3741 18.8974 12.3593 18.8797 12.3515 18.8587L8.89086 6.50218C8.86403 6.40364 8.80211 6.31867 8.71705 6.26369C8.63199 6.20871 8.52983 6.18761 8.43031 6.20448L6.34251 6.54216C6.23725 6.5656 6.14419 6.62747 6.08109 6.71598C6.01798 6.80449 5.98926 6.91343 6.00039 7.02203C6.02064 7.13019 6.08223 7.22588 6.17176 7.28828C6.26129 7.35069 6.37152 7.37476 6.47848 7.35527L8.23294 7.07535L11.4918 18.7254C11.2188 18.6521 10.9315 18.6521 10.6585 18.7254C10.3444 18.8144 10.0635 18.9959 9.85156 19.247C9.63959 19.4981 9.50608 19.8073 9.468 20.1354C9.42992 20.4635 9.489 20.7957 9.63771 21.0897C9.78642 21.3838 10.0181 21.6264 10.3032 21.7867C10.5481 21.9269 10.8246 22.0004 11.1059 22C11.254 21.9978 11.4014 21.9769 11.5445 21.9378C11.964 21.8158 12.3187 21.5303 12.5308 21.1439C12.743 20.7574 12.7952 20.3015 12.6761 19.8762C12.6609 19.8258 12.6418 19.7768 12.6191 19.7295H12.698L13.7156 19.4363L19.286 17.8367L20.7159 17.428C20.816 17.3942 20.8995 17.3229 20.9493 17.2287C20.999 17.1345 21.0113 17.0245 20.9834 16.9214ZM11.3032 21.1558C11.0924 21.2135 10.8676 21.1865 10.676 21.0803C10.5342 20.998 10.4196 20.8751 10.3466 20.727C10.2735 20.5789 10.2453 20.4123 10.2654 20.248C10.2856 20.0838 10.3532 19.9292 10.4598 19.8037C10.5664 19.6783 10.7073 19.5875 10.8646 19.5429C10.9373 19.5217 11.0127 19.5112 11.0883 19.5118C11.286 19.5153 11.476 19.5903 11.6239 19.7233C11.7719 19.8562 11.868 20.0383 11.895 20.2368C11.922 20.4352 11.8781 20.6369 11.7712 20.8054C11.6643 20.974 11.5014 21.0982 11.312 21.1558H11.3032ZM16.3122 6.93761L17.5973 11.5407L12.8164 12.9092L11.5269 8.32388L16.3122 6.93761ZM13.8691 18.5343L12.5533 13.8645L17.3342 12.4916L18.65 17.1614L15.4174 18.09L13.8691 18.5343Z" fill="#0ABD19"></path>
        <g clip-path="url(#clip1_497_9782)">
            <path d="M13.9979 26C21.1658 26 26.998 20.1677 26.998 12.999C26.998 5.83148 21.1662 0 13.9979 0C6.82952 0 0.998047 5.83147 0.998047 12.9994C0.998047 20.1677 6.82991 26 13.9979 26ZM13.9979 24.4309C11.0868 24.4309 8.42802 23.3353 6.40744 21.5372L22.5348 5.40939C24.333 7.42958 25.4286 10.0884 25.4286 12.9994C25.429 19.3028 20.3012 24.4309 13.9979 24.4309ZM13.9979 1.56947C16.8261 1.56947 19.4159 2.60428 21.4137 4.31182L5.30987 20.416C3.60193 18.4178 2.56712 15.8281 2.56712 12.9994C2.56712 6.69682 7.69487 1.56947 13.9979 1.56947Z" fill="#0ABD19"></path>
        </g>
    </g>
    <defs>
        <clipPath id="clip0_497_9782">
            <rect width="26" height="26" fill="white" transform="translate(0.998047)"></rect>
        </clipPath>
        <clipPath id="clip1_497_9782">
            <rect width="26" height="26" fill="white" transform="translate(0.998047)"></rect>
        </clipPath>
    </defs>
</svg>