<svg width="27" height="26" viewBox="0 0 27 26" fill="none" xmlns="http://www.w3.org/2000/svg">
    <g clip-path="url(#clip0_497_9839)">
        <path d="M25.6948 10.8376C25.2348 4.78448 20.162 0 13.993 0C7.82409 0 2.75181 4.78448 2.29182 10.8376C2.27023 10.8962 2.25781 17.0677 2.25781 17.0677C2.25781 17.3672 2.50009 17.6094 2.79946 17.6094H4.46893C5.80559 17.6094 6.89266 16.5224 6.89266 15.1856V12.9074C6.89266 11.5707 5.80559 10.4836 4.46893 10.4836H3.41502C4.03653 5.19772 8.54275 1.08335 13.993 1.08335C19.4433 1.08335 23.95 5.19772 24.5715 10.4837H23.5177C22.181 10.4837 21.0934 11.5707 21.0934 12.9075V15.1858C21.0934 16.5225 22.181 17.6095 23.5177 17.6095H24.5475C24.3641 18.7935 23.8977 20.3404 22.7464 21.6081C21.409 23.0803 19.4179 23.8803 16.8228 23.9903C16.7287 23.1761 16.0353 22.5417 15.1964 22.5417H13.1868C12.2838 22.5417 11.5491 23.2764 11.5491 24.1793C11.5491 24.2708 11.4715 25.9215 13.1868 26.0001H15.1964C15.8422 26.0001 16.4019 25.6241 16.6683 25.0793C19.6598 24.9913 21.9734 24.0698 23.5483 22.3364C25.0527 20.6801 25.5819 18.6582 25.7288 17.2764C25.7557 17.2121 25.7098 10.8781 25.6948 10.8376ZM4.46893 11.567C5.20786 11.567 5.80936 12.1684 5.80936 12.9075V15.1857C5.80936 15.9247 5.20791 16.5261 4.46893 16.5261H3.34116C3.34116 16.5261 3.34244 11.6231 3.34329 11.5671H4.46893V11.567ZM15.1965 24.9167H13.1869C12.8811 24.9167 12.5746 24.6461 12.6326 24.1792C12.6702 23.8758 12.8375 23.6249 13.1869 23.6249H15.1965C15.5553 23.6249 15.7202 23.8751 15.7508 24.1792C15.8011 24.6791 15.5022 24.9167 15.1965 24.9167ZM23.5177 16.5261C22.7782 16.5261 22.1768 15.9247 22.1768 15.1856V12.9074C22.1768 12.1684 22.7782 11.567 23.5177 11.567H24.6433C24.6442 11.623 24.6455 16.526 24.6455 16.526H23.5177V16.5261Z" fill="#0ABD19"></path>
        <path d="M11.0206 9.44195L8.98699 11.4849V12.4442H13.5722V11.3603H10.5313L12.1044 9.75846C12.5842 9.26621 12.9133 8.86326 13.0924 8.54967C13.2715 8.2365 13.3609 7.90705 13.3609 7.56167C13.3609 6.9478 13.15 6.46367 12.7281 6.10843C12.3059 5.75356 11.8148 5.57617 11.2556 5.57617C10.6958 5.57617 10.2388 5.68829 9.88394 5.91205C9.52906 6.13586 9.20438 6.46834 8.91016 6.90955L9.82164 7.43708C10.1859 6.87437 10.643 6.59293 11.1933 6.59293C11.5064 6.59293 11.7655 6.68743 11.9704 6.87607C12.1749 7.06465 12.2771 7.29313 12.2771 7.56167C12.2771 7.83053 12.1813 8.09557 11.9892 8.35807C11.7976 8.62014 11.4747 8.98143 11.0206 9.44195Z" fill="#0ABD19"></path>
        <path d="M16.8911 5.73828L14.4258 9.75735V10.7548H17.3035V12.443H18.3778V10.7548H19.1837V9.72859H18.3778V8.50091H17.3035V9.72859H15.7016L18.1282 5.73828H16.8911Z" fill="#0ABD19"></path>
        <path d="M12.0421 17.8453C12.0421 17.5531 12.1272 17.3311 12.2969 17.179C12.4666 17.0269 12.6663 16.9509 12.8952 16.9509C13.3768 16.9509 13.6178 17.2408 13.6178 17.8216V19.5511H14.281V17.6202C14.281 17.2095 14.1715 16.8955 13.9524 16.6785C13.7334 16.4612 13.446 16.3525 13.0908 16.3525C12.8695 16.3525 12.6634 16.4079 12.4718 16.5182C12.2802 16.6291 12.1371 16.7812 12.0422 16.9745V15.1621H11.3789V19.5511H12.0422V17.8453H12.0421Z" fill="#0ABD19"></path>
        <path d="M15.207 16.3987V19.5501H15.8702V18.1995C15.8702 17.8404 15.9532 17.5539 16.119 17.3408C16.2848 17.1273 16.5318 17.0208 16.8596 17.0208C16.8711 17.0208 16.8832 17.0208 16.8952 17.0208L16.8892 16.3516C16.6839 16.3554 16.4893 16.4207 16.3059 16.547C16.122 16.6738 15.9768 16.8352 15.8702 17.0328V16.3987H15.207Z" fill="#0ABD19"></path>
    </g>
    <defs>
        <clipPath id="clip0_497_9839">
            <rect width="26" height="26" fill="white" transform="translate(0.998047)"></rect>
        </clipPath>
    </defs>
</svg>