<svg width="187" height="125" viewBox="0 0 187 125" fill="none" xmlns="http://www.w3.org/2000/svg">
    <g clip-path="url(#clip0_225_630)">
        <path d="M186.075 101.099H177.916C177.664 99.7477 177.27 98.7909 176.733 98.2548C175.861 97.3821 174.373 96.93 172.318 96.93C170.262 96.93 168.885 97.2665 168.102 97.9446C167.508 98.4493 167.198 99.1537 167.198 100.026C167.198 101.262 168.917 102.25 172.318 103.007C176.203 103.848 178.989 104.584 180.702 105.173C181.154 105.341 181.549 105.483 181.827 105.625C185.292 107.26 187.005 109.736 187.005 113.053C187.005 117.106 185.318 120.06 181.969 121.916C181.549 122.142 181.154 122.336 180.702 122.536C178.537 123.466 176.003 123.939 173.164 123.939C168.917 123.939 165.479 123.177 162.866 121.69C161.221 120.733 159.991 119.529 159.171 118.078C158.35 116.627 157.94 114.935 157.94 112.995H166.493C166.493 114.456 167.029 115.613 168.07 116.401C169.111 117.216 170.888 117.642 173.39 117.642C175.277 117.642 176.681 117.248 177.611 116.459C178.342 115.839 178.678 115.161 178.678 114.377C178.678 113.053 176.991 112.017 173.642 111.281C168.633 110.209 165.484 109.336 164.191 108.716C160.758 107.112 159.071 104.637 159.071 101.204C159.071 98.4493 159.943 96.1152 161.741 94.2018C163.991 91.8099 167.366 90.6271 171.845 90.6271C175.53 90.6271 178.484 91.1633 180.708 92.2042C180.902 92.2883 181.076 92.3724 181.244 92.488C182.847 93.3554 184.056 94.5119 184.866 95.9523C185.675 97.3821 186.08 99.1011 186.08 101.099H186.075Z" fill="black"/>
        <path d="M181.712 81.1755C181.712 81.0072 181.685 80.8653 181.601 80.7549C181.517 80.613 181.407 80.5289 181.238 80.4763C181.128 80.4448 180.955 80.4185 180.702 80.3869H179.409V81.964H180.702C181.07 81.9377 181.323 81.8799 181.464 81.7379C181.633 81.596 181.717 81.3962 181.717 81.1755H181.712ZM182.39 80.3291C182.558 80.5552 182.642 80.8075 182.642 81.0913C182.642 81.4856 182.5 81.822 182.221 82.1059C181.943 82.3898 181.575 82.558 181.128 82.5843C181.323 82.6684 181.464 82.7525 181.58 82.8629L182.369 83.9037L182.989 84.9446H181.974L181.496 84.1035C181.191 83.5726 180.939 83.173 180.708 82.9785C180.681 82.9523 180.65 82.9207 180.597 82.8944L179.924 82.6999H179.42V84.9498H178.573V79.6615H180.403C180.518 79.6615 180.629 79.6878 180.713 79.6878C181.165 79.6878 181.501 79.7456 181.727 79.8297C182.006 79.9138 182.232 80.0821 182.405 80.3344L182.39 80.3291Z" fill="black"/>
        <path d="M184.781 82.2478C184.781 81.5171 184.613 80.839 184.245 80.1924C183.877 79.5458 183.373 79.0412 182.726 78.6732C182.079 78.3368 181.401 78.137 180.728 78.137H180.702C180.024 78.137 179.351 78.3368 178.71 78.6732C178.058 79.0412 177.553 79.5458 177.185 80.1924C176.823 80.839 176.623 81.5171 176.623 82.2478C176.623 82.9785 176.817 83.6251 177.185 84.2717C177.527 84.8867 178.032 85.3966 178.678 85.7593C179.325 86.1273 180.003 86.2955 180.702 86.2955H180.728C181.433 86.2955 182.106 86.1273 182.758 85.7593C183.404 85.3966 183.909 84.8867 184.245 84.2717C184.613 83.6198 184.781 82.947 184.781 82.2478ZM185.596 82.2478C185.596 83.0626 185.396 83.8827 184.944 84.6659C184.524 85.4545 183.93 86.0432 183.147 86.4638C182.358 86.9158 181.57 87.1156 180.723 87.1156H180.697C179.856 87.1156 179.067 86.9211 178.279 86.4638C177.49 86.0432 176.901 85.4492 176.476 84.6659C176.024 83.8774 175.829 83.0626 175.829 82.2478C175.829 81.3752 176.024 80.5604 176.476 79.7719C176.928 78.9833 177.517 78.3946 178.305 77.974C179.094 77.5535 179.882 77.3537 180.697 77.3275H180.723C181.538 77.3275 182.332 77.5535 183.115 77.974C183.904 78.3998 184.524 78.9886 184.944 79.7719C185.396 80.5604 185.596 81.3752 185.596 82.2478Z" fill="black"/>
        <path d="M137.733 42.4854L160.837 80.9809H137.733H123.719L101.661 44.2044L84.9497 16.3749L101.661 6.32918L112.185 0L137.733 42.4854Z" fill="black"/>
        <path d="M154.502 107.706V123.493H146.817V121.747C144.225 123.435 141.134 124.423 137.812 124.423H137.728C128.555 124.365 121.101 116.88 121.101 107.706C121.101 98.5334 128.56 91.0529 137.728 90.9951H137.812C141.129 90.9951 144.225 91.9834 146.817 93.6656V91.8362H154.502V107.706ZM146.822 109.457V105.966C146.007 101.745 142.264 98.5386 137.817 98.5386H137.733C132.697 98.5702 128.618 102.676 128.618 107.712C128.618 112.748 132.697 116.859 137.733 116.916H137.817C142.264 116.916 146.002 113.683 146.822 109.462V109.457Z" fill="black"/>
        <path d="M118.43 107.707V123.493H110.75V121.747C108.132 123.435 105.067 124.423 101.745 124.423H101.661C92.4878 124.365 85.0337 116.88 85.0337 107.707C85.0337 98.5334 92.4878 91.053 101.661 90.9952H101.745C105.067 90.9952 108.132 91.9834 110.75 93.6656V80.981H118.43V107.707ZM110.75 109.457V105.967C109.935 101.745 106.187 98.5387 101.745 98.5387H101.661C96.6249 98.5702 92.5457 102.676 92.5457 107.712C92.5457 112.748 96.6249 116.859 101.661 116.916H101.745C106.187 116.916 109.935 113.683 110.75 109.462V109.457Z" fill="black"/>
        <path d="M101.661 65.8414L110.719 80.9809H101.661H73.6319L53.041 46.7066L52.1421 45.2137L53.041 44.6828L79.4038 28.8125L101.661 65.8414Z" fill="black"/>
        <path d="M82.0219 90.9951H73.6636V123.493H82.0219V90.9951Z" fill="black"/>
        <path d="M82.0219 81.1492H73.6636V88.4929H82.0219V81.1492Z" fill="black"/>
        <path d="M69.8368 107.707V123.493H62.1566V121.747C59.5387 123.435 56.4477 124.423 53.1254 124.423H53.0413C43.8682 124.365 36.4141 116.88 36.4141 107.707C36.4141 98.5334 43.8735 91.053 53.0413 90.9952H53.1254C56.4477 90.9952 59.544 91.9834 62.1566 93.6656V80.981H69.8368V107.707ZM62.1566 109.457V105.967C61.3418 101.745 57.5989 98.5387 53.1254 98.5387H53.0413C48.0053 98.5702 43.926 102.676 43.926 107.712C43.926 112.748 48.0053 116.859 53.0413 116.916H53.1254C57.5989 116.916 61.3418 113.683 62.1566 109.462V109.457Z" fill="black"/>
        <path d="M53.041 68.3173L60.6371 80.9809H53.041H23.5241L19.3555 74.0314L46.6225 57.6512L53.041 68.3173Z" fill="black"/>
        <path d="M33.3964 107.706V123.493H25.7162V121.747C23.0984 123.435 20.0021 124.423 16.6851 124.423H16.601C7.45939 124.365 0 116.88 0 107.706C0 98.5334 7.45414 91.0529 16.601 90.9951H16.6851C20.0021 90.9951 23.0984 91.9834 25.7162 93.6656V91.8362H33.3964V107.706ZM25.7162 109.457V105.966C24.9014 101.745 21.1586 98.5386 16.6851 98.5386H16.601C11.5912 98.5702 7.51722 102.676 7.51722 107.712C7.51722 112.748 11.5965 116.859 16.601 116.916H16.6851C21.1586 116.916 24.9014 113.683 25.7162 109.462V109.457Z" fill="black"/>
    </g>
    <defs>
        <clipPath id="clip0_225_630">
            <rect width="187" height="124.423" fill="white"/>
        </clipPath>
    </defs>
</svg>
