
<svg width="187" height="38" viewBox="0 0 187 38" fill="none" xmlns="http://www.w3.org/2000/svg">
    <g clip-path="url(#clip0_225_643)">
        <path fill-rule="evenodd" clip-rule="evenodd" d="M161.83 36.9958L161.999 36.1515L162.169 9.29288C162.169 9.12339 161.999 8.78442 161.999 8.78442H167.068L166.732 9.46237V32.6051H171.967L172.472 32.2693V36.999H161.83V36.9958Z" fill="#C51631"/>
        <path fill-rule="evenodd" clip-rule="evenodd" d="M151.527 36.9958L151.693 36.4873L151.018 29.7303H146.794L146.119 36.321V36.9958H140.711L141.05 36.321L142.908 24.6617L145.105 9.62865L144.936 8.78442H153.381C153.042 9.79814 153.381 10.8119 153.551 11.8256L156.931 36.321L157.27 36.9958H151.527ZM150.679 24.8312L149.499 13.853H148.821L147.302 24.8312H150.679Z" fill="#C51631"/>
        <path fill-rule="evenodd" clip-rule="evenodd" d="M10.6424 36.8263L10.8119 36.3211L10.1371 29.5608H5.9128L5.23806 36.1516V36.8263H0L0.169485 36.1516L2.02743 24.4923L4.22434 9.62871L4.05486 8.61499H12.5004C12.1646 9.62871 12.5003 10.6424 12.6698 11.6561L16.0468 36.1516L16.3857 36.8263H10.6424ZM9.79818 24.6617L8.61498 13.8499C8.27601 13.6804 8.10972 13.6804 7.94023 13.8499L6.42126 24.6617H9.79818Z" fill="#C51631"/>
        <path fill-rule="evenodd" clip-rule="evenodd" d="M138.348 12.8393L137.504 12.5003H135.141V36.321L135.307 36.9958H130.242L130.411 36.321L130.577 12.5003H128.045L127.54 12.8393V8.78442H138.348V12.8393Z" fill="#C51631"/>
        <path fill-rule="evenodd" clip-rule="evenodd" d="M118.586 16.5552C118.755 16.3857 118.755 16.2162 118.755 16.0499V14.0225C118.755 13.853 118.755 13.6835 118.586 13.3477C118.247 12.8425 117.572 12.673 116.897 12.673C116.392 12.673 115.883 13.1783 115.544 13.6867C115.375 14.192 115.375 14.5309 115.375 15.2057C115.375 15.2057 115.205 17.4026 115.205 18.4163C115.205 19.2605 116.219 19.43 116.555 19.5995L121.624 20.9522C122.132 20.9522 122.637 21.2912 122.807 21.6269C123.142 21.9659 123.481 22.4744 123.481 22.9796L123.312 33.2863C123.142 34.9747 121.285 36.3274 119.766 36.6632C116.724 37.5074 113.009 37.3379 110.981 34.4663C110.812 33.961 110.642 33.4525 110.642 32.7778V28.0482C110.642 27.8787 110.473 27.8787 110.473 27.5397H115.372C115.372 27.7092 115.202 28.0482 115.202 28.0482V30.2451C115.202 30.9199 115.372 31.9336 116.216 32.4388C116.555 32.6083 117.06 32.6083 117.399 32.4388C119.088 31.9336 118.752 29.4009 118.752 27.5397C118.752 26.6955 118.921 25.5123 118.074 25.0071C117.738 24.6681 116.891 24.4986 116.891 24.4986L111.992 23.3186C111.992 23.3186 111.822 23.1491 111.317 23.1491C110.981 22.9796 110.642 22.6407 110.642 22.3049V12.3372C110.812 10.9877 112.161 9.63505 113.344 9.12659C116.046 8.28236 119.593 8.28236 121.79 9.80134C123.309 10.8151 123.478 12.334 123.478 14.0257V16.0531C123.478 16.2226 123.478 16.3921 123.648 16.5584H118.579L118.586 16.5552Z" fill="#C51631"/>
        <path fill-rule="evenodd" clip-rule="evenodd" d="M66.8956 33.9547C65.5461 36.4874 63.0102 37.1653 60.308 37.1653C58.1111 36.9958 56.0837 36.1516 54.9037 34.1242C54.5647 33.6157 54.3984 32.941 54.3984 32.2662V13.0089C54.7374 10.9814 56.7616 9.29297 58.6228 8.78452C61.1555 7.94029 64.1966 8.61503 66.0546 10.6425C66.7293 11.4867 67.404 12.3309 67.2378 13.5141V32.0968C67.2378 32.0968 67.2378 33.1105 66.8988 33.9547H66.8956ZM62.6712 27.5334V14.3584C62.6712 13.8499 62.5018 13.5141 62.1628 13.1752C61.6575 12.8362 60.6438 12.6699 60.1354 13.0057C59.6301 13.1751 59.2911 13.6836 59.2911 14.1889L59.1216 30.0693C59.1216 30.9136 59.2911 31.4188 59.7964 31.7578C60.3048 32.0968 61.1491 32.2662 61.6543 31.9273C61.9933 31.7578 62.668 31.2525 62.668 30.7441V27.5334H62.6712Z" fill="#C51631"/>
        <path fill-rule="evenodd" clip-rule="evenodd" d="M49.3268 36.8263H44.9362C44.5972 36.4873 44.5972 35.8126 44.4278 35.3073C44.2583 32.2662 44.5972 29.0556 44.4278 26.0144C44.2583 25.6755 44.092 25.1702 43.753 25.0007C43.0783 24.6617 42.7393 24.6617 42.0646 24.6617H41.2203V35.8126C41.2203 36.3211 41.3898 36.4873 41.3898 36.8263H36.4907L36.6602 35.8126V9.45922L36.4907 8.61499H45.6142C46.9636 8.78448 48.1468 9.62871 48.8248 10.8119C49.1638 11.6561 49.1638 13.0056 49.1638 13.0056V17.5657C49.1638 17.5657 49.1638 20.0984 48.489 21.4511C48.15 21.9564 47.3058 22.4648 46.6311 22.4648V23.1396C46.97 23.1396 47.309 23.1396 47.6448 23.3091C48.9975 23.8143 48.9975 25.3365 49.167 26.686V36.3179C49.167 36.4842 49.167 36.6536 49.3364 36.8231L49.3268 36.8263ZM44.5972 16.3857V13.3446C44.2583 12.3309 43.5835 12.5004 43.2446 12.5004H41.2171V20.1016H43.0751C43.5803 20.1016 44.594 20.1016 44.594 19.2574V16.3857H44.5972Z" fill="#C51631"/>
        <path fill-rule="evenodd" clip-rule="evenodd" d="M21.2847 36.8263L21.6236 35.9821V9.28976C21.6236 9.12027 21.6236 8.95079 21.4542 8.7813V8.61182H30.9134V12.6667L30.4081 12.4972H26.3532V20.0985H30.4081L30.9134 19.929V24.4891C30.7439 24.3228 30.4081 24.1533 30.0691 24.1533H26.3532V32.7683H30.4081C30.5776 32.7683 30.9134 32.5988 30.9134 32.5988V36.8231H21.2847V36.8263Z" fill="#C51631"/>
        <path fill-rule="evenodd" clip-rule="evenodd" d="M177.371 36.9958L177.541 36.1515V9.45919C177.541 9.28971 177.541 9.12022 177.371 8.78125H187V12.8361L186.325 12.6666H182.44L182.27 20.2679H186.495L187 20.0984V24.6585C186.664 24.489 186.325 24.3227 185.986 24.3227H182.27V32.9377H186.325C186.495 32.9377 186.83 32.7682 186.83 32.7682V36.9926H177.371V36.9958Z" fill="#C51631"/>
        <path fill-rule="evenodd" clip-rule="evenodd" d="M104.227 33.9547C103.044 36.4874 100.342 37.3316 97.8091 37.1653C95.6121 36.9959 93.4184 36.1516 92.2352 34.2937C91.8963 33.6157 91.8963 32.941 91.73 32.2662L91.8995 13.0089C92.069 10.9814 94.0964 9.29298 95.9543 8.78452C98.487 8.10978 101.528 8.61503 103.386 10.6425C104.23 11.4867 104.739 12.3309 104.739 13.5141L104.569 32.0968C104.569 32.0968 104.739 33.28 104.23 33.9547H104.227ZM100.003 27.5334V14.3584C100.003 14.0194 99.8333 13.5141 99.4943 13.3446C98.9891 12.8394 97.9754 12.8394 97.4669 13.1752C96.9616 13.3446 96.6227 13.6836 96.6227 14.1889V30.0693C96.6227 30.9136 96.6227 31.4188 97.1279 31.9273C97.8027 32.0968 98.4774 32.2662 98.9859 31.9273C99.4911 31.7578 99.9996 31.2525 99.9996 30.7441V27.5334H100.003Z" fill="#C51631"/>
        <path fill-rule="evenodd" clip-rule="evenodd" d="M84.8004 25.0007C82.773 26.0144 80.4098 25.6755 78.0434 25.8449V36.4873C78.0434 36.6568 78.0434 36.8263 78.2129 36.8263H73.1443C73.1443 36.6568 73.3138 36.6568 73.3138 36.4873V9.45922C73.3138 9.28973 73.1443 8.95076 72.978 8.61499H81.0845C82.9425 8.78448 85.3089 8.78448 85.9836 10.9814C86.1531 11.3172 86.1531 16.3857 86.1531 16.3857V22.8038C85.9836 23.648 85.6447 24.6617 84.8004 25.0007ZM81.254 16.8942V13.853C80.9151 12.8393 80.2403 13.0088 79.9013 13.0088H78.0434V21.4575H79.7319C80.2403 21.4575 81.254 21.6238 81.254 20.6101V16.8942Z" fill="#C51631"/>
        <path fill-rule="evenodd" clip-rule="evenodd" d="M31.4186 0L20.6099 5.57383H31.4186V0Z" fill="#C51631"/>
    </g>
    <defs>
        <clipPath id="clip0_225_643">
            <rect width="187" height="37.1845" fill="white"/>
        </clipPath>
    </defs>
</svg>
