<svg width="154" height="100" viewBox="0 0 154 147" fill="none" xmlns="http://www.w3.org/2000/svg">
    <g clip-path="url(#clip0_225_659)">
        <path d="M154 0H0V147H154V0Z" fill="white"/>
        <path fill-rule="evenodd" clip-rule="evenodd" d="M24.4399 93.0656C24.8649 94.0594 24.9234 94.2093 25.3885 94.4827C25.7858 94.712 26.1246 94.712 26.1246 94.859C26.1246 94.9531 26.0661 94.9649 25.7858 94.9649C25.3023 94.9649 24.9789 94.912 23.9871 94.912H22.2931C22.1668 94.912 22.0775 94.9032 22.0775 94.7268C22.0775 94.5739 22.2069 94.5062 22.4471 94.4827C22.7705 94.4533 23.0446 94.371 23.0446 94.1299C23.0446 93.9947 22.9553 93.833 22.8968 93.6448L22.3208 91.8514C22.2931 91.7544 22.25 91.7133 21.9389 91.7133C21.5847 91.7133 21.1165 91.6603 20.1433 91.6603C19.7891 91.6603 19.6597 91.8338 19.4349 92.3748C19.1823 92.9392 18.785 93.7095 18.785 94.0211C18.785 94.4122 19.1145 94.4533 19.4503 94.4827C19.5919 94.4945 19.8753 94.5327 19.8753 94.7385C19.8753 94.912 19.749 94.9649 19.4349 94.9649C19.2685 94.9649 18.9821 94.912 18.4616 94.912C17.8949 94.912 17.4698 94.9649 16.8507 94.9649C16.7091 94.9649 16.6074 94.9531 16.6074 94.859C16.6074 94.6268 17.0047 94.6826 17.3589 94.4827C17.6423 94.321 17.8548 94.0858 17.9811 93.833L20.3989 88.8967C20.9502 87.7736 21.289 86.827 21.6155 86.0067H21.788L24.4429 93.0656H24.4399ZM21.172 88.7997C21.1473 88.735 21.0888 88.735 21.058 88.735C21.0026 88.735 20.9348 88.8173 20.8886 88.9232L20.1125 90.596C20.0539 90.7283 19.9954 90.8548 19.9954 90.9577C19.9954 91.0518 20.5498 91.0665 21.0149 91.0665C21.5662 91.0665 21.9759 91.0665 21.9759 90.9841C21.9759 90.9312 21.9605 90.8783 21.9481 90.8371L21.1689 88.7968L21.172 88.7997Z" fill="black"/>
        <path fill-rule="evenodd" clip-rule="evenodd" d="M32.3186 91.6075C32.4572 91.9191 32.6266 92.2131 32.7282 92.2131C32.8545 92.2131 33.0948 91.5663 32.95 91.8897L34.7888 87.4621C35.0598 86.8094 35.1861 86.6506 35.8206 86.6506H37.995C38.2507 86.6506 38.2753 86.7065 38.2753 86.8505C38.2753 86.9946 38.223 87.0857 37.6439 87.1357C36.9355 87.2004 36.8216 87.2269 36.8216 87.7267V93.5537C36.8216 94.127 36.991 94.3534 37.5854 94.4769C38.0659 94.568 38.2938 94.6798 38.2938 94.7591C38.2938 94.9297 38.2199 94.9885 37.8102 94.9885C37.456 94.9885 36.6799 94.9061 36.1717 94.9061C35.6327 94.9061 34.9674 94.9326 34.2498 94.9326C34.0804 94.9326 34.0249 94.9208 34.0249 94.7474C34.0249 94.5739 34.1912 94.5034 34.5762 94.4769C35.0844 94.4328 35.1553 94.274 35.1553 94.1123V88.7909C35.1553 88.5205 35.1368 88.4293 35.0998 88.4293C35.0259 88.4293 34.8873 88.7027 34.6902 89.1849L32.4018 94.5974C32.3586 94.7062 32.3032 94.7209 32.2016 94.7209C32.0907 94.7209 32.0445 94.6533 31.9613 94.4622L29.5281 89.1408C29.4172 88.8909 29.2078 88.4558 29.1216 88.4558C29.0538 88.4558 29.0538 88.5322 29.0538 88.591L28.9953 92.8658C28.9799 94.1917 29.1246 94.421 29.6051 94.4769C30.3813 94.5563 30.5106 94.5827 30.5106 94.7856C30.5106 94.9591 30.3967 94.9591 30.0702 94.9591C29.8022 94.9591 29.2509 94.9061 28.5271 94.9061C27.905 94.9061 27.5816 94.9591 27.2243 94.9591C26.9871 94.9591 26.9009 94.9473 26.9009 94.7856C26.9009 94.5827 26.9532 94.5181 27.5508 94.4769C27.9327 94.4475 28.1729 94.3299 28.216 93.4655L28.524 87.8913C28.5548 87.3739 28.4255 87.2239 27.7171 87.1328C27.1534 87.0505 27.1226 86.9858 27.1226 86.8211C27.1226 86.7006 27.1565 86.6212 27.4245 86.6212C27.6616 86.6212 28.2314 86.7006 28.598 86.7006C29.0507 86.7006 29.4018 86.6447 29.5435 86.6447C30.1102 86.6447 30.1472 86.683 30.2119 86.8035L32.3155 91.5986L32.3186 91.6075Z" fill="black"/>
        <path fill-rule="evenodd" clip-rule="evenodd" d="M40.4745 87.9236C40.4745 87.5973 40.4745 87.1534 40.0217 87.1122C39.301 87.0446 39.2425 86.9946 39.2425 86.8447C39.2425 86.68 39.301 86.6536 39.5258 86.6536C40.1357 86.6536 40.7701 86.7094 42.4949 86.7094C43.4005 86.7094 44.3583 86.6536 45.5749 86.6536C45.8614 86.6536 45.8891 86.6771 45.8891 87.7737C45.8891 88.2853 45.8891 88.5969 45.6766 88.5969C45.4487 88.5969 45.4363 88.2059 45.153 87.759C44.8973 87.3533 44.1058 87.1651 42.9077 87.1651C42.2855 87.1651 42.2547 87.2034 42.2547 87.9472V90.0405C42.2547 90.3109 42.3132 90.4021 43.1602 90.4021C44.0072 90.4021 44.152 90.2257 44.3337 89.9581C44.5585 89.6318 44.6725 89.1996 44.8819 89.1996C45.0914 89.1996 45.0821 89.5524 45.0821 89.5936C45.0821 89.9081 44.9682 90.6314 44.9682 91.1459C44.9682 91.6986 45.0298 91.9426 45.0298 92.0514C45.0298 92.169 44.9867 92.2366 44.8142 92.2366C44.6417 92.2366 44.6171 92.1867 44.4631 91.5487C44.3583 91.1459 44.0657 90.8607 42.8214 90.8607C42.3009 90.8607 42.2424 90.9313 42.2424 91.2694V93.8625C42.2424 94.3593 42.92 94.4534 43.5729 94.4534C44.1674 94.4534 44.3614 94.3593 44.6479 94.2094C45.6335 93.686 45.6335 92.8628 45.9599 92.8628C46.1417 92.8628 46.1417 92.9952 46.1417 93.1186C46.1417 93.3068 45.9723 93.836 45.9168 94.1623C45.8614 94.4563 45.7597 94.9679 45.6489 94.9679C44.4353 94.9679 43.8963 94.915 43.3481 94.915H40.3205C39.6275 94.915 39.4273 94.9679 39.3133 94.9679C39.1316 94.9679 38.9868 94.9297 38.9868 94.768C38.9868 94.4975 39.301 94.4975 39.4119 94.4857C40.3451 94.374 40.4745 94.3387 40.4745 92.9863V87.9236Z" fill="black"/>
        <path fill-rule="evenodd" clip-rule="evenodd" d="M48.5224 87.7472C48.5224 87.3415 48.2791 87.1681 48.0265 87.1416C47.2195 87.0593 47.1795 87.0446 47.1795 86.8829C47.1795 86.6918 47.2503 86.6536 47.4567 86.6536C48.0727 86.6536 49.4525 86.7094 49.7236 86.7094C49.9484 86.7094 51.2944 86.6536 51.9011 86.6536C53.1455 86.6536 54.6331 87.1269 54.6331 88.5587C54.6331 90.3139 52.9453 90.355 52.9453 90.6226C52.9453 90.7284 52.9884 90.796 53.0746 90.9342L54.8549 93.8507C55.0951 94.227 55.4216 94.4299 55.7203 94.5092C56.284 94.6592 56.3425 94.6709 56.3425 94.768C56.3425 94.8767 56.3271 94.915 56.2008 94.915H53.6968C53.5982 94.915 53.4873 94.8767 53.4319 94.768C53.1732 94.2652 52.8929 93.7566 52.8067 93.592C51.5038 91.093 51.1958 90.9077 50.6722 90.9077C50.2472 90.9077 50.1948 90.9607 50.1948 92.0279V93.5243C50.1948 94.2123 50.318 94.4563 50.5983 94.4857C51.4237 94.5651 51.5593 94.621 51.5593 94.7827C51.5593 94.9326 51.4884 94.9679 51.3344 94.9679C50.8385 94.9679 50.5459 94.915 49.3016 94.915H47.3643C47.0994 94.915 47.0532 94.9061 47.0532 94.7562C47.0532 94.5769 47.1795 94.5122 47.4906 94.4857C47.7616 94.4563 48.4238 94.4328 48.4238 93.8654C48.4238 93.592 48.5255 93.1451 48.5255 90.8578V87.7502L48.5224 87.7472ZM50.1948 90.1875C50.1948 90.4462 50.2626 90.4726 50.4443 90.4726C51.7009 90.4726 52.9637 90.405 52.9637 88.7762C52.9637 87.3151 51.5777 87.0887 50.6845 87.0887C50.2503 87.0887 50.1948 87.3974 50.1948 88.0148V90.1845V90.1875Z" fill="black"/>
        <path fill-rule="evenodd" clip-rule="evenodd" d="M58.4339 87.9001C58.4339 87.3415 58.3353 87.1681 57.7563 87.1416C57.4021 87.1298 57.3343 87.0593 57.3343 86.8976C57.3343 86.7359 57.4051 86.6565 57.7316 86.6565C58.0581 86.6565 58.4523 86.7124 59.1453 86.7124C60.2911 86.7124 60.4574 86.6565 60.9287 86.6565C61.2705 86.6565 61.3229 86.6947 61.3229 86.8153C61.3229 86.9358 61.2089 87.0358 60.8825 87.0593C60.1648 87.1122 60.1063 87.1945 60.1063 87.709V93.6478C60.1063 94.3446 60.3619 94.374 60.8701 94.4857C61.1658 94.5504 61.3352 94.5916 61.3352 94.8091C61.3352 94.9326 61.3075 94.9679 61.0087 94.9679C60.6237 94.9679 59.9184 94.915 58.8897 94.915C58.0766 94.915 57.6423 94.9679 57.2481 94.9679C57.0294 94.9679 57.0078 94.8767 57.0078 94.715C57.0078 94.5269 57.0663 94.5122 57.63 94.4857C58.1105 94.4563 58.4339 94.4416 58.4339 93.4185V87.9001Z" fill="black"/>
        <path fill-rule="evenodd" clip-rule="evenodd" d="M62.0836 90.9459C62.0836 87.6531 64.7971 86.4624 66.9069 86.4624C67.9942 86.4624 69.3894 86.774 69.4572 87.1651C69.488 87.3415 69.5403 88.0823 69.5403 88.2029C69.5403 88.2999 69.5126 88.3675 69.3617 88.3675C68.9859 88.3675 68.4623 86.8681 66.8669 86.8681C65.3608 86.8681 63.8824 88.391 63.8824 90.6872C63.8824 94.1828 66.0322 94.6444 66.6882 94.6444C68.527 94.6444 69.0937 92.8363 69.3986 92.8363C69.4972 92.8363 69.5496 92.9598 69.5496 93.0656C69.5496 93.2126 69.3586 94.1329 69.2939 94.4122C69.1584 94.9649 67.3997 95.156 66.7837 95.156C64.4984 95.156 62.0806 93.539 62.0806 90.9459H62.0836Z" fill="black"/>
        <path fill-rule="evenodd" clip-rule="evenodd" d="M78.2444 93.0656C78.6725 94.0594 78.728 94.2093 79.1961 94.4827C79.5873 94.712 79.9292 94.712 79.9292 94.859C79.9292 94.9531 79.8737 94.9649 79.5873 94.9649C79.1068 94.9649 78.7834 94.912 77.7916 94.912H76.0976C75.9683 94.912 75.8851 94.9032 75.8851 94.7268C75.8851 94.5739 76.0083 94.5062 76.2547 94.4827C76.5781 94.4533 76.8492 94.371 76.8492 94.1299C76.8492 93.9947 76.7629 93.833 76.7044 93.6448L76.1284 91.8514C76.1007 91.7544 76.0514 91.7133 75.7434 91.7133C75.3862 91.7133 74.9242 91.6603 73.9478 91.6603C73.5998 91.6603 73.4673 91.8338 73.2456 92.3748C72.9838 92.9392 72.5926 93.7095 72.5926 94.0211C72.5926 94.4122 72.9222 94.4533 73.2579 94.4827C73.3996 94.4945 73.6798 94.5327 73.6798 94.7385C73.6798 94.912 73.5536 94.9649 73.2456 94.9649C73.0731 94.9649 72.7897 94.912 72.2661 94.912C71.7056 94.912 71.2774 94.9649 70.6584 94.9649C70.5136 94.9649 70.415 94.9531 70.415 94.859C70.415 94.6268 70.8124 94.6826 71.1666 94.4827C71.4499 94.321 71.6594 94.0858 71.7887 93.833L74.2034 88.8967C74.7578 87.7736 75.0997 86.827 75.4231 86.0067H75.5925L78.2475 93.0656H78.2444ZM74.9765 88.7997C74.9519 88.735 74.8934 88.735 74.8656 88.735C74.8102 88.735 74.7394 88.8173 74.6993 88.9232L73.9201 90.596C73.8646 90.7283 73.8061 90.8548 73.8061 90.9577C73.8061 91.0518 74.3605 91.0665 74.8225 91.0665C75.3769 91.0665 75.7866 91.0665 75.7866 90.9841C75.7866 90.9312 75.7742 90.8783 75.7558 90.8371L74.9796 88.7968L74.9765 88.7997Z" fill="black"/>
        <path fill-rule="evenodd" clip-rule="evenodd" d="M82.0634 87.9883C82.0634 87.3679 81.8971 87.2768 80.9208 87.1386C80.7206 87.1092 80.6928 87.0857 80.6928 86.8946C80.6928 86.8035 80.7206 86.7094 80.9208 86.7094C82.9258 86.7094 83.2369 86.6917 83.7759 86.6535L87.1978 90.649C88.245 91.8632 88.7409 92.2425 88.9349 92.4306C88.9934 92.4865 89.0181 92.5012 89.0458 92.5012C89.0889 92.5012 89.1197 92.4747 89.1197 92.4453V88.1147C89.1197 87.2915 89.0181 87.1945 87.9863 87.1416C87.7337 87.1298 87.6906 87.0739 87.6906 86.9093C87.6906 86.7447 87.7306 86.63 88.0571 86.63C88.3836 86.63 88.9226 86.68 89.3692 86.68C90.133 86.68 90.5304 86.63 90.7552 86.63C90.98 86.63 91.0786 86.68 91.0786 86.8446C91.0786 86.9799 91.054 87.0063 90.3024 87.1416C89.9205 87.2062 89.8651 87.3532 89.822 88.0853C89.748 89.3936 89.7111 90.9195 89.7111 92.4718V95.156C89.7111 95.3736 89.6341 95.4294 89.5509 95.4294C89.2984 95.4294 89.1413 95.0355 88.5037 94.3475L82.738 88.1647C82.7072 88.1382 82.6486 88.1529 82.6486 88.1941V90.6901C82.6486 91.7544 82.7072 92.607 82.7072 93.4185C82.7072 94.08 82.8735 94.2916 83.7698 94.4857C84.164 94.5651 84.3026 94.6327 84.3026 94.7415C84.3026 94.9678 84.164 94.9678 83.9114 94.9678C83.4002 94.9678 82.9043 94.9149 82.3807 94.9149C81.7893 94.9149 81.4228 94.9678 81.0285 94.9678C80.7852 94.9678 80.6035 94.9678 80.6035 94.7679C80.6035 94.6209 80.7729 94.5092 81.1795 94.4857C81.7031 94.4416 81.9433 94.3622 81.9587 93.6184C81.9741 92.8746 82.0542 90.8401 82.0542 90.6784V87.9912L82.0634 87.9883Z" fill="black"/>
        <path fill-rule="evenodd" clip-rule="evenodd" d="M97.0815 87.9236C97.0815 87.5973 97.0815 87.1534 96.6349 87.1122C95.9081 87.0446 95.8526 86.9946 95.8526 86.8447C95.8526 86.68 95.9081 86.6536 96.136 86.6536C96.7427 86.6536 97.3772 86.7094 99.1082 86.7094C100.014 86.7094 100.972 86.6536 102.188 86.6536C102.475 86.6536 102.502 86.6771 102.502 87.7737C102.502 88.2853 102.502 88.5969 102.287 88.5969C102.062 88.5969 102.047 88.2059 101.763 87.759C101.508 87.3533 100.716 87.1651 99.5117 87.1651C98.8926 87.1651 98.8649 87.2034 98.8649 87.9472V90.0405C98.8649 90.3109 98.9203 90.4021 99.7642 90.4021C100.608 90.4021 100.759 90.2257 100.938 89.9581C101.163 89.6318 101.277 89.1996 101.489 89.1996C101.702 89.1996 101.689 89.5524 101.689 89.5936C101.689 89.9081 101.572 90.6314 101.572 91.1459C101.572 91.6986 101.634 91.9426 101.634 92.0514C101.634 92.169 101.591 92.2366 101.421 92.2366C101.252 92.2366 101.221 92.1867 101.067 91.5487C100.965 91.1459 100.67 90.8607 99.4254 90.8607C98.9018 90.8607 98.8433 90.9313 98.8433 91.2694V93.8625C98.8433 94.3593 99.524 94.4534 100.174 94.4534C100.768 94.4534 100.962 94.3593 101.249 94.2094C102.237 93.686 102.237 92.8628 102.564 92.8628C102.746 92.8628 102.746 92.9952 102.746 93.1186C102.746 93.3068 102.576 93.836 102.518 94.1623C102.465 94.4563 102.361 94.9679 102.25 94.9679C101.03 94.9679 100.497 94.915 99.9429 94.915H96.9214C96.2253 94.915 96.0282 94.9679 95.9142 94.9679C95.7325 94.9679 95.5908 94.9297 95.5908 94.768C95.5908 94.4975 95.8988 94.4975 96.0128 94.4857C96.946 94.374 97.0723 94.3387 97.0723 92.9863V87.9236H97.0815Z" fill="black"/>
        <path fill-rule="evenodd" clip-rule="evenodd" d="M111.447 93.0656C111.872 94.0594 111.93 94.2093 112.395 94.4827C112.789 94.712 113.131 94.712 113.131 94.859C113.131 94.9531 113.07 94.9649 112.789 94.9649C112.309 94.9649 111.982 94.912 110.997 94.912H109.297C109.17 94.912 109.084 94.9032 109.084 94.7268C109.084 94.5739 109.214 94.5062 109.454 94.4827C109.78 94.4533 110.048 94.371 110.048 94.1299C110.048 93.9947 109.965 93.833 109.907 93.6448L109.324 91.8514C109.297 91.7544 109.254 91.7133 108.942 91.7133C108.591 91.7133 108.12 91.6603 107.147 91.6603C106.793 91.6603 106.666 91.8338 106.442 92.3748C106.186 92.9392 105.789 93.7095 105.789 94.0211C105.789 94.4122 106.115 94.4533 106.454 94.4827C106.596 94.4945 106.879 94.5327 106.879 94.7385C106.879 94.912 106.75 94.9649 106.442 94.9649C106.269 94.9649 105.989 94.912 105.465 94.912C104.898 94.912 104.473 94.9649 103.848 94.9649C103.71 94.9649 103.608 94.9531 103.608 94.859C103.608 94.6268 104.002 94.6826 104.359 94.4827C104.64 94.321 104.855 94.0858 104.982 93.833L107.399 88.8967C107.951 87.7736 108.29 86.827 108.613 86.0067H108.782L111.437 93.0656H111.447ZM108.185 88.7997C108.154 88.735 108.099 88.735 108.071 88.735C108.012 88.735 107.941 88.8173 107.905 88.9232L107.122 90.596C107.064 90.7283 107.008 90.8548 107.008 90.9577C107.008 91.0518 107.56 91.0665 108.031 91.0665C108.579 91.0665 108.989 91.0665 108.989 90.9841C108.989 90.9312 108.973 90.8783 108.961 90.8371L108.185 88.7968V88.7997Z" fill="black"/>
        <path fill-rule="evenodd" clip-rule="evenodd" d="M121.142 94.2269C121.13 94.5768 119.344 95.156 117.785 95.156C115.506 95.156 113.061 93.9829 113.061 90.9459C113.061 87.9089 115.247 86.4624 117.964 86.4624C119.054 86.4624 120.721 86.6535 120.733 87.2062C120.745 87.6384 120.813 88.0588 120.813 88.4881C120.813 88.5733 120.757 88.6115 120.653 88.6115C120.53 88.6115 120.505 88.5851 120.314 88.1941C119.941 87.4003 119.254 86.8711 118.087 86.8711C116.042 86.8711 114.755 88.5821 114.755 90.9341C114.755 93.2861 116.578 94.6474 117.844 94.6474C119.43 94.6474 119.701 94.4974 119.701 92.3571C119.701 91.6662 119.664 91.478 119.017 91.4398C118.13 91.3869 118.118 91.3693 118.118 91.1929C118.118 91.0459 118.186 91.0018 118.454 91.0018H120.647C121.207 91.0018 121.651 90.9488 121.882 90.9488C122.125 90.9488 122.297 90.9488 122.297 91.1517C122.297 91.2869 122.245 91.3399 121.706 91.4398C121.318 91.5016 121.207 91.6133 121.195 92.2718L121.152 94.2299L121.142 94.2269Z" fill="black"/>
        <path fill-rule="evenodd" clip-rule="evenodd" d="M124.235 87.612C124.235 87.5032 124.034 87.1416 123.48 87.1416C122.99 87.1416 122.916 87.0064 122.916 86.8711C122.916 86.7212 123.006 86.6536 123.169 86.6536C123.794 86.6536 124.413 86.7094 125.042 86.7094C125.67 86.7094 126.283 86.6536 126.905 86.6536C127.201 86.6536 127.302 86.6771 127.302 86.9093C127.302 87.0064 127.213 87.1122 126.991 87.1416C126.283 87.221 125.901 87.2915 125.901 87.6385V93.6743C125.901 94.3622 125.972 94.4328 126.298 94.4328H127.29C129.44 94.4328 129.751 92.9628 130.074 92.9628C130.17 92.9628 130.268 92.9981 130.268 93.2539C130.268 93.7125 130.016 94.9679 129.76 94.9679C128.664 94.9679 126.692 94.915 125.691 94.915C125.057 94.915 124.139 94.9679 123.357 94.9679C122.99 94.9679 122.849 94.9679 122.849 94.7415C122.849 94.5269 123.289 94.5122 123.757 94.4328C124.192 94.3623 124.238 94.2917 124.238 92.8099V87.615L124.235 87.612Z" fill="black"/>
        <path fill-rule="evenodd" clip-rule="evenodd" d="M132.375 87.9236C132.375 87.5973 132.375 87.1534 131.925 87.1122C131.205 87.0446 131.149 86.9946 131.149 86.8447C131.149 86.68 131.205 86.6536 131.433 86.6536C132.039 86.6536 132.68 86.7094 134.405 86.7094C135.307 86.7094 136.268 86.6536 137.485 86.6536C137.768 86.6536 137.799 86.6771 137.799 87.7737C137.799 88.2853 137.799 88.5969 137.586 88.5969C137.362 88.5969 137.343 88.2059 137.06 87.759C136.807 87.3533 136.019 87.1651 134.818 87.1651C134.195 87.1651 134.168 87.2034 134.168 87.9472V90.0405C134.168 90.3109 134.223 90.4021 135.07 90.4021C135.917 90.4021 136.059 90.2257 136.24 89.9581C136.465 89.6318 136.582 89.1996 136.795 89.1996C137.007 89.1996 136.992 89.5524 136.992 89.5936C136.992 89.9081 136.878 90.6314 136.878 91.1459C136.878 91.6986 136.933 91.9426 136.933 92.0514C136.933 92.169 136.89 92.2366 136.718 92.2366C136.545 92.2366 136.527 92.1867 136.367 91.5487C136.268 91.1459 135.969 90.8607 134.731 90.8607C134.205 90.8607 134.152 90.9313 134.152 91.2694V93.8625C134.152 94.3593 134.83 94.4534 135.477 94.4534C136.074 94.4534 136.271 94.3593 136.552 94.2094C137.543 93.686 137.543 92.8628 137.87 92.8628C138.052 92.8628 138.052 92.9952 138.052 93.1186C138.052 93.3068 137.885 93.836 137.827 94.1623C137.771 94.4563 137.673 94.9679 137.559 94.9679C136.342 94.9679 135.803 94.915 135.258 94.915H132.23C131.537 94.915 131.337 94.9679 131.229 94.9679C131.045 94.9679 130.903 94.9297 130.903 94.768C130.903 94.4975 131.214 94.4975 131.328 94.4857C132.261 94.374 132.384 94.3387 132.384 92.9863V87.9236H132.375Z" fill="black"/>
        <path fill-rule="evenodd" clip-rule="evenodd" d="M45.3376 98.9838C47.8201 98.9838 49.471 100.674 49.471 102.482C49.471 104.29 47.8201 105.984 45.3376 105.984C42.8551 105.984 41.2012 104.288 41.2012 102.482C41.2012 100.677 42.8551 98.9838 45.3376 98.9838ZM45.3376 105.613C46.816 105.613 47.8694 104.44 47.8694 102.485C47.8694 100.245 46.816 99.3572 45.3376 99.3572C43.8592 99.3572 42.8058 100.245 42.8058 102.485C42.8058 104.44 43.8561 105.613 45.3376 105.613Z" fill="black"/>
        <path fill-rule="evenodd" clip-rule="evenodd" d="M51.1926 100.083C51.205 99.7541 51.1495 99.5924 50.8415 99.5924C50.1362 99.5924 50.127 99.5365 50.127 99.4072C50.127 99.1896 50.3179 99.1808 50.5243 99.1808H53.3117C53.5211 99.1808 53.5488 99.2337 53.5488 99.3778C53.5488 99.4895 53.518 99.5072 53.1638 99.5277C52.6064 99.5395 52.5355 99.5718 52.5263 100.498L52.4801 103.397C52.4431 105.225 53.2316 105.575 54.5098 105.575C55.6463 105.575 56.7305 105.161 56.752 103.947L56.8106 100.28C56.8229 99.8776 56.7767 99.7012 56.0467 99.5277C55.6956 99.4454 55.634 99.4219 55.634 99.3249C55.634 99.2161 55.6833 99.1396 55.8558 99.1396C56.0159 99.1396 56.2161 99.1837 56.4009 99.1837H58.1565C58.2489 99.1837 58.2489 99.2602 58.2489 99.3043C58.2489 99.4366 58.2243 99.4454 57.8824 99.5277C57.3958 99.663 57.2448 99.7894 57.2325 100.28L57.1648 103.747C57.1309 105.293 56.1976 105.99 54.2942 105.99C53.3486 105.99 51.091 105.758 51.128 103.958L51.1957 100.086L51.1926 100.083Z" fill="black"/>
        <path fill-rule="evenodd" clip-rule="evenodd" d="M65.0836 99.3307C66.1739 99.3307 65.7982 98.828 66.1062 98.828C66.1986 98.828 66.2448 98.8956 66.2448 99.1338C66.2448 100.698 66.1739 100.81 66.0261 100.81C65.9398 100.81 65.8906 100.742 65.8567 100.636C65.6873 99.9393 65.4594 99.7423 63.8732 99.7423C63.3958 99.7423 63.3311 99.7864 63.3311 100.004V104.682C63.3311 105.211 63.3865 105.44 63.7068 105.44C64.3752 105.44 64.5662 105.525 64.5662 105.666C64.5662 105.822 64.4522 105.828 64.2366 105.828C63.8855 105.828 63.0416 105.787 62.6874 105.787C62.1391 105.787 61.5816 105.869 61.0365 105.869C60.8055 105.869 60.7839 105.822 60.7839 105.731C60.7839 105.493 61.3753 105.587 61.7172 105.44C61.8434 105.384 61.979 105.005 61.979 104.82V100.372C61.979 99.7835 61.9574 99.7659 61.1012 99.7394C59.4534 99.6953 59.4041 100.936 59.0283 100.936C58.8928 100.936 58.8682 100.88 58.8682 100.813C58.8682 100.542 59.1731 99.8247 59.3794 99.2249C59.4811 98.9338 59.5273 98.8897 59.6566 98.8897C59.9616 98.8897 59.5365 99.3219 60.7685 99.3219H65.0744L65.0836 99.3307Z" fill="black"/>
        <path fill-rule="evenodd" clip-rule="evenodd" d="M69.3555 101.844C69.3555 102.041 69.4356 102.112 69.8083 102.112C70.9356 102.112 71.2097 101.897 71.3236 101.692C71.493 101.377 71.5084 101.136 71.6686 101.136C71.838 101.136 71.875 101.156 71.875 102.477C71.875 103.467 71.8596 103.506 71.6778 103.506C71.5516 103.506 71.5115 103.312 71.4284 103.094C71.3175 102.782 71.1419 102.485 70.0732 102.485C69.411 102.485 69.3555 102.529 69.3555 102.888V104.702C69.3555 105.261 69.5003 105.334 70.2395 105.446C70.6738 105.508 70.6922 105.564 70.6922 105.672C70.6922 105.813 70.6614 105.834 70.3842 105.834C69.8268 105.834 69.2816 105.793 68.7241 105.793C68.1666 105.793 67.64 105.834 67.104 105.834C66.9593 105.834 66.9131 105.772 66.9131 105.655C66.9131 105.502 66.9901 105.469 67.6276 105.446C67.7878 105.434 67.9356 105.39 67.9356 104.984C67.9356 103.359 68.0065 101.715 68.0065 100.083C68.0065 99.6659 67.8679 99.5366 67.5383 99.5248C67.0948 99.513 67.0825 99.4513 67.0825 99.3308C67.0825 99.1808 67.1872 99.1367 67.5168 99.1367C68.0866 99.1367 68.644 99.1808 69.1584 99.1808C69.8052 99.1808 71.5731 99.1367 72.0721 99.1367C72.5187 99.1367 72.5988 99.1455 72.5988 99.6483C72.5988 100.757 72.5772 100.763 72.4047 100.763C72.2538 100.763 72.2476 100.386 72.0875 100.122C71.7548 99.5777 70.6399 99.5248 70.184 99.5248C69.4664 99.5248 69.3524 99.5571 69.3524 100.242V101.844H69.3555Z" fill="black"/>
        <path fill-rule="evenodd" clip-rule="evenodd" d="M74.7545 100.136C74.7545 99.6894 74.6744 99.5483 74.2062 99.5248C73.9229 99.513 73.8643 99.4601 73.8643 99.3308C73.8643 99.2014 73.9229 99.1367 74.1847 99.1367C74.4588 99.1367 74.7699 99.1808 75.3212 99.1808C76.2452 99.1808 76.3807 99.1367 76.7565 99.1367C77.0306 99.1367 77.0768 99.1691 77.0768 99.2661C77.0768 99.3631 76.9844 99.4454 76.7226 99.4631C76.1435 99.5072 76.0973 99.5718 76.0973 99.9834V104.767C76.0973 105.334 76.3006 105.358 76.7103 105.446C76.9505 105.499 77.086 105.531 77.086 105.705C77.086 105.802 77.0645 105.834 76.8273 105.834C76.5162 105.834 75.9495 105.793 75.1179 105.793C74.468 105.793 74.1138 105.834 73.7966 105.834C73.6241 105.834 73.6025 105.758 73.6025 105.631C73.6025 105.478 73.6457 105.469 74.1015 105.446C74.4896 105.425 74.7545 105.414 74.7545 104.587V100.139V100.136Z" fill="black"/>
        <path fill-rule="evenodd" clip-rule="evenodd" d="M84.1273 99.3307C85.2207 99.3307 84.8449 98.828 85.1529 98.828C85.2391 98.828 85.2884 98.8956 85.2884 99.1338C85.2884 100.698 85.2176 100.81 85.0697 100.81C84.9804 100.81 84.9311 100.742 84.9003 100.636C84.7278 99.9393 84.4999 99.7423 82.9168 99.7423C82.4394 99.7423 82.3717 99.7864 82.3717 100.004V104.682C82.3717 105.211 82.4302 105.44 82.7474 105.44C83.4158 105.44 83.6129 105.525 83.6129 105.666C83.6129 105.822 83.4989 105.828 83.2833 105.828C82.9291 105.828 82.0852 105.787 81.7341 105.787C81.1858 105.787 80.6284 105.869 80.0832 105.869C79.8553 105.869 79.8307 105.822 79.8307 105.731C79.8307 105.493 80.4251 105.587 80.7639 105.44C80.8902 105.384 81.0257 105.005 81.0257 104.82V100.372C81.0257 99.7835 81.0041 99.7659 80.151 99.7394C78.5001 99.6953 78.4508 100.936 78.0781 100.936C77.9395 100.936 77.918 100.88 77.918 100.813C77.918 100.542 78.226 99.8247 78.4292 99.2249C78.5309 98.9338 78.5771 98.8897 78.7034 98.8897C79.0114 98.8897 78.5894 99.3219 79.8183 99.3219H84.1242L84.1273 99.3307Z" fill="black"/>
        <path fill-rule="evenodd" clip-rule="evenodd" d="M92.237 99.3307C93.3334 99.3307 92.9546 98.828 93.2626 98.828C93.3519 98.828 93.4043 98.8956 93.4043 99.1338C93.4043 100.698 93.3334 100.81 93.1825 100.81C93.0901 100.81 93.047 100.742 93.0162 100.636C92.8437 99.9393 92.6158 99.7423 91.0327 99.7423C90.5522 99.7423 90.4875 99.7864 90.4875 100.004V104.682C90.4875 105.211 90.543 105.44 90.8602 105.44C91.5316 105.44 91.7257 105.525 91.7257 105.666C91.7257 105.822 91.6117 105.828 91.393 105.828C91.0388 105.828 90.198 105.787 89.8438 105.787C89.2986 105.787 88.7442 105.869 88.1929 105.869C87.965 105.869 87.9434 105.822 87.9434 105.731C87.9434 105.493 88.5348 105.587 88.8736 105.44C88.9999 105.384 89.1385 105.005 89.1385 104.82V100.372C89.1385 99.7835 89.1138 99.7659 88.2607 99.7394C86.6067 99.6953 86.5605 100.936 86.1878 100.936C86.0554 100.936 86.0308 100.88 86.0308 100.813C86.0308 100.542 86.3388 99.8247 86.542 99.2249C86.6468 98.9338 86.6899 98.8897 86.8162 98.8897C87.1211 98.8897 86.7022 99.3219 87.9311 99.3219H92.2339L92.237 99.3307Z" fill="black"/>
        <path fill-rule="evenodd" clip-rule="evenodd" d="M95.1692 100.16C95.1692 99.8952 95.1692 99.5365 94.8057 99.5071C94.2236 99.4542 94.1774 99.4072 94.1774 99.2896C94.1774 99.1602 94.2236 99.1396 94.4053 99.1396C94.895 99.1396 95.4094 99.1837 96.7954 99.1837C97.5254 99.1837 98.3015 99.1396 99.281 99.1396C99.5058 99.1396 99.5274 99.1602 99.5274 100.039C99.5274 100.451 99.5274 100.704 99.358 100.704C99.1762 100.704 99.167 100.389 98.9391 100.028C98.7296 99.7041 98.0921 99.5512 97.125 99.5512C96.626 99.5512 96.6014 99.5836 96.6014 100.183V101.868C96.6014 102.086 96.6445 102.162 97.3313 102.162C98.0182 102.162 98.129 102.021 98.2769 101.803C98.4617 101.545 98.5479 101.195 98.7204 101.195C98.8929 101.195 98.8775 101.48 98.8775 101.509C98.8775 101.759 98.7912 102.347 98.7912 102.759C98.7912 103.206 98.8374 103.4 98.8374 103.488C98.8374 103.585 98.8005 103.641 98.665 103.641C98.5294 103.641 98.5048 103.594 98.3785 103.082C98.3015 102.756 98.0582 102.527 97.0603 102.527C96.6383 102.527 96.5921 102.582 96.5921 102.853V104.94C96.5921 105.343 97.1404 105.419 97.6609 105.419C98.1414 105.419 98.3015 105.343 98.5264 105.223C99.3241 104.796 99.3241 104.135 99.5859 104.135C99.7368 104.135 99.7368 104.243 99.7368 104.343C99.7368 104.493 99.5951 104.917 99.5551 105.178C99.5058 105.422 99.4288 105.831 99.3364 105.831C98.357 105.831 97.9258 105.79 97.4792 105.79H95.046C94.4823 105.79 94.3252 105.831 94.2328 105.831C94.0912 105.831 93.9741 105.802 93.9741 105.669C93.9741 105.452 94.2236 105.452 94.3129 105.443C95.0644 105.355 95.1692 105.32 95.1692 104.235V100.16Z" fill="black"/>
        <path fill-rule="evenodd" clip-rule="evenodd" d="M101.729 100.019C101.729 99.6894 101.532 99.5483 101.329 99.5277C100.682 99.4631 100.642 99.4542 100.642 99.3249C100.642 99.172 100.701 99.1396 100.873 99.1396C101.363 99.1396 102.478 99.1837 102.693 99.1837C102.875 99.1837 103.956 99.1396 104.446 99.1396C105.447 99.1396 106.645 99.5189 106.645 100.671C106.645 102.088 105.29 102.118 105.29 102.338C105.29 102.424 105.324 102.479 105.395 102.588L106.827 104.937C107.021 105.237 107.283 105.405 107.526 105.469C107.979 105.587 108.022 105.596 108.022 105.675C108.022 105.758 108.013 105.796 107.911 105.796H105.894C105.817 105.796 105.724 105.758 105.678 105.675C105.472 105.272 105.247 104.861 105.176 104.732C104.132 102.718 103.879 102.565 103.457 102.565C103.115 102.565 103.069 102.609 103.069 103.47V104.676C103.069 105.228 103.174 105.425 103.399 105.446C104.058 105.508 104.178 105.555 104.178 105.687C104.178 105.805 104.119 105.834 103.993 105.834C103.593 105.834 103.353 105.793 102.352 105.793H100.793C100.574 105.793 100.541 105.781 100.541 105.661C100.541 105.522 100.639 105.469 100.895 105.446C101.113 105.425 101.646 105.402 101.646 104.946C101.646 104.732 101.726 104.37 101.726 102.524V100.022L101.729 100.019ZM103.072 101.989C103.072 102.194 103.131 102.218 103.276 102.218C104.289 102.218 105.308 102.159 105.308 100.845C105.308 99.6689 104.19 99.4866 103.47 99.4866C103.115 99.4866 103.072 99.7335 103.072 100.233V101.989Z" fill="black"/>
        <path fill-rule="evenodd" clip-rule="evenodd" d="M112.928 100.498C112.928 100.616 112.885 100.668 112.783 100.668C112.494 100.668 112.531 99.3778 111.163 99.3778C110.141 99.3778 109.842 100.01 109.842 100.507C109.842 101.712 113.455 101.542 113.455 103.894C113.455 104.661 113.067 105.987 110.889 105.987C109.897 105.987 108.761 105.755 108.761 105.29C108.761 104.799 108.77 103.917 109.032 103.917C109.294 103.917 109.183 104.438 109.583 104.911C109.857 105.234 110.495 105.593 111.191 105.593C112.146 105.593 112.568 105.04 112.568 104.476C112.568 102.815 109.026 103.094 109.026 100.821C109.026 99.713 109.789 98.9868 111.397 98.9868C112.217 98.9868 112.934 99.1368 112.934 99.4337V100.498H112.928Z" fill="black"/>
        <path fill-rule="evenodd" clip-rule="evenodd" d="M52.6373 45.0408C52.816 45.9345 52.7359 47.0782 53.4412 47.4721C53.4474 46.2344 52.8868 43.5472 53.7769 42.6123C53.8447 43.9118 53.9402 45.1848 54.6486 45.8728C54.7286 44.5233 54.2851 42.286 55.3847 41.5892C55.1198 44.6762 56.0715 47.0429 58.1998 48.0484C58.2953 48.0337 58.1382 47.7309 58.1998 47.5368C60.7747 50.3798 64.5754 51.5764 67.3104 54.1871C70.0301 56.7831 70.7108 60.9021 73.877 63.2041C76.8708 62.2133 77.4005 59.0322 78.4323 56.1687C79.1808 54.0901 80.4282 52.0556 82.0513 50.5415C83.6714 49.0274 86.0184 48.1013 87.9464 47.087C89.9392 46.0404 92.1044 45.079 93.8416 43.6972C94.2266 43.3914 94.4452 42.8534 95.1136 42.6741C95.0736 43.9618 93.9709 44.7791 93.4381 45.8081C94.6516 45.5317 95.6033 44.688 96.5212 43.953C97.0047 43.5649 97.4513 43.1886 97.861 42.7387C98.249 42.3124 98.5047 41.7333 99.0683 41.4598C99.1238 43.0092 98.1043 44.0412 97.1926 44.9143C96.4873 45.5876 95.554 46.0786 94.9812 46.8342C95.7173 47.0605 96.3918 46.5196 96.9246 46.1932C98.095 45.4788 99.0806 44.6292 100.072 43.7001C100.556 43.2474 100.996 42.6711 101.612 42.4212C101.403 45.076 98.9882 46.1815 97.5252 47.8573C99.2962 47.481 100.99 46.1344 102.349 45.3642C101.742 47.8749 98.7049 48.069 96.9893 49.5213C97.861 49.9564 98.7942 49.3655 99.5365 49.0744C100.356 48.751 101.117 48.3453 101.948 48.1807C101.662 50.5503 98.4831 50.715 96.7214 51.891C97.8394 52.3467 99.1669 51.4353 100.34 51.3147C100.051 52.0497 99.2747 52.4025 98.5324 52.723C97.7655 53.0523 96.8168 53.0611 96.2563 53.6197C96.4349 54.1224 97.2234 53.7549 97.6608 53.7461C97.5807 54.7134 96.1639 54.4047 95.4493 54.7692C95.6526 55.1103 96.2409 55.0779 96.6567 55.2161C96.3548 56.2304 94.1342 55.4101 93.6414 56.2392C93.7861 56.6126 94.4822 56.4597 94.8487 56.6214C94.5007 57.3123 92.8498 56.7625 92.5048 57.4534C92.511 57.768 93.0654 57.8944 93.0408 58.0297C92.8159 58.603 91.3129 57.9591 91.165 58.6059C91.1958 58.8529 91.4638 58.8735 91.6332 58.9881C91.4946 59.5585 90.4874 59.2998 90.1579 59.6908C90.0747 60.0612 90.5583 59.9613 90.626 60.0112C90.626 60.5875 89.9608 60.5257 89.7544 60.9079C89.6897 61.3313 90.1394 61.2637 90.0901 61.6753C89.7852 61.737 89.2924 61.6371 89.2185 62.0604C89.2986 62.4544 89.6682 62.569 89.5542 63.1482C89.1815 63.0747 88.8273 63.1071 88.6826 63.404C88.7657 63.7744 89.2893 63.7215 89.1507 64.3007C88.8366 64.2154 88.393 64.2125 88.3468 64.5565C88.4516 65.0533 89.1384 64.9945 89.0183 65.706C88.5132 65.5531 87.9126 65.6678 87.7462 66.0265C87.854 66.4587 88.2852 66.5763 88.2144 67.176C88.0358 67.2995 87.814 66.9202 87.546 67.1113C87.469 67.4553 88.0327 67.8963 87.7462 68.4549C87.4074 68.3961 87.3489 68.0668 86.8746 68.1345C86.6744 68.6166 87.2504 68.99 87.007 69.5427C86.8376 69.6074 86.4034 69.234 86.1354 69.5427C86.1477 70.0631 86.4064 70.3483 86.3356 70.951C85.7658 71.0274 85.6087 70.707 85.196 70.6305C85.002 70.9392 85.3531 71.4949 85.1282 71.8447C84.8141 71.9153 84.1704 71.2567 83.7207 71.6536C83.5636 72.0858 84.0687 72.1358 83.9209 72.3563C82.0421 72.4004 81.8942 70.7952 80.4374 70.4365C81.6478 72.8002 82.9076 74.7259 84.925 76.193C86.0861 77.0368 88.2206 77.4337 88.1405 79.5181C87.4413 79.5328 87.4444 80.2178 86.7329 80.2208C86.5142 80.4178 86.4896 80.797 86.197 80.9235C85.8366 80.944 85.6457 80.8088 85.3931 80.7324C85.0358 80.7735 85.002 81.1234 84.7248 81.2439C83.9116 80.8029 83.5205 81.7084 82.9137 81.7555C82.6057 81.779 82.4209 81.485 82.0421 81.435C81.6263 81.3821 81.1735 81.7261 80.8347 81.6908C80.2926 81.632 79.8614 80.5883 78.959 81.2439C78.5555 81.1587 78.574 80.6736 78.2229 80.5413C77.9796 80.4972 77.9672 80.6794 77.7547 80.6677C77.4806 80.506 77.2373 80.1061 76.7506 80.3472C76.4272 80.1738 76.3903 79.5799 75.8112 79.8357C75.7188 79.6651 75.7312 79.4005 75.6788 79.1947C75.5618 79.0036 75.263 79.2859 75.2106 79.133C74.8872 77.5483 77.2034 76.9662 76.5504 75.4874C75.7373 75.7579 75.3462 76.4282 75.2106 77.3425C74.955 77.3719 75.0012 77.1162 74.8749 77.0221C74.6162 77.4984 74.4191 78.0364 74.4068 78.7479C74.1912 78.6126 74.108 78.351 74.0064 78.1069C73.4212 78.5303 72.9838 79.0948 72.7343 79.8327C72.531 79.6857 72.6265 79.2535 72.3308 79.1918C71.6748 79.3417 71.6625 80.1326 71.8627 80.4707C72.2662 81.1616 74.5176 81.3409 73.4704 82.711C73.3349 82.4787 73.2918 82.1583 73.07 82.0083C72.3709 82.1847 71.8473 81.7555 71.4623 81.4321C70.0978 81.3468 69.2139 81.7173 69.1184 82.8403C68.7519 82.7051 68.5732 81.9848 68.8504 81.6261C68.4038 81.6467 68.1328 81.8378 68.0466 82.2024C67.6646 82.0465 67.6954 81.5409 67.911 81.2439C67.3874 81.1851 67.2766 81.8172 66.9716 81.7555C66.5466 80.453 68.4531 80.3884 69.5188 80.0914C69.4048 79.671 69.0322 79.8621 68.6472 79.7063C67.7324 79.3388 66.4142 77.9864 65.6996 79.1947C65.3084 78.939 65.5733 78.301 65.8351 78.1069C65.2037 77.9541 64.9296 78.4774 64.6955 78.4921C64.6616 77.9688 64.9204 77.7277 65.1637 77.469C64.8341 77.2396 64.2828 77.4543 63.9563 77.5983C64.3044 76.4605 65.447 76.8369 66.368 77.2161C66.7068 77.3543 67.2026 77.76 67.5753 77.7277C68.1759 77.6718 68.6225 76.0695 68.9151 75.2316C69.4233 73.7793 70.3381 72.5121 70.1194 70.4982C69.95 68.9312 68.795 68.0374 67.1718 68.5167C66.9994 68.5666 66.8762 68.7048 66.7037 68.7724C65.9552 69.0635 64.8064 68.8401 64.2243 69.4134C63.984 69.1782 64.4584 68.8518 64.1565 68.7107C63.6268 68.8224 63.5066 69.3281 63.4204 69.8632C62.6781 69.4339 62.6566 67.9875 63.3526 67.4965C63.288 66.5233 63.6483 66.003 64.292 65.5149C65.2345 64.7976 67.4121 64.4918 67.5753 63.6598C67.7755 62.6425 66.2602 60.9021 65.7674 60.3993C63.2264 57.7974 59.053 56.6626 55.5849 55.1544C55.782 55.0221 56.2317 55.1308 56.4565 55.025C55.8867 54.3753 54.9011 54.1224 54.513 53.2992C54.8087 53.3169 55.0305 53.4021 55.3847 53.3639C54.7718 52.6701 53.4042 52.1438 52.973 51.0619C53.4042 51.056 53.8324 51.6058 54.3806 51.7028C53.2595 50.6826 52.3108 48.7863 52.3047 46.7783C52.3047 46.252 52.3201 45.4553 52.6404 45.0525L52.6373 45.0408ZM69.1184 78.5509C69.6174 78.7567 69.7159 79.3447 69.9223 79.8298C70.4798 79.3711 70.9356 78.5068 70.6584 77.4631C69.836 77.5307 69.5065 78.0687 69.1184 78.5509Z" fill="black"/>
    </g>
    <defs>
        <clipPath id="clip0_225_659">
            <rect width="154" height="147" fill="white"/>
        </clipPath>
    </defs>
</svg>
