<svg width="187" height="51" viewBox="0 0 187 51" fill="none" xmlns="http://www.w3.org/2000/svg">
    <path fill-rule="evenodd" clip-rule="evenodd" d="M9.22674 7.365C4.44477 12.1483 4.44564 19.9004 9.22703 24.6821C14.0093 29.4642 21.762 29.4642 26.5446 24.6821C31.326 19.9004 31.326 12.1476 26.5446 7.36471C21.762 2.58389 14.009 2.58303 9.22674 7.365Z" fill="#0039A6"/>
    <path fill-rule="evenodd" clip-rule="evenodd" d="M35.0622 7.51834C42.2518 14.7077 42.2518 26.3646 35.0622 33.5543C27.8727 40.7432 16.2155 40.7432 9.0261 33.5543C4.69309 29.2211 2.97259 23.2663 3.86213 17.6438C4.21317 20.6996 5.55964 23.662 7.90311 26.0052C13.4165 31.5185 22.3545 31.5185 27.8676 26.0052C33.38 20.4925 33.38 11.5547 27.8679 6.04083C25.818 3.99156 23.2943 2.70483 20.6497 2.1795C25.8147 1.78969 31.1122 3.56877 35.0622 7.51834Z" fill="#74C6C8"/>
    <path d="M58.5837 29.4822H49.5955L47.4914 33.7708H40.5547L53.3399 8.80273H63.4755L65.7689 33.7708H58.9676L58.5837 29.4822ZM58.284 24.6186L57.5221 13.8009L57.4399 13.8022L52.0843 24.6186H58.284Z" fill="#12110B"/>
    <path d="M85.752 16.2881L77.7228 33.7708H68.7341L67.6406 16.2881H73.6233L73.8692 29.9457L74.0365 29.9488L79.831 16.2881H85.752Z" fill="#12110B"/>
    <path d="M94.0237 33.7707L94.7876 31.1764H94.5673C93.8403 33.0332 91.9643 33.9612 88.9415 33.9612C87.2843 33.9612 86.0639 33.7797 85.2809 33.4158C84.1335 32.8697 83.5605 31.8672 83.5605 30.41C83.5605 29.7916 83.6238 29.173 83.7503 28.5534C84.1866 26.5132 85.033 25.0662 86.2872 24.2094C87.4322 23.427 89.0785 23.0345 91.2256 23.0345C92.5156 23.0345 93.4246 23.1156 93.9536 23.2811C94.952 23.5715 95.4985 24.1465 95.589 25.0004L95.8611 24.9962L96.4822 22.2438C96.5907 21.7324 96.6456 21.3051 96.6456 20.9578C96.6456 20.0469 95.9166 19.5939 94.4594 19.5939C92.8925 19.5939 91.9643 20.221 91.6726 21.4774H85.963C86.4923 19.073 87.6668 17.4998 89.4879 16.7517C90.5806 16.3147 92.4749 16.0947 95.1703 16.0947C97.7935 16.0947 99.6048 16.3225 100.606 16.78C101.808 17.3433 102.409 18.447 102.409 20.0846C102.409 20.8851 102.3 21.8063 102.082 22.8438L99.7315 33.7706L94.0237 33.7707ZM92.4111 26.5326C90.7525 26.5326 89.7876 27.1517 89.5156 28.3899C89.4965 28.5709 89.4878 28.7453 89.4878 28.9063C89.4878 29.8188 90.198 30.275 91.6175 30.275C92.7487 30.275 93.5131 30.1832 93.9135 29.9998C94.5872 29.7109 95.0249 29.0906 95.224 28.1437C95.2426 28.0338 95.2523 27.8981 95.2523 27.7327C95.2523 27.1692 94.8884 26.8047 94.1594 26.6411C93.8487 26.5688 93.2657 26.5326 92.4111 26.5326Z" fill="#12110B"/>
    <path d="M106.445 16.288H112.172L111.47 19.5383H111.716C112.353 18.282 113.154 17.3791 114.12 16.8324C115.012 16.3432 116.196 16.0947 117.672 16.0947C120.767 16.0947 122.315 17.3349 122.315 19.811C122.315 20.3224 122.243 20.9509 122.096 21.6958L119.529 33.7707H113.803L116.12 23.0074C116.188 22.5892 116.224 22.2438 116.224 21.9705C116.224 20.9862 115.564 20.495 114.247 20.495C113.076 20.495 112.189 20.8217 111.585 21.4757C111.091 22.0224 110.716 22.9127 110.46 24.1492L108.429 33.7706H102.701L106.445 16.288Z" fill="#12110B"/>
    <path d="M140.717 21.2587H135.309C135.363 20.6038 135.153 20.1662 134.682 19.9478C134.443 19.8383 133.979 19.7826 133.287 19.7826C131.884 19.7826 130.993 19.8842 130.61 20.0851C130.319 20.2488 130.108 20.614 129.982 21.1768C129.944 21.3776 129.928 21.5601 129.928 21.7249C129.928 22.3426 130.847 22.671 132.686 22.7081C135.509 22.7799 137.402 22.9889 138.37 23.3344C139.662 23.8099 140.308 24.7646 140.308 26.204C140.308 26.7151 140.226 27.3413 140.061 28.0891C139.57 30.4207 138.386 32.0415 136.51 32.9509C135.071 33.6255 132.994 33.9615 130.281 33.9615C127.623 33.9615 125.855 33.8161 124.983 33.5245C123.452 33.0333 122.688 31.9128 122.688 30.1647C122.688 29.6179 122.771 28.9987 122.933 28.3079H128.642C128.607 28.5263 128.588 28.7358 128.588 28.9355C128.588 29.5358 128.843 29.9288 129.353 30.111C129.663 30.2195 130.228 30.2752 131.048 30.2752C132.175 30.2752 132.876 30.2377 133.15 30.1647C133.823 29.983 134.235 29.5087 134.38 28.7455C134.416 28.5077 134.435 28.2982 134.435 28.1167C134.435 27.6061 134.207 27.2778 133.751 27.1323C133.459 27.0613 132.796 27.0238 131.758 27.0238C129.535 27.0238 127.942 26.8958 126.978 26.6411C125.045 26.1487 124.081 25.1206 124.081 23.5531C124.081 23.0266 124.154 22.4437 124.3 21.8063C124.828 19.291 126.003 17.6447 127.823 16.8602C128.989 16.3516 131.075 16.0947 134.079 16.0947C136.156 16.0947 137.676 16.2417 138.641 16.5336C140.226 17.007 141.017 17.9531 141.017 19.3739C141.017 19.6284 140.973 19.9756 140.881 20.4124L140.717 21.2587Z" fill="#12110B"/>
    <path d="M151.936 33.7707L152.702 31.1764H152.483C151.754 33.0332 149.878 33.9612 146.855 33.9612C145.198 33.9612 143.978 33.7797 143.195 33.4158C142.047 32.8697 141.475 31.8672 141.475 30.41C141.475 29.7916 141.538 29.173 141.665 28.5534C142.101 26.5132 142.947 25.0662 144.202 24.2094C145.347 23.427 146.994 23.0345 149.138 23.0345C150.43 23.0345 151.338 23.1156 151.867 23.2811C152.866 23.5715 153.412 24.1465 153.503 25.0004L153.776 24.9962L154.397 22.2438C154.505 21.7324 154.559 21.3051 154.559 20.9578C154.559 20.0469 153.831 19.5939 152.374 19.5939C150.807 19.5939 149.878 20.221 149.588 21.4774H143.878C144.406 19.073 145.58 17.4998 147.401 16.7517C148.495 16.3147 150.388 16.0947 153.084 16.0947C155.705 16.0947 157.518 16.3225 158.52 16.78C159.721 17.3433 160.323 18.447 160.323 20.0846C160.323 20.8851 160.213 21.8063 159.996 22.8438L157.646 33.7706L151.936 33.7707ZM150.325 26.5326C148.668 26.5326 147.701 27.1517 147.429 28.3899C147.411 28.5709 147.402 28.7453 147.402 28.9063C147.402 29.8188 148.113 30.275 149.532 30.275C150.662 30.275 151.427 30.1832 151.828 29.9998C152.5 29.7109 152.938 29.0906 153.138 28.1437C153.158 28.0338 153.166 27.8981 153.166 27.7327C153.166 27.1692 152.801 26.8047 152.073 26.6411C151.762 26.5688 151.18 26.5326 150.325 26.5326Z" fill="#12110B"/>
    <path d="M178.754 21.2587H173.345C173.4 20.6038 173.189 20.1662 172.715 19.9478C172.479 19.8383 172.014 19.7826 171.324 19.7826C169.92 19.7826 169.029 19.8842 168.647 20.0851C168.354 20.2488 168.144 20.614 168.018 21.1768C167.98 21.3776 167.962 21.5601 167.962 21.7249C167.962 22.3426 168.882 22.671 170.722 22.7081C173.545 22.7799 175.44 22.9889 176.404 23.3344C177.696 23.8099 178.344 24.7646 178.344 26.204C178.344 26.7151 178.262 27.3413 178.097 28.0891C177.606 30.4207 176.422 32.0415 174.545 32.9509C173.108 33.6255 171.032 33.9615 168.317 33.9615C165.659 33.9615 163.893 33.8161 163.018 33.5245C161.488 33.0333 160.725 31.9128 160.725 30.1647C160.725 29.6179 160.806 28.9987 160.971 28.3079H166.68C166.642 28.5263 166.625 28.7358 166.625 28.9355C166.625 29.5358 166.879 29.9288 167.389 30.111C167.699 30.2195 168.263 30.2752 169.082 30.2752C170.212 30.2752 170.912 30.2377 171.187 30.1647C171.86 29.983 172.269 29.5087 172.417 28.7455C172.452 28.5077 172.47 28.2982 172.47 28.1167C172.47 27.6061 172.242 27.2778 171.788 27.1323C171.495 27.0613 170.83 27.0238 169.794 27.0238C167.571 27.0238 165.978 26.8958 165.012 26.6411C163.082 26.1487 162.117 25.1206 162.117 23.5531C162.117 23.0266 162.189 22.4437 162.336 21.8063C162.865 19.291 164.037 17.6447 165.859 16.8602C167.025 16.3516 169.109 16.0947 172.115 16.0947C174.191 16.0947 175.711 16.2417 176.676 16.5336C178.262 17.007 179.054 17.9531 179.054 19.3739C179.054 19.6284 179.008 19.9756 178.917 20.4124L178.754 21.2587Z" fill="#12110B"/>
    <path d="M180.501 16.6987C179.925 16.6987 179.451 16.5207 179.079 16.162C178.706 15.8074 178.52 15.3403 178.52 14.767C178.52 14.6084 178.539 14.4368 178.578 14.2552C178.719 13.5775 179.075 12.9998 179.646 12.5224C180.22 12.045 180.851 11.8057 181.543 11.8057C182.115 11.8057 182.587 11.9863 182.96 12.3456C183.331 12.7043 183.517 13.1718 183.517 13.7382C183.517 13.9218 183.503 14.0937 183.47 14.2552C183.326 14.9244 182.967 15.5025 182.391 15.9781C181.814 16.4576 181.186 16.6987 180.501 16.6987ZM180.616 16.141C181.147 16.141 181.634 15.9558 182.08 15.5867C182.526 15.2188 182.804 14.7747 182.912 14.255C182.937 14.1322 182.95 14.0023 182.95 13.8648C182.95 13.4233 182.804 13.0607 182.518 12.7823C182.229 12.5044 181.864 12.3635 181.422 12.3635C180.888 12.3635 180.402 12.5484 179.962 12.9164C179.524 13.2858 179.248 13.7303 179.135 14.255C179.105 14.394 179.09 14.5262 179.09 14.6502C179.09 15.0951 179.231 15.4551 179.517 15.7295C179.804 16.003 180.17 16.141 180.616 16.141ZM181.524 14.471L181.909 15.532H181.311L180.97 14.5003H180.501L180.279 15.532H179.749L180.287 13.0152H181.543C181.8 13.0152 181.987 13.04 182.104 13.0892C182.291 13.1672 182.384 13.3141 182.384 13.5346C182.384 13.605 182.375 13.689 182.354 13.7865C182.264 14.2093 181.987 14.4384 181.524 14.471ZM180.584 14.0962H181.323C181.48 14.0962 181.598 14.07 181.678 14.0195C181.756 13.9659 181.808 13.8667 181.834 13.719C181.844 13.6941 181.849 13.6692 181.849 13.6446C181.849 13.5467 181.792 13.4821 181.679 13.4485C181.607 13.4304 181.497 13.4194 181.342 13.4194H180.733L180.584 14.0962Z" fill="#12110B"/>
    <path d="M115.028 41.0913C114.718 40.787 114.249 40.6338 113.619 40.6338C113.265 40.6338 112.953 40.6744 112.681 40.7585C112.409 40.8411 112.173 40.9653 111.97 41.1299C111.569 41.4646 111.341 41.9345 111.288 42.5394C111.253 42.9389 111.308 43.2827 111.453 43.5722C111.526 43.7183 111.64 43.8714 111.791 44.0317C111.944 44.1914 112.143 44.3647 112.387 44.5473L112.45 44.5985C112.946 44.9895 113.18 45.3398 113.153 45.6473C113.131 45.8924 113.055 46.0759 112.922 46.1999C112.791 46.324 112.602 46.3873 112.357 46.3873C112.096 46.3873 111.912 46.3135 111.803 46.1682C111.694 46.0228 111.656 45.7915 111.683 45.4709L111.705 45.2183C111.711 45.1582 111.714 45.1162 111.717 45.0935L111.721 45.0244L110.436 45.0199L110.374 45.3417L110.331 45.6473C110.276 46.2678 110.406 46.7337 110.72 47.0438C110.906 47.2268 111.157 47.3542 111.47 47.4303L111.205 48.2918H112.527L112.778 47.4639C113.226 47.3878 113.603 47.2197 113.904 46.9542C114.326 46.5837 114.565 46.0674 114.624 45.4051C114.656 45.049 114.588 44.72 114.424 44.4182C114.259 44.1191 113.982 43.8191 113.594 43.5231L113.332 43.3357C112.902 43.0202 112.702 42.7003 112.73 42.3779C112.749 42.1673 112.822 42.0044 112.948 41.8874C113.076 41.7702 113.236 41.7115 113.429 41.7115C113.711 41.7115 113.898 41.7832 113.987 41.926C114.085 42.0695 114.116 42.3403 114.081 42.739L114.065 42.9258H115.373L115.401 42.6149L115.418 42.4172C115.468 41.8384 115.339 41.3963 115.028 41.0913Z" fill="#0039A6"/>
    <path d="M136.637 41.0916C136.327 40.7873 135.857 40.6328 135.228 40.6328C134.875 40.6328 134.561 40.6748 134.291 40.7581C134.02 40.8414 133.782 40.9656 133.58 41.1302C133.177 41.4649 132.95 41.9349 132.897 42.5398C132.862 42.9393 132.917 43.2831 133.062 43.5725C133.135 43.7186 133.249 43.8718 133.402 44.032C133.553 44.1917 133.752 44.365 133.997 44.5477L134.06 44.5989C134.554 44.9898 134.788 45.3387 134.761 45.6477C134.741 45.8914 134.664 46.0762 134.531 46.2002C134.4 46.3243 134.212 46.3876 133.966 46.3876C133.706 46.3876 133.52 46.3139 133.412 46.1685C133.304 46.0231 133.264 45.7919 133.292 45.4712L133.314 45.2187C133.319 45.1585 133.323 45.1165 133.325 45.0925L133.332 45.0247L132.045 45.0202L131.983 45.342L131.94 45.6477C131.885 46.2667 132.016 46.7341 132.329 47.0442C132.516 47.2271 132.766 47.3546 133.079 47.4306L132.814 48.2921H134.136L134.387 47.4636C134.836 47.3881 135.213 47.2199 135.514 46.9543C135.935 46.5839 136.175 46.0675 136.234 45.4052C136.264 45.0478 136.197 44.7202 136.034 44.4184C135.869 44.1192 135.593 43.8193 135.202 43.5222L134.941 43.336C134.512 43.0205 134.31 42.7006 134.338 42.3769C134.357 42.1676 134.431 42.004 134.559 41.8877C134.685 41.7706 134.845 41.7118 135.037 41.7118C135.322 41.7118 135.508 41.7836 135.598 41.9263C135.694 42.0698 135.724 42.3406 135.691 42.7394L135.673 42.9261H136.983L137.01 42.6153L137.028 42.4175C137.078 41.8387 136.948 41.3967 136.637 41.0916Z" fill="#0039A6"/>
    <path d="M59.2032 47.324H57.5547L60.1394 38.6304H61.7878L59.2032 47.324Z" fill="#0039A6"/>
    <path d="M62.0779 37.6596H60.4297L60.8159 36.355H62.4651L62.0779 37.6596Z" fill="#0039A6"/>
    <path d="M64.9004 49.4403L65.2526 48.3282L65.3034 48.334L65.5571 48.3521C65.783 48.3521 65.9563 48.2861 66.0782 48.1581C66.1987 48.0263 66.2713 47.8228 66.2956 47.5442L66.3145 47.1429L66.3157 47.07L66.4175 40.8477H67.9312L67.5965 45.568L69.8112 40.8477H71.4208L67.6045 47.9952C67.2567 48.6422 66.9536 49.0615 66.6938 49.249C66.434 49.4359 66.0875 49.5315 65.658 49.5315C65.5935 49.5315 65.5304 49.5315 65.4709 49.5315C65.4074 49.5197 65.3605 49.5119 65.3314 49.5082L64.9004 49.4403Z" fill="#0039A6"/>
    <path d="M73.7113 45.1736L75.1276 45.1729C75.0948 45.5561 75.0035 45.8954 74.8548 46.1915C74.7064 46.4868 74.5143 46.7395 74.2816 46.9501C73.854 47.3463 73.2779 47.544 72.5521 47.544C71.8418 47.544 71.3253 47.3843 71.0033 47.0697C70.6816 46.7531 70.5493 46.2703 70.6068 45.6227C70.6138 45.529 70.6232 45.434 70.6311 45.3397C70.6495 45.2543 70.6627 45.1891 70.6698 45.1425C70.679 45.0559 70.6909 44.9719 70.7072 44.8911C70.7239 44.8091 70.7495 44.7051 70.7824 44.5777C70.9041 44.0155 71.0279 43.534 71.1568 43.1283C71.2833 42.723 71.4122 42.398 71.5396 42.1544C71.8123 41.616 72.1423 41.2277 72.5277 40.9899C72.9128 40.7533 73.4137 40.6338 74.0298 40.6338C74.7249 40.6338 75.2177 40.7792 75.5105 41.0693C75.8021 41.3596 75.9202 41.8171 75.8663 42.4432C75.845 42.6728 75.802 42.9408 75.7326 43.2492C75.6635 43.5567 75.5711 43.8884 75.4532 44.2476H72.3651C72.3323 44.3529 72.2854 44.5333 72.2212 44.7898C72.193 44.8867 72.1682 44.9824 72.145 45.076C72.09 45.3139 72.056 45.4999 72.0443 45.6356C72.0209 45.9026 72.0641 46.1016 72.1707 46.2341C72.2785 46.3666 72.4527 46.4319 72.6952 46.4319C72.9549 46.4319 73.1668 46.331 73.3296 46.13C73.4936 45.9285 73.6199 45.6099 73.7113 45.1736ZM74.2554 43.2311C74.2777 43.1516 74.3002 43.063 74.3245 42.9641C74.348 42.8659 74.3635 42.7941 74.3714 42.749L74.431 42.3864C74.4511 42.1634 74.4113 41.9973 74.3107 41.8875C74.2097 41.7776 74.0531 41.7232 73.8375 41.7239C73.5461 41.7239 73.3119 41.8332 73.1339 42.0517C72.9558 42.2714 72.7911 42.665 72.6401 43.2317L74.2554 43.2311Z" fill="#0039A6"/>
    <path d="M78.8849 40.8478L78.5396 41.8759H78.5749C78.7867 41.4663 79.0362 41.1592 79.3181 40.9557C79.6003 40.7535 79.9279 40.6514 80.3027 40.6514H80.456H80.5567L80.0766 42.3278L79.8674 42.3104L79.6587 42.3059C79.2586 42.3059 78.9461 42.3957 78.7223 42.576C78.4988 42.7576 78.3208 43.0633 78.1886 43.4956L77.0378 47.3241H75.5195L77.479 40.8479H78.8849V40.8478Z" fill="#0039A6"/>
    <path d="M79.3516 47.3241L81.3009 40.8479H82.8192L80.87 47.3241H79.3516ZM81.577 39.9457L81.9563 38.6519H83.4874L83.0963 39.9457H81.577Z" fill="#0039A6"/>
    <path d="M83.52 47.3226L82.0078 47.3241L83.9567 40.8479H85.3567L85.1822 41.4005C85.4655 41.1536 85.7417 40.9668 86.0122 40.8401C86.2815 40.7134 86.5532 40.6514 86.8246 40.6514C87.2285 40.6514 87.5341 40.758 87.7401 40.9693C87.946 41.1819 88.0328 41.4845 87.9974 41.876C87.9951 41.915 87.9893 41.9581 87.981 42.0093C87.9719 42.0597 87.9602 42.1146 87.9436 42.1747C87.9202 42.3046 87.8769 42.4669 87.8091 42.6665L86.4162 47.3241H84.8979L86.2535 42.8003L86.3446 42.4738L86.3774 42.2949C86.3914 42.1276 86.3589 41.9958 86.2767 41.8941C86.19 41.7985 86.0627 41.7521 85.8929 41.7521C85.6468 41.7521 85.442 41.8432 85.277 42.0262C85.1108 42.2084 84.9657 42.5109 84.838 42.9322L83.52 47.3226Z" fill="#0039A6"/>
    <path d="M87.5332 47.3241L89.4824 40.8479H91.0017L89.0525 47.3241H87.5332ZM89.761 39.9451L90.1392 38.6519H91.6689L91.2782 39.9451H89.761Z" fill="#0039A6"/>
    <path d="M91.7038 47.3213L90.1914 47.3241L92.1396 40.8479H93.5394L93.3661 41.4005C93.6495 41.1536 93.9259 40.9668 94.1949 40.8401C94.4654 40.7134 94.7362 40.6514 95.009 40.6514C95.4129 40.6514 95.717 40.7568 95.9231 40.9693C96.1302 41.1819 96.2154 41.4845 96.1806 41.876C96.178 41.9136 96.172 41.9581 96.1641 42.008C96.1552 42.0596 96.1431 42.1144 96.1266 42.1746C96.1043 42.3045 96.0596 42.4668 95.9931 42.6664L94.6001 47.3239H93.0806L94.4375 42.8002L94.5273 42.4731L94.5604 42.2941C94.5753 42.1274 94.5416 41.9957 94.4596 41.8922C94.373 41.7985 94.2467 41.7519 94.0757 41.7519C93.8303 41.7519 93.625 41.8431 93.4599 42.0247C93.2963 42.2083 93.1498 42.5106 93.021 42.9319L91.7038 47.3213Z" fill="#0039A6"/>
    <path d="M102.448 46.8162C102.245 47.0527 102.029 47.2303 101.796 47.346C101.562 47.4636 101.309 47.5212 101.037 47.5212C100.516 47.5212 100.124 47.3686 99.8619 47.065C99.5996 46.7601 99.492 46.3315 99.5407 45.7783C99.5923 45.1805 99.7914 44.7027 100.137 44.3462C100.481 43.9888 100.999 43.729 101.689 43.5688L101.892 43.5236C102.986 43.267 103.557 42.8735 103.604 42.3448C103.622 42.1523 103.575 41.9997 103.467 41.8898C103.361 41.78 103.2 41.7237 102.985 41.7237C102.712 41.7237 102.495 41.7988 102.335 41.9488C102.175 42.098 102.045 42.3494 101.947 42.7003H100.484C100.644 42.0062 100.941 41.4872 101.377 41.1467C101.813 40.8048 102.391 40.6343 103.114 40.6343C103.791 40.6343 104.303 40.7713 104.652 41.0452C105.003 41.3212 105.155 41.7084 105.112 42.2072C105.107 42.2583 105.104 42.3062 105.099 42.3551C105.083 42.4147 105.071 42.4579 105.065 42.4838L104.976 42.8515L103.909 46.4441L103.82 46.8164L103.736 47.3244H102.335L102.448 46.8162ZM103.08 44.1904L102.58 44.3986C101.608 44.7959 101.103 45.2302 101.06 45.7039C101.038 45.952 101.079 46.1395 101.182 46.2654C101.284 46.3908 101.436 46.4542 101.641 46.4542C101.958 46.4542 102.216 46.3139 102.414 46.0329C102.613 45.7543 102.835 45.1384 103.08 44.1904Z" fill="#0039A6"/>
    <path d="M104.732 47.3241L107.339 38.6519H108.869L106.252 47.3241H104.732Z" fill="#0039A6"/>
    <path d="M107.412 47.3238L109.361 40.8477H110.879L108.93 47.3238H107.412Z" fill="#0039A6"/>
    <path d="M117.721 47.3238H116.016L116.089 40.8477H117.602L117.297 45.6236L119.483 40.8477H121.093L117.721 47.3238Z" fill="#0039A6"/>
    <path d="M123.383 45.1719H124.8C124.766 45.5564 124.676 45.8957 124.526 46.1918C124.378 46.4864 124.186 46.7398 123.953 46.9504C123.526 47.3459 122.95 47.5443 122.224 47.5443C121.514 47.5443 120.997 47.3846 120.676 47.0686C120.355 46.7533 120.221 46.2705 120.279 45.6231C120.286 45.5293 120.295 45.4343 120.303 45.34C120.322 45.2547 120.335 45.1874 120.343 45.1423C120.35 45.0549 120.363 44.9722 120.379 44.8915C120.396 44.8095 120.422 44.7055 120.455 44.578C120.576 44.0158 120.7 43.5337 120.829 43.1286C120.955 42.7233 121.084 42.3976 121.212 42.1541C121.484 41.6151 121.814 41.2274 122.2 40.9902C122.584 40.7536 123.086 40.6328 123.701 40.6328C124.397 40.6328 124.89 40.7795 125.182 41.0696C125.474 41.3599 125.592 41.8174 125.538 42.4436C125.517 42.6731 125.474 42.9411 125.405 43.2495C125.336 43.5564 125.243 43.8887 125.125 44.2467H122.037C122.004 44.3521 121.957 44.5329 121.893 44.7889C121.864 44.8871 121.84 44.9829 121.817 45.0765C121.762 45.3144 121.727 45.5004 121.716 45.6361C121.693 45.9031 121.736 46.1021 121.842 46.2333C121.95 46.3651 122.125 46.4323 122.366 46.4323C122.627 46.4323 122.839 46.3315 123.001 46.1299C123.166 45.928 123.292 45.61 123.383 45.1719ZM123.927 43.2313C123.949 43.1517 123.972 43.0632 123.995 42.9643C124.02 42.8661 124.035 42.7943 124.043 42.7492L124.103 42.3866C124.123 42.1635 124.083 41.9962 123.982 41.8877C123.882 41.7778 123.725 41.7234 123.509 41.7234C123.218 41.7234 122.984 41.8333 122.806 42.0512C122.628 42.2714 122.463 42.6639 122.312 43.2313H123.927Z" fill="#0039A6"/>
    <path d="M128.557 40.8478L128.212 41.8759H128.247C128.459 41.4663 128.707 41.1579 128.99 40.9557C129.272 40.7515 129.6 40.6514 129.975 40.6514H130.128H130.229L129.749 42.3278L129.539 42.3104L129.331 42.3046C128.931 42.3046 128.618 42.3944 128.394 42.576C128.171 42.7556 127.993 43.0633 127.86 43.4956L126.71 47.3241H125.191L127.152 40.8479H128.557V40.8478Z" fill="#0039A6"/>
    <path d="M129.021 47.3241L130.971 40.8479H132.489L130.54 47.3241H129.021ZM131.247 39.9451L131.626 38.6519H133.157L132.766 39.9451H131.247Z" fill="#0039A6"/>
    <path d="M139.613 49.4403L139.964 48.3282L140.016 48.334L140.268 48.35C140.496 48.35 140.669 48.2861 140.791 48.1561C140.911 48.0256 140.984 47.8215 141.008 47.5442L141.027 47.1429V47.07L141.13 40.8477H142.643L142.309 45.568L144.524 40.8477H146.133L142.317 47.9952C141.969 48.6416 141.666 49.0596 141.406 49.2484C141.145 49.4359 140.8 49.5307 140.369 49.5307C140.306 49.5307 140.242 49.5307 140.183 49.5307C140.119 49.5197 140.073 49.5106 140.043 49.5082L139.613 49.4403Z" fill="#0039A6"/>
    <path d="M148.424 45.1719H149.841C149.807 45.5564 149.717 45.8957 149.568 46.1918C149.418 46.4864 149.227 46.7398 148.994 46.9504C148.566 47.3459 147.99 47.5443 147.264 47.5443C146.554 47.5443 146.038 47.3846 145.717 47.0686C145.394 46.7533 145.262 46.2705 145.32 45.6231C145.327 45.5293 145.335 45.4343 145.344 45.34C145.363 45.2547 145.376 45.1874 145.383 45.1423C145.391 45.0549 145.403 44.9722 145.419 44.8902C145.436 44.8093 145.461 44.7055 145.495 44.578C145.616 44.0158 145.741 43.5337 145.869 43.1286C145.997 42.7233 146.124 42.3976 146.252 42.1541C146.525 41.6151 146.855 41.2274 147.24 40.9902C147.624 40.7536 148.125 40.6328 148.741 40.6328C149.437 40.6328 149.931 40.7795 150.223 41.0696C150.513 41.3599 150.633 41.8174 150.578 42.4436C150.558 42.6731 150.513 42.9411 150.446 43.2495C150.377 43.5564 150.284 43.8887 150.165 44.2467H147.076C147.045 44.3521 146.997 44.5329 146.932 44.7889C146.906 44.8871 146.88 44.9829 146.857 45.0765C146.803 45.3144 146.769 45.5004 146.757 45.6361C146.734 45.9031 146.776 46.1021 146.883 46.2333C146.991 46.3651 147.166 46.4323 147.407 46.4323C147.668 46.4323 147.88 46.3315 148.043 46.1299C148.205 45.928 148.333 45.61 148.424 45.1719ZM148.968 43.2313C148.991 43.1517 149.013 43.0632 149.036 42.9643C149.06 42.8661 149.076 42.7943 149.083 42.7492L149.144 42.3866C149.164 42.1635 149.123 41.9962 149.023 41.8877C148.923 41.7778 148.766 41.7234 148.551 41.7234C148.259 41.7234 148.025 41.8333 147.847 42.0512C147.669 42.2714 147.504 42.6639 147.353 43.2313H148.968Z" fill="#0039A6"/>
    <path d="M153.596 40.8478L153.252 41.8759H153.286C153.499 41.4648 153.747 41.1579 154.029 40.9557C154.312 40.7515 154.639 40.6514 155.014 40.6514H155.167H155.269L154.788 42.3278L154.579 42.3091L154.371 42.3046C153.97 42.3046 153.658 42.3944 153.435 42.576C153.211 42.7556 153.033 43.0633 152.901 43.4956L151.75 47.3241H150.23L152.192 40.8479H153.596V40.8478Z" fill="#0039A6"/>
    <path d="M154.062 47.3241L156.012 40.8479H157.53L155.581 47.3241H154.062ZM156.289 39.9451L156.668 38.6519H158.198L157.807 39.9451H156.289Z" fill="#0039A6"/>
    <path d="M65.3564 41.0913C65.0461 40.787 64.5766 40.6338 63.9469 40.6338C63.5934 40.6338 63.2809 40.6744 63.0093 40.759C62.7377 40.8411 62.5012 40.9653 62.2987 41.1299C61.8972 41.4646 61.6691 41.9345 61.6163 42.5394C61.5811 42.9389 61.6359 43.2827 61.7812 43.5722C61.8549 43.7183 61.9686 43.8714 62.1195 44.0324C62.2715 44.1914 62.4705 44.3647 62.7154 44.5475L62.7786 44.5987C63.2739 44.9896 63.508 45.34 63.4811 45.6475C63.4589 45.8925 63.3826 46.076 63.2517 46.2007C63.1194 46.3243 62.9299 46.3875 62.685 46.3875C62.4241 46.3875 62.2404 46.3137 62.1315 46.1696C62.0226 46.0235 61.9838 45.7917 62.011 45.4725L62.0331 45.2185C62.0391 45.1583 62.0427 45.1164 62.045 45.0936L62.0496 45.0245L60.7642 45.02L60.7021 45.3424L60.6587 45.6473C60.6038 46.2678 60.7335 46.7337 61.0486 47.0438C61.2346 47.2268 61.4852 47.3554 61.7979 47.4303L61.5334 48.2918H62.8548L63.1064 47.4639C63.555 47.3878 63.9318 47.2197 64.2327 46.9542C64.6539 46.5837 64.8941 46.0687 64.9527 45.4064C64.9844 45.049 64.9165 44.7206 64.7525 44.4195C64.5876 44.1191 64.3114 43.8198 63.9227 43.5233L63.6603 43.3364C63.231 43.0211 63.0304 42.7011 63.0588 42.378C63.0774 42.1674 63.1496 42.0046 63.2763 41.8881C63.404 41.7705 63.5643 41.7117 63.7574 41.7117C64.0397 41.7117 64.2269 41.7834 64.3158 41.9262C64.4132 42.0702 64.4447 42.3417 64.4096 42.7398L64.3931 42.9266H65.7018L65.7299 42.6158L65.7463 42.4181C65.7964 41.8384 65.668 41.3963 65.3564 41.0913Z" fill="#0039A6"/>
</svg>
