<svg width="187" height="40" viewBox="0 0 187 40" fill="none" xmlns="http://www.w3.org/2000/svg">
    <g clip-path="url(#clip0_234_1417)">
        <path d="M63.1834 0H57.4336H56.8996L40.0967 39.1502H46.3851L60.3108 6.7005L74.2365 39.1502H80.5249L63.722 0H63.1834Z" fill="black"/>
        <path d="M187 39.1502L170.198 0H169.659H163.909H163.375L146.572 39.1502H152.861L166.786 6.7005L180.712 39.1502H187Z" fill="black"/>
        <path d="M91.1409 32.4497L77.2106 0H70.9268L87.725 39.1502H88.2636H94.0135H94.5521L111.355 0H105.067L91.1409 32.4497Z" fill="black"/>
        <path d="M149.84 0L135.914 32.4497L121.989 0H115.7L132.503 39.1502H133.042H138.791H139.326L156.128 0H149.84Z" fill="black"/>
        <path d="M9.20246 0H4.01888C1.79931 0 0 2.42045 0 5.40623V12.3792C0 15.365 1.79931 17.7854 4.01888 17.7854H9.20246C11.422 17.7854 13.2213 15.365 13.2213 12.3792V5.40623C13.2213 2.42045 11.422 0 9.20246 0Z" fill="black"/>
        <path d="M9.20246 21.3647H4.01888C1.79931 21.3647 0 23.7852 0 26.771V33.744C0 36.7297 1.79931 39.1502 4.01888 39.1502H9.20246C11.422 39.1502 13.2213 36.7297 13.2213 33.744V26.771C13.2213 23.7852 11.422 21.3647 9.20246 21.3647Z" fill="black"/>
        <path d="M25.0843 0H19.9007C17.6812 0 15.8818 2.42045 15.8818 5.40623V12.3792C15.8818 15.365 17.6812 17.7854 19.9007 17.7854H25.0843C27.3039 17.7854 29.1032 15.365 29.1032 12.3792V5.40623C29.1032 2.42045 27.3039 0 25.0843 0Z" fill="black"/>
        <path d="M25.0843 21.3647H19.9007C17.6812 21.3647 15.8818 23.7852 15.8818 26.771V33.744C15.8818 36.7297 17.6812 39.1502 19.9007 39.1502H25.0843C27.3039 39.1502 29.1032 36.7297 29.1032 33.744V26.771C29.1032 23.7852 27.3039 21.3647 25.0843 21.3647Z" fill="black"/>
    </g>
    <defs>
        <clipPath id="clip0_234_1417">
            <rect width="187" height="39.1502" fill="white"/>
        </clipPath>
    </defs>
</svg>
