<svg width="200" height="87" viewBox="0 0 200 87" fill="none" xmlns="http://www.w3.org/2000/svg">
	<path d="M100.001 86.9672C67.1222 86.9672 34.2437 86.9598 1.36524 86.9993C0.224209 87.0007 -0.00132867 86.7749 5.8703e-06 85.6302C0.0407094 57.5434 0.0407094 29.4559 5.8703e-06 1.36914C-0.00132867 0.224395 0.224209 -0.000668341 1.36458 1.49288e-06C67.1215 0.0355027 132.878 0.0355027 198.635 1.49288e-06C199.776 -0.000668341 200.001 0.223725 200 1.36914C199.959 29.4559 199.959 57.5434 200 85.6302C200.002 86.7749 199.776 87.0013 198.635 87C165.758 86.9598 132.879 86.9672 100.001 86.9672ZM74.5856 50.0928C74.6517 50.1612 74.7191 50.2288 74.7878 50.2945C74.609 51.5444 73.847 52.5404 73.3265 53.6389C72.4437 55.5004 71.5389 57.3518 71.1785 59.4029C70.967 60.6052 71.1599 61.754 72.0293 62.6602C73.8857 64.5961 76.506 63.9637 77.4149 61.3775C78.3283 58.7786 77.8706 56.0785 77.9347 53.4212C77.9573 52.4861 78.1115 52.0126 79.1491 51.6629C82.0511 50.6843 83.8534 48.6078 84.3178 45.5045C84.3979 44.9713 84.4706 44.2184 83.8193 44.0603C83.05 43.8741 82.8685 44.5848 82.6983 45.2024C82.1945 47.0324 81.0522 48.3245 79.3139 49.066C78.4972 49.4143 77.9233 49.5503 77.9247 48.216C77.9287 44.489 77.7825 40.7621 77.6878 37.0351C77.6684 36.2742 77.8359 35.2667 76.7382 35.2252C75.5458 35.1797 75.409 36.1422 75.413 37.1115C75.4224 39.2844 75.4064 41.4573 75.3977 43.6309C75.387 46.3096 73.2738 48.8664 70.8142 49.1805C68.4801 49.4786 66.2814 47.6091 65.6328 44.7918C65.0356 42.2002 65.4233 39.5758 65.3653 36.9668C65.3493 36.2521 65.2945 35.5588 64.389 35.5152C63.4816 35.4724 63.3868 36.1442 63.2934 36.8636C62.9678 39.3581 62.8623 41.8492 63.2907 44.339C63.4328 45.1655 63.1653 45.8849 62.7976 46.5715C61.6412 48.7277 58.9962 49.6795 56.0622 48.9186C57.2739 47.8824 58.0586 46.6077 58.8934 45.3785C61.6245 41.3562 60.1105 36.5964 55.8493 35.8756C53.3824 35.4583 51.1137 36.088 49.1112 37.6125C48.3432 38.1973 47.5905 38.8035 46.7464 39.4659C46.4635 38.2153 46.9406 37.3064 47.3536 36.4142C47.9381 35.1535 48.6254 33.9411 49.2446 32.6959C50.0601 31.0562 50.9582 29.4419 51.2551 27.6012C51.6228 25.3184 50.2162 23.3832 48.0582 23.1474C46.1839 22.9431 44.7679 24.4851 44.6732 26.8355C44.5838 29.0574 44.4476 31.2785 44.4183 33.5011C44.3682 37.2896 44.3355 41.0796 44.3963 44.8675C44.4236 46.5789 43.8191 47.8998 42.5286 48.936C41.6818 49.6159 40.7449 50.1123 39.6193 49.6789C38.4796 49.2401 38.0999 48.22 38.0171 47.1449C37.9057 45.7041 37.9404 44.2499 37.9424 42.8017C37.9451 40.6288 37.9904 38.4558 37.9804 36.2829C37.9778 35.6599 37.8356 34.9928 37.0776 34.8823C36.3496 34.7757 35.98 35.2848 35.7704 35.9171C35.6897 36.1603 35.8045 36.4791 35.4722 36.6419C35.33 36.5917 35.1605 36.5602 35.0218 36.4778C30.4776 33.7784 23.474 36.1891 23.0569 43.3443C22.7987 47.7719 20.4252 49.7639 15.7723 49.0244C16.3048 48.3265 16.7939 47.6767 17.2923 47.0344C18.2506 45.7985 19.118 44.5138 19.5604 42.9866C20.5006 39.7426 18.8805 36.6325 15.7623 35.9654C13.7104 35.5266 11.72 35.8173 9.80957 36.8569C8.43966 37.6024 7.45343 38.8021 6.07018 39.7982C6.06484 38.1551 6.65003 36.9112 7.27794 35.6767C8.55843 33.1568 10.1225 30.7655 10.7064 27.9314C11.2008 25.5334 10.0765 23.5085 8.02995 23.1689C5.95874 22.8253 4.33193 24.3826 4.1124 26.9307C4.08371 27.2629 4.10106 27.5992 4.09839 27.9334C4.0717 31.3877 4.02699 34.8421 4.02432 38.2971C4.02098 42.3087 4.06169 46.321 4.06436 50.3326C4.06502 51.048 4.16178 51.6984 4.8831 52.0065C5.54437 52.2885 5.91804 51.8022 6.23166 51.334C6.43851 51.0252 6.62801 50.7848 7.01837 51.0112C9.56668 52.4882 12.3552 51.8404 15.019 51.752C18.35 51.6415 21.7144 51.2061 23.7662 47.9353C26.827 52.2182 31.2457 53.0903 35.6844 50.2643C36.3623 49.8329 36.5538 50.1772 36.8641 50.551C37.7169 51.5799 38.8065 51.9201 40.119 51.8726C41.7625 51.8123 42.961 50.825 44.2361 49.9729C44.3282 50.1538 44.3929 50.2456 44.4236 50.3474C45.0315 52.3897 45.0402 52.4024 46.7097 51.1143C46.9819 50.904 47.1674 50.9067 47.4397 51.0252C50.7013 52.4513 54.075 51.8103 57.4261 51.5557C60.1859 51.3461 62.5514 50.35 64.1802 47.9547C65.0783 49.0332 65.9044 49.9877 67.0388 50.6481C69.6952 52.1948 72.1548 51.4419 74.5856 50.0928ZM171.024 36.8388C171.838 36.95 172.054 37.3626 172.322 37.7076C175.62 41.9637 178.908 46.2279 182.225 50.4693C182.722 51.1056 183.255 51.9181 184.246 51.6348C185.291 51.3354 184.967 50.3755 184.97 49.6467C184.991 44.6324 184.982 39.6173 184.981 34.6029C184.981 34.2131 184.988 33.8219 184.963 33.4334C184.92 32.7669 184.503 32.4052 183.883 32.3865C183.19 32.3657 182.932 32.8332 182.934 33.4836C182.938 34.542 182.951 35.601 182.929 36.6593C182.86 40.1344 183.109 43.6189 182.719 47.439C181.086 45.3618 179.68 43.5298 178.227 41.7373C175.924 38.8959 173.97 35.7711 171.337 33.197C170.844 32.7153 170.334 32.2418 169.593 32.564C168.807 32.9056 168.969 33.6618 168.966 34.3136C168.955 36.4309 168.959 38.5483 168.959 40.6656C168.958 43.6189 168.945 46.5715 168.966 49.5248C168.973 50.4197 168.648 51.7312 170.048 51.6998C171.485 51.6676 170.98 50.3099 171.007 49.4625C171.068 47.5702 171.024 45.6746 171.023 43.7797C171.023 41.5123 171.024 39.2442 171.024 36.8388ZM148.98 41.9483C148.98 44.6196 148.988 47.2909 148.974 49.9622C148.97 50.8343 149.123 51.5363 150.202 51.5363C153.973 51.5377 157.744 51.5464 161.516 51.5343C162.255 51.5316 162.869 51.1994 162.868 50.3882C162.868 49.5315 162.152 49.5396 161.526 49.5389C159.696 49.5362 157.864 49.5951 156.036 49.5221C154.507 49.4612 152.532 50.2288 151.567 49.1772C150.629 48.153 151.412 46.1904 151.252 44.6531C151.117 43.3597 151.669 43.0368 152.873 43.0757C155.311 43.154 157.753 43.1071 160.194 43.0911C160.932 43.0864 161.556 42.7702 161.589 41.9651C161.625 41.0796 160.913 40.8994 160.21 40.886C158.824 40.8599 157.437 40.8806 156.05 40.8806C151.177 40.8806 151.21 40.8806 151.246 36.0015C151.255 34.8729 151.531 34.4315 152.73 34.4656C155.502 34.5453 158.276 34.4944 161.049 34.4897C161.766 34.4884 162.633 34.6036 162.66 33.5466C162.69 32.3798 161.767 32.4849 160.989 32.4842C157.606 32.4802 154.221 32.5264 150.839 32.4588C149.492 32.432 148.922 32.8634 148.961 34.27C149.032 36.8268 148.98 39.3889 148.98 41.9483ZM117.076 51.8599C117.298 51.8599 117.521 51.8625 117.743 51.8592C121.138 51.8156 123.541 50.0058 123.928 47.1998C124.324 44.3343 122.785 42.3985 119.247 41.3388C117.709 40.8779 116.127 40.543 114.631 39.9757C113.275 39.4619 112.391 38.3949 112.72 36.8482C113.026 35.4014 114.063 34.5855 115.552 34.4328C117.483 34.2345 119.336 34.4783 120.961 35.6231C121.762 36.1878 122.538 36.4115 123.068 35.4402C123.587 34.4917 122.739 33.984 122.09 33.621C120.06 32.4856 117.87 31.9008 115.535 32.2223C112.501 32.6397 110.568 34.4723 110.359 37.0137C110.134 39.7479 111.459 41.4058 114.65 42.5284C116.271 43.0991 118 43.2525 119.584 43.99C120.807 44.5593 121.706 45.2995 121.61 46.7129C121.509 48.2006 120.618 49.1256 119.178 49.5369C116.418 50.3253 114.045 49.3969 111.85 47.8335C111.185 47.3599 110.615 46.9701 110.013 47.7652C109.369 48.6152 109.89 49.1129 110.594 49.6608C112.516 51.1552 114.661 51.8806 117.076 51.8599ZM106.15 50.5751C106.033 50.2482 105.927 49.8711 105.768 49.5188C103.383 44.2592 100.984 39.0058 98.6094 33.7415C98.2424 32.9277 97.7726 32.2371 96.8231 32.2337C95.9036 32.2304 95.56 32.9947 95.227 33.7214C93.6322 37.2059 92.0188 40.6817 90.4273 44.1675C89.5512 46.0866 88.6924 48.0137 87.8523 49.9495C87.5694 50.6006 87.4813 51.3193 88.258 51.681C89.0374 52.0434 89.5098 51.531 89.8141 50.8645C90.2752 49.855 90.7329 48.8429 91.158 47.8181C91.511 46.9674 92.0201 46.4891 93.031 46.5126C95.4692 46.5688 97.9101 46.5548 100.35 46.5213C101.491 46.5059 102.223 46.9506 102.648 48.0338C103.072 49.1176 103.581 50.1699 104.089 51.2188C104.339 51.7353 104.817 51.9302 105.349 51.7299C105.825 51.5504 106.232 51.2416 106.15 50.5751ZM130.011 42.1942C130.011 43.5285 130.011 44.8621 130.011 46.1964C130.011 47.5307 130.007 48.865 130.015 50.1987C130.019 50.9402 130.011 51.7741 131.042 51.7547C132.018 51.7366 132.314 51.0252 132.309 50.1417C132.303 48.8074 132.367 47.4698 132.288 46.1401C132.225 45.0831 132.654 44.7931 133.638 44.8273C135.187 44.8809 136.744 44.8956 138.289 44.7991C141.44 44.6029 144.001 42.2297 144.285 39.3467C144.62 35.9593 143.031 33.6819 139.556 32.7683C137.112 32.1252 134.591 32.6624 132.116 32.4635C130.53 32.3362 129.916 32.8882 129.983 34.5239C130.085 37.0766 130.009 39.6374 130.011 42.1942ZM192.494 30.5357C190.405 30.5089 188.726 32.0911 188.676 34.1327C188.624 36.2983 190.238 38.0499 192.314 38.0787C194.484 38.1088 196.264 36.3003 196.238 34.0939C196.217 32.3021 194.384 30.5598 192.494 30.5357Z" fill="#FEFEFE"/>
	<path d="M74.5857 50.0928C72.1548 51.4425 69.6953 52.1948 67.0355 50.6461C65.9012 49.9856 65.0751 49.0318 64.1769 47.9527C62.5481 50.3487 60.1826 51.3447 57.4228 51.5537C54.0718 51.8083 50.698 52.4493 47.4364 51.0232C47.1648 50.9047 46.9793 50.902 46.7064 51.1123C45.0369 52.4004 45.0282 52.3877 44.4204 50.3453C44.3897 50.2435 44.3249 50.1518 44.2329 49.9709C42.9577 50.8229 41.7593 51.8109 40.1158 51.8706C38.8033 51.9188 37.7136 51.5778 36.8608 50.549C36.5512 50.1752 36.3591 49.8309 35.6811 50.2623C31.2424 53.0883 26.8237 52.2162 23.763 47.9333C21.7111 51.2041 18.3467 51.6401 15.0157 51.75C12.3526 51.8384 9.56343 52.4861 7.01512 51.0091C6.62476 50.7827 6.43459 51.0232 6.2284 51.332C5.91479 51.8002 5.54111 52.2865 4.87985 52.0045C4.15853 51.6971 4.0611 51.046 4.0611 50.3306C4.05844 46.319 4.01773 42.3067 4.02107 38.295C4.02374 34.8407 4.06911 31.3864 4.09514 27.9314C4.0978 27.5971 4.08046 27.2609 4.10915 26.9286C4.32868 24.3806 5.95549 22.8232 8.0267 23.1668C10.0739 23.5065 11.1976 25.5307 10.7031 27.9294C10.1193 30.7634 8.55518 33.1547 7.27468 35.6746C6.64745 36.9098 6.06158 38.153 6.06692 39.7961C7.45018 38.8008 8.4364 37.6004 9.80631 36.8549C11.7167 35.8153 13.7072 35.5239 15.759 35.9633C18.8772 36.6305 20.4967 39.7405 19.5572 42.9845C19.1148 44.5124 18.2473 45.7972 17.2891 47.0323C16.7906 47.6747 16.3015 48.3245 15.7691 49.0224C20.4226 49.7619 22.7961 47.7698 23.0537 43.3422C23.4707 36.1871 30.4744 33.7763 35.0185 36.4758C35.1573 36.5582 35.3268 36.5896 35.4689 36.6399C35.8012 36.4764 35.6864 36.1576 35.7672 35.9151C35.9767 35.2828 36.3464 34.7737 37.0744 34.8802C37.8324 34.9908 37.9745 35.6579 37.9772 36.2809C37.9872 38.4538 37.9418 40.6267 37.9391 42.7997C37.9371 44.2479 37.9031 45.7014 38.0139 47.1429C38.0966 48.218 38.4763 49.2381 39.616 49.6769C40.7417 50.1102 41.6792 49.6139 42.5253 48.934C43.8158 47.8978 44.4204 46.5769 44.393 44.8654C44.3329 41.0775 44.365 37.2876 44.415 33.499C44.4444 31.2765 44.5805 29.0554 44.6699 26.8335C44.7647 24.4824 46.1813 22.9404 48.055 23.1454C50.2129 23.3812 51.6202 25.3157 51.2519 27.5991C50.9556 29.4398 50.0568 31.0541 49.2414 32.6939C48.6222 33.9391 47.9349 35.1515 47.3503 36.4121C46.9366 37.3044 46.4602 38.2133 46.7431 39.4639C47.5866 38.8014 48.3392 38.1959 49.1079 37.6105C51.1098 36.0859 53.3791 35.4563 55.8461 35.8736C60.1072 36.595 61.6213 41.3548 58.8901 45.3765C58.0554 46.6063 57.2707 47.8804 56.0589 48.9166C58.9929 49.6775 61.638 48.7257 62.7943 46.5695C63.1627 45.8829 63.4296 45.1635 63.2875 44.3369C62.8591 41.8472 62.9645 39.3561 63.2901 36.8616C63.3842 36.1415 63.479 35.4697 64.3858 35.5132C65.2919 35.5561 65.3467 36.2494 65.362 36.9648C65.4201 39.5738 65.0324 42.1975 65.6296 44.7897C66.2782 47.6064 68.4768 49.4766 70.8109 49.1785C73.2705 48.8643 75.3838 46.3076 75.3944 43.6289C75.4031 41.456 75.4191 39.2824 75.4098 37.1094C75.4058 36.1402 75.5426 35.1776 76.735 35.2232C77.8327 35.2647 77.6652 36.2728 77.6845 37.0331C77.7793 40.76 77.9254 44.487 77.9214 48.2139C77.9201 49.5482 78.4939 49.4116 79.3107 49.064C81.0489 48.3231 82.1913 47.031 82.6951 45.2004C82.8652 44.5821 83.0474 43.8721 83.8161 44.0583C84.4673 44.2157 84.3939 44.9693 84.3145 45.5025C83.8494 48.6058 82.0478 50.6829 79.1458 51.6609C78.1082 52.0106 77.9541 52.4841 77.9314 53.4192C77.8673 56.0764 78.3251 58.7765 77.4116 61.3755C76.5028 63.961 73.8817 64.594 72.026 62.6582C71.1573 61.7519 70.9638 60.6025 71.1753 59.4008C71.5363 57.3498 72.4411 55.4984 73.3232 53.6369C73.8437 52.5384 74.6057 51.5423 74.7839 50.2918C74.8926 50.1799 75.0154 50.058 74.8186 49.9347C74.7886 49.916 74.6671 50.0372 74.5857 50.0928ZM35.7191 43.6745C35.7191 42.864 35.7198 42.2517 35.7191 41.6389C35.7158 39.8055 34.821 38.5134 33.1061 37.8623C30.4337 36.8482 27.0273 38.2776 25.8148 40.9221C24.3482 44.1212 25.3451 47.8 28.0635 49.2214C30.76 50.6314 34.0163 49.8081 35.3535 47.4081C36.0601 46.1395 35.531 44.7797 35.7191 43.6745ZM54.1505 37.7873C50.6073 37.4122 46.9473 42.1385 46.7118 45.836C46.5616 48.1945 48.8684 49.9977 51.1425 49.3111C54.4841 48.303 56.518 45.9171 57.6677 42.736C58.8201 39.5456 57.5002 37.7464 54.1505 37.7873ZM6.34918 45.97C6.32783 48.293 8.48511 49.9535 10.7378 49.3486C13.902 48.4986 17.3038 44.5151 17.6568 41.2457C17.8583 39.3842 16.5918 37.928 14.6587 37.7974C10.4062 37.51 6.39122 41.4587 6.34918 45.97ZM75.8308 53.5492C74.7946 55.5285 73.5094 57.3665 73.3132 59.6554C73.2358 60.5583 73.5414 61.2589 74.4382 61.4177C75.4151 61.5905 75.5499 60.7666 75.7187 60.0472C76.2232 57.9051 75.8976 55.7382 75.8308 53.5492ZM6.05825 33.2211C7.15591 31.0481 7.94529 29.2489 8.51448 27.364C8.84544 26.2689 8.2449 25.376 7.26668 25.2206C6.35452 25.0759 6.06359 25.9989 6.06025 26.8449C6.05358 28.8142 6.05825 30.7835 6.05825 33.2211ZM46.4128 32.8004C46.5369 32.8158 46.6611 32.8305 46.7845 32.8459C47.4591 31.1647 48.1618 29.4948 48.797 27.7987C49.142 26.8777 49.3468 25.7933 48.0423 25.5434C46.9013 25.3251 46.5049 26.3901 46.4495 27.2448C46.3301 29.0895 46.4128 30.9476 46.4128 32.8004Z" fill="#B2A5CE"/>
	<path d="M171.024 36.8388C171.024 39.2435 171.023 41.5116 171.024 43.7796C171.024 45.6739 171.069 47.5696 171.008 49.4625C170.98 50.3092 171.486 51.6669 170.048 51.6998C168.649 51.7312 168.973 50.419 168.967 49.5248C168.945 46.5722 168.959 43.6189 168.959 40.6656C168.96 38.5482 168.955 36.4309 168.967 34.3135C168.97 33.6618 168.808 32.9056 169.594 32.5639C170.335 32.2418 170.845 32.7153 171.337 33.1969C173.97 35.7711 175.924 38.8959 178.228 41.7373C179.681 43.5298 181.086 45.3625 182.72 47.4389C183.11 43.6189 182.862 40.1344 182.93 36.6593C182.951 35.601 182.938 34.542 182.935 33.4836C182.933 32.8332 183.19 32.3657 183.884 32.3864C184.504 32.4052 184.92 32.7669 184.964 33.4334C184.989 33.8219 184.982 34.2131 184.982 34.6029C184.982 39.6173 184.992 44.6323 184.971 49.6467C184.968 50.3755 185.291 51.3354 184.246 51.6348C183.256 51.9188 182.723 51.1063 182.225 50.4693C178.908 46.2286 175.621 41.9637 172.322 37.7076C172.054 37.3626 171.838 36.9507 171.024 36.8388Z" fill="#B2A5CE"/>
	<path d="M148.98 41.9483C148.981 39.3882 149.032 36.8268 148.96 34.2687C148.921 32.862 149.492 32.43 150.839 32.4575C154.22 32.5251 157.605 32.4789 160.988 32.4829C161.767 32.4836 162.689 32.3784 162.659 33.5453C162.633 34.6023 161.765 34.4877 161.049 34.4884C158.276 34.4931 155.501 34.544 152.73 34.4643C151.531 34.4294 151.254 34.8715 151.246 36.0002C151.209 40.8793 151.176 40.8793 156.049 40.8793C157.436 40.8793 158.823 40.8585 160.209 40.8846C160.912 40.898 161.625 41.0775 161.589 41.9637C161.556 42.7689 160.931 43.085 160.193 43.0897C157.753 43.1058 155.311 43.1527 152.873 43.0743C151.669 43.0355 151.116 43.3583 151.251 44.6518C151.411 46.189 150.628 48.1523 151.567 49.1758C152.531 50.2275 154.506 49.4598 156.035 49.5208C157.863 49.5938 159.695 49.5349 161.526 49.5375C162.151 49.5382 162.867 49.5308 162.868 50.3869C162.868 51.1981 162.254 51.5303 161.515 51.533C157.744 51.5457 153.972 51.5363 150.201 51.535C149.123 51.5343 148.969 50.833 148.974 49.9609C148.988 47.2916 148.98 44.6203 148.98 41.9483Z" fill="#B2A5CE"/>
	<path d="M117.076 51.8599C114.661 51.8806 112.516 51.1552 110.595 49.6608C109.89 49.1122 109.37 48.6152 110.014 47.7652C110.616 46.9707 111.186 47.3599 111.851 47.8335C114.046 49.3969 116.418 50.3259 119.179 49.5369C120.619 49.1256 121.51 48.2006 121.61 46.7129C121.706 45.2995 120.808 44.5587 119.585 43.99C118.001 43.2525 116.272 43.0991 114.651 42.5284C111.46 41.4058 110.135 39.7479 110.359 37.0137C110.568 34.4723 112.502 32.6397 115.535 32.2224C117.87 31.9008 120.061 32.4856 122.091 33.621C122.739 33.984 123.587 34.4911 123.069 35.4402C122.538 36.4115 121.763 36.1878 120.962 35.6231C119.336 34.4783 117.483 34.2345 115.553 34.4328C114.063 34.5855 113.027 35.4014 112.72 36.8482C112.392 38.3955 113.276 39.4619 114.631 39.9757C116.127 40.543 117.71 40.8779 119.248 41.3388C122.786 42.3985 124.325 44.3343 123.929 47.1998C123.542 50.0051 121.139 51.815 117.743 51.8592C117.521 51.8619 117.298 51.8599 117.076 51.8599Z" fill="#B2A5CE"/>
	<path d="M106.15 50.5751C106.232 51.2409 105.825 51.5504 105.35 51.7292C104.818 51.9295 104.339 51.7346 104.09 51.2181C103.583 50.1692 103.073 49.1169 102.648 48.0331C102.224 46.95 101.491 46.5052 100.35 46.5206C97.9108 46.5534 95.4699 46.5682 93.0317 46.5119C92.0208 46.4884 91.5117 46.9667 91.1587 47.8174C90.7336 48.8422 90.2759 49.8544 89.8148 50.8638C89.5105 51.5303 89.0381 52.0427 88.2587 51.6803C87.482 51.3186 87.5701 50.5999 87.853 49.9488C88.6931 48.0137 89.5519 46.0859 90.428 44.1668C92.0195 40.681 93.6329 37.2052 95.2277 33.7207C95.5607 32.994 95.9043 32.2297 96.8238 32.233C97.7734 32.2364 98.2425 32.927 98.6101 33.7408C100.985 39.0051 103.384 44.2579 105.769 49.5181C105.927 49.8711 106.033 50.2482 106.15 50.5751ZM92.6113 44.5225C95.3305 44.5225 97.7086 44.5191 100.087 44.5245C100.705 44.5258 101.076 44.3892 100.741 43.6557C99.4762 40.886 98.2244 38.1102 96.8298 35.0323C95.3839 38.285 94.066 41.249 92.6113 44.5225Z" fill="#B2A5CE"/>
	<path d="M130.01 42.1941C130.009 39.6367 130.085 37.0766 129.982 34.5239C129.915 32.8882 130.53 32.3362 132.115 32.4635C134.59 32.6624 137.111 32.1259 139.555 32.7683C143.03 33.6819 144.619 35.9593 144.285 39.3467C144.001 42.2296 141.439 44.6029 138.289 44.7991C136.743 44.8956 135.186 44.8808 133.637 44.8273C132.654 44.7931 132.225 45.0825 132.287 46.1401C132.366 47.4698 132.302 48.8074 132.309 50.1417C132.313 51.0252 132.017 51.7366 131.041 51.7547C130.011 51.7741 130.018 50.9402 130.014 50.1987C130.006 48.8644 130.011 47.5307 130.01 46.1964C130.01 44.8621 130.011 43.5285 130.01 42.1941ZM132.307 38.6213C132.307 39.6769 132.308 40.7326 132.307 41.7882C132.307 42.3134 132.334 42.8405 133.048 42.8265C135.142 42.7856 137.262 43.1091 139.314 42.4467C140.909 41.9316 142.005 40.3447 141.999 38.6266C141.992 36.7732 141.046 35.4556 139.251 34.9258C138.354 34.6612 137.434 34.4951 136.478 34.4937C132.304 34.4911 132.304 34.4757 132.307 38.6213Z" fill="#B2A5CE"/>
	<path d="M192.401 30.5357C194.291 30.5598 196.124 32.3021 196.145 34.0939C196.171 36.3003 194.39 38.1088 192.222 38.0787C190.146 38.0499 188.531 36.2983 188.584 34.1327C188.634 32.0911 190.313 30.5089 192.401 30.5357ZM190.578 36.447C191.283 37.084 193.094 37.2521 194.229 36.4075C195.3 35.3558 195.548 33.3329 193.946 32.0468C192.748 31.0856 191.041 31.3382 190.153 32.6068C189.181 33.9974 189.735 35.5688 190.578 36.447Z" fill="#B2A5CE"/>
	<path d="M35.7191 43.6745C35.531 44.7797 36.0601 46.1395 35.3528 47.4081C34.0156 49.8081 30.7593 50.6314 28.0629 49.2214C25.3444 47.8 24.3482 44.1213 25.8141 40.9221C27.0266 38.2776 30.433 36.8482 33.1054 37.8623C34.8203 38.5134 35.7151 39.8055 35.7185 41.6389C35.7198 42.2518 35.7191 42.864 35.7191 43.6745Z" fill="#FCFBFC"/>
	<path d="M54.1505 37.7873C57.5002 37.7465 58.8207 39.5456 57.6677 42.7361C56.5186 45.9171 54.4841 48.303 51.1424 49.3111C48.8683 49.9971 46.5609 48.1939 46.7117 45.8361C46.9473 42.1379 50.6073 37.4122 54.1505 37.7873Z" fill="#FCFBFC"/>
	<path d="M6.34903 45.97C6.39107 41.4587 10.406 37.51 14.6592 37.7974C16.5923 37.928 17.8581 39.3842 17.6573 41.2457C17.3036 44.5151 13.9025 48.4986 10.7383 49.3486C8.48497 49.9535 6.32768 48.293 6.34903 45.97Z" fill="#FCFBFC"/>
	<path d="M75.8307 53.5492C75.8968 55.7382 76.2231 57.9051 75.7193 60.0472C75.5498 60.7666 75.4157 61.5905 74.4388 61.4177C73.542 61.2589 73.2364 60.5583 73.3138 59.6554C73.5093 57.3665 74.7944 55.5285 75.8307 53.5492Z" fill="#FCFBFC"/>
	<path d="M6.05814 33.2211C6.05814 30.7836 6.0528 28.8142 6.06081 26.8449C6.06415 25.9989 6.35508 25.0766 7.26724 25.2206C8.24546 25.3753 8.846 26.2682 8.51503 27.3641C7.94518 29.249 7.1558 31.0481 6.05814 33.2211Z" fill="#FCFBFC"/>
	<path d="M46.4127 32.8004C46.4127 30.9477 46.3299 29.0895 46.4494 27.2448C46.5048 26.3901 46.9011 25.3244 48.0422 25.5434C49.3467 25.7933 49.1418 26.8784 48.7968 27.7988C48.1616 29.4948 47.459 31.1647 46.7843 32.846C46.6602 32.8306 46.5368 32.8152 46.4127 32.8004Z" fill="#FCFBFC"/>
	<path d="M74.5856 50.0929C74.6663 50.0373 74.7878 49.916 74.8218 49.9368C75.0193 50.06 74.8958 50.1813 74.7871 50.2938C74.7197 50.2282 74.6523 50.1612 74.5856 50.0929Z" fill="#FEFEFE"/>
	<path d="M92.6113 44.5225C94.066 41.249 95.3838 38.285 96.8292 35.0323C98.2237 38.1102 99.4756 40.886 100.741 43.6557C101.076 44.3892 100.705 44.5258 100.086 44.5245C97.708 44.5191 95.3305 44.5225 92.6113 44.5225Z" fill="#FCFBFC"/>
	<path d="M132.306 38.6213C132.304 34.4757 132.304 34.4911 136.477 34.4944C137.434 34.4951 138.353 34.6619 139.25 34.9265C141.046 35.4563 141.991 36.7739 141.998 38.6273C142.005 40.3454 140.909 41.9316 139.313 42.4474C137.261 43.1098 135.141 42.7863 133.047 42.8272C132.333 42.8412 132.307 42.3134 132.307 41.7889C132.308 40.7326 132.307 39.6769 132.306 38.6213Z" fill="#FCFBFC"/>
	<path d="M193.923 35.6204H193.077L192.569 34.7757C192.53 34.7114 192.494 34.6545 192.459 34.6043C192.424 34.554 192.389 34.5105 192.353 34.475C192.317 34.4395 192.28 34.412 192.241 34.3926C192.202 34.3739 192.16 34.3645 192.115 34.3645H191.916V35.6211H191.179V32.3382H192.347C193.14 32.3382 193.537 32.6356 193.537 33.2311C193.537 33.3457 193.52 33.4515 193.485 33.5486C193.45 33.6457 193.401 33.7328 193.337 33.8105C193.273 33.8882 193.196 33.9552 193.105 34.0121C193.014 34.0691 192.914 34.1126 192.803 34.1448V34.1541C192.851 34.1696 192.899 34.1943 192.944 34.2285C192.99 34.2633 193.034 34.3028 193.076 34.3491C193.118 34.3953 193.16 34.4442 193.198 34.4971C193.238 34.5493 193.273 34.6009 193.305 34.6512L193.923 35.6204ZM191.916 32.8915V33.8052H192.236C192.394 33.8052 192.521 33.7596 192.617 33.6678C192.714 33.5747 192.763 33.4595 192.763 33.3222C192.763 33.0355 192.591 32.8915 192.25 32.8915H191.916Z" fill="#B2A5CE"/>
</svg>
