<svg width="187" height="141" viewBox="0 0 187 141" fill="none" xmlns="http://www.w3.org/2000/svg">
    <path d="M17.6045 60.4646H25.1101C28.8537 60.4646 31.1729 62.5646 31.1729 65.3039C31.2095 66.984 30.3146 68.5362 28.8354 69.3397C30.8808 69.9606 32.2687 71.8599 32.2687 73.9965C32.2687 77.3566 29.6755 79.6028 25.4205 79.6028H17.6045V60.4646ZM25.1831 68.2988C26.9545 68.2988 27.9771 67.5318 27.9771 65.87C27.9771 64.2082 26.9728 63.4595 25.1831 63.4595H20.8003V68.2988H25.1831ZM25.9866 76.5896C27.7397 76.5896 28.945 75.7131 28.945 73.96C28.945 72.2068 27.7397 71.312 25.9866 71.312H20.8186V76.5896H25.9866ZM33.62 72.7729C33.62 68.171 36.6332 65.6691 40.1212 65.6691C41.8378 65.6691 43.2987 66.4909 44.3396 67.4405L45.4171 65.9431H47.4624V79.6211H44.3396V77.9228C43.4631 78.8541 42.0935 79.895 40.0481 79.895C36.8341 79.8768 33.6018 77.3566 33.62 72.7729ZM44.3396 73.7773V71.7868C44.3396 69.8146 42.6778 68.3354 40.6508 68.3354C38.5142 68.3354 36.761 69.7598 36.761 72.7729C36.761 75.7861 38.4959 77.2105 40.669 77.2105C42.6596 77.1923 44.3214 75.7496 44.3396 73.7773ZM76.6264 65.9248H72.7914L67.2033 72.2616V60.4463H64.0806V79.5846H67.2033V73.2478L72.7914 79.5846H76.6264L70.5452 72.7547L76.6264 65.9248ZM84.4607 65.9248H80.6257L74.5628 72.7729L80.6257 79.6028H84.4607L78.3795 72.7729L84.4607 65.9248ZM102.375 60.4646L96.696 72.6816L90.9983 60.4646H87.5651V79.6028H90.6696V66.6553L95.2351 76.5349H98.1387L102.704 66.6553V79.6028H105.79V60.4646H102.375ZM107.726 72.7729C107.726 68.171 110.739 65.6691 114.227 65.6691C115.944 65.6691 117.405 66.4909 118.446 67.4405L119.523 65.9431H121.568V79.6211H118.446V77.9228C117.569 78.8541 116.2 79.895 114.154 79.895C110.958 79.8768 107.726 77.3566 107.726 72.7729ZM118.446 73.7773V71.7868C118.446 69.8146 116.784 68.3354 114.757 68.3354C112.62 68.3354 110.867 69.7598 110.867 72.7729C110.867 75.7861 112.62 77.2105 114.775 77.2105C116.784 77.1923 118.446 75.7496 118.446 73.7773ZM123.778 65.9248H125.823L126.901 67.4223C127.832 66.3631 128.745 65.7057 130.133 65.7057H132.434V68.6641H128.928C127.631 68.6641 126.901 69.2667 126.901 70.7276V79.5846H123.778V65.9248ZM162.895 76.0783V68.6093H160.356V65.9248H162.895V63.2769L166.036 61.4507V65.9248H169.104V68.6093H166.036V75.5853C166.036 76.4801 166.547 76.9001 167.588 76.9001H168.958V79.6028H166.657C164.429 79.6028 162.895 78.635 162.895 76.0783ZM156.521 74.9461C156.01 76.3157 154.878 77.2288 152.997 77.2288C150.805 77.2288 149.271 75.8592 149.144 73.613H159.608V72.6451C159.608 68.244 156.814 65.6509 152.942 65.6509C149.308 65.6509 146.112 68.4997 146.112 72.7547C146.112 77.0279 148.851 79.8585 152.942 79.8585C156.12 79.8585 158.311 78.3063 159.261 75.5122C158.439 75.3479 157.508 75.147 156.521 74.9461ZM152.924 68.1893C154.896 68.1893 156.448 69.3032 156.649 71.3303H149.18C149.564 69.3397 151.079 68.1893 152.924 68.1893ZM146.569 65.9248H142.734L137.146 72.2434V60.4646H134.023V79.6028H137.146V73.2843L142.734 79.6028H146.569L140.488 72.7729L146.569 65.9248ZM56.1367 77.1192C53.8723 77.1192 52.1739 75.567 52.1739 72.7729C52.1739 69.9789 53.8723 68.4267 56.1367 68.4267C58.0907 68.4267 59.3508 69.3945 59.8073 70.9285C60.5195 70.7824 61.9805 70.4902 62.5831 70.3624C61.9074 67.4223 59.5151 65.6874 56.1185 65.6874C52.1739 65.6874 49.1242 68.5545 49.1242 72.7912C49.1242 77.0279 52.1922 79.895 56.1185 79.895C59.4421 79.895 61.7796 78.2149 62.5648 75.2018C61.944 75.0557 60.5013 74.7817 59.7891 74.6356C59.2777 76.1879 58.0907 77.1192 56.1367 77.1192Z" fill="black"/>
</svg>
