<svg width="500" height="500" viewBox="0 0 500 500" fill="none" xmlns="http://www.w3.org/2000/svg">
    <path d="M288.71 308.799C288.41 308.799 288.11 308.799 287.8 308.799C288.102 308.76 288.408 308.76 288.71 308.799Z" fill="#EBEBEB"/>
    <path d="M246.64 89.3799V444.34H243.9L216.16 444.29H215.99L162.44 444.2H161.26L144.16 444.18L140.94 444.17H140.76L94.2899 444.09L87.2199 444.06L86.0299 444.05L62.8199 443.94V89.3799H246.64Z" fill="#EBEBEB"/>
    <path d="M140.85 113.669L127.29 113.529H113.74L86.62 113.439H85.62V114.439L85.78 157.669V158.479H86.58L113.89 158.139L140.81 157.669L113.51 157.199L87.38 156.869V157.669L86.58 156.859H87.38L87.55 115.389H86.55L87.55 114.389V115.389L113.7 115.299L127.25 115.239L140.13 115.109V114.429L140.82 115.099H140.14L140.26 125.099L140.42 135.839L140.82 157.629L141.21 136.169L141.37 125.309L141.5 114.399V113.719L140.85 113.669Z" fill="#DBDBDB"/>
    <path d="M216.64 125.269L216.77 114.359V113.679H216.07L202.52 113.539H188.95L161.84 113.449H160.84V114.449L161.01 157.679V158.489H161.8L189.11 158.149L216.03 157.679L188.72 157.209L162.61 156.879V157.679L161.8 156.869H162.61L162.77 115.399H161.77L162.77 114.399V115.399L188.91 115.309L202.48 115.249L215.36 115.119V114.439L216.04 115.109H215.37L215.48 125.109L215.65 135.849L216.04 157.639L216.43 136.179L216.6 125.319" fill="#DBDBDB"/>
    <path d="M140.85 180.92L86.62 180.81H85.62V181.81L85.73 243.9C85.73 254.246 85.7733 264.596 85.86 274.95L86.08 306V306.54H86.61L113.84 306.29L140.84 306.01L113.61 305.72L87.15 305.48V306L86.61 305.46H87.15L87.33 274.93C87.3967 264.576 87.44 254.226 87.46 243.88L87.58 182.76H86.58L87.58 181.76V182.76L139.98 182.66V181.79L140.84 182.66H140C140 192.66 140 202.66 140.1 212.66L140.32 243.66L140.86 305.99L141.39 244.12L141.62 212.98C141.71 202.6 141.69 192.19 141.72 181.79V180.93L140.85 180.92Z" fill="#DBDBDB"/>
    <path d="M216.08 180.92L161.85 180.81H160.85V181.81L160.98 243.9C160.98 254.25 161.04 264.6 161.1 274.95L161.29 306.01V306.55H161.82L189.05 306.3L216.05 306.02L188.82 305.73L162.36 305.49V306L161.82 305.46H162.36L162.54 274.93C162.62 264.576 162.663 254.226 162.67 243.88L162.79 182.76H161.79L162.79 181.76V182.76L215.18 182.66V181.79L216.05 182.66H215.18C215.18 192.66 215.18 202.66 215.29 212.66L215.51 243.66L216.05 305.99L216.59 244.12L216.8 212.98C216.9 202.6 216.88 192.19 216.91 181.79V180.93L216.08 180.92Z" fill="#DBDBDB"/>
    <path d="M140.85 329.299L86.62 329.199H85.62V330.199L85.73 392.299C85.73 402.653 85.7733 413.003 85.86 423.349L86 443.659V444.049H87.19V443.639L87.3 423.309C87.3667 412.963 87.41 402.613 87.43 392.259L87.55 331.129H86.55L87.55 330.129V331.129L140 330.999V330.139L140.86 330.999H140C140 340.999 140 350.999 140.1 360.999L140.32 391.999L140.76 443.489V444.119H140.94V443.489L141.37 392.439L141.6 361.309C141.69 350.919 141.67 340.519 141.7 330.119V329.249L140.85 329.299Z" fill="#DBDBDB"/>
    <path d="M216.08 329.299L161.85 329.199H160.85V330.199L160.98 392.299C160.98 402.649 161.04 412.999 161.1 423.349L161.22 443.539V444.229H162.4V443.539L162.52 423.349C162.6 413.003 162.643 402.653 162.65 392.299L162.77 331.169H161.77L162.77 330.169V331.169L215.16 331.059V330.199L216.03 331.059H215.16C215.16 341.059 215.16 351.059 215.27 361.059L215.49 392.059L215.93 443.429V444.299H216.1V443.429L216.55 392.499L216.76 361.369C216.86 350.979 216.84 340.579 216.87 330.179V329.309L216.08 329.299Z" fill="#DBDBDB"/>
    <path d="M263.08 72.4697V444.31L246.64 444.34V89.3797H62.82V443.94L46.39 443.87V72.4697H263.08Z" fill="#DBDBDB"/>
    <path d="M240.09 305.979H223.42V351.629H240.09V305.979Z" fill="#DBDBDB"/>
    <path d="M238.48 313.93C238.445 315.252 238.02 316.535 237.259 317.618C236.499 318.701 235.436 319.536 234.203 320.017C232.971 320.499 231.624 320.607 230.33 320.328C229.037 320.048 227.854 319.393 226.931 318.445C226.008 317.497 225.385 316.298 225.139 314.998C224.894 313.697 225.037 312.354 225.551 311.134C226.066 309.915 226.928 308.874 228.03 308.142C229.133 307.411 230.427 307.02 231.75 307.02C232.646 307.031 233.53 307.219 234.353 307.573C235.176 307.927 235.921 308.439 236.546 309.081C237.171 309.722 237.664 310.481 237.995 311.313C238.327 312.145 238.492 313.034 238.48 313.93Z" fill="#C7C7C7"/>
    <path d="M429.12 45.0996H394.84V59.5896H429.12V45.0996Z" fill="#EBEBEB"/>
    <path d="M409.99 63.3691H375.71V77.8591H409.99V63.3691Z" fill="#EBEBEB"/>
    <path d="M448.24 63.3691H413.96V77.8591H448.24V63.3691Z" fill="#EBEBEB"/>
    <path d="M322.08 194.54H287.8V209.03H322.08V194.54Z" fill="#EBEBEB"/>
    <path d="M73.24 45.1191H38.96V59.6091H73.24V45.1191Z" fill="#EBEBEB"/>
    <path d="M394.83 375.52H429.11V361.03H394.83V375.52Z" fill="#EBEBEB"/>
    <path d="M413.96 357.25H448.24V342.76H413.96V357.25Z" fill="#EBEBEB"/>
    <path d="M337.033 101.387L335.168 154.024L418.165 156.966L420.031 104.329L337.033 101.387Z" fill="#EBEBEB"/>
    <path d="M420 104.33C416.54 107.42 413 110.33 409.53 113.4C406.06 116.47 402.53 119.34 398.95 122.27C395.257 125.33 391.56 128.363 387.86 131.37L387.53 131.66L377.67 139.66L377.19 140.03L376.74 139.62C373.653 136.746 370.57 133.863 367.49 130.97C367.373 130.878 367.262 130.778 367.16 130.67C363.67 127.41 360.16 124.13 356.73 120.79C353.42 117.64 350.11 114.43 346.82 111.22C343.53 108.01 340.25 104.76 337.01 101.43C340.48 104.31 343.88 107.31 347.3 110.25C350.72 113.19 354.13 116.25 357.52 119.25C361.287 122.583 365.053 125.986 368.82 129.46L377.27 137.18C380.27 134.81 383.27 132.42 386.27 130.08C390.27 126.92 394.27 123.786 398.27 120.68C401.857 117.906 405.46 115.153 409.08 112.42C412.76 109.71 416.36 107 420 104.33Z" fill="white"/>
    <path d="M368.93 130.659L368.82 130.739C368.37 131.099 367.92 131.459 367.47 131.799C365.33 133.489 363.14 135.089 360.91 136.649C358.2 138.579 355.43 140.409 352.64 142.229C349.85 144.049 347.04 145.789 344.17 147.489C341.3 149.189 338.41 150.839 335.42 152.339C338.02 150.229 340.71 148.259 343.42 146.339C346.13 144.419 348.92 142.579 351.7 140.759C354.48 138.939 357.31 137.189 360.18 135.489C362.46 134.139 364.78 132.809 367.18 131.569C367.72 131.279 368.27 130.999 368.83 130.719L368.93 130.659Z" fill="white"/>
    <path d="M418 155.27C415.13 153.56 412.35 151.7 409.62 149.81C406.89 147.92 404.2 145.95 401.53 143.97C398.86 141.99 396.24 139.92 393.67 137.81C391.57 136.1 389.5 134.36 387.5 132.53L386.21 131.36C386.183 131.327 386.152 131.297 386.12 131.27L386.24 131.33L387.83 132.33C390.1 133.74 392.31 135.22 394.5 136.74C397.24 138.63 399.91 140.6 402.58 142.59C405.25 144.58 407.86 146.59 410.43 148.75C413 150.91 415.58 153 418 155.27Z" fill="white"/>
    <path d="M407.691 177.274L395.813 213.833L453.456 232.563L465.335 196.004L407.691 177.274Z" fill="#EBEBEB"/>
    <path d="M465.3 196C462.25 197.47 459.19 198.83 456.13 200.26C453.07 201.69 450 203.01 446.93 204.36C443.86 205.71 440.52 207.15 437.32 208.52L437.03 208.66L428.52 212.26L428.1 212.42L427.87 212.05C426.277 209.383 424.69 206.74 423.11 204.12L422.95 203.85C421.15 200.85 419.37 197.85 417.61 194.85C415.85 191.85 414.25 189.06 412.61 186.14C410.97 183.22 409.3 180.29 407.69 177.31C409.55 180.02 411.33 182.81 413.14 185.56C414.95 188.31 416.73 191.13 418.5 193.94C420.5 197.06 422.46 200.206 424.38 203.38C425.85 205.74 427.3 208.12 428.76 210.49C431.33 209.42 433.91 208.35 436.48 207.31C439.92 205.896 443.357 204.503 446.79 203.13C449.86 201.9 452.95 200.69 456.03 199.5C459.11 198.31 462.21 197.08 465.3 196Z" fill="white"/>
    <path d="M424.17 204.189H424.08L422.92 204.669C421.08 205.419 419.22 206.099 417.34 206.749C415.05 207.559 412.74 208.289 410.42 209.009C408.1 209.729 405.77 210.379 403.42 211.009C401.07 211.639 398.7 212.209 396.31 212.659C398.55 211.659 400.83 210.859 403.12 210.059C405.41 209.259 407.74 208.529 410.05 207.809C412.36 207.089 414.71 206.429 417.05 205.809C418.92 205.309 420.81 204.809 422.72 204.449L424.05 204.189H424.17Z" fill="white"/>
    <path d="M453.67 231.32C452 229.54 450.42 227.68 448.89 225.8C447.36 223.92 445.89 222.01 444.38 220.08C442.87 218.15 441.49 216.18 440.11 214.18C438.98 212.56 437.87 210.92 436.83 209.24C436.61 208.87 436.39 208.52 436.17 208.16C436.156 208.132 436.139 208.105 436.12 208.08L436.19 208.15L437.11 209.15C438.42 210.59 439.67 212.08 440.91 213.58C442.45 215.46 443.91 217.38 445.4 219.31C446.89 221.24 448.3 223.21 449.68 225.21C451.06 227.21 452.42 229.22 453.67 231.32Z" fill="white"/>
    <path d="M44.36 443.84L95.77 443.6L147.18 443.51L250 443.34L352.82 443.51L404.23 443.6L455.64 443.84L404.23 444.08L352.82 444.17L250 444.34L147.18 444.17L95.77 444.08L44.36 443.84Z" fill="#263238"/>
    <path d="M170.36 345.75C170.36 345.75 193.62 431.22 199.23 443.84H289.45C273.88 403.07 257.4 349.72 256.93 346.01C256.93 345.84 256.93 345.75 256.93 345.75H170.36Z" fill="#37474F"/>
    <path d="M183 357.12C183.57 364.06 208.81 437.87 210.93 443.84H212.23C212.23 443.84 184.82 362.18 183.35 357.12C183.31 356.91 183 356.91 183 357.12Z" fill="#263238"/>
    <path d="M244.4 345.74L232.75 422.48L232.34 425.08L231.34 432.02L231.26 432.51L230.98 434.36L229.55 443.81H199.23C193.63 431.19 170.36 345.71 170.36 345.71L244.4 345.74Z" fill="#263238"/>
    <path d="M125.12 443.84H210.49C210.49 443.48 210.55 443.19 210.56 442.95C210.57 442.71 210.61 442.37 210.61 442.37L212.04 441.6C217.04 438.86 221.47 436.73 225.1 435.11C225.72 434.84 226.31 434.58 226.89 434.31C228.53 433.6 230 433 231.22 432.52C234.37 431.28 236.11 430.72 236.11 430.72C236.22 430.46 236.31 430.21 236.4 429.95C248.77 398.46 256.23 350.48 256.93 346.01C256.93 345.77 256.93 345.67 256.93 345.67H135C127.76 368.37 113.21 410.11 125.12 443.84Z" fill="#37474F"/>
    <path d="M240.47 428.47C230.13 432.03 220.15 437.08 210.61 442.38C210.543 442.425 210.494 442.493 210.472 442.57C210.45 442.648 210.457 442.731 210.49 442.804C210.524 442.878 210.583 442.937 210.656 442.971C210.729 443.005 210.812 443.012 210.89 442.99C220.95 438.67 231.2 434.54 241.01 429.67C241.155 429.59 241.266 429.459 241.318 429.301C241.371 429.144 241.363 428.972 241.294 428.821C241.226 428.669 241.104 428.549 240.951 428.484C240.798 428.419 240.626 428.414 240.47 428.47Z" fill="#263238"/>
    <path d="M243.67 359.441C243.67 359.091 243.03 359.011 243.03 359.391C243.11 371.331 242.35 381.841 241.35 393.001C240.88 398.181 236.71 426.821 227.72 424.731C226.22 424.381 225.45 422.901 225.22 420.641C224.93 417.911 225.96 414.561 226.41 411.851C227.41 405.851 228.21 399.851 228.72 393.791C229.765 382.515 229.645 371.161 228.36 359.911C228.36 359.834 228.329 359.76 228.275 359.705C228.221 359.651 228.147 359.621 228.07 359.621C227.993 359.621 227.919 359.651 227.865 359.705C227.81 359.76 227.78 359.834 227.78 359.911C227.78 375.561 227.38 391.181 225.04 406.681C223.92 414.131 220.17 425.341 227.96 426.491C235.75 427.641 241 408.901 242 403.761C244.69 389.431 244.8 374.001 243.67 359.441Z" fill="#263238"/>
    <path d="M228 425.501C227.21 427.437 226.542 429.421 226 431.441C225.42 433.001 225.135 434.656 225.16 436.321C225.175 436.385 225.209 436.444 225.256 436.491C225.304 436.537 225.364 436.569 225.429 436.583C225.494 436.596 225.561 436.591 225.623 436.568C225.686 436.544 225.74 436.504 225.78 436.451C226.84 435.121 227.28 433.291 227.87 431.701C228.56 429.871 229.28 428.051 229.87 426.191C229.937 425.949 229.911 425.691 229.797 425.467C229.682 425.244 229.488 425.072 229.253 424.985C229.017 424.898 228.758 424.903 228.526 424.998C228.293 425.094 228.106 425.273 228 425.501Z" fill="#263238"/>
    <path d="M187.3 368.81C187.325 367.559 187.197 366.31 186.92 365.09C186.907 365.052 186.883 365.02 186.851 364.997C186.818 364.973 186.78 364.961 186.74 364.961C186.7 364.961 186.661 364.973 186.629 364.997C186.597 365.02 186.573 365.052 186.56 365.09C186.305 366.142 186.164 367.218 186.14 368.3C186.01 369.53 185.85 370.76 185.72 372C185.455 374.521 185.014 377.021 184.4 379.48C183.264 384.132 180.894 388.392 177.54 391.81C174.208 395.089 170.268 397.684 165.94 399.45C161.11 401.45 156.03 402.25 151.05 403.72C151.007 403.735 150.971 403.764 150.948 403.802C150.925 403.841 150.916 403.886 150.923 403.931C150.93 403.975 150.953 404.015 150.987 404.045C151.022 404.074 151.065 404.09 151.11 404.09C156.638 404.076 162.111 402.996 167.23 400.91C171.76 399.213 175.882 396.583 179.33 393.19C182.796 389.687 185.238 385.302 186.39 380.51C186.968 378.049 187.303 375.537 187.39 373.01C187.445 371.61 187.415 370.207 187.3 368.81Z" fill="#263238"/>
    <path d="M137.09 443.84C134.55 436.45 132.97 428.763 132.39 420.97C131.73 413.175 131.69 405.341 132.27 397.54C132.67 393.66 132.97 389.76 133.63 385.91C133.95 383.98 134.18 382.04 134.63 380.13L135.83 374.4C136.04 373.4 136.22 372.49 136.45 371.54L137.21 368.71L138.74 363.07C139.28 361.2 139.96 359.37 140.56 357.52C141.16 355.67 141.81 353.83 142.46 352C141.6 355.8 140.54 359.53 139.69 363.32L138.43 369L137.82 371.84C137.62 372.79 137.48 373.74 137.31 374.7L136.31 380.42C135.96 382.32 135.78 384.25 135.51 386.16C134.91 389.98 134.63 393.84 134.26 397.69C133.683 405.396 133.577 413.131 133.94 420.85C134.05 422.78 134.14 424.71 134.35 426.63L134.61 429.52L134.97 432.4C135.431 436.255 136.139 440.076 137.09 443.84Z" fill="#263238"/>
    <path d="M213.72 230.16C230.08 257.03 262.47 299.36 278.1 308.78C295.47 319.25 345.1 283.71 377.24 262.43C383.62 258.2 353.86 206.61 347.24 211.43C330.05 224.14 294.5 253.66 289.78 252.66C285.92 251.84 253.1 228.98 234.71 215.88C205.49 195.06 202.2 211.25 213.72 230.16Z" fill="#D3766A"/>
    <path d="M334.69 219.001L362.29 278.291C362.29 278.291 302.2 317.581 283.51 312.801C264.82 308.021 225.1 253.001 213.45 231.401C201.8 209.801 207.22 197.671 229.8 212.161C252.38 226.651 287.14 249.821 290.8 249.941C294.46 250.061 334.69 219.001 334.69 219.001Z" fill="#92E3A9"/>
    <path d="M345.27 285.37C337.38 260.04 325.27 234.61 323.43 230.03C323.35 229.82 323.01 229.98 323.1 230.19C325.1 234.59 335.83 265.19 344.91 285.55C345 285.78 345.35 285.61 345.27 285.37Z" fill="#263238"/>
    <path opacity="0.1" d="M301.61 310.331C294.39 312.771 287.96 313.921 283.51 312.781C264.82 308.001 225.09 253.001 213.44 231.411C208.44 222.171 206.6 214.671 207.88 210.221C230.27 234.281 282.66 290.151 301.61 310.331Z" fill="black"/>
    <path d="M359.38 274.36L334.89 221C335.75 219.89 339.43 217.69 343.06 214.27C343.06 214.27 352.58 201.17 356.42 186.96C359.66 175.02 363.11 156.96 369.6 158.43C379.06 160.6 377.44 184 375.7 197.43C382.5 194.69 388.62 192.97 392.54 193.27C405.54 194.27 408.54 253.1 397.54 260.6C386.92 267.73 366.59 275.4 359.38 274.36Z" fill="#D3766A"/>
    <path d="M394.7 279.88L308.29 273.43L316.79 159.57L403.2 166.03L394.7 279.88Z" fill="#455A64"/>
    <path d="M394.46 172.71L324.435 167.481L317.025 266.725L387.05 271.954L394.46 172.71Z" fill="white"/>
    <path d="M350.673 169.439L324.437 167.48L317.027 266.724L343.264 268.683L350.673 169.439Z" fill="#EBEBEB"/>
    <path d="M340.15 188.861C339.165 189.382 338.069 189.661 336.955 189.673C335.84 189.686 334.739 189.432 333.742 188.934C332.745 188.435 331.882 187.705 331.224 186.805C330.566 185.906 330.133 184.862 329.96 183.761C329.76 182.49 329.914 181.189 330.405 180.001C330.897 178.812 331.705 177.782 332.744 177.023C333.782 176.264 335.009 175.806 336.29 175.698C337.572 175.591 338.858 175.839 340.008 176.414C341.158 176.99 342.127 177.871 342.809 178.961C343.491 180.051 343.86 181.308 343.875 182.594C343.889 183.88 343.549 185.145 342.892 186.25C342.235 187.356 341.286 188.259 340.15 188.861Z" fill="#A6A6A6"/>
    <path d="M339.1 182C339.071 182.424 338.917 182.83 338.658 183.167C338.398 183.504 338.045 183.756 337.642 183.892C337.239 184.028 336.805 184.042 336.394 183.931C335.984 183.82 335.615 183.59 335.335 183.269C335.056 182.949 334.877 182.553 334.823 182.131C334.768 181.71 334.84 181.281 335.029 180.9C335.217 180.519 335.515 180.203 335.884 179.991C336.252 179.779 336.676 179.681 337.1 179.71C337.669 179.748 338.199 180.011 338.574 180.441C338.949 180.87 339.138 181.431 339.1 182Z" fill="white"/>
    <path d="M340.21 188.001L340.15 188.891C338.987 189.489 337.68 189.754 336.376 189.655C335.071 189.556 333.82 189.098 332.76 188.331L332.83 187.451C332.866 186.966 332.997 186.493 333.216 186.059C333.435 185.626 333.737 185.239 334.105 184.922C334.473 184.605 334.9 184.363 335.362 184.211C335.823 184.059 336.31 184 336.795 184.036C337.28 184.072 337.752 184.203 338.186 184.422C338.62 184.641 339.007 184.943 339.324 185.311C339.641 185.679 339.882 186.106 340.034 186.568C340.186 187.029 340.246 187.516 340.21 188.001Z" fill="white"/>
    <path d="M373.574 179.587L354.676 178.176L354.579 179.482L373.476 180.893L373.574 179.587Z" fill="#EBEBEB"/>
    <path d="M387.069 184.222L354.41 181.783L354.313 183.09L386.972 185.528L387.069 184.222Z" fill="#EBEBEB"/>
    <path d="M379.522 187.289L354.142 185.395L354.045 186.701L379.424 188.596L379.522 187.289Z" fill="#EBEBEB"/>
    <path d="M368.254 193.721L353.605 192.627L353.508 193.933L368.157 195.027L368.254 193.721Z" fill="#EBEBEB"/>
    <path d="M378.717 198.129L353.337 196.234L353.24 197.541L378.619 199.436L378.717 198.129Z" fill="#EBEBEB"/>
    <path d="M385.728 202.281L353.069 199.843L352.972 201.149L385.631 203.588L385.728 202.281Z" fill="#EBEBEB"/>
    <path d="M371.686 204.866L352.789 203.455L352.692 204.761L371.589 206.172L371.686 204.866Z" fill="#EBEBEB"/>
    <path d="M386.936 211.994L354.186 209.701L354.095 211.011L386.845 213.304L386.936 211.994Z" fill="#EBEBEB"/>
    <path d="M375.685 216.063L351.991 214.294L351.893 215.6L375.587 217.369L375.685 216.063Z" fill="#EBEBEB"/>
    <path d="M369.311 219.219L351.72 217.905L351.622 219.212L369.213 220.525L369.311 219.219Z" fill="#EBEBEB"/>
    <path d="M380.867 223.709L351.449 221.513L351.352 222.819L380.77 225.016L380.867 223.709Z" fill="#EBEBEB"/>
    <path d="M374.603 230.503L350.909 228.734L350.811 230.041L374.505 231.81L374.603 230.503Z" fill="#EBEBEB"/>
    <path d="M383.304 234.79L350.645 232.352L350.548 233.658L383.207 236.096L383.304 234.79Z" fill="#EBEBEB"/>
    <path d="M379.516 241.769L350.098 239.572L350.001 240.879L379.419 243.075L379.516 241.769Z" fill="#EBEBEB"/>
    <path d="M367.254 244.495L349.833 243.194L349.735 244.501L367.157 245.801L367.254 244.495Z" fill="#EBEBEB"/>
    <path d="M384.388 248.225L351.638 245.933L351.546 247.243L384.296 249.535L384.388 248.225Z" fill="#EBEBEB"/>
    <path d="M372.715 255.802L349.021 254.033L348.923 255.34L372.617 257.109L372.715 255.802Z" fill="#EBEBEB"/>
    <path d="M383.62 259.088L350.87 256.796L350.778 258.106L383.528 260.398L383.62 259.088Z" fill="#EBEBEB"/>
    <path d="M380.115 262.492L350.615 260.427L350.523 261.737L380.023 263.802L380.115 262.492Z" fill="#EBEBEB"/>
    <path d="M339.448 194.092L330.748 193.483L330.656 194.793L339.356 195.402L339.448 194.092Z" fill="#A6A6A6"/>
    <path d="M343.133 199.105L328.693 198.027L328.595 199.334L343.035 200.412L343.133 199.105Z" fill="#A6A6A6"/>
    <path d="M340.488 202.539L328.422 201.638L328.324 202.944L340.391 203.845L340.488 202.539Z" fill="#A6A6A6"/>
    <path d="M342.328 209.945L327.888 208.867L327.791 210.174L342.23 211.252L342.328 209.945Z" fill="#A6A6A6"/>
    <path d="M342.955 213.612L327.618 212.467L327.52 213.773L342.858 214.918L342.955 213.612Z" fill="#A6A6A6"/>
    <path d="M338.102 216.89L327.342 216.087L327.245 217.393L338.005 218.197L338.102 216.89Z" fill="#A6A6A6"/>
    <path d="M341.707 219.743L328.957 218.851L328.866 220.161L341.616 221.053L341.707 219.743Z" fill="#A6A6A6"/>
    <path d="M382.392 157.82L338.594 154.55L337.435 170.067L381.234 173.337L382.392 157.82Z" fill="#A6A6A6"/>
    <path d="M375.62 163.381L344.46 161.051L345.36 149.011L376.52 151.331L375.62 163.381Z" fill="#A6A6A6"/>
    <path d="M372.14 195.64C369.31 201.83 378.22 201.64 378.22 201.64C378.22 201.64 365.47 205 365 212.51C364.59 219.75 375.34 219.12 376.11 219.08C375.44 219.27 363.8 222.69 364.11 230.27C364.45 238.16 375.11 235.68 375.82 235.51C375.24 235.89 367.65 240.96 369.2 246.67C371.88 256.48 391.66 244.03 399.6 246.2C399.6 246.2 397.48 260.08 397.5 260.49C397.5 260.49 416.55 249.03 418.87 238.16C419.229 236.584 419.04 234.933 418.335 233.479C417.629 232.024 416.45 230.854 414.99 230.16C414.99 230.16 421.54 227.16 421.48 221.16C421.43 218.09 416.48 215.42 416.48 215.42C416.48 215.42 421.63 212.79 421.24 207.47C420.94 203.23 416.02 201.21 416.02 201.21C416.02 201.21 419.79 196.39 418.08 192.16C414.67 183.6 378.21 182.41 372.14 195.64Z" fill="#D3766A"/>
    <path d="M415.33 200.78C415.35 200.774 415.367 200.761 415.38 200.744C415.392 200.727 415.399 200.706 415.399 200.685C415.399 200.664 415.392 200.644 415.38 200.627C415.367 200.609 415.35 200.597 415.33 200.59C403.43 197.27 389.33 197.27 377.7 201.59C377.31 201.73 377.38 202.42 377.83 202.34C390.73 200.18 402.31 199.3 415.33 200.78Z" fill="#263238"/>
    <path d="M416.7 215.351C416.84 215.351 416.87 215.141 416.7 215.101C404.43 211.741 388.56 212.181 375.7 218.731C375.26 218.961 375.09 219.601 375.61 219.381C384.52 215.671 405 214.001 416.7 215.351Z" fill="#263238"/>
    <path d="M375.11 236.28C387.67 230.47 400.83 229.28 414.52 229.98C414.7 229.98 414.69 229.74 414.52 229.69C407.91 227.52 399.14 227.97 392.34 228.91C386.014 229.653 379.993 232.043 374.88 235.84C374.71 236 374.85 236.4 375.11 236.28Z" fill="#263238"/>
    <path d="M256.89 345.75L253.36 307.15C253.36 307.15 263.67 291.39 262.16 272.77C261.07 259.21 222.36 211.77 219.87 209.49C209.87 200.16 192.98 203.88 186.05 209.12C147.67 238.12 148 284.49 135.05 345.67L256.89 345.75Z" fill="#92E3A9"/>
    <path d="M256.89 345.75L253.36 307.15C253.36 307.15 266.64 289.45 262.16 272.77C257.68 256.09 244.48 240.87 244.48 240.87H187.4C187.4 240.87 182.23 290.81 169.16 299.31C161.224 304.602 151.541 306.596 142.16 304.87L135 345.67L256.89 345.75Z" fill="#37474F"/>
    <path d="M216.94 302.101C222.469 301.777 228.014 301.864 233.53 302.361C236.27 302.641 238.97 303.051 241.68 303.511C243.04 303.751 244.39 303.931 245.74 304.111C247.158 304.342 248.598 304.399 250.03 304.281C250.056 304.281 250.082 304.291 250.101 304.31C250.119 304.329 250.13 304.354 250.13 304.381C250.13 304.407 250.119 304.433 250.101 304.451C250.082 304.47 250.056 304.481 250.03 304.481C247.403 305.049 244.699 305.174 242.03 304.851C239.25 304.591 236.49 304.201 233.71 303.911C228.11 303.321 222.51 302.741 216.88 302.561C216.68 302.551 216.68 302.121 216.94 302.101Z" fill="#263238"/>
    <path d="M204.18 308.941C208.603 307.801 213.087 306.913 217.61 306.281C219.88 305.971 222.14 305.791 224.43 305.671C225.51 305.621 226.61 305.581 227.7 305.561C228.79 305.541 230.1 305.671 231.3 305.631C231.43 305.631 231.45 305.821 231.3 305.821C230.17 305.901 229.04 306.161 227.92 306.301L224.53 306.711C222.27 306.991 220.02 307.301 217.75 307.561C213.22 308.081 208.75 308.641 204.2 309.311C204 309.351 204 309.001 204.18 308.941Z" fill="#263238"/>
    <path d="M194.21 225.53C187.15 235.58 133.71 299.09 118.62 308.69C107.15 316 76.9999 320.46 78.5499 292C79.5499 273 155.55 219.4 186.21 206.41C200.3 200.4 209 204.45 194.21 225.53Z" fill="#92E3A9"/>
    <path d="M90.6499 313.111C95.1518 314.331 99.868 314.539 104.46 313.721C109.022 312.975 113.403 311.374 117.37 309.001C119.346 307.808 121.231 306.471 123.01 305.001C124.79 303.541 126.49 301.951 128.17 300.351C131.52 297.121 134.76 293.761 137.95 290.351C144.39 283.611 150.61 276.631 156.84 269.681L175.46 248.681C172.61 252.381 169.65 255.991 166.71 259.681C163.77 263.371 160.71 266.871 157.71 270.441C151.65 277.547 145.413 284.521 139 291.361C135.76 294.751 132.48 298.091 129.07 301.311C127.36 302.911 125.63 304.501 123.79 305.991C121.949 307.496 119.978 308.834 117.9 309.991C113.766 312.325 109.225 313.849 104.52 314.481C102.197 314.765 99.8515 314.809 97.5199 314.611C95.1715 314.431 92.8595 313.926 90.6499 313.111Z" fill="#263238"/>
    <path d="M168.31 257.21C169.535 256.209 170.814 255.274 172.14 254.41L176.07 251.78C175.107 253.068 173.918 254.169 172.56 255.03C171.242 255.935 169.814 256.668 168.31 257.21Z" fill="#263238"/>
    <path d="M187.4 240.87H196.12C196.466 228.327 194.681 215.816 190.84 203.87L185.2 205.3C185.2 205.3 190.75 228.42 187.4 240.87Z" fill="#37474F"/>
    <path d="M222.82 207.33C222.82 207.33 234.58 224.27 244.48 240.87H238.94L216.75 205L222.82 207.33Z" fill="#37474F"/>
    <path d="M194 210.401C194.69 212.821 205.72 227.051 216.92 225.981C220.57 225.631 220.99 206.791 220.99 206.791L221.25 205.291L224.88 184.381L199.83 170.001L196.22 168.101C196.22 168.101 195.61 173.891 194.91 181.101C194.91 181.431 194.85 181.771 194.82 182.101C194.79 182.431 194.71 182.891 194.68 183.271C194.57 184.341 194.45 185.441 194.36 186.541C194.29 187.381 194.21 188.191 194.17 189.071C194.13 189.951 194.05 190.801 193.98 191.691C193.5 200.391 193.73 209.361 194 210.401Z" fill="#D3766A"/>
    <path d="M194.91 181.071C197.281 186.778 200.866 191.901 205.417 196.084C209.967 200.266 215.373 203.408 221.26 205.291L224.89 184.381L199.83 170.001L196.22 168.101C196.22 168.101 195.61 173.861 194.91 181.071Z" fill="#263238"/>
    <path d="M202.47 166.081C195.8 161.611 177.06 155.031 167.16 169.591C153.02 190.361 183.64 226.791 185.21 245.941C188.06 280.631 206.08 300.111 222.07 290.421C240 279.561 238.88 250.001 205.24 216.671C184.24 195.821 181 180.591 185.84 177.091C190.68 173.591 198.21 176.681 198.21 176.681L202.47 166.081Z" fill="#263238"/>
    <path d="M199.82 164.54C196.389 162.773 192.755 161.43 189 160.54C185.178 159.59 181.2 159.447 177.32 160.12C173.339 160.839 169.686 162.795 166.88 165.71C164.083 168.601 162.025 172.124 160.88 175.98C159.857 179.836 159.669 183.866 160.33 187.8C160.993 191.646 162.094 195.404 163.61 199C166.692 206.078 170.559 212.787 175.14 219C171.299 212.402 167.956 205.526 165.14 198.43C163.84 194.902 162.905 191.249 162.35 187.53C161.784 183.881 161.991 180.154 162.96 176.59C163.972 173.057 165.813 169.817 168.33 167.14C170.812 164.45 174.057 162.583 177.63 161.79C181.292 161.001 185.073 160.937 188.76 161.6C190.639 161.879 192.499 162.273 194.33 162.78C196.183 163.293 198.013 163.88 199.82 164.54Z" fill="#263238"/>
    <path d="M193.93 204.9C197.03 208.44 200.51 211.62 203.86 214.9C207.21 218.18 210.62 221.4 213.86 224.74C217.1 228.08 220.3 231.52 223.19 235.15C226.136 238.72 228.722 242.572 230.91 246.65C233.127 250.651 234.569 255.035 235.16 259.57C235.576 264.136 235.19 268.738 234.02 273.17C232.873 277.632 230.691 281.76 227.65 285.22C226.122 286.963 224.374 288.499 222.45 289.79C221.491 290.432 220.488 291.007 219.45 291.51C218.412 292.055 217.3 292.445 216.15 292.67C218.501 292.333 220.758 291.517 222.78 290.27C224.851 289.085 226.757 287.632 228.45 285.95C230.138 284.24 231.606 282.325 232.82 280.25C234.023 278.164 234.982 275.946 235.68 273.64C236.378 271.358 236.853 269.014 237.1 266.64L237.26 264.84L237.33 263.05C237.381 261.836 237.348 260.62 237.23 259.41C236.666 254.599 235.183 249.941 232.86 245.69C228.31 237.22 221.86 230.11 215.08 223.59C211.68 220.32 208.14 217.22 204.57 214.17C201 211.12 197.38 208.09 193.93 204.9Z" fill="#263238"/>
    <path d="M203.57 165.19C202.24 163.43 199.22 162.19 197.86 162.81C196.5 163.43 191.13 173.59 192.13 176.27C193.13 178.95 198.29 177.86 198.29 177.86L203.57 165.19Z" fill="#92E3A9"/>
    <path d="M252.26 147.48C260.11 183.89 239.2 192.7 231.34 194.39C224.21 195.91 199.75 200.22 188.18 164.82C176.61 129.42 191.05 114.26 207.18 109.9C223.31 105.54 244.41 111.07 252.26 147.48Z" fill="#D3766A"/>
    <path d="M240.34 142.11C239.484 142.099 238.63 142.042 237.78 141.94C236.866 142.012 235.954 141.776 235.19 141.27C234.981 141.066 234.846 140.798 234.804 140.509C234.762 140.22 234.817 139.925 234.96 139.67C235.322 139.21 235.8 138.855 236.345 138.64C236.89 138.426 237.482 138.36 238.06 138.45C239.259 138.455 240.413 138.904 241.3 139.71C241.493 139.906 241.624 140.153 241.679 140.422C241.733 140.691 241.708 140.97 241.606 141.225C241.504 141.479 241.33 141.699 241.105 141.856C240.88 142.014 240.614 142.102 240.34 142.11Z" fill="#263238"/>
    <path d="M214.82 151.571C215.642 151.322 216.45 151.028 217.24 150.691C218.133 150.497 218.937 150.016 219.53 149.321C219.674 149.066 219.73 148.771 219.688 148.481C219.647 148.192 219.51 147.924 219.3 147.721C218.825 147.379 218.268 147.172 217.686 147.119C217.104 147.066 216.518 147.17 215.99 147.421C214.836 147.755 213.85 148.512 213.23 149.541C213.102 149.782 213.046 150.055 213.07 150.327C213.094 150.599 213.196 150.858 213.364 151.073C213.533 151.288 213.76 151.45 214.018 151.538C214.277 151.626 214.555 151.638 214.82 151.571Z" fill="#263238"/>
    <path d="M221.07 156.111C221.07 156.021 220.89 156.261 220.91 156.361C221.41 158.851 221.56 161.791 219.44 162.991C219.37 162.991 219.44 163.161 219.44 163.131C222.18 162.281 221.94 158.391 221.07 156.111Z" fill="#263238"/>
    <path d="M218.4 153.87C214.33 154.24 215.4 162.36 219.14 162.02C222.88 161.68 221.81 153.57 218.4 153.87Z" fill="#263238"/>
    <path d="M216.86 154.511C216.21 155.061 215.62 155.961 214.77 156.151C213.92 156.341 212.94 155.621 212.19 154.881C212.11 154.811 212.05 154.881 212.06 154.991C212.24 156.551 213.06 158.071 214.74 158.091C216.29 158.091 217.2 156.591 217.39 154.981C217.43 154.681 217.12 154.281 216.86 154.511Z" fill="#263238"/>
    <path d="M236.14 152.87C236.14 152.77 236.35 152.97 236.35 153.08C236.44 155.61 236.98 158.5 239.35 159.18C239.42 159.18 239.42 159.33 239.35 159.32C236.5 159.12 235.82 155.28 236.14 152.87Z" fill="#263238"/>
    <path d="M238.22 150.071C242.27 149.481 243.15 157.621 239.4 158.161C235.65 158.701 234.82 150.561 238.22 150.071Z" fill="#263238"/>
    <path d="M239.86 150.32C240.62 150.71 241.41 151.44 242.27 151.44C243.13 151.44 243.93 150.49 244.49 149.6C244.55 149.51 244.63 149.6 244.64 149.68C244.83 151.24 244.41 152.9 242.76 153.32C241.26 153.7 240.01 152.43 239.45 150.91C239.35 150.63 239.56 150.17 239.86 150.32Z" fill="#263238"/>
    <path d="M225.69 175.571C226.34 176.111 227.01 176.881 227.94 176.881C228.877 176.784 229.783 176.491 230.6 176.021C230.68 176.021 230.77 176.021 230.72 176.141C230.4 176.669 229.943 177.101 229.397 177.39C228.851 177.678 228.237 177.814 227.62 177.781C227.095 177.686 226.61 177.44 226.224 177.072C225.838 176.704 225.569 176.23 225.45 175.711C225.4 175.561 225.59 175.491 225.69 175.571Z" fill="#263238"/>
    <path d="M234.92 165.001C234.92 165.001 235.92 168.681 236.21 170.451C236.21 170.611 235.82 170.751 235.21 170.871C235.21 170.871 235.21 170.871 235.14 170.871C233.659 171.357 232.073 171.427 230.555 171.075C229.037 170.722 227.645 169.96 226.53 168.871C226.493 168.84 226.469 168.796 226.465 168.748C226.46 168.701 226.474 168.653 226.505 168.616C226.535 168.579 226.579 168.555 226.627 168.55C226.675 168.546 226.723 168.56 226.76 168.591C229.236 169.818 232.041 170.214 234.76 169.721C234.82 169.211 232.76 163.481 233.04 163.421C234.432 163.349 235.828 163.463 237.19 163.761C235.24 156.041 232.07 148.691 230.25 140.971C230.19 140.691 230.58 140.551 230.69 140.791C234.56 148.261 237 157.101 239.21 165.021C239.5 166.051 235.67 165.231 234.92 165.001Z" fill="#263238"/>
    <path d="M186.09 163.891C192.42 164.381 193.87 151.111 193.87 151.111C193.87 151.111 206.73 151.111 210.98 132.651C210.98 132.651 210.7 141.261 205.28 147.941C205.28 147.941 227.96 145.541 237.51 126.561C237.51 126.561 233.7 136.231 230.13 139.671C230.13 139.671 239.64 137.011 244.28 129.291C244.28 129.291 248.28 140.291 251.28 143.291C251.28 143.291 250.35 103.611 213.59 107.831C213.59 107.831 190.59 109.361 182.31 127.581C174.03 145.801 186.09 163.891 186.09 163.891Z" fill="#263238"/>
    <path d="M194.56 166.37C194.56 166.37 185.04 155.85 180.17 159.37C175.3 162.89 183.48 178.86 189.92 180.37C190.731 180.62 191.585 180.704 192.43 180.615C193.274 180.527 194.092 180.268 194.834 179.855C195.576 179.442 196.226 178.883 196.746 178.212C197.266 177.541 197.645 176.772 197.86 175.95L194.56 166.37Z" fill="#D3766A"/>
    <path d="M182.63 163.91C182.53 163.91 182.53 164.05 182.63 164.07C187.16 165.27 189.93 168.98 192.04 172.92C190.56 171.49 188.71 170.84 186.76 172.63C186.66 172.73 186.76 172.89 186.91 172.85C187.636 172.513 188.449 172.409 189.237 172.553C190.025 172.696 190.749 173.079 191.31 173.65C192.24 174.617 193.064 175.68 193.77 176.82C194.02 177.18 194.69 176.88 194.48 176.46C194.478 176.427 194.478 176.394 194.48 176.36C193.84 170.86 188.6 163.71 182.63 163.91Z" fill="#263238"/>
    <path d="M190.84 180.641C190.84 181.036 190.957 181.423 191.177 181.752C191.397 182.081 191.709 182.337 192.075 182.488C192.44 182.64 192.842 182.679 193.23 182.602C193.618 182.525 193.974 182.335 194.254 182.055C194.534 181.775 194.724 181.419 194.802 181.031C194.879 180.643 194.839 180.241 194.688 179.875C194.536 179.51 194.28 179.197 193.951 178.978C193.622 178.758 193.236 178.641 192.84 178.641C192.31 178.641 191.801 178.851 191.426 179.226C191.051 179.601 190.84 180.11 190.84 180.641Z" fill="white"/>
    <path d="M240.84 113.24C236.51 113.58 214.31 121.56 205.66 129.17C197.01 136.78 183.85 157.1 183.18 158.17C182.51 159.24 165.85 123.79 193.61 107.28C223.84 89.2902 240.84 113.24 240.84 113.24Z" fill="#92E3A9"/>
    <path d="M184.41 156.09C184.41 156.09 195.69 123.51 204.75 113.96C213.81 104.41 237.35 92.9604 254.75 94.7304C268.34 96.0904 244.32 120.84 244.32 120.84C244.32 120.84 242.13 116.84 237.82 116.6C229.44 116.08 216.09 122.94 208.94 128.26C200 135 184.41 156.09 184.41 156.09Z" fill="#92E3A9"/>
    <path opacity="0.2" d="M184.41 156.09C184.41 156.09 195.69 123.51 204.75 113.96C213.81 104.41 237.35 92.9604 254.75 94.7304C268.34 96.0904 244.32 120.84 244.32 120.84C244.32 120.84 242.13 116.84 237.82 116.6C229.44 116.08 216.09 122.94 208.94 128.26C200 135 184.41 156.09 184.41 156.09Z" fill="black"/>
    <path d="M266.84 279.87H132.8V363.03H266.84V279.87Z" fill="#92E3A9"/>
    <path opacity="0.2" d="M266.84 279.87H132.8V363.03H266.84V279.87Z" fill="black"/>
    <path opacity="0.2" d="M132.81 363.03H183.57V279.87H132.81V363.03Z" fill="black"/>
    <path d="M136.3 357.3C140.06 351.387 143.787 345.453 147.48 339.5L158.48 321.62L169.35 303.62C172.957 297.62 176.527 291.62 180.06 285.62C176.3 291.527 172.577 297.457 168.89 303.41L157.89 321.3L147.02 339.3C143.413 345.26 139.84 351.26 136.3 357.3Z" fill="#92E3A9"/>
    <path d="M136.3 285.601C139.84 291.601 143.41 297.601 147.01 303.601L157.88 321.601L168.88 339.481C172.56 345.441 176.283 351.374 180.05 357.281C176.517 351.241 172.947 345.224 169.34 339.231L158.47 321.231L147.47 303.341C143.79 297.427 140.067 291.514 136.3 285.601Z" fill="#92E3A9"/>
    <path d="M165.8 279.87H150.38V295.29H165.8V279.87Z" fill="#EBEBEB"/>
    <path d="M238.68 340.891H237.6V356.121H238.68V340.891Z" fill="#263238"/>
    <path d="M241.27 340.891H240.19V356.121H241.27V340.891Z" fill="#263238"/>
    <path d="M243.86 340.891H242.78V356.121H243.86V340.891Z" fill="#263238"/>
    <path d="M246.45 340.891H245.37V356.121H246.45V340.891Z" fill="#263238"/>
    <path d="M249.04 340.891H247.96V356.121H249.04V340.891Z" fill="#263238"/>
    <path d="M251.63 340.891H250.55V356.121H251.63V340.891Z" fill="#263238"/>
    <path d="M254.22 340.891H253.14V356.121H254.22V340.891Z" fill="#263238"/>
    <path d="M256.81 340.891H255.73V356.121H256.81V340.891Z" fill="#263238"/>
    <path d="M259.41 340.891H258.33V356.121H259.41V340.891Z" fill="#263238"/>
    <path d="M227 355.001L231.15 356.151H221.4L225.56 354.981V349.391C222.56 349.001 221.4 346.061 221.4 340.931H231.15C231.15 346.051 229.97 349.001 227 349.391V355.001Z" fill="#263238"/>
    <path d="M219.13 348.661H216.58V356.111H210.06V348.661H207.51L213.32 340.891L219.13 348.661Z" fill="#263238"/>
    <path opacity="0.1" d="M266.84 363.03V355.74L183.57 342.24V363.02L266.84 363.03Z" fill="black"/>
    <path d="M259.41 277.19H146.07V279.87H259.41V277.19Z" fill="#EBEBEB"/>
    <path d="M256.47 274.521H143.13V277.201H256.47V274.521Z" fill="#C7C7C7"/>
    <path d="M264.103 299.283L182.062 313.371L190.995 365.396L273.036 351.308L264.103 299.283Z" fill="white"/>
    <path d="M261.72 299.32C258.95 303.03 256.09 306.62 253.29 310.32C250.49 314.02 247.59 317.53 244.72 321.1C241.72 324.83 238.72 328.53 235.72 332.22L235.45 332.57C232.78 335.82 230.09 339.07 227.45 342.32L227.05 342.78L226.53 342.47C222.93 340.277 219.337 338.077 215.75 335.87L215.37 335.64C211.31 333.14 207.25 330.64 203.2 328.06C199.33 325.64 195.46 323.16 191.6 320.69C187.74 318.22 183.88 315.69 180.05 313.08C184.05 315.19 187.94 317.45 191.88 319.64C195.82 321.83 199.75 324.13 203.67 326.42C208.03 328.954 212.393 331.53 216.76 334.15C220.033 336.097 223.3 338.05 226.56 340.01C229 337.1 231.45 334.16 233.91 331.28C237.18 327.4 240.45 323.53 243.76 319.7C246.72 316.274 249.693 312.86 252.68 309.46C255.69 306 258.66 302.61 261.72 299.32Z" fill="#DBDBDB"/>
    <path d="M217 335.271L216.92 335.371C216.55 335.811 216.19 336.251 215.82 336.681C214.06 338.761 212.24 340.771 210.37 342.731C208.1 345.161 205.76 347.511 203.37 349.851C200.98 352.191 198.6 354.441 196.14 356.671C193.68 358.901 191.14 361.101 188.56 363.171C190.67 360.581 192.91 358.121 195.18 355.711C197.45 353.301 199.8 350.941 202.18 348.601C204.56 346.261 206.96 343.991 209.42 341.751C211.42 339.981 213.42 338.211 215.42 336.531C215.9 336.131 216.37 335.751 216.86 335.371L217 335.271Z" fill="#DBDBDB"/>
    <path d="M269.94 349.521C266.79 348.421 263.7 347.161 260.66 345.851C257.62 344.541 254.59 343.161 251.58 341.761C248.57 340.361 245.58 338.871 242.67 337.311C240.28 336.061 237.9 334.771 235.57 333.381L234.09 332.501C234.052 332.474 234.012 332.45 233.97 332.431H234.11C234.7 332.641 235.28 332.851 235.85 333.071C238.36 333.991 240.85 335.001 243.26 336.071C246.31 337.371 249.32 338.761 252.32 340.181C255.32 341.601 258.32 343.071 261.24 344.621C264.16 346.171 267.1 347.761 269.94 349.521Z" fill="#DBDBDB"/>
    <path d="M201.481 314.647L199.793 367.17L282.621 369.831L284.308 317.308L201.481 314.647Z" fill="#EBEBEB"/>
    <path d="M284.31 317.3C280.86 320.4 277.36 323.35 273.88 326.39C270.4 329.43 266.88 332.33 263.36 335.27C259.693 338.343 256.027 341.383 252.36 344.39L252.02 344.68L242.22 352.68L241.73 353.06L241.28 352.65C238.193 349.79 235.107 346.923 232.02 344.05C231.906 343.958 231.799 343.858 231.7 343.75C228.2 340.51 224.717 337.237 221.25 333.93C217.94 330.79 214.63 327.6 211.34 324.41C208.05 321.22 204.76 317.98 201.52 314.67C204.98 317.53 208.39 320.52 211.82 323.44C215.25 326.36 218.65 329.39 222.04 332.44C225.81 335.78 229.59 339.18 233.35 342.6L241.8 350.27C244.8 347.9 247.75 345.5 250.72 343.16C254.72 340 258.7 336.863 262.66 333.75C266.24 330.97 269.83 328.21 273.43 325.47C277.08 322.7 280.67 319.93 284.31 317.3Z" fill="#C7C7C7"/>
    <path d="M233.41 343.74C233.372 343.765 233.338 343.795 233.31 343.83L232 344.89C229.86 346.58 227.68 348.19 225.46 349.75C222.76 351.68 220 353.52 217.23 355.35C214.46 357.18 211.65 358.92 208.79 360.62C205.93 362.32 203.06 363.98 200.08 365.49C202.66 363.37 205.34 361.4 208.08 359.49C210.82 357.58 213.56 355.71 216.32 353.89C219.08 352.07 221.91 350.3 224.77 348.6C227.04 347.24 229.35 345.91 231.71 344.67C232.25 344.37 232.8 344.09 233.35 343.81L233.41 343.74Z" fill="#C7C7C7"/>
    <path d="M282.48 368.14C279.61 366.44 276.83 364.6 274.1 362.72C271.37 360.84 268.68 358.88 266.01 356.92C263.34 354.96 260.72 352.92 258.15 350.8C256.05 349.1 253.97 347.36 251.97 345.54C251.53 345.16 251.11 344.77 250.68 344.38L250.59 344.29C250.624 344.323 250.665 344.347 250.71 344.36L252.3 345.36C254.57 346.75 256.77 348.23 258.97 349.73C261.71 351.62 264.38 353.57 267.05 355.55C269.72 357.53 272.33 359.55 274.91 361.66C277.49 363.77 280 365.86 282.48 368.14Z" fill="#C7C7C7"/>
    <path d="M196.18 333.441C184.78 323.311 119.27 286.681 106 282.101C92.7299 277.521 73.9999 283.541 79.9999 303.491C85.9999 323.441 153.29 382.351 178.69 386.491C187.62 388.001 200.31 337.101 196.18 333.441Z" fill="#D3766A"/>
    <path d="M215.49 351.161C212.88 349.161 213.92 347.761 219.79 347.711C225.66 347.661 248.9 352.431 249.88 344.181C250.86 335.931 218 329.671 208.2 330.501C198.4 331.331 183 336.101 183 336.101C189.12 338.601 203.48 346.101 215.49 351.161Z" fill="#D3766A"/>
    <path d="M169.62 383.191C187.22 389.601 208.74 398.661 229.53 394.821C231.836 394.448 233.949 393.31 235.53 391.591C244.88 390.041 246.95 385.161 246.95 385.161C255.22 381.041 256.65 375.761 256.65 375.761C256.65 375.761 267.65 373.821 267.53 367.001C267.47 359.361 252.09 363.581 242.22 360.741C219.59 354.221 189.22 338.631 182.92 336.101L169.62 383.191Z" fill="#D3766A"/>
    <path d="M213.75 370.57C220.45 372.36 226.98 374.29 233.88 375.15C241.46 376.15 248.88 375.76 256.5 375.59C256.548 375.59 256.594 375.609 256.627 375.643C256.661 375.677 256.68 375.723 256.68 375.77C256.68 375.818 256.661 375.864 256.627 375.898C256.594 375.931 256.548 375.95 256.5 375.95C242.81 378.43 226.44 376.25 213.63 370.87C213.35 370.74 213.41 370.48 213.75 370.57Z" fill="#263238"/>
    <path d="M207.83 383.66C214.44 385.03 226.08 387.37 246.97 384.93C247.04 384.93 247.07 385.04 246.97 385.06C234.058 388.349 220.486 387.982 207.77 384C207.36 383.85 207.39 383.56 207.83 383.66Z" fill="#263238"/>
    <path d="M204.78 390.75C216.11 392.66 223.5 392.43 235.52 391.55C235.59 391.55 235.62 391.66 235.52 391.67C221.97 394.11 216.77 393.45 204.64 391.13C204.24 391.05 204.34 390.67 204.78 390.75Z" fill="#263238"/>
    <path d="M199.6 330.44L167.77 393C167.77 393 112.07 360.63 82.2099 309.51C72.2599 292.51 82.26 269.63 112.43 281.85C142.6 294.07 199.6 330.44 199.6 330.44Z" fill="#92E3A9"/>
    <path d="M186.76 325.881C181.76 335.031 162.47 373.191 158.87 381.721C158.62 382.311 158.93 382.621 159.27 382.031C175.03 355.031 182.63 335.311 187.11 326.091C187.23 325.861 186.89 325.651 186.76 325.881Z" fill="#263238"/>
    <path d="M340.08 107.88C339.421 114.206 337.016 120.225 333.135 125.264C329.254 130.304 324.049 134.165 318.1 136.418C312.152 138.671 305.694 139.226 299.449 138.022C293.203 136.818 287.415 133.902 282.73 129.6L265.55 132.12L274.14 117.27C272.172 112.437 271.332 107.22 271.683 102.014C272.033 96.8075 273.566 91.7499 276.165 87.2251C278.764 82.7004 282.36 78.8275 286.679 75.9008C290.999 72.9742 295.929 71.0707 301.095 70.3351C306.261 69.5994 311.526 70.051 316.491 71.6555C321.456 73.26 325.99 75.9752 329.749 79.5947C333.507 83.2142 336.391 87.6428 338.181 92.544C339.971 97.4452 340.621 102.69 340.08 107.88Z" fill="white"/>
    <path d="M340.08 107.88C339.419 114.211 337.021 120.236 333.15 125.29C332.187 126.545 331.148 127.74 330.04 128.87C328.899 129.968 327.69 130.993 326.42 131.94C323.889 133.856 321.102 135.408 318.14 136.55C315.176 137.704 312.066 138.445 308.9 138.75C307.314 138.895 305.72 138.925 304.13 138.84C302.536 138.807 300.947 138.643 299.38 138.35C293.043 137.189 287.156 134.284 282.38 129.96L282.79 130.09L265.63 132.72L264.38 132.91L265.01 131.81L273.56 116.94V117.52C271.545 112.6 270.687 107.283 271.053 101.979C271.419 96.6751 272.998 91.5262 275.67 86.9297C278.344 82.3509 282.019 78.4365 286.42 75.4797C290.816 72.5658 295.816 70.6866 301.044 69.9834C306.271 69.2801 311.59 69.7713 316.6 71.4197C321.563 73.1027 326.086 75.8736 329.84 79.5297C333.58 83.1732 336.444 87.6174 338.218 92.528C339.992 97.4386 340.628 102.688 340.08 107.88ZM340.08 107.88C340.621 102.712 339.969 97.4884 338.176 92.6113C336.383 87.7341 333.496 83.3328 329.737 79.7455C325.978 76.1581 321.446 73.4801 316.491 71.9172C311.535 70.3543 306.287 69.9481 301.15 70.7297C296.069 71.4979 291.23 73.413 287 76.3297C282.795 79.2755 279.28 83.1005 276.7 87.5397C274.169 91.9883 272.678 96.9525 272.34 102.06C272.015 107.178 272.842 112.304 274.76 117.06L274.89 117.36L274.72 117.65L266.08 132.46L265.46 131.56L282.65 129.15H282.89L283.06 129.31C287.646 133.604 293.34 136.534 299.5 137.77C301.035 138.085 302.594 138.276 304.16 138.34C308.87 138.676 313.597 137.994 318.02 136.34C320.985 135.271 323.776 133.768 326.3 131.88C327.572 130.957 328.784 129.955 329.93 128.88C331.041 127.764 332.083 126.582 333.05 125.34C336.966 120.284 339.4 114.239 340.08 107.88Z" fill="#263238"/>
    <path d="M301.92 123.89L287.26 109.05L292.18 104.18L300.75 112.85L318.54 84.9502L324.38 88.6802L301.92 123.89Z" fill="#92E3A9"/>
    <path d="M442.36 329.271H294.53V443.841H442.36V329.271Z" fill="#92E3A9"/>
    <path opacity="0.2" d="M442.36 329.271H294.53V443.841H442.36V329.271Z" fill="black"/>
    <path opacity="0.2" d="M294.53 443.851H350.52V329.281H294.53V443.851Z" fill="black"/>
    <path d="M298.39 436C302.543 427.853 306.653 419.68 310.72 411.48L322.86 386.84L334.86 362.09C338.86 353.83 342.797 345.537 346.67 337.21C342.53 345.357 338.423 353.53 334.35 361.73L322.2 386.38L310.2 411.13C306.22 419.357 302.283 427.647 298.39 436Z" fill="#92E3A9"/>
    <path d="M298.39 337.16C302.29 345.48 306.227 353.773 310.2 362.04L322.2 386.79L334.35 411.43C338.41 419.63 342.517 427.803 346.67 435.95C342.777 427.63 338.84 419.34 334.86 411.08L322.86 386.33L310.72 361.68C306.647 353.48 302.537 345.307 298.39 337.16Z" fill="#92E3A9"/>
    <path d="M330.91 329.271H313.91V343.251H330.91V329.271Z" fill="#EBEBEB"/>
    <path d="M411.3 419.42H410.11V436.22H411.3V419.42Z" fill="#263238"/>
    <path d="M414.15 419.42H412.96V436.22H414.15V419.42Z" fill="#263238"/>
    <path d="M417.01 419.42H415.82V436.22H417.01V419.42Z" fill="#263238"/>
    <path d="M419.87 419.42H418.68V436.22H419.87V419.42Z" fill="#263238"/>
    <path d="M422.73 419.42H421.54V436.22H422.73V419.42Z" fill="#263238"/>
    <path d="M425.59 419.42H424.4V436.22H425.59V419.42Z" fill="#263238"/>
    <path d="M428.44 419.42H427.25V436.22H428.44V419.42Z" fill="#263238"/>
    <path d="M431.3 419.42H430.11V436.22H431.3V419.42Z" fill="#263238"/>
    <path d="M434.16 419.42H432.97V436.22H434.16V419.42Z" fill="#263238"/>
    <path d="M398.42 434.94L403 436.21H392.25L396.83 434.93V428.75C393.55 428.32 392.25 425.09 392.25 419.43H403C403 425.07 401.7 428.32 398.42 428.75V434.94Z" fill="#263238"/>
    <path d="M389.74 427.99H386.93V436.21H379.74V427.99H376.92L383.34 419.43L389.74 427.99Z" fill="#263238"/>
    <path opacity="0.1" d="M442.36 443.84V435.8L350.52 420.91V443.84H442.36Z" fill="black"/>
    <path d="M437.03 288.87H322.82V329.27H437.03V288.87Z" fill="#92E3A9"/>
    <path opacity="0.2" d="M437.03 288.87H322.82V329.27H437.03V288.87Z" fill="black"/>
    <path opacity="0.2" d="M322.83 329.271H357.73V288.871H322.83V329.271Z" fill="black"/>
    <path d="M325.23 326.49C327.81 323.61 330.38 320.73 332.91 317.84L340.48 309.15L347.96 300.42C350.44 297.507 352.893 294.584 355.32 291.65C352.733 294.524 350.173 297.407 347.64 300.3L340.06 309L332.59 317.73C330.11 320.63 327.657 323.55 325.23 326.49Z" fill="#92E3A9"/>
    <path d="M325.23 291.65C327.657 294.577 330.11 297.5 332.59 300.42L340.06 309.15L347.64 317.84C350.173 320.734 352.733 323.617 355.32 326.49C352.887 323.55 350.433 320.627 347.96 317.72L340.48 309L332.91 300.31C330.38 297.4 327.81 294.52 325.23 291.65Z" fill="#92E3A9"/>
    <path d="M345.5 288.87H334.9V298.33H345.5V288.87Z" fill="#EBEBEB"/>
    <path d="M417.67 314.05H416.93V324.52H417.67V314.05Z" fill="#263238"/>
    <path d="M419.45 314.05H418.71V324.52H419.45V314.05Z" fill="#263238"/>
    <path d="M421.23 314.05H420.49V324.52H421.23V314.05Z" fill="#263238"/>
    <path d="M423.01 314.05H422.27V324.52H423.01V314.05Z" fill="#263238"/>
    <path d="M424.79 314.05H424.05V324.52H424.79V314.05Z" fill="#263238"/>
    <path d="M426.57 314.05H425.83V324.52H426.57V314.05Z" fill="#263238"/>
    <path d="M428.36 314.05H427.62V324.52H428.36V314.05Z" fill="#263238"/>
    <path d="M430.14 314.05H429.4V324.52H430.14V314.05Z" fill="#263238"/>
    <path d="M431.92 314.05H431.18V324.52H431.92V314.05Z" fill="#263238"/>
    <path d="M409.64 323.72L412.5 324.52H405.79L408.65 323.71V319.86C406.65 319.6 405.79 317.58 405.79 314.05H412.5C412.5 317.57 411.69 319.6 409.64 319.86V323.72Z" fill="#263238"/>
    <path d="M404.23 319.39H402.48V324.52H398V319.39H396.24L400.24 314.05L404.23 319.39Z" fill="#263238"/>
    <path opacity="0.1" d="M437.03 329.27V324.26L357.72 314.98V329.27H437.03Z" fill="black"/>
</svg>
