<svg width="187" height="106" viewBox="0 0 187 106" fill="none" xmlns="http://www.w3.org/2000/svg">
    <g clip-path="url(#clip0_214_2)">
        <path d="M185.116 96.8009C185.381 96.8009 185.521 96.6608 185.521 96.4739C185.521 96.2559 185.365 96.147 185.116 96.147H184.618V96.8009H185.116ZM184.229 95.8044H185.147C185.599 95.8044 185.926 96.0224 185.926 96.4428C185.926 96.7698 185.739 96.9722 185.459 97.05L186.004 97.813H185.536L185.054 97.1123H184.633V97.813H184.244V95.8044H184.229ZM186.766 96.8476C186.766 95.8667 186.019 95.0726 185.007 95.0726C183.995 95.0726 183.248 95.8823 183.248 96.8476C183.248 97.8286 183.995 98.6226 185.007 98.6226C186.019 98.6226 186.766 97.813 186.766 96.8476ZM183.014 96.8632C183.014 95.7733 183.902 94.8546 185.007 94.8546C186.113 94.8546 187 95.7577 187 96.8321C187 97.922 186.113 98.8406 185.007 98.8406C183.902 98.8406 183.014 97.9375 183.014 96.8632Z" fill="#00ADEE"/>
        <path d="M125.248 77.4626H124.407V77.1979H126.4V77.4626H125.559V79.7203H125.264V77.4626H125.248Z" fill="#00ADEE"/>
        <path d="M126.914 77.1979H127.21L128.128 78.5681L129.047 77.1979H129.327V79.7203H129.047V77.6806L128.128 79.0352L127.21 77.6806V79.7203H126.93V77.1979H126.914Z" fill="#00ADEE"/>
        <path d="M57.0965 62.0635L55.6952 67.3107C55.9755 66.2986 57.1121 62.079 57.0965 62.0635Z" fill="#00ADEE"/>
        <path d="M82.6319 47.1626L97.8908 47.1159C104.384 47.1003 107.7 49.249 107.716 53.3285C107.716 58.311 103.06 61.7364 95.4307 61.752L78.6926 61.7987L82.6319 47.1626ZM155.563 14.8697C148.603 13.1569 141.301 11.8957 133.843 11.0549C130.589 4.63995 122.523 -0.0467312 106.781 -2.01257e-05L73.6322 0.093402L69.8797 14.1846C59.9303 16.5201 51.1642 19.7432 44.3755 23.8071C41.5573 25.5042 38.5678 27.4661 36.1388 30.0041C33.7409 32.5265 31.5455 36.0921 31.2185 39.6421C30.7981 44.2976 31.8414 47.3183 33.414 50.1365C34.4105 51.9116 35.625 53.453 36.8239 54.7765C40.7009 59.0583 45.481 62.188 50.5725 65.0218C52.2074 65.9249 53.9046 66.7657 55.6484 67.5598L52.4409 79.5956L93.7958 79.4867C118.522 79.4244 129.997 68.9455 129.966 55.228C129.935 47.0536 124.921 41.8531 117.852 39.3618C129.016 36.6059 135.711 29.101 135.68 18.9958C135.68 18.2173 135.633 17.4388 135.54 16.6603C132.955 16.6603 130.433 16.7225 128.019 16.8004C122.772 17.0028 117.291 17.1741 111.935 17.719C110.752 17.828 109.584 17.9682 108.432 18.0927C112.169 18.8713 113.804 20.8331 113.819 23.5891C113.819 28.5872 109.615 31.6545 101.752 31.6857L86.8203 31.7324L89.5762 21.0667C82.2893 22.6237 75.3294 24.6946 68.4473 27.5751C67.622 27.9176 66.8124 28.2758 66.0183 28.6494L57.0965 62.0946C57.0965 62.0946 56.9252 62.733 56.7072 63.5738C55.773 62.7797 54.8388 61.97 53.9513 61.1292C50.8216 58.1553 48.0345 54.8699 46.1972 50.6504C45.263 48.4861 44.5623 46.6176 44.8426 43.3011C45.263 38.2719 48.7819 34.6285 52.1295 31.9192C55.7107 29.0231 59.65 26.9367 63.8696 25.1773C77.4158 19.5252 91.18 16.9717 107.342 15.3212C112.698 14.7762 118.163 14.6205 123.411 14.4181C133.469 14.0289 145.443 14.3714 155.065 15.7416C155.688 15.835 157.089 16.0997 157.027 15.7416C157.167 15.2122 156.046 14.9942 155.579 14.8852" fill="#00ADEE"/>
        <path d="M9.77819 95.9757C11.3352 95.9757 12.176 95.3685 12.176 94.3876C12.176 93.6713 11.6155 93.2198 10.2764 93.2198H7.55162L6.83539 95.9757H9.79376H9.77819ZM8.51699 101.924C10.0273 101.924 10.946 101.254 10.946 100.258C10.946 99.4479 10.292 99.0275 8.99967 99.0275H5.97902L5.18493 101.924H8.50142H8.51699ZM4.23514 89.7009H10.7903C15.1032 89.7009 16.489 91.4759 16.489 93.4689C16.489 95.4619 15.1655 96.9567 12.9545 97.4861C14.3559 97.9843 15.3368 99.0119 15.3368 100.631C15.3368 103.341 13.0635 105.411 8.17444 105.411H0L4.23514 89.6853V89.7009Z" fill="#00ADEE"/>
        <path d="M25.7534 98.6694C25.7534 97.3459 24.9437 96.3027 23.4334 96.3027C21.6584 96.3027 20.5373 98.031 20.5373 99.6036C20.5373 100.927 21.347 101.97 22.8573 101.97C24.6323 101.97 25.7534 100.242 25.7534 98.6694ZM16.2866 99.9773C16.2866 96.0847 19.4785 92.5969 23.7137 92.5969C27.435 92.5969 29.9885 95.0726 29.9885 98.2957C29.9885 102.188 26.7966 105.676 22.5615 105.676C18.8402 105.676 16.2866 103.2 16.2866 99.9773Z" fill="#00ADEE"/>
        <path d="M35.2513 101.752C36.5281 101.752 37.6336 101.379 38.2876 100.725C38.817 100.211 39.1906 99.3544 39.1906 98.5915C39.1906 97.9064 38.9882 97.4548 38.6613 97.1434C38.2564 96.7542 37.6336 96.5206 36.6215 96.5206H35.9209L34.5195 101.768H35.2513V101.752ZM32.6978 92.846H37.1665C39.611 92.846 41.1525 93.5155 42.1023 94.4653C43.0365 95.3996 43.4725 96.614 43.4725 98.1399C43.4725 100.024 42.7563 101.752 41.4016 103.091C39.8913 104.602 37.7115 105.411 34.7842 105.411H29.3035L32.6978 92.8304V92.846Z" fill="#00ADEE"/>
        <path d="M45.7457 100.631L43.27 92.8461H47.7076L48.7352 97.0501L52.0206 92.8461H57.0186L49.8407 101.145L48.6885 105.427H44.4689L45.7457 100.631Z" fill="#00ADEE"/>
        <path d="M62.1257 97.7818C63.2001 97.7818 63.6983 97.2991 63.6983 96.7542C63.6983 96.2092 63.3091 96.0224 62.406 96.0224H60.6621L60.195 97.7818H62.1413H62.1257ZM61.0046 102.235C62.0323 102.235 62.6395 101.783 62.6395 101.161C62.6395 100.616 62.188 100.366 61.2849 100.366H59.4632L58.9649 102.235H61.0046ZM57.4079 92.846H62.9976C66.8747 92.846 67.8089 94.2629 67.8089 95.8044C67.8089 97.3458 66.7812 98.6071 64.8505 99.1053C66.0339 99.4167 66.9058 100.289 66.9058 101.581C66.9058 103.699 65.2086 105.411 60.8801 105.411H54.0135L57.4079 92.8304V92.846Z" fill="#00ADEE"/>
        <path d="M67.9646 101.145C67.9646 100.491 68.058 99.7904 68.2293 99.1209L69.9265 92.846H74.2239L72.4644 99.3856C72.371 99.7437 72.3243 100.086 72.3243 100.366C72.3243 101.41 72.9315 101.955 74.0526 101.955C74.582 101.955 75.0647 101.768 75.4072 101.425C75.7809 101.052 76.0456 100.569 76.3103 99.588L78.132 92.8304H82.4295L80.4209 100.226C79.9693 101.892 79.3154 103.122 78.4434 103.994C77.2601 105.178 75.4539 105.645 73.4454 105.645C69.8953 105.645 67.9802 103.963 67.9802 101.114" fill="#00ADEE"/>
        <path d="M83.7062 92.8461H87.9258L84.5315 105.427H80.3119L83.7062 92.8461Z" fill="#00ADEE"/>
        <path d="M89.3427 92.8461H93.5623L91.1489 101.83H96.8943L95.929 105.427H85.9484L89.3427 92.8461Z" fill="#00ADEE"/>
        <path d="M102.889 101.752C104.166 101.752 105.271 101.379 105.925 100.725C106.455 100.211 106.828 99.3544 106.828 98.5915C106.828 97.9064 106.626 97.4548 106.299 97.1434C105.91 96.7542 105.271 96.5206 104.259 96.5206H103.559L102.157 101.768H102.905L102.889 101.752ZM100.32 92.846H104.789C107.249 92.846 108.775 93.5155 109.724 94.4653C110.659 95.3996 111.095 96.614 111.095 98.1399C111.095 100.024 110.378 101.752 109.024 103.091C107.513 104.602 105.334 105.411 102.406 105.411H96.9255L100.32 92.8304V92.846Z" fill="#00ADEE"/>
        <path d="M113.523 92.8461H117.743L114.349 105.427H110.129L113.523 92.8461Z" fill="#00ADEE"/>
        <path d="M119.144 92.8461H123.099L125.964 98.8407L127.583 92.8461H131.772L128.378 105.427H124.625L121.636 99.1676L119.938 105.427H115.75L119.144 92.8461Z" fill="#00ADEE"/>
        <path d="M130.838 100.086C130.838 95.9756 134.076 92.5813 139.168 92.5813C141.55 92.5813 143.59 93.6089 144.446 94.6677L141.815 97.3614C141.099 96.6919 140.009 96.2248 138.888 96.2248C136.49 96.2248 135.057 97.8597 135.057 99.8838C135.057 101.441 136.194 102.219 137.502 102.219C137.953 102.219 138.312 102.141 138.607 102.017L139.028 100.662H136.957L137.642 97.9686H143.714L141.908 104.384C140.663 105.115 138.872 105.676 137.05 105.676C133.905 105.676 130.807 104.026 130.807 100.071" fill="#00ADEE"/>
        <path d="M143.839 102.328H146.984L146.143 105.427H142.998L143.839 102.328Z" fill="#00ADEE"/>
        <path d="M147.965 101.488C147.965 98.9185 149.958 95.7888 154.038 95.7888C156.077 95.7888 157.525 96.8632 157.915 98.5448L155.081 99.7748C154.878 99.0119 154.318 98.6226 153.602 98.6226C152.185 98.6226 151.266 99.915 151.266 101.207C151.266 102.251 151.92 102.827 152.761 102.827C153.493 102.827 154.084 102.469 154.598 101.846L156.793 103.574C155.844 104.82 154.474 105.629 152.449 105.629C149.802 105.629 147.965 104.026 147.965 101.488Z" fill="#00ADEE"/>
        <path d="M164.812 100.351C164.812 99.3544 164.205 98.5759 163.068 98.5759C161.745 98.5759 160.889 99.8683 160.889 101.052C160.889 102.048 161.496 102.827 162.632 102.827C163.956 102.827 164.812 101.534 164.812 100.351ZM157.712 101.332C157.712 98.4046 160.11 95.7888 163.286 95.7888C166.073 95.7888 167.989 97.6417 167.989 100.055C167.989 102.982 165.591 105.598 162.414 105.598C159.627 105.598 157.712 103.745 157.712 101.332Z" fill="#00ADEE"/>
        <path d="M170.355 95.9912H173.485L174.622 99.3077L177.549 95.9912H181.021L178.483 105.427H175.338L176.599 100.756L173.516 104.119H173.454L172.177 100.756L170.916 105.427H167.817L170.355 95.9912Z" fill="#00ADEE"/>
    </g>
    <defs>
        <clipPath id="clip0_214_2">
            <rect width="187" height="105.692" fill="white"/>
        </clipPath>
    </defs>
</svg>
