<svg width="27" height="26" viewBox="0 0 27 26" fill="none" xmlns="http://www.w3.org/2000/svg">
    <path d="M9.70132 13.5543C8.40894 12.7813 7.40579 11.6057 6.84567 10.2078C6.28556 8.80992 6.19939 7.2669 6.60039 5.81534C7.00139 4.36378 7.86742 3.08381 9.06569 2.17168C10.264 1.25956 11.7283 0.765625 13.2343 0.765625C14.7402 0.765625 16.2046 1.25956 17.4028 2.17168C18.6011 3.08381 19.4671 4.36378 19.8681 5.81534C20.2691 7.2669 20.183 8.80992 19.6228 10.2078C19.0627 11.6057 18.0596 12.7813 16.7672 13.5543C17.5995 13.8239 18.398 14.1882 19.147 14.6402C19.2364 14.6903 19.3148 14.7578 19.3775 14.8388C19.4403 14.9198 19.4862 15.0126 19.5124 15.1116C19.5386 15.2107 19.5447 15.314 19.5302 15.4154C19.5157 15.5169 19.481 15.6144 19.4281 15.7021C19.3752 15.7899 19.3052 15.8661 19.2223 15.9263C19.1393 15.9865 19.0451 16.0294 18.9453 16.0524C18.8455 16.0755 18.742 16.0783 18.6411 16.0606C18.5402 16.0429 18.4438 16.0051 18.3578 15.9494C16.8494 15.0422 15.1271 14.5518 13.3671 14.5283C11.6071 14.5048 9.87235 14.949 8.34023 15.8155C6.80811 16.6821 5.53354 17.9399 4.64678 19.4604C3.76002 20.9809 3.29288 22.7096 3.29308 24.4698C3.29308 24.6726 3.21252 24.8671 3.06911 25.0105C2.9257 25.1539 2.73119 25.2345 2.52838 25.2345C2.32557 25.2345 2.13106 25.1539 1.98765 25.0105C1.84424 24.8671 1.76367 24.6726 1.76367 24.4698C1.76386 22.0451 2.53208 19.6827 3.95812 17.7217C5.38416 15.7607 7.39472 14.3018 9.70132 13.5543ZM13.2343 12.9992C14.6539 12.9992 16.0155 12.4352 17.0194 11.4313C18.0232 10.4275 18.5872 9.06591 18.5872 7.64622C18.5872 6.22653 18.0232 4.86499 17.0194 3.86112C16.0155 2.85725 14.6539 2.29328 13.2343 2.29328C11.8146 2.29328 10.453 2.85725 9.44916 3.86112C8.44529 4.86499 7.88132 6.22653 7.88132 7.64622C7.88132 9.06591 8.44529 10.4275 9.44916 11.4313C10.453 12.4352 11.8146 12.9992 13.2343 12.9992ZM17.0578 16.8227H24.7048C24.9077 16.8227 25.1022 16.9033 25.2456 17.0467C25.389 17.1901 25.4696 17.3846 25.4696 17.5874C25.4696 17.7902 25.389 17.9847 25.2456 18.1281C25.1022 18.2715 24.9077 18.3521 24.7048 18.3521H17.0578C16.855 18.3521 16.6605 18.2715 16.5171 18.1281C16.3737 17.9847 16.2931 17.7902 16.2931 17.5874C16.2931 17.3846 16.3737 17.1901 16.5171 17.0467C16.6605 16.9033 16.855 16.8227 17.0578 16.8227ZM17.0578 19.8815H24.7048C24.9077 19.8815 25.1022 19.9621 25.2456 20.1055C25.389 20.2489 25.4696 20.4434 25.4696 20.6462C25.4696 20.849 25.389 21.0435 25.2456 21.187C25.1022 21.3304 24.9077 21.4109 24.7048 21.4109H17.0578C16.855 21.4109 16.6605 21.3304 16.5171 21.187C16.3737 21.0435 16.2931 20.849 16.2931 20.6462C16.2931 20.4434 16.3737 20.2489 16.5171 20.1055C16.6605 19.9621 16.855 19.8815 17.0578 19.8815ZM17.0578 22.9403H24.7048C24.9077 22.9403 25.1022 23.0209 25.2456 23.1643C25.389 23.3077 25.4696 23.5022 25.4696 23.705C25.4696 23.9079 25.389 24.1024 25.2456 24.2458C25.1022 24.3892 24.9077 24.4698 24.7048 24.4698H17.0578C16.855 24.4698 16.6605 24.3892 16.5171 24.2458C16.3737 24.1024 16.2931 23.9079 16.2931 23.705C16.2931 23.5022 16.3737 23.3077 16.5171 23.1643C16.6605 23.0209 16.855 22.9403 17.0578 22.9403Z" fill="#0ABD19"></path>
</svg>