<svg width="187" height="126" viewBox="0 0 187 126" fill="none" xmlns="http://www.w3.org/2000/svg">
    <path d="M62.9855 2.71982C63.2031 2.53844 63.5294 2.44775 63.747 2.44775C64.1821 2.44775 64.3997 2.71982 64.3997 3.08258C64.3997 3.26396 64.2909 3.53604 64.0733 3.71742C54.5003 13.6933 47.4294 25.3017 47.4294 41.4446C47.4294 57.5874 54.3915 69.0144 64.0733 78.9903C64.2909 79.1717 64.3997 79.4438 64.3997 79.6252C64.3997 79.9879 64.1821 80.26 63.747 80.26C63.5294 80.26 63.3118 80.1693 62.9855 79.9879L21.9738 46.9767C19.9069 45.5256 18.6016 43.8025 18.6016 41.3539C18.6016 38.9052 19.9069 37.1821 21.9738 35.7311L62.9855 2.71982Z" fill="#EF3842"/>
    <path d="M94.4258 0C78.4345 0 72.125 18.9543 72.125 41.5361C72.125 64.118 78.4345 82.8002 94.4258 82.8002C103.999 82.8002 112.266 78.0843 112.266 74.2753C112.266 73.4591 111.831 72.6429 111.07 71.9174C106.501 68.1991 104.76 64.5715 104.76 61.3066C104.76 55.1397 111.179 50.5145 117.053 50.5145C125.212 50.5145 129.998 55.8652 129.998 62.7577C129.998 69.2874 126.626 74.8195 123.036 79.1726C122.927 79.354 122.818 79.5354 122.818 79.7167C122.818 80.0795 123.036 80.3516 123.471 80.3516C123.689 80.3516 123.906 80.2609 124.233 79.9888L165.135 46.9776C167.202 45.5265 168.508 43.8034 168.508 41.3548C168.508 38.9061 167.202 37.183 165.135 35.732L124.233 2.72071C123.906 2.44864 123.689 2.35795 123.471 2.35795C123.145 2.35795 122.818 2.63002 122.818 2.99278C122.818 3.17416 122.927 3.35554 123.036 3.53692C126.626 7.89005 129.998 13.3315 129.998 19.9519C129.998 26.8443 125.212 32.195 117.053 32.195C111.07 32.195 104.651 27.5698 104.76 21.4029C104.76 18.1381 106.501 14.5104 111.07 10.7921C111.94 10.0666 112.266 9.25041 112.266 8.4342C112.266 4.62521 103.999 0 94.4258 0Z" fill="#25347A"/>
    <path d="M28.0663 119.529C28.0663 117.806 28.9366 116.355 30.5684 115.358C32.0913 114.36 34.3758 113.907 36.8778 113.907C38.5096 113.907 40.1414 114.179 41.2292 114.542V112.546C41.2292 110.551 40.2502 109.372 37.6393 109.372C37.0954 109.372 36.0075 109.463 35.1373 109.735C35.2461 110.007 35.2461 110.279 35.2461 110.642C35.2461 111.277 35.0285 111.912 34.4846 112.365C34.0494 112.818 33.2879 113.09 32.4177 113.09C30.8947 113.09 29.6981 112.002 29.6981 110.733C29.6981 108.284 33.288 106.651 37.9657 106.651C41.6643 106.651 44.0576 107.377 45.363 108.737C46.5596 109.916 46.5596 111.73 46.5596 114.179V120.708C46.5596 121.978 47.4299 122.341 49.2792 122.522H49.4968V122.704C49.388 124.427 47.865 125.152 46.2333 125.243C46.1245 125.243 45.9069 125.243 45.7981 125.243C44.1664 125.243 42.6434 124.608 41.8819 123.248C40.9028 123.973 38.6184 125.243 35.6812 125.243C31.3298 125.334 28.0663 122.885 28.0663 119.529ZM161.653 124.517C161.218 124.064 161.109 123.52 160.892 122.794C160.674 122.976 160.457 123.248 160.022 123.52C158.607 124.608 156.758 125.334 154.691 125.334C152.407 125.334 150.448 124.608 149.252 123.338C147.294 121.434 147.403 119.076 147.294 115.63V112.365C147.294 111.005 146.75 110.551 145.227 110.551C145.009 110.551 144.792 110.551 144.574 110.551H144.357L144.248 110.37C144.139 110.098 144.03 109.916 144.03 109.644C144.03 108.012 146.532 107.196 147.946 106.924C148.49 106.833 148.926 106.833 149.361 106.833C150.557 106.833 151.319 107.105 151.863 107.74C152.407 108.284 152.624 109.1 152.624 109.916V115.539C152.624 117.625 152.842 119.167 153.386 120.164C153.93 121.162 154.8 121.615 156.323 121.615C158.063 121.615 159.042 120.981 159.695 120.074C160.348 119.167 160.565 117.988 160.565 116.809V112.274C160.565 110.914 160.022 110.46 158.607 110.46C158.39 110.46 158.172 110.46 157.955 110.46H157.737L157.628 110.279C157.519 110.007 157.411 109.826 157.411 109.554C157.411 107.921 159.913 107.105 161.327 106.833C161.871 106.742 162.306 106.742 162.741 106.742C163.938 106.742 164.699 107.014 165.243 107.558C165.787 108.103 166.005 108.919 166.005 109.735C166.005 110.37 165.896 111.549 165.896 116.265C165.896 118.26 165.896 119.348 165.896 119.711C165.896 121.071 166.44 121.706 167.963 121.706C168.18 121.706 168.289 121.706 168.507 121.706H168.724L168.833 121.887C168.942 122.16 169.051 122.341 169.051 122.613C168.942 124.155 166.549 124.79 165.134 125.062C164.699 125.152 164.155 125.152 163.829 125.152C162.85 125.334 162.088 125.062 161.653 124.517ZM85.178 116.355C85.178 113.544 86.2659 111.186 88.224 109.463C90.1821 107.74 92.9017 106.742 96.1652 106.742C99.1024 106.742 101.387 107.649 102.801 109.009C104.215 110.279 104.977 112.002 104.977 113.635C104.977 114.542 104.759 115.448 104.215 116.174L104.106 116.265H90.8348C91.0524 119.439 93.5544 121.706 97.797 121.706C100.408 121.706 102.475 120.527 103.127 119.802L103.236 119.62L103.454 119.711C103.889 119.983 104.215 120.346 104.215 121.162C104.215 122.976 101.604 125.424 95.8389 125.424C89.9645 125.334 85.178 121.434 85.178 116.355ZM132.173 125.334C129.236 125.334 126.516 124.427 124.449 122.794C122.491 121.162 121.294 118.804 121.294 115.993C121.294 110.46 126.516 106.742 132.39 106.742C135.545 106.742 138.265 107.649 140.223 109.281C142.181 110.914 143.269 113.272 143.269 115.993C143.269 118.713 142.072 121.071 140.114 122.704C138.156 124.336 135.328 125.334 132.173 125.334ZM172.858 124.79C171.988 124.608 171.335 124.155 171.335 123.52C171.335 123.248 171.444 122.976 171.553 122.704V122.613H171.661C171.988 122.522 172.64 122.432 173.076 122.069C173.62 121.706 173.837 121.162 173.837 119.711V112.274C173.837 111.005 173.402 110.551 172.205 110.551C171.879 110.551 171.553 110.551 171.226 110.642H171.009L170.9 110.46C170.791 110.188 170.682 109.916 170.682 109.644C170.682 108.193 172.64 107.377 173.946 107.014C174.49 106.924 174.925 106.833 175.469 106.833C177.209 106.833 178.188 107.921 178.624 109.281C179.82 107.649 181.67 106.651 183.519 106.651C185.259 106.651 187 107.558 187 109.372C187 110.642 185.912 112.002 184.172 112.002C182.866 112.002 181.67 111.277 181.452 110.188C180.473 110.46 179.059 111.549 179.059 115.176V119.62C179.059 121.071 179.276 121.615 179.82 121.978C180.364 122.341 181.343 122.432 181.778 122.522H181.887L181.996 122.613C182.213 122.976 182.213 123.248 182.213 123.52C182.213 124.155 181.67 124.517 180.799 124.699C179.929 124.88 178.624 124.971 176.883 124.971C175.143 125.062 173.728 124.971 172.858 124.79ZM108.567 124.699C107.696 124.517 107.044 124.064 107.044 123.429C107.044 123.157 107.152 122.885 107.261 122.613V122.522H107.37C107.696 122.432 108.349 122.341 108.784 121.978C109.328 121.615 109.546 121.071 109.546 119.62V109.826L106.391 109.735L106.282 109.644C106.173 109.282 106.065 109.009 106.065 108.737C106.065 107.74 106.935 107.105 108.023 107.105H109.437V106.017C109.437 103.387 109.981 101.936 110.851 100.938C112.048 99.3056 114.223 98.2173 117.487 98.2173C121.512 98.2173 124.993 99.759 124.993 102.298C124.993 103.387 124.123 104.747 122.165 104.747C120.75 104.747 119.445 103.749 119.445 102.48C119.445 102.026 119.663 101.573 119.88 101.21C119.445 100.938 118.684 100.666 117.813 100.757C116.508 100.757 115.855 101.119 115.42 101.754C114.985 102.389 114.876 103.296 114.876 104.294V107.105H120.315L120.424 107.196C120.533 107.558 120.642 107.83 120.642 108.103C120.642 109.1 119.771 109.826 118.792 109.916C118.357 109.916 117.922 109.916 117.596 109.916C116.725 109.916 115.855 109.826 115.202 109.826V119.529C115.202 120.981 115.529 121.525 116.073 121.887C116.508 122.25 117.922 122.341 118.248 122.432H118.357L118.466 122.522C118.575 122.794 118.684 123.066 118.684 123.248C118.684 123.883 118.031 124.336 117.052 124.517C116.073 124.79 114.659 124.88 112.809 124.88C110.851 125.062 109.546 124.971 108.567 124.699ZM70.8185 124.79C69.8394 124.608 69.2955 124.155 69.2955 123.52C69.2955 123.248 69.4043 122.976 69.5131 122.704V122.613H69.6219C69.9482 122.522 70.6009 122.432 71.1448 122.069C71.6888 121.706 71.9063 121.162 71.9063 119.711V112.274C71.9063 111.005 71.4712 110.551 70.2746 110.551C69.9482 110.551 69.6219 110.551 69.2955 110.642H69.078L68.9692 110.46C68.8604 110.188 68.7516 109.916 68.7516 109.644C68.7516 108.193 70.7097 107.377 72.0151 107.105C72.559 106.924 72.9942 106.924 73.4293 106.924C75.1699 106.924 76.1489 108.012 76.5841 109.372C77.7807 107.83 79.63 106.742 81.4793 106.742C83.2199 106.742 84.9604 107.649 84.9604 109.463C84.9604 110.733 83.8726 112.093 82.1321 112.093C80.8266 112.093 79.63 111.367 79.4124 110.279C78.4334 110.551 76.9104 111.639 76.9104 115.267V119.711C76.9104 121.162 77.128 121.706 77.6719 122.069C78.2158 122.432 79.1949 122.522 79.63 122.613H79.7388L79.8476 122.704C79.9564 122.976 80.0652 123.338 80.0652 123.611C80.0652 124.245 79.5212 124.608 78.6509 124.79C77.7807 124.971 76.4753 125.062 74.7347 125.062C73.1029 125.062 71.7976 124.971 70.8185 124.79ZM53.0867 124.79C52.2164 124.608 51.5637 124.155 51.5637 123.52C51.5637 123.248 51.6725 122.976 51.7813 122.704V122.613H51.89C52.2164 122.522 52.8691 122.432 53.3042 122.069C53.8482 121.706 54.0657 121.162 54.0657 119.711V112.274C54.0657 111.005 53.7394 110.551 52.434 110.551C52.1076 110.551 51.7813 110.551 51.4549 110.642H51.2374L51.1286 110.46C51.0198 110.188 50.911 109.916 50.911 109.644C50.911 108.193 52.8691 107.377 54.1745 107.105C54.7184 106.924 55.1536 106.924 55.5887 106.924C57.3293 106.924 58.3083 108.012 58.7435 109.281C59.9401 107.74 61.7894 106.651 63.6387 106.651C65.3793 106.651 67.1198 107.558 67.1198 109.372C67.1198 110.642 66.032 112.002 64.2915 112.002C62.986 112.002 61.7894 111.277 61.5718 110.188C60.5928 110.46 59.0698 111.549 59.0698 115.176V119.62C59.0698 121.071 59.2874 121.615 59.8313 121.978C60.3752 122.341 61.3543 122.432 61.7894 122.522H61.8982V122.613C62.1158 122.885 62.1158 123.248 62.1158 123.52C62.1158 124.155 61.5718 124.517 60.7016 124.699C59.8313 124.88 58.5259 124.971 56.7853 124.971C55.3711 125.062 53.9569 124.971 53.0867 124.79ZM127.386 115.448C127.386 120.346 129.888 122.432 132.39 122.432C135.219 122.432 137.286 120.346 137.286 116.174C137.286 113.997 136.742 112.274 135.763 111.186C134.784 110.007 133.587 109.372 132.064 109.372C129.236 109.463 127.386 111.639 127.386 115.448ZM37.7481 116.446C35.3548 116.446 33.8319 117.353 33.8319 119.167C33.8319 120.89 35.2461 122.069 37.4217 122.069C38.8359 122.069 40.2501 121.434 41.2292 120.436V117.897C41.2292 117.534 41.0116 117.172 40.3589 116.899C39.815 116.718 38.9447 116.446 37.7481 116.446ZM98.6672 113.544C99.1024 113.544 99.2112 113.453 99.3199 113.363C99.4287 113.272 99.4287 113 99.4287 112.728C99.4287 111.005 97.797 109.463 95.4037 109.463C92.3577 109.463 91.0524 111.549 90.9436 113.544H98.6672ZM4.24258 122.069C1.63176 119.892 0 116.627 0 112.637C0 108.828 1.63175 105.563 4.13379 103.296C6.63582 101.029 10.1169 99.6683 13.8156 99.6683C20.3426 99.6683 25.0204 103.477 25.0204 106.833C25.0204 108.556 23.715 110.007 21.8656 110.007C20.9954 110.007 20.1251 109.735 19.4724 109.281C18.8197 108.828 18.4933 108.103 18.4933 107.196C18.4933 106.198 19.146 105.563 19.5812 105.11C18.7109 103.84 16.9703 102.842 14.3595 102.842C12.075 102.842 10.2257 103.84 8.81151 105.563C7.39731 107.286 6.63582 109.735 6.63582 112.728C6.63582 115.63 7.5061 118.169 8.9203 119.892C10.3345 121.615 12.2926 122.613 14.5771 122.613C17.2967 122.613 18.9284 121.615 19.7987 120.346C19.3636 119.892 18.7109 119.257 18.7109 118.26C18.7109 117.444 19.0372 116.718 19.6899 116.174C20.3426 115.721 21.1041 115.448 22.0832 115.448C23.9325 115.448 25.2379 116.809 25.2379 118.532C25.2379 121.887 20.5602 125.696 14.0332 125.696C10.3345 125.515 6.8534 124.336 4.24258 122.069Z" fill="#25347A"/>
</svg>
