<svg width="187" height="58" viewBox="0 0 187 58" fill="none" xmlns="http://www.w3.org/2000/svg">
    <g clip-path="url(#clip0_242_1927)">
        <path d="M107.313 36.7535V16.8935C109.062 15.876 111.02 15.2686 113.038 15.117C119.344 14.9744 121.628 19.176 121.628 26.5683C121.628 33.8522 119.163 37.2967 111.879 37.2967C110.342 37.3086 108.809 37.1261 107.317 36.7535M99.3744 12.0318C99.2319 12.1401 99.1221 12.2143 99.1221 12.3953V57.154C99.1161 57.2136 99.1227 57.2739 99.1415 57.3308C99.1603 57.3878 99.1908 57.4401 99.2312 57.4845C99.2715 57.5288 99.3207 57.5642 99.3756 57.5883C99.4305 57.6124 99.4898 57.6248 99.5498 57.6245L106.871 56.5367C107.197 56.464 107.306 56.2829 107.306 55.9208V43.3446C108.791 43.4529 110.894 43.6297 113.539 43.6297C122.093 43.6297 129.015 39.7518 129.015 26.1976C129.015 16.4486 124.992 8.80398 113.793 8.80398C108.808 8.83159 103.889 9.93146 99.3673 12.0289M140.201 23.3219C140.125 23.3219 140.12 23.2664 140.123 23.2165C140.431 17.4438 143.259 14.4583 147.797 14.6508C152.558 14.8504 154.002 20.2382 153.881 23.3148C153.88 23.3376 153.871 23.3593 153.856 23.3764C153.841 23.3936 153.82 23.405 153.798 23.4089C153.765 23.4089 150.787 23.6214 146.945 23.6214C143.102 23.6214 140.228 23.3248 140.201 23.3219ZM132.813 18.4418C132.007 21.1483 131.622 23.9628 131.672 26.7864V28.1252C131.669 28.2153 131.68 28.3054 131.707 28.3917C132.146 39.7033 137.374 43.7067 149.157 43.7067C153.082 43.7177 156.992 43.2193 160.788 42.224C160.846 42.201 160.898 42.1667 160.942 42.1232C160.987 42.0797 161.022 42.0279 161.046 41.9706C161.069 41.9134 161.082 41.852 161.082 41.79C161.081 41.728 161.069 41.6666 161.045 41.6095L159.911 36.1505C159.881 36.0575 159.822 35.9763 159.743 35.9179C159.665 35.8594 159.57 35.8266 159.472 35.824C156.563 36.568 153.584 37.0043 150.584 37.1256C144.596 37.0601 140.462 35.6001 139.969 29.5851C139.968 29.5785 139.969 29.5719 139.971 29.5658C139.973 29.5596 139.977 29.5539 139.981 29.5493C139.986 29.5447 139.992 29.5412 139.998 29.539C140.004 29.5368 140.011 29.5359 140.017 29.5366C142.998 29.8069 145.991 29.913 148.983 29.8545C153.157 29.933 157.328 29.6223 161.444 28.9264C161.561 28.8978 161.662 28.8259 161.727 28.7252C161.793 28.6246 161.817 28.5028 161.796 28.3847V28.3476C161.796 28.3476 161.796 26.8178 161.763 25.4719C161.639 19.9602 160.755 8.60153 147.348 8.60153C139.099 8.60153 134.607 12.8017 132.806 18.4389M49.8696 37.4749C47.2235 37.0387 44.9395 35.4447 44.9395 32.9797C44.9395 28.7767 50.122 28.051 53.7461 28.051C54.9463 28.0632 56.1446 28.148 57.3346 28.3048V37.1114C55.7578 37.4893 54.1415 37.6774 52.52 37.6717C51.6328 37.6761 50.7466 37.6108 49.8696 37.4764M39.576 10.8385C39.5222 10.8489 39.4715 10.8716 39.4278 10.9048C39.3841 10.9379 39.3486 10.9807 39.3241 11.0297C39.2996 11.0788 39.2866 11.1328 39.2863 11.1877C39.286 11.2425 39.2983 11.2967 39.3222 11.346L40.8078 16.7095C40.8126 16.7584 40.829 16.8055 40.8555 16.8468C40.8821 16.8882 40.918 16.9226 40.9605 16.9474C41.0029 16.9722 41.0506 16.9865 41.0996 16.9893C41.1487 16.9921 41.1977 16.9831 41.2427 16.9633C44.1744 16.1638 47.188 15.7017 50.2246 15.5861C54.8624 15.5861 57.3275 16.346 57.3275 20.4064V23.3063L50.658 23.235C41.6761 23.3063 37.1038 26.9318 37.1038 33.5999C37.1038 40.63 42.0339 43.6383 51.8185 43.6383C56.6389 43.6383 63.2342 42.914 65.0106 42.2254C65.1222 42.1907 65.2172 42.1162 65.2774 42.016C65.3376 41.9159 65.3588 41.797 65.3371 41.6822V18.5558C65.3371 11.5257 61.3138 8.51741 51.7102 8.51741C47.5633 8.61987 43.4615 9.40353 39.5689 10.837M70.2658 18.63C70.2658 25.7699 76.4277 27.8714 81.3549 29.538C84.5086 30.6244 87.2616 31.5668 87.2616 33.597C87.2616 36.4955 83.5648 37.1114 80.4852 37.1114C77.344 36.903 74.2525 36.2189 71.3165 35.0826C71.2589 35.0648 71.1979 35.0606 71.1383 35.0702C71.0788 35.0798 71.0222 35.103 70.9731 35.1381C70.924 35.1731 70.8836 35.219 70.8552 35.2722C70.8267 35.3254 70.8109 35.3844 70.809 35.4447L69.9036 41.1704C69.8309 41.6066 70.0134 41.6779 70.2658 41.7863C73.8247 42.9623 77.5368 43.6098 81.2836 43.7081C83.6389 43.7081 95.3454 44.2513 95.3454 33.2349C95.3454 26.6381 89.6197 24.5381 84.6169 22.6847C81.3549 21.4514 78.4565 20.4035 78.4565 18.1908C78.4565 16.7052 79.761 15.1113 83.4578 15.1113C86.3815 15.2054 89.255 15.8957 91.9023 17.1401C92.1561 17.2498 92.4455 17.2499 92.5182 16.8863L93.6773 11.5955C93.7182 11.4869 93.7227 11.3679 93.69 11.2566C93.6574 11.1452 93.5893 11.0475 93.4962 10.9782C90.3793 9.40866 86.9472 8.56589 83.4578 8.51315C77.4057 8.51315 70.2658 11.1593 70.2658 18.6257M-0.00732422 21.815C-0.00732422 35.9851 7.20533 43.7039 22.1724 43.7039C26.3529 43.857 30.5237 43.2045 34.4577 41.782C34.5151 41.77 34.5691 41.7454 34.6159 41.7101C34.6626 41.6747 34.701 41.6295 34.7283 41.5776C34.7555 41.5257 34.7709 41.4684 34.7735 41.4099C34.776 41.3513 34.7655 41.2929 34.7429 41.2388L33.1475 35.5118C33.0911 35.4037 32.9985 35.319 32.8858 35.2726C32.7731 35.2262 32.6477 35.221 32.5316 35.258C29.5595 36.2529 26.4341 36.711 23.3016 36.611C13.4428 36.611 8.87768 31.3187 8.69662 21.825C8.87768 12.401 13.4442 7.14017 23.3016 7.14017C26.4351 7.02358 29.5644 7.4658 32.543 8.44612C32.6072 8.47084 32.6761 8.48072 32.7447 8.47503C32.8132 8.46934 32.8796 8.44821 32.9388 8.41325C32.9981 8.37828 33.0486 8.33039 33.0867 8.27313C33.1249 8.21586 33.1495 8.15072 33.1589 8.08258L34.7557 2.394C34.8284 2.21151 34.7557 2.03045 34.4705 1.9221C30.5364 0.500115 26.3657 -0.152352 22.1852 0.00023697C7.21531 0.00023697 0.00550825 7.75751 0.00550825 21.8136M185.062 16.0722C185.577 16.202 185.835 16.0723 185.899 15.6217L186.968 10.4721C187.033 10.1498 187.033 9.82905 186.648 9.69931C184.228 8.96961 181.708 8.62231 179.181 8.66995C174.732 8.56308 170.341 9.69863 166.501 11.9491C166.412 12.0001 166.34 12.0761 166.295 12.1676C166.249 12.2591 166.231 12.3621 166.243 12.4638V42.5234C166.242 42.5829 166.252 42.6421 166.274 42.6974C166.297 42.7526 166.33 42.8029 166.372 42.845C166.414 42.8871 166.464 42.9202 166.519 42.9424C166.575 42.9645 166.634 42.9753 166.693 42.9739H173.965C174.029 42.9817 174.094 42.9759 174.155 42.9569C174.217 42.9379 174.274 42.9061 174.323 42.8636C174.371 42.8211 174.41 42.7688 174.437 42.7102C174.464 42.6516 174.479 42.5879 174.479 42.5234V16.8607C176.176 15.75 178.183 15.2091 180.208 15.3166C181.851 15.3678 183.481 15.6245 185.061 16.0808L185.062 16.0722Z" fill="#0B1F8F"/>
    </g>
    <defs>
        <clipPath id="clip0_242_1927">
            <rect width="187" height="57.6256" fill="white"/>
        </clipPath>
    </defs>
</svg>
