<svg width="187" height="140" viewBox="0 0 187 131" fill="none" xmlns="http://www.w3.org/2000/svg">
    <path d="M48.184 64.1139C47.7251 64.2947 47.2375 64.4555 46.7499 64.576C46.5492 64.6363 46.3771 64.6765 46.205 64.7367C45.2585 65.018 44.4268 65.4801 43.7958 66.0628C43.3656 66.545 43.2795 67.1277 43.595 67.6501C43.9392 68.1524 44.6562 68.4538 45.4306 68.4136C46.836 68.4136 47.8972 67.9113 48.27 67.188C48.2413 66.9268 48.2126 66.4245 48.2126 66.1231C48.184 65.5605 48.184 64.6564 48.184 64.1139ZM44.943 69.4785C44.7136 69.4785 44.4554 69.4584 44.226 69.4584C42.964 69.3579 41.9315 69.2173 41.2719 68.6547C40.5835 68.0318 40.3254 67.2282 40.5548 66.4647C40.899 65.2993 42.333 64.9176 43.5663 64.5358C44.1973 64.3349 44.9143 64.1541 45.4593 64.0134L46.1476 63.8326C46.7212 63.7121 47.2662 63.5312 47.7538 63.2901C48.0406 63.1294 48.1553 62.6673 48.0979 62.4061C48.0406 62.0444 47.5817 61.2608 46.3771 61.2608C44.312 61.2608 43.8531 62.4663 43.5663 63.1696L41.3005 62.5266C42.0749 61.2206 44.0826 60.3366 46.291 60.3366C47.0367 60.3366 47.7824 60.437 48.4708 60.638C50.3064 61.2005 51.1381 62.0444 51.0234 63.5513V66.8263C51.0234 67.2884 51.0234 68.3533 51.5396 68.6145C51.8265 68.7551 52.1993 68.7551 52.4861 68.6145V68.9159C52.2567 69.2173 51.8265 69.3981 51.3389 69.378C50.9087 69.378 50.5071 69.2976 50.1343 69.1771C49.5607 68.9963 49.0731 68.6949 48.7289 68.3332C47.8111 69.0565 46.4057 69.4986 44.943 69.4785ZM149.428 69.4785C146.474 69.4785 144.839 68.494 144.839 66.324V60.4772H147.621V66.3039C147.621 67.8711 148.969 68.2529 149.973 68.2529C151.177 68.2529 152.325 67.9314 152.841 67.1076V60.4772H155.623V69.3177H152.841V68.3131C151.952 68.936 150.776 69.4785 149.428 69.4785ZM53.6907 69.3177V60.4772H56.4728V61.7229C57.5053 60.9394 58.7386 60.417 60.4307 60.437V62.2855C60.0292 62.1851 59.599 62.1449 59.1688 62.1449C57.9929 62.1449 57.0177 62.2252 56.4441 62.8883V69.3177H53.6907ZM36.3387 69.3177V64.2545C36.3387 62.9686 36.0806 62.5065 35.6791 62.2051C35.2775 61.9038 34.6752 61.5421 33.9295 61.5421C32.4094 61.5421 31.2909 61.8435 30.7459 62.7878V69.3177H27.9639V55.7556H30.7459V61.5823C31.6637 60.9193 32.897 60.3567 34.3597 60.3567C35.8225 60.3567 37.0271 60.4571 37.8301 61.0197C38.7479 61.6627 39.0921 62.5467 39.0921 64.0938V69.3177H36.3387ZM61.8935 69.2976H64.6755V55.7355H61.8935V69.2976ZM72.5915 61.2206C70.0676 61.2206 68.7196 63.1696 68.7196 64.8774C68.7196 66.5852 70.0389 68.5542 72.5915 68.5542C74.0542 68.5542 74.9433 67.7706 75.4309 67.2683C76.1192 66.5651 76.4634 65.7213 76.4634 64.8573C76.4347 63.1696 75.1154 61.2407 72.5915 61.2206ZM72.5915 69.4785C68.5761 69.4785 65.9088 67.7505 65.9088 64.8975C65.9088 62.0243 68.6048 60.3165 72.5915 60.3165C76.5781 60.3165 79.2742 62.0243 79.2742 64.8975C79.2742 67.7104 76.5208 69.4785 72.5915 69.4785ZM91.9512 69.4785C89.8861 69.4785 88.6815 68.8355 88.6815 67.3889V61.4015H86.2723C85.7561 61.4015 85.2398 61.4015 84.5801 61.4216V67.2081C84.5801 68.0519 84.9243 68.3533 85.6987 68.3533C86.4444 68.3734 87.1614 68.2328 87.7924 67.9716L88.1939 68.3332C87.3048 69.1168 86.3584 69.4785 85.0964 69.4785C83.0601 69.4785 81.8268 68.8355 81.8268 67.409V61.522C80.5648 61.5622 79.6183 61.6024 79.4176 61.6024L78.4998 61.6627L79.7044 60.4772H81.7981V58.89L84.5801 57.142V60.4772H88.6815V58.89L91.4636 57.142V60.4772H95.3642L96.282 61.5622L95.565 61.522C94.9627 61.5019 93.6433 61.4617 91.4636 61.4416V67.2282C91.4636 68.072 91.8364 68.3533 92.5821 68.3734C93.3278 68.3935 94.0449 68.2528 94.6758 67.9917L95.0774 68.3734C94.1883 69.0967 93.2418 69.4785 91.9512 69.4785ZM105.116 63.1696C104.743 61.6024 103.223 61.2005 102.391 61.2005C100.555 61.2005 99.5516 62.0042 99.0354 63.1696H105.116ZM102.362 69.4785C98.4617 69.4785 95.8231 67.7104 95.8231 64.7568C95.8231 62.0645 98.5478 60.3165 102.334 60.3165C105.46 60.3165 107.697 61.5823 107.955 63.7522L108.041 64.0938H98.6625C98.6625 64.4354 98.6338 64.576 98.6338 64.7367C98.6338 66.8062 100.269 68.293 102.879 68.293C105.116 68.293 106.263 67.6903 106.98 67.188L107.525 67.5295C106.32 68.7953 104.714 69.4785 102.362 69.4785ZM125.938 69.3177H128.72V55.7556H125.938V69.3177ZM133.969 67.8711C134.801 68.1725 135.718 68.3332 136.665 68.3533C139.189 68.3533 140.709 66.9268 140.709 64.9176C140.709 62.9084 139.217 61.5019 136.693 61.5019C135.747 61.5019 134.801 61.6828 133.997 62.0243L133.969 67.8711ZM137.238 69.4785C136.063 69.4584 134.915 69.1771 133.94 68.6949V69.2976H131.158V55.7355H133.94V61.1403C134.887 60.6982 136.034 60.3366 137.152 60.3366C140.881 60.3366 143.491 62.0846 143.491 64.8774C143.52 67.7706 140.996 69.4785 137.238 69.4785ZM157.258 60.5174L160.04 60.4772V61.743C160.958 61.0599 162.191 60.4571 163.74 60.4571L165.145 62.6271C165.145 62.6271 163.854 62.1449 162.764 62.1449C161.589 62.1449 160.527 62.2252 160.068 62.9084V69.3177L157.286 69.3579L157.258 60.5174ZM120.718 69.2976H123.328V61.2407H120.718V69.2976ZM120.603 59.0507L122.038 57.5036L123.472 59.0507L122.038 60.5777L120.603 59.0507ZM113.175 69.3177V56.8205C111.712 56.8205 109.418 56.8607 106.091 56.941L104.743 56.9812L106.234 55.7556H122.324L122.496 55.8159L123.672 56.9812L122.468 56.9209C121.751 56.8808 119.112 56.7803 116.043 56.7803H115.986V69.3177H113.175ZM167.411 73.316L167.812 72.8338C168.099 72.5124 169.791 70.463 171.111 68.5341C170.795 68.0117 165.776 60.437 165.776 60.437H168.816L172.487 66.766L176.417 60.4571H178.74L178.338 61.0398L170.422 73.316H167.411ZM17.2945 69.6995C14.197 69.6995 11.3002 69.0364 9.32124 67.4894C5.50667 64.5559 5.82216 60.0352 9.9809 57.363C10.1243 57.2625 10.2677 57.1821 10.4111 57.1018C12.3614 55.9766 14.828 55.5547 17.4093 55.5547C20.6215 55.5547 23.633 56.3182 25.8128 58.1667L23.5757 59.3521C22.3998 58.1666 20.8797 57.1219 19.3596 56.8205C18.7286 56.6798 18.0403 56.6196 17.3806 56.5995C16.176 56.6196 14.9714 56.8406 13.9102 57.2625C11.8452 58.0662 10.5258 59.7941 10.0669 61.5823C9.66541 63.4509 10.4111 65.3395 12.1607 66.7861C13.48 67.8711 15.3729 68.5944 17.4666 68.5944C17.8969 68.5944 18.3271 68.5743 18.7573 68.514C20.937 68.2328 22.83 66.967 24.0919 65.3998L26.8166 66.1231C24.9237 68.3332 21.1665 69.6995 17.2945 69.6995Z" fill="#311212"/>
</svg>
