<svg width="173" height="16" viewBox="0 0 173 16" fill="none" xmlns="http://www.w3.org/2000/svg">
    <path d="M172.086 15.351V0.319527H166.866V9.23841L164.83 6.84893L159.122 0.319527H154.132V15.351H159.438V6.5433L161.617 8.93278L167.612 15.351H172.086ZM144.839 11.7668V3.90375C144.839 3.02853 143.778 2.43116 141.856 2.43116C139.992 2.43116 138.931 3.01464 138.931 3.90375V11.7668C138.931 12.642 139.992 13.2394 141.856 13.2394C143.778 13.2255 144.839 12.642 144.839 11.7668ZM150.661 11.5862C150.661 13.9757 147.306 15.6984 141.856 15.6984C136.464 15.6984 133.08 13.9896 133.08 11.5862V4.08435C133.08 1.70876 136.464 0 141.856 0C147.306 0 150.661 1.70876 150.661 4.08435V11.5862ZM119.714 15.351V0.319527H114.494V9.23841L112.458 6.83504L106.751 0.305633H101.76V15.3372H107.066V6.5294L109.246 8.91889L115.24 15.3372H119.714V15.351ZM92.4962 11.7668V3.90375C92.4962 3.02853 91.435 2.43116 89.5134 2.43116C87.6491 2.43116 86.5879 3.01464 86.5879 3.90375V11.7668C86.5879 12.642 87.6491 13.2394 89.5134 13.2394C91.4063 13.2255 92.4962 12.642 92.4962 11.7668ZM98.2897 11.5862C98.2897 13.9757 94.9341 15.6984 89.4847 15.6984C84.0926 15.6984 80.7083 13.9896 80.7083 11.5862V4.08435C80.7083 1.70876 84.0926 0 89.4847 0C94.9341 0 98.2897 1.70876 98.2897 4.08435V11.5862ZM78.0696 2.79236V0.305633H60.861V2.79236H66.5686V15.351H72.3908V2.79236H78.0696ZM58.2224 2.79236V0.305633H41.0138V2.79236H46.7213V15.351H52.5436V2.79236H58.2224ZM32.5529 11.7668V3.90375C32.5529 3.02853 31.4917 2.43116 29.5701 2.43116C27.7058 2.43116 26.6446 3.01464 26.6446 3.90375V11.7668C26.6446 12.642 27.7058 13.2394 29.5701 13.2394C31.463 13.2255 32.5529 12.642 32.5529 11.7668ZM38.3465 11.5862C38.3465 13.9757 34.9908 15.6984 29.5414 15.6984C24.1494 15.6984 20.7363 13.9896 20.7363 11.5862V4.08435C20.7363 1.70876 24.1207 0 29.5414 0C34.9908 0 38.3465 1.70876 38.3465 4.08435V11.5862ZM17.2946 11.7668C17.2946 14.0313 14.3979 15.6984 8.91979 15.6984C3.38436 15.6984 0 13.8924 0 11.5723V4.12603C0 1.80601 3.38436 0 8.91979 0C14.3979 0 17.2946 1.66708 17.2946 3.93154V5.76533H12.1321V3.95932C12.1321 3.0841 11.0995 2.47284 9.00583 2.47284C6.91212 2.47284 5.85092 3.0841 5.85092 3.91764V11.8224C5.85092 12.6559 6.91212 13.2672 9.00583 13.2672C11.0995 13.2672 12.1321 12.6559 12.1321 11.7807V9.97471H17.2946V11.7668Z" fill="#E40E2E"/>
</svg>
