<svg width="187" height="150" viewBox="0 0 187 169" fill="none" xmlns="http://www.w3.org/2000/svg">
    <g clip-path="url(#clip0_215_24)">
        <path fill-rule="evenodd" clip-rule="evenodd" d="M0 0H187V168.416H0V0Z" fill="white"/>
        <path fill-rule="evenodd" clip-rule="evenodd" d="M25.6984 109.467C24.4276 107.746 22.5068 106.959 20.1203 106.959L17.0935 107.676L14.707 109.685V107.388H8.73108V127.762H15.3473V121.157C16.5405 122.38 17.8987 122.948 19.6449 122.948C21.8762 122.948 23.6321 122.372 25.0582 121.157C26.8141 119.724 27.6096 117.715 27.6096 114.919C27.6096 112.691 26.8917 110.76 25.6984 109.467ZM20.9158 115.059C20.9158 117.357 20.0427 118.431 18.0442 118.431C16.2883 118.431 15.3376 117.208 15.3376 114.919L16.0555 112.411C16.5308 111.835 17.2487 111.477 17.889 111.477C19.8777 111.477 20.9158 112.7 20.9158 115.067V115.059Z" fill="#BD4F42"/>
        <path fill-rule="evenodd" clip-rule="evenodd" d="M48.5641 113.486C48.5641 109.109 46.4105 106.96 42.0352 106.96C40.0465 106.96 38.3682 107.746 37.0197 109.327V101.796H30.2483V122.608H37.0197V114.928C37.0197 112.918 37.8152 111.844 39.4062 111.844C41.1621 111.844 41.9576 112.778 41.9576 114.57V122.608H48.5738V113.495L48.5641 113.486Z" fill="#BD4F42"/>
        <path fill-rule="evenodd" clip-rule="evenodd" d="M68.3254 108.751C67.1321 107.527 64.736 106.959 61.0786 106.959C55.1027 106.959 51.9983 108.611 51.9983 112.053H58.372C58.5272 111.118 59.1675 110.62 60.6809 110.62C62.1166 110.62 62.7569 111.118 62.7569 111.983L60.9234 113.058L56.9362 113.635C52.7938 114.211 50.8051 115.784 50.8051 118.44C50.8051 119.873 51.5229 121.026 52.7162 121.882C53.7542 122.599 55.19 122.957 56.9362 122.957C59.4876 122.957 61.554 122.38 63.3099 121.017L63.5524 122.599H70.4888V122.38L69.4507 120.301V113.416C69.4507 111.118 69.053 109.546 68.3351 108.751H68.3254ZM62.7472 115.924C63.0674 118.431 62.1069 119.585 59.963 119.585C58.5272 119.585 57.7317 119.226 57.7317 118.44C57.7317 117.575 58.2847 117.007 59.4876 116.719L62.7569 115.932L62.7472 115.924Z" fill="#BD4F42"/>
        <path fill-rule="evenodd" clip-rule="evenodd" d="M73.2633 107.388V122.599H79.7922V117.357C79.7922 114.342 81.0631 112.909 83.857 112.909L85.3704 113.049V107.021L84.5749 106.951C82.0235 106.951 80.19 108.095 79.2392 110.542H79.084V107.388H73.2633Z" fill="#BD4F42"/>
        <path fill-rule="evenodd" clip-rule="evenodd" d="M87.8442 122.599H94.538V115.067C94.538 112.918 95.3335 111.835 96.7693 111.835C97.7297 111.835 98.2051 112.053 98.5252 112.411L98.923 114.919V122.599H105.694V115.067C105.694 112.918 106.49 111.835 108.081 111.835L109.75 112.411L110.147 114.919V122.599H116.919V113.626C116.919 109.179 114.843 106.951 110.467 106.951C108.081 106.951 106.17 107.886 104.734 109.825C103.774 107.886 101.95 106.951 99.1558 106.951C97.9626 106.951 96.9245 107.309 95.8089 107.886L93.8202 109.677V107.379H87.8442V122.59V122.599Z" fill="#BD4F42"/>
        <path fill-rule="evenodd" clip-rule="evenodd" d="M136.602 108.751C135.409 107.527 133.013 106.959 129.433 106.959C123.215 106.959 120.11 108.611 120.11 112.053H126.639C126.794 111.118 127.435 110.62 128.87 110.62C130.384 110.62 131.179 111.118 131.179 111.983C131.179 112.56 130.461 112.918 129.268 113.058L125.203 113.635C121.061 114.211 119.072 115.784 119.072 118.44C119.072 119.873 119.713 121.026 121.061 121.882C122.099 122.599 123.447 122.957 125.203 122.957C127.677 122.957 129.666 122.38 131.422 121.017L131.82 122.599H138.591V122.38C138.038 121.882 137.796 121.157 137.796 120.301V113.416C137.796 111.118 137.398 109.546 136.602 108.751ZM131.179 115.924C131.257 118.431 130.384 119.585 128.23 119.585C126.794 119.585 126.077 119.226 126.077 118.44C126.077 117.575 126.629 117.007 127.832 116.719L131.179 115.932V115.924Z" fill="#BD4F42"/>
        <path fill-rule="evenodd" clip-rule="evenodd" d="M156.364 108.384C154.928 107.379 152.774 106.951 150.31 106.951C147.526 106.951 145.207 107.667 143.539 109.179C141.783 110.612 140.832 112.691 140.832 115.207C140.832 117.724 141.792 119.585 143.539 121.017C145.207 122.38 147.526 122.957 150.31 122.957C155.966 122.957 159.07 120.947 159.711 116.719H152.939C152.784 118.152 151.901 118.868 150.31 118.868C148.399 118.868 147.526 117.724 147.526 115.207C147.526 112.411 148.399 110.97 150.31 110.97C151.106 110.97 151.581 111.258 151.979 111.616L152.774 113.119H159.546C159.468 111.11 158.352 109.458 156.354 108.384H156.364Z" fill="#BD4F42"/>
        <path fill-rule="evenodd" clip-rule="evenodd" d="M168.073 107.388H161.302L166.88 121.306V122.957C166.637 123.315 165.919 123.455 164.891 123.455L163.533 123.315V127.623L166.482 127.762C169.266 127.762 171.265 127.264 172.303 126.33L174.854 121.524L180.267 107.388H173.894L171.022 116.719L168.073 107.388Z" fill="#BD4F42"/>
        <path fill-rule="evenodd" clip-rule="evenodd" d="M45.2173 63.2565H64.3383C63.5428 56.0834 60.516 50.6314 55.3356 46.6823C49.9999 42.7331 42.7435 40.6537 33.4206 40.6537C24.6605 40.6537 17.4816 43.3098 11.7482 48.4734C5.77225 53.8554 2.74548 60.8888 2.74548 69.7133C2.74548 78.5377 5.69464 85.8594 11.3504 91.1715C17.3264 96.4138 25.291 99.0611 35.4094 99.0611C43.539 99.0611 50.3104 96.9817 55.5684 92.9626C60.9041 88.7252 63.9308 83.1334 64.8913 76.1001H45.3725C44.4121 82.417 41.1525 85.5012 35.1765 85.5012C30.3939 85.5012 27.0469 83.9984 25.2134 80.8356C23.7 78.4678 22.9045 75.0254 22.9045 70.3598C22.9045 65.0476 24.0202 61.1072 26.0089 58.3725C27.9977 55.6465 30.6267 54.2137 34.2161 54.2137C37.4078 54.2137 39.9495 55 41.948 56.5814C43.7815 58.1628 44.8195 60.382 45.2173 63.2565Z" fill="#BD4F42"/>
        <path fill-rule="evenodd" clip-rule="evenodd" d="M107.285 42.0865L96.2067 79.0357L85.3704 42.0865H65.0562L86.0107 97.6282H106.325L127.677 42.0865H107.285Z" fill="#BD4F42"/>
        <path fill-rule="evenodd" clip-rule="evenodd" d="M137.155 45.1008C132.053 48.185 129.588 52.6322 129.588 58.3725C129.588 63.0381 131.422 66.8387 135.002 69.7132C137.786 71.7926 141.938 73.5837 147.196 75.0254L159.468 77.8999C163.057 78.9745 164.881 80.4074 164.881 82.2072C164.881 83.5003 164.086 84.4352 162.65 85.1516L156.519 86.2263C154.365 86.2263 152.532 85.7982 150.785 84.7934C149.117 83.8586 148.001 82.4257 147.594 80.4161H128.23C128.385 85.6584 131.014 90.1056 135.962 93.548C141.143 97.2787 147.594 99.0698 155.481 99.0698C164.241 99.0698 171.1 97.4884 176.193 94.2644C181.606 90.8919 184.245 86.1564 184.245 79.9094C184.245 75.2438 182.411 71.6616 178.667 68.9269C176.038 66.8474 172.05 65.1961 166.637 63.7632L154.365 60.8887C150.698 59.8141 148.787 58.3812 148.787 56.5814C148.787 54.432 150.941 53.3486 155.316 53.3486L160.331 54.4233C162.087 55.2883 163.116 56.4328 163.436 58.2239H182.557C181.761 52.8419 179.365 48.683 175.223 45.6687C170.605 42.3661 164.309 40.6449 156.257 40.6449C148.205 40.6449 141.919 42.0778 137.136 45.0921L137.155 45.1008Z" fill="#BD4F42"/>
    </g>
    <defs>
        <clipPath id="clip0_215_24">
            <rect width="187" height="168.416" fill="white"/>
        </clipPath>
    </defs>
</svg>
