<svg width="187" height="68" viewBox="0 0 187 68" fill="none" xmlns="http://www.w3.org/2000/svg">
    <path d="M134.51 13.0288H141.029V13.3265H135.587L134.198 17.6847C135.587 17.5423 136.757 17.616 137.709 17.9061C138.111 18.0333 138.487 18.2139 138.838 18.448C139.189 18.677 139.467 18.9848 139.67 19.3715C139.874 19.7583 139.983 20.2315 139.998 20.7912C140.014 21.3509 139.886 22.0201 139.617 22.7986C139.342 23.6229 139.004 24.3277 138.602 24.9128C138.2 25.5031 137.759 25.9941 137.281 26.386C136.808 26.7778 136.312 27.078 135.793 27.2866C135.274 27.4952 134.757 27.6326 134.243 27.6988C133.729 27.7649 133.233 27.77 132.755 27.714C132.277 27.653 131.842 27.5461 131.45 27.3935C131.053 27.2408 130.712 27.05 130.427 26.821C130.142 26.5971 129.939 26.3529 129.816 26.0883L130.007 25.9891C130.165 26.2791 130.386 26.5386 130.671 26.7676C130.793 26.8643 130.936 26.9584 131.099 27.05C131.262 27.1365 131.445 27.2179 131.648 27.2942C131.847 27.3655 132.071 27.424 132.32 27.4698C132.569 27.5105 132.844 27.5308 133.144 27.5308C133.729 27.5308 134.302 27.3935 134.862 27.1187C135.416 26.8439 135.93 26.4775 136.403 26.0196C136.877 25.5667 137.294 25.0502 137.655 24.4702C138.022 23.8952 138.304 23.3024 138.502 22.6917C138.701 22.0862 138.808 21.4934 138.823 20.9133C138.838 20.3383 138.729 19.8219 138.495 19.3639C138.261 18.911 137.894 18.5472 137.396 18.2724C136.897 17.9977 136.238 17.8603 135.419 17.8603C135.007 17.8603 134.63 17.9035 134.289 17.99C133.943 18.0765 133.645 18.1707 133.396 18.2724C133.101 18.3946 132.839 18.532 132.61 18.6846L134.51 13.0288Z" fill="black"/>
    <path fill-rule="evenodd" clip-rule="evenodd" d="M145.83 12.9448C146.517 12.9448 147.082 13.1 147.524 13.4104C147.962 13.7208 148.285 14.1279 148.494 14.6316C148.707 15.1405 148.817 15.7206 148.822 16.3719C148.822 17.0181 148.738 17.6771 148.57 18.3487C148.397 19.0255 148.143 19.687 147.807 20.3332C147.471 20.9795 147.071 21.557 146.608 22.0658C146.145 22.5747 145.626 22.9843 145.051 23.2947C144.471 23.6 143.853 23.7527 143.197 23.7527C142.54 23.7527 142.014 23.6 141.617 23.2947C141.225 22.9843 140.942 22.5747 140.769 22.0658C140.596 21.557 140.525 20.9795 140.556 20.3332C140.581 19.687 140.691 19.0255 140.884 18.3487C141.077 17.6771 141.339 17.0181 141.67 16.3719C142.006 15.7206 142.388 15.1405 142.815 14.6316C143.247 14.1279 143.721 13.7208 144.235 13.4104C144.743 13.1 145.275 12.9448 145.83 12.9448ZM143.433 23.3405C143.962 23.3405 144.451 23.1955 144.899 22.9054C145.346 22.6154 145.748 22.2338 146.105 21.7605C146.456 21.2822 146.761 20.7429 147.021 20.1424C147.275 19.5369 147.471 18.9186 147.608 18.2877C147.741 17.6567 147.814 17.0385 147.83 16.4329C147.845 15.8274 147.786 15.288 147.654 14.8148C147.527 14.3416 147.321 13.96 147.036 13.6699C146.756 13.3799 146.392 13.2349 145.944 13.2349C145.4 13.2349 144.906 13.3799 144.464 13.6699C144.016 13.96 143.624 14.3416 143.288 14.8148C142.947 15.288 142.662 15.8274 142.433 16.4329C142.204 17.0385 142.031 17.6567 141.914 18.2877C141.797 18.9186 141.741 19.5369 141.746 20.1424C141.751 20.7429 141.815 21.2822 141.937 21.7605C142.059 22.2338 142.245 22.6154 142.494 22.9054C142.744 23.1955 143.057 23.3405 143.433 23.3405Z" fill="#231F20"/>
    <path d="M148.997 23.0585C148.941 23.2518 148.834 23.4172 148.677 23.5546C148.519 23.6869 148.348 23.753 148.165 23.753C147.992 23.753 147.86 23.6843 147.768 23.547C147.677 23.4096 147.654 23.2442 147.7 23.0508C147.751 22.8575 147.857 22.6921 148.02 22.5547C148.178 22.4173 148.346 22.3486 148.524 22.3486C148.697 22.3486 148.832 22.4199 148.929 22.5623C149.02 22.6997 149.043 22.8651 148.997 23.0585Z" fill="#231F20"/>
    <path d="M157.385 19.7381L157.622 19.7686L150.027 37.1635C149.905 37.4942 149.77 37.7893 149.623 38.0489C149.557 38.1659 149.485 38.2753 149.409 38.3771C149.333 38.4839 149.254 38.5806 149.172 38.6671C149.086 38.7485 148.997 38.8147 148.905 38.8655C148.814 38.9164 148.717 38.9419 148.615 38.9419C148.361 38.9419 148.195 38.8299 148.119 38.606C148.038 38.3821 148.02 38.0819 148.066 37.7054C148.106 37.3339 148.198 36.8989 148.341 36.4002C148.478 35.9015 148.641 35.3749 148.829 34.8202C149.017 34.2656 149.221 33.7008 149.44 33.1258C149.653 32.5508 149.854 31.9987 150.043 31.4695C150.17 31.1133 150.333 30.6681 150.531 30.1338C150.73 29.5944 150.951 28.9965 151.195 28.3401C151.434 27.6888 151.691 26.9993 151.966 26.2717C152.241 25.544 152.518 24.8113 152.798 24.0735C153.073 23.3356 153.345 22.6131 153.615 21.9058C153.884 21.1985 154.134 20.5421 154.363 19.9366C154.19 20.247 154.004 20.5574 153.805 20.8678C153.607 21.1781 153.404 21.4758 153.195 21.7608C152.991 22.0457 152.788 22.3129 152.584 22.5622C152.381 22.8115 152.187 23.0303 152.004 23.2186C151.816 23.4018 151.643 23.5468 151.485 23.6537C151.327 23.7605 151.19 23.814 151.073 23.814C150.834 23.814 150.663 23.7249 150.562 23.5468C150.46 23.3687 150.409 23.1219 150.409 22.8064C150.409 22.4961 150.457 22.1271 150.554 21.6997C150.651 21.2774 150.786 20.8194 150.959 20.3258C151.132 19.8272 151.31 19.3692 151.493 18.952C151.671 18.5347 151.839 18.1709 151.997 17.8605C152.164 17.4941 152.335 17.1608 152.508 16.8606H153.805C153.602 17.2321 153.404 17.6188 153.21 18.0208C153.042 18.3566 152.872 18.7281 152.699 19.1351C152.521 19.5473 152.368 19.9442 152.241 20.3258C152.114 20.7126 151.994 21.0815 151.882 21.4326C151.77 21.7786 151.681 22.0839 151.615 22.3485C151.549 22.6182 151.516 22.8293 151.516 22.982C151.516 23.1397 151.562 23.2186 151.653 23.2186C151.709 23.2186 151.808 23.1474 151.951 23.0049C152.093 22.8624 152.259 22.6716 152.447 22.4324C152.635 22.1984 152.841 21.9261 153.065 21.6158C153.289 21.3003 153.508 20.9746 153.722 20.6388C153.935 20.308 154.141 19.9747 154.34 19.6389C154.533 19.3031 154.701 18.9876 154.844 18.6924C154.95 18.4126 155.047 18.1582 155.134 17.9292C155.225 17.7002 155.301 17.5043 155.363 17.3415C155.434 17.1481 155.495 16.9776 155.546 16.8301H156.904C156.731 17.2372 156.51 17.7638 156.24 18.41C155.971 19.0563 155.668 19.7865 155.332 20.6006C155.001 21.4148 154.645 22.29 154.263 23.2262C153.887 24.1625 153.503 25.1191 153.111 26.0961C152.724 27.0731 152.343 28.0501 151.966 29.0271C151.584 30.004 151.228 30.9378 150.897 31.8282C150.567 32.7238 150.266 33.5583 149.997 34.3318C149.727 35.1052 149.508 35.7769 149.34 36.3468C149.167 36.9167 149.058 37.3645 149.012 37.6901C148.961 38.0158 148.984 38.1786 149.081 38.1786C149.162 38.1786 149.31 37.9725 149.524 37.5604C149.737 37.1482 150.012 36.5605 150.348 35.7972C150.689 35.0289 151.091 34.0977 151.554 33.0037C152.017 31.9147 152.541 30.6859 153.126 29.3171C153.711 27.9534 154.36 26.4676 155.073 24.8596C155.78 23.2466 156.551 21.5394 157.385 19.7381Z" fill="#231F20"/>
    <path d="M157.293 19.8679L159.056 16.853H160.423C160.021 17.8605 159.677 18.7841 159.392 19.6237C159.275 19.9799 159.161 20.3335 159.049 20.6846C158.932 21.0408 158.838 21.3665 158.766 21.6616C158.695 21.9567 158.644 22.2086 158.614 22.4172C158.588 22.6309 158.598 22.776 158.644 22.8523C158.695 22.9286 158.771 22.9413 158.873 22.8905C158.98 22.8447 159.105 22.7556 159.247 22.6233C159.39 22.4961 159.542 22.3333 159.705 22.1348C159.868 21.9415 160.033 21.7379 160.201 21.5242C160.588 21.0205 161.01 20.4226 161.468 19.7305L161.598 19.8985C161.13 20.6057 160.675 21.2367 160.232 21.7914C160.038 22.0305 159.843 22.2671 159.644 22.5012C159.446 22.7353 159.247 22.9439 159.049 23.1271C158.855 23.3153 158.672 23.4705 158.499 23.5927C158.326 23.7199 158.168 23.7937 158.026 23.814C157.777 23.8547 157.581 23.8013 157.438 23.6537C157.301 23.5011 157.242 23.2085 157.263 22.776C157.283 22.3485 157.398 21.7557 157.606 20.9976C157.815 20.2394 158.138 19.2649 158.576 18.0743L157.415 20.0358L157.293 19.8679Z" fill="#231F20"/>
    <path fill-rule="evenodd" clip-rule="evenodd" d="M162.622 19.7839C162.408 20.3283 162.243 20.8219 162.126 21.2646C162.07 21.4579 162.024 21.6462 161.988 21.8294C161.953 22.0126 161.932 22.1805 161.927 22.3332C161.917 22.4909 161.927 22.6232 161.958 22.7301C161.988 22.8369 162.044 22.9056 162.126 22.9361C162.207 22.9718 162.309 22.9514 162.431 22.8751C162.553 22.8038 162.688 22.6944 162.835 22.5469C162.978 22.4044 163.131 22.2365 163.293 22.0431C163.451 21.8498 163.606 21.6513 163.759 21.4478C164.115 20.9593 164.497 20.3945 164.904 19.7533L165.003 19.9136C164.499 20.6871 164.062 21.3256 163.69 21.8294C163.319 22.3281 162.983 22.725 162.683 23.0201C162.383 23.3101 162.105 23.5111 161.851 23.6231C161.596 23.7401 161.332 23.7986 161.057 23.7986C160.92 23.7986 160.813 23.7528 160.736 23.6612C160.665 23.5696 160.619 23.4501 160.599 23.3025C160.574 23.1549 160.569 22.9845 160.584 22.7911C160.594 22.6028 160.619 22.4095 160.66 22.211C160.742 21.748 160.884 21.2162 161.088 20.6158C161.311 19.9798 161.561 19.2776 161.836 18.5092C162.11 17.7408 162.403 16.9394 162.713 16.1049C163.024 15.2704 163.349 14.4105 163.69 13.5251C164.026 12.6397 164.372 11.7645 164.728 10.8994C165.085 10.0344 165.441 9.18973 165.797 8.3654C166.153 7.54108 166.504 6.76764 166.85 6.04508C167.201 5.31743 167.542 4.66102 167.873 4.07585C168.204 3.48559 168.517 2.98947 168.812 2.58749C169.107 2.1855 169.384 1.89546 169.644 1.71736C169.898 1.53418 170.125 1.48838 170.323 1.57998C170.567 1.69192 170.71 1.92344 170.75 2.27455C170.786 2.62056 170.738 3.05562 170.605 3.57973C170.478 4.09875 170.275 4.69155 169.995 5.35814C169.715 6.01964 169.389 6.72693 169.018 7.48002C168.646 8.23311 168.237 9.01672 167.789 9.83087C167.341 10.645 166.878 11.4592 166.4 12.2733C165.922 13.0875 165.441 13.8864 164.957 14.67C164.479 15.4536 164.016 16.1965 163.568 16.8987C163.395 17.4177 163.23 17.9189 163.072 18.4023C162.914 18.8807 162.764 19.3412 162.622 19.7839ZM170.262 1.94634C170.12 1.85984 169.946 1.90564 169.743 2.08373C169.539 2.25674 169.316 2.53915 169.071 2.93096C168.832 3.32276 168.573 3.80871 168.293 4.38879C168.018 4.96887 167.733 5.61002 167.438 6.31222C167.138 7.01442 166.832 7.76751 166.522 8.57149C166.212 9.37546 165.904 10.2023 165.598 11.0521C165.288 11.9019 164.983 12.7593 164.683 13.6243C164.387 14.4893 164.1 15.3315 163.82 16.1507C164.242 15.4689 164.677 14.7565 165.125 14.0136C165.573 13.2707 166.018 12.5176 166.461 11.7543C166.899 10.9961 167.318 10.243 167.72 9.49504C168.127 8.74704 168.501 8.02702 168.842 7.335C169.183 6.64806 169.483 5.99928 169.743 5.38867C169.997 4.78315 170.193 4.24377 170.331 3.77055C170.468 3.29732 170.537 2.90297 170.537 2.58749C170.532 2.272 170.44 2.05829 170.262 1.94634Z" fill="#231F20"/>
    <path fill-rule="evenodd" clip-rule="evenodd" d="M184.443 64.7705H173.895C173.849 64.6865 165.697 50.528 165.697 50.528H148.722C148.722 50.528 141.028 64.6865 140.983 64.7705H140.013C140.143 64.5263 160.698 26.6912 160.751 26.5996H162.514C162.56 26.6836 184.298 64.5186 184.443 64.7705ZM165.254 49.6044L157.049 35.2932L156.981 35.4306L149.272 49.6044H165.254ZM65.8773 28.9963V44.46H70.1669C70.1974 44.46 73.4566 44.5363 75.9066 43.6815C78.9521 42.4908 80.8373 40.2163 81.509 36.9266H82.3333V52.8788H81.509C80.8297 49.5586 78.9444 47.2994 75.9066 46.1468C73.4566 45.2843 70.1974 45.3683 70.1592 45.3683H65.8773V63.8622H77.8682C77.9827 63.8699 89.4393 63.9767 92.0497 53.7108H92.874V64.7705H55.9396V28.0651H92.874V36.7587H92.0344C87.8594 28.5994 77.9598 28.9886 77.8606 28.9963H65.8773ZM48.9405 46.269V46.5895C48.8641 58.1835 39.1554 62.0686 39.0562 62.1067C39.0104 62.1143 35.1712 63.9614 28.3323 64.7323L28.1873 64.7476L26.4318 64.9003C26.4241 64.9003 25.2334 64.9842 25.2334 64.9842C23.31 65.0606 20.2493 65.0529 18.013 65.03L11.2275 64.9003C8.85377 64.8239 6.96088 64.7705 4.38867 64.7705V28.0651C6.82349 28.0651 8.60953 28.0193 11.2275 27.9353C11.2581 27.9353 14.5172 27.8514 18.013 27.8285C20.2417 27.8132 23.31 27.7979 25.2334 27.8743L26.4318 27.9353L27.4698 28.0422L28.3323 28.1261C35.1712 28.8741 39.0104 30.7441 39.0486 30.767L39.1707 30.8281V30.7747C40.2316 31.2326 48.8641 35.3085 48.9405 46.269ZM38.9264 46.4216C38.9264 39.9949 37.461 36.6289 37.4457 36.5984C35.9497 32.9652 32.889 30.5304 28.3628 29.3626L28.1415 29.3092L27.3477 29.126C27.3401 29.126 26.8668 29.0421 26.8668 29.0421L26.1188 28.9276C25.2869 28.836 24.2641 28.7673 23.0887 28.7139L21.1958 28.7062L20.4783 28.7139L18.013 28.7291L15.9979 28.7978C16.0056 28.7978 15.6697 28.8283 15.6697 28.8283C15.1965 28.8436 14.792 28.9047 14.418 28.9734L14.3493 28.981V63.847L14.4103 63.8622C14.7843 63.9538 15.227 63.992 15.685 64.0301C15.6926 64.0301 15.9827 64.053 15.9827 64.053C16.0208 64.0607 18.013 64.1217 18.013 64.1217L19.0281 64.1294L20.4783 64.1446L23.0887 64.1217C23.8596 64.1065 25.0121 64.0607 26.1188 63.908L27.3477 63.7096L28.3628 63.473C31.4693 62.6944 35.5604 60.8015 37.4457 56.2601C37.4686 56.2143 38.9264 52.8407 38.9264 46.4216ZM138.097 52.4667C138.097 54.7488 137.113 57.1837 135.472 58.985C131.732 63.0684 125.046 65.4193 117.131 65.4193C109.948 65.4193 100.888 63.4501 100.102 63.2745V53.7184H100.804C100.843 53.8253 101.064 54.5122 101.064 54.5122C101.484 55.6648 102.071 56.7639 102.812 57.7866C104.964 60.8931 109.2 64.595 117.131 64.595C117.192 64.6026 123.748 64.885 127.908 62.0075C128.213 61.7938 128.519 61.5495 128.809 61.29C129.534 60.6412 130.114 59.8856 130.534 59.0537L130.763 58.4659C130.77 58.4507 130.816 58.2751 130.816 58.2751C130.946 57.6798 130.946 57.115 130.938 56.9012C130.77 53.9856 128.442 52.7872 124.748 51.8026L122.58 51.2454C119.68 50.528 114.856 49.3373 109.979 47.5436C108.422 46.8796 107.048 46.1926 105.903 45.4828C103.354 43.7578 102.361 41.9718 102.125 41.468C101.652 40.3308 101.415 39.0943 101.415 37.7814C101.415 34.6444 103.254 32.5225 104.796 31.2861C108.078 28.7978 113.513 27.2484 118.978 27.2484C119.077 27.2408 128.969 26.9736 134.083 30.5381V37.9417H133.403C133.274 37.4303 132.663 35.3466 130.961 33.2095L130.457 32.6141L130.221 32.3546C130.213 32.347 130.106 32.2401 130.106 32.2401L130.068 32.202L129.503 31.6524L129.19 31.3853C126.549 29.1337 123.115 27.9888 118.978 27.9888C114.513 27.9888 111.711 28.981 110.154 29.8053C108.254 30.8205 107.063 32.1943 106.872 33.5759L106.842 33.9422V34.0643C106.842 34.4612 106.964 35.8504 108.559 37.0182C108.88 37.2243 109.238 37.4227 109.635 37.6059C110.261 37.873 111.07 38.1249 111.643 38.2928L112.078 38.415C114.123 38.9798 117.581 39.9033 122.397 41.0482C124.633 41.6436 126.465 42.155 127.862 42.5748C129.946 43.2388 135.006 45.1241 136.998 48.4137C137.723 49.6579 138.097 51.0241 138.097 52.4667Z" fill="black"/>
</svg>
