<svg width="187" height="47" viewBox="0 0 187 47" fill="none" xmlns="http://www.w3.org/2000/svg">
    <g clip-path="url(#clip0_225_779)">
        <path d="M185.04 36.6242C185.04 36.0798 185.476 35.6443 186.02 35.6443C186.564 35.6443 187 36.0798 187 36.6242C187 37.1686 186.564 37.6041 186.02 37.6041C185.476 37.6041 185.04 37.1686 185.04 36.6242ZM186.877 36.6242C186.877 36.1479 186.496 35.7668 186.02 35.7668C185.544 35.7668 185.149 36.1479 185.149 36.6242C185.149 37.1005 185.53 37.4952 186.02 37.4952C186.51 37.4952 186.877 37.1142 186.877 36.6242ZM186.51 37.1822H186.347L186.034 36.6786H185.789V37.1822H185.652V36.0798H186.129C186.224 36.0798 186.319 36.0798 186.401 36.1342C186.483 36.1751 186.524 36.284 186.524 36.3656C186.524 36.5834 186.374 36.665 186.183 36.665L186.51 37.1686V37.1822ZM186.006 36.5698C186.156 36.5698 186.401 36.597 186.401 36.3656C186.401 36.2023 186.251 36.1751 186.115 36.1751H185.802V36.5562H186.006V36.5698Z" fill="#1D1D1B"/>
        <path d="M51.9355 11.6226C51.9355 5.81122 51.9355 4.73604 51.8539 3.51115C51.7722 2.2046 51.4728 1.60576 50.2071 1.33356C49.9076 1.2519 49.2544 1.22468 48.71 1.22468C48.2881 1.22468 48.0703 1.14302 48.0703 0.884437C48.0703 0.625849 48.3289 0.544189 48.9005 0.544189C50.9284 0.544189 53.3373 0.653069 54.4125 0.653069C55.5966 0.653069 58.0055 0.544189 60.292 0.544189C65.0691 0.544189 71.4657 0.544189 75.6304 4.89936C77.5357 6.8864 79.3459 10.0575 79.3459 14.6168C79.3459 19.4347 77.318 23.1094 75.1676 25.287C73.4119 27.0835 69.4379 29.8055 62.3607 29.8055C60.9861 29.8055 59.421 29.6966 57.9647 29.5741C56.5085 29.4652 55.1747 29.3427 54.2084 29.3427C53.7865 29.3427 52.9427 29.3427 52.0308 29.3836C51.1461 29.3836 50.1526 29.4652 49.3905 29.4652C48.8869 29.4652 48.6283 29.3427 48.6283 29.0841C48.6283 28.8936 48.778 28.7847 49.2408 28.7847C49.8124 28.7847 50.2751 28.7031 50.6154 28.635C51.3911 28.4853 51.5817 27.6415 51.7178 26.5391C51.9083 24.9331 51.9083 21.9117 51.9083 18.3868V11.6499L51.9355 11.6226ZM56.7126 15.8281C56.7126 19.8839 56.7534 22.8236 56.7943 23.5585C56.8351 24.5112 56.9031 26.0355 57.2162 26.471C57.7061 27.206 59.2032 27.9954 62.2246 27.9954C66.1307 27.9954 68.7301 27.2332 71.0166 25.2462C73.4664 23.1502 74.2285 19.6661 74.2285 15.7192C74.2285 10.8605 72.2007 7.71661 70.5539 6.15147C67.0425 2.78982 62.6737 2.32709 59.6932 2.32709C58.931 2.32709 57.502 2.44958 57.2026 2.59928C56.8623 2.74899 56.7398 2.93953 56.7398 3.36144C56.699 4.65438 56.699 7.9888 56.699 11.0102V15.8281H56.7126Z" fill="#1D1D1B"/>
        <path d="M80.7477 28.989C80.1352 28.7168 80.0264 28.5262 80.0264 27.696C80.0264 25.5865 80.1761 23.3 80.2169 22.6876C80.2441 22.116 80.3666 21.6941 80.6796 21.6941C81.0199 21.6941 81.0607 22.0343 81.0607 22.3473C81.0607 22.8373 81.2104 23.6539 81.401 24.3072C82.2448 27.138 84.4904 28.1724 86.8722 28.1724C90.3155 28.1724 91.9895 25.8451 91.9895 23.8172C91.9895 21.939 91.4179 20.1834 88.2331 17.6927L86.4775 16.3181C82.272 13.0246 80.8157 10.357 80.8157 7.25396C80.8157 3.0485 84.3407 0.0270996 89.6486 0.0270996C92.1392 0.0270996 93.7315 0.408177 94.7387 0.680375C95.0789 0.762034 95.2695 0.870913 95.2695 1.14311C95.2695 1.63307 95.1197 2.74908 95.1197 5.72965C95.1197 6.57346 95.0109 6.88649 94.6978 6.88649C94.4393 6.88649 94.3168 6.65512 94.3168 6.19238C94.3168 5.85214 94.1262 4.66808 93.3232 3.66094C92.7516 2.93962 91.6492 1.78278 89.1586 1.78278C86.3278 1.78278 84.5993 3.42957 84.5993 5.71604C84.5993 7.47171 85.4839 8.81909 88.655 11.228L89.7302 12.031C94.3576 15.5152 96.0044 18.1555 96.0044 21.7893C96.0044 24.0077 95.1606 26.6481 92.4114 28.4446C90.4924 29.6695 88.3556 30.0097 86.3278 30.0097C84.1093 30.0097 82.3945 29.7511 80.7477 29.0162V28.989Z" fill="#1D1D1B"/>
        <path d="M100.21 4.28691C99.7472 2.87148 99.3253 1.95962 98.7945 1.56493C98.3726 1.29273 97.6104 1.22468 97.2702 1.22468C96.8891 1.22468 96.6577 1.18385 96.6577 0.884437C96.6577 0.625849 96.9571 0.544189 97.5015 0.544189C99.4886 0.544189 101.585 0.653069 101.938 0.653069C102.292 0.653069 103.966 0.544189 106.185 0.544189C106.715 0.544189 106.988 0.653069 106.988 0.884437C106.988 1.19746 106.688 1.22468 106.307 1.22468C105.994 1.22468 105.613 1.22468 105.354 1.37439C105.001 1.5241 104.933 1.7963 104.933 2.21821C104.933 2.72177 105.314 4.01471 105.776 5.74317C106.43 8.261 109.982 19.8566 110.676 21.9934H110.798L118.216 2.0685C118.597 0.993316 118.869 0.693898 119.168 0.693898C119.59 0.693898 119.781 1.26551 120.285 2.49041L128.246 21.7348H128.355C129.049 19.1761 132.112 9.0776 133.445 4.59994C133.704 3.7153 133.826 2.91231 133.826 2.38153C133.826 1.76908 133.486 1.23829 131.989 1.23829C131.608 1.23829 131.349 1.12942 131.349 0.898047C131.349 0.639459 131.649 0.557799 132.22 0.557799C134.248 0.557799 135.854 0.666679 136.194 0.666679C136.467 0.666679 138.1 0.557799 139.366 0.557799C139.787 0.557799 140.06 0.639459 140.06 0.857217C140.06 1.12942 139.869 1.23829 139.529 1.23829C139.148 1.23829 138.603 1.27912 138.195 1.42883C137.27 1.78269 136.848 3.307 136.058 5.48458C134.289 10.3025 130.274 22.4697 128.41 28.1995C127.988 29.5333 127.797 29.996 127.307 29.996C126.926 29.996 126.695 29.5469 126.123 28.1315L118.161 8.96872H118.08C117.358 10.9285 112.268 24.4704 110.621 27.9817C109.887 29.5469 109.696 30.0096 109.233 30.0096C108.852 30.0096 108.689 29.6013 108.349 28.5942L100.237 4.30052L100.21 4.28691Z" fill="#1D1D1B"/>
        <path d="M0 35.8757H2.15036C5.33508 35.8757 7.98901 37.5634 7.98901 41.0339C7.98901 44.5044 5.38952 46.3009 2.10953 46.3009H0V35.8893V35.8757ZM1.29294 45.1032H1.74207C4.396 45.1032 6.68246 44.1097 6.68246 41.0883C6.68246 38.0669 4.38239 37.0734 1.74207 37.0734H1.29294V45.1169V45.1032Z" fill="#1D1D1B"/>
        <path d="M9.22754 35.8757H14.8212V37.0597H10.5205V39.9723H14.6987V41.1563H10.5205V45.0896H14.8212V46.2736H9.22754V35.8621V35.8757Z" fill="#1D1D1B"/>
        <path d="M20.7005 37.8492C20.3194 37.1959 19.8159 36.8692 19.0265 36.8692C18.1963 36.8692 17.2844 37.4409 17.2844 38.3527C17.2844 39.1693 18.0874 39.5912 18.7407 39.8498L19.4892 40.1356C20.9727 40.7208 22.0751 41.5374 22.0751 43.2659C22.0751 45.1577 20.6052 46.505 18.7407 46.505C17.0531 46.505 15.7465 45.2665 15.5151 43.5925L16.8217 43.3203C16.8081 44.4636 17.7199 45.2938 18.836 45.2938C19.952 45.2938 20.7549 44.3547 20.7549 43.2659C20.7549 42.1771 19.8567 41.6599 18.9584 41.2925L18.2371 40.993C17.0531 40.4759 15.9643 39.809 15.9643 38.3527C15.9643 36.6651 17.4614 35.658 19.0265 35.658C20.1833 35.658 21.136 36.2296 21.7076 37.2367L20.6733 37.8628L20.7005 37.8492Z" fill="#1D1D1B"/>
        <path d="M24.6884 46.2873H23.3955V35.8757H24.6884V46.2873Z" fill="#1D1D1B"/>
        <path d="M36.0527 41.0337V41.442C36.0527 44.3001 34.0384 46.4913 31.1259 46.4913C28.2134 46.4913 25.8589 43.9735 25.8589 41.0882C25.8589 38.2029 28.2678 35.6306 31.262 35.6306C32.8816 35.6306 34.4876 36.3655 35.5083 37.6449L34.5964 38.5159C33.8479 37.4952 32.5958 36.8147 31.3165 36.8147C28.9756 36.8147 27.1518 38.7065 27.1518 41.0474C27.1518 43.2249 28.9483 45.3073 31.194 45.3073C32.8135 45.3073 34.5556 43.9054 34.6101 42.2178H31.9153V41.0337H36.0527Z" fill="#1D1D1B"/>
        <path d="M37.4136 35.3721L45.2393 43.5652V35.862H46.5322V46.7091L38.7065 38.516V46.2872H37.4136V35.3721Z" fill="#1D1D1B"/>
        <path d="M48.043 35.8757H53.6366V37.0597H49.3359V39.9723H53.5141V41.1563H49.3359V45.0896H53.6366V46.2736H48.043V35.8621V35.8757Z" fill="#1D1D1B"/>
        <path d="M61.5032 46.2873H59.9245L56.8622 41.8777H56.3178V46.2873H55.0249V35.8757H56.6037C57.5291 35.8757 58.5226 35.8893 59.3529 36.3657C60.2239 36.8829 60.7138 37.8628 60.7138 38.8563C60.7138 40.3534 59.7203 41.5919 58.2096 41.7688L61.5032 46.3009V46.2873ZM56.3315 40.8025H56.7397C58.0599 40.8025 59.5026 40.5575 59.5026 38.8971C59.5026 37.2367 57.951 37.0326 56.6717 37.0326H56.3315V40.8025Z" fill="#1D1D1B"/>
        <path d="M70.4583 37.8492C70.0772 37.1959 69.5737 36.8692 68.7843 36.8692C67.9541 36.8692 67.0422 37.4409 67.0422 38.3527C67.0422 39.1693 67.8452 39.5912 68.4985 39.8498L69.247 40.1356C70.7305 40.7208 71.8329 41.5374 71.8329 43.2659C71.8329 45.1577 70.3631 46.505 68.4985 46.505C66.8109 46.505 65.5043 45.2665 65.2729 43.5925L66.5795 43.3203C66.5659 44.4636 67.4778 45.2938 68.5938 45.2938C69.7098 45.2938 70.5128 44.3547 70.5128 43.2659C70.5128 42.1771 69.6145 41.6599 68.7163 41.2925L67.9949 40.993C66.8109 40.4759 65.7357 39.809 65.7357 38.3527C65.7357 36.6651 67.2328 35.658 68.7979 35.658C69.9548 35.658 70.9074 36.2296 71.4791 37.2367L70.4447 37.8628L70.4583 37.8492Z" fill="#1D1D1B"/>
        <path d="M79.3187 40.0675V35.8621H80.6117V46.2736H79.3187V41.2788H74.3647V46.2736H73.0718V35.8621H74.3647V40.0675H79.3187Z" fill="#1D1D1B"/>
        <path d="M92.6153 41.0746C92.6153 44.1641 90.1656 46.505 87.1578 46.505C84.15 46.505 81.7002 44.1777 81.7002 41.0746C81.7002 37.9716 84.1772 35.6443 87.1578 35.6443C90.1383 35.6443 92.6153 38.0941 92.6153 41.0746ZM91.3088 41.0746C91.3088 38.7746 89.5939 36.8556 87.1442 36.8556C84.6944 36.8556 82.9795 38.7746 82.9795 41.0746C82.9795 43.3747 84.8849 45.2937 87.1442 45.2937C89.4034 45.2937 91.3088 43.4564 91.3088 41.0746Z" fill="#1D1D1B"/>
        <path d="M93.7993 35.8757H99.393V37.0597H95.0923V39.9723H99.2705V41.1563H95.0923V45.0896H99.393V46.2736H93.7993V35.8621V35.8757Z" fill="#1D1D1B"/>
        <path d="M107.464 43.3339L110.403 35.658L113.343 43.3339L116.256 35.8757H117.671L113.343 46.7092L110.403 39.074L107.464 46.7092L103.136 35.8757H104.551L107.464 43.3339Z" fill="#1D1D1B"/>
        <path d="M117.957 43.6741L116.773 46.2872H115.371L120.339 35.4265L125.306 46.2872H123.905L122.72 43.6741H117.943H117.957ZM120.339 38.271L118.488 42.49H122.19L120.339 38.271Z" fill="#1D1D1B"/>
        <path d="M132.669 46.2873H131.09L128.028 41.8777H127.484V46.2873H126.191V35.8757H127.77C128.695 35.8757 129.689 35.8893 130.519 36.3657C131.39 36.8829 131.88 37.8628 131.88 38.8563C131.88 40.3534 130.886 41.5919 129.376 41.7688L132.669 46.3009V46.2873ZM127.484 40.8025H127.906C129.226 40.8025 130.669 40.5575 130.669 38.8971C130.669 37.2367 129.117 37.0326 127.838 37.0326H127.497V40.8025H127.484Z" fill="#1D1D1B"/>
        <path d="M133.472 35.8757H139.066V37.0597H134.765V39.9723H138.943V41.1563H134.765V45.0896H139.066V46.2736H133.472V35.8621V35.8757Z" fill="#1D1D1B"/>
        <path d="M146.483 40.0675V35.8621H147.776V46.2736H146.483V41.2788H141.529V46.2736H140.223V35.8621H141.529V40.0675H146.483Z" fill="#1D1D1B"/>
        <path d="M159.767 41.0746C159.767 44.1641 157.317 46.505 154.309 46.505C151.301 46.505 148.852 44.1777 148.852 41.0746C148.852 37.9716 151.329 35.6443 154.309 35.6443C157.29 35.6443 159.767 38.0941 159.767 41.0746ZM158.474 41.0746C158.474 38.7746 156.759 36.8556 154.309 36.8556C151.859 36.8556 150.144 38.7746 150.144 41.0746C150.144 43.3747 152.05 45.2937 154.309 45.2937C156.568 45.2937 158.474 43.4564 158.474 41.0746Z" fill="#1D1D1B"/>
        <path d="M162.067 35.8757V42.0274C162.067 43.7286 162.584 45.3074 164.585 45.3074C166.585 45.3074 167.103 43.7286 167.103 42.0274V35.8757H168.395V42.4629C168.395 44.7494 166.966 46.5051 164.585 46.5051C162.203 46.5051 160.774 44.7494 160.774 42.4629V35.8757H162.067Z" fill="#1D1D1B"/>
        <path d="M174.751 37.8492C174.37 37.1959 173.867 36.8692 173.077 36.8692C172.247 36.8692 171.335 37.4409 171.335 38.3527C171.335 39.1693 172.138 39.5912 172.791 39.8498L173.54 40.1356C175.023 40.7208 176.126 41.5374 176.126 43.2659C176.126 45.1577 174.656 46.505 172.791 46.505C171.104 46.505 169.797 45.2665 169.566 43.5925L170.872 43.3203C170.872 44.4636 171.771 45.2938 172.887 45.2938C174.003 45.2938 174.806 44.3547 174.806 43.2659C174.806 42.1771 173.907 41.6599 173.009 41.2925L172.288 40.993C171.104 40.4759 170.015 39.809 170.015 38.3527C170.015 36.6651 171.512 35.658 173.077 35.658C174.234 35.658 175.187 36.2296 175.758 37.2367L174.724 37.8628L174.751 37.8492Z" fill="#1D1D1B"/>
        <path d="M177.745 35.8757H183.339V37.0597H179.038V39.9723H183.216V41.1563H179.038V45.0896H183.339V46.2736H177.745V35.8621V35.8757Z" fill="#1D1D1B"/>
    </g>
    <defs>
        <clipPath id="clip0_225_779">
            <rect width="187" height="46.7228" fill="white"/>
        </clipPath>
    </defs>
</svg>
