<svg width="187" height="89" viewBox="0 0 187 89" fill="none" xmlns="http://www.w3.org/2000/svg">
    <g clip-path="url(#clip0_223_541)">
        <path d="M20.0546 32.0289V6.96063C20.0546 6.03401 20.1484 5.47694 21.7258 5.47694H42.9829C46.6948 5.47694 48.7411 8.63185 50.2248 14.5776L51.4327 19.3155H55.0509C55.7018 5.852 56.2588 0.00549316 56.2588 0.00549316C56.2588 0.00549316 47.1581 1.02587 41.7749 1.02587H14.5777L0 0.557051V4.45656L4.91989 5.38318C8.35609 6.03402 9.18894 6.7731 9.47024 9.93353C9.47024 9.93353 9.75153 19.2162 9.75153 34.5385C9.75153 49.8608 9.47024 59.0497 9.47024 59.0497C9.47024 61.8351 8.35609 62.8555 4.91989 63.5063L0 64.4329V68.3324L14.5777 67.8691H38.9013C44.3783 67.8691 57.0972 68.3324 57.0972 68.3324C57.373 64.99 59.2317 49.8552 59.513 48.1895H56.0768L52.4531 56.4519C49.574 62.9492 45.3987 63.4125 40.7546 63.4125H26.9215C22.2774 63.4125 20.0491 61.5538 20.0491 57.566V36.3972C20.0491 36.3972 30.1702 36.3972 33.6946 36.6785C36.2925 36.8661 37.8699 37.6052 38.7083 41.2289L39.8224 46.055H43.8102L43.5344 33.8932L44.0915 21.6376H40.0982L38.8021 27.0208C37.9637 30.5507 37.4066 31.2016 33.7884 31.5711C29.7069 32.0344 20.0491 31.9462 20.0491 31.9462V32.0399L20.0546 32.0289Z" fill="#F27224"/>
        <path d="M75.1109 9.56396C73.8092 15.3222 72.5131 19.7788 67.9627 22.7462C65.1773 24.5994 62.392 25.2503 61.2778 25.344V28.874H69.5402V57.373C69.5402 65.3595 74.8351 69.259 81.8895 69.259C87.3665 69.259 93.031 66.937 94.978 62.1108L93.0255 59.6068C92.0989 61.1842 89.126 63.5063 85.414 63.5063C81.3269 63.5063 79.0987 60.7209 79.0987 53.6665V28.51L92.8379 29.5303L93.5825 23.215L79.0987 23.7721V9.65773L75.1054 9.56396H75.1109Z" fill="#F27224"/>
        <path d="M104.448 53.4018L100.918 53.4956C101.106 55.5364 101.2 58.1397 101.2 60.55C101.2 62.9603 101.106 65.3761 100.918 66.4903C100.918 66.4903 107.973 69.0881 115.121 69.0881C124.779 69.0881 132.484 64.444 132.484 55.3488C132.484 39.7563 109.087 42.0728 109.087 31.5822C109.087 27.2194 112.987 25.5482 117.256 25.5482C120.598 25.5482 123.383 26.7561 123.94 28.5211L126.263 35.4817L129.699 35.2942C129.98 31.5822 130.162 27.3077 130.719 23.877C127.746 22.5753 121.525 21.8307 117.631 21.8307C108.53 21.8307 101.194 25.824 101.194 34.7371C101.194 50.2414 124.034 47.0865 124.034 58.5037C124.034 62.5853 121.525 65.4644 115.866 65.4644C110.67 65.4644 108.067 62.7728 107.046 60.0812L104.443 53.3963L104.448 53.4018Z" fill="#F27224"/>
        <path d="M160.404 64.1296C155.026 79.143 148.452 83.0315 142.517 83.0315C140.013 83.0315 138.81 81.9173 138.435 80.1579L137.045 72.9269L133.151 73.1145C132.412 77.378 131.668 82.1049 130.653 85.9988C132.969 87.7583 136.858 88.6849 139.919 88.6849C146.317 88.6849 156.047 87.8521 164.938 66.7219L179.857 31.505C181.065 28.6314 181.523 28.3556 185.047 26.9602L186.994 26.2211V22.9779L178.192 23.4412L168.738 22.9779V26.2211L171.148 26.9602C173.558 27.7048 174.673 28.6314 174.673 30.2971C174.673 31.1299 174.391 31.9628 173.928 33.2589C172.538 36.7834 163.917 57.726 161.606 62.1771L163.923 61.3442C159.847 51.2452 153.636 34.3731 152.71 31.505C152.522 30.9479 152.434 30.4846 152.434 30.0213C152.434 28.5376 153.454 27.3352 155.677 26.8719L158.733 26.2266V22.9834L146.036 23.4467L135.937 22.9834V26.2266L137.608 26.7837C139.925 27.5227 140.482 28.1736 141.872 31.4167C149.56 49.028 153.178 58.6637 158.087 71.2668L160.409 64.1296H160.404Z" fill="#F27224"/>
    </g>
    <defs>
        <clipPath id="clip0_223_541">
            <rect width="187" height="88.6849" fill="white"/>
        </clipPath>
    </defs>
</svg>
