<svg width="187" height="110" viewBox="0 0 187 110" fill="none" xmlns="http://www.w3.org/2000/svg">
    <path d="M37.5037 39.1467C34.2158 37.811 27.5372 37.0918 22.8622 44.0786C22.8108 44.1299 21.9375 43.2566 21.5779 43.6162C21.0641 44.1299 21.2696 46.4931 21.2696 46.4931C21.2696 46.4931 17.879 50.7571 18.5982 56.922C19.3174 62.9327 23.3246 66.9398 26.9207 66.9912C28.3078 67.0426 29.6435 65.2959 30.6196 63.9602C31.3902 62.8813 32.0067 62.1621 32.0067 62.1621C32.0067 62.1621 33.8048 67.2994 34.8323 67.0426C35.3974 66.8885 34.6268 65.2445 33.9589 63.7033C33.3938 62.419 32.9828 61.0832 32.9828 61.0832C32.9828 61.0832 35.9111 58.5659 37.1441 57.8467C38.1202 57.2816 41.3053 56.2027 42.4869 52.6066C43.7199 49.3187 43.7199 41.7154 37.5037 39.1467Z" fill="#F9E03D"/>
    <path d="M164.909 60.4155C164.909 61.3916 165.679 62.2136 166.707 62.2136C167.683 62.2136 168.505 61.443 168.505 60.4155C168.505 60.4155 168.454 54.1479 168.454 53.891C168.454 51.271 166.09 49.1133 163.213 49.1133C161.826 49.1133 160.542 49.627 159.566 50.449C158.641 49.627 157.357 49.1133 155.918 49.1133C153.042 49.1133 150.678 51.271 150.678 53.891C150.678 54.1993 150.627 60.3641 150.627 60.3641C150.627 61.3402 151.398 62.1622 152.425 62.1622C153.401 62.1622 154.223 61.3916 154.223 60.3641V54.3534C154.223 53.3773 154.994 52.5553 156.021 52.5553C157.049 52.5553 157.819 53.3259 157.819 54.3534V60.3641C157.819 61.3402 158.59 62.1622 159.617 62.1622C160.593 62.1622 161.415 61.3916 161.415 60.3641V54.3534C161.415 53.3773 162.186 52.5553 163.213 52.5553C164.241 52.5553 165.012 53.3259 165.012 54.3534L164.909 60.4155Z" fill="#F9E03D"/>
    <path d="M164.909 60.4155C164.909 61.3916 165.679 62.2136 166.707 62.2136C167.683 62.2136 168.505 61.443 168.505 60.4155C168.505 60.4155 168.454 54.1479 168.454 53.891C168.454 51.271 166.09 49.1133 163.213 49.1133C161.826 49.1133 160.542 49.627 159.566 50.449C158.641 49.627 157.357 49.1133 155.918 49.1133C153.042 49.1133 150.678 51.271 150.678 53.891C150.678 54.1993 150.627 60.3641 150.627 60.3641C150.627 61.3402 151.398 62.1622 152.425 62.1622C153.401 62.1622 154.223 61.3916 154.223 60.3641V54.3534C154.223 53.3773 154.994 52.5553 156.021 52.5553C157.049 52.5553 157.819 53.3259 157.819 54.3534V60.3641C157.819 61.3402 158.59 62.1622 159.617 62.1622C160.593 62.1622 161.415 61.3916 161.415 60.3641V54.3534C161.415 53.3773 162.186 52.5553 163.213 52.5553C164.241 52.5553 165.012 53.3259 165.012 54.3534L164.909 60.4155Z" fill="#F9E03D"/>
    <path d="M90.8294 49.5241C89.9561 49.1131 88.8772 49.4727 88.4662 50.346L85.6921 56.2026L82.8665 50.346C82.4555 49.4727 81.3767 49.0617 80.5033 49.5241C79.63 49.935 79.2704 51.0139 79.6813 51.8872L84.0481 61.0317C84.3563 61.6482 84.9728 62.0078 85.5893 62.0592H85.6407H85.6921C86.3599 62.0592 86.925 61.6996 87.2333 61.0317L91.6 51.8872C92.1138 50.9625 91.7541 49.935 90.8294 49.5241Z" fill="#F9E03D"/>
    <path d="M149.086 55.6892C149.086 59.3367 146.107 62.3164 142.459 62.3164C138.812 62.3164 135.832 59.3367 135.832 55.6892C135.832 52.0417 138.812 49.062 142.459 49.062C146.158 49.062 149.086 52.0417 149.086 55.6892ZM142.511 52.7095C140.867 52.7095 139.531 54.0453 139.531 55.6892C139.531 57.3332 140.867 58.6689 142.511 58.6689C144.155 58.6689 145.49 57.3332 145.49 55.6892C145.439 54.0453 144.155 52.7095 142.511 52.7095Z" fill="#F9E03D"/>
    <path d="M77.8306 56.1V57.6412V60.3126C77.8306 61.2887 77.06 62.1107 76.0325 62.1107C75.4674 62.1107 74.9536 61.8538 74.6454 61.4428C73.6693 62.0593 72.4877 62.4189 71.2034 62.4189C67.5558 62.4189 64.5762 59.4393 64.5762 55.7917C64.5762 52.1442 67.5558 49.1646 71.2034 49.1646C72.6932 49.1646 74.0289 49.6269 75.1591 50.4489C75.2619 49.8324 75.827 49.3187 76.4949 49.3187C77.2141 49.3187 77.8306 49.9352 77.8306 50.6544V52.2983V55.3294C77.8306 55.4835 77.8306 55.5863 77.8306 55.7404C77.8819 55.8431 77.8306 55.9459 77.8306 56.1ZM71.2547 52.7093C69.6108 52.7093 68.2751 54.045 68.2751 55.689C68.2751 57.333 69.6108 58.6687 71.2547 58.6687C72.8987 58.6687 74.2344 57.333 74.2344 55.689C74.2344 54.045 72.8987 52.7093 71.2547 52.7093Z" fill="#F9E03D"/>
    <path d="M121.704 60.8778C121.704 61.8026 120.933 62.5218 120.06 62.5218C119.135 62.5218 118.416 61.7512 118.416 60.8778C118.416 59.9531 119.187 59.2339 120.06 59.2339C120.985 59.1825 121.704 59.9531 121.704 60.8778Z" fill="#F9E03D"/>
    <path d="M115.797 50.3973C116.054 50.7056 116.208 51.0652 116.208 51.5275C116.208 52.4523 115.437 53.1715 114.564 53.1715C114.358 53.1715 114.102 53.1201 113.896 53.0174C113.896 53.0174 113.074 52.555 112.149 52.5036C111.327 52.4523 110.762 52.6578 110.711 53.0687C110.711 53.2229 110.814 53.4284 111.122 53.5311C112.201 53.8907 112.92 54.0962 113.947 54.5072C115.848 55.3292 116.67 56.408 116.722 58.1034C116.773 60.3124 114.872 62.2646 111.636 62.1619C109.786 62.1105 108.194 61.3913 107.269 60.2611L106.858 59.6446C106.755 59.3877 106.652 59.1308 106.652 58.874C106.652 57.9492 107.423 57.23 108.296 57.23C108.502 57.23 108.759 57.2814 108.964 57.3841C108.964 57.3841 109.529 57.641 109.94 57.9492C110.351 58.2575 111.327 58.8226 112.047 58.8226C112.766 58.8226 113.434 58.3089 112.92 57.9492C112.663 57.7437 111.687 57.4355 110.762 57.0759C110.146 56.819 109.427 56.4594 109.427 56.4594C108.039 55.7402 107.115 54.5072 107.115 53.0687C107.115 50.8597 109.324 48.9589 111.995 49.0616C114.718 49.113 115.797 50.3973 115.797 50.3973Z" fill="#F9E03D"/>
    <path d="M134.189 60.2615C134.497 59.9532 134.702 59.4909 134.702 58.9771C134.702 57.9497 133.881 57.179 132.904 57.179C132.391 57.179 131.928 57.3845 131.62 57.6928L131.26 58.001C130.747 58.412 130.13 58.6175 129.411 58.6175C127.767 58.6175 126.431 57.2818 126.431 55.6378C126.431 53.9939 127.767 52.6582 129.411 52.6582C130.13 52.6582 130.747 52.915 131.26 53.326L131.517 53.5315C131.826 53.8911 132.339 54.0966 132.853 54.0966C133.881 54.0966 134.651 53.2747 134.651 52.2986C134.651 51.7848 134.446 51.3225 134.086 51.0142L133.726 50.706C132.545 49.6785 131.004 49.062 129.36 49.062C125.712 49.062 122.732 52.0417 122.732 55.6892C122.732 59.3367 125.712 62.3164 129.36 62.3164C131.106 62.3164 132.699 61.6486 133.881 60.5183L134.189 60.2615Z" fill="#F9E03D"/>
    <path d="M101.771 51.0652C101.771 50.0891 102.542 49.2671 103.569 49.2671C104.545 49.2671 105.367 50.0377 105.367 51.0652C105.367 51.0652 105.367 54.8154 105.367 55.997C105.367 59.4391 102.593 62.2646 99.0996 62.2646C95.6576 62.2646 92.832 59.4904 92.832 55.997C92.832 55.1751 92.832 51.0652 92.832 51.0652C92.832 50.0891 93.6026 49.2671 94.6301 49.2671C95.6062 49.2671 96.4282 50.0377 96.4282 51.0652V55.997C96.4282 57.4869 97.6098 58.6685 99.0996 58.6685C100.589 58.6685 101.771 57.4869 101.771 55.997V51.0652Z" fill="#F9E03D"/>
    <path d="M52.9139 50.5518H52.1947V48.9592C52.1947 48.3427 52.7084 47.8803 53.2735 47.8803C54.2496 47.8803 55.0716 47.0584 55.0716 46.0823C55.0716 45.1062 54.2496 44.2842 53.2735 44.2842C50.7048 44.2842 48.5985 46.3905 48.5985 48.9592V50.5518H48.2903C47.3142 50.5518 46.4922 51.3224 46.4922 52.3498C46.4922 53.3259 47.2628 54.1479 48.2903 54.1479H48.7013V60.3128C48.7013 61.2889 49.4719 62.1108 50.4993 62.1108C51.4754 62.1108 52.2974 61.3402 52.2974 60.3128V54.1479H52.9139C53.89 54.1479 54.712 53.3773 54.712 52.3498C54.712 51.3737 53.9414 50.5518 52.9139 50.5518Z" fill="#F9E03D"/>
    <path d="M60.3637 55.7919V57.3845C60.3637 58.0009 60.8775 58.4633 61.4426 58.4633C62.4187 58.4633 63.2407 59.2853 63.2407 60.2614C63.2407 61.2375 62.4187 62.0595 61.4426 62.0595C58.8739 62.0595 56.7676 59.9531 56.7676 57.3845V55.7919V52.2471V46.0823C56.7676 45.1062 57.5382 44.2842 58.5657 44.2842C59.5418 44.2842 60.3637 45.0548 60.3637 46.0823V52.2471V55.7919Z" fill="#F9E03D"/>
    <path d="M34.1633 48.8048L39.1465 44.2326L39.7116 43.6675C39.7116 43.6675 40.3795 45.7224 39.4034 48.3939C37.9649 52.1955 34.9339 52.2983 33.6496 54.4046C32.3652 56.4595 32.2625 58.0521 32.2625 58.0521C32.2625 58.0521 32.2111 59.4906 32.468 60.6208C32.5193 60.8776 32.9817 62.4702 33.5468 63.8573C34.0605 65.193 34.7284 66.3232 34.5743 66.4774C34.3688 66.6315 34.0092 66.015 33.5468 64.8848C31.8515 61.1345 30.9268 56.4081 29.2314 54.9697C27.4333 53.4798 24.1968 52.3496 23.0666 50.1919C21.885 48.0342 21.5768 44.3867 21.9364 44.1298C22.296 43.873 25.5839 46.8013 26.3545 47.3664C27.1251 47.9315 28.1526 48.9076 28.1526 48.9076C28.1526 48.9076 28.1526 49.8837 28.7177 51.168C29.2828 52.4524 31.5946 55.3807 31.646 57.2815C31.646 57.2815 32.9817 53.0175 33.5468 51.4763C34.2147 49.5241 34.1633 48.8048 34.1633 48.8048Z" fill="white"/>
    <path d="M34.0607 48.3428L37.9137 44.9007C37.9137 44.9007 37.6568 42.9999 37.4513 43.1027C37.1945 43.2054 33.0332 46.3906 33.0332 46.3906C33.0332 46.3906 33.4956 47.0584 33.7011 47.4694C33.9066 47.8804 34.0607 48.3428 34.0607 48.3428Z" fill="white"/>
    <path d="M32.8281 46.0309L33.6501 45.363C33.6501 45.363 32.0061 41.8696 30.8759 41.8696C30.0539 41.8696 28.2559 45.4658 28.2559 45.4658L29.0265 46.0823C29.0265 46.0823 30.2594 44.1814 30.9273 44.1814C31.6465 44.2328 32.8281 46.0309 32.8281 46.0309Z" fill="white"/>
    <path d="M28.8721 46.4929C28.8721 46.4929 24.454 43.1022 24.4026 43.3591C24.2998 43.616 24.043 44.9517 24.043 44.9517C24.043 44.9517 25.2246 45.9278 25.841 46.3902C26.4575 46.8525 28.2042 48.4965 28.2042 48.4965C28.2042 48.4965 28.3584 47.7772 28.4611 47.469C28.5638 47.1094 28.8721 46.4929 28.8721 46.4929Z" fill="white"/>
    <path d="M30.8247 44.6439C30.3109 44.7467 28.1532 47.7263 28.5129 49.5244C28.6156 50.1409 28.9238 50.9115 29.3862 51.7335C30.2596 53.2747 31.4925 54.97 31.6466 56.1516C31.9549 55.1755 32.6227 53.0692 33.0337 51.7335C33.9071 49.1134 34.0612 48.9079 33.2906 47.4695C32.4686 46.031 31.3898 44.5925 30.8247 44.6439Z" fill="white"/>
    <path d="M72.0255 70.0739C72.1282 70.2281 72.2823 70.3308 72.4364 70.4336C72.5906 70.5363 72.7961 70.5877 73.0016 70.5877C73.2071 70.5877 73.3612 70.5363 73.4639 70.4849C73.618 70.4336 73.7208 70.3308 73.7722 70.2794C73.8749 70.1767 73.9263 70.0739 73.9263 69.9712C73.9777 69.8684 73.9777 69.7143 73.9777 69.5602V69.0978C73.8749 69.3033 73.7208 69.4061 73.5153 69.5088C73.3612 69.5602 73.1557 69.6116 72.9502 69.6116C72.7447 69.6116 72.5906 69.5602 72.3851 69.5088C72.2309 69.4575 72.0768 69.3547 71.9227 69.252C71.82 69.1492 71.7172 68.9951 71.6145 68.841C71.5631 68.6868 71.5117 68.4814 71.5117 68.2759C71.5117 68.0704 71.5631 67.9162 71.6145 67.7108C71.6658 67.5566 71.7686 67.4025 71.8713 67.2484C71.9741 67.1456 72.1282 67.0429 72.2823 66.9401C72.4364 66.8888 72.6419 66.8374 72.8474 66.8374C72.9502 66.8374 73.0016 66.8374 73.1043 66.8374C73.2071 66.8374 73.2584 66.8888 73.3612 66.9401C73.4639 66.9915 73.5153 67.0429 73.618 67.0943C73.7208 67.1456 73.7722 67.2484 73.8749 67.3511V66.8888H74.2345V69.5088C74.2345 69.663 74.2345 69.8171 74.1831 69.9712C74.1318 70.1253 74.0804 70.2794 73.9777 70.4336C73.8749 70.5877 73.7208 70.6904 73.5667 70.7932C73.3612 70.8959 73.1557 70.9473 72.8474 70.9473C72.5906 70.9473 72.3337 70.8959 72.1282 70.7932C71.9227 70.6904 71.7172 70.5877 71.5631 70.3822L72.0255 70.0739ZM72.0768 68.1731C72.0768 68.3272 72.0768 68.43 72.1796 68.5841C72.231 68.6868 72.2823 68.7896 72.3851 68.8923C72.4878 68.9951 72.5906 69.0465 72.6933 69.0978C72.7961 69.1492 72.9502 69.2006 73.1043 69.2006C73.2584 69.2006 73.3612 69.2006 73.5153 69.1492C73.618 69.0978 73.7208 69.0465 73.8235 68.9437C73.9263 68.841 73.9777 68.7382 74.029 68.6355C74.0804 68.5327 74.0804 68.3786 74.0804 68.2245C74.0804 68.0704 74.0804 67.9676 74.029 67.8135C73.9777 67.7108 73.9263 67.608 73.8235 67.5053C73.7208 67.4025 73.618 67.3511 73.5153 67.2998C73.4125 67.2484 73.2584 67.197 73.1043 67.197C72.9502 67.197 72.8474 67.2484 72.6933 67.2998C72.5906 67.3511 72.4878 67.4025 72.3851 67.5053C72.2823 67.608 72.231 67.7108 72.1796 67.8135C72.1282 67.9162 72.0768 68.019 72.0768 68.1731Z" fill="#1D1D1B"/>
    <path d="M78.9086 69.5599C78.9086 69.5085 78.9086 69.4058 78.9086 69.3544C78.9086 69.303 78.9086 69.2003 78.9086 69.1489C78.8573 69.2003 78.8059 69.303 78.7545 69.3544C78.7031 69.4058 78.6004 69.4571 78.549 69.5085C78.4463 69.5599 78.3949 69.6113 78.2922 69.6113C78.1894 69.6113 78.138 69.6626 78.0353 69.6626C77.6757 69.6626 77.4188 69.5599 77.2647 69.4058C77.1106 69.2003 77.0078 68.9434 77.0078 68.6352V66.9398H77.3674V68.4297C77.3674 68.5838 77.3674 68.6865 77.4188 68.8406C77.4188 68.9434 77.4702 69.0461 77.5215 69.1489C77.5729 69.2516 77.6757 69.303 77.727 69.303C77.8298 69.3544 77.9325 69.3544 78.0867 69.3544C78.0867 69.3544 78.138 69.3544 78.2408 69.3544C78.3435 69.3544 78.3949 69.303 78.4977 69.2516C78.6004 69.2003 78.7031 69.0975 78.7545 68.9434C78.8059 68.7893 78.8573 68.6352 78.8573 68.3783V66.9912H79.2169V69.0461C79.2169 69.0975 79.2169 69.2003 79.2169 69.303C79.2169 69.4058 79.2169 69.5085 79.2169 69.6113H78.9086V69.5599ZM77.3161 65.861C77.3161 65.8096 77.3674 65.7069 77.4188 65.6555C77.4702 65.6041 77.5216 65.5527 77.6243 65.5527C77.727 65.5527 77.7784 65.6041 77.8298 65.6555C77.8812 65.7069 77.9325 65.7582 77.9325 65.861C77.9325 65.9123 77.8812 66.0151 77.8298 66.0665C77.7784 66.1178 77.727 66.1692 77.6243 66.1692C77.5216 66.1692 77.4702 66.1178 77.4188 66.0665C77.3674 66.0151 77.3161 65.9637 77.3161 65.861ZM78.4463 65.861C78.4463 65.8096 78.4976 65.7069 78.549 65.6555C78.6004 65.6041 78.6518 65.5527 78.7545 65.5527C78.8573 65.5527 78.9086 65.6041 78.96 65.6555C79.0114 65.7069 79.0628 65.7582 79.0628 65.861C79.0628 65.9123 79.0114 66.0151 78.96 66.0665C78.9086 66.1178 78.8573 66.1692 78.7545 66.1692C78.6518 66.1692 78.6004 66.1178 78.549 66.0665C78.4463 66.0151 78.4463 65.9637 78.4463 65.861Z" fill="#1D1D1B"/>
    <path d="M83.6864 67.1455L82.1452 69.2005H83.7378V69.5601H81.5801V69.2519L83.1727 67.2483H81.6828V66.8887H83.6864V67.1455Z" fill="#1D1D1B"/>
    <path d="M86.2567 68.327C86.2567 68.4811 86.3081 68.5838 86.3594 68.6866C86.4108 68.7893 86.4622 68.8921 86.5649 68.9948C86.6677 69.0976 86.7704 69.1489 86.8732 69.2003C86.9759 69.2517 87.13 69.2517 87.2328 69.2517C87.4383 69.2517 87.5924 69.2003 87.7465 69.0976C87.9006 68.9948 88.0034 68.8921 88.0548 68.7893L88.363 69.0462C88.2089 69.2517 88.0034 69.4058 87.8493 69.4572C87.6438 69.5599 87.4383 69.6113 87.2328 69.6113C87.0273 69.6113 86.8732 69.5599 86.6677 69.5086C86.5136 69.4572 86.3594 69.3544 86.2567 69.2003C86.1539 69.0976 86.0512 68.9434 85.9484 68.738C85.8971 68.5838 85.8457 68.3783 85.8457 68.1728C85.8457 67.9673 85.8971 67.7619 85.9484 67.6077C85.9998 67.4536 86.1026 67.2995 86.2567 67.1454C86.3594 67.0426 86.5136 66.9399 86.6677 66.8371C86.8218 66.7858 87.0273 66.7344 87.1814 66.7344C87.3869 66.7344 87.541 66.7858 87.6951 66.8371C87.8493 66.8885 88.0034 66.9912 88.1061 67.1454C88.2089 67.2481 88.3116 67.4022 88.363 67.5564C88.4144 67.7105 88.4658 67.8646 88.4658 68.0701V68.327H86.2567ZM88.0548 68.0187C88.0548 67.7618 88.0034 67.5564 87.8493 67.4022C87.6952 67.2481 87.4897 67.1454 87.2328 67.1454C87.13 67.1454 86.9759 67.1454 86.8732 67.1967C86.7704 67.2481 86.6677 67.2995 86.5649 67.4022C86.4622 67.505 86.4108 67.5564 86.3594 67.6591C86.3081 67.7618 86.2567 67.8646 86.2567 67.9673L88.0548 68.0187Z" fill="#1D1D1B"/>
    <path d="M91.2913 65.2446H90.9316V69.56H91.2913V65.2446Z" fill="#1D1D1B"/>
    <path d="M94.3733 65.2446H94.0137V69.56H94.3733V65.2446Z" fill="#1D1D1B"/>
    <path d="M97.5579 65.8609C97.5579 65.9636 97.5065 66.015 97.4551 66.0664C97.4038 66.1177 97.3524 66.1177 97.2497 66.1177C97.1983 66.1177 97.0955 66.1177 97.0442 66.0664C96.9928 66.015 96.9414 65.9636 96.9414 65.8609C96.9414 65.7581 96.9928 65.7068 97.0442 65.6554C97.0955 65.604 97.1469 65.604 97.2497 65.604C97.301 65.604 97.4038 65.604 97.4551 65.6554C97.5579 65.7068 97.5579 65.7581 97.5579 65.8609ZM97.4551 69.5598H97.0955V66.8883H97.4551V69.5598Z" fill="#1D1D1B"/>
    <path d="M100.281 70.0737C100.384 70.2278 100.538 70.3306 100.692 70.4333C100.846 70.5361 101.052 70.5875 101.257 70.5875C101.463 70.5875 101.617 70.5361 101.72 70.4847C101.874 70.4333 101.977 70.3306 102.028 70.2792C102.131 70.1765 102.182 70.0737 102.182 69.971C102.234 69.8682 102.234 69.7141 102.234 69.56V69.0976C102.131 69.3031 101.977 69.4059 101.771 69.5086C101.617 69.56 101.412 69.6114 101.206 69.6114C101.001 69.6114 100.846 69.56 100.641 69.5086C100.487 69.4572 100.333 69.3545 100.179 69.2517C100.076 69.149 99.9731 68.9949 99.8703 68.8408C99.819 68.6866 99.7676 68.4811 99.7676 68.2756C99.7676 68.0701 99.819 67.916 99.8703 67.7105C99.9217 67.5564 100.024 67.4023 100.127 67.2482C100.23 67.1454 100.384 67.0427 100.538 66.9399C100.692 66.8886 100.898 66.8372 101.103 66.8372C101.206 66.8372 101.257 66.8372 101.36 66.8372C101.463 66.8372 101.514 66.8886 101.617 66.9399C101.72 66.9913 101.771 67.0427 101.874 67.0941C101.977 67.1454 102.028 67.2482 102.131 67.3509V66.8886H102.49V69.5086C102.49 69.6627 102.49 69.8168 102.439 69.971C102.388 70.1251 102.336 70.2792 102.234 70.4333C102.131 70.5875 101.977 70.6902 101.823 70.7929C101.617 70.8957 101.412 70.9471 101.103 70.9471C100.846 70.9471 100.59 70.8957 100.384 70.7929C100.179 70.6902 99.9731 70.5875 99.819 70.382L100.281 70.0737ZM100.384 68.1729C100.384 68.327 100.384 68.4298 100.487 68.5839C100.538 68.6866 100.59 68.7894 100.692 68.8921C100.795 68.9949 100.898 69.0462 101.001 69.0976C101.103 69.149 101.257 69.2004 101.412 69.2004C101.566 69.2004 101.668 69.2004 101.823 69.149C101.925 69.0976 102.028 69.0462 102.131 68.9435C102.234 68.8407 102.285 68.738 102.336 68.6353C102.388 68.5325 102.388 68.3784 102.388 68.2243C102.388 68.0701 102.388 67.9674 102.336 67.8133C102.285 67.7105 102.234 67.6078 102.131 67.505C102.028 67.4023 101.925 67.3509 101.823 67.2995C101.72 67.2482 101.566 67.1968 101.412 67.1968C101.257 67.1968 101.155 67.2482 101.001 67.2995C100.898 67.3509 100.795 67.4023 100.692 67.505C100.59 67.6078 100.538 67.7105 100.487 67.8133C100.384 67.916 100.384 68.0188 100.384 68.1729ZM102.234 65.5015C102.234 65.7583 102.131 65.9125 101.977 66.0666C101.823 66.2207 101.617 66.2721 101.412 66.2721C101.155 66.2721 101.001 66.2207 100.846 66.0666C100.692 65.9125 100.59 65.7583 100.59 65.5015H100.846C100.898 65.6556 100.949 65.7583 101.052 65.8097C101.155 65.8611 101.309 65.9125 101.412 65.9125C101.566 65.9125 101.668 65.8611 101.771 65.8097C101.874 65.7583 101.925 65.6042 101.977 65.5015H102.234Z" fill="#1D1D1B"/>
    <path d="M105.52 68.327C105.52 68.4811 105.572 68.5838 105.623 68.6866C105.674 68.7893 105.726 68.8921 105.829 68.9948C105.931 69.0976 106.034 69.1489 106.137 69.2003C106.24 69.2517 106.394 69.2517 106.496 69.2517C106.702 69.2517 106.856 69.2003 107.01 69.0976C107.164 68.9948 107.267 68.8921 107.318 68.7893L107.627 69.0462C107.473 69.2517 107.267 69.4058 107.113 69.4572C106.907 69.5599 106.702 69.6113 106.496 69.6113C106.291 69.6113 106.137 69.5599 105.931 69.5086C105.777 69.4572 105.623 69.3544 105.52 69.2003C105.418 69.0976 105.315 68.9434 105.212 68.738C105.161 68.5838 105.109 68.3783 105.109 68.1728C105.109 67.9673 105.161 67.7619 105.212 67.6077C105.263 67.4536 105.366 67.2995 105.52 67.1454C105.623 67.0426 105.777 66.9399 105.931 66.8371C106.085 66.7858 106.291 66.7344 106.445 66.7344C106.651 66.7344 106.805 66.7858 106.959 66.8371C107.113 66.8885 107.267 66.9912 107.37 67.1454C107.473 67.2481 107.575 67.4022 107.627 67.5564C107.678 67.7105 107.729 67.8646 107.729 68.0701V68.327H105.52ZM107.318 68.0187C107.318 67.7618 107.267 67.5564 107.113 67.4022C106.959 67.2481 106.753 67.1454 106.496 67.1454C106.394 67.1454 106.24 67.1454 106.137 67.1967C106.034 67.2481 105.931 67.2995 105.829 67.4022C105.726 67.505 105.674 67.5564 105.623 67.6591C105.572 67.7618 105.572 67.8646 105.572 67.9673L107.318 68.0187Z" fill="#1D1D1B"/>
    <path d="M116.104 69.56H115.745V69.0977C115.693 69.2004 115.591 69.2518 115.539 69.3545C115.436 69.4059 115.385 69.4573 115.282 69.5086C115.18 69.56 115.077 69.56 115.025 69.6114C114.923 69.6114 114.82 69.6628 114.769 69.6628C114.563 69.6628 114.358 69.6114 114.203 69.56C114.049 69.5086 113.895 69.4059 113.741 69.2518C113.638 69.149 113.536 68.9949 113.433 68.7894C113.381 68.6353 113.33 68.4298 113.33 68.2243C113.33 68.0188 113.381 67.8133 113.433 67.6592C113.484 67.5051 113.587 67.3509 113.741 67.1968C113.844 67.0941 113.998 66.9913 114.203 66.8886C114.358 66.8372 114.563 66.7858 114.769 66.7858C114.871 66.7858 114.923 66.7858 115.025 66.8372C115.128 66.8372 115.231 66.8886 115.282 66.94C115.385 66.9913 115.436 67.0427 115.539 67.0941C115.642 67.1455 115.693 67.2482 115.745 67.351V65.2446H116.104V69.56ZM113.638 68.2243C113.638 68.3784 113.638 68.5325 113.69 68.6353C113.741 68.7894 113.792 68.8922 113.895 68.9949C113.998 69.0977 114.101 69.149 114.203 69.2004C114.306 69.2518 114.46 69.3031 114.614 69.3031C114.769 69.3031 114.923 69.2518 115.025 69.2004C115.18 69.149 115.282 69.0463 115.385 68.9949C115.488 68.8922 115.539 68.7894 115.591 68.6353C115.642 68.4812 115.693 68.3784 115.693 68.2243C115.693 68.0702 115.642 67.9161 115.591 67.8133C115.539 67.7106 115.488 67.5564 115.385 67.4537C115.282 67.3509 115.18 67.2996 115.025 67.2482C114.871 67.1968 114.769 67.1455 114.614 67.1455C114.46 67.1455 114.306 67.1968 114.203 67.2482C114.101 67.2996 113.998 67.4023 113.895 67.4537C113.792 67.5564 113.741 67.6592 113.69 67.8133C113.69 67.9161 113.638 68.0702 113.638 68.2243Z" fill="#1D1D1B"/>
    <path d="M120.316 67.9162C120.316 67.4025 120.111 67.197 119.648 67.197C119.34 67.197 119.083 67.2998 118.826 67.5053L118.621 67.2484C118.878 66.9915 119.237 66.8374 119.751 66.8374C119.905 66.8374 120.008 66.8374 120.111 66.8888C120.213 66.9401 120.316 66.9915 120.419 67.0429C120.522 67.1456 120.573 67.197 120.624 67.3511C120.676 67.4539 120.727 67.608 120.727 67.7621V68.9437C120.727 69.0465 120.727 69.1492 120.727 69.252C120.727 69.3547 120.727 69.4575 120.779 69.5088H120.419C120.419 69.4575 120.419 69.3547 120.419 69.3033C120.419 69.2006 120.419 69.1492 120.419 69.0978C120.316 69.252 120.162 69.4061 120.008 69.4575C119.854 69.5602 119.7 69.5602 119.443 69.5602C119.34 69.5602 119.237 69.5602 119.083 69.5088C118.981 69.4575 118.878 69.4061 118.775 69.3547C118.672 69.3033 118.621 69.2006 118.57 69.0978C118.518 68.9951 118.467 68.8923 118.467 68.7382C118.467 68.5327 118.518 68.3272 118.621 68.2245C118.724 68.1217 118.878 68.019 119.032 67.9676C119.186 67.9162 119.392 67.8649 119.597 67.8649C119.803 67.8649 119.957 67.8649 120.111 67.8649H120.316V67.9162ZM120.111 68.2245C120.008 68.2245 119.905 68.2245 119.751 68.2245C119.597 68.2245 119.494 68.2759 119.34 68.2759C119.186 68.3272 119.083 68.3786 118.981 68.43C118.878 68.4814 118.826 68.6355 118.826 68.7382C118.826 68.841 118.826 68.8923 118.878 68.9437C118.929 68.9951 118.981 69.0465 119.032 69.0978C119.083 69.1492 119.135 69.1492 119.237 69.2006C119.289 69.2006 119.392 69.2006 119.443 69.2006C119.597 69.2006 119.7 69.2006 119.803 69.1492C119.905 69.0978 120.008 69.0465 120.059 68.9437C120.111 68.841 120.162 68.7896 120.213 68.6868C120.265 68.5841 120.265 68.4814 120.265 68.3786V68.1731H120.111V68.2245Z" fill="#1D1D1B"/>
    <path d="M123.81 65.8609C123.81 65.9636 123.758 66.015 123.707 66.0664C123.656 66.1177 123.604 66.1177 123.502 66.1177C123.45 66.1177 123.347 66.1177 123.296 66.0664C123.245 66.015 123.193 65.9636 123.193 65.8609C123.193 65.7581 123.245 65.7068 123.296 65.6554C123.347 65.604 123.399 65.604 123.502 65.604C123.553 65.604 123.656 65.604 123.707 65.6554C123.81 65.7068 123.81 65.7581 123.81 65.8609ZM123.707 69.5598H123.347V66.8883H123.707V69.5598Z" fill="#1D1D1B"/>
    <path d="M126.379 67.7107C126.379 67.6079 126.379 67.4538 126.379 67.351C126.379 67.2483 126.379 67.0942 126.379 66.8887H126.739V67.4024C126.79 67.351 126.79 67.2483 126.841 67.1969C126.893 67.1455 126.944 67.0942 127.047 67.0428C127.098 66.9914 127.201 66.94 127.304 66.94C127.406 66.8887 127.509 66.8887 127.612 66.8887C127.715 66.8887 127.817 66.8887 127.869 66.94L127.817 67.2997C127.766 67.2997 127.715 67.2483 127.612 67.2483C127.458 67.2483 127.355 67.2997 127.252 67.351C127.15 67.4024 127.047 67.4538 126.995 67.5565C126.944 67.6593 126.893 67.7107 126.841 67.8134C126.79 67.9161 126.79 68.0189 126.79 68.1216V69.6115H126.379V67.7107Z" fill="#1D1D1B"/>
    <path d="M133.211 65.2446H133.571V67.351C133.622 67.2482 133.725 67.1968 133.776 67.0941C133.879 67.0427 133.93 66.9913 134.033 66.94C134.136 66.8886 134.238 66.8886 134.29 66.8372C134.393 66.8372 134.495 66.7858 134.547 66.7858C134.752 66.7858 134.958 66.8372 135.112 66.8886C135.266 66.94 135.42 67.0427 135.574 67.1968C135.677 67.2996 135.78 67.4537 135.882 67.6592C135.934 67.8133 135.985 68.0188 135.985 68.2243C135.985 68.4298 135.934 68.6353 135.882 68.7894C135.831 68.9435 135.728 69.0977 135.574 69.2518C135.471 69.3545 135.317 69.4573 135.112 69.56C134.958 69.6114 134.752 69.6628 134.547 69.6628C134.444 69.6628 134.393 69.6628 134.29 69.6114C134.187 69.6114 134.084 69.56 134.033 69.5086C133.93 69.4573 133.879 69.4059 133.776 69.3545C133.673 69.3031 133.622 69.2004 133.571 69.0977V69.56H133.211V65.2446ZM135.677 68.2243C135.677 68.0702 135.677 67.9161 135.626 67.8133C135.574 67.7106 135.523 67.5564 135.42 67.4537C135.317 67.3509 135.215 67.2996 135.112 67.2482C135.009 67.1968 134.855 67.1455 134.701 67.1455C134.547 67.1455 134.393 67.1968 134.29 67.2482C134.136 67.2996 134.033 67.4023 133.93 67.4537C133.827 67.5564 133.776 67.6592 133.725 67.8133C133.673 67.9674 133.622 68.0702 133.622 68.2243C133.622 68.3784 133.673 68.5325 133.725 68.6353C133.776 68.7894 133.827 68.8922 133.93 68.9949C134.033 69.0977 134.136 69.149 134.29 69.2004C134.444 69.2518 134.547 69.3031 134.701 69.3031C134.855 69.3031 135.009 69.2518 135.112 69.2004C135.215 69.149 135.317 69.0463 135.42 68.9949C135.523 68.8922 135.574 68.7894 135.626 68.6353C135.626 68.4812 135.677 68.3784 135.677 68.2243Z" fill="#1D1D1B"/>
    <path d="M138.966 65.8609C138.966 65.9636 138.915 66.015 138.863 66.0664C138.812 66.1177 138.761 66.1177 138.658 66.1177C138.606 66.1177 138.504 66.1177 138.452 66.0664C138.401 66.015 138.35 65.9636 138.35 65.8609C138.35 65.7581 138.401 65.7068 138.452 65.6554C138.504 65.604 138.555 65.604 138.658 65.604C138.709 65.604 138.812 65.604 138.863 65.6554C138.915 65.7068 138.966 65.7581 138.966 65.8609ZM138.863 69.5598H138.504V66.8883H138.863V69.5598Z" fill="#1D1D1B"/>
    <path d="M141.533 67.7107C141.533 67.6079 141.533 67.4538 141.533 67.351C141.533 67.2483 141.533 67.0942 141.533 66.8887H141.893V67.4024C141.944 67.351 141.944 67.2483 141.996 67.1969C142.047 67.1455 142.098 67.0942 142.15 67.0428C142.201 66.9914 142.304 66.94 142.407 66.94C142.509 66.8887 142.612 66.8887 142.715 66.8887C142.818 66.8887 142.92 66.8887 142.972 66.94L142.92 67.2997C142.869 67.2997 142.818 67.2483 142.715 67.2483C142.561 67.2483 142.458 67.2997 142.355 67.351C142.252 67.4024 142.15 67.4538 142.098 67.5565C142.047 67.6593 141.996 67.7107 141.944 67.8134C141.893 67.9161 141.893 68.0189 141.893 68.1216V69.6115H141.533V67.7107Z" fill="#1D1D1B"/>
    <path d="M148.624 68.327C148.624 68.4811 148.675 68.5838 148.727 68.6866C148.778 68.7893 148.829 68.8921 148.932 68.9948C149.035 69.0976 149.138 69.1489 149.24 69.2003C149.343 69.2517 149.497 69.2517 149.6 69.2517C149.805 69.2517 149.96 69.2003 150.114 69.0976C150.268 68.9948 150.371 68.8921 150.422 68.7893L150.73 69.0462C150.576 69.2517 150.371 69.4058 150.216 69.4572C150.011 69.5599 149.805 69.6113 149.6 69.6113C149.394 69.6113 149.24 69.5599 149.035 69.5086C148.881 69.4572 148.727 69.3544 148.624 69.2003C148.521 69.0976 148.418 68.9434 148.316 68.738C148.264 68.5838 148.213 68.3783 148.213 68.1728C148.213 67.9673 148.264 67.7619 148.316 67.6077C148.367 67.4536 148.47 67.2995 148.624 67.1454C148.727 67.0426 148.881 66.9399 149.035 66.8371C149.189 66.7858 149.394 66.7344 149.549 66.7344C149.754 66.7344 149.908 66.7858 150.062 66.8371C150.216 66.8885 150.371 66.9912 150.473 67.1454C150.576 67.2481 150.679 67.4022 150.73 67.5564C150.782 67.7105 150.833 67.8646 150.833 68.0701V68.327H148.624ZM150.422 68.0187C150.422 67.7618 150.371 67.5564 150.216 67.4022C150.062 67.2481 149.857 67.1454 149.6 67.1454C149.497 67.1454 149.343 67.1454 149.24 67.1967C149.138 67.2481 149.035 67.2995 148.932 67.4022C148.829 67.505 148.778 67.5564 148.727 67.6591C148.675 67.7618 148.675 67.8646 148.675 67.9673L150.422 68.0187Z" fill="#1D1D1B"/>
    <path d="M154.428 69.5601H153.966L152.887 66.8887H153.349L154.222 69.1491L155.044 66.8887H155.507L154.428 69.5601Z" fill="#1D1D1B"/>
    <path d="M157.717 67.7107C157.717 67.6079 157.717 67.4538 157.717 67.351C157.717 67.2483 157.717 67.0942 157.717 66.8887H158.076V67.4024C158.128 67.351 158.128 67.2483 158.179 67.1969C158.231 67.1455 158.282 67.0942 158.333 67.0428C158.385 66.9914 158.487 66.94 158.59 66.94C158.693 66.8887 158.796 66.8887 158.898 66.8887C159.001 66.8887 159.104 66.8887 159.155 66.94L159.104 67.2997C159.053 67.2997 159.001 67.2483 158.898 67.2483C158.744 67.2483 158.642 67.2997 158.539 67.351C158.436 67.4024 158.333 67.4538 158.282 67.5565C158.231 67.6593 158.179 67.7107 158.128 67.8134C158.076 67.9161 158.076 68.0189 158.076 68.1216V69.6115H157.717V67.7107Z" fill="#1D1D1B"/>
    <path d="M161.468 68.327C161.468 68.4811 161.519 68.5838 161.57 68.6866C161.622 68.7893 161.673 68.8921 161.776 68.9948C161.879 69.0976 161.981 69.1489 162.084 69.2003C162.187 69.2517 162.341 69.2517 162.444 69.2517C162.649 69.2517 162.803 69.2003 162.957 69.0976C163.112 68.9948 163.214 68.8921 163.266 68.7893L163.574 69.0462C163.42 69.2517 163.214 69.4058 163.06 69.4572C162.855 69.5599 162.649 69.6113 162.444 69.6113C162.238 69.6113 162.084 69.5599 161.879 69.5086C161.725 69.4572 161.57 69.3544 161.468 69.2003C161.365 69.0976 161.262 68.9434 161.159 68.738C161.108 68.5838 161.057 68.3783 161.057 68.1728C161.057 67.9673 161.108 67.7619 161.159 67.6077C161.211 67.4536 161.314 67.2995 161.468 67.1454C161.57 67.0426 161.725 66.9399 161.879 66.8371C162.033 66.7858 162.238 66.7344 162.392 66.7344C162.598 66.7344 162.752 66.7858 162.906 66.8371C163.06 66.8885 163.214 66.9912 163.317 67.1454C163.42 67.2481 163.523 67.4022 163.574 67.5564C163.625 67.7105 163.677 67.8646 163.677 68.0701V68.327H161.468ZM163.266 68.0187C163.266 67.7618 163.214 67.5564 163.06 67.4022C162.906 67.2481 162.701 67.1454 162.444 67.1454C162.341 67.1454 162.187 67.1454 162.084 67.1967C161.981 67.2481 161.879 67.2995 161.776 67.4022C161.673 67.505 161.622 67.5564 161.57 67.6591C161.519 67.7618 161.519 67.8646 161.519 67.9673L163.266 68.0187Z" fill="#1D1D1B"/>
    <path d="M166.398 66.8884C166.398 66.9398 166.398 67.0425 166.398 67.0939C166.398 67.1453 166.398 67.248 166.398 67.2994C166.449 67.248 166.501 67.1453 166.552 67.0939C166.604 67.0425 166.706 66.9911 166.758 66.9398C166.86 66.8884 166.912 66.837 167.015 66.837C167.117 66.837 167.169 66.7856 167.271 66.7856C167.631 66.7856 167.888 66.8884 168.042 67.0425C168.196 67.248 168.299 67.5049 168.299 67.8131V69.5084H167.939V68.0186C167.939 67.7104 167.888 67.5049 167.785 67.3508C167.682 67.1966 167.477 67.0939 167.22 67.0939C167.22 67.0939 167.169 67.0939 167.066 67.0939C166.963 67.0939 166.912 67.1453 166.809 67.1966C166.706 67.248 166.604 67.3508 166.552 67.5049C166.501 67.659 166.449 67.8131 166.449 68.07V69.4571H166.09V67.4021C166.09 67.3508 166.09 67.248 166.09 67.1453C166.09 67.0425 166.09 66.9398 166.09 66.837L166.398 66.8884Z" fill="#1D1D1B"/>
</svg>
