<svg width="124" height="95" viewBox="0 0 124 133" fill="none" xmlns="http://www.w3.org/2000/svg">
    <g clip-path="url(#clip0_225_811)">
        <path fill-rule="evenodd" clip-rule="evenodd" d="M0 0H124V133H0V0Z" fill="white"/>
        <path fill-rule="evenodd" clip-rule="evenodd" d="M82.1736 16.8078C75.9273 13.9789 69.4301 12.5645 62.6048 12.5645C55.7796 12.5645 49.2824 13.9789 43.0618 16.8078C37.0471 19.5332 31.6885 23.3695 27.0697 28.4063C22.3737 33.3328 18.797 39.0527 16.2818 45.504C13.6443 52.2036 12.2998 59.1931 12.2998 66.5207C12.2998 73.0824 13.3677 79.3956 15.5227 85.4398H18.2373C15.9537 79.3956 14.8086 73.0824 14.8086 66.5207C14.8086 59.5519 16.0759 52.9074 18.6169 46.6217C21.0035 40.4671 24.4065 35.0232 28.8451 30.3176C33.2581 25.5567 38.3143 21.9067 44.046 19.3469C49.9321 16.6008 56.1527 15.2623 62.5984 15.2623C69.0441 15.2623 75.2647 16.5939 81.1765 19.3469C86.8889 21.9067 91.9387 25.5567 96.3774 30.3176C100.771 35.0301 104.193 40.474 106.606 46.6217C109.095 52.9074 110.362 59.5519 110.362 66.5207C110.362 73.0824 109.217 79.3956 106.959 85.4398H109.7C111.829 79.3956 112.897 73.0824 112.897 66.5207C112.897 59.2 111.578 52.2036 108.915 45.504C106.374 39.0527 102.797 33.3328 98.1529 28.4063C93.4826 23.3695 88.1755 19.5332 82.1608 16.8078H82.1736Z" fill="#1D1D1B"/>
        <path fill-rule="evenodd" clip-rule="evenodd" d="M91.6169 110.5H87.0496C79.5618 115.316 71.392 117.738 62.6111 117.738C53.8303 117.738 45.6798 115.316 38.1984 110.5H33.5796C42.309 117.089 52.0291 120.435 62.6111 120.435C73.1932 120.435 82.8875 117.089 91.6169 110.5Z" fill="#1D1D1B"/>
        <path fill-rule="evenodd" clip-rule="evenodd" d="M34.8149 56.6333L31.1611 59.5174L29.9903 61.6977L29.9131 65.1269L31.8687 69.4806L35.143 73.0202L47.0695 80.7756L47.2497 81.1275L46.259 84.26H73.8239L73.901 82.9559L75.1426 82.5488L88.999 73.6757L93.5663 68.6665L93.2125 65.9687L89.8867 60.9318L86.1557 57.4198L85.0878 56.033L80.2181 52.4106L74.3578 49.4989C73.4958 49.0642 72.4022 48.6295 70.9805 48.2224L69.5589 47.567C70.0928 47.1323 70.3951 46.5596 70.4209 45.8489C70.4466 45.4142 70.3694 44.952 70.0928 44.4345L70.8004 43.2891L70.5495 41.7919L71.3858 40.6189L71.6174 40.1014L71.1349 38.6042L70.0928 37.7348C70.0671 36.8654 69.8869 35.8029 69.4817 34.5195L70.1636 32.6704V31.8286C69.8869 30.2485 69.5524 29.2964 69.1729 28.9997L68.2852 28.1855L66.3296 28.2407C65.4933 27.806 64.4769 27.4817 63.3061 27.3713L61.6078 27.5645L60.3148 27.9164L58.3335 28.1372C58.0569 28.1372 57.7996 28.2476 57.6259 28.4891L56.558 29.3861L54.7826 30.421L54.5317 30.8833C54.2036 31.6216 53.7469 32.1115 53.1872 32.4082L52.8334 32.8981L51.7913 35.9202L53.5667 43.158L55.4966 46.0421L55.7025 46.2629L54.3323 47.4911L49.1795 48.2294L48.6713 48.3673L41.6402 52.2864L34.8149 56.6402V56.6333ZM43.9818 65.2028L45.5064 63.4571L46.2654 63.1881L46.645 66.0722L47.7128 70.7571L47.6614 72.1716L45.9374 70.8951L44.3098 69.0184L42.6888 65.6996L43.9818 65.2097V65.2028ZM75.9853 72.8546L75.149 73.4825L77.0017 65.2097L79.6906 66.6241L80.7842 67.8523L75.9853 72.8615V72.8546Z" fill="white"/>
        <path fill-rule="evenodd" clip-rule="evenodd" d="M38.2434 58.2341L38.8802 59.2691C38.1919 60.0557 37.2334 60.5248 36.0369 60.7387L35.7088 61.201L35.6573 61.96L36.4936 65.1201L37.9153 67.9766C38.3206 68.6597 40.4756 70.5916 44.3867 73.8L46.085 75.7595L47.3266 75.8975C48.2915 75.0558 49.1278 74.5383 49.9126 74.4279L50.067 70.3432L49.205 64.2438L49.4816 53.7631L50.3436 52.4866C50.0927 54.2805 50.0927 55.6191 50.2921 56.4609V75.8423L51.0512 77.1188L51.5079 67.8386C51.7588 62.9122 51.7845 59.7245 51.6881 58.3376L51.5079 56.0262L51.7845 54.3081L53.0776 52.4866L52.5694 57.689L51.7588 78.5401L51.2249 82.7352H52.8974L53.6308 70.1569C53.8559 63.2985 54.0618 58.862 54.2676 56.9025C54.3706 55.7571 54.6986 54.0736 55.2068 51.8656L55.5092 51.4033L55.6636 51.8656L55.6893 53.1973L54.853 75.2214L54.3963 78.6505L54.525 82.7352H56.2232L58.4297 53.0938L59.8256 52.4935L57.973 82.7352H60.4625L62.238 53.0938L62.9713 52.0588L63.7304 52.9006L62.4374 82.7352H64.5409L64.9977 68.2526L66.4965 68.9357L66.1684 82.7352H68.3235V73.2894L68.9089 69.122C69.2112 69.122 69.5457 68.8736 69.8738 68.363L69.089 82.7352H70.4849L71.9323 58.8344C72.0095 56.4126 71.6814 54.046 70.9674 51.7552L72.1124 52.8178L72.923 59.5934L71.2954 82.7352H72.5627L72.6399 81.783L74.4926 81.238C75.6376 80.1754 80.1535 77.2913 88.0981 72.5787L92.183 68.1422L91.8549 66.5069L88.8379 61.8772L85.1068 58.4204L84.1162 57.0888L79.5745 53.6872L73.785 50.8859C72.7943 50.3684 71.4241 49.8509 69.6229 49.3058L69.1662 48.9815L67.2106 48.2225C65.7632 47.7879 65.9176 47.3808 67.6416 46.8909C68.5808 46.5666 69.0375 46.1802 69.089 45.7455C69.089 45.3936 68.9346 44.9866 68.658 44.6278L68.7352 44.0275L69.3463 42.9097C69.1662 42.2542 69.0954 41.6057 69.0954 40.9778L69.9059 40.5155L70.1568 39.9428L69.9767 39.4253L68.7609 38.3352C68.7866 37.6245 68.7352 36.8103 68.4585 35.941L68.1047 34.6093C68.0533 34.285 68.3363 33.4915 68.9153 32.1875L68.2784 30.1451L67.7702 29.6553L65.9948 29.7381C65.4351 29.2206 64.5216 28.9239 63.1514 28.7859L60.6362 29.3586L58.5069 29.5518L57.2911 30.6143L55.6893 31.5389C55.1296 32.7671 54.5957 33.4708 53.991 33.664L53.1805 36.0306L54.8788 42.7027L56.4034 45.0142L57.1624 45.7731V47.1876H56.8086L54.8788 48.8228L49.1921 49.6922L42.2639 53.5009L32.19 60.5248L31.3023 62.1601L31.2251 64.8855L33.0006 68.6183L36.0176 71.9095C39.9995 74.5521 43.9879 77.1395 47.9441 79.6924L48.8319 80.7826L48.195 82.7421H50.4015C50.7296 81.8451 50.8839 80.9206 50.8582 79.9684C50.8582 79.237 50.6781 78.5539 50.2728 77.8709H47.5582L45.8599 77.0015C44.8692 76.1873 43.6534 75.3387 42.2575 74.4693C40.9387 73.6551 39.5943 72.6477 38.2241 71.5852C35.7603 69.4876 34.0363 67.5005 33.0713 65.6238L32.7433 64.1817L32.8204 62.5189L33.2515 61.6219L34.9497 59.8832L37.7931 58.1651L38.2241 58.2479L38.2434 58.2341ZM41.1382 59.3795V58.7792L48.2979 54.1495L48.3237 54.8049L42.3604 59.5175L41.6528 59.7866L41.1446 59.3795H41.1382ZM40.2247 56.7369L40.0703 56.2194L48.7225 51.2653L48.2915 52.1347L42.5277 55.7571L40.2182 56.7369H40.2247ZM48.3944 58.4273L48.1435 58.9172L43.4218 61.8841L43.1709 62.3188L42.9201 61.8841L43.0744 61.3942L47.2365 57.8822L48.3044 57.7718L48.4073 58.4273H48.3944ZM47.7125 61.3942C47.8155 62.9191 47.9184 64.3887 48.1178 65.8032L49.0056 73.4826L48.3237 73.6758L47.4102 73.7586C46.0143 72.5028 44.7213 71.116 43.5247 69.5635C42.5341 68.1767 41.6463 66.707 40.913 65.127L41.1446 64.7475C42.3604 63.9057 43.6084 63.1123 44.8756 62.3533C45.7119 61.9186 46.5997 61.4839 47.5131 61.1251L47.719 61.3942H47.7125ZM81.1828 59.6555L81.1056 60.1454L80.2178 59.9522L75.3932 56.7369H74.6341L73.8236 56.0538L73.5727 54.9912C74.3832 55.2603 75.1487 55.6191 75.8563 56.0538L81.1892 59.6486L81.1828 59.6555ZM82.4307 58.1306L81.1892 57.6959L76.0365 53.8597C74.5119 53.1766 73.7271 52.8247 73.5727 52.8247L73.4698 52.0381L75.0973 52.2865L82.8103 57.8684L82.4307 58.1375V58.1306ZM67.0755 36.4308L66.8246 36.7827L64.6953 37.8177L65.2035 38.7147L67.1591 39.0665L68.3492 38.7975L69.2369 39.6392L68.4778 40.2395L67.8667 40.5086L68.4778 41.2469V41.5712L67.4872 41.792L66.8246 42.5302L66.9018 43.1581L67.7895 42.9166L68.1433 42.889L68.2977 43.1581L67.6609 43.4824C67.5579 43.4824 67.41 43.7032 67.2556 44.2414H67.5322L67.9118 45.0004C67.9632 45.2487 67.7316 45.4074 67.3264 45.4902L64.483 44.9176L61.466 45.0004L60.2952 45.7593V46.3044L61.8456 47.6637L61.7169 49.9475C61.7169 50.2718 61.466 50.2166 60.9064 49.8371L57.9344 47.85L57.9858 45.918L58.3654 45.8352L59.1502 42.0542L58.1081 40.5845L57.9794 38.8665L58.5133 38.2386L59.5812 38.0454L60.8999 39.2735H61.6075L61.9099 37.8039L64.7532 35.8996H66.7088L67.0626 36.417L67.0755 36.4308ZM60.5783 53.6389C60.5783 53.4181 60.7069 53.287 60.9578 53.287C61.183 53.287 61.2859 53.425 61.2859 53.6389C61.2859 53.9356 61.183 54.046 60.9578 54.046C60.7069 54.046 60.5783 53.9356 60.5783 53.6389ZM61.1122 58.3445C61.1122 58.6412 60.9836 58.7792 60.7327 58.7792C60.4818 58.7792 60.3274 58.6412 60.3274 58.3445C60.3274 58.0754 60.4818 57.965 60.7327 57.965C60.9836 57.965 61.1122 58.0754 61.1122 58.3445ZM66.0076 52.9834L66.2585 52.9006L67.2492 55.1085L67.3264 56.6334L67.1462 60.0626H65.5252L66.0076 52.9834ZM69.179 54.046L70.2469 53.287L70.0668 60.1454H69.0246L69.179 54.046ZM79.5102 61.6909L79.8898 62.4292L79.2529 62.9191L75.9786 61.1251L74.2546 58.1582L79.5102 61.6978V61.6909ZM75.5025 65.0994L75.6569 63.3813C76.2938 63.5745 76.8727 63.816 77.3809 64.1403C79.1564 65.2581 80.8611 66.4241 82.5079 67.7075C80.6295 69.805 78.6739 71.737 76.5447 73.5033C75.5025 74.4279 74.3639 75.1938 73.0902 75.7595L74.1581 72.3304L75.5025 65.0925V65.0994ZM74.0037 63.2985L73.978 60.8215C73.978 60.3868 74.1323 60.304 74.4347 60.6007C74.5633 60.8215 74.6856 61.3321 74.7113 62.1532L74.2546 66.7553L73.547 69.9706L74.0037 63.2985ZM70.427 62.0497V62.4292H65.5316V62.0497H70.427ZM70.427 60.9043V61.3942H65.5316V60.9043H70.427L73.0902 78.9541L73.1159 76.5599L75.5283 76.2632L84.129 67.8524L81.2857 64.7475L83.1384 61.891L83.8717 61.9738L87.5256 67.0382L87.3197 68.0732C85.4156 70.0051 83.3828 71.7784 81.2021 73.4067C78.5646 75.4214 75.8949 77.2982 73.0838 78.961L70.4206 60.9112L70.427 60.9043Z" fill="#1D1D1B"/>
        <path fill-rule="evenodd" clip-rule="evenodd" d="M59.7679 38.7214L58.6228 38.6938L58.3462 39.2872L58.5199 39.7564L58.9509 39.6736L59.2082 40.1635L59.5877 40.6258L59.9673 40.5982L60.1474 39.646L59.7679 38.7214Z" fill="#1D1D1B"/>
        <path fill-rule="evenodd" clip-rule="evenodd" d="M42.431 88.6414H38.0631V92.8847H36.2876V97.0798H38.0631V103.152C38.0631 103.752 38.2947 104.325 38.6999 104.759C39.1824 105.194 39.6906 105.415 40.276 105.415H44.9462V101.247H43.4217C42.7848 101.247 42.4567 100.868 42.4567 100.129V97.0798H44.1293V92.8847H42.4567L42.431 88.6414Z" fill="#E73137"/>
        <path fill-rule="evenodd" clip-rule="evenodd" d="M57.9857 87.503H53.6436V103.159C53.6436 104.683 54.3254 105.415 55.7728 105.415H62.2443V101.247H58.9957C58.3331 101.247 57.9793 100.868 57.9793 100.13V87.4961L57.9857 87.503Z" fill="#E73137"/>
        <path fill-rule="evenodd" clip-rule="evenodd" d="M116.133 92.5604C114.685 92.5604 113.978 93.2986 113.978 94.8442V105.408H118.345V97.7835C118.345 97.1004 118.674 96.7485 119.336 96.7485H121.62V92.5535H116.139L116.133 92.5604Z" fill="#E73137"/>
        <path fill-rule="evenodd" clip-rule="evenodd" d="M4.05895 87.5305C3.44783 87.5305 2.93963 87.7789 2.45717 88.2136C2.0519 88.6759 1.82031 89.2486 1.82031 89.904V105.422H6.23326V99.0531H8.56839V94.8581H6.23326V92.8433C6.23326 92.0844 6.58707 91.7256 7.22392 91.7256H10.4725V87.5305H4.05895Z" fill="#E73137"/>
        <path fill-rule="evenodd" clip-rule="evenodd" d="M20.1477 94.3062C18.9576 93.0297 17.5102 92.4019 15.857 92.4019C14.1072 92.4019 12.6856 93.0297 11.489 94.3062C10.2732 95.6102 9.66211 97.1903 9.66211 98.9635C9.66211 100.84 10.2732 102.365 11.489 103.648C12.7049 104.953 14.1523 105.636 15.857 105.636C17.5617 105.636 18.9512 104.953 20.1477 103.648C21.3635 102.344 21.9746 100.792 21.9746 98.9635C21.9746 97.1351 21.3635 95.6171 20.1477 94.3062ZM14.0043 98.9635C14.0043 97.7147 14.6412 97.0868 15.857 97.0868C17.0728 97.0868 17.6324 97.7147 17.6324 98.9635C17.6324 100.212 17.0213 100.868 15.857 100.868C14.6926 100.868 14.0043 100.24 14.0043 98.9635Z" fill="#E73137"/>
        <path fill-rule="evenodd" clip-rule="evenodd" d="M33.6501 94.3062C32.46 93.0297 31.0127 92.4019 29.3594 92.4019C27.7062 92.4019 26.188 93.0297 24.9915 94.3062C23.7757 95.6102 23.1646 97.1903 23.1646 98.9635C23.1646 100.84 23.7757 102.365 24.9915 103.648C26.2073 104.953 27.6547 105.636 29.3594 105.636C31.0641 105.636 32.4536 104.953 33.6501 103.648C34.8659 102.344 35.4771 100.792 35.4771 98.9635C35.4771 97.1351 34.8659 95.6171 33.6501 94.3062ZM27.5067 98.9635C27.5067 97.7147 28.1436 97.0868 29.3594 97.0868C30.5752 97.0868 31.1349 97.7147 31.1349 98.9635C31.1349 100.212 30.5495 100.868 29.3594 100.868C28.1693 100.868 27.5067 100.24 27.5067 98.9635Z" fill="#E73137"/>
        <path fill-rule="evenodd" clip-rule="evenodd" d="M73.7209 94.3062C72.5308 93.0297 71.0834 92.4019 69.353 92.4019C67.6226 92.4019 66.2331 93.0297 65.0108 94.3062C63.8143 95.6102 63.2354 97.1903 63.2354 98.9635C63.2354 100.84 63.8207 102.365 65.0108 103.648C66.2266 104.953 67.6483 105.636 69.353 105.636C71.0577 105.636 72.5244 104.953 73.7209 103.648C74.9367 102.372 75.5221 100.847 75.5221 98.9635C75.5221 97.1972 74.9367 95.6171 73.7209 94.3062ZM68.1179 97.625C68.4717 97.2731 68.877 97.0799 69.3594 97.0799C70.5495 97.0799 71.1349 97.7078 71.1349 98.9566C71.1349 100.205 70.5495 100.861 69.3594 100.861C68.1694 100.861 67.6097 100.233 67.6097 98.9566C67.6097 98.4944 67.7898 98.0597 68.1179 97.625Z" fill="#E73137"/>
        <path fill-rule="evenodd" clip-rule="evenodd" d="M78.6995 94.3062C77.4837 95.6102 76.8726 97.1903 76.8726 98.9635C76.8726 100.84 77.4837 102.365 78.6995 103.648C79.9153 104.953 81.3627 105.636 83.0674 105.636C85.2482 105.636 86.9786 104.601 88.2201 102.586L84.5148 100.026C84.161 100.599 83.7043 100.868 83.0674 100.868C81.8516 100.868 81.2147 100.24 81.2147 98.9635C81.2147 97.6871 81.8516 97.0868 83.0674 97.0868C83.7043 97.0868 84.161 97.3835 84.5148 97.9838L88.2201 95.4516C86.9786 93.4368 85.2482 92.4019 83.0674 92.4019C81.3177 92.4019 79.896 93.0297 78.6995 94.3062Z" fill="#E73137"/>
        <path fill-rule="evenodd" clip-rule="evenodd" d="M121.034 102.965C120.301 102.965 119.915 103.372 119.915 104.193C119.915 105.015 120.295 105.422 121.034 105.422C121.819 105.422 122.179 105.042 122.179 104.193C122.179 103.345 121.826 102.965 121.034 102.965ZM120.121 104.187C120.121 103.531 120.397 103.179 121.034 103.179C121.671 103.179 121.999 103.531 121.999 104.187C121.999 104.842 121.671 105.222 121.034 105.222C120.397 105.222 120.121 104.87 120.121 104.187Z" fill="#E73137"/>
        <path fill-rule="evenodd" clip-rule="evenodd" d="M121.614 103.918C121.614 103.648 121.485 103.538 121.183 103.538H120.597V104.87H120.777V104.269H121.009L121.363 104.87H121.614L121.208 104.269C121.485 104.269 121.614 104.159 121.614 103.918ZM120.777 104.076V103.724H121.105L121.433 103.835C121.433 104 121.279 104.076 121.002 104.076H120.771H120.777Z" fill="#E73137"/>
        <path fill-rule="evenodd" clip-rule="evenodd" d="M93.6498 96.2932V87.5029H89.2305V105.415H93.6498V101.627L96.5639 105.415H101.665L96.4867 98.7427L100.604 93.3539H95.8563L93.6498 96.2932Z" fill="#E73137"/>
        <path fill-rule="evenodd" clip-rule="evenodd" d="M112.755 98.4736C112.755 97.3834 112.35 96.2173 111.514 94.934C110.446 93.3539 108.973 92.4846 107.049 92.3742C104.714 92.2362 102.913 93.1124 101.62 95.0444C100.81 96.2449 100.404 97.549 100.404 98.9634C100.404 100.84 101.041 102.365 102.257 103.648C103.473 104.952 104.92 105.636 106.625 105.636C108.047 105.636 109.314 105.201 110.382 104.276L111.855 102.586L108.304 100.136L107.873 100.681C107.287 101.199 106.631 101.309 105.917 101.033L105.03 100.302L112.768 98.4805L112.755 98.4736ZM106.007 96.8659C106.869 96.5968 107.558 96.8383 108.111 97.549L104.682 98.3908C104.914 97.6525 105.345 97.1626 106.001 96.8659H106.007Z" fill="#E73137"/>
    </g>
    <defs>
        <clipPath id="clip0_225_811">
            <rect width="124" height="133" fill="white"/>
        </clipPath>
    </defs>
</svg>
