<svg width="187" height="32" viewBox="0 0 187 32" fill="none" xmlns="http://www.w3.org/2000/svg">
    <g clip-path="url(#clip0_225_830)">
        <path d="M0 31.1616H4.39143V17.9719H11.9711V13.8027H4.39143V4.42975H13.09V0.260574H0V31.1616ZM26.6092 0C23.0301 0 19.2441 2.51377 19.2441 7.54898V23.8655C19.2441 28.9007 23.0378 31.4145 26.6092 31.4145C30.1806 31.4145 33.9742 28.9007 33.9742 23.8655V7.54898C33.9742 2.51377 30.1882 0 26.6092 0ZM29.5828 23.8732C29.5828 26.0037 28.2033 27 26.6092 27C25.0151 27 23.6356 26.0037 23.6356 23.8732V7.54898C23.6356 5.4184 25.0151 4.42209 26.6092 4.42209C28.2033 4.42209 29.5828 5.4184 29.5828 7.54898V23.8732ZM55.8624 9.33467C55.8624 3.34148 53.318 0.260574 48.1065 0.260574H41.0404V31.1616H45.4318V17.9719H48.0605L52.1531 31.1692H56.8051L52.0688 17.0599C54.8738 15.4965 55.8624 12.8907 55.8624 9.33467ZM47.9379 14.0633H45.4395V4.42975H47.7233C50.9575 4.42975 51.471 6.12348 51.471 9.25037C51.4633 12.3236 50.9958 14.0633 47.9379 14.0633ZM62.9592 31.1616H76.0569V26.7318H67.3507V17.6654H74.9303V13.4962H67.3507V4.42975H76.0492V0.260574H62.9592V31.1616ZM89.9209 21.8345H89.8366L86.3495 0.260574H81.6975L87.9436 31.1616H91.8216L98.1137 0.260574H93.4617L89.9209 21.8345ZM104.674 31.1616H117.772V26.7318H109.073V17.6654H116.653V13.4962H109.073V4.42975H117.772V0.260574H104.674V31.1616ZM139.369 9.33467C139.369 3.34148 136.824 0.260574 131.613 0.260574H124.547V31.1616H128.938V17.9719H131.567L135.659 31.1692H140.311L135.575 17.0599C138.372 15.4965 139.369 12.8907 139.369 9.33467ZM131.436 14.0633H128.938V4.42975H131.222C134.456 4.42975 134.97 6.12348 134.97 9.25037C134.97 12.3773 134.502 14.0633 131.436 14.0633ZM172.768 7.77123C172.768 3.64803 170.829 0 166.261 0C162.598 0 159.67 3.03492 159.67 6.72893V9.1584H164.062V6.63697C164.062 5.20381 164.92 4.42209 166.215 4.42209C168.369 4.42209 168.369 6.28443 168.369 7.84787C168.369 9.5416 168.369 10.4076 167.595 11.9251L159.67 26.9847V31.1539H172.768V26.7241H164.844L171.304 14.1783C172.684 11.5419 172.768 10.7602 172.768 7.77123ZM182.609 0.260574L178.217 0.245246V4.96623L182.609 4.94324V31.1616H187V0.260574H182.609Z" fill="#231F20"/>
    </g>
    <defs>
        <clipPath id="clip0_225_830">
            <rect width="187" height="31.4145" fill="white"/>
        </clipPath>
    </defs>
</svg>
