<svg width="187" height="62" viewBox="0 0 187 62" fill="none" xmlns="http://www.w3.org/2000/svg">
    <g clip-path="url(#clip0_237_1572)">
        <path d="M0 30.8137C0 13.8242 10.3769 0 23.1961 0C36.0154 0 46.3794 13.8662 46.3794 30.8137C46.3794 47.7612 36.0068 61.6274 23.1961 61.6274C10.3854 61.6274 0 47.8468 0 30.8137Z" fill="white"/>
        <path fill-rule="evenodd" clip-rule="evenodd" d="M39.0414 33.321C39.3165 34.5286 39.4574 35.7629 39.4614 37.0015C39.4345 44.7111 33.9693 51.3285 26.4071 52.8081C18.8449 54.2877 11.2909 50.2176 8.36342 43.086C5.43589 35.9545 7.94983 27.747 14.3683 23.4812C20.7868 19.2154 29.3229 20.079 34.758 25.5439L32.1266 28.2187C29.8104 25.8513 26.6323 24.5269 23.3212 24.5493C18.2809 24.549 13.7369 27.5872 11.8089 32.2467C9.88082 36.9062 10.9486 42.269 14.5141 45.8335C18.0796 49.398 23.4404 50.462 28.0958 48.529C32.7512 46.5961 35.784 42.0471 35.7795 37.0041H31.0744V33.3235L39.0414 33.321Z" fill="#A70A2E"/>
        <path fill-rule="evenodd" clip-rule="evenodd" d="M20.647 20.3092C18.8496 19.0526 18.1828 16.7049 19.051 14.6903C19.9192 12.6757 22.0833 11.5494 24.2304 11.9945C26.3775 12.4397 27.9159 14.3338 27.9125 16.5277H31.5662C31.5741 12.5979 28.8238 9.20243 24.9798 8.39603C21.1358 7.58963 17.254 9.59385 15.6836 13.1958C14.1132 16.7977 15.2856 21.0079 18.4912 23.2784L28.5002 30.0018C30.6062 31.7267 31.858 34.2829 31.9298 37.0051C32.0561 40.1822 30.434 43.1736 27.7032 44.7997C24.9723 46.4259 21.5709 46.4259 18.84 44.7997C16.1092 43.1736 14.4871 40.1822 14.6134 37.0051C14.6392 35.7381 14.9103 34.4883 15.4115 33.3245H11.8519C9.97715 39.1378 12.7758 45.4311 18.3467 47.9297C23.9176 50.4283 30.4753 48.3312 33.5652 43.063C36.6551 37.7948 35.2869 31.0441 30.39 27.3963L20.647 20.3092Z" fill="#FAB900"/>
        <path fill-rule="evenodd" clip-rule="evenodd" d="M35.7376 37.0038H31.0762V33.3232H39.0415C39.3166 34.5309 39.4575 35.7652 39.4615 37.0038H35.7376Z" fill="#A70A2E"/>
        <path fill-rule="evenodd" clip-rule="evenodd" d="M18.9546 37.0462H18.2129V34.4416H17.3164V33.9511C17.4701 33.9648 17.6247 33.9648 17.7784 33.9511C17.9028 33.9268 18.0215 33.8791 18.1282 33.8107C18.2163 33.7506 18.2923 33.6746 18.3524 33.5865C18.4125 33.5144 18.4513 33.427 18.4644 33.334H18.9546V37.0462Z" fill="#1D1D1B"/>
        <path fill-rule="evenodd" clip-rule="evenodd" d="M20.4516 36.1641C20.4415 36.2633 20.4778 36.3616 20.55 36.4303C20.6248 36.5248 20.7376 36.5813 20.858 36.5844C20.975 36.5855 21.0887 36.5459 21.1797 36.4723C21.2676 36.4181 21.3324 36.3334 21.3619 36.2343C21.4051 36.1462 21.4339 36.0517 21.4474 35.9544C21.4588 35.8661 21.4588 35.7766 21.4474 35.6882C21.4552 35.6231 21.4552 35.5573 21.4474 35.4922C21.3274 35.6649 21.1387 35.7772 20.9299 35.8004H20.538C20.4122 35.7593 20.294 35.6977 20.1882 35.6181C20.0514 35.4996 19.9375 35.3572 19.852 35.1978C19.7762 34.9867 19.7382 34.7639 19.7399 34.5396C19.7348 34.2926 19.7875 34.0478 19.8939 33.8249C19.998 33.6325 20.1531 33.4726 20.3421 33.3627C20.5274 33.2491 20.7408 33.1898 20.9581 33.1914H21.154C21.3494 33.2102 21.537 33.2776 21.6998 33.3875C21.9132 33.492 22.0677 33.6879 22.1198 33.9199C22.1958 34.0842 22.2477 34.2586 22.2738 34.4377C22.2952 34.6369 22.2952 34.8377 22.2738 35.0369C22.2731 35.3192 22.2445 35.6007 22.1883 35.8774C22.1381 36.1307 22.0532 36.3758 21.9359 36.6058C21.8325 36.8013 21.6643 36.9547 21.4602 37.0398C21.2683 37.1103 21.0659 37.1482 20.8614 37.1519C20.5258 37.1813 20.1968 37.0457 19.9794 36.7881C19.8105 36.623 19.7189 36.3943 19.7271 36.1581L20.4516 36.1641ZM20.9136 33.7975C20.7755 33.7918 20.6421 33.8483 20.55 33.9515C20.4757 34.0331 20.4177 34.1281 20.3789 34.2314C20.3643 34.3242 20.3643 34.4186 20.3789 34.5113C20.3643 34.5995 20.3643 34.6894 20.3789 34.7775C20.4149 34.8782 20.4734 34.9692 20.55 35.0437C20.6552 35.1433 20.7973 35.1942 20.9418 35.1841C21.0819 35.192 21.2189 35.1411 21.3199 35.0437C21.3965 34.9692 21.4551 34.8782 21.491 34.7775C21.5057 34.694 21.5057 34.6085 21.491 34.525C21.5068 34.4134 21.5068 34.3002 21.491 34.1886C21.4729 34.0989 21.4292 34.0162 21.3653 33.9507C21.3099 33.9053 21.2486 33.8676 21.1831 33.8386C21.0978 33.8081 21.0075 33.7939 20.917 33.7966L20.9136 33.7975Z" fill="#1D1D1B"/>
        <path fill-rule="evenodd" clip-rule="evenodd" d="M23.0131 36.7947C22.8604 36.5989 22.7592 36.3679 22.7188 36.1228C22.6068 35.5022 22.6068 34.8664 22.7188 34.2458C22.7517 34.0119 22.8433 33.7902 22.9848 33.6012C23.094 33.462 23.2393 33.3554 23.4049 33.2931C23.5685 33.2242 23.7449 33.1906 23.9224 33.1947C24.1045 33.1925 24.2853 33.226 24.4546 33.2931C24.6201 33.3554 24.7654 33.462 24.8746 33.6012C25.0172 33.7841 25.109 34.0014 25.1406 34.2312C25.2007 34.5451 25.2293 34.8643 25.2262 35.1839C25.2276 35.4997 25.199 35.815 25.1406 36.1254C25.1077 36.3592 25.0162 36.581 24.8746 36.7699C24.7578 36.9011 24.6147 37.0061 24.4546 37.078C24.2834 37.1371 24.1034 37.166 23.9224 37.1636C23.7464 37.1636 23.5716 37.1347 23.4049 37.078C23.2536 37.0178 23.1192 36.9218 23.0131 36.7982V36.7947ZM24.4126 36.2341C24.5031 35.8917 24.5408 35.5376 24.5247 35.1839C24.5387 34.8556 24.5152 34.5268 24.4546 34.2038C24.4155 34.0946 24.3419 34.0011 24.245 33.9376C24.1531 33.9151 24.0571 33.9151 23.9652 33.9376C23.8778 33.9168 23.7866 33.9168 23.6992 33.9376C23.599 33.9976 23.5244 34.0924 23.4896 34.2038C23.429 34.5268 23.4054 34.8556 23.4194 35.1839C23.4055 35.5076 23.429 35.8319 23.4896 36.1502C23.5244 36.2617 23.599 36.3564 23.6992 36.4164C23.7866 36.4373 23.8778 36.4373 23.9652 36.4164C24.0578 36.4323 24.1524 36.4323 24.245 36.4164C24.3062 36.3716 24.3506 36.3073 24.3707 36.2341H24.4126Z" fill="#1D1D1B"/>
        <path fill-rule="evenodd" clip-rule="evenodd" d="M26.3583 36.0655C26.3165 36.1784 26.3165 36.3026 26.3583 36.4155C26.484 36.5184 26.6446 36.5687 26.8065 36.5559C26.9778 36.5668 27.1423 36.4873 27.2402 36.3462C27.3274 36.1928 27.3709 36.0185 27.366 35.8421C27.3846 35.6753 27.345 35.5071 27.2539 35.3662C27.1574 35.2041 26.9804 35.1074 26.792 35.1137C26.6963 35.112 26.6027 35.1421 26.5259 35.1993C26.4513 35.2469 26.3919 35.3149 26.3548 35.3953H25.6833L26.0195 33.2939H28.0375V33.9659H26.4806L26.3548 34.7362L26.537 34.6378L26.7193 34.5522H27.1812L27.5311 34.6506C27.725 34.7408 27.8829 34.8937 27.9794 35.0846C28.2408 35.5499 28.2408 36.118 27.9794 36.5833C27.8715 36.7729 27.7172 36.9319 27.5311 37.0455C27.3329 37.1634 27.1032 37.2172 26.8732 37.1996C26.6885 37.2126 26.5029 37.1887 26.3275 37.1294C26.1927 37.0704 26.0657 36.9951 25.9493 36.9051C25.8338 36.8136 25.7386 36.6991 25.6696 36.5688C25.5981 36.4256 25.5642 36.2665 25.5712 36.1066L26.3583 36.0655Z" fill="#1D1D1B"/>
        <path d="M81.0886 27.3309C81.1933 26.9748 81.1746 26.5937 81.0355 26.2496C80.9046 26.0042 80.6929 25.8116 80.4363 25.7047C80.1402 25.5841 79.8246 25.5185 79.505 25.511H78.4008C77.683 25.4907 76.9657 25.5645 76.2669 25.7304C75.7862 25.8518 75.3443 26.0939 74.983 26.4338C74.6329 26.783 74.3605 27.2023 74.1835 27.6642C73.9815 28.1826 73.7795 28.8158 73.5604 29.5544L72.7789 32.561C72.5945 33.196 72.4912 33.8518 72.4716 34.5128C72.4517 34.9072 72.5838 35.2943 72.8405 35.5941C73.1203 35.8591 73.477 36.0284 73.8591 36.0774C74.3977 36.1541 74.9414 36.1893 75.4854 36.1827C76.018 36.1932 76.5504 36.1519 77.075 36.0594C77.4789 35.9939 77.8608 35.831 78.1877 35.5847C78.5075 35.3195 78.7679 34.9899 78.9521 34.6173C79.197 34.1242 79.3911 33.6075 79.5316 33.0751H76.1266L77.0681 29.6478H85.4728L84.5946 32.8831C84.2753 34.1889 83.8161 35.4563 83.225 36.6634C82.7893 37.5519 82.1481 38.3235 81.3548 38.9143C80.5191 39.4656 79.571 39.823 78.5797 39.9605C77.2041 40.1573 75.8153 40.2484 74.4258 40.2329C73.1714 40.2433 71.9181 40.1611 70.6758 39.987C69.7758 39.8802 68.9207 39.534 68.1995 38.9846C67.5979 38.4365 67.2263 37.6806 67.1595 36.8691C67.0698 35.65 67.2067 34.4249 67.5635 33.2558L68.8475 28.4645C69.1626 27.1542 69.7069 25.9101 70.455 24.7896C71.0585 23.918 71.8479 23.1913 72.7661 22.6621C73.6927 22.1403 74.7089 21.7974 75.7619 21.6511C76.9884 21.5013 78.2233 21.4309 79.4588 21.4403C80.6623 21.4403 81.7425 21.4403 82.726 21.5371C83.5642 21.5665 84.3844 21.789 85.1227 22.1874C85.7665 22.5706 86.2169 23.21 86.3613 23.9456C86.5325 25.0815 86.4301 26.2419 86.0626 27.3301L81.0886 27.3309Z" fill="#A80533"/>
        <path d="M95.5445 28.8346C96.6439 28.9045 97.7379 29.0424 98.8203 29.2476C99.5022 29.3447 100.145 29.6241 100.682 30.0565C101.098 30.4555 101.33 31.0092 101.323 31.5859C101.316 32.4577 101.189 33.3244 100.946 34.1615C100.805 34.6756 100.665 35.1811 100.518 35.6823C100.363 36.1773 100.151 36.6524 99.8851 37.0978C99.2854 38.1239 98.357 38.917 97.2505 39.3487C96.4664 39.6559 95.6504 39.874 94.8178 39.999C93.6562 40.172 92.4826 40.2513 91.3084 40.2364H89.0897C88.4701 40.2236 87.8528 40.156 87.2451 40.0341C86.7446 39.9303 86.2661 39.7398 85.8311 39.4712C85.434 39.2138 85.127 38.8388 84.9529 38.3985C84.737 37.8398 84.6473 37.2403 84.6901 36.6428C84.745 35.7776 84.8884 34.9203 85.1181 34.0844H89.8515C89.7335 34.4505 89.68 34.8343 89.6932 35.2188C89.7073 35.4708 89.8289 35.7045 90.027 35.8606C90.2886 36.0342 90.5918 36.1345 90.9052 36.151C91.2913 36.151 91.7834 36.2042 92.398 36.2042C92.8872 36.215 93.3766 36.2004 93.8643 36.1605C94.2102 36.1396 94.5509 36.0656 94.8743 35.9411C95.1369 35.8294 95.3667 35.6524 95.542 35.427C95.7355 35.1649 95.873 34.8656 95.946 34.5479C96.0273 34.2459 96.0803 33.937 96.1043 33.6251C96.1288 33.4348 96.0482 33.2461 95.8938 33.1324C95.68 32.9993 95.4342 32.9264 95.1825 32.9217C94.8572 32.9217 94.401 32.8514 93.83 32.8248L92.7413 32.746C91.6285 32.6672 90.6339 32.5789 89.7728 32.4736C89.0357 32.4194 88.3221 32.1903 87.6911 31.8052C87.1527 31.4424 86.7948 30.8665 86.7076 30.2227C86.6032 29.1862 86.7106 28.1394 87.0234 27.1458C87.2944 26.029 87.7676 24.9714 88.4195 24.0253C88.9459 23.3101 89.6356 22.7314 90.431 22.3374C91.2601 21.9468 92.1524 21.7085 93.0657 21.6339C94.0552 21.5459 95.1528 21.502 96.3585 21.502H98.299C98.8886 21.5206 99.4759 21.5853 100.055 21.6956C100.542 21.7909 101.014 21.9475 101.461 22.1617C101.856 22.3559 102.186 22.6615 102.409 23.0408C102.645 23.4904 102.772 23.9895 102.778 24.4974C102.783 25.2267 102.68 25.9527 102.471 26.6514L102.269 27.4166H97.5441C97.6579 27.0621 97.7083 26.6902 97.693 26.3181C97.6716 26.0899 97.5491 25.8833 97.3592 25.7552C97.1125 25.6165 96.8341 25.5438 96.5511 25.5444H95.2989C94.7702 25.5374 94.2418 25.5698 93.7179 25.6413C93.3818 25.6881 93.0554 25.7891 92.7515 25.9403C92.5367 26.0473 92.3614 26.2198 92.2508 26.433C92.1383 26.6522 92.0472 26.8817 91.9786 27.1184C91.8874 27.4019 91.8545 27.701 91.8819 27.9975C91.8977 28.1839 91.994 28.3541 92.1455 28.4636C92.3275 28.5739 92.5326 28.6402 92.7447 28.6573L93.6229 28.7627L95.5445 28.8346Z" fill="#FCB813"/>
        <path d="M112.467 28.7895C113.566 28.8621 114.66 28.9971 115.743 29.1939C116.424 29.2992 117.066 29.581 117.605 30.0113C118.017 30.4127 118.249 30.9649 118.246 31.5407C118.24 32.4132 118.11 33.2805 117.86 34.1163C117.728 34.6304 117.588 35.1359 117.432 35.6372C117.277 36.1305 117.068 36.6052 116.809 37.0526C116.531 37.5177 116.184 37.9385 115.782 38.301C115.304 38.7282 114.753 39.0647 114.155 39.2941C113.37 39.6085 112.551 39.8296 111.714 39.953C110.552 40.1231 109.379 40.1996 108.205 40.1818H105.995C105.375 40.1626 104.758 40.0921 104.15 39.971C103.648 39.8778 103.168 39.69 102.736 39.4175C102.34 39.1591 102.033 38.7844 101.858 38.3447C101.644 37.7846 101.557 37.1844 101.601 36.5865C101.652 35.724 101.796 34.8694 102.029 34.0375H106.762C106.644 34.4036 106.591 34.7875 106.604 35.1719C106.616 35.4225 106.734 35.656 106.929 35.8137C107.192 35.984 107.495 36.081 107.808 36.0947C108.304 36.1422 108.802 36.1628 109.3 36.1564H110.755C111.105 36.138 111.45 36.0607 111.774 35.9276C112.036 35.8202 112.265 35.6477 112.442 35.4264C112.638 35.1472 112.777 34.8327 112.853 34.5002C112.932 34.2124 112.985 33.9182 113.012 33.6211C113.034 33.4286 112.954 33.2385 112.801 33.1198C112.585 32.9922 112.34 32.9226 112.09 32.9176C111.756 32.9176 111.308 32.8474 110.729 32.8122L109.649 32.742C108.536 32.6563 107.541 32.5663 106.68 32.4695C105.943 32.4153 105.23 32.1862 104.599 31.8012C104.06 31.4377 103.702 30.8608 103.615 30.2161C103.511 29.1824 103.618 28.1384 103.931 27.1478C104.194 26.0284 104.668 24.9693 105.327 24.0272C105.85 23.3126 106.537 22.7338 107.329 22.3393C108.157 21.9458 109.05 21.7074 109.964 21.6359C110.956 21.5502 112.054 21.5039 113.248 21.5039H115.196C115.786 21.5049 116.375 21.5667 116.953 21.6881C117.441 21.7765 117.914 21.9334 118.358 22.1542C118.756 22.3435 119.087 22.6503 119.307 23.0333C119.549 23.4786 119.679 23.9767 119.684 24.4839C119.686 25.2165 119.58 25.9453 119.368 26.6465L119.175 27.4117H114.441C114.559 27.0581 114.61 26.6855 114.59 26.3132C114.573 26.0815 114.45 25.8707 114.256 25.7417C114.013 25.6029 113.737 25.5303 113.457 25.531H112.2C111.669 25.5198 111.137 25.5522 110.611 25.6278C110.277 25.6704 109.953 25.7716 109.654 25.9268C109.435 26.0326 109.255 26.2051 109.14 26.4195C109.034 26.6413 108.943 26.8704 108.868 27.1049C108.776 27.3883 108.743 27.6875 108.771 27.984C108.79 28.1739 108.889 28.3466 109.044 28.4587C109.223 28.5649 109.424 28.631 109.632 28.6524C109.877 28.6524 110.159 28.7226 110.51 28.7492L112.467 28.7895Z" fill="#221F1F"/>
        <path d="M126.765 40.1037H121.794L125.623 25.7485H120.846L122.018 21.4404H136.781L135.613 25.7477H130.589L126.765 40.1037Z" fill="#221F1F"/>
        <path d="M141.078 40.2095C139.946 40.2162 138.816 40.1302 137.697 39.9525C136.816 39.8263 135.98 39.4817 135.265 38.95C134.625 38.4308 134.194 37.6969 134.053 36.8842C133.895 35.7219 133.997 34.5389 134.351 33.421L135.757 28.1995C136.044 26.9378 136.575 25.7444 137.32 24.6865C137.943 23.8454 138.736 23.1448 139.647 22.6301C140.571 22.1309 141.576 21.8004 142.616 21.6542C143.777 21.4735 144.95 21.3853 146.125 21.3903C147.255 21.3809 148.383 21.4692 149.498 21.6542C150.382 21.7729 151.222 22.1146 151.939 22.6473C152.578 23.1624 153.006 23.894 153.142 24.7037C153.314 25.8815 153.215 27.083 152.852 28.2166L151.465 33.421C151.17 34.665 150.64 35.8407 149.902 36.8842C149.281 37.7304 148.488 38.4346 147.574 38.95C146.651 39.4545 145.646 39.7937 144.606 39.9525C143.444 40.1265 142.271 40.2124 141.096 40.2095M142.255 35.9374C142.807 35.9417 143.358 35.9154 143.907 35.8586C144.322 35.8114 144.724 35.6765 145.084 35.4628C145.447 35.2317 145.749 34.9148 145.962 34.54C146.234 34.0193 146.44 33.4671 146.576 32.8957L147.63 28.6853C147.789 28.1544 147.875 27.6045 147.887 27.0505C147.894 26.7236 147.771 26.4072 147.544 26.1714C147.267 25.9428 146.927 25.8047 146.569 25.7755C146.039 25.7144 145.505 25.6858 144.971 25.6899C144.423 25.687 143.874 25.7156 143.329 25.7755C142.921 25.8227 142.529 25.9577 142.178 26.1714C141.822 26.3925 141.521 26.6934 141.3 27.0505C141.013 27.5648 140.795 28.1144 140.651 28.6853L139.544 32.8786C139.4 33.4151 139.323 33.9674 139.315 34.5228C139.306 34.8646 139.433 35.1962 139.666 35.4456C139.934 35.6726 140.265 35.8109 140.615 35.8415C141.142 35.8998 141.673 35.9261 142.204 35.9203" fill="#221F1F"/>
        <path d="M156.157 21.4854H165.753C166.676 21.4874 167.596 21.5757 168.502 21.7493C169.159 21.869 169.768 22.174 170.258 22.6284C170.71 23.0842 170.976 23.692 171.005 24.3334C171.056 25.2939 170.934 26.2557 170.644 27.1729C170.442 27.9552 170.24 28.6501 170.038 29.2653C169.846 29.848 169.565 30.3972 169.204 30.8933C168.831 31.3859 168.366 31.8009 167.834 32.1151C167.131 32.5063 166.369 32.7796 165.577 32.9239L165.515 33.0824C166.344 33.0342 167.152 33.3554 167.722 33.9598C168.199 34.678 168.295 35.5841 167.979 36.3863L166.987 40.1486H162.008L162.702 37.5113C162.919 36.9668 162.919 36.3594 162.702 35.8148C162.5 35.3864 162.017 35.1645 161.271 35.1645H157.419L156.102 40.1229H151.125L156.157 21.4854ZM162.48 30.8915C162.907 30.9048 163.334 30.8513 163.744 30.733C164.04 30.6393 164.3 30.4586 164.491 30.2146C164.692 29.9513 164.844 29.6534 164.938 29.3355C165.052 28.9663 165.176 28.5181 165.316 27.9818C165.423 27.6391 165.491 27.2852 165.518 26.927C165.534 26.6945 165.483 26.4623 165.369 26.2587C165.239 26.0815 165.048 25.9592 164.833 25.916C164.509 25.8369 164.175 25.8014 163.841 25.8106H159.977L158.643 30.9095L162.48 30.8915Z" fill="#221F1F"/>
        <path d="M176.497 28.9297H184.462L183.549 32.393H175.584L174.609 36.0327H183.267L182.17 40.1206H168.531L173.537 21.4316H186.999L185.911 25.5195H177.419L176.497 28.9297Z" fill="#221F1F"/>
        <path d="M53.3672 11.8594V49.5559" stroke="#414244" stroke-width="0.15"/>
    </g>
    <defs>
        <clipPath id="clip0_237_1572">
            <rect width="187" height="61.6274" fill="white"/>
        </clipPath>
    </defs>
</svg>
