<svg width="187" height="31" viewBox="0 0 187 31" fill="none" xmlns="http://www.w3.org/2000/svg">
    <g clip-path="url(#clip0_232_1281)">
        <path fill-rule="evenodd" clip-rule="evenodd" d="M12.6538 6.63254C13.537 7.01045 14.2674 7.58794 14.8363 8.365C15.3162 9.02317 15.6134 9.70256 15.7238 10.3989C15.83 11.0953 15.8852 12.2291 15.8852 13.8087V24.178H11.1718V13.435C11.1718 12.4796 11.0105 11.7153 10.692 11.1293C10.2759 10.3055 9.48185 9.90214 8.31413 9.90214C7.14642 9.90214 6.18252 10.3055 5.55832 11.1251C4.92988 11.9361 4.61566 13.1038 4.61566 14.6155V24.1737H0V0.0848397H4.61141V8.03804C5.46915 7.19729 5.89378 6.92128 6.75152 6.58158C7.64322 6.22914 8.72602 6.06354 9.68991 6.06354C10.7769 6.06354 11.7663 6.25037 12.6538 6.63254ZM23.8893 10.8745C23.2396 11.5497 22.832 12.4584 22.6622 13.6049H30.6154C30.5304 12.3819 30.1186 11.4478 29.384 10.8151C28.6451 10.1781 27.7364 9.86392 26.6451 9.86392C25.4604 9.86392 24.5432 10.2036 23.8893 10.8788V10.8745ZM30.7979 6.88731C32.0251 7.44357 33.0442 8.3098 33.8467 9.49875C34.5686 10.5433 35.0399 11.762 35.2523 13.1463C35.3796 13.9573 35.4306 15.125 35.4051 16.6452H22.5475C22.6239 18.4158 23.2354 19.66 24.3946 20.3734C25.0953 20.815 25.9487 21.0358 26.9381 21.0358C27.9912 21.0358 28.8489 20.7683 29.4986 20.2247C29.8595 19.9317 30.1738 19.5326 30.4498 19.0146H35.1673C35.0399 20.0591 34.4709 21.1249 33.4518 22.2035C31.8722 23.919 29.6642 24.7767 26.815 24.7767C24.4668 24.7767 22.3946 24.0506 20.6027 22.6026C18.8066 21.1547 17.9106 18.8022 17.9106 15.5411C17.9106 12.4838 18.7174 10.1399 20.3437 8.50088C21.9615 6.87033 24.0677 6.05505 26.6536 6.05505C28.1865 6.05505 29.575 6.3353 30.8064 6.88306M48.9888 11.7408C48.3604 10.6962 47.3413 10.1739 45.9358 10.1739C44.2415 10.1739 43.0823 10.9637 42.4539 12.5518C42.1227 13.3925 41.9613 14.4626 41.9613 15.7619C41.9613 17.8129 42.5091 19.2524 43.6131 20.0846C44.2628 20.5687 45.0356 20.8107 45.9358 20.8107C47.2309 20.8107 48.2203 20.3182 48.9039 19.3245C49.5833 18.3309 49.9272 17.0103 49.9272 15.3586C49.9272 13.9955 49.613 12.7981 48.9888 11.745M52.5302 8.42869C53.9697 9.94885 54.6915 12.1824 54.6915 15.1293C54.6915 18.2375 53.9909 20.6069 52.5811 22.2417C51.1671 23.8723 49.3625 24.6833 47.146 24.6833C45.732 24.6833 44.56 24.3351 43.6258 23.6302C43.1163 23.2396 42.6195 22.6748 42.1269 21.9317V30.6662H37.558V6.53063H41.9825V9.13782C42.4793 8.37774 43.0101 7.77053 43.5749 7.32467C44.6067 6.54337 45.8339 6.13997 47.2564 6.13997C49.3328 6.13997 51.0865 6.90854 52.5302 8.42869ZM60.8571 18.5475C60.9547 19.3628 61.167 19.9487 61.494 20.2969C62.063 20.9084 63.1288 21.2184 64.6829 21.2184C65.5916 21.2184 66.3177 21.0867 66.8485 20.8107C67.3878 20.5432 67.6553 20.1356 67.6553 19.6005C67.6553 19.0655 67.4387 18.6918 67.0099 18.4158C66.5767 18.1483 64.9717 17.6855 62.1776 17.0273C60.1777 16.5305 58.7637 15.9063 57.9441 15.1632C57.1204 14.4329 56.717 13.3756 56.717 11.9913C56.717 10.3607 57.3582 8.96372 58.6363 7.78751C59.9186 6.61555 61.7233 6.03382 64.0502 6.03382C66.2583 6.03382 68.0502 6.47543 69.4387 7.3544C70.8272 8.22912 71.6298 9.74927 71.8336 11.9106H67.2222C67.1542 11.3161 66.9886 10.8448 66.7169 10.4966C66.2073 9.87241 65.3411 9.55819 64.1182 9.55819C63.1118 9.55819 62.3984 9.71955 61.9696 10.0295C61.5407 10.3437 61.3284 10.7089 61.3284 11.1335C61.3284 11.6601 61.5577 12.0422 62.0078 12.2843C62.4664 12.5306 64.0715 12.9594 66.8273 13.5666C68.6616 13.9955 70.0459 14.6452 70.9589 15.5242C71.8675 16.4116 72.3219 17.5199 72.3219 18.8447C72.3219 20.5942 71.6722 22.0167 70.3644 23.1292C69.0608 24.2332 67.0481 24.7852 64.322 24.7852C61.5959 24.7852 59.4898 24.1992 58.1649 23.0273C56.8401 21.8553 56.1819 20.3649 56.1819 18.5517H60.8571V18.5475ZM74.772 6.53487H79.4471V24.178H74.772V6.53487ZM94.4066 19.4052C95.069 18.4456 95.4002 17.1802 95.4002 15.6133C95.4002 14.3607 95.2388 13.3246 94.9161 12.5051C94.2919 10.9552 93.1539 10.1781 91.4852 10.1781C89.8164 10.1781 88.6359 10.9382 88.0075 12.4584C87.6805 13.2694 87.5149 14.314 87.5149 15.5963C87.5149 17.1122 87.8504 18.3649 88.5255 19.3585C89.2007 20.3479 90.2283 20.8447 91.6125 20.8447C92.8057 20.8447 93.7399 20.3649 94.4023 19.4052M98.2664 8.65374C99.587 10.3225 100.245 12.4839 100.245 15.125C100.245 17.7662 99.5955 20.1398 98.2876 21.9445C96.9925 23.7449 95.1709 24.6493 92.8397 24.6493C91.3748 24.6493 90.1986 24.3563 89.3068 23.7746C88.7761 23.4264 88.2028 22.8277 87.5871 21.9615V24.1737H83.0351V0.0381311H87.6508V8.83209C88.241 8.00832 88.8865 7.38412 89.5871 6.951C90.4193 6.41598 91.4894 6.14422 92.7845 6.14422C95.1157 6.14422 96.9458 6.98073 98.2664 8.65374ZM107.383 6.53487V17.1674C107.383 18.1738 107.502 18.9296 107.736 19.4392C108.16 20.3309 108.975 20.781 110.198 20.781C111.769 20.781 112.844 20.1398 113.421 18.8744C113.723 18.1823 113.871 17.2694 113.871 16.1356V6.53063H118.546V24.178H114.062V21.6854C113.948 21.8468 113.842 22.0082 113.735 22.1738C113.57 22.4413 113.362 22.6833 113.124 22.8914C112.402 23.5368 111.706 23.9784 111.031 24.2162C110.36 24.4497 109.574 24.5686 108.67 24.5686C106.062 24.5686 104.309 23.6302 103.404 21.7491C102.899 20.7131 102.644 19.1887 102.644 17.1717V6.53063H107.37L107.383 6.53487ZM131.922 6.11874C131.977 6.12299 132.109 6.13573 132.317 6.14846V10.8788C131.875 10.8278 131.434 10.7981 130.992 10.7938C129.132 10.7938 127.888 11.4011 127.251 12.6112C126.89 13.2906 126.712 14.3395 126.712 15.7492V24.1822H122.062V6.53487H126.47V9.60915C127.179 8.43294 127.803 7.62616 128.33 7.19729C129.192 6.47118 130.317 6.11025 131.701 6.11025C131.786 6.11025 131.858 6.11025 131.918 6.1145M163.416 19.3882C164.096 18.4158 164.435 17.159 164.435 15.6133C164.435 13.4562 163.892 11.9149 162.801 10.9849C162.155 10.4287 161.327 10.1314 160.47 10.1442C159.119 10.1442 158.13 10.6537 157.501 11.6771C156.869 12.6919 156.554 13.9615 156.554 15.4732C156.554 17.1038 156.873 18.4074 157.514 19.384C158.16 20.3606 159.132 20.8489 160.44 20.8489C161.748 20.8489 162.737 20.3649 163.416 19.3925M162.278 6.81512C163.111 7.28646 163.807 7.96161 164.308 8.77264V0.0381311H168.983V24.178H164.499V21.7364C163.837 22.781 163.089 23.5411 162.249 24.0166C161.404 24.4922 160.355 24.73 159.106 24.73C157.047 24.73 155.31 23.8977 153.905 22.229C152.491 20.5602 151.79 18.4201 151.79 15.8087C151.79 12.8023 152.487 10.4287 153.871 8.70045C155.259 6.97648 157.111 6.11025 159.433 6.11025C160.503 6.11025 161.45 6.34379 162.278 6.81088M144.882 15.6346C144.584 15.8171 144.287 15.9658 143.99 16.0804C143.688 16.1866 143.276 16.297 142.75 16.3946L141.705 16.59C140.72 16.7598 140.02 16.9721 139.591 17.2184C138.865 17.6345 138.504 18.2885 138.504 19.1759C138.504 19.9572 138.72 20.5305 139.166 20.8787C139.608 21.2269 140.143 21.4052 140.78 21.4052C141.786 21.4052 142.712 21.1122 143.565 20.5305C144.41 19.953 144.852 18.8914 144.886 17.35V15.6346H144.882ZM145.026 24.195C145.026 24.195 145.06 22.5304 145.026 22.1313C144.381 22.8234 143.637 23.4179 142.818 23.8935C141.816 24.4667 140.691 24.7512 139.434 24.7512C137.833 24.7512 136.508 24.2926 135.459 23.3839C134.419 22.4752 133.892 21.1844 133.892 19.5114C133.892 17.35 134.733 15.7832 136.415 14.8108C137.34 14.2843 138.695 13.9063 140.487 13.6813L142.066 13.486C142.924 13.3798 143.536 13.2439 143.909 13.0826C144.572 12.8023 144.903 12.365 144.903 11.779C144.903 11.0529 144.644 10.5561 144.134 10.2801C143.633 10.0083 142.882 9.86817 141.901 9.86817C140.797 9.86817 140.02 10.1357 139.561 10.675C139.23 11.0741 139.013 11.6134 138.903 12.2928H134.461C134.559 10.7556 134.992 9.48601 135.761 8.49663C136.984 6.94676 139.081 6.1697 142.054 6.1697C143.99 6.1697 145.714 6.55186 147.217 7.31193C148.72 8.08475 149.468 9.52422 149.468 11.6473V19.7279C149.468 20.2884 149.48 23.4009 149.501 24.1992H145.026V24.195ZM182.38 15.6346C182.096 15.8129 181.798 15.9615 181.484 16.0804C181.085 16.2163 180.673 16.3267 180.248 16.3946L179.204 16.59C178.223 16.7598 177.518 16.9721 177.089 17.2184C176.363 17.6345 175.998 18.2885 175.998 19.1759C175.998 19.9572 176.219 20.5305 176.669 20.8787C177.111 21.2269 177.646 21.4052 178.282 21.4052C179.289 21.4052 180.215 21.1122 181.068 20.5305C181.913 19.953 182.355 18.8914 182.389 17.35V15.6346H182.38ZM182.524 24.195C182.524 24.195 182.558 22.5304 182.524 22.1313C181.879 22.8234 181.136 23.4179 180.312 23.8935C179.319 24.4667 178.193 24.7512 176.932 24.7512C175.331 24.7512 174.007 24.2926 172.958 23.3839C171.913 22.4752 171.391 21.1844 171.391 19.5114C171.391 17.35 172.232 15.7832 173.913 14.8108C174.835 14.2843 176.193 13.9063 177.985 13.6813L179.565 13.486C180.423 13.3798 181.034 13.2439 181.403 13.0826C182.066 12.8023 182.393 12.365 182.393 11.779C182.393 11.0529 182.142 10.5561 181.633 10.2801C181.123 10.0083 180.38 9.86817 179.395 9.86817C178.291 9.86817 177.514 10.1357 177.06 10.675C176.728 11.0741 176.512 11.6134 176.401 12.2928H171.96C172.057 10.7556 172.486 9.48601 173.259 8.49663C174.482 6.94676 176.58 6.1697 179.552 6.1697C181.488 6.1697 183.212 6.55186 184.716 7.31193C186.219 8.08475 186.966 9.52422 186.966 11.6473V19.7279C186.966 20.2884 186.979 23.4009 187 24.1992H182.524V24.195ZM79.5745 2.53916C79.6042 3.97015 78.4577 5.13361 77.0352 5.13361C75.6127 5.13361 74.462 3.9659 74.4917 2.53916C74.4917 -0.845086 79.5745 -0.845086 79.5745 2.53916Z" fill="#FF6000"/>
    </g>
    <defs>
        <clipPath id="clip0_232_1281">
            <rect width="187" height="30.6663" fill="white"/>
        </clipPath>
    </defs>
</svg>
