<svg width="500" height="500" viewBox="0 0 500 500" fill="none" xmlns="http://www.w3.org/2000/svg">
    <path d="M252 480.37C380.881 480.37 485.36 420.049 485.36 345.64C485.36 271.231 380.881 210.91 252 210.91C123.118 210.91 18.6396 271.231 18.6396 345.64C18.6396 420.049 123.118 480.37 252 480.37Z" fill="#F5F5F5"/>
    <path d="M147.85 412.01C186.615 412.01 218.04 393.869 218.04 371.49C218.04 349.112 186.615 330.97 147.85 330.97C109.085 330.97 77.6602 349.112 77.6602 371.49C77.6602 393.869 109.085 412.01 147.85 412.01Z" fill="#E0E0E0"/>
    <path d="M122.88 227.74C115.72 244.04 121.93 293.2 121.93 293.2C121.7 295.82 118.7 300.99 117.58 312.56C116.26 326.22 120.02 356.89 120.02 356.89C120.02 356.89 123.63 359.58 128.87 357.07C128.87 357.07 138.43 309.24 140.15 295.66C141.64 283.8 145.82 259.17 145.82 259.17L152.67 295.59C151.48 299.41 150.617 303.324 150.09 307.29C149.31 315.29 157.09 349.48 157.09 349.48C157.09 349.48 160.74 351.4 165.91 349.3C165.91 349.3 169.36 303.41 170.08 293.78C171.08 280.89 168.85 245.62 165.9 227.54L122.88 227.74Z" fill="#455A64"/>
    <path opacity="0.6" d="M145.819 259.17L147.579 247.1C147.579 247.1 157.769 245.74 162.389 241.39C161.068 243.459 159.308 245.212 157.235 246.525C155.161 247.838 152.824 248.68 150.389 248.99L148.589 259.9L151.709 291.54L145.819 259.17Z" fill="#263238"/>
    <path d="M185.699 370.41C185.699 370.41 183.449 368.55 179.589 365.55C175.729 362.55 168.289 356.76 167.489 354.55C166.689 352.34 166.759 348.19 167.489 340.68C168.319 332.2 169.489 327.46 167.369 327.49L167.269 328.89C166.769 330.07 165.269 331.13 162.409 331.67C159.139 332.28 155.149 331.22 153.549 329.89L153.279 328.32C151.879 329.21 152.569 332.46 153.279 336.72C153.989 340.98 155.519 348.29 155.459 352.57C155.461 354.864 155.344 357.157 155.109 359.44L155.049 359.88C154.849 361.1 154.818 362.342 154.959 363.57C155.229 365.05 158.589 367.24 160.889 367.63C163.189 368.02 166.429 370.28 168.239 371.98C171.13 374.365 174.707 375.766 178.449 375.98C182.289 375.98 184.959 374.7 186.229 372.64C186.899 371.63 186.639 371.06 185.699 370.41Z" fill="#92E3A9"/>
    <path opacity="0.35" d="M185.699 370.41C185.699 370.41 183.449 368.55 179.589 365.55C175.729 362.55 168.289 356.76 167.489 354.55C166.689 352.34 166.759 348.19 167.489 340.68C168.319 332.2 169.489 327.46 167.369 327.49L167.269 328.89C166.769 330.07 165.269 331.13 162.409 331.67C159.139 332.28 155.149 331.22 153.549 329.89L153.279 328.32C151.879 329.21 152.569 332.46 153.279 336.72C153.989 340.98 155.519 348.29 155.459 352.57C155.461 354.864 155.344 357.157 155.109 359.44L155.049 359.88C154.849 361.1 154.818 362.342 154.959 363.57C155.229 365.05 158.589 367.24 160.889 367.63C163.189 368.02 166.429 370.28 168.239 371.98C171.13 374.365 174.707 375.766 178.449 375.98C182.289 375.98 184.959 374.7 186.229 372.64C186.899 371.63 186.639 371.06 185.699 370.41Z" fill="black"/>
    <path d="M133.169 340.69C133.809 337.25 134.169 335.31 132.739 335L132.439 336.73C131.719 337.32 129.739 338.28 125.339 338.15C122.757 338.132 120.254 337.26 118.219 335.67L118.099 333.91C116.829 334.41 116.609 335.02 117.299 339.91C118.089 345.59 118.679 351.33 119.199 357.05C119.374 360.084 119.314 363.126 119.019 366.15C118.819 369.49 117.749 373 117.299 376.31C116.928 378.624 117.079 380.992 117.739 383.24C118.282 385.047 119.176 386.729 120.369 388.19C121.194 389.214 122.213 390.064 123.369 390.69C125.669 391.9 128.229 391.52 129.369 389.02C131.419 384.7 131.239 382.16 130.909 377.71C130.739 375.35 130.659 374.82 130.349 372.5C130.039 370.18 128.979 364.82 129.669 360.5C130.359 356.18 132.539 344.15 133.169 340.69Z" fill="#92E3A9"/>
    <path opacity="0.35" d="M133.169 340.69C133.809 337.25 134.169 335.31 132.739 335L132.439 336.73C131.719 337.32 129.739 338.28 125.339 338.15C122.757 338.132 120.254 337.26 118.219 335.67L118.099 333.91C116.829 334.41 116.609 335.02 117.299 339.91C118.089 345.59 118.679 351.33 119.199 357.05C119.374 360.084 119.314 363.126 119.019 366.15C118.819 369.49 117.749 373 117.299 376.31C116.928 378.624 117.079 380.992 117.739 383.24C118.282 385.047 119.176 386.729 120.369 388.19C121.194 389.214 122.213 390.064 123.369 390.69C125.669 391.9 128.229 391.52 129.369 389.02C131.419 384.7 131.239 382.16 130.909 377.71C130.739 375.35 130.659 374.82 130.349 372.5C130.039 370.18 128.979 364.82 129.669 360.5C130.359 356.18 132.539 344.15 133.169 340.69Z" fill="black"/>
    <path d="M180.3 218.52C180.88 212.86 180.98 209.07 180.81 208.36C180.02 205.15 178.22 202.79 175.86 198.89C171.81 192.18 166.4 183.5 162.42 178.62C159.25 174.72 155.62 174.06 151.95 174.26C149.4 174.4 152.18 185.86 154.69 193.13L169.07 210.37C169.509 210.981 169.711 211.731 169.64 212.48L168.76 225.62L173.06 231.37C173.06 231.37 179.56 225.76 180.3 218.52Z" fill="#37474F"/>
    <path d="M208.669 117.86C199.789 119.56 191.279 127.06 186.599 135.01C168.459 134.09 145.709 140.26 124.489 151.01L108.489 89.0101C143.199 82.4501 176.879 88.1801 208.669 117.86Z" fill="#92E3A9"/>
    <path opacity="0.35" d="M186.589 135C168.459 134.08 145.709 140.25 124.489 151L108.489 88.9999C132.459 87.7799 166.309 105.08 186.589 135Z" fill="black"/>
    <path opacity="0.25" d="M208.669 117.86C176.879 88.1801 143.199 82.4501 108.529 89.0001C132.469 87.8001 166.309 105.11 186.599 135C191.279 127.06 199.789 119.56 208.669 117.86Z" fill="black"/>
    <path d="M34.7695 162.61C43.3695 159.8 54.4395 162.27 62.3795 166.97C77.8295 157.41 100.72 151.83 124.49 150.97L108.49 88.9697C74.9995 99.9997 48.2895 121.27 34.7695 162.61Z" fill="#92E3A9"/>
    <path opacity="0.45" d="M62.3799 167C77.8199 157.45 100.73 151.86 124.49 151L108.49 89C86.9999 99.48 65.6999 131 62.3799 167Z" fill="black"/>
    <path opacity="0.55" d="M34.7695 162.61C48.2895 121.27 74.9995 100 108.53 89C86.9995 99.47 65.6995 131 62.3795 167C54.4395 162.27 43.3695 159.8 34.7695 162.61Z" fill="black"/>
    <path d="M137.539 174.62H131.479C131.479 174.62 131.349 175.33 129.799 176.19C126.599 177.97 122.919 182.33 122.879 186.13C122.879 190.29 123.489 194.02 125.599 199.51L129.739 208.51C130.389 212.92 125.659 215.82 121.739 230.31C133.949 237.13 150.629 235.92 159.239 232.23C161.82 231.229 164.114 229.608 165.919 227.51C164.499 220.03 163.919 220.13 163.219 213.29C162.829 210.535 162.675 207.751 162.759 204.97C166.669 199.97 167.919 193.22 165.939 188.7C161.939 179.52 155.239 173.92 151.359 174.23L137.539 174.62Z" fill="#F0F0F0"/>
    <path d="M146.599 223.86C143.458 222.219 140.086 221.062 136.599 220.43C135.889 220.5 137.539 215.49 139.209 210.69C139.209 210.69 134.129 186.96 132.839 183.53L122.839 186.48C122.882 190.95 123.807 195.367 125.559 199.48L129.699 208.48C130.349 212.89 125.619 215.79 121.699 230.28C131.009 235.48 142.919 236 151.869 234.28C147.075 234.282 142.305 233.609 137.699 232.28C131.969 230.38 129.609 226.53 132.829 225.51C134.583 224.913 136.477 224.864 138.259 225.37C139.619 225.767 140.916 226.356 142.109 227.12C144.267 228.404 146.76 229.011 149.267 228.863C151.773 228.715 154.178 227.819 156.169 226.29C161.169 222.65 157.169 217.77 157.169 217.77C157.169 217.77 149.189 225.53 146.599 223.86Z" fill="#E0E0E0"/>
    <path d="M165.349 172.26H140.349C135.875 172.26 131.584 170.483 128.421 167.319C125.257 164.155 123.479 159.864 123.479 155.39V148C123.479 142.751 125.564 137.718 129.276 134.006C132.987 130.295 138.021 128.21 143.269 128.21H145.569C150.816 128.213 155.847 130.299 159.557 134.01C163.266 137.721 165.349 142.753 165.349 148V172.26Z" fill="#263238"/>
    <path d="M158.049 137.12C160.259 138.43 162.989 143.99 162.719 155.66C162.499 165.54 159.289 167.98 157.719 168.66C156.149 169.34 153.009 168.93 149.989 168.43V174.36C149.989 174.36 153.229 176.95 152.989 179.67C152.749 182.39 146.219 182.81 142.319 180.16C138.419 177.51 137.609 174.59 137.609 174.59V160.59C137.609 160.59 135.959 162.34 133.029 160.33C132.399 159.929 131.86 159.401 131.446 158.779C131.031 158.158 130.751 157.457 130.622 156.722C130.493 155.986 130.519 155.232 130.697 154.507C130.876 153.782 131.203 153.102 131.659 152.51C132.083 152.125 132.586 151.836 133.132 151.662C133.677 151.488 134.254 151.433 134.823 151.501C135.392 151.569 135.94 151.759 136.429 152.057C136.918 152.356 137.338 152.756 137.659 153.23C137.659 153.23 141.709 152.88 148.119 149.36C152.915 146.751 156.485 142.351 158.049 137.12Z" fill="#B16668"/>
    <path d="M150.579 153.17C150.592 153.336 150.571 153.503 150.518 153.661C150.465 153.82 150.381 153.966 150.271 154.091C150.162 154.217 150.028 154.319 149.878 154.393C149.729 154.467 149.566 154.51 149.399 154.52C149.143 154.541 148.887 154.486 148.662 154.361C148.438 154.235 148.256 154.046 148.14 153.817C148.024 153.587 147.979 153.329 148.011 153.074C148.043 152.818 148.151 152.579 148.32 152.385C148.489 152.192 148.712 152.053 148.96 151.987C149.209 151.922 149.471 151.931 149.714 152.016C149.957 152.1 150.169 152.255 150.323 152.46C150.477 152.666 150.566 152.913 150.579 153.17Z" fill="#263238"/>
    <path d="M152 161.55L154.89 162.47C154.834 162.66 154.74 162.837 154.615 162.991C154.49 163.145 154.335 163.272 154.16 163.365C153.985 163.458 153.793 163.515 153.595 163.533C153.398 163.551 153.199 163.53 153.01 163.47C152.628 163.339 152.311 163.068 152.123 162.711C151.935 162.354 151.891 161.938 152 161.55Z" fill="#9A4A4D"/>
    <path d="M161.6 149.36L159.09 147.61C159.196 147.441 159.335 147.296 159.499 147.183C159.663 147.069 159.848 146.99 160.043 146.95C160.238 146.91 160.44 146.909 160.635 146.949C160.83 146.988 161.016 147.067 161.18 147.18C161.514 147.421 161.744 147.781 161.822 148.186C161.9 148.592 161.821 149.011 161.6 149.36Z" fill="#263238"/>
    <path d="M161 152.27C161.008 152.433 160.984 152.595 160.929 152.749C160.874 152.902 160.789 153.044 160.679 153.164C160.57 153.285 160.437 153.383 160.29 153.452C160.143 153.522 159.983 153.562 159.82 153.57C159.657 153.578 159.494 153.553 159.341 153.498C159.187 153.443 159.046 153.359 158.926 153.249C158.805 153.139 158.707 153.007 158.637 152.86C158.568 152.712 158.528 152.553 158.52 152.39C158.512 152.227 158.536 152.064 158.591 151.911C158.646 151.757 158.731 151.616 158.841 151.495C158.95 151.375 159.083 151.277 159.23 151.207C159.377 151.138 159.537 151.098 159.7 151.09C159.863 151.082 160.026 151.106 160.179 151.161C160.333 151.216 160.474 151.301 160.594 151.411C160.715 151.52 160.813 151.652 160.883 151.8C160.952 151.947 160.992 152.107 161 152.27Z" fill="#263238"/>
    <path d="M154.119 151.56L154.319 159.05L158.259 157.83L154.119 151.56Z" fill="#9A4A4D"/>
    <path d="M150 168.46C146.82 168.04 140.28 166.17 139.27 163.58C139.679 164.888 140.478 166.039 141.56 166.88C143.56 168.55 150 170.44 150 170.44V168.46Z" fill="#9A4A4D"/>
    <path d="M110.86 97.3099H110.48H110.03H109.64C109.06 97.3099 109.22 96.9999 109.1 96.7099L108.48 94.2299C107.99 92.1799 107.37 89.4299 106.84 86.6599C106.57 85.2799 106.33 83.8799 106.13 82.5699C106.03 81.9199 105.91 81.2899 105.84 80.6799C105.77 80.0699 105.68 79.5099 105.61 78.9799C105.54 78.4499 105.49 77.9799 105.44 77.5399C105.39 77.0999 105.35 76.7299 105.33 76.4199C105.27 75.7999 105.25 75.4199 105.25 75.4199C105.25 75.4199 105.41 75.7399 105.66 76.3099C105.79 76.5999 105.93 76.9499 106.1 77.3099C106.27 77.6699 106.46 78.1599 106.65 78.6499L107.27 80.2499C107.5 80.8199 107.7 81.4299 107.93 82.0499C108.38 83.2999 108.84 84.6299 109.27 85.9699C110.14 88.6599 110.93 91.3599 111.49 93.3999C111.76 94.3999 111.99 95.2699 112.15 95.8599C112.15 96.1699 112.46 96.3499 111.96 96.6499C111.851 96.7231 111.737 96.7899 111.62 96.8499L111.21 97.0399L110.86 97.3099Z" fill="#455A64"/>
    <path d="M131.999 212.88C129.439 213.88 119.689 210.75 114.519 209.52L129.749 194.52C133.419 187.21 132.199 177.7 131.369 175.24C126.369 175.31 124.959 176.24 119.459 183.54C115.459 188.78 103.629 202.25 99.7093 210.6C98.4193 213.34 98.4793 215.68 100.779 217.16C106.059 220.56 115.249 220.88 133.719 222.46" fill="#B16668"/>
    <path d="M130 194.94C132.9 191.51 134 182.34 131.51 174.62C129.933 174.421 128.332 174.598 126.837 175.137C125.342 175.675 123.996 176.561 122.91 177.72C117.91 182.56 106.16 199.61 106.16 199.61C102.32 203.96 97.9496 212.11 98.1596 214.28C98.3696 216.45 100.16 218.53 104.86 219.81C109.56 221.09 130 222.45 130 222.45C130.654 219.266 130.952 216.02 130.89 212.77C124.73 211.57 119.13 210.41 115.51 209.38C115.5 209.38 127.39 198 130 194.94Z" fill="#37474F"/>
    <path d="M130.88 213.07C131.772 212.963 132.618 212.617 133.33 212.07C134.15 211.51 134.92 210.88 135.77 210.38C137.92 209.237 140.153 208.258 142.45 207.45C142.662 207.34 142.901 207.291 143.14 207.31C143.269 207.345 143.389 207.409 143.49 207.497C143.59 207.586 143.669 207.696 143.72 207.82C143.818 208.072 143.872 208.34 143.88 208.61C143.94 209.17 143.8 209.74 143.88 210.3C144.55 216 132.15 215.85 130.88 213.07Z" fill="#B16668"/>
    <path d="M140.21 212.08C140.036 212.124 139.854 212.134 139.677 212.108C139.499 212.081 139.328 212.02 139.174 211.927C139.021 211.834 138.887 211.711 138.782 211.565C138.676 211.42 138.601 211.255 138.56 211.08L112.27 108.89C112.226 108.718 112.216 108.539 112.241 108.363C112.266 108.187 112.326 108.018 112.417 107.865C112.507 107.713 112.627 107.579 112.769 107.473C112.911 107.366 113.073 107.289 113.245 107.245C113.417 107.201 113.596 107.191 113.772 107.216C113.947 107.242 114.116 107.301 114.269 107.392C114.422 107.482 114.555 107.602 114.662 107.744C114.768 107.886 114.846 108.048 114.89 108.22L141.18 210.44C141.225 210.611 141.235 210.79 141.211 210.965C141.186 211.141 141.127 211.31 141.037 211.462C140.947 211.615 140.827 211.748 140.685 211.854C140.543 211.96 140.382 212.037 140.21 212.08Z" fill="#455A64"/>
    <path d="M152.86 226.44C151.541 226.916 150.137 227.112 148.738 227.015C147.339 226.917 145.975 226.529 144.735 225.875C143.495 225.221 142.404 224.315 141.534 223.216C140.663 222.116 140.032 220.847 139.68 219.49L137.74 211.99C137.717 211.908 137.711 211.822 137.722 211.738C137.733 211.653 137.761 211.572 137.804 211.498C137.847 211.425 137.904 211.36 137.972 211.309C138.04 211.258 138.117 211.221 138.2 211.2L141.54 210.34C141.707 210.298 141.884 210.323 142.032 210.411C142.18 210.499 142.287 210.643 142.33 210.81L144.27 218.31C144.46 219.043 144.804 219.726 145.279 220.316C145.753 220.905 146.348 221.387 147.024 221.728C147.699 222.07 148.44 222.264 149.196 222.297C149.952 222.33 150.707 222.201 151.41 221.92C152.62 221.402 153.602 220.464 154.176 219.278C154.749 218.093 154.875 216.741 154.53 215.47L153.74 212.42C153.593 211.88 153.636 211.307 153.862 210.795C154.088 210.284 154.482 209.865 154.98 209.61C155.296 209.457 155.643 209.376 155.994 209.373C156.346 209.37 156.694 209.446 157.013 209.594C157.331 209.743 157.613 209.96 157.838 210.231C158.062 210.502 158.223 210.819 158.31 211.16L159.09 214.16C159.759 216.615 159.492 219.231 158.341 221.5C157.189 223.77 155.236 225.53 152.86 226.44Z" fill="#92E3A9"/>
    <g opacity="0.35">
        <path d="M152.86 226.44C151.541 226.916 150.137 227.112 148.738 227.015C147.339 226.917 145.975 226.529 144.735 225.875C143.495 225.221 142.404 224.315 141.534 223.216C140.663 222.116 140.032 220.847 139.68 219.49L137.74 211.99C137.717 211.908 137.711 211.822 137.722 211.738C137.733 211.653 137.761 211.572 137.804 211.498C137.847 211.425 137.904 211.36 137.972 211.309C138.04 211.258 138.117 211.221 138.2 211.2L141.54 210.34C141.707 210.298 141.884 210.323 142.032 210.411C142.18 210.499 142.287 210.643 142.33 210.81L144.27 218.31C144.46 219.043 144.804 219.726 145.279 220.316C145.753 220.905 146.348 221.387 147.024 221.728C147.699 222.07 148.44 222.264 149.196 222.297C149.952 222.33 150.707 222.201 151.41 221.92C152.62 221.402 153.602 220.464 154.176 219.278C154.749 218.093 154.875 216.741 154.53 215.47L153.74 212.42C153.593 211.88 153.636 211.307 153.862 210.795C154.088 210.284 154.482 209.865 154.98 209.61C155.296 209.457 155.643 209.376 155.994 209.373C156.346 209.37 156.694 209.446 157.013 209.594C157.331 209.743 157.613 209.96 157.838 210.231C158.062 210.502 158.223 210.819 158.31 211.16L159.09 214.16C159.759 216.615 159.492 219.231 158.341 221.5C157.189 223.77 155.236 225.53 152.86 226.44Z" fill="black"/>
    </g>
    <path d="M130.88 213.12C132.13 213.63 136.44 213.36 139 212.81C140.242 212.607 141.437 212.184 142.53 211.56L142.11 209.91C142.11 209.91 144.18 209.8 145.11 210.69C146.04 211.58 145.5 212.87 145.89 213.39C146.336 214.045 146.674 214.768 146.89 215.53C147.05 216.2 147.89 217.53 147.83 218.21C147.77 218.89 147.83 220.39 147.83 220.39C147.362 221.301 146.659 222.071 145.794 222.619C144.929 223.168 143.934 223.475 142.91 223.51C139.2 223.77 132.69 222.23 132.69 222.23L130.88 213.12Z" fill="#B16668"/>
    <path d="M179 211.57L178.14 210.83C178.013 210.742 177.866 210.687 177.712 210.67C177.559 210.652 177.403 210.673 177.26 210.73L168 213.26C167.535 213.416 167.109 213.67 166.75 214.005C166.391 214.339 166.108 214.747 165.92 215.2L159.26 234.4C159.178 234.56 159.146 234.741 159.17 234.92C159.193 235.098 159.27 235.266 159.39 235.4L160.27 236.16C160.396 236.252 160.545 236.311 160.701 236.331C160.856 236.35 161.014 236.329 161.16 236.27L170.4 233.75C170.866 233.596 171.294 233.343 171.653 233.008C172.012 232.673 172.294 232.264 172.48 231.81L179.14 212.61C179.28 212.11 179.2 211.75 179 211.57Z" fill="#455A64"/>
    <path d="M160.11 235.14L166.77 215.94C166.955 215.487 167.235 215.079 167.593 214.744C167.95 214.409 168.375 214.155 168.84 214L178.09 211.48C178.95 211.25 179.41 211.74 179.09 212.58L172.43 231.78C172.244 232.235 171.962 232.644 171.603 232.979C171.244 233.314 170.816 233.567 170.35 233.72L161.11 236.24C160.28 236.47 159.82 236 160.11 235.14Z" fill="#92E3A9"/>
    <path d="M167.84 214.53C167.362 214.897 166.99 215.383 166.76 215.94L160.11 235.14C160.025 235.297 159.988 235.476 160.004 235.653C160.02 235.831 160.088 236 160.2 236.14L159.37 235.43C159.247 235.297 159.168 235.13 159.145 234.951C159.122 234.771 159.155 234.589 159.24 234.43L165.9 215.23C166.112 214.707 166.457 214.249 166.9 213.9L167.84 214.53Z" fill="#37474F"/>
    <path d="M176.41 220.32C175.76 222.32 173.41 223.58 169.61 224.48C165.81 225.38 163.68 229.48 164.3 230.68C164.92 231.88 171.08 233.06 173.55 232.68C176.02 232.3 178.55 228.76 179.25 227.68C179.95 226.6 180.87 218.86 180.08 217.81C179.765 217.484 179.379 217.233 178.953 217.077C178.527 216.921 178.071 216.864 177.62 216.91L176.41 220.32Z" fill="#B16668"/>
    <path d="M117.38 123.37C98.5264 124.737 80.5106 131.701 65.6395 143.37C49.9995 146.12 40.3495 153 34.7695 162.61C46.7695 120.56 76.3495 97.2601 108.53 88.9701C140.71 80.6801 177.82 86.8501 208.67 117.86C199.13 112.11 187.38 110.77 172.37 115.94C153.709 112.889 134.562 115.476 117.38 123.37Z" fill="#92E3A9"/>
    <path opacity="0.15" d="M172.369 115.94C153.705 112.887 134.554 115.474 117.369 123.37L108.529 89C145.299 79.52 172.369 115.94 172.369 115.94Z" fill="black"/>
    <path opacity="0.1" d="M208.669 117.86C177.819 86.8597 140.719 80.6897 108.529 88.9697C145.299 79.5097 172.369 115.97 172.369 115.97C187.379 110.77 199.129 112.11 208.669 117.86Z" fill="black"/>
    <path opacity="0.2" d="M65.6396 143.4C80.5126 131.734 98.5273 124.771 117.38 123.4L108.53 89C71.7596 98.44 65.6396 143.4 65.6396 143.4Z" fill="black"/>
    <path opacity="0.25" d="M34.7695 162.61C46.7695 120.56 76.3495 97.2597 108.53 88.9697C71.7595 98.4397 65.6395 143.4 65.6395 143.4C49.9995 146.12 40.3495 153 34.7695 162.61Z" fill="black"/>
    <path d="M311.845 326.747H218V399.84H311.845V326.747Z" fill="#92E3A9"/>
    <path opacity="0.3" d="M311.845 326.747H218V399.84H311.845V326.747Z" fill="black" stroke="#263238" stroke-linecap="round" stroke-linejoin="round"/>
    <path d="M311.845 326.747H218V399.84H311.845V326.747Z" stroke="#263238" stroke-linecap="round" stroke-linejoin="round"/>
    <path d="M284.884 326.747H218V399.84H284.884V326.747Z" fill="#92E3A9" stroke="#263238" stroke-linecap="round" stroke-linejoin="round"/>
    <path d="M258.216 326.747H243.848V347.15H258.216V326.747Z" fill="white" stroke="#263238" stroke-linecap="round" stroke-linejoin="round"/>
    <path d="M278.555 353.115H261.896V360.406H278.555V353.115Z" fill="white"/>
    <path d="M245.604 365.352L228.441 361.709L225.909 370.486L243.071 374.129L245.604 365.352Z" fill="white"/>
    <path d="M385.656 326.747H291.811V399.84H385.656V326.747Z" fill="#92E3A9"/>
    <path opacity="0.3" d="M385.656 326.747H291.811V399.84H385.656V326.747Z" fill="black" stroke="#263238" stroke-linecap="round" stroke-linejoin="round"/>
    <path d="M385.656 326.747H291.811V399.84H385.656V326.747Z" stroke="#263238" stroke-linecap="round" stroke-linejoin="round"/>
    <path d="M358.694 326.747H291.811V399.84H358.694V326.747Z" fill="#92E3A9" stroke="#263238" stroke-linecap="round" stroke-linejoin="round"/>
    <path d="M332.028 326.747H317.659V347.15H332.028V326.747Z" fill="white" stroke="#263238" stroke-linecap="round" stroke-linejoin="round"/>
    <path d="M345.558 382.143H328.899V389.433H345.558V382.143Z" fill="white"/>
    <path d="M319.405 365.355L302.243 361.712L299.711 370.489L316.873 374.132L319.405 365.355Z" fill="white"/>
    <path d="M460 326.747H366.154V399.84H460V326.747Z" fill="#92E3A9"/>
    <path opacity="0.3" d="M460 326.747H366.154V399.84H460V326.747Z" fill="black" stroke="#263238" stroke-linecap="round" stroke-linejoin="round"/>
    <path d="M460 326.747H366.154V399.84H460V326.747Z" stroke="#263238" stroke-linecap="round" stroke-linejoin="round"/>
    <path d="M433.038 326.747H366.154V399.84H433.038V326.747Z" fill="#92E3A9" stroke="#263238" stroke-linecap="round" stroke-linejoin="round"/>
    <path d="M406.363 326.747H391.994V347.15H406.363V326.747Z" fill="white" stroke="#263238" stroke-linecap="round" stroke-linejoin="round"/>
    <path d="M427.353 359.078L415.331 349.187L409.447 354.448L421.469 364.339L427.353 359.078Z" fill="white"/>
    <path d="M393.743 365.359L376.581 361.716L374.049 370.493L391.211 374.136L393.743 365.359Z" fill="white"/>
    <path d="M350.176 254H256.331V327.094H350.176V254Z" fill="#92E3A9"/>
    <path opacity="0.3" d="M350.176 254H256.331V327.094H350.176V254Z" fill="black" stroke="#263238" stroke-linecap="round" stroke-linejoin="round"/>
    <path d="M350.176 254H256.331V327.094H350.176V254Z" stroke="#263238" stroke-linecap="round" stroke-linejoin="round"/>
    <path d="M323.215 254H256.331V327.094H323.215V254Z" fill="#92E3A9" stroke="#263238" stroke-linecap="round" stroke-linejoin="round"/>
    <path d="M296.547 254H282.179V274.404H296.547V254Z" fill="white" stroke="#263238" stroke-linecap="round" stroke-linejoin="round"/>
    <path d="M316.886 280.361H300.228V287.651H316.886V280.361Z" fill="white"/>
    <path d="M314.843 304.182L297.681 300.539L295.148 309.316L312.31 312.959L314.843 304.182Z" fill="white"/>
    <path d="M423.987 254H330.142V327.094H423.987V254Z" fill="#92E3A9"/>
    <path opacity="0.3" d="M423.987 254H330.142V327.094H423.987V254Z" fill="black" stroke="#263238" stroke-linecap="round" stroke-linejoin="round"/>
    <path d="M423.987 254H330.142V327.094H423.987V254Z" stroke="#263238" stroke-linecap="round" stroke-linejoin="round"/>
    <path d="M397.026 254H330.142V327.094H397.026V254Z" fill="#92E3A9" stroke="#263238" stroke-linecap="round" stroke-linejoin="round"/>
    <path d="M370.359 254H355.99V274.404H370.359V254Z" fill="white" stroke="#263238" stroke-linecap="round" stroke-linejoin="round"/>
    <path d="M378.176 281.418H361.518V288.708H378.176V281.418Z" fill="white"/>
    <path d="M357.738 292.601L340.576 288.958L338.044 297.735L355.206 301.378L357.738 292.601Z" fill="white"/>
</svg>
