<svg width="26" height="26" viewBox="0 0 26 26" fill="none" xmlns="http://www.w3.org/2000/svg">
    <path d="M20 2.37312C20 2.36738 20 2.36164 19.9935 2.3559C19.9935 2.35016 19.9871 2.33868 19.9871 2.33294C19.9871 2.3272 19.9806 2.32146 19.9806 2.31572C19.9806 2.30998 19.9742 2.2985 19.9742 2.29276C19.9742 2.28702 19.9677 2.28128 19.9677 2.27554C19.9677 2.26979 19.9613 2.26405 19.9548 2.25257C19.9548 2.24683 19.9483 2.24109 19.9483 2.23535C19.9419 2.22961 19.9419 2.22387 19.9354 2.21813C19.929 2.21239 19.929 2.20665 19.9225 2.20091C19.916 2.19517 19.916 2.18943 19.9096 2.18369C19.9031 2.17795 19.8967 2.17221 19.8967 2.16647C19.8902 2.16073 19.8902 2.15499 19.8838 2.14925C19.8773 2.14351 19.8708 2.13777 19.8644 2.13203C19.8579 2.12629 19.8515 2.12055 19.845 2.11481C19.8386 2.10907 19.8321 2.10333 19.8256 2.10333C19.8192 2.09759 19.8127 2.09185 19.8063 2.0861C19.7998 2.0861 19.7998 2.08036 19.7934 2.08036C19.7934 2.08036 19.7869 2.08036 19.7869 2.07462C19.7804 2.06888 19.774 2.06314 19.7611 2.06314C19.7546 2.0574 19.7481 2.0574 19.7417 2.05166C19.7352 2.04592 19.7223 2.04592 19.7159 2.04018C19.7094 2.04018 19.7029 2.03444 19.6965 2.03444C19.69 2.0287 19.6836 2.0287 19.6707 2.0287C19.6642 2.0287 19.6577 2.02296 19.6513 2.02296C19.6448 2.02296 19.6384 2.01722 19.6319 2.01722C19.6254 2.01722 19.6125 2.01148 19.6061 2.01148C19.5996 2.01148 19.5932 2.01148 19.5867 2.00574C19.5802 2.00574 19.5673 2.00574 19.5609 2C19.5544 2 19.548 2 19.5415 2C19.535 2 19.5221 2 19.5157 2H19.5092H0.490797H0.48434C0.477882 2 0.464966 2 0.458508 2C0.45205 2 0.445593 2 0.439135 2C0.432677 2 0.419761 2 0.413303 2.00574C0.406845 2.00574 0.400387 2.00574 0.39393 2.01148C0.387472 2.01148 0.381014 2.01722 0.368098 2.01722C0.361641 2.01722 0.355183 2.02296 0.348725 2.02296C0.342267 2.02296 0.335809 2.0287 0.329351 2.0287C0.322893 2.0287 0.309978 2.03444 0.30352 2.03444C0.297062 2.03444 0.290604 2.04018 0.284146 2.04018C0.277688 2.04592 0.264772 2.04592 0.258315 2.05166C0.251857 2.05166 0.245399 2.0574 0.238941 2.06314C0.232483 2.06888 0.219568 2.07462 0.21311 2.07462C0.21311 2.07462 0.206652 2.07462 0.206652 2.08036C0.200194 2.08036 0.200194 2.0861 0.193736 2.0861C0.187278 2.09185 0.18082 2.09759 0.174363 2.10333C0.167905 2.10907 0.161447 2.11481 0.154989 2.11481C0.148531 2.12055 0.142073 2.12629 0.135615 2.13203C0.129157 2.13777 0.1227 2.14351 0.116242 2.14925C0.109784 2.15499 0.109784 2.16073 0.103326 2.16647C0.0968678 2.17221 0.0904102 2.17795 0.0904102 2.18369C0.0839523 2.18943 0.0839525 2.19517 0.0774947 2.20091C0.0710368 2.20665 0.0710365 2.21239 0.0645786 2.21813C0.0581208 2.22387 0.058121 2.22961 0.0516631 2.23535C0.0452052 2.24109 0.0452053 2.24683 0.0452053 2.25257C0.0387475 2.25831 0.0387472 2.26405 0.0322893 2.27554C0.0322893 2.28128 0.0258316 2.28702 0.0258316 2.29276C0.0258316 2.2985 0.0193738 2.30998 0.0193738 2.31572C0.0193738 2.32146 0.012916 2.3272 0.012916 2.33294C0.012916 2.33868 0.00645776 2.35016 0.00645776 2.3559C0.00645776 2.36164 0.00645786 2.36738 0 2.37312C0 2.37886 0 2.3846 0 2.39608C0 2.40182 0 2.4133 0 2.41904C0 2.42478 0 2.42478 0 2.43052V20.3518C0 20.5872 0.219567 20.7823 0.48434 20.7823H19.5157C19.7804 20.7823 20 20.5872 20 20.3518V2.43052C20 2.42478 20 2.42478 20 2.41904C20 2.4133 20 2.40182 20 2.39608C20 2.39034 20 2.37886 20 2.37312ZM9.52535 8.13066V7.40164H10.4876L9.52535 8.13066ZM11.3077 6.54059H8.7052H4.44301L1.44656 2.86105H18.5793L15.5828 6.54059H11.3077ZM0.975137 3.75654L3.79722 7.22369C3.88763 7.33276 4.03616 7.40164 4.19115 7.40164H10.4876L9.52535 8.13066C9.52535 8.36602 9.52535 8.99171 9.52535 8.99171V19.9213H0.975137V3.75654ZM10.4876 19.9213V8.99171V7.40164C10.7523 7.40164 11.7921 7.40164 11.7921 7.40164H15.8153C15.9703 7.40164 16.1188 7.33276 16.2092 7.22369L19.0313 3.75654V19.9213H10.4876Z" fill="#0ABD19"/>
    <path d="M25.9939 14.5198C25.9805 14.3379 25.9052 14.1664 25.7809 14.0349C25.6567 13.9034 25.4913 13.8201 25.3132 13.7994C21.4796 13.3253 20.1898 11.4286 20.1451 11.3556C20.0757 11.2459 19.9802 11.1557 19.8674 11.0936C19.7547 11.0314 19.6284 10.9992 19.5002 11C19.3729 10.9991 19.2474 11.0302 19.1349 11.0907C19.0223 11.1511 18.9263 11.239 18.8553 11.3465C18.8105 11.4286 17.5207 13.3253 13.6871 13.7994C13.509 13.8201 13.3436 13.9034 13.2194 14.0349C13.0951 14.1664 13.0198 14.3379 13.0064 14.5198C13.0064 14.8572 12.5585 22.7265 19.1688 25.9271C19.2744 25.9752 19.3889 26 19.5046 26C19.6204 26 19.7348 25.9752 19.8405 25.9271C26.4328 22.69 25.9939 14.8572 25.9939 14.5198ZM19.4822 24.3405C15.0575 21.9514 14.5559 17.0456 14.5201 15.2219C16.3555 14.9897 18.0822 14.2092 19.4822 12.9788C20.8793 14.2287 22.6094 15.0285 24.4533 15.2766C24.4175 17.0092 23.907 21.9514 19.4822 24.3405Z" fill="#0ABD19"/>
</svg>
