<svg width="187" height="20" viewBox="0 0 187 20" fill="none" xmlns="http://www.w3.org/2000/svg">
    <g clip-path="url(#clip0_237_1620)">
        <mask id="mask0_237_1620" style="mask-type:luminance" maskUnits="userSpaceOnUse" x="0" y="0" width="187" height="20">
            <path d="M0 0H186.589V19.3032H0V0Z" fill="white"/>
        </mask>
        <g mask="url(#mask0_237_1620)">
            <path d="M26.2812 2.20297C26.2812 0.948262 27.1016 0.102539 28.3817 0.102539C29.6617 0.102539 30.4809 0.947055 30.4809 2.20176V17.1014C30.4809 18.3562 29.6617 19.2007 28.3817 19.2007C27.1016 19.2007 26.2825 18.3562 26.2825 17.1014V2.20176L26.2812 2.20297ZM34.0098 2.56129C34.0098 0.819171 34.8543 0.102539 36.6471 0.102539C37.5181 0.102539 38.2867 0.43552 38.7463 1.20403L46.0936 13.0574H46.1455V2.12576C46.1455 0.7685 46.914 0.102539 48.1651 0.102539C49.4198 0.102539 50.1883 0.7685 50.1883 2.12576V16.5887C50.1883 18.2536 49.4717 19.2007 47.7042 19.2007C46.3723 19.2007 45.9368 18.9196 45.3999 18.0738L38.1045 6.55223H38.0526V17.1774C38.0526 18.5347 37.2841 19.2007 36.0294 19.2007C34.7747 19.2007 34.0062 18.5347 34.0062 17.1774V2.56129H34.0098ZM56.8624 3.96922H53.8704C52.6663 3.96922 51.6927 3.35513 51.6927 2.20297C51.6927 1.05081 52.6663 0.43552 53.8692 0.43552H64.0516C65.2557 0.43552 66.2293 1.05081 66.2293 2.20297C66.2293 3.35513 65.2569 3.97042 64.0528 3.97042H61.0584V17.1051C61.0584 18.3598 60.238 19.2043 58.9592 19.2043C57.6779 19.2043 56.8588 18.3598 56.8588 17.1051V3.96922H56.8624ZM67.747 2.89547C67.747 1.02547 68.7194 0.43552 70.2021 0.43552H79.4085C80.6379 0.43552 81.5343 0.795042 81.5343 2.12576C81.5343 3.45768 80.6415 3.816 79.4085 3.816H71.943V7.80935H78.4096C79.5111 7.80935 80.3822 8.11579 80.3822 9.42117C80.3822 10.7278 79.5111 11.0354 78.4096 11.0354H71.943V15.4908H79.6136C80.843 15.4908 81.7394 15.8491 81.7394 17.1811C81.7394 18.513 80.843 18.8713 79.6136 18.8713H70.2021C68.717 18.8713 67.747 18.2826 67.747 16.4126V2.89547ZM83.5805 2.89547C83.5805 1.02547 84.5529 0.43552 86.038 0.43552H92.3767C97.3714 0.43552 98.6985 3.17658 98.6985 5.55449C98.6985 7.55238 97.521 9.52372 95.5267 9.98458V10.0365C97.6778 10.3441 98.0627 11.9065 98.0627 13.7753C98.0627 15.901 98.6261 16.6912 98.6261 17.5659C98.6261 18.5383 97.6272 19.2043 96.6536 19.2043C94.3492 19.2043 94.1695 16.976 94.1695 16.234C94.1695 13.0067 93.5807 11.7038 91.2752 11.7038H87.7765V17.1051C87.7765 18.3598 86.9561 19.2043 85.6773 19.2043C84.396 19.2043 83.5768 18.3598 83.5768 17.1051V2.89427H83.5805V2.89547ZM87.7765 8.62733H91.3235C92.9112 8.62733 94.4988 8.21713 94.4988 6.14324C94.4988 4.1719 93.296 3.65916 91.4514 3.65916H87.7765V8.62733Z" fill="#E30613"/>
            <path d="M151.929 2.89548C151.929 1.02548 152.903 0.435529 154.388 0.435529H160.727C165.718 0.435529 167.049 3.17659 167.049 5.5545C167.049 7.55239 165.871 9.52373 163.877 9.98459V10.0365C166.028 10.3441 166.412 11.9065 166.412 13.7753C166.412 15.901 166.975 16.6913 166.975 17.5659C166.975 18.5383 165.977 19.2043 165.004 19.2043C162.698 19.2043 162.52 16.976 162.52 16.234C162.52 13.0068 161.931 11.7038 159.625 11.7038H156.13V17.1051C156.13 18.3598 155.31 19.2043 154.03 19.2043C152.75 19.2043 151.929 18.3598 151.929 17.1051V2.89428V2.89548ZM156.13 8.62734H159.677C161.265 8.62734 162.852 8.21714 162.852 6.14325C162.852 4.17191 161.648 3.65917 159.805 3.65917H156.13V8.62734ZM111.15 8.19181C114.988 9.06286 115.964 11.3419 115.964 13.493C115.964 16.8228 113.454 19.3032 108.387 19.3032C103.063 19.3032 100.682 16.6394 100.682 14.6427C100.682 13.6172 101.425 12.9006 102.449 12.9006C104.728 12.9006 104.138 16.2304 108.387 16.2304C110.564 16.2304 111.768 15.0264 111.768 13.797C111.768 13.055 111.409 12.2346 109.975 11.8763L105.241 10.6723C101.428 9.69987 100.736 7.59944 100.736 5.6281C100.73 1.53702 104.521 0 108.077 0C111.355 0 115.219 1.84346 115.219 4.29979C115.219 5.34941 114.322 5.9647 113.297 5.9647C111.351 5.9647 111.71 3.22364 107.791 3.22364C105.845 3.22364 104.77 4.12003 104.77 5.40008C104.77 6.68133 106.306 7.09032 107.634 7.39796L111.15 8.19181ZM117.805 2.89548C117.805 1.02548 118.778 0.435529 120.264 0.435529H126.039C129.573 0.435529 132.411 2.17765 132.411 6.27114C132.411 9.62628 130.082 12.1079 126.012 12.1079H122.004V17.0978C122.004 18.3525 121.185 19.1971 119.905 19.1971C118.624 19.1971 117.805 18.3525 117.805 17.0978V2.89548ZM122.002 8.88431H125.267C126.957 8.88431 128.209 7.85883 128.209 6.27114C128.209 4.42768 126.903 3.65917 124.829 3.65917H121.998V8.8831L122.002 8.88431ZM141.638 0C147.681 0 149.656 4.0211 149.656 9.42118C149.656 14.6162 147.938 19.3032 141.638 19.3032C135.034 19.3032 133.619 15.0046 133.619 9.42118C133.619 4.0211 135.598 0 141.638 0ZM141.638 15.9227C145.451 15.9227 145.457 12.9549 145.457 9.42118C145.457 5.88628 145.069 3.38048 141.638 3.38048C138.206 3.38048 137.819 5.8899 137.819 9.42118C137.819 12.9561 137.694 15.9227 141.638 15.9227ZM172.638 3.96923H169.645C168.442 3.96923 167.468 3.35514 167.468 2.20298C167.468 1.05082 168.442 0.435529 169.645 0.435529H179.828C181.033 0.435529 182.005 1.05082 182.005 2.20298C182.005 3.35514 181.033 3.97043 179.828 3.97043H176.835V17.1051C176.835 18.3598 176.016 19.2043 174.735 19.2043C173.455 19.2043 172.636 18.3598 172.636 17.1051V3.96923H172.638ZM185.827 3.07042L185.401 2.20901C185.654 2.14869 185.805 1.95325 185.805 1.73126C185.803 1.64968 185.781 1.56992 185.74 1.49901C185.7 1.4281 185.643 1.36823 185.574 1.32468C185.426 1.22817 185.258 1.21007 185.081 1.21007H184.268V3.07042H184.54V2.2621H185.091L185.494 3.0668H185.827V3.07042ZM184.54 2.07389V1.41155H185.081C185.194 1.41155 185.286 1.41517 185.382 1.47187C185.488 1.53219 185.533 1.62026 185.533 1.72885C185.533 1.77506 185.523 1.8208 185.504 1.86275C185.484 1.90469 185.456 1.94179 185.42 1.97134C185.315 2.06786 185.194 2.07389 185.049 2.07389H184.54Z" fill="#164196"/>
            <path d="M184.953 3.8244C184.532 3.80462 184.136 3.62368 183.845 3.31916C183.555 3.01464 183.393 2.60993 183.393 2.18906C183.393 1.76818 183.555 1.36347 183.845 1.05895C184.136 0.754429 184.532 0.573495 184.953 0.553711C185.376 0.569959 185.776 0.749427 186.07 1.05445C186.363 1.35947 186.527 1.76634 186.527 2.18966C186.527 2.61298 186.363 3.01984 186.07 3.32487C185.776 3.62989 185.376 3.80815 184.953 3.8244ZM184.953 0.842053C184.77 0.832568 184.587 0.860439 184.415 0.923971C184.243 0.987503 184.085 1.08537 183.952 1.2116C183.82 1.33784 183.714 1.48981 183.641 1.65827C183.569 1.82672 183.532 2.00814 183.532 2.19147C183.532 2.3748 183.569 2.55622 183.641 2.72467C183.714 2.89313 183.82 3.0451 183.952 3.17133C184.085 3.29757 184.243 3.39544 184.415 3.45897C184.587 3.5225 184.77 3.55037 184.953 3.54089C185.299 3.52297 185.624 3.37299 185.863 3.12188C186.101 2.87078 186.234 2.53773 186.234 2.19147C186.234 1.8452 186.101 1.51215 185.863 1.26105C185.624 1.00995 185.299 0.859968 184.953 0.842053Z" fill="#164196"/>
            <path d="M4.41085e-08 4.36007C-7.91807e-05 3.81822 0.106566 3.28167 0.313847 2.78104C0.521128 2.28042 0.824985 1.82552 1.20807 1.44232C1.59115 1.05912 2.04596 0.755135 2.54653 0.547707C3.0471 0.34028 3.58362 0.233478 4.12546 0.233398C4.6673 0.233319 5.20386 0.339965 5.70448 0.547246C6.20511 0.754527 6.66001 1.05838 7.04321 1.44147C7.4264 1.82455 7.73039 2.27936 7.93782 2.77993C8.14525 3.2805 8.25205 3.81702 8.25213 4.35886C8.25213 5.45316 7.81742 6.50264 7.04363 7.27643C6.26985 8.05022 5.22037 8.48492 4.12606 8.48492C3.03176 8.48492 1.98228 8.05022 1.2085 7.27643C0.434709 6.50264 6.04149e-08 5.45316 4.41085e-08 4.35886V4.36007Z" fill="#E30613"/>
            <path d="M4.13319 19.0207C3.56978 19.0207 3.11133 18.5212 3.11133 17.9071V11.1426C3.11133 10.5273 3.55289 10.029 4.13319 10.029C10.6239 10.029 11.1403 1.24121 20.4685 1.24121C21.032 1.24121 21.4892 1.74068 21.4892 2.35597V9.04816C21.4892 9.66345 21.0308 10.1617 20.4685 10.1617C14.1069 10.1617 13.71 19.0207 4.13319 19.0207Z" fill="#164196"/>
        </g>
    </g>
    <defs>
        <clipPath id="clip0_237_1620">
            <rect width="187" height="19.3032" fill="white"/>
        </clipPath>
    </defs>
</svg>
