<svg width="187" height="66" viewBox="0 0 187 66" fill="none" xmlns="http://www.w3.org/2000/svg">
    <path d="M33.0059 46.8436C33.0059 38.1481 33.0059 29.3591 33.0059 20.6636C73.3979 20.6636 113.79 20.6636 154.182 20.6636C154.182 29.3591 154.182 38.1481 154.182 46.8436C113.79 46.8436 73.3979 46.8436 33.0059 46.8436Z" fill="#FEFEFE"/>
    <path d="M49.0882 27.2084C49.1817 26.9279 49.1817 26.6474 49.2752 26.3669C49.6492 24.7774 49.9297 23.1879 50.3037 21.6919C50.3972 21.3179 50.3972 21.3179 50.7712 21.3179C51.2387 21.2244 51.7062 21.3179 52.2672 21.3179C53.8567 21.3179 55.4462 21.3179 57.0357 21.3179C57.6902 21.3179 58.4382 21.3179 59.0927 21.4114C61.2432 21.6919 62.8327 22.8139 63.8612 24.7774C64.2352 25.6189 64.4222 26.4604 64.4222 27.3019C64.4222 28.3304 64.3287 29.3589 63.9547 30.2939C63.4872 31.5094 62.8327 32.6314 61.9912 33.5664C61.2432 34.4079 60.4017 35.0624 59.4667 35.6234C59.3732 35.7169 59.2797 35.7169 59.1862 35.8104C58.9992 35.9974 58.9992 35.9974 59.0927 36.1844C59.2797 36.4649 59.3732 36.7454 59.5602 37.0259C61.0562 39.7374 62.5522 42.5424 64.0482 45.2539C64.0482 45.3474 64.1417 45.3474 64.1417 45.4409C64.0482 45.4409 63.9547 45.4409 63.8612 45.4409C61.3367 45.4409 58.8122 45.4409 56.2877 45.4409C56.1007 45.4409 56.0072 45.3474 55.9137 45.1604C54.9787 43.3839 53.9502 41.5139 53.0152 39.7374C52.1737 38.1479 51.3322 36.6519 50.4907 35.0624C49.8362 33.9404 49.2752 32.8184 48.6207 31.6964C48.5272 31.6029 48.5272 31.4159 48.3402 31.3224C48.2467 31.3224 48.2467 31.4159 48.2467 31.5094C47.9662 32.9119 47.6857 34.3144 47.4052 35.8104C47.1247 37.3064 46.7507 38.8024 46.4702 40.2984C46.0962 41.9814 45.8157 43.6644 45.4417 45.3474C45.4417 45.5344 45.4417 45.5344 45.2547 45.5344C43.4782 45.5344 41.6082 45.5344 39.8317 45.5344C39.4577 45.5344 39.0837 45.5344 38.8032 45.5344C38.6162 45.5344 38.6162 45.5344 38.6162 45.3474C38.7097 44.6929 38.8967 44.0384 38.9902 43.3839C39.3642 41.7944 39.7382 40.2049 40.1122 38.6154C40.4862 37.0259 41.1407 35.6234 42.2627 34.4079C43.4782 32.9119 45.0677 31.9769 46.9377 31.6029C47.4987 31.5094 48.1532 31.4159 48.7142 31.4159C49.5557 31.4159 50.3972 31.4159 51.2387 31.4159C52.1737 31.4159 53.1087 31.4159 54.0437 31.4159C54.4177 31.4159 54.7917 31.4159 55.0722 31.2289C56.0072 30.8549 56.6617 29.8264 56.6617 28.7979C56.6617 28.4239 56.5682 28.1434 56.2877 27.8629C56.0072 27.5824 55.6332 27.3954 55.2592 27.3954C54.1372 27.3954 53.0152 27.3954 51.8932 27.3019C51.1452 27.3019 50.3972 27.3019 49.5557 27.3019C49.2752 27.2084 49.1817 27.2084 49.0882 27.2084Z" fill="#64A70B"/>
    <path d="M95.8374 27.8632C96.0244 27.8632 96.2114 27.7697 96.3984 27.6762C97.0529 27.4892 97.8009 27.3957 98.5489 27.3022C99.1099 27.2087 99.6709 27.2087 100.325 27.2087C102.102 27.2087 103.785 27.6762 105.281 28.5177C106.496 29.2657 107.525 30.2942 108.179 31.5097C108.46 32.1642 108.74 32.8187 108.927 33.4732C109.021 33.8472 109.021 34.1277 109.021 34.5017C109.021 35.1562 109.021 35.9042 108.927 36.5587C108.834 37.3067 108.647 38.0547 108.366 38.7092C107.992 39.7377 107.525 40.6727 106.87 41.5142C106.122 42.5427 105.281 43.2907 104.252 43.9452C102.756 44.8802 101.167 45.4412 99.4839 45.7217C98.3619 45.9087 97.2399 46.0022 96.1179 46.0022C94.5284 46.0022 93.0324 45.7217 91.6299 45.0672C90.2274 44.4127 89.1054 43.4777 88.2639 42.0752C87.7964 41.2337 87.5159 40.2987 87.4224 39.3637C87.3289 38.4287 87.4224 37.4937 87.6094 36.5587C88.0769 34.0342 88.6379 31.5097 89.1989 29.0787C89.7599 26.5542 90.3209 24.0297 90.7884 21.5052C90.8819 21.2247 90.8819 21.2247 91.0689 21.2247C91.8169 21.1312 92.4714 21.2247 93.2194 21.2247C94.3414 21.2247 95.4634 21.2247 96.6789 21.2247C96.8659 21.2247 97.0529 21.2247 97.2399 21.2247C97.4269 21.2247 97.4269 21.2247 97.3334 21.4117C97.2399 21.9727 97.0529 22.6272 96.9594 23.1882C96.6789 24.6842 96.3049 26.0867 96.0244 27.5827C95.8374 27.7697 95.8374 27.7697 95.8374 27.8632Z" fill="#64A70B"/>
    <path d="M118.932 46.1892C117.903 46.1892 116.875 46.0957 115.846 45.8152C114.537 45.4412 113.415 44.8802 112.387 43.9452C111.545 43.1972 110.984 42.2622 110.61 41.1402C110.33 40.2052 110.236 39.2702 110.33 38.3352C110.423 37.4002 110.517 36.4652 110.797 35.5302C111.171 34.2212 111.826 33.0992 112.667 31.9772C113.976 30.2942 115.659 29.0787 117.623 28.2372C118.745 27.7697 119.96 27.3957 121.269 27.2087C122.204 27.1152 123.233 27.1152 124.168 27.1152C125.009 27.1152 125.757 27.3022 126.599 27.4892C127.814 27.7697 128.843 28.3307 129.871 29.0787C130.993 30.0137 131.741 31.2292 132.115 32.6317C132.302 33.5667 132.396 34.5017 132.209 35.5302C132.022 36.8392 131.741 38.1482 131.18 39.3637C130.152 41.6077 128.562 43.2907 126.412 44.4127C125.009 45.1607 123.607 45.5347 122.017 45.7217C120.895 46.0957 119.96 46.1892 118.932 46.1892Z" fill="#64A70B"/>
    <path d="M72.4626 46.1892C71.6211 46.1892 70.4991 46.0957 69.3771 45.7217C68.2551 45.3477 67.2266 44.8802 66.3851 44.2257C65.3566 43.3842 64.7021 42.3557 64.3281 41.1402C63.9541 39.9247 63.8606 38.8027 64.0476 37.5872C64.3281 35.9977 64.7956 34.5017 65.7306 33.0992C66.9461 31.2292 68.5356 29.8267 70.4991 28.7982C71.9016 28.0502 73.3976 27.6762 74.9871 27.3957C75.7351 27.3022 76.5766 27.3022 77.3246 27.3022C77.7921 27.3022 78.1661 27.3022 78.6336 27.3957C80.1296 27.5827 81.5321 27.9567 82.7476 28.7982C83.6826 29.4527 84.4306 30.2007 84.9916 31.1357C85.3656 31.7902 85.5526 32.4447 85.7396 33.1927C86.0201 34.8757 85.7396 36.4652 85.2721 38.0547C84.8046 39.4572 84.1501 40.7662 83.2151 41.9817C82.3736 43.0102 81.3451 43.8517 80.1296 44.5062C78.8206 45.2542 77.4181 45.7217 75.9221 45.9087C74.8936 46.0957 73.8651 46.1892 72.4626 46.1892Z" fill="#64A70B"/>
    <path d="M145.206 39.9246C145.019 40.6726 144.926 41.4206 144.739 42.0751C144.458 43.2906 144.178 44.5061 143.991 45.8151C143.897 46.0956 143.897 46.0956 143.617 46.0956C142.401 46.0956 141.186 46.0021 139.97 45.7216C138.474 45.3476 137.072 44.7866 135.856 43.8516C134.734 42.9166 133.986 41.7946 133.612 40.4856C133.519 40.2051 133.519 40.0181 133.519 39.7376C133.519 39.0831 133.519 38.3351 133.519 37.6806C133.612 37.1196 133.706 36.4651 133.799 35.9041C134.267 33.8471 134.641 31.7901 135.108 29.8266C135.576 27.7696 135.95 25.7126 136.417 23.5621C136.604 22.8141 136.698 22.1596 136.885 21.4116C136.885 21.2246 136.885 21.2246 137.165 21.2246C139.035 21.2246 140.905 21.2246 142.775 21.2246C142.962 21.2246 143.056 21.2246 143.243 21.2246C143.43 21.2246 143.43 21.3181 143.43 21.5051C143.336 21.8791 143.336 22.1596 143.243 22.5336C142.962 23.9361 142.588 25.4321 142.308 26.8346V26.9281C142.308 27.1151 142.308 27.1151 142.401 27.1151C142.962 27.1151 143.523 27.1151 144.084 27.1151C145.019 27.1151 145.954 27.1151 146.796 27.1151C147.076 27.1151 147.357 27.1151 147.544 27.1151C147.824 27.1151 147.824 27.1151 147.731 27.3956C147.544 28.5176 147.263 29.5461 147.076 30.6681C146.983 31.3226 146.796 31.8836 146.702 32.5381C146.702 32.7251 146.702 32.7251 146.422 32.7251C144.926 32.7251 143.43 32.7251 141.84 32.7251C141.56 32.7251 141.279 32.7251 140.999 32.7251C140.905 32.7251 140.812 32.7251 140.812 32.9121C140.625 33.7536 140.438 34.5951 140.251 35.4366C140.157 35.9041 140.064 36.3716 139.97 36.9326C139.877 37.8676 140.157 38.6156 140.905 39.0831C141.56 39.5506 142.401 39.8311 143.243 39.9246C143.71 39.9246 144.178 39.9246 144.739 39.9246C145.019 39.9246 145.113 39.9246 145.206 39.9246Z" fill="#64A70B"/>
    <path d="M44.0389 27.5824C42.1689 27.6759 40.7664 25.9929 40.8599 24.4034C40.8599 22.5334 42.2624 21.1309 44.1324 21.1309C46.1894 21.2244 47.4049 22.7204 47.4049 24.4034C47.3114 25.8994 46.0959 27.5824 44.0389 27.5824Z" fill="#64A70B"/>
    <path d="M146.328 21.4116C147.263 21.4116 148.011 22.1596 148.011 23.0946C148.011 24.0296 147.263 24.7776 146.328 24.7776C145.393 24.7776 144.645 24.0296 144.645 23.0946C144.645 22.1596 145.393 21.4116 146.328 21.4116Z" fill="#65A70C"/>
    <path d="M102.383 35.7169C102.383 37.0259 102.009 38.0544 101.074 38.9894C100.232 39.9244 99.1101 40.4854 97.8011 40.5789C97.2401 40.5789 96.6791 40.5789 96.1181 40.4854C94.9961 40.2984 93.9676 39.4569 93.8741 38.1479C93.6871 36.4649 94.2481 35.0624 95.4636 33.9404C95.9311 33.4729 96.5856 33.1924 97.3336 33.0054C97.9881 32.8184 98.6426 32.8184 99.2971 32.8184C99.9516 32.8184 100.606 33.0054 101.261 33.3794C102.102 33.8469 102.476 34.5949 102.476 35.6234C102.383 35.6234 102.383 35.6234 102.383 35.7169Z" fill="white"/>
    <path d="M116.969 37.6807C116.969 36.6522 117.25 35.6237 117.904 34.6887C118.652 33.6602 119.681 33.0992 120.896 32.8187C121.644 32.7252 122.392 32.7252 123.14 32.8187C123.701 32.9122 124.262 33.1927 124.73 33.5667C125.197 34.0342 125.384 34.5952 125.478 35.1562C125.758 37.5872 124.169 39.8312 121.644 40.3922C120.803 40.5792 119.868 40.5792 119.026 40.2987C118.185 40.1117 117.53 39.5507 117.156 38.7092C117.063 38.4287 116.969 38.1482 116.969 37.8677C116.876 37.9612 116.969 37.8677 116.969 37.6807Z" fill="white"/>
    <path d="M73.9588 40.6725C73.3978 40.6725 72.8368 40.579 72.2758 40.392C71.5278 40.1115 70.9668 39.644 70.7798 38.8025C70.6863 38.4285 70.5928 38.0545 70.5928 37.587C70.5928 36.465 70.9668 35.4365 71.6213 34.595C72.2758 33.66 73.2108 33.1925 74.3328 32.912C75.0808 32.8185 75.7353 32.725 76.4833 32.8185C77.3248 32.912 77.9793 33.1925 78.5403 33.847C78.9143 34.221 79.1013 34.782 79.1948 35.2495C79.2883 36.652 78.9143 37.961 77.8858 38.9895C77.1378 39.831 76.2028 40.2985 75.0808 40.4855C74.7068 40.579 74.3328 40.6725 73.9588 40.6725Z" fill="white"/>
    <path d="M146.328 24.4969C145.58 24.4969 144.926 23.9359 144.926 23.0944C144.926 22.3464 145.58 21.6919 146.328 21.6919C147.076 21.6919 147.731 22.3464 147.731 23.1879C147.731 23.8424 147.17 24.4969 146.328 24.4969Z" fill="white"/>
    <path d="M146.702 23.0944C146.889 23.2814 146.982 23.6554 147.076 23.9359C147.076 24.0294 147.169 24.0294 147.076 24.1229C146.982 24.1229 146.889 24.1229 146.795 24.0294C146.795 24.0294 146.795 23.9359 146.702 23.8424C146.608 23.6554 146.608 23.5619 146.515 23.3749C146.421 23.1879 146.328 23.1879 146.141 23.1879C146.047 23.1879 146.047 23.1879 146.047 23.2814C146.047 23.4684 146.047 23.7489 146.047 23.9359C146.047 24.0294 146.047 24.0294 145.954 24.1229C145.86 24.1229 145.767 24.1229 145.767 23.9359C145.767 23.4684 145.767 23.0944 145.767 22.6269C145.767 22.5334 145.767 22.3464 145.767 22.2529C145.767 22.1594 145.86 22.0659 145.954 22.0659C146.141 22.0659 146.421 22.0659 146.608 22.0659C146.795 22.1594 146.982 22.2529 147.076 22.4399C147.076 22.7204 146.982 22.9074 146.702 23.0944Z" fill="#65A70D"/>
    <path d="M146.327 23.0012C146.047 23.0012 146.047 23.0012 146.047 22.8142C146.047 22.7207 146.047 22.6272 146.047 22.5337C146.047 22.3467 146.047 22.3467 146.234 22.3467C146.327 22.3467 146.421 22.3467 146.421 22.3467C146.608 22.3467 146.701 22.4402 146.701 22.6272C146.701 22.8142 146.608 22.9077 146.421 23.0012H146.327Z" fill="#FCFDFC"/>
</svg>
