<svg width="187" height="44" viewBox="0 0 187 44" fill="none" xmlns="http://www.w3.org/2000/svg">
    <g clip-path="url(#clip0_225_843)">
        <path d="M19.2731 25.4372C19.2731 29.895 16.9301 34.4009 9.56448 34.4009C3.4485 34.4009 0 31.0004 0 24.8364V22.8178H4.37371V24.1996C4.37371 28.0205 5.38302 30.7361 9.6606 30.7361C13.6618 30.7361 14.8994 28.4411 14.8994 24.8003V0.781006H19.2731V25.4252V25.4372Z" fill="#E31937"/>
        <path d="M46.1766 10.6699C45.2514 6.03187 41.5265 3.6768 36.9846 3.6768C29.1624 3.6768 25.8581 10.1172 25.8581 16.9661C25.8581 24.4639 29.1744 30.7121 37.0327 30.7121C42.7762 30.7121 46.0925 26.6628 46.501 21.2437H50.8747C50.0456 29.4264 44.939 34.4009 36.6602 34.4009C26.4469 34.4009 21.4844 26.855 21.4844 17.2906C21.4844 7.72608 26.9034 0 37.0206 0C43.8696 0 49.529 3.6768 50.5383 10.6699H46.1646H46.1766Z" fill="#E31937"/>
        <path d="M52.7363 0.781006H67.1311C73.6556 0.781006 77.2002 4.40974 77.2002 10.4897C77.2002 16.5696 73.6556 20.2344 67.1311 20.1983H57.11V33.6319H52.7363V0.781006ZM57.098 16.5095H65.6532C70.5796 16.5576 72.8265 14.3948 72.8265 10.4897C72.8265 6.58458 70.5676 4.46982 65.6532 4.46982H57.098V16.5215V16.5095Z" fill="#E31937"/>
        <path d="M97.7947 26.0739C96.7373 31.3128 92.9644 34.1725 87.6294 34.1725C80.0476 34.1725 76.4549 28.9337 76.2266 21.6642C76.2266 14.5389 80.9127 9.30005 87.4011 9.30005C95.8121 9.30005 98.3955 17.1703 98.1672 22.9138H80.372C80.2398 27.0472 82.5829 30.736 87.7736 30.736C90.9938 30.736 93.2408 29.174 93.9377 26.0859H97.7947V26.0739ZM94.0338 19.4533C93.8536 15.7284 91.0419 12.7365 87.1849 12.7365C83.0875 12.7365 80.6604 15.8125 80.384 19.4533H94.0458H94.0338Z" fill="#E31937"/>
        <path d="M99.9346 9.84081H103.611V13.6137H103.707C105.366 10.6699 108.033 9.28809 111.434 9.28809C117.694 9.28809 119.616 12.8808 119.616 17.9754V33.6078H115.711V17.5068C115.711 14.611 113.873 12.7246 110.881 12.7246C106.147 12.7246 103.84 15.8967 103.84 20.1743V33.6078H99.9346V9.84081Z" fill="#E31937"/>
        <path d="M122.692 9.84081H126.369V13.6137H126.465C128.123 10.6699 130.791 9.28809 134.191 9.28809C140.44 9.28809 142.374 12.8808 142.374 17.9754V33.6078H138.469V17.5068C138.469 14.611 136.631 12.7246 133.639 12.7246C128.904 12.7246 126.597 15.8967 126.597 20.1743V33.6078H122.692V9.84081Z" fill="#E31937"/>
        <path d="M165.745 26.0739C164.688 31.3128 160.915 34.1725 155.58 34.1725C147.986 34.1725 144.405 28.9337 144.177 21.6642C144.177 14.5389 148.863 9.30005 155.351 9.30005C163.762 9.30005 166.346 17.1703 166.117 22.9138H148.322C148.19 27.0472 150.533 30.736 155.724 30.736C158.944 30.736 161.191 29.174 161.888 26.0859H165.757L165.745 26.0739ZM161.972 19.4533C161.792 15.7284 158.98 12.7365 155.123 12.7365C151.026 12.7365 148.587 15.8125 148.31 19.4533H161.972Z" fill="#E31937"/>
        <path d="M176.655 36.7919C174.865 41.442 173.254 43.1362 169.758 43.1362C168.845 43.1362 167.92 43.0401 167.042 42.7277V39.147C167.775 39.3753 168.556 39.6997 169.337 39.6997C170.947 39.6997 171.825 38.9187 172.558 37.5369L174.168 33.4876L164.735 9.85278H169.145L176.09 29.3062H176.186L182.855 9.85278H186.988L176.643 36.8039L176.655 36.7919Z" fill="#E31937"/>
        <path d="M178.121 38.4741C178.745 38.4741 179.274 38.9668 179.274 39.6276C179.274 40.2885 178.745 40.7811 178.121 40.7811C177.496 40.7811 176.955 40.2885 176.955 39.6276C176.955 38.9668 177.484 38.4741 178.121 38.4741ZM178.121 40.6129C178.649 40.6129 179.07 40.1924 179.07 39.6276C179.07 39.0629 178.661 38.6544 178.121 38.6544C177.58 38.6544 177.171 39.0749 177.171 39.6276C177.171 40.1803 177.592 40.6129 178.121 40.6129ZM177.676 38.9547H178.193C178.517 38.9547 178.661 39.0869 178.661 39.3393C178.661 39.5796 178.505 39.6877 178.301 39.6997L178.685 40.3005H178.457L178.085 39.7238H177.868V40.3005H177.664V38.9547H177.676ZM177.88 39.5555H178.097C178.277 39.5555 178.445 39.5555 178.445 39.3272C178.445 39.147 178.289 39.123 178.145 39.123H177.868V39.5555H177.88Z" fill="#E31937"/>
    </g>
    <defs>
        <clipPath id="clip0_225_843">
            <rect width="187" height="43.1363" fill="white"/>
        </clipPath>
    </defs>
</svg>
