<svg width="187" height="142" viewBox="0 0 187 142" fill="none" xmlns="http://www.w3.org/2000/svg">
    <path fill-rule="evenodd" clip-rule="evenodd" d="M16.3437 1.91557L0.0605469 15.369V16.9444L6.93015 13.9559V64.3771L2.20223 67.3673V69.1456H45.8367L45.7962 51.5694H44.1396C44.1396 51.5694 43.9861 58.6524 40.8671 62.3571C38.4926 65.1763 32.9496 64.8622 32.9496 64.8622L16.3437 64.8217V1.91557ZM89.3495 42.6004H65.5529C65.5529 42.6004 64.565 25.624 77.3903 25.6311C91.9763 25.6399 89.3495 42.6004 89.3495 42.6004ZM77.7538 21.9951C55.7583 23.6517 56.1394 46.3581 56.1394 46.3581C56.1394 46.3581 55.94 50.6626 57.0285 55.327C57.8418 58.82 59.4877 62.4083 61.8764 65.1463C67.7775 71.9065 78.9251 71.6913 78.9251 71.6913C78.9251 71.6913 80.8516 71.7177 83.3302 71.409C86.1935 71.0474 89.8153 70.2588 92.3803 68.821C94.1057 67.8542 96.3638 66.1836 96.9054 64.8217C97.2106 64.0507 97.9462 62.5424 97.3905 61.9126C96.9883 61.4574 96.2985 61.9532 96.2985 61.9532C96.2985 61.9532 92.5726 64.5659 87.9364 65.6296C83.3461 66.6828 77.8631 66.1977 74.2784 64.2571C65.4506 59.4728 65.5529 46.4798 65.5529 46.4798H87.693C87.693 46.4798 93.7087 46.6491 96.7431 45.9541C99.2041 45.3895 98.8036 43.9341 98.8036 43.9341C98.8036 43.9341 100.924 20.2504 77.7538 21.9951ZM116.742 20.702L101.875 33.3086V35.408L109.35 31.6909L125.832 70.8021H131.206L152.053 25.1865C152.053 25.1865 152.688 23.8016 151.569 23.7328C149.544 23.6093 148.389 23.5264 147.69 23.8546C146.928 24.2109 146.72 24.9836 146.72 24.9836L131.006 61.3481C131.006 61.3481 122.671 41.7307 118.523 29.9162C116.883 25.2518 116.743 20.7444 116.743 20.7444V20.7038L116.742 20.702ZM161.265 31.9344L177.548 18.5621V65.5891C177.548 65.5891 177.737 67.011 179.85 67.4485C182.191 67.9336 186.113 67.8119 186.113 67.8119V70.8427H160.902V67.8119C160.902 67.8119 161.604 67.8172 162.639 67.8119C164.081 67.8048 166.139 67.7396 167.609 67.2862C168.929 66.8804 169.426 65.1868 169.426 65.1868V29.7098L161.265 33.5891V31.9308V31.9344ZM77.4715 83.691L82.1994 82.3556C84.5493 81.6905 86.9097 80.8066 86.4404 82.5584C84.2352 90.767 79.4138 97.492 75.9367 100.819C73.982 102.689 72.2584 103.083 72.2584 103.083L71.0059 101.749C71.0059 101.749 73.728 98.3088 75.1693 94.1542C76.824 89.3822 77.4715 83.6487 77.4715 83.6487V83.691ZM102.762 137.949C102.762 137.949 98.98 138.253 94.8043 133.627C91.3201 129.765 90.625 124.602 90.2792 120.334C88.8608 102.889 101.108 103.285 101.108 103.285C101.108 103.285 113.218 102.042 114.561 120.375C115.928 139.05 102.762 137.949 102.762 137.949ZM101.55 100.697H101.471C101.471 100.697 82.7004 100.447 82.644 120.858C82.584 141.492 102.036 140.617 102.036 140.617C102.036 140.617 122.318 140.685 122.399 119.606C122.477 99.0338 101.55 100.697 101.55 100.697ZM129.186 113.182L145.469 99.4043V108.86C145.469 108.86 150.95 98.7198 163.366 99.0815C176.089 99.4555 175.851 111.203 175.851 111.203C175.851 111.203 175.938 119.733 166.316 120.818C159.672 121.569 156.68 119.477 155.77 117.829C155.209 116.811 155.77 116.012 155.77 116.012C155.77 116.012 156.772 115.359 157.507 115.527C158.541 115.762 159.637 116.585 161.306 116.899C163.606 117.335 166.621 117.141 168.659 116.132C173.404 113.786 173.184 104.623 165.427 102.679C163.472 102.188 160.805 102.225 158.437 102.839C154.747 103.802 151.328 105.993 148.943 108.416C145.065 112.358 145.104 116.94 145.104 116.94L145.067 135.081C145.067 135.081 144.989 136.519 146.279 136.898C148.667 137.603 153.228 137.464 153.228 137.464V139.687H131.328V137.464C131.328 137.464 135.027 137.655 137.065 136.94C137.971 136.623 138.236 135.04 138.236 135.04V110.436L129.186 114.557V113.182ZM55.1303 126.071C55.1303 126.071 52.2582 130.358 49.3121 132.494C46.5248 134.516 43.6545 134.394 43.6545 134.394C43.6545 134.394 37.2471 134.237 33.5953 130.395C29.97 126.581 29.9488 121.386 29.7565 117.344C28.8303 97.9048 42.7653 98.3564 42.7653 98.3564H42.9277C42.9277 98.3564 46.7082 98.2541 49.6755 99.6478C52.8051 101.121 55.1285 104.093 55.1285 104.093L55.1303 126.071ZM71.9374 127.243C71.9374 127.243 71.5828 127.13 71.0482 127.324C68.7266 128.163 62.9666 130.718 62.9666 130.718L62.9278 73.8312L46.7259 87.0447L46.6853 88.4966L55.6948 84.7407L55.6542 96.0119C55.6542 96.0119 41.8321 89.9414 30.4833 97.6278C18.8646 105.501 20.6658 119.323 20.6658 119.323C20.6658 119.323 19.6003 132.355 30.8873 138.394C44.87 145.874 55.2097 132.86 55.2097 132.86L55.2502 140.535L71.9374 127.728C71.9374 127.728 72.0573 127.573 72.0573 127.445C72.0573 127.331 71.9374 127.243 71.9374 127.243ZM178.111 5.78612C178.111 2.93701 175.8 0.625977 172.951 0.625977C170.1 0.625977 167.789 2.93701 167.789 5.78788C167.789 8.63875 170.1 10.948 172.951 10.948C175.8 10.948 178.111 8.63522 178.111 5.78612ZM180.508 98.0459H181.736C182.003 98.0459 182.207 98.0124 182.345 97.9489C182.484 97.8836 182.594 97.7813 182.675 97.6419C182.758 97.5043 182.798 97.342 182.798 97.1586C182.798 96.8939 182.721 96.6822 182.564 96.5323C182.408 96.3788 182.177 96.3029 181.872 96.3029H180.508V98.0459ZM179.937 100.985V95.7225H181.849C182.25 95.7225 182.544 95.7702 182.735 95.869C182.925 95.9678 183.081 96.1301 183.202 96.3576C183.326 96.587 183.386 96.8516 183.386 97.1515C183.386 97.5502 183.284 97.8713 183.075 98.1165C182.869 98.3635 182.567 98.5222 182.174 98.5875C182.333 98.6828 182.456 98.7816 182.539 98.8786C182.708 99.0815 182.857 99.3038 182.987 99.549L183.74 100.983H183.024L182.449 99.8895C182.225 99.4608 182.057 99.1715 181.943 99.0233C181.83 98.8751 181.72 98.7763 181.615 98.7234C181.509 98.6704 181.359 98.6457 181.168 98.6457H180.508V100.983L179.937 100.985ZM68.9065 19.0861H71.4522L78.5617 12.2588L84.7839 19.0472H91.5706L80.5429 7.65259L68.9065 19.0861Z" fill="#9F8A34"/>
</svg>
