<svg width="187" height="60" viewBox="0 0 187 60" fill="none" xmlns="http://www.w3.org/2000/svg">
    <g clip-path="url(#clip0_238_1641)">
        <path d="M36.8719 47.7821C36.2107 50.8638 35.3475 54.2568 32.2179 54.9763C31.1108 55.2307 21.9448 55.096 18.9543 55.1155C12.5215 55.1544 12.4422 53.1108 12.4422 51.3904V10.8473C12.4422 9.55927 12.6247 8.28617 13.3249 7.29582C14.025 6.30547 15.9399 5.81029 17.379 5.81029V4.69727H0.08228V5.81179C1.63214 5.81179 3.90456 6.35783 4.488 7.47983C5.049 8.34152 5.16868 9.47998 5.16868 10.768V54.4692L5.05648 55.7572C4.98318 55.9398 4.87846 56.3377 4.68996 56.6429C3.8522 57.9983 1.62466 57.9444 0 57.9444V58.9916H37.1307L38.2108 47.7836L36.8719 47.7821Z" fill="black"/>
        <path d="M99.4428 51.8498C99.2378 52.4572 98.994 52.9374 98.7352 53.3309C96.6079 55.352 92.093 55.1231 92.093 55.1231H79.9753C76.2952 55.1081 77.6491 53.455 77.6491 53.455L80.5468 48.9371C80.5468 48.9371 96.8502 23.3705 99.8258 18.5534C100.848 16.8973 102.204 14.96 100.445 14.96H68.5654L67.4389 26.0752H68.6102L69.3268 23.188C69.7562 21.4586 70.5386 19.5347 71.9269 18.8152C72.7347 18.4367 73.381 18.2616 74.1903 18.1853C75.622 18.0731 75.9466 18.0731 77.3274 18.0731H89.8863C91.9523 18.0731 91.0861 19.0605 91.0861 19.0605L85.7664 27.293C85.7664 27.293 67.4389 56.0431 66.5024 57.4867C65.5689 58.9304 67.0753 58.9887 67.0753 58.9887H100.062L101.947 47.7792H100.638C100.429 48.9162 100.004 50.1982 99.4428 51.8498Z" fill="black"/>
        <path d="M186.868 14.96H173.536V15.8785H176.082C176.8 15.9922 176.678 16.797 176.372 17.5735C176.066 18.3514 175.583 19.0994 175.583 19.0994C175.583 19.0994 173.675 22.6045 171.614 26.4029C169.971 29.4107 168.346 32.4277 166.737 35.4537C166.572 35.904 166.339 36.0999 166.056 36.0805C165.899 36.061 165.693 35.7783 165.693 35.7783C165.693 35.7783 163.414 31.8393 161.016 27.649C158.576 23.4602 156.106 19.0216 155.584 17.952C155.17 17.017 155.212 16.456 155.37 16.1972C155.584 15.9144 155.804 15.88 155.804 15.88C155.804 15.88 155.897 15.8755 156.075 15.8755C156.253 15.8755 156.519 15.8755 156.875 15.88H157.533L157.538 15.3848L157.541 14.96H141.701V15.8785H142.715C146.077 16.824 148.104 17.8457 150.011 20.4069L152.472 24.9173L161.568 41.5379V53.856C161.48 55.6153 160.626 57.1696 160.439 57.2639C159.611 58.0911 156.574 57.8937 156.574 57.8937V58.9469H173.799V57.9176H172.239H171.148C169.958 57.8548 168.486 57.3401 168.65 55.711C168.65 54.9062 168.634 54.4349 168.65 42.3757C168.909 39.81 180.156 20.1047 181.146 18.4441C182.11 17.1441 183.034 16.456 183.719 16.1852C184.404 15.868 184.849 15.8755 184.849 15.8755H187V14.96H186.868Z" fill="black"/>
        <path d="M150.627 57.9426C149.219 57.9277 146.046 56.8476 144.478 52.5675C144.478 52.5675 132.655 22.7717 130.45 17.1273C130.152 16.2177 129.861 15.6642 129.834 15.6103C128.813 13.688 127.679 16.1938 127.679 16.1938C127.679 16.1938 112.42 50.8636 110.543 54.8429C110.543 54.8429 109.44 56.9627 108.187 57.5432L108.125 57.5701C107.599 57.7945 106.743 57.9187 105.564 57.9456H105.064V58.9988H119.377V58.9749H119.384V57.9456C113.514 58.164 115.192 54.4719 115.192 54.4719L115.445 53.7389C115.445 53.7389 125.795 30.132 126.914 27.9418C127.16 27.3614 127.494 27.876 127.494 27.876L133.939 44.7404L136.756 51.9811C136.756 51.9811 138.09 56.1429 137.248 57.063C136.802 57.5432 136.346 57.8648 135.219 57.9501H132.453L132.443 58.9973L151.556 58.9704V57.9501C151.556 57.9307 151.18 57.9456 150.627 57.9426Z" fill="black"/>
        <path d="M41.7832 15.883C44.2441 15.883 46.171 16.456 47.0222 17.6543C47.7448 18.6611 47.8719 20.0583 47.8719 21.6336V50.9702C47.8719 52.5859 47.8719 55.3505 47.0446 56.1463C46.3759 56.8465 46.1022 57.1038 44.7976 57.5242C43.8342 57.8383 43.3839 57.9655 42.1781 57.9385L42.1737 58.9783H61.1983V57.9385C58.8346 58.1046 57.6004 57.6438 56.0296 56.0267C55.2248 55.1949 54.8179 53.9487 54.8179 52.3585L54.8328 34.1866V26.3011L54.8223 21.5962C54.8223 19.8459 55.1156 18.4845 55.7125 17.6528C56.5592 16.4545 58.3439 15.8815 61.1983 15.8815V14.96H41.7832V15.883Z" fill="black"/>
        <path d="M51.4927 9.78043C52.1451 9.79637 52.7941 9.68161 53.4015 9.44291C54.0088 9.20421 54.5623 8.84639 55.0293 8.39054C55.4963 7.93468 55.8673 7.38999 56.1206 6.78855C56.3739 6.18711 56.5043 5.54107 56.5041 4.88847C56.5039 4.23587 56.3731 3.58991 56.1195 2.98863C55.8658 2.38734 55.4944 1.84288 55.0272 1.38731C54.5599 0.931735 54.0062 0.574261 53.3987 0.335933C52.7912 0.097606 52.1421 -0.0167565 51.4897 -0.00042002C50.2136 0.0311459 49.0004 0.56024 48.1091 1.47393C47.2177 2.38762 46.7188 3.61354 46.7188 4.89C46.7188 6.16647 47.2177 7.39238 48.1091 8.30608C49.0004 9.21977 50.2136 9.74886 51.4897 9.78043H51.4927Z" fill="black"/>
    </g>
    <defs>
        <clipPath id="clip0_238_1641">
            <rect width="187" height="59.84" fill="white"/>
        </clipPath>
    </defs>
</svg>
