<svg width="187" height="36" viewBox="0 0 187 36" fill="none" xmlns="http://www.w3.org/2000/svg">
    <g clip-path="url(#clip0_228_1115)">
        <path d="M17.9327 1.29051e-06C14.3862 0.00134668 10.9198 1.05422 7.97169 3.0255C5.02358 4.99678 2.72617 7.79794 1.36993 11.0748C0.0136971 14.3517 -0.340458 17.9571 0.352244 21.4353C1.04495 24.9134 2.7534 28.1081 5.26159 30.6153C7.76979 33.1226 10.9651 34.8298 14.4435 35.5212C17.9219 36.2126 21.5272 35.857 24.8036 34.4996C28.0799 33.1421 30.8802 30.8436 32.8504 27.8947C34.8205 24.9459 35.8721 21.4791 35.8721 17.9326C35.8721 15.5771 35.408 13.2447 34.5064 11.0685C33.6048 8.89241 32.2833 6.91523 30.6173 5.24994C28.9514 3.58465 26.9737 2.26389 24.7973 1.36309C22.6208 0.462289 20.2882 -0.000892305 17.9327 1.29051e-06Z" fill="#CF0A2C"/>
        <path d="M30.4569 25.8987C29.4917 26.4187 28.4277 26.7294 27.3343 26.8103C26.7546 26.8066 26.1898 26.6262 25.7152 26.2933C22.8104 24.3612 23.8036 22.0482 25.7833 18.4562C26.6906 16.9868 27.3998 15.4039 27.8922 13.7486C28.3072 12.007 28.6813 9.46951 27.1711 7.55107C26.3256 6.57201 25.2116 5.86242 23.9669 5.51018C22.1342 4.96947 20.231 4.70577 18.3204 4.72784H17.5653C15.6547 4.70587 13.7515 4.96957 11.9188 5.51018C10.6741 5.86242 9.56006 6.57201 8.71461 7.55107C7.20435 9.46951 7.57852 12.007 8.0003 13.7486C8.48479 15.4034 9.18711 16.9865 10.0888 18.4562C12.0685 22.0414 13.0617 24.3612 10.1568 26.2933C9.68266 26.627 9.11759 26.8075 8.53773 26.8103C7.45374 26.7252 6.39946 26.4147 5.44238 25.8987L5.61246 26.198C7.01387 28.3477 8.84387 29.4906 10.8848 29.4906C11.8608 29.4634 12.8203 29.2316 13.7012 28.8103C14.7741 28.3137 15.664 27.4927 16.2455 26.4633C16.8374 25.5016 17.0778 24.3645 16.9258 23.2455C16.5938 22.0497 16.1894 20.8751 15.7149 19.7284C14.2862 16.0276 12.3134 10.973 14.0209 8.50349C14.7012 7.46263 16.0142 6.95241 17.9326 6.94561C19.8511 6.93881 21.1368 7.46263 21.8443 8.50349C23.5315 10.973 21.579 16.0276 20.1504 19.7216C19.6689 20.8771 19.2577 22.0607 18.9191 23.2659C18.7649 24.3872 19.0054 25.5271 19.5994 26.4905C20.1801 27.5222 21.07 28.3455 22.1437 28.8444C23.0247 29.2653 23.9841 29.497 24.9601 29.5247C27.001 29.5247 28.8514 28.3818 30.2936 26.2184L30.4569 25.8987Z" fill="white"/>
        <path d="M51.5052 29.2937H47.75V4.85059H51.512L51.5052 29.2937Z" fill="#231F20"/>
        <path d="M70.0702 29.2935H66.2878V27.7152C65.7219 28.3383 65.0303 28.8345 64.2588 29.171C63.4872 29.5076 62.6531 29.6768 61.8114 29.6677C58.0154 29.6677 55.9473 27.1506 55.9473 23.4634V12.5786H59.7093V22.7831C59.7093 24.824 60.6889 26.1846 62.8319 26.1846C63.6261 26.1995 64.4018 25.9435 65.0312 25.4588C65.6606 24.9741 66.1062 24.2895 66.2946 23.5178V12.599H70.0702V29.2935Z" fill="#231F20"/>
        <path d="M78.472 29.2937H74.71V4.85059H78.472V29.2937Z" fill="#231F20"/>
        <path d="M97.0108 29.2935H93.2487V27.7152C92.6828 28.3383 91.9913 28.8345 91.2197 29.171C90.4482 29.5076 89.6141 29.6768 88.7724 29.6677C84.9763 29.6677 82.9082 27.1506 82.9082 23.4634V12.5786H86.6702V22.7831C86.6702 24.824 87.6499 26.1846 89.7928 26.1846C90.5871 26.1995 91.3627 25.9435 91.9921 25.4588C92.6215 24.9741 93.0671 24.2895 93.2555 23.5178V12.599H97.0176L97.0108 29.2935Z" fill="#231F20"/>
        <path d="M105.446 29.2937H101.684V4.85059H105.446V29.2937Z" fill="#231F20"/>
        <path d="M123.861 24.103C123.297 27.4093 120.854 29.6679 116.827 29.6679C112.167 29.6679 108.929 26.1303 108.929 20.9805C108.929 15.9803 112.201 12.2183 116.752 12.2183C121.453 12.2183 124.011 15.5653 124.011 20.4499V21.8104H112.616C112.732 24.7425 114.419 26.5113 116.827 26.5113C118.63 26.5113 119.984 25.7222 120.399 24.103H123.861ZM112.732 19.0484H120.29C120.256 17.0076 119.086 15.3612 116.793 15.3612C114.725 15.3816 113.181 16.6606 112.732 19.0484Z" fill="#231F20"/>
        <path d="M144.767 12.2453C148.168 12.2453 150.209 14.6535 150.209 18.4496V29.3343H146.447V19.0483C146.447 17.0074 145.542 15.6468 143.726 15.6468C143.014 15.6328 142.322 15.8764 141.775 16.3326C141.229 16.7889 140.866 17.4271 140.753 18.1298V29.2935H136.943V19.0483C136.943 17.0074 136.039 15.6468 134.222 15.6468C133.511 15.6328 132.818 15.8764 132.272 16.3326C131.725 16.7889 131.362 17.4271 131.249 18.1298V29.2935H127.487V12.599H131.249V13.9596C131.764 13.3807 132.402 12.9258 133.117 12.6289C133.833 12.3319 134.606 12.2008 135.379 12.2453C136.236 12.2353 137.084 12.4316 137.85 12.8176C138.616 13.2035 139.278 13.7678 139.78 14.463C140.385 13.7349 141.15 13.1561 142.014 12.7714C142.879 12.3868 143.821 12.2068 144.767 12.2453Z" fill="#231F20"/>
        <path d="M161.386 29.6675C156.686 29.6675 153.454 26.0551 153.454 20.9461C153.454 15.8371 156.686 12.2451 161.386 12.2451C166.087 12.2451 169.319 15.8575 169.319 20.9665C169.319 26.0756 166.087 29.6675 161.386 29.6675ZM161.386 15.4561C158.665 15.4561 157.216 17.7895 157.216 20.9461C157.216 24.1027 158.686 26.4361 161.386 26.4361C164.087 26.4361 165.563 24.1027 165.563 20.9461C165.563 17.7895 164.094 15.4561 161.386 15.4561Z" fill="#231F20"/>
        <path d="M172.795 12.5989H176.557V14.1772C177.135 13.5541 177.838 13.0599 178.62 12.727C179.402 12.3941 180.245 12.2299 181.095 12.2451C184.891 12.2451 187 14.7622 187 18.4494V29.3342H183.237V19.0481C183.237 17.0072 182.224 15.6466 180.081 15.6466C179.283 15.6313 178.503 15.8865 177.868 16.3706C177.233 16.8548 176.781 17.5395 176.584 18.3134V29.2934H172.795V12.5989Z" fill="#231F20"/>
    </g>
    <defs>
        <clipPath id="clip0_228_1115">
            <rect width="187" height="35.8721" fill="white"/>
        </clipPath>
    </defs>
</svg>
