<svg width="500" height="500" viewBox="0 0 500 500" fill="none" xmlns="http://www.w3.org/2000/svg">
    <path d="M90.1895 426.19C180.12 469.47 325.94 469.47 415.88 426.19C505.82 382.91 505.81 312.75 415.88 269.47C325.95 226.19 180.12 226.19 90.1895 269.47C0.259537 312.75 0.249535 382.91 90.1895 426.19Z" fill="#F5F5F5"/>
    <path d="M442.36 382C420.65 392.26 385.51 392.14 363.87 381.73C342.23 371.32 342.29 354.58 364 344.32C385.71 334.06 420.85 334.19 442.49 344.59C464.13 354.99 464.07 371.72 442.36 382Z" fill="#E0E0E0"/>
    <path d="M320.51 65.5598L327.32 69.4898C327.32 69.1898 327.26 68.8897 327.26 68.5897V66.5897C327.26 63.0797 329.73 61.6498 332.77 63.4098C334.077 64.2114 335.196 65.2858 336.05 66.5598C336.55 62.1498 340.05 60.4998 344.22 62.9298C348.77 65.5598 352.46 71.9297 352.46 77.1997V80.1997C352.488 81.377 352.252 82.5456 351.77 83.6198L357.42 86.8797C358.31 87.4608 359.051 88.2435 359.583 89.1642C360.114 90.085 360.422 91.1181 360.48 92.1798C360.48 94.1198 359.11 94.9098 357.42 93.9398L320.51 72.6098C319.619 72.0314 318.877 71.2508 318.346 70.3315C317.814 69.4122 317.507 68.3802 317.45 67.3198C317.45 65.3798 318.82 64.5898 320.51 65.5598Z" fill="#EBEBEB"/>
    <path d="M291.35 85.4097L296.49 88.4097C296.49 88.1797 296.49 87.9497 296.49 87.7297V86.2096C296.49 83.5596 298.35 82.4796 300.65 83.8096C301.636 84.4151 302.478 85.2271 303.12 86.1897C303.5 82.8597 306.12 81.6196 309.29 83.4496C311.102 84.628 312.609 86.2178 313.69 88.0894C314.771 89.961 315.395 92.0614 315.51 94.2197V96.4496C315.533 97.3389 315.352 98.2217 314.98 99.0296L319.25 101.5C319.924 101.936 320.485 102.526 320.887 103.221C321.288 103.917 321.519 104.698 321.56 105.5C321.56 106.97 320.56 107.57 319.25 106.83L291.35 90.7297C290.678 90.2912 290.12 89.7003 289.721 89.0052C289.321 88.3101 289.091 87.5304 289.05 86.7297C289.05 85.2697 290.08 84.6697 291.35 85.4097Z" fill="#EBEBEB"/>
    <path d="M108.6 338.2L115.22 334.42C115.22 334.42 118.4 316.9 116.03 301.84C112.68 280.66 98.2705 273.36 93.0305 275.46C87.7905 277.56 86.5605 283.84 96.0305 296.08C101.6 303.29 108.77 318.55 108.6 338.2Z" fill="#92E3A9"/>
    <g opacity="0.1">
        <path d="M108.6 338.2L115.22 334.42C115.22 334.42 118.4 316.9 116.03 301.84C112.68 280.66 98.2705 273.36 93.0305 275.46C87.7905 277.56 86.5605 283.84 96.0305 296.08C101.6 303.29 108.77 318.55 108.6 338.2Z" fill="black"/>
    </g>
    <path d="M111 329.791H110.93C110.807 329.773 110.695 329.708 110.62 329.608C110.545 329.509 110.513 329.384 110.53 329.261C113.27 309.431 105.3 287.72 96.3394 278.96C96.2506 278.873 96.2002 278.754 96.1992 278.629C96.1983 278.504 96.2469 278.384 96.3344 278.296C96.422 278.207 96.5412 278.156 96.6659 278.155C96.7906 278.154 96.9106 278.203 96.9994 278.291C106.12 287.201 114.25 309.291 111.47 329.391C111.451 329.502 111.394 329.603 111.308 329.676C111.222 329.749 111.113 329.79 111 329.791Z" fill="white"/>
    <path d="M90.2098 348.83C89.2098 349.43 86.9998 348.11 86.2098 347.56C84.7939 346.593 83.6506 345.277 82.8898 343.74C82.0338 341.999 81.7436 340.034 82.0598 338.12C82.2202 337.104 82.4575 336.101 82.7698 335.12C83.0498 334.12 83.3198 333.18 83.5998 332.21C83.9405 331.273 84.0868 330.276 84.0298 329.28C83.7698 327.28 82.0298 325.91 80.4098 324.71C78.6398 323.38 76.7898 321.63 76.7998 319.24C76.935 317.387 77.6765 315.63 78.9098 314.24C80.0498 312.8 81.4098 311.52 82.4398 309.99C83.2516 308.923 83.6749 307.611 83.6398 306.27C83.5328 305.451 83.2607 304.661 82.8398 303.95C81.866 302.471 81.0133 300.916 80.2899 299.3C79.7099 297.63 79.7998 295.55 81.0998 294.35C81.684 293.919 82.3483 293.608 83.0541 293.436C83.7598 293.264 84.4927 293.235 85.2098 293.35C86.5542 293.509 87.8476 293.96 88.9998 294.67C92.7998 296.78 94.9998 301.28 98.9998 302.9C100.597 303.399 102.223 303.796 103.87 304.09C104.692 304.246 105.473 304.572 106.162 305.047C106.851 305.522 107.432 306.137 107.87 306.85C109.35 309.8 106.61 313.44 107.65 316.57C108.57 319.35 111.26 320.41 112.78 322.91C113.396 324.014 113.641 325.286 113.48 326.54C113.352 328.66 112.833 330.739 111.95 332.67C110.971 334.596 109.848 336.444 108.59 338.2C108.53 338.26 90.3698 348.73 90.2098 348.83Z" fill="#92E3A9"/>
    <path d="M101 343.09C100.937 343.089 100.876 343.075 100.818 343.049C100.761 343.024 100.71 342.987 100.667 342.942C100.624 342.896 100.591 342.842 100.569 342.784C100.547 342.725 100.537 342.663 100.54 342.6C101.32 323.84 92.4794 303.13 86.0494 297.11C86.004 297.067 85.9676 297.016 85.9421 296.959C85.9165 296.903 85.9024 296.841 85.9006 296.779C85.8987 296.717 85.9092 296.655 85.9312 296.597C85.9533 296.539 85.9867 296.485 86.0294 296.44C86.072 296.395 86.1232 296.358 86.18 296.333C86.2368 296.307 86.298 296.293 86.3602 296.291C86.4224 296.289 86.4844 296.3 86.5426 296.322C86.6008 296.344 86.654 296.377 86.6993 296.42C93.2593 302.56 102.28 323.61 101.49 342.64C101.487 342.702 101.473 342.762 101.447 342.818C101.421 342.874 101.384 342.925 101.338 342.967C101.293 343.008 101.239 343.041 101.181 343.062C101.123 343.083 101.062 343.093 101 343.09Z" fill="white"/>
    <path d="M98.1497 320.93H98.0097C93.5673 319.7 89.0032 318.962 84.3997 318.73C84.3379 318.727 84.2773 318.713 84.2213 318.687C84.1652 318.661 84.1148 318.624 84.0731 318.578C84.0313 318.533 83.9988 318.479 83.9777 318.421C83.9565 318.363 83.947 318.302 83.9497 318.24C83.9494 318.177 83.9622 318.115 83.9873 318.058C84.0124 318 84.0492 317.949 84.0953 317.907C84.1414 317.864 84.1958 317.832 84.2552 317.812C84.3145 317.792 84.3773 317.784 84.4397 317.79C89.1233 318.017 93.7678 318.759 98.2897 320C98.413 320.018 98.5239 320.085 98.598 320.186C98.672 320.286 98.7032 320.412 98.6847 320.535C98.6661 320.658 98.5993 320.769 98.499 320.843C98.3986 320.917 98.273 320.948 98.1497 320.93Z" fill="white"/>
    <path d="M87.7503 361.72V354.35H89.5703C91.6903 350.05 95.6503 346 101.5 342.63C119.85 332.03 149.6 332.03 167.95 342.63C173.81 346 177.77 350.05 179.89 354.35H181.69V361.48C181.84 368.48 177.27 375.61 167.95 380.99C149.6 391.58 119.85 391.58 101.5 380.99C92.2903 375.67 87.7103 368.69 87.7503 361.72Z" fill="#263238"/>
    <path d="M168 335.159C149.65 324.569 119.9 324.569 101.55 335.159C83.1995 345.749 83.1995 362.929 101.55 373.529C119.9 384.129 149.65 384.119 168 373.529C186.35 362.939 186.3 345.759 168 335.159Z" fill="#455A64"/>
    <path d="M146.83 222.08V351.08C146.83 352.86 145.65 354.65 143.29 356.01C138.57 358.74 130.91 358.74 126.19 356.01C123.83 354.65 122.65 352.86 122.65 351.08V222.08H146.83Z" fill="#37474F"/>
    <path d="M122.64 252.58V261.32L146.83 275.26V266.58L122.64 252.58Z" fill="#263238"/>
    <path d="M260.32 138.69L258.26 142.82L236.11 187.22L225.6 208.32L190 279.66L186.08 287.52C185.847 287.52 185.617 287.52 185.39 287.52C183.993 287.537 182.615 287.192 181.39 286.52L39.5898 204.52C38.4272 203.763 37.4592 202.743 36.7642 201.543C36.0693 200.342 35.6669 198.995 35.5898 197.61V136.51C35.5898 105.96 55.6998 69.5896 80.5298 55.2496C92.3398 48.4596 103 47.9096 111 52.3996V52.3396L260.32 138.69Z" fill="#455A64"/>
    <path d="M230.37 141.92C220.37 145.63 183.89 175.74 183.89 223.15C183.89 263.01 183.94 283.7 183.95 287.42C184.435 287.504 184.927 287.547 185.42 287.55C185.653 287.55 185.883 287.55 186.11 287.55L190.03 279.69L225.6 208.35L236.11 187.26L238.52 182.43L230.37 141.92Z" fill="#37474F"/>
    <path d="M273.36 237.45C272.941 238.104 272.376 238.652 271.71 239.05L271.3 239.31L189.42 286.58C188.403 287.132 187.275 287.45 186.12 287.51C185.886 287.51 185.656 287.51 185.43 287.51V223.11C185.43 212.11 188.05 200.39 192.55 189.18L196.55 191.52L225.55 208.28L270.62 234.28L272.93 235.61C273.098 235.683 273.246 235.795 273.364 235.936C273.481 236.077 273.564 236.243 273.605 236.422C273.647 236.601 273.647 236.787 273.604 236.965C273.561 237.143 273.478 237.309 273.36 237.45Z" fill="#37474F"/>
    <path d="M260.32 138.699C252.38 134.529 241.88 135.259 230.37 141.919C217.46 149.349 205.81 162.789 197.63 178.249C195.737 181.822 194.037 185.494 192.54 189.249C188.04 200.459 185.42 212.189 185.42 223.179V287.579C185.653 287.579 185.883 287.579 186.11 287.579C187.266 287.52 188.393 287.202 189.41 286.649L271.29 239.379L271.7 239.119C272.326 238.671 272.882 238.131 273.35 237.519C274.504 236.099 275.176 234.348 275.27 232.519V171.269C275.28 154.899 269.5 143.519 260.32 138.699ZM269.48 234.999L191.23 280.179C190.57 280.559 190.03 280.249 190.03 279.489V223.149C190.03 213.319 192.3 202.419 196.58 191.559C196.649 191.349 196.73 191.142 196.82 190.939C198.403 186.964 200.223 183.087 202.27 179.329C210.22 164.639 221.09 152.569 232.68 145.909C238.63 142.459 244.27 140.719 249.43 140.719C252.502 140.683 255.536 141.408 258.26 142.829C266.09 146.999 270.67 157.129 270.67 171.269V232.999C270.638 233.402 270.513 233.791 270.307 234.138C270.101 234.484 269.818 234.779 269.48 234.999Z" fill="#455A64"/>
    <path d="M351.15 304.77V299.14H350.62V299.94C350.279 298.375 349.787 296.848 349.15 295.38C346.15 288.48 339.96 281.86 330.44 276.38L277.49 245.81C276.251 245.18 274.88 244.852 273.49 244.852C272.1 244.852 270.729 245.18 269.49 245.81L188.49 292.55C187.482 291.751 186.614 290.791 185.92 289.71V295.39C185.965 295.886 186.142 296.362 186.432 296.768C186.722 297.174 187.115 297.496 187.57 297.7L240.57 328.26C254.74 336.45 273.27 340.47 291.22 340.26C306.75 340.06 321.85 336.66 333.36 330.01C345.26 323.17 351.13 314.09 351.13 304.82L351.15 304.77Z" fill="#263238"/>
    <path d="M349.15 295.38C346.15 288.48 339.96 281.86 330.44 276.38L277.49 245.81C276.25 245.18 274.88 244.852 273.49 244.852C272.1 244.852 270.729 245.18 269.49 245.81L188.49 292.55L240.49 322.55C254.66 330.74 273.19 334.76 291.14 334.55C306.67 334.34 321.77 330.95 333.28 324.3C343.96 318.15 349.8 310.21 350.87 301.94C350.618 299.681 350.038 297.471 349.15 295.38Z" fill="#455A64"/>
    <path d="M351 301.93C350.718 299.67 350.109 297.463 349.19 295.38C346.19 288.48 340 281.86 330.48 276.38L277.53 245.81C276.291 245.18 274.92 244.852 273.53 244.852C272.14 244.852 270.769 245.18 269.53 245.81L188.53 292.55L187.61 292.03C185.41 290.75 185.41 288.69 187.61 287.42L269.49 240.14C270.729 239.51 272.1 239.182 273.49 239.182C274.88 239.182 276.251 239.51 277.49 240.14L330.44 270.71C339.96 276.21 346.19 282.83 349.15 289.71C350.123 291.935 350.753 294.295 351.02 296.71C351.22 298.444 351.214 300.197 351 301.93Z" fill="#37474F"/>
    <path d="M270.67 171.27V234.35L196.58 191.56C196.65 191.349 196.73 191.143 196.82 190.94C204.76 171.09 218.16 154.26 232.68 145.94C238.63 142.49 244.27 140.75 249.43 140.75C262.53 140.72 270.67 152.42 270.67 171.27Z" fill="#263238"/>
    <path d="M137.27 219.64L143.79 215.88H143.84C146.07 214.62 149.14 214.81 152.53 216.77C159.35 220.71 164.88 230.29 164.88 238.17C164.88 242.1 163.5 244.87 161.28 246.17L155.22 249.64L154.12 247.81C152.877 247.532 151.683 247.067 150.58 246.43C143.76 242.49 138.22 232.91 138.22 225.03C138.223 223.968 138.354 222.91 138.61 221.88L137.27 219.64Z" fill="#E0E0E0"/>
    <path d="M146.26 220.35C153.08 224.29 158.62 233.87 158.62 241.75C158.62 249.63 153.08 252.82 146.26 248.88C139.44 244.94 133.9 235.36 133.9 227.48C133.9 219.6 139.43 216.41 146.26 220.35Z" fill="#FAFAFA"/>
    <path d="M146.26 238C145.31 238 144.4 237.622 143.728 236.951C143.057 236.28 142.68 235.369 142.68 234.42V133.14C142.68 132.19 143.057 131.28 143.728 130.608C144.4 129.937 145.31 129.56 146.26 129.56C147.209 129.56 148.12 129.937 148.791 130.608C149.463 131.28 149.84 132.19 149.84 133.14V234.43C149.837 235.377 149.459 236.285 148.788 236.955C148.117 237.624 147.207 238 146.26 238Z" fill="#EBEBEB"/>
    <path d="M142.68 143.15L106.78 122.43L118.02 144.04L106.78 152.69L142.68 173.41V143.15Z" fill="#92E3A9"/>
    <path d="M330.12 236.7C330.084 236.024 329.888 235.366 329.549 234.781C329.21 234.195 328.738 233.698 328.17 233.33L228.48 175.77C227.877 175.464 227.211 175.305 226.535 175.305C225.859 175.305 225.193 175.464 224.59 175.77L222.39 177.04C221.821 177.409 221.347 177.908 221.008 178.495C220.669 179.083 220.475 179.742 220.44 180.42V256.83C220.479 257.506 220.675 258.164 221.014 258.751C221.352 259.338 221.824 259.838 222.39 260.21L322.08 317.76C322.684 318.066 323.352 318.225 324.03 318.225C324.707 318.225 325.375 318.066 325.98 317.76L328.17 316.49C328.736 316.119 329.206 315.621 329.545 315.036C329.884 314.451 330.081 313.795 330.12 313.12V236.7Z" fill="#92E3A9"/>
    <path opacity="0.4" d="M329.55 234.78L324 238L221 178.5C221.328 177.904 221.803 177.401 222.38 177.04L224.58 175.78C225.181 175.47 225.848 175.308 226.525 175.308C227.202 175.308 227.869 175.47 228.47 175.78L328.16 233.33C328.739 233.687 329.218 234.186 329.55 234.78Z" fill="white"/>
    <path opacity="0.1" d="M330.12 236.699V313.109C330.085 313.787 329.89 314.446 329.551 315.034C329.212 315.621 328.739 316.12 328.17 316.489L326 317.759C325.827 317.855 325.647 317.936 325.46 317.999C325.2 318.086 324.932 318.146 324.66 318.179C324.147 318.248 323.627 318.231 323.12 318.129L322.74 318.029L322.51 317.939C322.657 318.002 322.815 318.034 322.975 318.034C323.135 318.034 323.293 318.002 323.44 317.939C323.647 317.801 323.813 317.609 323.919 317.383C324.025 317.158 324.067 316.907 324.04 316.659V240.219C324.061 239.874 323.976 239.53 323.798 239.234C323.619 238.938 323.355 238.702 323.04 238.559L324.04 237.969L329.57 234.779C329.912 235.362 330.102 236.023 330.12 236.699Z" fill="black"/>
    <path opacity="0.2" d="M324 238L277.84 255.25C276.243 255.847 274.49 255.882 272.87 255.349C271.251 254.817 269.861 253.748 268.93 252.32L261.52 240.96L220.63 178.31L260.04 241.39L220.42 256.89C220.455 257.581 220.664 258.252 221.03 258.84L260.15 241.57L268.76 255.35C269.717 256.881 271.195 258.016 272.921 258.547C274.648 259.078 276.507 258.969 278.16 258.24L284.29 255.53L323.4 317.95C323.608 317.812 323.773 317.619 323.879 317.394C323.985 317.168 324.027 316.917 324 316.67V315.39L284.5 255.42L324 238Z" fill="black"/>
    <path d="M434.87 332.999L433.16 330.469C433.16 330.469 418.16 304.769 415.08 299.719C412 294.669 400.9 286.889 400.9 286.889L402.07 239.609L376 243.399C375.79 249.039 376.67 270.599 380.75 281.399C383.001 287.536 385.848 293.438 389.25 299.019C390.47 301.119 426.94 336.839 426.94 336.839L428 337.999C428.702 338.804 429.664 339.337 430.719 339.505C431.773 339.673 432.853 339.466 433.77 338.919L433.86 338.859C434.764 338.21 435.376 337.232 435.565 336.136C435.754 335.04 435.504 333.913 434.87 332.999Z" fill="#FFA8A7"/>
    <path d="M431.89 328.27L427.21 320.27C427.21 320.27 427.28 324.03 424.76 326.27C423.11 327.662 421.159 328.652 419.06 329.16L425.48 335.47C425.48 335.47 431.82 335.33 431.89 328.27Z" fill="#F0F0F0"/>
    <path d="M441 339.24C440.79 338.07 439.38 336.45 438.47 335.42C436.64 333.13 432.42 326.1 431.61 325.2C431.53 325.078 431.421 324.978 431.293 324.909C431.164 324.84 431.021 324.804 430.875 324.804C430.73 324.804 430.586 324.84 430.458 324.909C430.33 324.978 430.22 325.078 430.14 325.2L430.75 326.25C430.75 326.25 431.62 328.11 429.3 331.25C428.3 332.59 425.25 334.13 423.73 333.73L422.89 332.91C422.26 334.2 423.28 334.91 425.16 336.76C427.04 338.61 426.36 342.28 425.77 343.92C424.582 346.637 422.794 349.051 420.54 350.98C416.04 354.98 415.87 356.42 417.87 357.72C419.57 358.82 424.56 359.35 428.3 357.72C431.72 356.26 433 354.31 433.64 351.02C434.28 347.73 436.28 346.67 438.01 345.18C439.74 343.69 441.27 341 441 339.24Z" fill="#263238"/>
    <path d="M415.4 243.53L381.05 238.89H378.71C378.71 238.89 377.81 245.89 383.49 253.79C385.461 256.658 387.742 259.3 390.29 261.67C390.29 261.67 386.21 286.15 384.78 297.93C383.62 307.44 379.78 341.68 378.78 350.12C378.637 351.384 378.424 352.639 378.14 353.88L376.62 360.46L384.07 362.18L386.2 357.18C386.778 354.676 387.571 352.227 388.57 349.86C392.445 340.235 395.754 330.391 398.48 320.38C400.48 312.55 399.65 303.7 399.48 301.6C399.48 301.6 411.82 275.6 414.89 260.4C416.15 254.862 416.324 249.133 415.4 243.53Z" fill="#FFA8A7"/>
    <path d="M378.71 351L379.78 341.55C379.78 341.55 384.12 344.73 391.37 342.79C390.27 345.79 388.96 349.15 387.54 352.68C387.54 352.68 383.89 356.97 380.93 355.94C377.97 354.91 378.71 351 378.71 351Z" fill="#F0F0F0"/>
    <path d="M388.45 350.409L388.05 351.409C388.05 351.409 386.22 353.819 381.44 352.669C380.664 352.519 379.972 352.081 379.503 351.444C379.035 350.806 378.823 350.016 378.91 349.229C378.91 349.229 377.82 349.229 377.71 350.109C377.239 353.599 375.825 356.894 373.62 359.639C372.216 361.079 370.617 362.314 368.87 363.309C364.6 365.939 360.65 367.599 360.16 369.159C359.36 371.739 362.78 374.039 368.16 374.349C370.674 374.542 373.198 374.131 375.52 373.149C377.594 372.058 379.445 370.59 380.98 368.819C382.29 367.509 386.28 366.189 387.27 364.609C387.69 363.929 387.91 361.239 387.91 359.759V358.679C388.127 356.47 388.621 354.296 389.38 352.209C389.72 350.999 388.45 350.409 388.45 350.409Z" fill="#263238"/>
    <path d="M376 243.399C376 243.399 375.79 256.959 376 262.939C376.21 268.919 377.32 284.229 377.32 284.229C380.206 285.503 383.336 286.127 386.49 286.059L386.14 288.449C393.525 292.413 402.087 293.594 410.27 291.779C410.27 291.779 415.57 272.909 416.39 259.599C417.21 246.289 415.47 243.529 415.47 243.529L376 243.399Z" fill="#455A64"/>
    <path d="M386.6 284.88C394.267 288.586 402.963 289.584 411.27 287.71L410.97 288.89C410.97 288.89 399.84 292.75 386.42 286.06L386.6 284.88Z" fill="#37474F"/>
    <path d="M377 280.29C377 280.29 382.56 282.29 387 282.19L386.85 283.19C386.85 283.19 381 283 377 281.35V280.29Z" fill="#37474F"/>
    <path d="M385.74 290.71C385.74 290.71 389.43 265.16 390.29 261.71C390.29 261.71 383.95 259.28 382.01 257.05C382.01 257.05 383.39 260.16 387.92 262.93L385.74 290.71Z" fill="#F28F8F"/>
    <path d="M382 257C382 257 383.38 260.11 387.91 262.88L386.1 286.05H386.41C387.52 278.53 389.65 264.22 390.28 261.65C390.29 261.66 384 259.23 382 257Z" fill="#263238"/>
    <path d="M399.52 301.62C400.52 300.25 402.52 295.62 403.7 292.56H403.94L400.94 302.32C401.58 305.535 401.868 308.811 401.8 312.09L399.8 310.34C399.88 308.87 399.52 301.62 399.52 301.62Z" fill="#F28F8F"/>
    <path d="M379.84 232.74C384.84 216.01 383.84 201.84 384.84 197.5L371.97 215.5C371.423 221.428 370.545 227.32 369.34 233.15C367.85 239.55 365.82 247.52 363.39 252.48C362.949 253.356 362.202 254.039 361.29 254.4C358.86 255.4 357.74 256.64 355.79 258.08C354.26 259.21 353.1 259.36 353.2 259.82C353.365 260.338 353.719 260.774 354.192 261.041C354.665 261.308 355.222 261.387 355.75 261.26C356.928 261.012 358.072 260.626 359.16 260.11C358.043 261.951 356.638 263.602 355 265C351.28 268.24 350.74 270.53 356.94 271.66C360.82 272.36 364.34 270.5 368.75 262.44C370.432 259.498 371.903 256.441 373.15 253.29C376.09 245.09 378.32 237.8 379.84 232.74Z" fill="#FFA8A7"/>
    <path d="M389.19 190C383.19 190 377.19 191.38 375.19 197.79C373.19 204.2 370.53 222.23 370.53 222.23C370.53 222.23 373.06 225.61 381.53 225.08L389.19 190Z" fill="#E0E0E0"/>
    <path d="M401.58 190.45C405.81 191.45 410.71 192.33 414.8 194.36C417.65 195.77 413.48 219.36 413.48 219.36L415.4 243.5C409.76 249.6 388.21 252.38 375.96 243.37C375.96 243.37 376.07 210.52 376.09 204.28C376.11 198.04 379.61 190.54 389.19 190.01L401.58 190.45Z" fill="#F5F5F5"/>
    <path d="M385.23 198.2C386.01 200.04 387.43 200.78 390.01 201.07C391.306 201.161 392.607 200.987 393.834 200.561C395.061 200.135 396.189 199.464 397.15 198.59L393.94 195.39L389.87 198.46L389.52 195.05L385.23 198.2Z" fill="#92E3A9"/>
    <path opacity="0.1" d="M385.23 198.2C386.01 200.04 387.43 200.78 390.01 201.07C391.306 201.161 392.607 200.987 393.834 200.561C395.061 200.135 396.189 199.464 397.15 198.59L393.94 195.39L389.87 198.46L389.52 195.05L385.23 198.2Z" fill="black"/>
    <path d="M413.5 218.929L409.82 208.659L414.09 227.109L413.5 218.929Z" fill="#E0E0E0"/>
    <path d="M408.33 168.74L405.64 179.22C405.36 180.31 404.724 181.276 403.833 181.964C402.942 182.653 401.846 183.024 400.72 183.02H397.61L397.66 168.39L408.33 168.74Z" fill="#263238"/>
    <path d="M398.239 164.864C398.27 158.657 393.262 153.6 387.054 153.569C380.847 153.539 375.79 158.547 375.76 164.754C375.729 170.962 380.737 176.019 386.944 176.049C393.152 176.079 398.209 171.072 398.239 164.864Z" fill="#263238"/>
    <path d="M404.38 158.489C405.027 158.414 405.681 158.488 406.295 158.705C406.908 158.921 407.464 159.275 407.92 159.739C409.43 161.299 409.11 164.169 407.92 170.739L403.22 171.259L404.38 158.489Z" fill="#263238"/>
    <path d="M402.14 171.299C402.83 171.719 403.83 170.379 404.7 169.479C405.57 168.579 408.37 167.369 409.76 170.319C411.15 173.269 408.93 177.319 406.76 178.169C405.998 178.542 405.122 178.606 404.315 178.347C403.508 178.087 402.832 177.526 402.43 176.779L401.55 190.449C401.55 190.449 396.55 197.569 389.84 198.449C388.31 195.129 386.94 192.749 389.16 190.029V185.849C387.467 186.145 385.744 186.229 384.03 186.099C382.664 185.788 381.415 185.096 380.427 184.103C379.439 183.11 378.754 181.857 378.45 180.489C376.945 174.448 376.781 168.151 377.97 162.039C379.8 151.629 391.48 151.489 398.06 155.659C404.64 159.829 402.14 171.299 402.14 171.299Z" fill="#FFA8A7"/>
    <path d="M402.14 172.469C402.49 172.469 403.83 170.269 404.7 169.469C405.9 168.389 404.38 158.469 404.38 158.469C403.8 150.349 391.83 149.689 388.52 149.469C380.94 148.899 375.77 153.079 377.81 158.379C379.18 160.779 381.97 161.449 384.6 161.779C389.06 162.339 396.66 159.969 397.6 159.839C398.9 159.669 399.17 160.929 399.86 164.349C400.47 167.349 401 172.439 402.14 172.469Z" fill="#263238"/>
    <path d="M404.38 159.26L408.6 157C408.466 156.715 408.276 156.461 408.041 156.252C407.806 156.043 407.532 155.884 407.234 155.784C406.935 155.684 406.62 155.645 406.307 155.67C405.994 155.696 405.689 155.784 405.41 155.93C404.841 156.243 404.415 156.766 404.223 157.387C404.031 158.008 404.087 158.679 404.38 159.26Z" fill="#263238"/>
    <path d="M389.22 185.86C389.22 185.86 395.47 184.63 397.66 183.47C398.94 182.795 399.985 181.749 400.66 180.47C400.352 181.747 399.788 182.948 399 184C397.4 186 389.25 187.52 389.25 187.52L389.22 185.86Z" fill="#F28F8F"/>
    <path d="M389.07 170.999C389.066 171.167 389.095 171.333 389.156 171.49C389.217 171.646 389.308 171.789 389.424 171.909C389.54 172.03 389.679 172.127 389.833 172.194C389.987 172.261 390.152 172.296 390.32 172.299C390.659 172.291 390.981 172.15 391.216 171.907C391.452 171.664 391.583 171.338 391.58 170.999C391.595 170.825 391.575 170.649 391.519 170.484C391.463 170.318 391.373 170.166 391.255 170.037C391.137 169.907 390.993 169.804 390.833 169.734C390.673 169.663 390.5 169.627 390.325 169.627C390.15 169.627 389.977 169.663 389.817 169.734C389.657 169.804 389.513 169.907 389.395 170.037C389.277 170.166 389.187 170.318 389.131 170.484C389.075 170.649 389.054 170.825 389.07 170.999Z" fill="#263238"/>
    <path d="M390.41 166.299L393.09 167.789C393.282 167.423 393.325 166.996 393.209 166.599C393.094 166.202 392.829 165.865 392.47 165.659C392.294 165.562 392.099 165.502 391.899 165.482C391.699 165.462 391.497 165.482 391.304 165.542C391.112 165.602 390.934 165.7 390.78 165.83C390.627 165.96 390.501 166.119 390.41 166.299Z" fill="#263238"/>
    <path d="M389.81 179.399L387 180.459C387.055 180.655 387.15 180.838 387.279 180.996C387.408 181.154 387.568 181.284 387.748 181.377C387.929 181.471 388.127 181.527 388.331 181.541C388.534 181.555 388.738 181.527 388.93 181.459C389.315 181.298 389.623 180.992 389.787 180.608C389.951 180.223 389.959 179.79 389.81 179.399Z" fill="#F28F8F"/>
    <path d="M378.57 167.31L381.02 165.43C380.906 165.265 380.759 165.124 380.589 165.018C380.419 164.911 380.229 164.84 380.031 164.81C379.833 164.779 379.63 164.789 379.436 164.838C379.241 164.888 379.059 164.977 378.9 165.1C378.572 165.355 378.355 165.727 378.293 166.139C378.232 166.55 378.331 166.969 378.57 167.31Z" fill="#263238"/>
    <path d="M379.29 170.31C379.29 170.467 379.321 170.623 379.381 170.769C379.442 170.914 379.53 171.047 379.642 171.158C379.753 171.27 379.885 171.358 380.031 171.418C380.176 171.479 380.332 171.51 380.49 171.51C380.648 171.51 380.804 171.479 380.949 171.418C381.095 171.358 381.227 171.27 381.339 171.158C381.45 171.047 381.538 170.914 381.599 170.769C381.659 170.623 381.69 170.467 381.69 170.31C381.695 170.149 381.669 169.989 381.612 169.839C381.554 169.689 381.468 169.551 381.357 169.435C381.246 169.319 381.113 169.226 380.966 169.161C380.819 169.097 380.661 169.062 380.5 169.06C380.175 169.067 379.865 169.203 379.639 169.437C379.413 169.671 379.287 169.984 379.29 170.31Z" fill="#263238"/>
    <path d="M384.56 170.5L385.71 177.96L381.59 177.46L384.56 170.5Z" fill="#F28F8F"/>
    <path d="M387.26 197.199C387.17 198.358 387.187 199.523 387.31 200.679C387.433 201.718 387.829 202.705 388.46 203.539C388.867 203.801 389.329 203.965 389.809 204.017C390.29 204.069 390.777 204.008 391.23 203.839C391.987 203.09 392.572 202.184 392.945 201.187C393.318 200.189 393.47 199.122 393.39 198.059L389.87 198.459L387.26 197.199Z" fill="#92E3A9"/>
    <path d="M388.46 203.54C388.46 203.54 384.3 218.94 384.14 220.8C383.98 222.66 387.6 232.58 389.19 232.63C390.78 232.68 393.68 225.93 393.73 224.23C393.78 222.53 391.23 203.84 391.23 203.84L388.46 203.54Z" fill="#92E3A9"/>
    <path opacity="0.1" d="M391.23 203.84C390.783 204.039 390.291 204.116 389.804 204.064C389.318 204.011 388.854 203.83 388.46 203.54L388.38 203.81C388.781 204.145 389.257 204.377 389.767 204.487C390.278 204.596 390.807 204.58 391.31 204.44L391.23 203.84Z" fill="black"/>
    <path d="M389.87 198.46L401.63 189.59L401.8 186.96C401.8 186.96 404.35 187.96 404.97 192.76C403.096 196.916 399.89 200.329 395.86 202.46L393.39 198.06L389.87 198.46Z" fill="#E0E0E0"/>
    <path d="M389.2 188.069C387.662 188.306 386.279 189.14 385.35 190.389C384.17 192.389 384.44 199.759 384.44 199.759L387.26 197.199L389.87 198.459C389.62 195.989 389.19 191.819 389.19 191.819L389.2 188.069Z" fill="#E0E0E0"/>
    <path d="M399.62 162.62C399.62 162.62 391.08 169.06 381.02 166.99C370.36 164.79 377.6 158.38 377.6 158.38L399.62 162.62Z" fill="#37474F"/>
    <path d="M372.53 150.54C375.39 146.98 387.37 142.54 397.61 144.95C407.85 147.36 410.61 152.71 410.61 152.71C406.494 155.247 401.698 156.458 396.87 156.18C388.71 155.73 372.53 150.54 372.53 150.54Z" fill="#92E3A9"/>
    <path opacity="0.4" d="M372.53 150.54C375.39 146.98 387.37 142.54 397.61 144.95C407.85 147.36 410.61 152.71 410.61 152.71C406.494 155.247 401.698 156.458 396.87 156.18C388.71 155.73 372.53 150.54 372.53 150.54Z" fill="white"/>
    <path d="M409.29 155.93C409.882 154.928 410.317 153.842 410.58 152.71C410.58 152.71 409.37 153.88 402.43 152.82C395.85 151.82 389 147.99 381.69 147.68C374.38 147.37 372.53 150.54 372.53 150.54C373.463 152.979 374.96 155.162 376.9 156.91C376.9 156.91 380.15 161.31 388.71 161.53C397.27 161.75 409.29 155.93 409.29 155.93Z" fill="#92E3A9"/>
    <path d="M385.37 154.36C385.37 156.36 384.01 157.75 382.37 157.49C381.481 157.245 380.701 156.706 380.156 155.962C379.612 155.218 379.335 154.311 379.37 153.39C379.37 151.39 380.73 150 382.37 150.27C383.258 150.513 384.038 151.049 384.583 151.792C385.128 152.535 385.405 153.44 385.37 154.36Z" fill="#F5F5F5"/>
    <path d="M409.29 155.93L409.2 157.3C409.159 157.756 409.015 158.197 408.777 158.589C408.54 158.98 408.216 159.313 407.83 159.56C402.03 162.63 395.468 163.963 388.93 163.4C382.85 162.95 379.88 161.76 378.58 160.77C378.128 160.507 377.747 160.137 377.471 159.692C377.196 159.247 377.034 158.742 377 158.22L376.9 156.91C376.9 156.91 379.27 159.17 389.23 160C399.19 160.83 409.29 155.93 409.29 155.93Z" fill="#455A64"/>
    <path d="M385.42 190.269C385.42 190.269 380.63 193.839 383.54 208.889C387.19 227.679 398.17 247.329 398.17 247.329C398.17 247.329 393.37 249.489 392.63 248.729C391.89 247.969 385.12 232.599 382.27 223.799C379.42 214.999 375.27 200.799 380.61 191.589C380.61 191.589 383.12 189.609 385.42 190.269Z" fill="#92E3A9"/>
    <path opacity="0.1" d="M385.42 190.269C385.42 190.269 380.63 193.839 383.54 208.889C387.19 227.679 398.17 247.329 398.17 247.329C398.17 247.329 393.37 249.489 392.63 248.729C391.89 247.969 385.12 232.599 382.27 223.799C379.42 214.999 375.27 200.799 380.61 191.589C380.61 191.589 383.12 189.609 385.42 190.269Z" fill="black"/>
    <path d="M422.16 239.22C422.16 239.22 393.77 246.84 392.75 248.36C391.73 249.88 393.83 271.93 397.35 274.61C399.692 276.158 402.407 277.049 405.21 277.19C415.8 277.05 431.56 271.43 432.04 267.42C433.61 254.24 422.16 239.22 422.16 239.22Z" fill="#92E3A9"/>
    <path opacity="0.1" d="M422.16 239.22C422.16 239.22 393.77 246.84 392.75 248.36C391.73 249.88 393.83 271.93 397.35 274.61C399.692 276.158 402.407 277.049 405.21 277.19C415.8 277.05 431.56 271.43 432.04 267.42C433.61 254.24 422.16 239.22 422.16 239.22Z" fill="black"/>
    <path d="M422.16 239.22C425.06 240.01 429.69 248.72 429.7 250.56C429.7 254.47 425.24 258.72 411.79 261.56C402.22 263.56 399.05 261.92 397.72 259.1C395.72 254.84 394.51 249.64 392.72 248.36C394.7 246 419.48 238.49 422.16 239.22Z" fill="#92E3A9"/>
    <path d="M430.51 231.74C430.05 224.65 427.01 215.86 425.25 211.51L413.51 215.93C413.51 215.93 417.84 226.44 418.86 231.23C418.86 236.74 416.59 246.3 414.38 251.36C413.98 252.248 413.268 252.959 412.38 253.36C410 254.46 408.93 255.76 407.05 257.29C405.57 258.49 404.42 258.69 404.54 259.14C404.729 259.651 405.104 260.071 405.59 260.316C406.077 260.561 406.638 260.612 407.16 260.46C408.322 260.162 409.443 259.726 410.5 259.16C409.482 261.06 408.161 262.783 406.59 264.26C403.02 267.66 402.59 269.98 408.82 270.83C412.73 271.36 416.17 269.35 420.21 261.1C421.38 258.72 423.57 254.66 424.76 251.53C428.7 241.21 430.18 236.34 430.51 231.74Z" fill="#FFA8A7"/>
    <path d="M411.72 193.17C416.48 193.4 419.65 195.33 422.79 201.57C425.93 207.81 429.51 220.57 429.51 220.57C425.699 223.81 420.795 225.473 415.8 225.22C415.8 225.22 409.69 208.9 408.65 205.03C407.53 200.79 408.54 194.61 411.72 193.17Z" fill="#F5F5F5"/>
</svg>
