<svg width="187" height="27" viewBox="0 0 187 27" fill="none" xmlns="http://www.w3.org/2000/svg">
    <path d="M0 4.60954H6.0962V6.67589C6.83052 5.79422 7.80493 5.14462 8.9012 4.80589C9.98349 4.45068 11.1193 4.28617 12.2578 4.31969C13.3027 4.34584 14.3245 4.63184 15.2312 5.15184C16.0038 5.62979 16.6462 6.29148 17.1012 7.07794C17.8907 6.07827 18.9574 5.33352 20.1679 4.93679C21.3893 4.4955 22.6855 4.29853 23.9827 4.35709C24.9274 4.35335 25.8619 4.55069 26.7244 4.93597C27.5869 5.32126 28.3575 5.88569 28.985 6.59174C30.3002 8.05034 30.9641 10.4065 30.9766 13.6603V25.3665H24.871V13.6977C24.9442 12.752 24.6718 11.8118 24.1043 11.0517C23.8739 10.8047 23.5943 10.6088 23.2834 10.4767C22.9726 10.3447 22.6375 10.2793 22.2998 10.285C21.4287 10.2864 20.5795 10.5575 19.8688 11.061C19.4606 11.3446 19.1262 11.7217 18.8936 12.1609C18.661 12.6001 18.5369 13.0886 18.5317 13.5855V25.3665H12.4355V13.6977C12.5045 12.7524 12.2325 11.8137 11.6688 11.0517C11.4384 10.8047 11.1588 10.6088 10.8479 10.4767C10.5371 10.3447 10.202 10.2793 9.86425 10.285C9.02967 10.2741 8.21818 10.559 7.5735 11.0891C7.19354 11.4005 6.89045 11.7954 6.68776 12.2429C6.48507 12.6904 6.38823 13.1787 6.40475 13.6697V25.3665H0V4.60954Z" fill="#4E1D54"/>
    <path fill-rule="evenodd" clip-rule="evenodd" d="M42.701 4.26308C43.717 4.25265 44.7238 4.45655 45.6556 4.86148C46.6068 5.27199 47.4395 5.91503 48.0773 6.73148V4.60903H54.0987V25.366H48.0773V23.2903C47.4231 24.1254 46.5581 24.7709 45.5715 25.1603C44.6305 25.5133 43.6311 25.6847 42.6262 25.6652C40.6668 25.7097 38.74 25.1587 37.1004 24.0851C35.6337 23.0769 34.475 21.682 33.7531 20.0552C32.9995 18.3546 32.6231 16.5109 32.6498 14.6509C32.6522 12.8522 33.0446 11.0755 33.7998 9.44298C34.5219 7.89906 35.6787 6.59931 37.1284 5.70298C38.8284 4.71309 40.7722 4.22065 42.7384 4.28178L42.701 4.26308ZM43.3555 19.8402C43.9912 19.8437 44.6207 19.7159 45.2047 19.465C45.7887 19.214 46.3146 18.8452 46.7496 18.3816C47.6412 17.4216 48.1328 16.1574 48.124 14.8473C48.131 13.5319 47.64 12.2625 46.7496 11.2943C46.3223 10.8322 45.8049 10.4626 45.2291 10.2085C44.6534 9.95442 44.0316 9.82116 43.4023 9.81698C42.7483 9.79556 42.0978 9.92141 41.499 10.1852C40.9002 10.449 40.3684 10.844 39.9428 11.341C39.1605 12.3163 38.7265 13.525 38.7095 14.7751C38.6926 16.0252 39.0937 17.2452 39.8493 18.2413C40.2734 18.7572 40.8097 19.1694 41.4173 19.4465C42.025 19.7236 42.6879 19.8583 43.3555 19.8402Z" fill="#4E1D54"/>
    <path d="M62.4472 13.8484V25.3676H56.4258V4.61056H61.8675L62.1012 5.98501C62.699 5.40021 63.4066 4.93965 64.1834 4.62992C64.9601 4.32018 65.7905 4.16742 66.6266 4.18046C67.0082 4.18625 67.3891 4.21435 67.7673 4.26461C68.1694 4.32071 68.5621 4.39551 68.9735 4.48901L68.8893 10.1645C68.5674 10.0679 68.2395 9.99294 67.9076 9.94006C67.5613 9.88454 67.2111 9.8564 66.8604 9.85591C65.7769 9.83817 64.716 10.1656 63.831 10.7909C63.3763 11.1497 63.0137 11.6116 62.773 12.1384C62.5324 12.6652 62.4207 13.2417 62.4472 13.8203V13.8484Z" fill="#4E1D54"/>
    <path d="M76.6132 12.0909V12.7735L82.3354 4.60156H88.9365V4.91011L81.9146 14.924L89.6284 25.0968V25.3679H82.5691L76.6132 17.2708V25.3679H70.5918V4.60156H76.6132V12.0909Z" fill="#4E1D54"/>
    <path fill-rule="evenodd" clip-rule="evenodd" d="M99.951 4.26308C100.967 4.25265 101.974 4.45655 102.906 4.86148C103.857 5.27199 104.69 5.91503 105.327 6.73148V4.60903H111.349V25.366H105.327V23.2903C104.673 24.1254 103.808 24.7709 102.821 25.1603C101.881 25.5142 100.881 25.6856 99.8762 25.6652C97.917 25.7085 95.9905 25.1576 94.3504 24.0851C92.8837 23.0769 91.725 21.682 91.0031 20.0552C90.2495 18.3546 89.8731 16.5109 89.8998 14.6509C89.9022 12.8522 90.2946 11.0755 91.0498 9.44298C91.7719 7.89906 92.9287 6.59931 94.3784 5.70298C96.0787 4.71402 98.0223 4.22165 99.9884 4.28178L99.951 4.26308ZM100.606 19.8402C101.233 19.8373 101.854 19.7065 102.429 19.4557C103.005 19.2049 103.523 18.8394 103.953 18.3816C104.849 17.4242 105.341 16.1583 105.327 14.8473C105.339 13.531 104.847 12.26 103.953 11.2943C103.526 10.8322 103.008 10.4626 102.432 10.2085C101.857 9.95442 101.235 9.82116 100.606 9.81698C99.9515 9.79556 99.3011 9.92141 98.7023 10.1852C98.1035 10.449 97.5716 10.844 97.146 11.341C96.3743 12.3181 95.9558 13.5274 95.9586 14.7725C95.9256 16.026 96.3288 17.252 97.0993 18.2413C97.5234 18.7572 98.0597 19.1694 98.6673 19.4465C99.275 19.7236 99.9379 19.8583 100.606 19.8402Z" fill="#4E1D54"/>
    <path d="M118.007 10.5937C117.986 10.942 118.053 11.2899 118.199 11.6065C118.346 11.923 118.569 12.1982 118.848 12.4076C119.426 12.7859 120.087 13.017 120.774 13.0808C121.513 13.1649 122.205 13.221 122.85 13.2397C124.175 13.3112 125.487 13.5403 126.758 13.9223C127.954 14.259 129.041 14.9039 129.909 15.7923C130.797 16.798 131.263 18.1076 131.209 19.4481C131.248 20.825 130.756 22.164 129.835 23.1881C128.926 24.1195 127.782 24.7882 126.525 25.1236C125.23 25.4959 123.889 25.6817 122.542 25.6752C121.159 25.6892 119.783 25.4678 118.474 25.0207C117.256 24.6133 116.177 23.8713 115.361 22.8796C114.5 21.752 114.018 20.3803 113.986 18.9619H117.726C117.757 19.4938 117.918 20.0101 118.193 20.4662C118.468 20.9223 118.85 21.3046 119.306 21.5799C120.342 22.1766 121.526 22.4653 122.719 22.4121C123.416 22.4046 124.11 22.3136 124.786 22.1409C125.474 21.9825 126.116 21.662 126.656 21.2059C126.921 20.9742 127.131 20.6859 127.27 20.3622C127.409 20.0386 127.474 19.6879 127.46 19.3359C127.473 18.9939 127.4 18.654 127.246 18.3481C127.092 18.0423 126.863 17.7805 126.581 17.5875C125.964 17.1913 125.268 16.933 124.542 16.8301C123.843 16.6929 123.133 16.6116 122.42 16.587C121.154 16.5465 119.898 16.3518 118.68 16.0073C117.506 15.6982 116.437 15.078 115.585 14.2121C114.715 13.2303 114.256 11.9513 114.304 10.6404C114.262 9.26133 114.706 7.91125 115.557 6.82562C116.379 5.86692 117.45 5.15486 118.652 4.76862C119.924 4.34578 121.257 4.13724 122.598 4.15152C124.512 4.09639 126.401 4.60348 128.03 5.61012C128.802 6.1265 129.438 6.82067 129.885 7.63423C130.333 8.44778 130.578 9.35692 130.601 10.2851H126.861C126.811 9.85075 126.655 9.43553 126.405 9.07657C126.155 8.71761 125.821 8.42611 125.431 8.22812C124.482 7.77289 123.444 7.53655 122.392 7.53655C121.34 7.53655 120.302 7.77289 119.353 8.22812C118.934 8.45404 118.586 8.79061 118.345 9.20114C118.104 9.61168 117.981 10.0804 117.988 10.5563L118.007 10.5937Z" fill="#F5A800"/>
    <path d="M134.951 0.7293L138.691 0V4.60955H143.254V7.5922H138.691V19.2704C138.691 20.7664 139.15 21.6827 139.991 22.0099C141.085 22.3582 142.247 22.4321 143.376 22.225V25.3665C141.299 25.6938 139.173 25.3909 137.27 24.497C135.743 23.6617 134.964 21.907 134.933 19.2329V7.5922H131.838V4.60955H134.951V0.7293Z" fill="#F5A800"/>
    <path fill-rule="evenodd" clip-rule="evenodd" d="M148.263 16.4363C148.394 17.1741 148.624 17.891 148.945 18.5681C149.496 19.7115 150.35 20.6818 151.414 21.3731C152.668 22.0782 154.084 22.4455 155.523 22.439C156.962 22.4324 158.375 22.0522 159.623 21.3357C160.685 20.6639 161.543 19.7129 162.101 18.5868C162.441 17.8983 162.68 17.1646 162.811 16.4082H166.187C166.039 17.7925 165.66 19.1421 165.065 20.4007C164.269 22.076 163.027 23.4994 161.474 24.5147C159.673 25.5978 157.611 26.1701 155.509 26.1701C153.407 26.1701 151.345 25.5978 149.544 24.5147C147.987 23.4865 146.748 22.046 145.963 20.3539C145.384 19.1137 145.011 17.7873 144.859 16.4269L148.263 16.4363Z" fill="#4E1D54"/>
    <path fill-rule="evenodd" clip-rule="evenodd" d="M155.517 7.57349C154.092 7.54182 152.687 7.91812 151.469 8.65809C150.415 9.32627 149.564 10.2706 149.01 11.3883C148.678 12.0496 148.441 12.7548 148.308 13.4827H144.877C145.027 12.1299 145.403 10.8119 145.99 9.58374C146.787 7.90128 148.037 6.47367 149.599 5.46039C151.401 4.38014 153.463 3.80957 155.564 3.80957C157.665 3.80957 159.727 4.38014 161.529 5.46039C163.083 6.49111 164.323 7.93094 165.11 9.62114C165.678 10.8388 166.047 12.1392 166.204 13.4733H162.782C162.646 12.768 162.42 12.0829 162.109 11.435C161.563 10.2886 160.708 9.31724 159.641 8.63004C158.401 7.87357 156.969 7.49051 155.517 7.52674V7.57349Z" fill="#F5A800"/>
    <path d="M172.993 4.60156V14.5406L176.172 10.7445L181.932 4.61091H186.466L178.098 13.5495L186.999 25.022V25.3679H182.661L175.677 16.1582L172.993 19.038V25.3679H169.234V4.60156H172.993Z" fill="#F5A800"/>
</svg>
