<svg width="187" height="120" viewBox="0 0 187 187" fill="none" xmlns="http://www.w3.org/2000/svg">
    <path d="M62.1291 38.2095V107.413H55.8597V50.9175L33.2801 95.1335H28.8489L6.26947 51.0126V107.413H0V38.2095H6.59945L31.1587 85.9953L55.7182 38.2095H62.1762H62.1291ZM128.83 108.413L117.423 96.1331C113.322 102.654 107.712 107.413 98.4731 107.413C86.5941 107.413 77.8734 99.0841 77.8734 88.8985C77.8734 80.3791 83.0587 75.0959 93.0992 69.3845C87.3955 63.6255 84.2843 58.866 84.2843 53.2021C84.2843 44.968 91.1666 38.4475 99.5101 38.4475C108.325 38.4475 114.925 44.968 114.925 53.2021C114.925 61.4362 108.749 66.4812 102.574 70.5744L116.716 86.1381L125.06 72.4782L130.056 75.667L120.817 90.8501L133.497 104.415L128.878 108.46L128.83 108.413ZM97.0119 73.7157C88.0555 78.6656 84.143 82.616 84.143 88.8034C84.143 95.8475 90.4124 101.702 98.4731 101.702C105.733 101.702 109.456 98.3226 113.51 91.802L97.0119 73.7633V73.7157ZM90.4124 53.2021C90.4124 57.0574 92.9579 60.3413 98.5675 66.3861C105.12 62.5308 108.796 58.4376 108.796 53.2021C108.796 47.9666 105.355 43.9685 99.463 43.9685C93.9479 43.9685 90.4124 48.3473 90.4124 53.2021ZM186.529 53.0117L180.825 55.1058C178.562 47.8713 172.198 43.207 163.525 43.207C154.097 43.207 147.922 47.9666 147.922 56.0103C147.922 73.2397 187 64.149 187 88.4228C187 100.036 177.761 108.175 163.996 108.175C151.222 108.175 143.585 102.035 138.258 92.2303L143.538 88.9463C147.073 96.4664 153.531 102.321 163.383 102.321C174.791 102.321 180.683 97.0375 180.683 88.3274C180.683 70.9551 141.605 79.4747 141.605 55.9149C141.605 41.9219 154.05 37.4004 163.289 37.4004C173.707 37.4004 183.135 42.1599 186.481 53.0592" fill="#222222"/>
    <path d="M46.7987 134.641H44.8809V149.601H54.2309V147.743H46.7987V134.641Z" fill="#222222"/>
    <path d="M84.2255 145.787L76.3267 134.641H74.8008V149.601H76.5959V138.209L84.6743 149.601H86.0208V134.641H84.2255V145.787Z" fill="#222222"/>
    <path d="M63.6281 134.641C59.3539 134.641 56.0996 137.85 56.0996 142.144C56.0996 145.825 58.9166 149.601 63.5796 149.601C67.8539 149.601 71.0596 146.344 71.0596 142.097C71.0596 137.85 67.8539 134.688 63.6281 134.688M63.6281 147.854C60.471 147.854 58.0909 145.401 58.0909 142.144C58.0909 138.888 60.471 136.528 63.5796 136.528C66.6883 136.528 69.0683 138.982 69.0683 142.239C69.0683 145.495 66.7368 147.902 63.5796 147.902" fill="#222222"/>
    <path d="M98.4339 134.641H93.5V149.601H98.4339C103.166 149.601 106.59 146.482 106.59 142.145C106.59 137.808 103.166 134.641 98.4339 134.641ZM98.4339 147.7H95.514V136.492H98.4339C102.008 136.492 104.526 138.783 104.526 142.096C104.526 145.41 102.008 147.7 98.4339 147.7Z" fill="#222222"/>
    <path d="M117.859 134.641C113.584 134.641 110.33 137.85 110.33 142.144C110.33 145.825 113.147 149.601 117.81 149.601C122.084 149.601 125.29 146.344 125.29 142.097C125.29 137.85 122.084 134.688 117.859 134.688M117.859 147.854C114.701 147.854 112.321 145.401 112.321 142.144C112.321 138.888 114.701 136.528 117.81 136.528C120.919 136.528 123.299 138.982 123.299 142.239C123.299 145.495 120.967 147.902 117.859 147.902" fill="#222222"/>
    <path d="M138.461 134.641V145.787L130.549 134.641H129.029V149.601H130.817V138.209L138.908 149.601H140.249V134.641H138.461Z" fill="#222222"/>
</svg>
