<svg width="187" height="33" viewBox="0 0 187 33" fill="none" xmlns="http://www.w3.org/2000/svg">
    <path d="M77.5423 12.8406C77.4176 13.3393 77.9163 13.9626 78.4149 13.838C79.4123 13.7133 79.2876 12.2173 78.1656 12.2173C77.9163 12.342 77.6669 12.4666 77.5423 12.8406ZM152.966 13.2146C152.841 13.7133 153.34 14.3366 153.838 14.212C154.96 14.0873 154.836 12.4666 153.714 12.5913C153.215 12.716 153.09 12.8406 152.966 13.2146ZM143.491 17.0793C143.491 16.456 143.366 15.0846 143.616 14.7106C143.99 14.212 145.361 14.4613 146.109 14.3366C146.234 14.3366 146.483 14.3366 146.608 14.3366C147.48 14.3366 147.48 14.96 147.48 15.8326C147.48 16.2066 147.48 16.5806 147.48 16.9546C147.48 17.204 147.48 17.4533 147.48 17.8273C147.356 18.5753 147.48 19.3233 147.356 19.9466C147.231 20.57 146.857 21.0686 146.608 21.4426C146.358 21.8166 145.86 22.1906 145.236 22.066C143.117 21.692 143.491 19.3233 143.491 17.0793ZM131.648 18.7C131.274 20.4453 131.523 22.44 132.52 23.188C132.77 23.3126 132.894 23.562 133.268 23.562C134.39 23.936 135.263 23.3126 135.886 22.814C136.26 22.5646 136.634 22.1906 137.258 22.3153C138.13 22.5646 138.38 23.4373 139.377 23.562C139.876 23.6866 140.25 23.4373 140.624 23.3126C141.122 22.9386 141.496 22.5646 142.244 22.44C142.618 22.3153 142.992 22.5646 143.242 22.6893C143.74 22.9386 144.239 23.4373 144.987 23.562C145.361 23.6866 145.735 23.4373 145.984 23.3126C146.483 23.0633 146.982 22.5646 147.605 22.44C147.979 22.44 148.228 22.5646 148.478 22.6893C148.976 22.9386 149.35 23.4373 149.974 23.562C151.096 23.8113 152.218 22.814 152.966 22.44C153.34 22.3153 153.714 22.3153 154.088 22.44C154.337 22.5646 154.586 22.814 154.836 23.0633C155.334 23.4373 156.207 23.6866 157.08 23.4373C157.329 23.3126 157.578 23.3126 157.828 23.188C158.077 23.0633 158.7 22.6893 158.576 22.3153C158.326 22.3153 157.703 22.44 157.329 22.5646C156.207 22.814 155.334 21.9413 155.085 21.1933C154.836 20.6946 154.711 20.196 154.586 19.5726C154.586 19.3233 154.462 18.9493 154.462 18.7C154.337 18.0766 154.462 17.3286 153.838 17.204C152.841 16.9546 153.09 18.5753 152.966 19.3233C152.716 20.6946 152.467 21.4426 151.345 21.9413C150.722 22.1906 150.098 22.1906 149.6 21.8166C148.727 21.1933 148.852 19.9466 148.852 18.4506C148.852 17.8273 148.852 17.0793 148.852 16.456C148.852 15.8326 148.727 14.7106 148.976 14.4613C149.226 13.9626 150.348 14.212 150.846 14.0873C150.971 13.9626 151.22 13.838 151.096 13.5886C150.971 12.8406 149.6 13.3393 148.976 12.9653C148.353 12.4666 149.101 10.472 148.353 10.2226C148.104 10.098 147.854 10.2226 147.73 10.472C147.48 10.846 147.48 11.594 147.48 12.2173C147.48 12.4666 147.48 12.716 147.356 12.8406C147.356 12.9653 147.106 13.09 146.982 13.2146C146.732 13.3393 146.483 13.2146 146.234 13.3393C145.735 13.3393 145.361 13.3393 144.862 13.3393C144.613 13.3393 144.239 13.3393 143.99 13.3393C142.868 13.09 144.114 10.2226 142.743 10.2226C142.494 10.3473 142.369 10.3473 142.244 10.7213C141.995 11.3446 142.369 12.4666 142.12 13.09C141.87 13.7133 140.748 13.2146 140.374 13.838C140.374 13.9626 140.25 14.0873 140.25 14.212C140.374 15.0846 141.746 14.4613 142.12 15.0846C142.369 15.4586 142.244 16.5806 142.244 17.0793C142.244 18.8246 142.244 20.0713 141.496 21.1933C141.372 21.4426 141.247 21.692 140.998 21.8166C140.873 21.9413 140.624 22.066 140.374 22.1906C140.125 22.3153 139.751 22.3153 139.377 22.1906C138.255 21.8166 138.38 20.4453 138.13 19.074C138.006 18.4506 138.255 17.3286 137.632 17.3286C136.884 17.204 136.759 18.7 136.634 19.1986C136.385 20.57 136.011 21.9413 134.64 22.1906C133.767 22.3153 133.393 21.692 133.144 21.1933C133.019 20.944 133.144 20.57 133.019 20.196C132.894 19.6973 133.019 19.1986 133.019 18.7C133.144 18.0766 132.894 17.0793 132.271 17.204C131.772 17.4533 131.772 18.2013 131.648 18.7ZM112.075 9.22529C112.2 9.59929 112.698 9.47462 112.948 9.34996C113.696 9.22529 114.693 8.72662 114.818 9.72396C114.942 11.4693 114.942 13.3393 115.067 15.0846C115.067 15.5833 115.067 16.2066 115.067 16.7053C115.067 17.4533 115.067 18.0766 115.067 18.8246V19.448C115.192 20.196 115.067 21.4426 115.566 21.692C115.94 21.8166 116.064 21.5673 116.189 21.318C116.438 20.8193 116.438 20.196 116.438 19.5726C116.438 19.448 116.438 19.1986 116.438 19.074C116.438 18.4506 116.438 17.8273 116.438 17.204C116.438 15.9573 116.438 14.7106 116.438 13.464C116.438 12.8406 116.438 12.2173 116.438 11.594V11.0953C116.438 10.7213 116.438 10.3473 116.438 9.97329C116.438 9.72396 116.438 9.47462 116.438 9.22529C116.438 8.97596 116.563 8.85129 116.812 8.72662C117.186 8.47729 118.932 8.35262 119.555 8.47729C120.303 8.60196 120.926 8.60196 121.3 8.72662C123.046 9.10062 124.417 9.97329 125.414 11.22C125.913 11.8433 126.412 12.5913 126.661 13.464C126.786 13.9626 126.91 14.4613 127.035 15.0846C127.284 16.3313 126.91 17.952 126.661 18.8246C125.539 21.692 123.42 22.9386 120.303 23.6866C119.804 23.8113 119.306 23.8113 118.682 23.8113C118.433 23.8113 118.184 23.8113 117.934 23.8113H117.186C116.937 23.8113 116.563 23.8113 116.314 23.8113C115.94 23.8113 115.566 23.8113 115.192 23.6866C114.693 23.6866 114.194 23.6866 113.696 23.562C113.446 23.562 113.072 23.4373 112.823 23.4373C112.823 23.4373 112.823 23.4373 112.823 23.562C112.948 23.8113 113.322 23.8113 113.571 23.936C114.194 24.1853 114.942 24.31 115.815 24.5593C119.68 25.432 123.918 24.31 126.162 22.6893C127.783 21.5673 129.03 20.0713 129.528 17.8273C129.653 17.3286 129.778 16.2066 129.778 15.5833C129.778 15.4586 129.778 15.2093 129.778 15.0846C129.653 14.586 129.653 14.0873 129.528 13.7133C129.279 12.8406 129.03 12.0926 128.656 11.4693C126.91 8.72662 124.043 7.10596 119.68 7.10596C119.43 7.10596 119.181 7.10596 119.056 7.10596C118.682 7.10596 118.184 7.23062 117.81 7.23062C116.314 7.47996 114.942 7.72929 113.696 8.22796C113.322 8.35262 112.823 8.47729 112.449 8.72662C112.324 8.85129 112.075 8.97596 112.075 9.22529ZM65.9483 21.1933C66.8209 21.1933 67.3196 22.5646 66.3223 22.9386C65.6989 23.0633 64.7016 22.6893 64.8263 22.066C64.9509 21.5673 65.4496 21.4426 65.9483 21.1933ZM72.6803 21.0686C72.8049 21.0686 72.9296 21.0686 73.0543 21.0686C73.4283 21.1933 73.9269 21.8166 73.6776 22.3153C73.5529 22.5646 73.3036 22.6893 72.9296 22.814C72.3063 22.9386 71.3089 22.44 71.6829 21.8166C71.8076 21.318 72.3063 21.1933 72.6803 21.0686ZM48.8689 18.9493C48.2456 20.3206 49.1183 22.066 49.9909 22.6893C50.9883 23.4373 52.6089 23.936 54.3543 23.4373C55.2269 23.188 55.8503 22.6893 56.7229 22.5646C56.9723 22.5646 57.2216 22.5646 57.3463 22.6893C58.2189 22.9386 58.9669 23.936 60.0889 23.562C60.4629 23.4373 60.8369 23.3126 61.0863 23.0633C61.8343 22.5646 62.4576 21.8166 62.8316 20.944C63.0809 20.4453 63.3303 19.6973 63.5796 19.1986C63.7043 18.9493 64.2029 18.7 64.5769 18.9493C64.7016 19.074 64.9509 19.1986 65.0756 19.3233C65.2003 19.448 65.3249 19.5726 65.4496 19.6973C65.5743 19.9466 65.4496 20.196 65.3249 20.3206C65.2003 20.4453 64.9509 20.57 64.8263 20.6946C64.4523 20.944 64.2029 21.1933 63.9536 21.5673C63.4549 22.3153 63.4549 23.0633 64.2029 23.4373C65.3249 24.1853 68.1923 24.31 68.5663 22.814C68.6909 22.3153 68.4416 21.692 68.3169 21.318C68.1923 21.1933 68.0676 20.8193 68.1923 20.57C68.3169 20.196 68.5663 20.0713 68.8156 19.9466C69.3143 19.5726 69.8129 19.074 70.3116 18.7C70.4363 18.5753 70.8103 18.4506 71.0596 18.5753C71.3089 18.7 71.4336 18.8246 71.5583 18.9493C71.8076 19.074 72.3063 19.448 72.1816 19.822C72.1816 20.0713 71.9323 20.196 71.6829 20.3206C71.1843 20.6946 69.8129 21.8166 70.5609 22.6893C70.6856 22.814 70.9349 22.9386 71.0596 23.0633C71.4336 23.3126 71.8076 23.4373 72.3063 23.562C73.6776 23.8113 75.1736 23.562 75.4229 22.44C75.6723 21.4426 74.3009 20.57 75.4229 19.9466C75.5476 19.822 75.7969 19.822 75.9216 19.6973C76.1709 19.5726 76.4203 19.448 76.7943 19.448C77.4176 19.5726 77.5423 20.3206 77.6669 20.8193C78.0409 21.692 78.5396 23.188 79.5369 23.4373C80.0356 23.562 80.4096 23.3126 80.6589 23.0633C81.4069 22.5646 81.7809 21.692 82.4043 20.944C82.5289 20.6946 82.9029 20.0713 83.4016 20.196C84.1496 20.3206 84.2743 21.9413 84.5236 22.6893C84.6483 22.9386 84.7729 23.3126 85.0223 23.4373C85.3963 23.562 85.7703 22.9386 85.8949 22.6893C86.2689 21.9413 86.6429 20.196 87.5156 19.9466C87.8896 19.822 88.1389 20.0713 88.2636 20.3206C88.6376 20.944 88.5129 22.1906 88.8869 22.9386C89.0116 23.188 89.2609 23.6866 89.6349 23.562C90.1336 23.4373 90.2583 22.6893 90.3829 22.1906C90.6323 21.318 90.8816 20.3206 91.7543 20.0713C92.3776 19.9466 92.6269 20.4453 92.7516 20.8193C93.1256 21.692 93.2503 23.0633 94.1229 23.4373C94.6216 23.562 95.1203 23.4373 95.4943 23.3126C96.2423 22.9386 96.7409 22.1906 97.7383 22.066C97.9876 22.066 98.2369 22.1906 98.4863 22.1906C98.9849 22.44 99.3589 22.814 99.8576 23.0633C101.229 23.8113 102.974 23.4373 104.096 22.814C104.969 22.3153 105.592 21.4426 105.966 20.4453C106.465 18.8246 105.343 17.4533 104.221 16.9546C103.348 16.5806 101.977 16.5806 101.104 16.9546C100.98 17.0793 100.356 17.3286 100.481 17.578C100.606 17.7026 100.855 17.7026 100.98 17.578C101.354 17.4533 101.977 17.3286 102.476 17.4533C103.722 17.7026 104.72 18.5753 104.346 20.0713C104.221 20.3206 104.221 20.57 104.096 20.6946C103.598 21.4426 102.102 22.3153 100.606 21.9413C99.7329 21.692 99.1096 21.1933 98.8603 20.3206C98.7356 19.6973 98.7356 18.7 98.7356 17.952C98.7356 17.578 98.7356 17.204 98.3616 17.3286C97.6136 17.4533 97.4889 18.7 97.2396 19.1986C96.7409 20.3206 96.1176 21.4426 94.8709 21.692C94.2476 21.8166 93.9983 21.1933 93.7489 20.8193C93.3749 19.9466 93.2503 18.8246 93.0009 17.952C92.8763 17.4533 92.8763 16.9546 92.3776 16.83C92.0036 16.7053 91.6296 16.9546 91.5049 17.204C91.0063 17.8273 90.7569 18.5753 90.2583 19.1986C90.1336 19.448 89.7596 19.822 89.2609 19.6973C88.3883 19.5726 88.2636 18.4506 88.0143 17.7026C87.8896 17.4533 87.7649 16.83 87.2663 16.83C86.5183 16.9546 86.1443 18.5753 85.8949 19.3233C85.7703 19.5726 85.3963 20.0713 84.8976 19.9466C83.9003 19.5726 84.5236 17.204 83.4016 16.9546C82.7783 16.83 82.4043 17.7026 82.1549 17.952C81.6563 18.8246 81.4069 19.822 80.7836 20.57C80.5343 20.944 80.2849 21.318 79.7863 21.318C79.2876 21.4426 79.0383 20.8193 78.9136 20.57C78.6643 19.822 78.5396 18.9493 78.2903 18.0766C78.1656 17.578 78.2903 17.0793 77.7916 16.83C77.2929 16.456 76.7943 17.0793 76.5449 17.3286C75.9216 17.8273 75.1736 18.2013 74.4256 18.7C74.1763 18.8246 73.8023 19.074 73.4283 19.074C73.0543 18.9493 72.8049 18.7 72.5556 18.4506C72.0569 18.0766 71.5583 17.578 71.0596 17.0793C70.8103 16.83 70.5609 16.3313 70.0623 16.3313C69.9376 16.3313 69.8129 16.3313 69.8129 16.456C69.4389 16.7053 69.3143 17.0793 69.1896 17.4533C68.8156 17.952 67.8183 19.074 67.1949 19.1986C66.8209 19.3233 66.4469 18.8246 66.1976 18.5753C65.5743 17.952 64.9509 17.3286 64.0783 16.83C63.7043 16.7053 63.0809 16.3313 62.7069 16.7053C62.3329 16.9546 62.3329 17.952 62.2083 18.326C61.8343 19.448 61.0863 20.8193 60.2136 21.5673C59.8396 21.8166 59.4656 22.1906 58.7176 22.066C57.5956 21.8166 57.3463 20.3206 57.0969 19.1986C56.9723 18.7 56.9723 17.578 56.4736 17.4533C56.0996 17.3286 55.9749 17.7026 55.9749 18.0766C55.9749 18.4506 55.9749 18.8246 55.9749 19.074C55.9749 19.3233 55.9749 19.448 55.9749 19.6973C55.8503 20.0713 55.8503 20.4453 55.7256 20.8193C55.3516 21.692 53.9803 22.6893 52.4843 22.44C52.1103 22.44 51.8609 22.44 51.6116 22.3153C50.7389 21.9413 50.3649 21.318 50.1156 20.3206C50.1156 19.9466 50.1156 19.6973 50.2403 19.448C50.6143 18.326 51.6116 18.0766 52.8583 17.952C53.2323 17.8273 54.6036 18.0766 54.7283 17.8273C54.8529 17.578 54.3543 17.3286 54.2296 17.3286C53.6063 16.9546 52.4843 16.83 51.4869 16.9546C50.3649 17.204 49.2429 17.8273 48.8689 18.9493ZM28.6729 23.562C28.5483 23.936 28.6729 24.4346 28.9223 24.5593C29.1716 24.8086 29.6703 24.684 29.9196 24.5593C30.2936 24.1853 30.4183 23.188 30.5429 22.5646C31.0416 20.3206 31.5403 16.83 31.9143 14.586C32.0389 13.9626 32.1636 12.5913 32.9116 12.5913C33.6596 12.5913 33.7843 14.4613 33.9089 15.2093C34.2829 16.83 34.5323 18.5753 34.9063 20.196C35.1556 21.0686 35.1556 22.066 35.5296 22.6893C35.7789 23.188 36.6516 23.8113 37.5243 23.4373C38.3969 23.0633 38.7709 21.8166 39.1449 20.8193C40.0176 18.5753 40.8903 16.2066 41.7629 13.9626C42.0123 13.2146 42.3863 12.342 42.6356 11.594C42.7603 11.3446 42.8849 10.846 43.3836 10.9706C44.3809 11.0953 43.8823 13.3393 44.1316 14.3366C44.2563 17.3286 44.3809 19.5726 44.5056 22.44C44.6303 23.6866 44.1316 25.058 45.6276 25.058C45.7523 25.058 45.8769 25.058 46.0016 25.058C46.7496 24.8086 46.7496 23.6866 46.6249 22.814C46.6249 22.3153 46.6249 21.9413 46.5003 21.4426C46.5003 21.0686 46.5003 20.8193 46.5003 20.4453C46.2509 16.9546 46.1263 14.3366 45.8769 10.846C45.7523 9.97329 45.8769 8.22796 45.5029 7.72929C45.0043 7.60462 44.5056 7.47996 43.8823 7.47996C43.7576 7.47996 43.6329 7.47996 43.5083 7.47996C43.1343 7.47996 42.8849 7.47996 42.6356 7.72929C42.1369 8.10329 41.7629 9.59929 41.5136 10.2226C40.7656 12.4666 39.8929 14.7106 39.1449 16.9546C38.7709 17.8273 38.5216 18.7 38.1476 19.5726C38.0229 19.9466 37.7736 20.4453 37.3996 20.57C37.0256 20.6946 36.7763 20.3206 36.7763 20.0713C36.5269 19.3233 36.4023 18.326 36.2776 17.4533C35.9036 15.2093 35.5296 13.09 35.1556 10.846C34.9063 10.098 34.9063 8.72662 34.4076 8.35262C34.0336 8.10329 33.0363 7.97862 32.4129 8.10329C31.5403 8.35262 31.4156 10.098 31.1663 10.9706C30.5429 13.9626 29.7949 18.0766 29.1716 21.0686C29.0469 21.9413 28.7976 22.814 28.6729 23.562Z" fill="#1D1D1B"/>
</svg>
