<svg width="187" height="50" viewBox="0 0 187 50" fill="none" xmlns="http://www.w3.org/2000/svg">
    <g clip-path="url(#clip0_228_1128)">
        <path d="M180.8 24.9249C181.2 26.3235 182.701 26.426 183.101 24.6226C183.5 22.4247 181.6 20.7238 179.299 20.0219C174.299 18.5208 167.301 23.8234 171.701 29.9201C173.802 32.7225 177.101 33.2195 179.504 34.9204C180.406 35.5198 184.807 38.9217 179.807 43.922C176.107 47.7235 169.007 45.9201 168.607 41.6217C168.505 40.5202 169.709 40.6226 169.109 38.02C168.807 36.6213 165.81 36.6213 165.108 39.3213C164.806 41.1196 164.806 45.5205 170.907 48.3229C179.407 52.4216 190.806 44.0245 185.709 36.4215C182.409 31.621 175.508 30.0225 174.309 27.0203C172.711 23.2188 179.812 21.7177 180.811 24.9197M45.7967 43.7222C44.7976 39.7209 45.4944 31.5237 46.0989 26.7231C47.2005 18.0238 49.7006 13.2233 49.7006 8.02314C49.7006 5.52297 48.9987 0.425301 43.5988 0.220369C30.2987 -0.179247 25.3957 32.0206 24.7963 36.524C24.494 34.5259 24.6938 22.522 23.7973 13.9252C22.1937 1.22453 19.3964 0.425301 16.6913 0.220369C6.79308 -0.476398 6.19366 18.5259 6.291 36.7238C6.291 33.0248 6.69062 25.4218 3.28875 21.6255C1.49048 19.6274 -1.20949 19.8272 0.588782 22.4247L1.29067 23.726C4.69254 28.7263 3.99065 49.5269 7.48985 49.3271C8.59136 49.3271 10.2923 48.825 10.0925 44.2294C9.69286 30.2275 10.7944 5.22582 15.4924 5.22582C20.5901 5.22582 19.4937 30.0277 20.9948 39.726C21.7941 44.6239 26.9942 45.0286 28.4953 38.0251C30.5959 28.7263 30.6932 22.727 35.2939 13.0235C41.4931 0.0205612 46.5959 4.32412 44.2955 13.3257C43.2965 17.9265 39.495 29.0286 41.2933 41.8266C41.8927 45.5256 44.2955 50.2288 46.0938 49.2246C47.0929 48.7225 46.5959 46.9243 45.7915 43.8247M53.5943 24.1256C52.293 25.1247 48.0919 34.0238 49.8953 42.9281C51.6936 50.4286 56.8937 52.3293 62.5959 45.4283C65.8953 52.4267 77.1973 49.2297 83.0942 40.6277C83.4938 44.7264 83.7961 45.4283 83.8934 45.7254C84.3955 48.2256 87.1928 49.2246 87.8947 47.1241C88.4941 45.2233 90.6972 35.9246 95.9946 30.4222C97.3933 29.0235 102.194 27.0203 100.892 32.1231C100.59 33.4244 98.3923 41.0222 98.3923 44.4241C98.4948 47.826 99.5912 50.8231 101.892 49.4244C102.891 48.7225 102.491 45.8228 102.394 44.1218C101.794 36.7238 104.192 33.1221 105.396 30.1199C106.497 27.0203 105.698 23.3213 100.498 24.1205C94.9956 24.9197 89.4983 31.3187 86.7983 39.4186C86.7983 26.5182 93.6994 13.7202 98.1977 2.71541C98.8995 1.4141 95.9998 -1.78284 92.8951 1.51656C87.8332 11.2406 84.6107 21.8202 83.3965 32.7174C83.1967 34.3159 80.7938 40.72 77.0948 43.5173C73.3958 46.2173 67.0942 47.5186 67.0942 40.8173C66.8944 34.0187 70.6958 28.0193 73.4932 26.8154C75.0916 26.2159 75.7935 27.5172 76.4954 28.3165C77.3971 29.3155 80.8963 30.0174 80.7938 26.8154C80.7938 23.516 77.0948 20.816 71.8947 23.3162C64.4967 27.0152 62.2937 35.7145 61.6942 39.3162C60.895 44.1167 58.9943 46.2173 58.5946 46.5144C58.0926 46.8167 55.1928 49.7165 54.7932 42.9127C54.5934 38.5118 55.7922 33.9111 56.9911 30.7142L58.2924 26.9127C58.61 25.345 57.5905 23.8131 56.0228 23.4955C55.162 23.3213 54.2655 23.5467 53.5943 24.1103" fill="#D30E2C"/>
        <path d="M58.8971 14.422C56.899 14.6218 54.5987 17.2244 55.9973 20.0217C56.7965 21.2206 57.9954 21.5229 59.1994 21.0208C60.3009 20.6212 62.2016 18.7204 62.2016 17.0195C62.2016 15.3186 61.2026 14.2171 58.9022 14.422M124.598 28.4239C124.9 29.1258 126.299 29.423 126.699 27.722C127.201 25.9238 125.7 21.4204 122.2 21.3231C118.799 21.2206 116.201 23.1213 113.501 25.9238C111.201 28.5213 104.3 38.1223 104.699 45.2232C105.002 48.9222 108.398 50.2235 112.4 48.0256C117.2 45.2232 120.602 40.0231 121.401 39.024C121.401 45.2232 126.704 49.2245 133 43.3225C133.876 45.0849 135.142 46.6218 136.699 47.8207C141.3 50.8229 149.4 50.3209 155.399 40.8223C156.598 45.3205 157.397 47.0215 157.797 47.8207C158.996 50.2184 161.399 50.6231 161.599 47.5184C161.701 46.5194 160.599 44.219 159.8 41.1194C157.403 32.1178 154.001 16.5174 161.599 6.01979C164.801 2.41812 168.197 1.52155 168.597 5.62018C168.899 7.92053 168.494 17.9212 161.096 31.2212C159.995 33.5216 162.295 34.2235 162.997 32.6199C163.996 30.2222 173.597 15.6208 173.397 5.81998C173.198 -0.0820433 164.596 -3.18163 158.396 4.82094C152.397 12.3214 151.997 27.22 154.098 35.6221C150.097 42.9228 145.696 48.8249 139.999 45.92C133.999 42.1185 135.9 29.3205 139.799 26.5181C142.499 24.6173 144.2 26.8203 142.699 29.5203C140.701 33.2193 139.297 33.8188 138.098 34.7204C136.397 36.0218 137.499 37.7227 139.097 37.1181C143.795 35.4172 146.095 31.6157 147.1 28.5162C149.697 20.114 139.399 17.1168 134.302 26.7179C130.7 33.2193 132.104 38.9164 132.104 39.7208C131.002 40.9196 127.503 45.5203 127.006 42.4208C126.407 39.4185 127.308 34.5206 127.508 33.2193C128.01 29.7201 124.506 28.3215 122.508 31.3186C120.51 34.5206 116.406 42.9177 111.508 45.3205C106.708 47.8207 111.109 33.6189 114.71 29.5203C116.908 26.8203 120.31 23.9206 123.712 27.3224C124.214 27.9219 124.311 27.722 124.613 28.4239M185.299 20.1242H185.401C185.601 20.1242 185.801 20.1242 185.801 19.9244C185.801 19.8219 185.698 19.7246 185.499 19.7246H185.299V20.1242ZM185.299 21.0259H184.899V19.5248H186.001L186.103 19.9244C186.103 20.0269 186.103 20.2267 185.801 20.2267C186.001 20.2267 186.103 20.4265 186.103 20.6263L186.206 21.0259H185.903L185.704 20.6263C185.704 20.5238 185.704 20.4265 185.401 20.4265H185.299V21.0259ZM185.499 19.0227C184.899 19.0227 184.397 19.5248 184.397 20.2215C184.397 20.9183 184.899 21.4204 185.499 21.4204C186.201 21.4204 186.6 20.9183 186.6 20.2215C186.6 19.5248 186.201 19.0227 185.499 19.0227ZM185.499 18.7255C186.4 18.7255 187 19.4274 187 20.2267C187 21.0259 186.4 21.7278 185.499 21.7278C184.699 21.7278 183.998 21.0259 183.998 20.2267C183.998 19.4274 184.699 18.7255 185.499 18.7255Z" fill="#D30E2C"/>
    </g>
    <defs>
        <clipPath id="clip0_228_1128">
            <rect width="187" height="49.7779" fill="white"/>
        </clipPath>
    </defs>
</svg>
