<svg width="187" height="37" viewBox="0 0 187 37" fill="none" xmlns="http://www.w3.org/2000/svg">
    <path d="M98.7727 20.5196H102.594C107.051 20.5196 108.963 20.3811 109.032 24.1285C108.963 35.4484 109.175 25.4742 109.032 35.6605H118.583V22.8563C118.228 20.6624 119.076 17.1963 112.78 17.1963C116.246 17.1963 119.076 14.7904 119.076 9.48523C119.076 1.98619 111.434 0.428393 105.493 0.428393H89.2918V35.6605H98.7727V20.5196ZM98.7727 14.1499V7.21777H102.736C105.848 7.21777 109.318 6.9365 109.318 10.5454C109.318 14.1543 105.852 14.1543 102.736 14.1543H98.7727V14.1499ZM7.85387 35.5869V13.7951L12.8778 35.5869H21.8653L26.7464 11.8133V35.5869H36.6514V0.493301H21.1557L18.4685 17.0492L15.0716 0.493301H0V35.5869H7.85387ZM41.3897 8.5592H51.0134V35.5177H41.3897V8.5592ZM137.614 36.0845C148.085 36.0845 154.382 29.5029 154.382 18.1829C154.382 6.86294 148.085 0.281268 137.614 0.281268C127.142 0.281268 120.915 6.93218 120.915 18.2521C120.989 29.5721 127.142 36.0802 137.614 36.0802M144.477 18.3257C144.477 23.4188 143.486 30.7058 137.471 30.7058C131.456 30.7058 130.677 23.488 130.677 18.3949C130.677 13.0162 131.599 5.87201 137.54 5.87201C143.481 5.87201 144.472 12.8734 144.472 18.3257M76.6953 22.5707C76.6953 30.1433 70.5377 29.9269 70.2564 29.9269C66.0115 29.9269 63.4627 25.1843 63.4627 18.3214C63.4627 12.7306 64.7349 5.58642 70.4685 5.58642C73.4413 5.58642 75.9857 7.92311 75.9164 11.1036H85.3973C84.3372 3.18482 78.6772 0.0692352 69.2655 0C60.2779 0 53.1337 7.21777 53.1337 18.0401C53.1337 28.8624 60.2087 35.8682 69.1227 35.8682C74.4279 35.8682 77.5434 32.6141 77.5434 32.6141V35.4441C77.5434 35.4441 83.7703 35.5133 85.6093 35.4441V14.4312H69.6203V20.8009H76.6953V22.5707ZM41.3897 0.566863H51.0134V6.50811H41.3897V0.566863ZM185.866 11.6056C186.433 3.25406 178.224 0.0692352 171.292 0.0692352C164.36 0.0692352 156.718 2.61796 156.363 10.8223C156.363 14.574 158.272 18.1093 161.669 19.6671C168.956 22.9212 176.597 22.2159 176.597 26.4608C176.597 30.0005 173.486 30.4938 171.292 30.4938C167.965 30.4938 165.563 27.6638 165.632 24.3405H156.009C156.009 33.6786 163.365 36.0845 171.219 36.0845C179.073 36.0845 186.996 32.7612 186.996 25.4699C186.996 16.0582 177.87 15.1409 172.21 13.6566C169.734 12.9513 166.619 12.3844 166.55 9.83573C166.48 8.3515 167.259 6.29608 170.652 6.29608C172.21 6.29608 174.049 6.93218 174.828 7.64184C175.676 8.34717 176.597 10.117 176.524 11.532H185.862V11.6012L185.866 11.6056Z" fill="#EB6608"/>
</svg>
