<svg width="187" height="44" viewBox="0 0 187 44" fill="none" xmlns="http://www.w3.org/2000/svg">
    <g clip-path="url(#clip0_225_876)">
        <path d="M0 43.0585V0H7.19296L10.4602 23.4383L11.2327 31.1209L12.0073 23.4932L15.2745 0H22.6342V43.0585H18.2061V7.66573L17.5983 13.5311L13.28 43.0585H9.24025L4.92405 13.09L4.42595 7.72061V43.0585H0Z" fill="#231F20"/>
        <path d="M33.9447 0H29.0186V43.0585H33.9447V0Z" fill="#231F20"/>
        <path d="M126.505 0H121.579V43.0585H126.505V0Z" fill="#231F20"/>
        <path d="M158.976 38.1894H166.559V43.1155H154.052V0H166.559V4.92405H158.976V18.624H163.292V23.5502H158.976V38.1894Z" fill="#231F20"/>
        <path d="M110.269 0V35.6693C110.269 37.0285 109.168 38.1324 107.806 38.1324C106.445 38.1324 105.343 37.0285 105.343 35.6693V0H100.417V35.6693C100.417 39.7491 103.724 43.0585 107.804 43.0585C111.884 43.0585 115.193 39.7512 115.193 35.6693V0H110.267H110.269Z" fill="#231F20"/>
        <path d="M142.741 35.6693C142.741 37.0285 141.639 38.1324 140.278 38.1324H137.815V4.92616H140.278C141.637 4.92616 142.741 6.0279 142.741 7.38713V35.6693ZM140.278 0H132.891V43.0585H140.278C144.358 43.0585 147.667 39.7512 147.667 35.6693V7.38713C147.667 3.30944 144.358 0 140.278 0Z" fill="#231F20"/>
        <path d="M182.074 35.6693C182.074 37.0285 180.972 38.1324 179.611 38.1324H177.15V4.92616H179.611C180.972 4.92616 182.074 6.0279 182.074 7.38713V35.6693ZM179.611 0H172.224V43.0585H179.611C183.693 43.0585 187 39.7512 187 35.6693V7.38713C187 3.30944 183.693 0 179.611 0Z" fill="#231F20"/>
        <path d="M68.9205 19.7363C66.6009 17.5539 64.7689 15.8317 64.7689 12.2605V7.38924C64.7689 6.0279 65.8728 4.92616 67.2341 4.92616C68.5955 4.92616 69.6972 6.0279 69.6972 7.38924V12.2605H74.6234V7.38924C74.6213 3.30944 71.3139 0 67.232 0C63.1501 0 59.8428 3.30732 59.8428 7.38924V12.2605C59.8428 17.9592 63.0045 20.9351 65.5435 23.3243C67.8631 25.5046 69.6951 27.229 69.6951 30.798V35.6693C69.6951 37.0306 68.5934 38.1324 67.232 38.1324C65.8707 38.1324 64.7689 37.0306 64.7689 35.6693V28.3096H59.8428V35.6693C59.8428 39.7491 63.1501 43.0585 67.232 43.0585C71.3139 43.0585 74.6213 39.7512 74.6213 35.6693V30.798C74.6213 25.0994 71.4596 22.1255 68.9184 19.7342" fill="#231F20"/>
        <path d="M48.6879 19.7363C46.3684 17.5539 44.5385 15.8317 44.5385 12.2605V7.38924C44.5385 6.0279 45.6402 4.92616 47.0016 4.92616C48.3629 4.92616 49.4646 6.0279 49.4646 7.38924V12.2605H54.3908V7.38924C54.3887 3.30944 51.0814 0 47.0016 0C42.9217 0 39.6123 3.30732 39.6123 7.38924V12.2605C39.6123 17.9592 42.774 20.9351 45.3131 23.3243C47.6326 25.5046 49.4646 27.229 49.4646 30.798V35.6693C49.4646 37.0306 48.3629 38.1324 47.0016 38.1324C45.6402 38.1324 44.5385 37.0306 44.5385 35.6693V28.3096H39.6123V35.6693C39.6123 39.7491 42.9196 43.0585 47.0016 43.0585C51.0835 43.0585 54.3908 39.7512 54.3908 35.6693V30.798C54.3908 25.0994 51.2291 22.1255 48.6879 19.7342" fill="#231F20"/>
        <path d="M94.752 12.2605V7.38924C94.752 3.30732 91.4425 0 87.3648 0C83.2871 0 79.9756 3.30732 79.9756 7.38924V35.6693C79.9756 39.7048 83.209 42.9762 87.2255 43.0501V43.0564C89.697 43.0564 91.413 41.9505 92.3712 39.7364L94.7499 43.0564V23.4911H87.3606V28.3054H89.8258V35.6672C89.8258 36.999 88.7684 38.0754 87.4492 38.1218C87.4197 38.1218 87.3627 38.1303 87.3627 38.1303C86.0035 38.1303 84.8975 37.0285 84.8975 35.6672V7.38924C84.8975 6.0279 86.0014 4.92616 87.3627 4.92616C88.7241 4.92616 89.8237 6.0279 89.8237 7.38924V12.2605H94.7499H94.752Z" fill="#231F20"/>
    </g>
    <defs>
        <clipPath id="clip0_225_876">
            <rect width="187" height="43.1155" fill="white"/>
        </clipPath>
    </defs>
</svg>
