<svg width="187" height="54" viewBox="0 0 187 54" fill="none" xmlns="http://www.w3.org/2000/svg">
    <g clip-path="url(#clip0_238_1686)">
        <path fill-rule="evenodd" clip-rule="evenodd" d="M143.688 7.03048L142.498 5.43918H140.61L141.93 4.07085L141.696 2.0588L139.765 1.80167L138.429 3.18619V1.24966L136.888 0L135.345 1.23168V3.1826L134.025 1.81786L132.078 2.0588L131.83 4.05466L133.166 5.43918H131.296L130.087 7.03228L131.278 8.62358H133.166L131.846 9.99191L132.08 12.004L134.011 12.2611L135.345 10.8784V12.8113L136.888 14.0628L138.429 12.8311V10.8784L139.75 12.2449L141.696 12.004L141.944 10.0081L140.608 8.62358H142.478L143.688 7.03048Z" fill="#DE4E2D"/>
        <path fill-rule="evenodd" clip-rule="evenodd" d="M24.7956 18.326C21.7982 18.326 19.1137 19.7411 17.3336 21.9563C15.5499 19.7411 12.8671 18.326 9.86795 18.326C4.51687 18.326 0.165527 22.8266 0.165527 28.3593V53.8254H4.64274V28.3575C4.64274 25.3799 6.98743 22.9561 9.86795 22.9561C12.7485 22.9561 15.0932 25.3799 15.0932 28.3593V53.8254H19.5704V28.3575C19.5704 25.3799 21.9151 22.9561 24.7956 22.9561C27.6761 22.9561 30.0208 25.3799 30.0208 28.3593V53.8254H34.498V28.3575C34.498 22.8266 30.1467 18.326 24.7956 18.326ZM53.9047 43.794C53.9047 46.7716 51.5618 49.1954 48.6794 49.1954C45.7989 49.1954 43.4542 46.7716 43.4542 43.794V28.3593C43.4542 25.3799 45.7989 22.9561 48.6794 22.9561C51.5618 22.9561 53.9047 25.3799 53.9047 28.3593V43.794ZM48.6794 18.326C43.3302 18.326 38.977 22.8266 38.977 28.3593V43.794C38.977 49.3249 43.3302 53.8254 48.6794 53.8254C54.0305 53.8254 58.3819 49.3249 58.3819 43.7922V28.3593C58.3819 22.8266 54.0305 18.326 48.6794 18.326ZM101.672 43.794C101.672 46.7716 99.3295 49.1954 96.449 49.1954C93.5684 49.1954 91.2237 46.7716 91.2237 43.794C91.2237 41.4655 92.8222 40.4406 96.7474 38.495C97.2318 38.2543 97.7155 38.0122 98.1985 37.7686C99.3259 37.2022 100.54 36.5909 101.672 35.8465V43.794ZM96.449 18.326C91.159 18.326 86.849 22.7241 86.7501 28.1669H86.7447V30.6734H91.2219V28.3593C91.2219 25.3799 93.5684 22.9561 96.449 22.9561C99.3295 22.9561 101.672 25.3799 101.672 28.3593C101.672 30.6357 100.018 31.7055 96.2404 33.6043L95.4762 33.9909L94.8127 34.3199C91.0313 36.1935 86.7447 38.3188 86.7447 43.794C86.7447 49.3249 91.0979 53.8254 96.449 53.8254C101.798 53.8254 106.151 49.3249 106.151 43.7922V28.3593C106.151 22.8266 101.8 18.326 96.449 18.326ZM120.333 18.326C114.982 18.326 110.63 22.8266 110.63 28.3593V53.8254H115.108V28.3575C115.108 25.3799 117.452 22.9561 120.333 22.9561C123.213 22.9561 125.558 25.3799 125.558 28.3593V53.8254H130.035V28.3575C130.035 22.8266 125.682 18.326 120.333 18.326ZM153.173 18.326C147.824 18.326 143.47 22.8266 143.47 28.3593C143.47 33.7715 147.879 35.9885 151.423 37.7704L152.184 38.1534C152.186 38.1534 152.189 38.1534 152.191 38.157L152.2 38.1606L152.874 38.495C156.8 40.4406 158.398 41.4655 158.398 43.794C158.398 46.7716 156.053 49.1954 153.173 49.1954C150.292 49.1954 147.948 46.7716 147.948 43.794V41.2659H143.47V43.7904C143.47 49.3231 147.822 53.8237 153.173 53.8237C158.522 53.8237 162.875 49.3231 162.875 43.7904C162.875 38.317 158.59 36.1917 154.809 34.3181L154.147 33.9891C153.893 33.8591 153.637 33.7302 153.381 33.6025C149.604 31.7055 147.948 30.6356 147.948 28.3575C147.948 25.3781 150.292 22.9543 153.173 22.9543C156.053 22.9543 158.398 25.3781 158.398 28.3575V30.6716H162.875V28.1669H162.872C162.773 22.7223 158.461 18.3242 153.173 18.3242M182.282 43.794C182.282 46.7716 179.939 49.1954 177.057 49.1954C174.176 49.1954 171.833 46.7716 171.833 43.794C171.833 41.4655 173.432 40.4406 177.357 38.495L178.031 38.1606L178.038 38.1552L178.047 38.1534L178.806 37.7686C179.934 37.2022 181.149 36.5909 182.282 35.8465V43.794ZM177.057 18.326C171.77 18.326 167.459 22.7241 167.36 28.1669H167.354V30.6734H171.832V28.3593C171.832 25.3799 174.176 22.9561 177.057 22.9561C179.939 22.9561 182.282 25.3799 182.282 28.3593C182.282 30.6357 180.628 31.7055 176.848 33.6043L176.084 33.9909L175.42 34.3199C171.641 36.1935 167.354 38.3188 167.354 43.794C167.354 49.3249 171.707 53.8254 177.057 53.8254C182.408 53.8254 186.761 49.3249 186.761 43.7922V28.3593C186.761 22.8266 182.408 18.326 177.057 18.326ZM134.514 18.326V53.8254H138.991V18.326H134.514ZM77.7885 36.0748V43.794C77.7885 46.7716 75.4456 49.1954 72.5633 49.1954C69.6828 49.1954 67.3399 46.7716 67.3399 43.794V28.3593C67.3399 25.3799 69.6828 22.9561 72.5633 22.9561C75.4456 22.9561 77.7885 25.3799 77.7885 28.3593V36.0748ZM77.7885 9.06592V19.9119C76.2416 18.8788 74.4234 18.327 72.5633 18.326C67.214 18.326 62.8609 22.8266 62.8609 28.3593V43.794C62.8609 49.3249 67.214 53.8272 72.5633 53.8272C77.9144 53.8272 82.2675 49.3249 82.2675 43.794V9.06592H77.7885Z" fill="#1A1919"/>
    </g>
    <defs>
        <clipPath id="clip0_238_1686">
            <rect width="187" height="53.9423" fill="white"/>
        </clipPath>
    </defs>
</svg>
