<svg width="187" height="46" viewBox="0 0 187 46" fill="none" xmlns="http://www.w3.org/2000/svg">
    <g clip-path="url(#clip0_238_1691)">
        <path d="M30.8959 45.1554L47.8524 7.38605L50.0085 39.1429C50.2315 42.8424 47.1824 43.8443 43.985 43.8443V45.1547H61.5361V43.8443C56.4787 43.8443 56.0329 43.8443 55.586 37.2925L53.3553 5.1507C53.2066 2.83821 54.5456 2.76107 57.8919 2.45299V1.21973H47.8517L31.4162 36.908L14.981 1.21973H4.56888V2.45276C8.8825 2.76084 9.03093 3.99411 8.7336 8.61862L7.09759 36.2137C6.72569 42.6115 6.13103 43.8445 1.14795 43.8445V45.1549H15.3529V43.8445C12.3037 43.6909 9.70063 42.8422 9.84929 39.2198L11.7085 7.38582L29.2599 45.1556L30.8959 45.1554ZM92.0152 10.7703V11.7941C96.431 12.0346 97.2444 12.9383 97.2444 18.2374V31.1243C97.2444 40.5182 91.0858 43.1077 85.1011 43.1077C77.0828 43.1077 72.8991 38.7118 72.8991 31.1844V15.8284C72.8991 12.5765 74.1775 11.7939 77.0828 11.7939H77.6059V10.7701H63.8357V11.7939C67.496 11.8542 68.4838 12.3359 68.4838 15.949V32.0881C68.4838 40.037 73.7128 45.998 83.881 45.998C95.5014 45.998 99.7428 38.7116 99.7428 31.8468V16.8525C99.7428 13.3598 101.021 11.8542 104.565 11.7941V10.7703H92.0152ZM111.105 40.0966C111.105 43.2279 109.769 44.1313 106.922 44.1313H105.934V45.1556H123.074C136.612 45.1556 142.829 35.099 142.829 26.7885C142.829 17.6351 136.612 10.2282 122.493 10.2282C119.704 10.2282 116.451 10.2885 113.546 10.4091C110.583 10.5298 107.968 10.6497 105.935 10.7703V11.7941H107.097C110.177 11.7941 111.106 12.637 111.106 16.3109V40.0966H111.105ZM115.52 11.4928C116.218 11.4325 117.612 11.2518 119.82 11.2518C127.315 11.2518 131.092 13.2387 133.532 15.7686C136.67 19.0198 137.832 23.5363 137.832 27.6314C137.832 33.3519 135.333 37.6279 133.358 39.6153C130.046 43.0479 127.083 44.1313 119.937 44.1313C115.695 44.1313 115.52 43.2886 115.52 41.0598V11.4928H115.52ZM186.904 27.0292C186.904 17.0329 178.246 9.86707 168.137 9.86707C156.807 9.86707 148.615 17.6954 148.615 28.715C148.615 39.0732 157.388 45.998 167.905 45.998C178.246 45.9978 186.904 38.1693 186.904 27.0292ZM181.849 28.8359C181.849 36.6644 177.666 44.6131 169.008 44.6131C160.409 44.6131 153.611 37.3876 153.611 27.0292C153.611 20.3449 157.33 11.2518 166.742 11.2518C175.574 11.252 181.849 18.538 181.849 28.8359Z" fill="#171617"/>
    </g>
    <defs>
        <clipPath id="clip0_238_1691">
            <rect width="187" height="45.998" fill="white"/>
        </clipPath>
    </defs>
</svg>
