<svg width="187" height="40" viewBox="0 0 187 40" fill="none" xmlns="http://www.w3.org/2000/svg">
    <g clip-path="url(#clip0_238_1693)">
        <path fill-rule="evenodd" clip-rule="evenodd" d="M24.2713 0V31.6096H24.1783L5.90433 0H0V38.7278H4.49796V6.84376H4.59201L23.053 38.7278H28.7692V0H24.2713ZM58.645 27.8364H39.2114C39.2114 30.0583 40.0468 31.9095 41.7176 33.3911C43.2855 34.7986 45.1777 35.5023 47.394 35.5023C49.8482 35.5023 52.0646 34.0783 54.0419 31.4481H58.4546C57.5894 38.4567 51.3841 39.8343 46.781 39.8343C43.0299 39.8343 39.9959 38.5021 37.6766 35.8354C35.4271 33.2805 34.3018 30.003 34.3018 26.003C34.3018 22.0417 35.478 18.7443 37.8315 16.1152C40.2161 13.4861 43.2158 12.1716 46.8308 12.1716C50.7854 12.1716 53.8195 13.6344 55.934 16.56C57.741 19.0784 58.645 22.2441 58.645 26.0583V27.8364ZM39.2114 23.8375H53.7354C53.6668 21.5415 53.0715 19.708 51.9462 18.3382C50.7179 16.8942 48.9796 16.1716 46.729 16.1716C44.5823 16.1716 42.7566 17.0048 41.2573 18.6712C39.893 20.227 39.2114 21.9487 39.2114 23.8375ZM75.0988 12.9019V17.225H68.9698V29.1388C68.9698 31.1349 69.1136 32.5026 69.398 33.2406C69.8406 34.5341 70.7756 35.1803 72.2008 35.1803C73.4998 35.1803 74.5134 34.9214 75.2426 34.4047V38.948C74.3552 39.5389 73.0727 39.8343 71.3919 39.8343C68.4796 39.8343 66.5311 38.875 65.5485 36.9541C64.9786 35.7712 64.6931 33.7585 64.6931 30.9136V17.225H59.7515V12.9019H64.6931V5.53254H68.9698V12.9019H75.0988ZM86.9993 38.7278L77.4556 0H82.0664L89.2587 30.7399H89.3495L97.0519 0H102.123L109.822 30.7399H109.914L117.105 0H121.716L112.218 38.7278H107.562L99.6323 7.06063H99.5393L91.6554 38.7278H86.9993ZM125.246 26.003C125.246 28.7062 125.922 30.9103 127.275 32.6132C128.659 34.3173 130.495 35.1693 132.781 35.1693C135.067 35.1693 136.886 34.3173 138.238 32.6132C139.624 30.9092 140.315 28.7073 140.315 26.003C140.315 23.2998 139.624 21.0967 138.238 19.3938C136.886 17.6898 135.067 16.8377 132.781 16.8377C130.495 16.8377 128.659 17.6898 127.275 19.3938C125.922 21.0967 125.246 23.2998 125.246 26.003ZM120.609 26.003C120.609 22.1523 121.785 18.8936 124.136 16.227C126.485 13.5238 129.367 12.1716 132.781 12.1716C136.195 12.1716 139.076 13.5238 141.426 16.227C143.776 18.8936 144.953 22.1523 144.953 26.003C144.953 29.8536 143.776 33.1322 141.426 35.8354C139.077 38.5021 136.195 39.8343 132.781 39.8343C129.367 39.8343 126.485 38.5021 124.136 35.8354C121.785 33.1322 120.609 29.8547 120.609 26.003ZM149.379 38.7278V12.82H153.583V16.7691H153.677C154.207 15.4347 155.491 14.3348 156.737 13.4695C157.983 12.6042 160.491 12.1716 161.893 12.1716C162.579 12.1716 163.202 12.28 163.763 12.4958V16.6153C162.953 16.3631 162.081 16.2369 161.52 16.2369C157.282 16.2369 153.585 18.6015 153.585 24.0821V38.7278H149.379ZM167.083 38.7278V0H171.176V23.8973L180.452 12.7636H186.136L176.086 24.4395L187 38.7278H181.18L171.176 25.0923V38.7278H167.083Z" fill="#1D1D1B"/>
    </g>
    <defs>
        <clipPath id="clip0_238_1693">
            <rect width="187" height="39.8343" fill="white"/>
        </clipPath>
    </defs>
</svg>
