
<svg width="187" height="93" viewBox="0 0 187 93" fill="none" xmlns="http://www.w3.org/2000/svg">
    <path d="M134.594 4.4002C130.187 1.61329 124.948 0.604553 119.388 0.975969C102.949 2.06277 83.6437 15.1602 74.3084 29.94C61.8141 49.7248 65.8245 74.689 83.2675 85.701C88.3801 88.9304 94.0792 90.5883 99.8974 90.8396C113.921 91.4377 128.629 83.7928 137.461 69.8114C149.951 50.0313 152.036 15.4048 134.594 4.4002Z" fill="url(#paint0_radial_222_446)"/>
    <path d="M87.6307 1.18854C86.9462 1.19086 86.2556 1.21557 85.5598 1.26167C69.1171 2.34933 49.8139 15.4491 40.4832 30.2266C27.9859 50.009 31.9976 74.9715 49.4402 85.9908C54.5527 89.2159 60.2522 90.8764 66.0673 91.121C71.8987 91.3725 77.7762 90.3552 83.372 87.8934C55.5925 73.3865 62.1584 42.2243 70.6765 29.8784C77.2636 19.445 89.1824 9.64228 100.984 4.82095C100.914 4.77532 100.844 4.72904 100.773 4.68419C96.9146 2.2479 92.4223 1.17226 87.6307 1.18854Z" fill="url(#paint1_radial_222_446)"/>
    <path d="M55.4847 1.46579C38.5946 1.43241 17.9289 15.0497 8.17262 30.5047C-4.32205 50.2894 -0.313894 75.2495 17.1314 86.2673C27.1681 92.6043 39.4673 92.9378 50.4819 88.306C49.018 87.6575 47.5877 86.8968 46.2001 86.021C28.7575 75.0023 24.7533 50.0431 37.2413 30.2584C43.97 19.6019 55.884 9.82018 68.1709 4.78454C64.4223 2.50178 60.0944 1.4749 55.4847 1.46579Z" fill="url(#paint2_radial_222_446)"/>
    <path d="M76.3648 36.5495L75.6849 38.6313C76.4013 37.801 77.1716 37.1721 77.9902 36.7523C78.8091 36.3361 79.6907 36.1216 80.6358 36.1156C81.8056 36.1072 82.6918 36.373 83.293 36.9225C83.8991 37.4753 84.1929 38.1739 84.1856 39.019C84.1772 39.8626 83.9159 41.2716 83.4035 43.2469L79.3077 59.0956L72.4331 59.1532L76.4865 43.4831C76.8939 41.9284 77.0862 40.9791 77.0811 40.639C77.0671 40.2983 76.8379 40.1291 76.3758 40.1341C75.9094 40.1414 75.5607 40.3368 75.3304 40.7299C75.1042 41.1208 74.7702 42.1719 74.3279 43.8768L70.3708 59.1693L63.4995 59.2289L69.3512 36.6082L76.3648 36.5495Z" fill="#002D6A"/>
    <path d="M94.1498 44.4324L94.5804 42.7684C94.8867 41.5883 95.017 40.8294 94.9767 40.4893C94.9381 40.1458 94.7331 39.9767 94.36 39.9827C93.8805 39.985 93.5494 40.1314 93.3658 40.4239C93.178 40.7188 92.9172 41.5062 92.5861 42.7801L92.1555 44.4454L94.1498 44.4324ZM100.073 48.0323L91.2094 48.1064L89.9424 52.9997C89.6774 54.0253 89.5805 54.6851 89.6465 54.9783C89.7143 55.2714 89.9553 55.4155 90.3705 55.4138C90.8783 55.4105 91.2677 55.2061 91.5491 54.8184C91.8184 54.4221 92.1015 53.6615 92.394 52.5357L93.1668 49.5468L99.6936 49.4915L99.263 51.1622C98.9028 52.5608 98.5348 53.6313 98.1659 54.3852C97.7962 55.1357 97.1803 55.9409 96.314 56.7994C95.4502 57.6514 94.4698 58.3005 93.3675 58.7361C92.2713 59.1693 90.9718 59.3911 89.4733 59.4021C88.0313 59.4189 86.8133 59.2186 85.808 58.8098C84.8027 58.3986 84.0887 57.8297 83.6638 57.0993C83.2383 56.3738 83.0182 55.573 83.0044 54.6951C82.9917 53.8156 83.2075 52.5357 83.6411 50.8563L85.3499 44.2645C85.8595 42.2869 86.5268 40.7299 87.3554 39.5823C88.1849 38.436 89.2845 37.554 90.6493 36.9376C92.0234 36.3217 93.4902 36.0061 95.0556 35.991C96.9796 35.9742 98.4721 36.3311 99.5349 37.0471C100.599 37.7702 101.223 38.7335 101.413 39.9364C101.602 41.1433 101.42 42.8397 100.852 45.0351L100.073 48.0323Z" fill="#002D6A"/>
    <path d="M127.506 36.1133L118.893 58.7538L111.508 58.8198C111.818 56.0566 112.293 52.4033 112.921 47.8507C112.161 49.8678 111.354 51.8873 110.496 53.9094L108.517 58.8409L101.135 58.9087L104.08 36.312L109.948 36.2591C109.864 36.8455 109.254 41.1745 108.102 49.253C108.432 48.3908 110.075 44.0494 113.035 36.2346L118.633 36.1853L116.693 49.1793C117.911 45.3545 119.558 41.017 121.627 36.1609L127.506 36.1133Z" fill="#002D6A"/>
    <path d="M136.035 44.0276L136.465 42.364C136.766 41.1852 136.901 40.4239 136.861 40.0839C136.822 39.7411 136.616 39.5712 136.243 39.5745C135.762 39.5796 135.434 39.7236 135.246 40.0185C135.06 40.3133 134.804 41.0974 134.477 42.3781L134.04 44.041L136.035 44.0276ZM141.954 47.6269L133.094 47.7033L131.827 52.5926C131.565 53.6213 131.463 54.2797 131.531 54.5722C131.598 54.867 131.837 55.0145 132.255 55.0085C132.76 55.0051 133.157 54.8084 133.433 54.4137C133.706 54.0166 133.988 53.2544 134.279 52.1302L135.054 49.1424L141.58 49.0888L141.145 50.7574C140.786 52.153 140.425 53.2276 140.051 53.9798C139.677 54.7313 139.059 55.5345 138.198 56.3932C137.332 57.2494 136.351 57.8977 135.253 58.3323C134.154 58.7646 132.857 58.9873 131.354 59.0024C129.91 59.0145 128.699 58.8148 127.69 58.402C126.687 57.9915 125.973 57.4253 125.549 56.6965C125.124 55.9661 124.903 55.1676 124.891 54.289C124.879 53.4105 125.09 52.1335 125.525 50.4498L127.23 43.8601C127.74 41.8849 128.416 40.3235 129.241 39.1775C130.064 38.0299 131.168 37.1527 132.533 36.5321C133.899 35.9139 135.372 35.5973 136.94 35.5856C138.861 35.5688 140.351 35.9206 141.416 36.6427C142.482 37.3681 143.105 38.3248 143.298 39.531C143.489 40.7406 143.303 42.4367 142.737 44.6273L141.954 47.6269Z" fill="#002D6A"/>
    <path d="M154.452 41.8202C154.719 40.7868 154.826 40.1257 154.774 39.8426C154.723 39.5594 154.497 39.4214 154.1 39.4214C153.696 39.4271 153.375 39.5913 153.13 39.9163C152.877 40.2447 152.633 40.8863 152.385 41.8379L150.418 49.4514C150.151 50.4619 150.044 51.1166 150.089 51.4158C150.135 51.7201 150.356 51.8672 150.757 51.8614C151.205 51.8591 151.545 51.6779 151.783 51.3126C152.016 50.9444 152.299 50.1158 152.633 48.8332L154.452 41.8202ZM162.875 35.7615L158.366 53.1961C157.749 55.5529 157.3 57.0791 157.012 57.761C156.722 58.4512 156.15 59.1767 155.29 59.9574C154.44 60.7274 153.375 61.3228 152.1 61.7332C150.82 62.1491 149.297 62.3665 147.528 62.3826C145.331 62.3983 143.671 62.0381 142.542 61.3077C141.411 60.5692 141.103 59.1073 141.626 56.9203L148.293 56.8613C148.027 57.8827 148.258 58.3903 149.002 58.3842C149.516 58.3809 149.908 58.2227 150.163 57.9068C150.413 57.5921 150.673 56.9401 150.927 55.9516L151.374 54.221C150.644 54.7622 149.925 55.1726 149.2 55.4534C148.474 55.7305 147.755 55.8706 147.036 55.8806C145.8 55.8896 144.844 55.646 144.174 55.1559C143.505 54.6633 143.127 54.0166 143.036 53.2041C142.941 52.4 143.086 51.2439 143.478 49.7428L145.603 41.5397C146.162 39.3953 146.945 37.8523 147.965 36.8997C148.978 35.9548 150.277 35.4733 151.845 35.4583C152.701 35.4522 153.438 35.6224 154.055 35.9675C154.678 36.316 155.171 36.8411 155.556 37.5407L156.479 35.8184L162.875 35.7615Z" fill="#002D6A"/>
    <path d="M172.518 41.6671C172.784 40.6307 172.891 39.9749 172.841 39.6874C172.796 39.401 172.567 39.2646 172.172 39.268C171.77 39.2713 171.447 39.4345 171.191 39.7638C170.954 40.0906 170.704 40.7299 170.455 41.6821L168.483 49.2955C168.224 50.3044 168.116 50.9574 168.161 51.264C168.2 51.564 168.426 51.7107 168.828 51.7073C169.272 51.703 169.611 51.5254 169.843 51.1552C170.082 50.7883 170.365 49.964 170.697 48.6783L172.518 41.6671ZM180.941 35.6091L176.426 53.0433C175.819 55.4022 175.367 56.9203 175.077 57.6096C174.789 58.2938 174.223 59.0259 173.362 59.7983C172.506 60.5739 171.44 61.167 170.166 61.5835C168.892 61.9963 167.368 62.2124 165.595 62.2224C163.402 62.2452 161.743 61.8857 160.614 61.1519C159.476 60.4131 159.17 58.9555 159.692 56.7642L166.359 56.7106C166.099 57.7308 166.325 58.2378 167.067 58.2318C167.588 58.2261 167.979 58.0676 168.229 57.7537C168.483 57.4377 168.732 56.7859 168.994 55.7992L169.442 54.0652C168.721 54.608 167.99 55.0168 167.266 55.2966C166.547 55.5757 165.828 55.7198 165.107 55.7255C163.866 55.7305 162.916 55.4959 162.246 55.0051C161.572 54.5126 161.198 53.8575 161.108 53.0509C161.016 52.2418 161.165 51.0915 161.548 49.5904L163.668 41.3856C164.223 39.2428 165.016 37.6999 166.03 36.7483C167.055 35.7984 168.342 35.3142 169.917 35.3041C170.773 35.2974 171.509 35.4673 172.126 35.8151C172.743 36.1609 173.242 36.6846 173.622 37.3849L174.551 35.6627L180.941 35.6091Z" fill="#002D6A"/>
    <path d="M183.877 37.3045H184.299C184.484 37.3045 184.64 37.1946 184.635 37.0581C184.629 36.8833 184.508 36.7576 184.361 36.7576H183.877V37.3045ZM183.492 38.391V36.4472H184.35C184.522 36.4472 184.652 36.465 184.742 36.4999C184.831 36.5349 184.903 36.5966 184.956 36.6849C185.009 36.7734 185.057 36.8935 185.057 37.001C185.057 37.1397 185.029 37.2598 184.941 37.3546C184.853 37.4493 184.715 37.5175 184.53 37.543C184.598 37.5758 184.614 37.5733 184.648 37.6048C184.723 37.6732 184.795 37.7595 184.86 37.8633L185.194 38.391H184.674C184.526 38.1705 184.42 37.925 184.261 37.7199C184.193 37.6339 184.144 37.6247 184.047 37.6234H183.877V38.391H183.492Z" fill="#002D6A"/>
    <path d="M185.938 37.4501C185.938 38.36 185.201 39.096 184.292 39.096C183.382 39.096 182.645 38.36 182.645 37.4501C182.645 36.5406 183.382 35.8036 184.292 35.8036C185.201 35.8036 185.938 36.5406 185.938 37.4501Z" stroke="#002D6A" stroke-width="0.709207"/>
    <defs>
        <radialGradient id="paint0_radial_222_446" cx="0" cy="0" r="1" gradientUnits="userSpaceOnUse" gradientTransform="translate(107.16 45.9257) rotate(-0.492731) scale(42.6111 42.6111)">
            <stop stop-color="white"/>
            <stop offset="0.270833" stop-color="white"/>
            <stop offset="0.649022" stop-color="white"/>
            <stop offset="1" stop-color="#D6D7DD"/>
        </radialGradient>
        <radialGradient id="paint1_radial_222_446" cx="0" cy="0" r="1" gradientUnits="userSpaceOnUse" gradientTransform="translate(73.3352 46.2092) rotate(-0.492731) scale(42.6114 42.6114)">
            <stop stop-color="#F7ED1A"/>
            <stop offset="0.19" stop-color="#F7ED1A"/>
            <stop offset="1" stop-color="#EF7C29"/>
        </radialGradient>
        <radialGradient id="paint2_radial_222_446" cx="0" cy="0" r="1" gradientUnits="userSpaceOnUse" gradientTransform="translate(41.0251 46.4948) rotate(-0.492731) scale(42.6154)">
            <stop stop-color="white"/>
            <stop offset="0.270833" stop-color="white"/>
            <stop offset="0.649022" stop-color="white"/>
            <stop offset="1" stop-color="#D6D7DD"/>
        </radialGradient>
    </defs>
</svg>
