<svg width="27" height="27" viewBox="0 0 27 27" fill="none" xmlns="http://www.w3.org/2000/svg">
    <g clip-path="url(#clip0_497_9877)">
        <path d="M25.7982 16.6787H15.1165C14.7985 16.6787 14.4936 16.805 14.2688 17.0299C14.0439 17.2547 13.9176 17.5596 13.9176 17.8776V25.757H2.31873V20.8893C2.31873 18.4193 4.0665 16.3682 6.25484 16.2237H16.7198C16.8124 16.2334 16.906 16.2235 16.9945 16.1947C17.0831 16.1659 17.1646 16.1189 17.2337 16.0566C17.3029 15.9943 17.3582 15.9181 17.396 15.8331C17.4339 15.748 17.4535 15.656 17.4535 15.5629C17.4535 15.4698 17.4339 15.3777 17.396 15.2927C17.3582 15.2076 17.3029 15.1315 17.2337 15.0692C17.1646 15.0069 17.0831 14.9598 16.9945 14.931C16.906 14.9022 16.8124 14.8924 16.7198 14.902H6.21151C4.74731 15.058 3.3962 15.7618 2.42913 16.8722C1.46205 17.9826 0.950505 19.4175 0.997061 20.8893V27.1076H14.5748C14.6253 27.1117 14.676 27.1117 14.7265 27.1076C14.8517 27.1512 14.984 27.1708 15.1165 27.1654H25.7982C25.9606 27.1656 26.1214 27.1328 26.2707 27.0689C26.4201 27.0051 26.5549 26.9116 26.667 26.7941C26.7791 26.6765 26.8662 26.5375 26.9229 26.3853C26.9797 26.2331 27.0049 26.071 26.9971 25.9087V17.8776C26.9971 17.5596 26.8708 17.2547 26.6459 17.0299C26.4211 16.805 26.1161 16.6787 25.7982 16.6787ZM21.6237 18.0004V19.777H19.2909V18.0004H21.6237ZM25.6754 25.7859H15.3476L15.2393 25.6487V18.0004H17.9621V19.9576C17.9621 20.2602 18.0823 20.5505 18.2963 20.7645C18.5103 20.9785 18.8005 21.0987 19.1032 21.0987H21.8043C22.1069 21.0987 22.3972 20.9785 22.6112 20.7645C22.8252 20.5505 22.9454 20.2602 22.9454 19.9576V18.0004H25.6754V25.7859Z" fill="#0ABD19"></path>
        <path d="M13.2827 8.95H12.3527C12.3527 8.40333 12.5694 7.91333 13.0027 7.48C13.0427 7.44 13.1694 7.32 13.3827 7.12C13.6027 6.91333 13.7461 6.77 13.8127 6.69C13.8861 6.60333 13.9661 6.47333 14.0527 6.3C14.1461 6.12667 14.1927 5.96 14.1927 5.8C14.1927 5.47333 14.0794 5.22 13.8527 5.04C13.6261 4.86 13.3261 4.77 12.9527 4.77C12.2194 4.77 11.7494 5.09333 11.5427 5.74L10.7527 5.3C10.9127 4.84667 11.1894 4.49667 11.5827 4.25C11.9827 3.99667 12.4427 3.87 12.9627 3.87C13.5494 3.87 14.0561 4.03667 14.4827 4.37C14.9094 4.69667 15.1227 5.16 15.1227 5.76C15.1227 6.28 14.9061 6.75667 14.4727 7.19C14.4394 7.22333 14.3361 7.32333 14.1627 7.49C13.9894 7.65 13.8727 7.76667 13.8127 7.84C13.7527 7.90667 13.6694 8.01 13.5627 8.15C13.4561 8.29 13.3827 8.42333 13.3427 8.55C13.3027 8.67667 13.2827 8.81 13.2827 8.95ZM12.8127 11.11C12.6327 11.11 12.4794 11.0467 12.3527 10.92C12.2261 10.7933 12.1627 10.64 12.1627 10.46C12.1627 10.28 12.2261 10.1267 12.3527 10C12.4794 9.87333 12.6327 9.81 12.8127 9.81C12.9994 9.81 13.1527 9.87333 13.2727 10C13.3994 10.1267 13.4627 10.28 13.4627 10.46C13.4627 10.64 13.3994 10.7933 13.2727 10.92C13.1527 11.0467 12.9994 11.11 12.8127 11.11Z" fill="#0ABD19"></path>
        <path d="M12.9718 14.1381C14.2807 14.1367 15.5599 13.7474 16.6477 13.0195C17.7356 12.2915 18.5833 11.2575 19.0839 10.0481C19.5845 8.83867 19.7154 7.50802 19.4603 6.2242C19.2051 4.94037 18.5752 3.76096 17.6501 2.8349C16.7251 1.90883 15.5463 1.27766 14.2628 1.02107C12.9793 0.764486 11.6485 0.894001 10.4385 1.39326C9.2285 1.89252 8.19359 2.73914 7.46445 3.82619C6.73532 4.91324 6.34466 6.19198 6.3418 7.50091C6.34085 8.37218 6.51164 9.2351 6.84441 10.0403C7.17717 10.8455 7.66538 11.5773 8.28113 12.1937C8.89687 12.8101 9.62808 13.2991 10.4329 13.6328C11.2378 13.9664 12.1005 14.1381 12.9718 14.1381ZM12.9718 2.21424C14.0209 2.21425 15.0464 2.52552 15.9184 3.10865C16.7905 3.69179 17.47 4.52056 17.8708 5.49006C18.2716 6.45955 18.3757 7.52617 18.17 8.55487C17.9643 9.58358 17.4579 10.5281 16.7151 11.2689C15.9723 12.0097 15.0264 12.5134 13.9971 12.7164C12.9679 12.9193 11.9015 12.8122 10.9331 12.4088C9.96473 12.0053 9.13781 11.3236 8.55706 10.45C7.9763 9.57631 7.66783 8.54998 7.67069 7.50091C7.67451 6.09747 8.23471 4.75282 9.22845 3.76179C10.2222 2.77076 11.5684 2.21424 12.9718 2.21424Z" fill="#0ABD19"></path>
    </g>
    <defs>
        <clipPath id="clip0_497_9877">
            <rect width="26" height="27" fill="white" transform="translate(0.998047)"></rect>
        </clipPath>
    </defs>
</svg>