<svg width="187" height="152" viewBox="0 0 187 152" fill="none" xmlns="http://www.w3.org/2000/svg">
    <g clip-path="url(#clip0_229_1220)">
        <path fill-rule="evenodd" clip-rule="evenodd" d="M67.3928 0.0520626C83.5164 -0.0518263 99.6399 0.0416737 115.774 0.010507C121.197 -0.0414374 126.682 0.342951 131.918 1.84934C143.169 4.94523 152.893 13.1421 157.849 23.718C162.794 34.0341 163.085 46.48 158.586 57.0143C154.296 67.3617 145.528 75.7143 135.004 79.5271C129.082 81.7607 122.682 82.4152 116.397 82.384C100.762 82.384 85.1267 82.3944 69.4914 82.384C62.7178 82.3632 55.8196 81.3659 49.6174 78.5401C40.9219 74.7274 33.6393 67.7565 29.4838 59.2168C24.8919 50.0226 24.0504 39.0623 27.0735 29.2552C29.4734 21.4532 34.2315 14.368 40.6518 9.31895C45.8359 5.11145 52.1004 2.31684 58.635 1.00784C61.5439 0.54034 64.4632 0.104007 67.4032 0.0728404L67.3928 0.0520626ZM58.635 30.1279C56.0482 31.8628 54.147 34.5536 53.2847 37.5456C52.3497 41.0362 52.7549 44.9113 54.6664 48.0072C56.9416 51.9238 61.2426 54.3652 65.6994 54.7703L121.633 54.7392C124.802 54.3028 127.97 53.0666 130.225 50.7291C132.261 48.776 133.632 46.1476 134.048 43.3633C134.858 38.9273 133.154 34.1588 129.768 31.198C126.848 28.4968 122.766 27.4476 118.859 27.4476C102.081 27.4476 85.3137 27.4476 68.5356 27.4476C65.0761 27.406 61.4919 28.1021 58.6246 30.1175L58.635 30.1279Z" fill="black"/>
        <path fill-rule="evenodd" clip-rule="evenodd" d="M108.865 102.923C111.327 102.902 113.79 102.912 116.252 102.923C116.252 118.828 116.252 134.723 116.252 150.628C113.79 150.67 111.327 150.639 108.865 150.639C108.876 134.733 108.886 118.828 108.865 102.923Z" fill="black"/>
        <path fill-rule="evenodd" clip-rule="evenodd" d="M166.721 120.137C169.775 118.267 173.536 117.852 177.037 118.33C180.112 118.693 183.011 119.981 185.556 121.727C184.288 123.347 183.094 125.03 181.909 126.724C180.663 126.132 179.52 125.488 178.211 125.145C175.749 124.251 171.531 124.002 169.702 126.215C168.819 127.316 169.318 129.072 170.575 129.664C173.068 131.087 176.06 131.139 178.73 132.074C181.535 132.936 184.361 134.453 185.878 137.071C187.197 139.232 187.28 141.985 186.47 144.354C185.442 147.304 182.938 149.517 180.029 150.535C173.38 152.81 165.755 150.992 160.404 146.556C161.693 144.8 162.96 143.034 164.342 141.362C167.147 143.284 170.367 144.894 173.858 144.873C175.832 144.977 178.107 144.676 179.468 143.076C180.58 141.757 180.029 140.022 178.71 139.087C177.556 138.276 176.175 137.809 174.793 137.559C171.77 136.853 168.591 136.354 165.921 134.671C163.656 133.248 162.056 130.651 162.191 127.929C162.108 124.75 164.061 121.779 166.721 120.158V120.137Z" fill="black"/>
        <path fill-rule="evenodd" clip-rule="evenodd" d="M42.9888 122.526C48.9208 117.54 58.2916 117.623 64.338 122.381C62.8939 124.303 61.3563 126.162 59.8707 128.053C57.554 126.599 54.7594 125.861 52.0271 126.318C49.378 126.682 46.8223 128.334 45.7626 130.848C43.9549 134.619 44.838 139.71 48.2352 142.307C51.8401 144.998 57.3462 144.488 60.5668 141.403C62.3329 143.076 63.964 144.894 65.7093 146.597C59.9019 152.727 49.2741 153.153 42.9057 147.667C39.3111 144.572 37.4411 139.762 37.5762 135.066C37.4931 130.38 39.4046 125.601 42.9992 122.537L42.9888 122.526Z" fill="black"/>
        <path fill-rule="evenodd" clip-rule="evenodd" d="M13.2454 119.181C16.9543 118.61 20.9124 119.14 24.1746 121.062C27.7587 123.004 30.3456 126.526 31.4468 130.422C32.6311 134.796 32.1636 139.658 29.8677 143.606C27.6652 147.408 23.7798 150.151 19.4788 151.013C15.6037 151.719 11.4378 151.273 8.00944 149.278C4.57072 147.398 1.9735 144.104 0.830717 140.375C-0.59256 136.094 -0.156227 131.243 1.95272 127.264C4.15516 122.973 8.50811 119.929 13.2558 119.202L13.2454 119.181ZM13.5467 126.537C11.0949 127.181 8.94444 128.999 8.03022 131.378C7.00172 133.715 6.99133 136.448 7.97827 138.806C9.02755 141.632 11.7702 143.678 14.7622 143.98C16.4141 144.125 18.149 144.052 19.6866 143.377C22.3046 142.297 24.2577 139.762 24.6524 136.957C25.0472 134.557 24.7044 131.949 23.3227 129.903C22.0552 127.939 19.8736 126.724 17.6088 126.298C16.2582 126.194 14.8765 126.194 13.5571 126.547L13.5467 126.537Z" fill="black"/>
        <path fill-rule="evenodd" clip-rule="evenodd" d="M124.376 119.701C126.838 119.67 129.301 119.68 131.752 119.701C131.732 124.625 131.731 129.56 131.773 134.484C131.815 137.071 132.054 139.897 133.664 142.037C136.521 145.715 142.951 145.351 145.486 141.486C146.588 139.772 146.951 137.684 146.941 135.679C146.951 130.349 146.962 125.02 146.941 119.69C149.403 119.69 151.865 119.69 154.327 119.69C154.327 129.996 154.338 140.312 154.327 150.618C152.187 150.67 150.037 150.618 147.897 150.649C147.845 149.673 147.762 148.696 147.668 147.73C142.609 152.208 134.235 152.592 128.989 148.229C126.298 146.005 124.937 142.546 124.626 139.138C124.148 132.677 124.47 126.183 124.366 119.701H124.376Z" fill="black"/>
        <path fill-rule="evenodd" clip-rule="evenodd" d="M70.3534 138.235C70.1456 132.053 70.2495 125.872 70.2287 119.68C72.6909 119.68 75.1634 119.659 77.6256 119.701C77.6256 124.926 77.6048 130.152 77.6672 135.388C77.7295 137.85 78.1139 140.551 79.8488 142.442C82.8616 145.652 88.7209 145.185 91.2558 141.601C92.4921 139.803 92.8973 137.58 92.8973 135.336L92.8349 119.711C95.2659 119.659 97.6969 119.711 100.128 119.68C100.19 129.996 100.128 140.312 100.159 150.629C98.0398 150.629 95.9101 150.732 93.8011 150.587C93.6349 149.642 93.6037 148.686 93.5206 147.74C88.1703 152.478 78.9762 152.654 73.9376 147.356C71.5689 144.946 70.6339 141.528 70.3638 138.245L70.3534 138.235Z" fill="black"/>
    </g>
    <defs>
        <clipPath id="clip0_229_1220">
            <rect width="187" height="151.512" fill="white"/>
        </clipPath>
    </defs>
</svg>
