<svg width="500" height="500" viewBox="0 0 500 500" fill="none" xmlns="http://www.w3.org/2000/svg">
    <path d="M399.27 50.3101H417.52L416.29 117.56H400.5L399.27 50.3101Z" fill="#EBEBEB"/>
    <path d="M416.29 125.98H400.51V141.76H416.29V125.98Z" fill="#EBEBEB"/>
    <path d="M441.65 105.43L456.49 109.75L439.58 164.14L426.74 160.4L441.65 105.43Z" fill="#EBEBEB"/>
    <path d="M437.572 170.995L424.745 167.261L421.011 180.088L433.838 183.822L437.572 170.995Z" fill="#EBEBEB"/>
    <path d="M262.69 83.1501L274.51 77.5601L294.29 121.52L284.06 126.36L262.69 83.1501Z" fill="#EBEBEB"/>
    <path d="M296.867 127.001L286.64 131.829L291.468 142.056L301.695 137.228L296.867 127.001Z" fill="#EBEBEB"/>
    <path d="M443.46 358.83H350.18C350.18 358.83 359.43 333.57 373.67 333.57C387.91 333.57 392.36 351 392.36 351C392.36 351 401.96 341.53 409.85 341.53C417.74 341.53 424.6 354.05 424.6 354.05C424.6 354.05 435.74 347.32 443.46 358.83Z" fill="#EBEBEB"/>
    <path d="M324.18 320.3H275C275 320.3 286 304.37 294.65 304.37C303.3 304.37 305.85 315 305.85 315C305.85 315 311.97 310.05 317.63 310.93C323.29 311.81 324.18 320.3 324.18 320.3Z" fill="#EBEBEB"/>
    <path d="M154.14 189.49H58.3193C58.3193 189.49 71.4393 160.2 85.4793 158.36C99.5193 156.52 106.23 180.13 106.23 180.13C106.23 180.13 115.23 171.79 122.4 171.79C129.57 171.79 135.02 182.79 135.02 182.79C135.02 182.79 149.26 175.25 154.14 189.49Z" fill="#EBEBEB"/>
    <path d="M245.21 105.24H180.48C180.48 105.24 191.6 83.9999 203.66 83.6999C215.72 83.3999 222.07 99.7699 222.07 99.7699C222.07 99.7699 240.83 84.7099 245.21 105.24Z" fill="#EBEBEB"/>
    <path d="M355.76 116.85H343.84V440.91H355.76V116.85Z" fill="#DBDBDB"/>
    <path d="M349.8 61.4102L256.14 223.63H443.46L349.8 61.4102Z" fill="#92E3A9"/>
    <path d="M349.8 84.9102L276.5 211.88H423.11L349.8 84.9102Z" fill="white"/>
    <path d="M342.38 121.65H357.23L356.23 176.39H343.38L342.38 121.65Z" fill="#92E3A9"/>
    <path d="M356.22 183.25H343.38V196.09H356.22V183.25Z" fill="#92E3A9"/>
    <path d="M443.46 233.07H256.14V295.74H443.46V233.07Z" fill="#92E3A9"/>
    <path d="M439.25 291.56H260.35V237.25H439.25V291.56ZM261.35 290.56H438.25V238.25H261.35V290.56Z" fill="white"/>
    <path d="M284.33 254.26H288.04L290.38 261.13L292.71 254.26H296.46L292.92 263.7L295.55 270.34L301.43 254.2H305.81L297.36 274.95H293.97L290.38 266.24L286.78 274.95H283.39L275 254.2H279.33L285.23 270.34L287.8 263.7L284.33 254.26Z" fill="#263238"/>
    <path d="M312.06 254.2H315.63L323.54 274.95H319.39L317.44 269.78H310.19L308.29 274.95H304.14L312.06 254.2ZM316.71 266.94L313.85 258.78L310.85 266.93L316.71 266.94Z" fill="#263238"/>
    <path d="M325.8 274.95V254.2H334.98C335.895 254.191 336.799 254.396 337.62 254.8C338.412 255.187 339.122 255.723 339.71 256.38C340.301 257.031 340.768 257.783 341.09 258.6C341.412 259.394 341.578 260.243 341.58 261.1C341.596 262.393 341.249 263.664 340.58 264.77C339.942 265.833 338.982 266.667 337.84 267.15L342.58 274.95H338.05L333.81 268H329.81V274.95H325.8ZM329.8 264.46H334.86C335.21 264.454 335.552 264.365 335.86 264.2C336.183 264.019 336.465 263.774 336.69 263.48C336.934 263.156 337.123 262.795 337.25 262.41C337.385 261.986 337.452 261.544 337.45 261.1C337.454 260.64 337.376 260.183 337.22 259.75C337.071 259.364 336.858 259.006 336.59 258.69C336.339 258.396 336.029 258.157 335.68 257.99C335.37 257.831 335.028 257.746 334.68 257.74H329.8V264.46Z" fill="#263238"/>
    <path d="M349.27 261.65V274.95H345.27V254.2H348.39L359.18 267.78V254.23H363.18V274.95H359.94L349.27 261.65Z" fill="#263238"/>
    <path d="M367.54 274.95V254.2H371.54V274.95H367.54Z" fill="#263238"/>
    <path d="M379.93 261.65V274.95H375.93V254.2H379.05L389.84 267.78V254.23H393.84V274.95H390.57L379.93 261.65Z" fill="#263238"/>
    <path d="M412.6 272.61C411.859 273.399 410.963 274.027 409.969 274.456C408.974 274.884 407.903 275.103 406.82 275.1C405.492 275.11 404.178 274.83 402.97 274.28C401.789 273.749 400.727 272.983 399.85 272.03C398.941 271.046 398.225 269.899 397.74 268.65C397.215 267.316 396.954 265.893 396.97 264.46C396.949 261.734 397.993 259.108 399.88 257.14C400.788 256.187 401.876 255.422 403.08 254.89C404.336 254.323 405.701 254.036 407.08 254.05C408.827 254.002 410.555 254.427 412.08 255.28C413.43 256.05 414.523 257.201 415.22 258.59L412.22 260.81C411.741 259.817 410.974 258.992 410.02 258.44C409.082 257.895 408.015 257.612 406.93 257.62C406.094 257.613 405.268 257.805 404.52 258.18C403.794 258.545 403.156 259.064 402.65 259.7C402.126 260.366 401.72 261.117 401.45 261.92C401.166 262.778 401.024 263.676 401.03 264.58C401.025 265.511 401.184 266.435 401.5 267.31C401.789 268.118 402.223 268.867 402.78 269.52C403.325 270.136 403.988 270.636 404.73 270.99C405.492 271.353 406.326 271.538 407.17 271.53C408.229 271.496 409.268 271.224 410.208 270.734C411.148 270.245 411.965 269.549 412.6 268.7V267.24H408.42V264.24H415.94V274.91H412.6V272.61Z" fill="#263238"/>
    <path d="M419.76 267.15V254H423.68V267.15H419.76ZM419.76 274.95V270.54H423.68V274.95H419.76Z" fill="#263238"/>
    <path d="M219.5 440.88H132.92C132.2 438.09 131.51 435.35 130.82 432.65C130.03 429.54 129.25 426.51 128.51 423.56C128.34 422.9 128.17 422.24 128 421.56C127.43 419.3 126.87 417.09 126.32 414.95C125.99 413.65 125.66 412.36 125.32 411.09C124.98 409.82 124.66 408.52 124.32 407.28C124.23 406.95 124.16 406.62 124.07 406.28C123.98 405.94 123.89 405.56 123.8 405.21C123.71 404.86 123.58 404.36 123.47 403.93C123.35 403.48 123.24 403.04 123.13 402.6L122.51 400.14C122.2 398.96 121.91 397.79 121.62 396.66C121.5 396.17 121.37 395.66 121.25 395.19C121.044 394.397 120.844 393.627 120.65 392.88C120.52 392.37 120.4 391.88 120.28 391.4C119.77 389.4 119.28 387.54 118.86 385.8C118.73 385.34 118.63 384.89 118.5 384.45C118.32 383.69 118.13 382.97 117.96 382.27C117.84 381.83 117.73 381.4 117.63 380.98C117.24 379.49 116.89 378.13 116.63 376.93C116.54 376.62 116.46 376.31 116.38 376.01C116.19 375.22 116 374.52 115.85 373.89C115.78 373.64 115.73 373.4 115.66 373.18C115.59 372.96 115.54 372.7 115.48 372.49C115.42 372.28 115.41 372.18 115.37 372.05C115.33 371.92 115.26 371.63 115.22 371.46C115.206 371.371 115.182 371.284 115.15 371.2C115.02 370.68 114.96 370.42 114.96 370.42H199.24C199.24 370.42 202.01 379.98 206.46 395.42C207.36 398.56 208.33 401.95 209.38 405.55C212.35 415.88 215.79 427.88 219.5 440.88Z" fill="#37474F"/>
    <path d="M147.09 440.88H144.93C141.73 427.613 138.627 414.323 135.62 401.01C134.89 397.78 134.18 394.54 133.47 391.29C133.4 390.98 133.33 390.69 133.27 390.38C133.27 390.22 133.48 390.15 133.52 390.31L133.61 390.61C134.59 394.09 135.56 397.576 136.52 401.07C140.173 414.303 143.697 427.573 147.09 440.88Z" fill="#263238"/>
    <path d="M196.52 370.48L192.81 389.1L189.75 404.37L184.56 430.37L184.03 433.03L183.14 437.48L182.47 440.85H132.91L130.82 432.62C130.03 429.51 129.25 426.48 128.51 423.53C128.34 422.87 128.17 422.21 128 421.53C127.43 419.27 126.87 417.06 126.32 414.92C125.99 413.62 125.66 412.33 125.32 411.06C124.98 409.79 124.66 408.49 124.32 407.25C124.23 406.92 124.16 406.59 124.07 406.25C123.98 405.91 123.89 405.53 123.8 405.18C123.71 404.83 123.58 404.33 123.47 403.9C123.35 403.45 123.24 403.01 123.13 402.57L122.51 400.11C122.2 398.93 121.91 397.76 121.62 396.63C121.49 396.13 121.37 395.63 121.25 395.16C121.044 394.366 120.844 393.596 120.65 392.85C120.52 392.34 120.4 391.85 120.28 391.37C119.77 389.37 119.28 387.51 118.86 385.77C118.73 385.31 118.63 384.86 118.5 384.42C118.32 383.66 118.13 382.94 117.96 382.24C117.84 381.8 117.73 381.37 117.63 380.95C117.24 379.46 116.89 378.1 116.63 376.9C116.54 376.59 116.46 376.28 116.38 375.98C116.19 375.19 116 374.49 115.85 373.86C115.78 373.61 115.73 373.37 115.66 373.15C115.59 372.93 115.54 372.67 115.48 372.46C115.42 372.25 115.41 372.15 115.37 372.02C115.33 371.89 115.26 371.6 115.22 371.43C115.206 371.341 115.182 371.254 115.15 371.17C115.02 370.65 114.96 370.39 114.96 370.39L196.52 370.48Z" fill="#263238"/>
    <path d="M196.54 370.44C196.54 370.9 196.18 375.92 195.37 383.59C195.14 385.83 194.87 388.29 194.55 390.92C194.06 395.08 193.44 399.67 192.68 404.52C191.39 412.98 189.68 422.2 187.51 431.22C186.73 434.47 185.87 437.69 184.96 440.84H76.1699C77.4499 424.26 78.6299 409.26 79.5599 397.44C80.8599 380.81 81.6999 370.44 81.6999 370.44H180.38H196.54Z" fill="#37474F"/>
    <path d="M196.31 380.44C196.18 384.33 196.02 388.22 195.77 392.09C195.5 396.29 195.12 400.49 194.57 404.68C194.57 404.83 194.57 404.99 194.57 405.14C194.05 409.07 193.47 412.98 192.8 416.89C192.17 420.53 191.71 424.46 190.1 427.83C189.493 429.132 188.629 430.299 187.56 431.26C186.58 432.157 185.379 432.778 184.08 433.06C183.868 433.117 183.65 433.153 183.43 433.17H183.24C183.279 433.193 183.311 433.227 183.332 433.268C183.354 433.308 183.363 433.354 183.36 433.4C183.36 434.71 183.36 436.04 183.21 437.33C183.21 437.39 183.21 437.44 183.21 437.5C183.08 438.63 182.87 439.75 182.66 440.87H180.79C180.793 440.846 180.793 440.823 180.79 440.8C181.12 439.57 181.39 438.33 181.7 437.09C182.01 435.85 182.44 434.59 182.7 433.31C182.706 433.285 182.717 433.261 182.733 433.24C182.748 433.22 182.768 433.203 182.79 433.19C181.605 433.246 180.431 432.937 179.427 432.306C178.422 431.675 177.635 430.752 177.17 429.66C176.7 427.993 176.669 426.232 177.08 424.55C177.42 422.32 177.75 420.1 178.08 417.87C178.72 413.77 179.54 409.73 180.26 405.66L180.59 403.8C182.05 395.52 183.59 387.23 185.41 379.03C185.48 378.68 185.55 378.34 185.63 378.03C185.71 377.72 186.05 377.87 186.03 378.09C185.97 378.64 185.92 379.2 185.85 379.75C185.53 382.9 185.16 386.03 184.72 389.16C184.19 392.84 183.83 396.53 183.31 400.21C183.14 401.46 182.96 402.71 182.78 403.96C181.93 410.01 181.05 416.05 180.02 422.08C179.54 424.88 177.8 429.89 181.82 430.76C182.742 430.962 183.706 430.842 184.55 430.42C186.331 429.348 187.663 427.668 188.3 425.69C189.283 422.396 189.999 419.028 190.44 415.62C191.107 411.933 191.69 408.24 192.19 404.54C192.85 399.92 193.53 395.32 194.25 390.71L195.36 383.66C195.54 382.58 195.71 381.49 195.89 380.4C195.94 380.14 196.31 380.21 196.31 380.44Z" fill="#263238"/>
    <path d="M100 409.36C104.53 409.312 109.038 408.708 113.42 407.56C115.42 407.04 117.42 406.39 119.42 405.74C121.384 405.195 123.222 404.271 124.83 403.02C127.83 400.39 129.3 396.25 130.63 392.57C132.082 388.418 133.257 384.176 134.15 379.87C134.15 379.66 134.5 379.73 134.51 379.93C134.618 384.797 134.002 389.654 132.68 394.34C131.59 398.34 130.12 402.76 126.9 405.55C123.52 408.48 118.9 409.55 114.6 410.05C109.738 410.615 104.824 410.544 99.9802 409.84C99.9487 409.838 99.9177 409.831 99.8891 409.818C99.8605 409.804 99.8348 409.786 99.8134 409.762C99.7921 409.739 99.7755 409.712 99.7647 409.682C99.7538 409.653 99.7489 409.621 99.7502 409.59C99.7515 409.558 99.759 409.527 99.7723 409.499C99.7856 409.47 99.8044 409.444 99.8276 409.423C99.8508 409.402 99.878 409.385 99.9076 409.374C99.9372 409.363 99.9687 409.358 100 409.36Z" fill="#263238"/>
    <path d="M92.4899 380C92.2499 386.086 91.9966 392.18 91.7299 398.28C91.0966 412.48 90.4099 426.68 89.6699 440.88H87.6699C88.6099 426.64 89.6099 412.42 90.6699 398.22C91.0699 392.14 91.5132 386.066 91.9999 380C91.9999 379.65 92.5099 379.67 92.4899 380Z" fill="#263238"/>
    <path d="M179.72 245.09C194.65 263.17 248 329.74 240.49 348.28C232.88 367.06 215.07 379.97 205.8 366.89C198.15 356.1 169.35 281.41 165.23 262.12C161.31 243.76 165 227.32 179.72 245.09Z" fill="#D3766A"/>
    <path d="M175.43 310.17L230.9 299.17C230.9 299.17 191.85 250.76 176.35 239.76C158.9 227.39 156.35 239.02 159.63 259.09C162.91 279.16 175.43 310.17 175.43 310.17Z" fill="#92E3A9"/>
    <path d="M230.9 299.14L175.43 310.14C175.43 310.14 162.87 279.14 159.63 259.03C156.39 238.92 158.9 227.33 176.35 239.7C177.23 240.33 178.19 241.08 179.22 241.93L180.48 243C186.11 247.89 193.38 255.51 200.64 263.56L201.04 264C206.76 270.37 212.47 277 217.34 282.74L219.34 285.17C226.19 293.3 230.9 299.14 230.9 299.14Z" fill="#92E3A9"/>
    <path d="M191.75 293.86C191.114 295.46 190.713 297.145 190.56 298.86C191.571 297.483 192.385 295.971 192.98 294.37C193.616 292.786 194.02 291.119 194.18 289.42C193.166 290.779 192.348 292.273 191.75 293.86ZM171.05 269.56C169.451 268.92 167.766 268.515 166.05 268.36C167.415 269.381 168.921 270.2 170.52 270.79C172.121 271.428 173.805 271.832 175.52 271.99C174.155 270.969 172.65 270.151 171.05 269.56ZM181.74 245.44C181.367 244.621 180.95 243.823 180.49 243.05L179.22 242C179.521 243.375 179.963 244.716 180.54 246C181.204 247.573 182.097 249.039 183.19 250.35C182.945 248.652 182.457 246.998 181.74 245.44ZM219.85 286.17C219.7 285.85 219.55 285.53 219.39 285.22L217.39 282.79C217.676 284.139 218.105 285.453 218.67 286.71C219.346 288.279 220.242 289.744 221.33 291.06C221.074 289.367 220.576 287.721 219.85 286.17ZM200.65 263.61C200.37 263.81 200.09 264.03 199.82 264.26C200.234 264.211 200.644 264.141 201.05 264.05L200.65 263.61Z" fill="white"/>
    <path d="M221.14 290.84C219.14 290.92 201.82 294.09 198.07 294.84C194.32 295.59 178.94 298.61 175.13 299.73C175.101 299.738 175.075 299.756 175.056 299.78C175.037 299.804 175.027 299.834 175.027 299.865C175.027 299.896 175.037 299.925 175.056 299.95C175.075 299.974 175.101 299.992 175.13 300C179.07 299.62 194.58 296.64 198.42 295.94C202.26 295.24 219.35 291.72 221.17 291.07C221.37 291 221.28 290.84 221.14 290.84Z" fill="#263238"/>
    <path d="M207.4 303.81L175.4 310.16C175.4 310.16 162.84 279.16 159.6 259.06C157.21 244.25 157.95 234.06 165.51 234.67L207.4 303.81Z" fill="#263238"/>
    <path d="M214 401.56L73.2695 409C73.2695 409 85.1895 289.09 137.27 238.1C143.7 231.8 160.8 228.89 169.54 235.71C174.2 239.35 182.65 255.63 187.13 272.25C191.61 288.87 214.38 401 214 401.56Z" fill="#92E3A9"/>
    <path d="M153.12 249.31C152.494 250.896 152.093 252.562 151.93 254.26C152.952 252.891 153.77 251.383 154.36 249.78C154.992 248.195 155.396 246.528 155.56 244.83C154.542 246.202 153.72 247.71 153.12 249.31ZM136.93 313.49C136.286 315.088 135.882 316.773 135.73 318.49C137.741 315.718 138.99 312.466 139.35 309.06C138.341 310.417 137.527 311.908 136.93 313.49ZM126.64 381.58C126.006 383.161 125.602 384.824 125.44 386.52C127.451 383.748 128.7 380.496 129.06 377.09C128.044 378.464 127.229 379.976 126.64 381.58ZM191.93 293.42L191.75 293.86C191.114 295.46 190.713 297.145 190.56 298.86C191.3 297.882 191.925 296.822 192.42 295.7C192.25 294.89 192.09 294.15 191.93 293.42ZM165.24 374.53C164.598 376.13 164.19 377.814 164.03 379.53C165.055 378.165 165.876 376.66 166.47 375.06C167.098 373.474 167.499 371.808 167.66 370.11C166.652 371.464 165.838 372.951 165.24 374.53ZM108.19 288.63C107.557 290.214 107.156 291.881 107 293.58C108.015 292.209 108.83 290.701 109.42 289.1C110.061 287.5 110.465 285.816 110.62 284.1C109.595 285.484 108.776 287.01 108.19 288.63ZM171.05 269.56C169.451 268.92 167.766 268.515 166.05 268.36C167.416 269.381 168.921 270.2 170.52 270.79C172.121 271.428 173.805 271.832 175.52 271.99C174.155 270.969 172.65 270.151 171.05 269.56ZM185.12 323.19C183.539 322.56 181.875 322.159 180.18 322C181.544 323.022 183.05 323.837 184.65 324.42C186.235 325.054 187.902 325.462 189.6 325.63C188.233 324.604 186.724 323.782 185.12 323.19ZM192.49 387C190.891 386.36 189.206 385.955 187.49 385.8C190.26 387.811 193.508 389.062 196.91 389.43C195.558 388.417 194.07 387.599 192.49 387ZM87.1699 383.51C85.5703 382.87 83.886 382.465 82.1699 382.31C84.9444 384.319 88.1946 385.57 91.5999 385.94C90.2453 384.925 88.7539 384.107 87.1699 383.51ZM124.67 340.65C123.072 340.005 121.387 339.597 119.67 339.44C121.039 340.464 122.548 341.286 124.15 341.88C125.752 342.513 127.436 342.913 129.15 343.07C127.779 342.055 126.271 341.24 124.67 340.65ZM138.14 279.9C137.465 278.331 136.569 276.866 135.48 275.55C136.017 278.934 137.435 282.117 139.59 284.78C139.338 283.094 138.849 281.451 138.14 279.9ZM162.47 333.9C161.795 332.333 160.903 330.869 159.82 329.55C160.067 331.238 160.556 332.881 161.27 334.43C161.943 335.998 162.835 337.463 163.92 338.78C163.672 337.09 163.183 335.443 162.47 333.89V333.9ZM105.18 363.25C104.506 361.683 103.611 360.222 102.52 358.91C102.773 360.597 103.261 362.239 103.97 363.79C104.642 365.358 105.538 366.82 106.63 368.13C106.383 366.439 105.895 364.792 105.18 363.24V363.25ZM114.7 406C114.029 404.431 113.136 402.966 112.05 401.65C112.291 403.339 112.78 404.984 113.5 406.53C113.56 406.67 113.63 406.8 113.69 406.94L115.06 406.87L114.7 406ZM189.32 354.62C187.751 355.287 186.286 356.176 184.97 357.26C188.351 356.725 191.533 355.315 194.2 353.17C192.513 353.39 190.868 353.862 189.32 354.57V354.62ZM147.7 398C146.132 398.673 144.667 399.565 143.35 400.65C145.038 400.4 146.681 399.912 148.23 399.2C149.802 398.529 151.267 397.633 152.58 396.54C150.891 396.786 149.247 397.277 147.7 398ZM79.6999 407.9C79.0999 408.18 78.4999 408.47 77.9199 408.79L81.2299 408.62C82.4359 408.041 83.5619 407.308 84.5799 406.44C82.882 406.69 81.2286 407.182 79.6699 407.9H79.6999ZM105.83 316.69C104.263 317.365 102.799 318.257 101.48 319.34C104.864 318.799 108.048 317.386 110.72 315.24C109.019 315.484 107.362 315.972 105.8 316.69H105.83ZM144.08 359.17C142.512 359.848 141.048 360.743 139.73 361.83C141.422 361.588 143.07 361.099 144.62 360.38C146.19 359.705 147.655 358.81 148.97 357.72C147.27 357.969 145.614 358.457 144.05 359.17H144.08ZM161.08 293.7C159.512 294.373 158.047 295.265 156.73 296.35C160.114 295.809 163.298 294.396 165.97 292.25C164.252 292.489 162.578 292.978 161 293.7H161.08ZM123.43 255.45C123.08 255.61 122.74 255.77 122.43 255.95C122.04 256.51 121.65 257.08 121.27 257.65C122.2 257.374 123.112 257.04 124 256.65C125.567 255.974 127.031 255.082 128.35 254C126.636 254.24 124.965 254.729 123.39 255.45H123.43Z" fill="white"/>
    <path d="M118.32 255.32C78.7702 301.93 51.7402 375.59 65.7802 386.41C81.7102 398.7 140.56 408.81 163.94 410.84C171.19 411.47 172.29 351.4 164.51 351.58C155.08 351.8 119.82 344.64 118.88 344.63C116.88 344.63 136.07 283.63 141.62 259.75C149.35 226.46 133.17 237.82 118.32 255.32Z" fill="#D3766A"/>
    <path d="M241.1 361C242.78 367 237.37 370.54 237.37 370.54C239.661 372.635 241.147 375.465 241.57 378.54C242.06 384 233.71 387.16 233.71 387.16C235.633 389.835 236.706 393.027 236.79 396.32C236.73 401.59 228.79 405.98 228.79 405.98C229.202 409.411 228.364 412.876 226.43 415.74C220.95 423.19 206.87 422.13 197.92 421.54C188.97 420.95 161.72 409.8 156.79 408.36L162.41 352C162.41 352 203.31 343.2 213.74 345.38C222.53 347.24 239.21 354.28 241.1 361Z" fill="#D3766A"/>
    <path d="M237.2 370.29C228.33 366.1 218.7 364.75 209.2 362.86C208.99 362.86 208.93 363.16 209.14 363.2C218.65 364.96 227.68 368.59 237.14 370.74C237.189 370.73 237.234 370.705 237.268 370.669C237.303 370.632 237.324 370.586 237.331 370.536C237.338 370.487 237.329 370.436 237.305 370.392C237.282 370.348 237.245 370.312 237.2 370.29Z" fill="#263238"/>
    <path d="M233.57 386.44C231.453 385.673 229.244 385.188 227 385C224.65 384.66 222.3 384.35 219.94 384.09C215.22 383.55 210.49 383.133 205.75 382.84C205.54 382.84 205.47 383.15 205.69 383.17C210.39 383.71 215.09 384.32 219.76 385.06C222.1 385.433 224.433 385.82 226.76 386.22C228.936 386.743 231.163 387.024 233.4 387.06C233.471 387.055 233.538 387.029 233.593 386.984C233.648 386.939 233.687 386.879 233.706 386.81C233.725 386.742 233.722 386.67 233.697 386.603C233.673 386.537 233.628 386.48 233.57 386.44Z" fill="#263238"/>
    <path d="M228.56 406C226.82 405.15 224.5 405.21 222.61 405C220.45 404.8 218.3 404.59 216.14 404.37C211.84 403.93 207.54 403.48 203.25 402.89C203.04 402.89 202.97 403.19 203.19 403.22C207.54 403.84 211.88 404.53 216.24 405.11C218.38 405.403 220.52 405.68 222.66 405.94C224.49 406.17 226.74 406.66 228.55 406.19C228.565 406.179 228.578 406.165 228.587 406.149C228.596 406.133 228.601 406.115 228.602 406.097C228.603 406.079 228.6 406.06 228.592 406.043C228.585 406.027 228.574 406.012 228.56 406Z" fill="#263238"/>
    <path d="M132.32 313.54L76.3203 305.39C76.3203 305.39 112.82 255.03 127.73 243.25C144.51 229.99 147.62 241.47 145.43 261.68C143.24 281.89 132.32 313.54 132.32 313.54Z" fill="#92E3A9"/>
    <path d="M123.39 255.45C121.806 256.115 120.327 257.008 119 258.1C122.384 257.559 125.568 256.145 128.24 254C126.563 254.25 124.93 254.739 123.39 255.45ZM138.14 279.9C137.464 278.331 136.569 276.866 135.48 275.55C136.017 278.934 137.434 282.117 139.59 284.78C139.337 283.094 138.849 281.451 138.14 279.9ZM82.7407 296.74C82.4707 297.11 82.2007 297.48 81.9307 297.83H82.0007C83.6014 298.469 85.285 298.876 87.0007 299.04C85.695 298.078 84.2611 297.304 82.7407 296.74ZM108.19 288.63C107.557 290.214 107.156 291.881 107 293.58C108.015 292.209 108.83 290.7 109.42 289.1C110.061 287.5 110.465 285.816 110.62 284.1C109.595 285.484 108.776 287.01 108.19 288.63Z" fill="white"/>
    <path d="M85.6796 296.19C87.6796 296.19 105.14 298.44 108.92 299.02C112.7 299.6 128.22 301.79 132.09 302.71C132.127 302.71 132.163 302.725 132.189 302.751C132.215 302.777 132.23 302.813 132.23 302.85C132.23 302.887 132.215 302.923 132.189 302.949C132.163 302.975 132.127 302.99 132.09 302.99C128.14 302.81 112.49 300.64 108.62 300.13C104.75 299.62 87.4996 297 85.6196 296.45C85.4596 296.4 85.5396 296.19 85.6796 296.19Z" fill="#263238"/>
    <path d="M127.89 312.46C129.59 312.58 132.24 312.87 132.24 312.87C133.91 305.15 136.41 297.54 138.42 289.87C140.43 282.2 142.75 274.4 144.89 266.65C144.897 266.626 144.913 266.606 144.934 266.594C144.956 266.581 144.982 266.578 145.005 266.585C145.029 266.592 145.05 266.607 145.062 266.629C145.074 266.651 145.077 266.676 145.07 266.7C144.137 271.16 143.184 275.61 142.21 280.05L142.87 278.45C143.65 276.56 144.48 274.69 145.2 272.77C145.21 272.735 145.232 272.706 145.263 272.688C145.294 272.67 145.331 272.666 145.365 272.675C145.4 272.684 145.429 272.707 145.447 272.738C145.465 272.769 145.47 272.805 145.46 272.84C144.915 274.836 144.247 276.796 143.46 278.71C142.89 280.05 142.23 281.34 141.56 282.63C140.98 285.17 140.41 287.72 139.76 290.25C137.76 298.02 136.16 306.79 133.58 314.38C133.58 314.38 129.67 313.47 127.75 312.8C127.717 312.775 127.693 312.739 127.682 312.698C127.67 312.658 127.673 312.615 127.689 312.576C127.705 312.537 127.734 312.505 127.77 312.484C127.806 312.463 127.849 312.454 127.89 312.46Z" fill="#263238"/>
    <path d="M169.4 259.77C161.84 262.34 147.4 251.77 141.24 242.7C140.83 242.07 141.17 235.05 141.18 226.49C141.18 221.3 141.04 215.49 140.53 210.25C140.42 209.17 174.34 215.11 174.34 215.11C174.34 215.11 172.15 226.46 173.08 235.64C173.16 236.365 173.307 237.082 173.52 237.78C173.52 237.87 173.58 237.99 173.6 238.13C174.66 242.17 176.72 257.28 169.4 259.77Z" fill="#D3766A"/>
    <path d="M170.22 238.63C171.356 238.559 172.483 238.391 173.59 238.13C173.572 238.008 173.545 237.888 173.51 237.77C173.304 237.071 173.16 236.355 173.08 235.63C172.15 226.46 174.33 215.11 174.33 215.11C174.33 215.11 146.81 210.28 141.43 210.11C143 216.11 150.7 240.07 170.22 238.63Z" fill="#263238"/>
    <path d="M131.18 169.06C128.53 181.06 137.41 214.47 146.35 221.37C159.35 231.37 179.2 230.84 187.35 215.57C195.26 200.76 182.92 157.44 173.05 151.31C158.53 142.29 135.1 151.32 131.18 169.06Z" fill="#D3766A"/>
    <path d="M189.74 196.83H189.66C190.31 205.24 189.01 213.7 183.51 220.37C182.145 222.093 180.478 223.554 178.59 224.68C178.576 224.694 178.567 224.713 178.564 224.733C178.562 224.753 178.566 224.773 178.576 224.79C178.587 224.808 178.603 224.821 178.621 224.828C178.64 224.835 178.661 224.836 178.68 224.83C180.391 223.9 181.98 222.761 183.41 221.44C184.821 220.073 186.033 218.514 187.01 216.81C189.213 213.03 190.424 208.754 190.53 204.38C190.521 201.843 190.257 199.314 189.74 196.83Z" fill="#263238"/>
    <path d="M166.1 187.24C166.1 187.15 165.95 187.39 165.98 187.48C166.59 189.71 166.98 192.38 165.07 193.62C165.01 193.62 165.07 193.77 165.12 193.74C167.52 192.79 167.05 189.25 166.1 187.24Z" fill="#263238"/>
    <path d="M163.52 185.37C159.82 185.98 161.31 193.32 164.73 192.75C168.15 192.18 166.61 184.86 163.52 185.37Z" fill="#263238"/>
    <path d="M179.18 184.4C179.18 184.31 179.38 184.47 179.4 184.56C179.77 186.85 180.58 189.41 182.79 189.76C182.86 189.76 182.87 189.89 182.79 189.9C180.21 190 179.17 186.62 179.18 184.4Z" fill="#263238"/>
    <path d="M180.75 181.62C184.35 180.62 186.08 187.91 182.75 188.83C179.42 189.75 177.73 182.45 180.75 181.62Z" fill="#263238"/>
    <path d="M165.58 181.65C164.724 182.21 163.839 182.728 162.93 183.2C162.072 183.87 161.019 184.242 159.93 184.26C159.585 184.197 159.27 184.021 159.035 183.761C158.8 183.5 158.658 183.17 158.63 182.82C158.63 181.32 159.63 180.3 160.89 179.55C162.079 178.75 163.523 178.422 164.94 178.63C165.26 178.698 165.552 178.857 165.783 179.088C166.014 179.32 166.173 179.613 166.24 179.932C166.308 180.251 166.282 180.584 166.165 180.889C166.048 181.193 165.845 181.458 165.58 181.65Z" fill="#263238"/>
    <path d="M182.47 174.8C181.445 174.799 180.42 174.742 179.4 174.63C178.311 174.719 177.222 174.449 176.3 173.86C176.056 173.624 175.894 173.315 175.84 172.98C175.786 172.644 175.842 172.301 176 172C176.79 170.73 178.26 170.47 179.68 170.5C181.113 170.488 182.499 171.009 183.57 171.96C183.784 172.193 183.928 172.482 183.986 172.793C184.045 173.104 184.015 173.426 183.901 173.721C183.787 174.016 183.592 174.273 183.339 174.464C183.087 174.655 182.786 174.771 182.47 174.8Z" fill="#263238"/>
    <path d="M169.42 205.38C172.06 203.64 175.83 203.23 178.23 203.03C178.49 202.94 178.62 202.38 178.61 202.12C178.61 202.04 177.47 197.36 177.47 197.36C178.16 197.54 181.68 198.36 181.47 197.42C179.47 190.05 177.23 181.85 173.67 174.94C173.652 174.887 173.613 174.843 173.562 174.819C173.512 174.794 173.453 174.791 173.4 174.81C173.347 174.828 173.304 174.867 173.279 174.918C173.255 174.968 173.252 175.027 173.27 175.08C174.93 182.25 177.82 189.08 179.6 196.24C178.343 195.942 177.05 195.828 175.76 195.9C175.53 196.02 177.24 200.9 177.32 201.67C177.32 201.67 172.45 201.26 169.21 204.42C168.33 205.22 168.16 206.21 169.42 205.38Z" fill="#263238"/>
    <path d="M164.91 211.69C165.56 212.09 166.26 212.69 167.09 212.6C167.922 212.404 168.703 212.032 169.38 211.51C169.395 211.499 169.412 211.493 169.431 211.493C169.449 211.494 169.466 211.5 169.48 211.512C169.494 211.523 169.504 211.539 169.507 211.557C169.511 211.575 169.509 211.594 169.5 211.61C169.272 212.119 168.912 212.558 168.456 212.88C168 213.202 167.466 213.395 166.91 213.44C166.427 213.418 165.961 213.253 165.571 212.966C165.182 212.68 164.885 212.284 164.72 211.83C164.66 211.71 164.82 211.63 164.91 211.69Z" fill="#263238"/>
    <path d="M174.17 201.89C172.04 202.31 165.28 205.05 166.96 208.19C167.69 209.57 169.96 208.75 171.7 206.74C172.816 205.289 173.653 203.645 174.17 201.89Z" fill="#263238"/>
    <path d="M170.83 207.63C169.29 208.96 167.57 209.34 166.95 208.19C166.748 207.805 166.664 207.369 166.709 206.937C166.753 206.505 166.924 206.095 167.2 205.76C168.5 205.54 171.27 205.32 170.83 207.63Z" fill="#FF9ABB"/>
    <path d="M182.71 162.62C172.52 173.8 152.94 165.11 152.94 165.11C152.53 168.004 151.196 170.688 149.136 172.762C147.076 174.837 144.401 176.19 141.51 176.62C141.51 176.62 143.95 197.75 138.51 198.98C130.23 200.87 121.09 173.43 122.4 167.31C123.71 161.19 130.4 158.13 130.4 158.13C130.4 158.13 129.91 153.74 134.1 148.64C138.72 142.99 159.56 144.23 159.56 144.23C160.058 141.366 161.222 138.66 162.96 136.33C163.374 135.754 163.9 135.268 164.507 134.902C165.113 134.535 165.788 134.296 166.49 134.197C167.192 134.099 167.907 134.145 168.591 134.331C169.275 134.517 169.914 134.84 170.47 135.28C169.791 137.039 169.521 138.93 169.68 140.81C170.12 147.06 175.04 145.9 173.68 140.45C173.257 138.393 172.107 136.557 170.44 135.28C172.03 131.14 175.72 129.04 178.57 130.39C183.78 132.83 191.19 153.33 182.71 162.62Z" fill="#263238"/>
    <path d="M140.73 196.82C140.73 196.82 131.12 187.47 126.73 191.1C122.34 194.73 131.02 209.29 137.18 210.33C137.961 210.512 138.77 210.535 139.56 210.4C140.35 210.264 141.105 209.971 141.78 209.538C142.455 209.106 143.036 208.542 143.49 207.881C143.943 207.22 144.26 206.475 144.42 205.69L140.73 196.82Z" fill="#D3766A"/>
    <path d="M129.32 195.21C129.23 195.21 129.24 195.35 129.32 195.37C133.67 196.23 136.51 199.57 138.73 203.16C137.25 201.89 135.46 201.39 133.73 203.16C133.64 203.25 133.73 203.4 133.88 203.35C134.546 202.989 135.307 202.842 136.06 202.932C136.812 203.022 137.518 203.342 138.08 203.85C139.015 204.705 139.857 205.657 140.59 206.69C140.85 207.02 141.46 206.69 141.25 206.31C141.23 206.282 141.213 206.252 141.2 206.22C140.31 201.1 134.94 194.67 129.32 195.21Z" fill="#263238"/>
    <path d="M137.05 245.35C141.385 252.174 147.424 257.75 154.57 261.53C158.036 263.452 161.918 264.503 165.88 264.59C167.949 264.655 169.989 264.09 171.73 262.97C173.322 261.684 174.553 260.005 175.3 258.1C176.21 255.953 176.79 253.68 177.02 251.36C177.319 248.748 177.432 246.118 177.36 243.49C177.36 243.39 177.51 243.4 177.51 243.49C177.58 245.98 177.86 248.49 177.75 250.95C177.701 253.147 177.365 255.329 176.75 257.44C176.151 259.453 175.128 261.314 173.75 262.9C172.274 264.472 170.291 265.474 168.15 265.73C163.965 266.215 159.73 265.471 155.96 263.59C152.178 261.838 148.693 259.506 145.63 256.68C142.119 253.438 139.16 249.645 136.87 245.45C136.75 245.31 137 245.21 137.05 245.35Z" fill="#263238"/>
    <path d="M206.88 364.4C214.31 378.84 233.7 368.32 237.88 357.79C247.77 333.06 250.81 281.06 248.11 257.13C247.24 249.43 198.04 256.59 196.19 264.66C194.29 273.11 191.81 335.09 206.88 364.4Z" fill="#D3766A"/>
    <path d="M247.69 260.8C247.69 260.8 249.69 245.21 250.86 231.5C251.5 223.85 249.86 208.25 247.75 202.42C244.61 193.69 225.9 159.19 217.44 163.55C209.78 167.49 229.62 195.09 229.62 195.09C229.62 195.09 212.06 165.47 203.71 171.92C195.36 178.37 221.92 206.56 221.92 206.56C221.92 206.56 203.2 176.56 195.64 184.56C189.93 190.61 212.55 217.56 212.55 217.56C212.55 217.56 196.28 191.86 190.13 197.83C183.35 204.43 202.66 230.57 202.66 230.57C189.66 248.37 186.99 259.5 197.37 270.16C199.05 271.81 247.69 260.8 247.69 260.8Z" fill="#D3766A"/>
    <path d="M236.34 204.94C234.41 201.39 232.47 197.78 230.23 194.41C227.99 191.04 225.62 187.75 223.07 184.6C216.81 176.89 211.69 173.04 211.98 173.31C218.85 179.75 227.08 191.69 229.32 195.06C231.56 198.43 233.97 201.67 236.22 205.06C236.28 205.12 236.39 205 236.34 204.94Z" fill="#263238"/>
    <path d="M224.33 213.27C221.66 208.84 219.17 204.35 216.33 200.03C213.49 195.71 210.4 191.92 207.26 187.83C207.02 187.52 206.93 187.75 207.16 188.08C210.16 192.28 212.56 196.4 215.48 200.64C218.4 204.88 221.48 209.01 224.26 213.34C224.27 213.41 224.37 213.34 224.33 213.27Z" fill="#263238"/>
    <path d="M215.3 222.27C211.382 215.232 206.762 208.608 201.51 202.5C201.26 202.2 201.18 202.5 201.42 202.84C206.13 209.17 209.84 214.57 215.06 222.41C215.14 222.53 215.38 222.42 215.3 222.27Z" fill="#263238"/>
    <path d="M202.79 180.23C202.275 178.797 201.988 177.292 201.94 175.77C201.98 174.372 202.511 173.034 203.44 171.99C203.5 171.92 203.61 171.99 203.54 172.09C202.35 173.09 202.33 175.03 202.54 176.44C202.782 177.819 203.147 179.175 203.63 180.49C204.126 181.86 204.711 183.196 205.38 184.49C206.013 185.779 206.714 187.034 207.48 188.25C207.488 188.26 207.492 188.272 207.492 188.285C207.492 188.297 207.488 188.31 207.48 188.32C207.474 188.326 207.466 188.332 207.457 188.335C207.449 188.339 207.44 188.341 207.43 188.341C207.421 188.341 207.412 188.339 207.403 188.335C207.395 188.332 207.387 188.326 207.38 188.32C205.943 186.619 204.151 185.254 202.13 184.32C201.211 183.81 200.181 183.532 199.13 183.51C198.158 183.568 197.241 183.98 196.551 184.666C195.861 185.353 195.444 186.268 195.38 187.24C195.388 188.215 195.575 189.181 195.93 190.09C196.621 192.2 197.429 194.27 198.35 196.29C198.86 197.41 199.35 198.51 199.98 199.59C200.61 200.67 201.24 201.71 201.75 202.82C201.75 202.89 201.53 202.95 201.48 202.91C200.8 202.34 196.02 197.71 193.15 197.47C192.415 197.368 191.667 197.5 191.01 197.846C190.354 198.193 189.822 198.736 189.49 199.4C188.823 200.837 188.651 202.454 189 204C189.595 206.655 190.388 209.262 191.37 211.8C191.37 211.88 191.27 211.92 191.24 211.8C190.49 209.95 188.86 205.98 188.35 204.05C187.845 202.439 187.934 200.701 188.6 199.15C188.916 198.448 189.412 197.842 190.037 197.392C190.662 196.943 191.394 196.666 192.16 196.59C193.755 196.645 195.289 197.217 196.53 198.22C198.063 199.404 199.522 200.679 200.9 202.04C200.43 201.36 198.38 197.79 197.84 196.7C196.738 194.521 195.796 192.265 195.02 189.95C194.33 187.95 194.15 185.72 195.77 184.05C196.51 183.35 197.445 182.893 198.451 182.74C199.457 182.586 200.486 182.743 201.4 183.19C202.888 183.823 204.245 184.729 205.4 185.86C205.11 185.45 204.83 185.02 204.58 184.58C203.845 183.191 203.246 181.734 202.79 180.23Z" fill="#263238"/>
    <path d="M199.57 343.29C200.48 345.95 201.34 348.61 202.33 351.23C203.32 353.85 204.27 356.47 205.33 359.03C206.346 361.562 207.634 363.976 209.17 366.23C209.352 366.494 209.552 366.745 209.77 366.98L210.41 367.62C210.918 368.033 211.457 368.407 212.02 368.74C213.136 369.404 214.347 369.893 215.61 370.19C216.879 370.48 218.183 370.581 219.48 370.49C220.793 370.372 222.086 370.094 223.33 369.66C225.88 368.739 228.269 367.423 230.41 365.76C231.53 364.97 232.55 364.02 233.59 363.13C234.587 362.209 235.47 361.171 236.22 360.04C237.782 357.734 238.98 355.201 239.77 352.53C239.336 355.333 238.419 358.04 237.06 360.53C236.354 361.795 235.498 362.97 234.51 364.03C233.529 365.076 232.49 366.068 231.4 367C229.2 368.899 226.69 370.408 223.98 371.46C222.59 371.98 221.138 372.316 219.66 372.46C218.157 372.58 216.644 372.479 215.17 372.16C213.71 371.798 212.314 371.214 211.03 370.43C210.387 370.041 209.776 369.603 209.2 369.12L208.36 368.28C208.109 367.993 207.879 367.689 207.67 367.37C206.099 364.953 204.836 362.35 203.91 359.62C202.011 354.307 200.559 348.845 199.57 343.29Z" fill="#263238"/>
    <path d="M200.99 132.74L213 115.52L218.91 121.54L229.75 108.56L235.94 115.05L218.37 126.36L213.66 120.49L200.99 132.74Z" fill="#455A64"/>
    <path d="M197.16 142.32L213.73 138.62L213.74 143.91L225.78 144.72L225.9 150.38L209.74 147.46L211.01 142.28L197.16 142.32Z" fill="#455A64"/>
    <path d="M191.6 132.74L190.38 116.79L196.06 117.48L195.94 104.48L202.27 103.8L198.68 120.64L193.63 119.69L191.6 132.74Z" fill="#455A64"/>
    <path d="M51.6895 441.31L101.26 441.06L150.84 440.98L250 440.81L349.16 440.98L398.74 441.06L448.31 441.31L398.74 441.55L349.16 441.64L250 441.81L150.84 441.64L101.26 441.55L51.6895 441.31Z" fill="#263238"/>
    <path d="M50.6904 113C50.6843 119.577 52.507 126.026 55.9548 131.627C59.4027 137.228 64.3399 141.76 70.2149 144.717C76.0899 147.674 82.6713 148.939 89.2238 148.37C95.7763 147.802 102.041 145.424 107.32 141.5L124.71 145.94L117.47 129.75C120.016 124.993 121.444 119.718 121.645 114.327C121.847 108.935 120.816 103.568 118.632 98.6349C116.447 93.7014 113.167 89.3309 109.04 85.8555C104.913 82.3802 100.048 79.8917 94.8146 78.579C89.5813 77.2664 84.1176 77.1642 78.8389 78.2803C73.5601 79.3964 68.6054 81.7014 64.3512 85.02C60.0971 88.3386 56.6557 92.5835 54.2885 97.4319C51.9213 102.28 50.6907 107.605 50.6904 113Z" fill="white"/>
    <path d="M50.6895 113C50.7236 119.55 52.5608 125.965 55.9995 131.54C56.8625 132.928 57.8075 134.264 58.8295 135.54C59.8933 136.775 61.0286 137.948 62.2295 139.05C62.8179 139.612 63.4354 140.143 64.0795 140.64L66.0795 142.1C66.7395 142.58 67.4695 142.95 68.1595 143.39L69.1595 144.01C69.5095 144.21 69.8895 144.37 70.2495 144.55L72.4595 145.55L74.7595 146.37C75.5207 146.657 76.3031 146.884 77.0995 147.05C77.8895 147.23 78.6695 147.49 79.4695 147.6C81.069 147.886 82.6861 148.063 84.3095 148.13C85.9288 148.237 87.554 148.213 89.1695 148.06C92.4023 147.758 95.5785 147.014 98.6095 145.85C101.629 144.668 104.475 143.084 107.07 141.14L107.2 141.04H107.37L124.78 145.4L124.27 146.01L117 129.9L116.9 129.69L117.02 129.48C119.524 124.784 120.929 119.581 121.13 114.263C121.331 108.946 120.323 103.651 118.18 98.7801C116.002 93.9199 112.787 89.5954 108.76 86.1101C104.693 82.6462 99.8863 80.1594 94.7095 78.8401C89.5194 77.5033 84.0944 77.3563 78.8395 78.4101C73.5836 79.5251 68.6432 81.8005 64.3795 85.0701C60.1317 88.385 56.6923 92.6215 54.3208 97.4598C51.9493 102.298 50.7076 107.612 50.6895 113ZM50.6895 113C50.6936 107.606 51.9225 102.282 54.2836 97.4321C56.6446 92.5818 60.0762 88.3309 64.3195 85.0001C68.5606 81.6229 73.5222 79.2673 78.8199 78.1159C84.1176 76.9644 89.6093 77.048 94.8695 78.3601C100.158 79.6415 105.083 82.1145 109.27 85.5901C113.461 89.0906 116.797 93.5021 119.024 98.4881C121.251 103.474 122.31 108.903 122.12 114.36C121.948 119.829 120.5 125.181 117.89 129.99V129.56L125.09 145.77L125.46 146.6L124.58 146.37L107.21 141.85L107.51 141.79C102.171 145.722 95.8393 148.084 89.2295 148.61C87.5921 148.74 85.947 148.74 84.3095 148.61C82.671 148.529 81.0403 148.332 79.4295 148.02C78.6095 147.9 77.8295 147.63 77.0395 147.44C76.2368 147.256 75.4482 147.016 74.6795 146.72L72.3795 145.86C71.6395 145.52 70.9095 145.15 70.1695 144.79C69.7995 144.6 69.4295 144.44 69.0695 144.24L68.0695 143.59C67.3895 143.15 66.6595 142.76 65.9995 142.27L63.9995 140.79C63.3531 140.289 62.7355 139.751 62.1495 139.18C60.9434 138.072 59.8079 136.89 58.7495 135.64C57.729 134.368 56.7904 133.032 55.9395 131.64C52.5056 126.029 50.6887 119.578 50.6895 113Z" fill="#263238"/>
    <path d="M81.4395 91.5698H89.7394L89.1795 122.17H81.9995L81.4395 91.5698Z" fill="#92E3A9"/>
    <path d="M89.18 126H82V133.18H89.18V126Z" fill="#92E3A9"/>
</svg>
