<svg width="187" height="61" viewBox="0 0 187 61" fill="none" xmlns="http://www.w3.org/2000/svg">
    <g clip-path="url(#clip0_225_916)">
        <path d="M93.5 60.7562C145.139 60.7562 187 47.1605 187 30.3894C187 13.6184 145.139 0.0227051 93.5 0.0227051C41.8614 0.0227051 0 13.6184 0 30.3894C0 47.1605 41.8614 60.7562 93.5 60.7562Z" fill="white"/>
        <path d="M114.017 33.1626H118.955L116.46 23.8828L114.017 33.1626ZM67.4558 23.6821H66.2019V37.1746H67.4406C68.151 37.2752 68.8753 37.1718 69.5291 36.8765C70.1829 36.5811 70.7392 36.1059 71.1332 35.5063C71.9309 33.9271 72.3466 32.1825 72.3466 30.4132C72.3466 28.6439 71.9309 26.8993 71.1332 25.3201C70.7393 24.7257 70.1841 24.256 69.5328 23.9659C68.8815 23.6758 68.161 23.5773 67.4558 23.6821ZM32.8289 23.2548C29.3414 23.2548 28.7285 28.0932 28.7285 30.4995C28.7285 32.9058 29.7925 37.4529 32.8289 37.4551C35.8654 37.4573 36.9401 32.8799 36.9423 30.5017C36.9444 28.1235 36.3164 23.2591 32.8289 23.2548Z" fill="#003874"/>
        <path d="M93.4976 0.0249023C41.8628 0.0249023 0.00195312 13.621 0.00195312 30.3873C0.00195312 47.1536 41.8692 60.7562 93.4976 60.7562C145.126 60.7562 187 47.1601 187 30.3873C187 13.6145 145.128 0.0249023 93.4976 0.0249023ZM32.816 41.7497C27.0387 41.7497 23.4282 36.976 23.4153 30.4974V30.4477C23.4153 23.6195 27.0064 19.0314 32.8332 19.0335C38.6601 19.0357 42.2404 23.6346 42.2361 30.4715C42.221 36.9588 38.6105 41.7497 32.816 41.7497ZM58.0658 41.4606H45.0309V19.4177H50.0722V37.1724H58.068L58.0658 41.4606ZM77.7693 30.4218V30.5643C77.8875 33.6307 76.8986 36.6373 74.9832 39.0349C72.9201 41.4088 70.7102 41.4627 67.9435 41.4606H60.893V19.4177H67.9586C70.7253 19.4177 72.9352 19.4284 74.9962 21.7916C76.916 24.2046 77.9013 27.2288 77.7715 30.3096L77.7693 30.4218ZM103.852 41.4606H98.7893L91.7798 28.8486V41.4562H86.7039V19.4177H91.7755L98.8023 32.1958V19.4177H103.861L103.852 41.4606ZM121.18 41.4606L120.027 37.1724H112.953L111.824 41.4606H106.677L112.601 19.4177H120.297L126.23 41.4606H121.18ZM137.419 41.4606H130.706L125.045 19.4177H130.639L134.068 34.7877L137.521 19.4177H143.108L137.419 41.4606ZM156.985 34.4316V41.4606H151.359V34.4294L144.774 19.4177H150.327L154.175 29.0536L158.038 19.4177H163.589L156.985 34.4316Z" fill="#003764"/>
    </g>
    <defs>
        <clipPath id="clip0_225_916">
            <rect width="187" height="60.7789" fill="white"/>
        </clipPath>
    </defs>
</svg>
