<svg width="187" height="128" viewBox="0 0 187 128" fill="none" xmlns="http://www.w3.org/2000/svg">
    <path d="M7.34229 54.2233V64.3926C9.55072 60.3681 15.6311 57.2859 21.7688 57.2859C28.6236 57.2859 32.9544 61.0552 31.5204 65.7472C30.3731 69.3399 26.1283 72.4221 21.1378 73.6393H35.7078V54.2233H7.34229Z" fill="#FF1F2C"/>
    <path d="M19.159 73.0503C23.4833 73.0503 26.9889 69.7806 26.9889 65.7472C26.9889 61.7139 23.4833 58.4442 19.159 58.4442C14.8347 58.4442 11.3291 61.7139 11.3291 65.7472C11.3291 69.7806 14.8347 73.0503 19.159 73.0503Z" fill="#FF1F2C"/>
    <path d="M176.618 70.6356H175.843V72.0294H175.556V70.5963H174.782V70.4393H176.532V70.6356H176.618ZM179.428 72.0491H179.141V70.6552L178.338 72.0491H178.138L177.335 70.6552V72.0491H177.048V70.4785H177.564L178.224 71.6564L178.883 70.4785H179.4L179.428 72.0491ZM57.9643 66.0614C57.9643 69.5166 55.0675 72.4221 49.6755 72.4221C44.2835 72.4221 41.3867 69.5166 41.3867 66.0614C41.3867 62.6061 44.2835 59.7006 49.6755 59.7006C55.0102 59.7202 57.9643 62.6061 57.9643 66.0614ZM43.4804 66.0614C43.4804 68.6135 45.5168 71.1853 49.6182 71.1853C53.7195 71.1853 55.7559 68.6331 55.7559 66.0614C55.7559 63.5092 53.7195 60.9374 49.6182 60.9374C45.5168 60.9571 43.4804 63.4896 43.4804 66.0614ZM57.5341 60.0736H59.9146L65.4501 70.616H65.5074L70.9281 60.0736H73.1079L66.5686 72.0491H64.2741L57.5341 60.0736ZM75.1156 66.454C75.1729 68.6135 76.7791 71.1853 80.8804 71.1853C84.0353 71.1853 85.6988 69.9092 86.4159 68.1227H88.5669C87.6491 70.8319 85.326 72.4221 80.9378 72.4221C75.3737 72.4221 73.0218 69.4773 73.0218 66.0614C73.0218 62.9006 75.345 59.7006 80.9378 59.7006C86.5593 59.7006 88.7964 63.0577 88.653 66.454H75.1156ZM86.5019 65.2172C86.4159 62.9988 84.4082 60.9374 80.9378 60.9374C77.4674 60.9374 75.5171 63.0184 75.1729 65.2172H86.5019ZM110.623 63.5681C110.537 61.7423 108.472 60.9178 106.034 60.9178C104.141 60.9178 101.875 61.4479 101.875 62.9791C101.875 64.2748 104.055 64.746 105.489 65.0012L108.357 65.4528C110.795 65.708 113.347 66.6896 113.347 68.7706C113.347 71.3816 109.59 72.3828 106.292 72.3828C102.19 72.3828 99.437 71.0871 99.0929 68.1423H101.244C101.445 70.1252 103.538 71.146 106.378 71.146C108.385 71.146 111.196 70.5178 111.196 68.8687C111.196 67.4748 109.303 67.0037 107.324 66.6896L104.571 66.2577C101.818 65.7276 99.6665 65.0798 99.6665 63.0577C99.6665 60.6037 103.137 59.7006 106.234 59.7006C109.705 59.7006 112.516 60.9767 112.659 63.5485L110.623 63.5681ZM118.625 60.0736H122.21V61.2712H118.625V69.3595C118.625 70.3018 118.825 70.8515 120.345 70.9301C120.976 70.9301 121.579 70.8908 122.21 70.8712V72.1472C121.55 72.1472 120.976 72.1865 120.317 72.1865C117.449 72.1865 116.445 71.5386 116.502 69.4773V61.2908H114.437V60.054H116.474V56.4614H118.625V60.0736ZM139.16 66.0614C139.16 69.5166 136.263 72.4221 130.871 72.4221C125.479 72.4221 122.583 69.5166 122.583 66.0614C122.583 62.6061 125.479 59.7006 130.871 59.7006C136.263 59.7202 139.16 62.6061 139.16 66.0614ZM124.734 66.0614C124.734 68.6135 126.77 71.1853 130.871 71.1853C134.973 71.1853 137.009 68.6331 137.009 66.0614C137.009 63.5092 134.973 60.9374 130.871 60.9374C126.77 60.9571 124.734 63.4896 124.734 66.0614ZM154.361 63.8233C153.787 62.0368 152.181 60.9571 149.399 60.9571C145.298 60.9571 143.262 63.5092 143.262 66.081C143.262 68.6331 145.298 71.2049 149.399 71.2049C152.067 71.2049 154.218 69.811 154.505 67.789H156.656C156.082 70.6552 153.329 72.4614 149.399 72.4614C144.007 72.4614 141.111 69.5558 141.111 66.1006C141.111 62.6454 144.007 59.7399 149.399 59.7399C153.128 59.7399 156.025 61.1141 156.512 63.8429L154.361 63.8233ZM158.893 55.4405H161.044V65.8454L170.767 60.0344H173.635L166.092 64.5104L174.094 72.0491H171.426L164.514 65.5313L161.044 67.5141V72.0883H158.893V55.4405ZM98.6626 59.9362C96.1961 60.1718 94.3605 61.2319 93.414 62.881H93.3567V60.0736H91.4064V72.0491H93.5574V65.6491C93.5574 63.4699 95.5938 61.7031 98.6913 61.3693L98.6626 59.9362Z" fill="black"/>
</svg>
