<svg width="26" height="26" viewBox="0 0 26 26" fill="none" xmlns="http://www.w3.org/2000/svg">
    <g clip-path="url(#clip0_271_10)">
        <mask id="mask0_271_10" style="mask-type:luminance" maskUnits="userSpaceOnUse" x="0" y="0" width="26" height="26">
            <path d="M26 0H0V26H26V0Z" fill="white"/>
        </mask>
        <g mask="url(#mask0_271_10)">
            <path d="M26.0877 14.0401C26.0877 14.032 26.0877 14.0238 26.0801 14.0238C26.0801 14.0076 26.0725 13.9994 26.0725 13.9831C26.0725 13.975 26.0649 13.9587 26.0649 13.9506C26.0649 13.9424 26.0573 13.9343 26.0573 13.9262C26.0421 13.8855 26.0269 13.8529 26.0041 13.8203L23.5866 10.0186C23.4801 9.84769 23.3053 9.75 23.1152 9.75H16.9877C16.7977 9.75 16.6228 9.84769 16.5164 10.0186L14.0988 13.8122C14.076 13.8448 14.0608 13.8855 14.0456 13.918C14.0456 13.9262 14.038 13.9343 14.038 13.9424C14.0304 13.9506 14.0304 13.9669 14.0304 13.975C14.0304 13.9913 14.0228 13.9994 14.0228 14.0157C14.0228 14.0238 14.0228 14.032 14.0152 14.032C14.0076 14.0727 14 14.1134 14 14.1541V23.3449C14 23.6787 14.2585 23.9554 14.5702 23.9554H25.5251C25.8368 23.9554 26.0953 23.6787 26.0953 23.3449V14.1622C26.0953 14.1134 26.0953 14.0727 26.0877 14.0401ZM17.2918 10.9711H22.8111L24.4456 13.5435H15.6497L17.2918 10.9711ZM24.955 22.7425H15.148V14.7728H24.9626V22.7425H24.955Z" fill="#0ABD19"/>
            <path d="M1.88516 25.8508H16.1164C17.0164 25.8508 17.7477 25.0586 17.7477 24.0836V4.11133C17.7477 3.13633 17.0164 2.34414 16.1164 2.34414H14.0211V0.72168C14.0211 0.409375 13.782 0.150391 13.4937 0.150391C13.2055 0.150391 12.9664 0.409375 12.9664 0.72168V2.34414H9.52812V0.72168C9.52812 0.409375 9.28906 0.150391 9.00078 0.150391C8.7125 0.150391 8.47344 0.409375 8.47344 0.72168V2.34414H5.03516V0.72168C5.03516 0.409375 4.79609 0.150391 4.50781 0.150391C4.21953 0.150391 3.98047 0.409375 3.98047 0.72168V2.34414H1.88516C0.985156 2.34414 0.253906 3.13633 0.253906 4.11133V24.076C0.253906 25.051 0.985156 25.8508 1.88516 25.8508ZM1.30859 4.11133C1.30859 3.76855 1.56875 3.48672 1.88516 3.48672H3.98047V5.12441C3.98047 5.43672 4.21953 5.6957 4.50781 5.6957C4.79609 5.6957 5.03516 5.43672 5.03516 5.12441V3.48672H8.47344V5.12441C8.47344 5.43672 8.7125 5.6957 9.00078 5.6957C9.28906 5.6957 9.52812 5.43672 9.52812 5.12441V3.48672H12.9664V5.12441C12.9664 5.43672 13.2055 5.6957 13.4937 5.6957C13.782 5.6957 14.0211 5.43672 14.0211 5.12441V3.48672H16.1164C16.4328 3.48672 16.693 3.76855 16.693 4.11133V24.076C16.693 24.4187 16.4328 24.7006 16.1164 24.7006H1.88516C1.56875 24.7006 1.30859 24.4187 1.30859 24.076V4.11133Z" fill="#0ABD19"/>
            <path d="M3.79063 10.2124C3.89609 10.3266 4.02969 10.3799 4.16328 10.3799C4.29688 10.3799 4.43047 10.3266 4.53594 10.2124L6.39922 8.1938C6.60313 7.9729 6.60313 7.60728 6.39922 7.38638C6.19531 7.16548 5.85781 7.16548 5.65391 7.38638L4.16328 9.00122L3.62188 8.4147C3.41797 8.1938 3.08047 8.1938 2.87656 8.4147C2.67266 8.6356 2.67266 9.00122 2.87656 9.22212L3.79063 10.2124Z" fill="#0ABD19"/>
            <path d="M7.74219 9.36719H14.7523C15.0406 9.36719 15.2797 9.1082 15.2797 8.7959C15.2797 8.48359 15.0406 8.22461 14.7523 8.22461H7.74219C7.45391 8.22461 7.21484 8.48359 7.21484 8.7959C7.21484 9.1082 7.45391 9.36719 7.74219 9.36719Z" fill="#0ABD19"/>
            <path d="M3.79063 15.5151C3.89609 15.6293 4.02969 15.6827 4.16328 15.6827C4.29688 15.6827 4.43047 15.6293 4.53594 15.5151L6.39922 13.4965C6.60313 13.2756 6.60313 12.91 6.39922 12.6891C6.19531 12.4682 5.85781 12.4682 5.65391 12.6891L4.16328 14.2963L3.62188 13.7098C3.41797 13.4889 3.08047 13.4889 2.87656 13.7098C2.67266 13.9307 2.67266 14.2963 2.87656 14.5172L3.79063 15.5151Z" fill="#0ABD19"/>
            <path d="M7.74219 14.668H14.7523C15.0406 14.668 15.2797 14.409 15.2797 14.0967C15.2797 13.7844 15.0406 13.5254 14.7523 13.5254H7.74219C7.45391 13.5254 7.21484 13.7844 7.21484 14.0967C7.21484 14.409 7.45391 14.668 7.74219 14.668Z" fill="#0ABD19"/>
            <path d="M3.79063 20.8081C3.89609 20.9223 4.02969 20.9756 4.16328 20.9756C4.29688 20.9756 4.43047 20.9223 4.53594 20.8081L6.39922 18.7895C6.60313 18.5686 6.60313 18.203 6.39922 17.9821C6.19531 17.7612 5.85781 17.7612 5.65391 17.9821L4.16328 19.5969L3.62188 19.0104C3.41797 18.7895 3.08047 18.7895 2.87656 19.0104C2.67266 19.2313 2.67266 19.5969 2.87656 19.8178L3.79063 20.8081Z" fill="#0ABD19"/>
            <path d="M7.74219 19.9707H14.7523C15.0406 19.9707 15.2797 19.7117 15.2797 19.3994C15.2797 19.0871 15.0406 18.8281 14.7523 18.8281H7.74219C7.45391 18.8281 7.21484 19.0871 7.21484 19.3994C7.21484 19.7117 7.45391 19.9707 7.74219 19.9707Z" fill="#0ABD19"/>
            <path d="M19.8727 16.7397L20.6465 17.3148L20.6188 14.3681L18.4384 14.3485L18.4641 17.3028L19.223 16.7376C19.4179 16.5917 19.6771 16.5891 19.8727 16.7397Z" fill="#0ABD19"/>
        </g>
    </g>
    <defs>
        <clipPath id="clip0_271_10">
            <rect width="26" height="26" fill="white"/>
        </clipPath>
    </defs>
</svg>
