<svg width="26" height="27" viewBox="0 0 26 27" fill="none" xmlns="http://www.w3.org/2000/svg">
    <path fill-rule="evenodd" clip-rule="evenodd" d="M25.7892 11.7382L20.5687 23.6226C20.0441 24.8161 18.7083 25.3327 17.584 24.7759L14.5184 23.2583C14.2951 23.1779 14.1323 22.9607 14.1323 22.6966C14.1323 22.3648 14.3856 22.0966 14.6976 22.0966C14.7943 22.0966 14.8808 22.129 14.9605 22.1746L14.9655 22.1644L18.0588 23.6952C18.6207 23.9736 19.2895 23.7156 19.5512 23.1185L24.7717 11.2342C25.034 10.6371 24.7903 9.92841 24.2284 9.64998L20.3511 7.73036C20.3511 7.73036 19.7683 7.51674 19.7683 7.05708C19.7683 6.72585 20.021 6.45702 20.3336 6.45702C20.4336 6.45702 20.5229 6.49242 20.6043 6.54042L24.7033 8.56925C25.8265 9.12612 26.3132 10.5447 25.7892 11.7382ZM15.8282 20.2022H2.26117C1.01244 20.2022 0 19.1274 0 17.8019V3.40027C0 2.07472 1.01244 1 2.26117 1H15.8282C17.0769 1 18.0894 2.07472 18.0894 3.40027V17.8019C18.0894 19.1274 17.0769 20.2022 15.8282 20.2022ZM9.60997 14.2015V13.6014L10.2646 13.3206C10.5924 13.041 11.4206 12.2123 11.4206 12.2123L11.4432 12.0947C11.6156 11.1879 11.8587 9.69378 11.8587 9.21193C11.8587 7.26771 10.991 6.40001 9.04411 6.40001C7.09724 6.40001 6.22952 7.26711 6.22952 9.21193C6.22952 9.73518 6.48447 11.2564 6.64501 12.0929L6.66762 12.2399C6.85247 12.4373 7.36858 12.9629 7.82873 13.3008L8.47938 13.6014V14.2015C8.47486 14.1529 8.47938 15.4016 8.47938 15.4016C8.47938 16.3719 7.85473 16.6522 6.99832 16.6522H6.99662C5.07576 16.732 4.77672 17.404 4.70945 17.4821C4.64896 17.5775 4.58282 18.7908 4.51782 19.002H13.5727C13.5088 18.7914 13.4455 17.5841 13.3765 17.4749C13.3499 17.4413 13.0978 16.7434 11.1363 16.6534C10.2352 16.6534 9.60997 16.3725 9.60997 15.4016C9.60997 15.4016 9.62014 14.1169 9.60997 14.2015ZM16.9588 3.40027C16.9588 2.7378 16.4523 2.20014 15.8282 2.20014H2.26117C1.63709 2.20014 1.13058 2.7378 1.13058 3.40027V17.8019C1.13058 18.4644 1.63709 19.002 2.26117 19.002H3.28152C3.47881 18.6156 3.58282 17.113 3.7852 16.7902C3.7852 16.7902 4.13737 15.5672 6.9107 15.4526C7.19334 15.4526 7.33467 15.2648 7.33467 14.9768C7.33467 14.7445 7.33467 14.5609 7.33467 14.5609C7.33467 14.5027 7.32562 14.4511 7.3228 14.3947C7.07633 14.1865 7.0181 14.1073 6.59074 13.7292C6.59074 13.7292 5.64444 13.0716 5.53873 12.3329C5.53873 12.3329 5.10063 10.0526 5.10063 9.21253C5.10063 7.14229 5.97118 5.20047 9.04581 5.20047C12.0786 5.20047 12.991 7.14169 12.991 9.21253C12.991 10.0322 12.5529 12.3329 12.5529 12.3329C12.4647 13.0326 11.5009 13.7292 11.5009 13.7292C11.1176 14.1067 10.9441 14.2657 10.7242 14.4181C10.7225 14.4667 10.714 14.5111 10.714 14.5609C10.714 14.5609 10.714 14.7451 10.714 14.9768C10.714 15.2642 10.8553 15.4526 11.138 15.4526C13.9531 15.581 14.3059 16.7902 14.3059 16.7902C14.5077 17.1124 14.6122 18.6156 14.8101 19.002H15.8299C16.454 19.002 16.9605 18.4644 16.9605 17.8019V3.40027H16.9588Z" fill="#0ABD19"/>
    <path d="M15 11H3V19H15V11Z" fill="white"/>
    <path d="M14 6H4V14H14V6Z" fill="white"/>
    <path d="M14.9925 8.92607C14.9925 8.91862 14.9925 8.91117 14.9849 8.91117C14.9849 8.89627 14.9774 8.88882 14.9774 8.87393C14.9774 8.86648 14.9698 8.85158 14.9698 8.84413C14.9698 8.83668 14.9623 8.82923 14.9623 8.82178C14.9472 8.78453 14.9321 8.75473 14.9095 8.72493L12.511 5.24585C12.4054 5.0894 12.2319 5 12.0434 5H5.96417C5.77561 5 5.60214 5.0894 5.49654 5.24585L3.09805 8.71748C3.07542 8.74728 3.06034 8.78453 3.04526 8.81433C3.04526 8.82178 3.03771 8.82923 3.03771 8.83668C3.03017 8.84413 3.03017 8.85903 3.03017 8.86648C3.03017 8.88138 3.02263 8.88883 3.02263 8.90373C3.02263 8.91118 3.02263 8.91862 3.01509 8.91862C3.00754 8.95587 3 8.99312 3 9.03037V17.4413C3 17.7467 3.25644 18 3.56568 18H14.4343C14.7436 18 15 17.7467 15 17.4413V9.03782C15 8.99312 15 8.95587 14.9925 8.92607ZM6.26587 6.11748H11.7417L13.3633 8.47163H4.63671L6.26587 6.11748ZM13.8686 16.89H4.13891V9.59656H13.8762V16.89H13.8686Z" fill="#0ABD19"/>
    <path d="M9.49995 12.3609L11.0606 13.4152V9.02637L7.00049 9.02645V13.4152L8.49995 12.3609C8.81415 12.1437 9.18459 12.1367 9.49995 12.3609Z" fill="#2D2D2D"/>
</svg>
