<svg width="300" height="57" viewBox="0 0 296 37" fill="none" xmlns="http://www.w3.org/2000/svg">
    <mask id="mask0_238_1738" style="mask-type:luminance" maskUnits="userSpaceOnUse" x="-4" y="0" width="300" height="43">
        <path d="M296 0H-4V42.5047H296V0Z" fill="white"/>
    </mask>
    <g mask="url(#mask0_238_1738)">
        <path d="M288.853 22.1253C288.776 22.0963 288.709 22.0438 288.664 21.9751C288.618 21.9065 288.594 21.8252 288.597 21.7427C288.6 21.6602 288.628 21.5806 288.678 21.5151C288.729 21.4495 288.798 21.4014 288.877 21.3774C289.626 21.1757 290.353 20.902 291.048 20.5602C292.102 20.0524 293.04 19.334 293.805 18.4493C294.542 17.575 295.101 16.5649 295.451 15.4759C295.831 14.2737 296.016 13.0184 296 11.7577C296.001 11.0343 295.941 10.312 295.822 9.59853C295.706 8.90923 295.527 8.23193 295.288 7.57513C295.048 6.91163 294.745 6.27243 294.384 5.66623C294 5.02686 293.562 4.42153 293.075 3.85687C292.547 3.24983 291.938 2.71815 291.266 2.2767C290.502 1.78174 289.687 1.37026 288.835 1.04936C287.872 0.685748 286.875 0.422008 285.859 0.262288C284.713 0.079238 283.554 -0.00952218 282.394 -0.00309218H266.713V41.5125H275.361V25.2555H280.488C282.37 25.2555 283.777 25.6988 284.71 26.5854C285.642 27.4719 286.113 28.8018 286.121 30.575V38.699C286.121 41.1356 286.89 41.5125 286.89 41.5125H295.611C295.611 41.5125 294.845 40.0379 294.845 35.3034V30.4634C294.852 29.4731 294.699 28.4882 294.39 27.5473C294.081 26.6257 293.618 25.7631 293.021 24.9961C292.387 24.1842 291.604 23.5014 290.714 22.9847C290.125 22.6428 289.506 22.3551 288.865 22.1253M285.34 17.1405C284.86 17.7016 284.248 18.133 283.558 18.395C282.76 18.6873 281.916 18.8285 281.067 18.8112H275.337V6.08843H280.901C281.808 6.06653 282.711 6.22433 283.558 6.55283C284.276 6.84663 284.902 7.33033 285.367 7.95203C285.839 8.58763 286.193 9.30253 286.413 10.0629C286.655 10.9039 286.772 11.7755 286.763 12.6503C286.774 13.5098 286.654 14.366 286.407 15.1894C286.187 15.9093 285.822 16.5771 285.337 17.1526" fill="black"/>
        <path d="M252.358 41.5127L250.492 32.5202H239.376L237.452 41.5248H228.071L239.66 0.012207H250.142L261.731 41.5248L252.358 41.5127ZM245.278 8.29605C245.262 8.20765 245.215 8.12765 245.147 8.06995C245.078 8.01235 244.991 7.98075 244.901 7.98075C244.811 7.98075 244.724 8.01235 244.655 8.06995C244.586 8.12765 244.54 8.20765 244.524 8.29605C244.222 9.96065 243.758 12.3248 243.393 14.095C242.766 17.1347 241.979 21.3927 241.029 25.2888H248.782C247.877 21.6701 247.099 17.5448 246.472 14.5051C246.098 12.6957 245.609 10.0873 245.266 8.29605" fill="black"/>
        <path d="M198.663 0V41.5126H223.659V34.7275H207.01V23.8533H221.777V16.7215H207.01V6.7851H223.258V0H198.663Z" fill="black"/>
        <path d="M178.817 0.000161691C181.033 -0.0453483 183.241 0.291292 185.343 0.995312C187.186 1.65874 188.574 2.56341 189.504 3.70934C190.375 4.75369 191.06 5.94003 191.528 7.21646C191.954 8.44796 192.166 9.74326 192.155 11.0463C192.185 13.022 191.541 14.949 190.331 16.5106C189.356 17.7771 187.966 18.7361 186.163 19.3874C186.087 19.4175 186.022 19.4702 185.977 19.5385C185.932 19.6067 185.91 19.6871 185.912 19.7688C185.914 19.8504 185.941 19.9294 185.99 19.995C186.039 20.0606 186.107 20.1095 186.184 20.1353C188.009 20.6101 189.645 21.6307 190.874 23.0604C192.335 24.7954 193.067 27.0269 193.069 29.755C193.079 31.1794 192.837 32.5944 192.354 33.9346C191.847 35.298 191.094 36.5563 190.132 37.6468C189.126 38.8169 187.71 39.7527 185.883 40.4543C183.819 41.196 181.637 41.5527 179.444 41.5068H164.366V0.000161691H178.817ZM172.717 6.13386V17.2373H177.276C181.04 17.2373 182.921 15.5878 182.921 11.6856C182.921 7.78336 181.04 6.13386 177.276 6.13386H172.717ZM172.717 23.2926V35.4274H177.961C180.015 35.4274 181.507 34.8051 182.436 33.5607C183.368 32.3183 183.832 31.0548 183.832 29.167C183.832 27.2792 183.359 26.079 182.406 24.9663C181.453 23.8535 180.032 23.2926 178.133 23.2926H172.717Z" fill="black"/>
        <path d="M4.65173 25.9009V41.5126H-4V0H11.7806C14.3639 0 16.6156 0.39001 18.5355 1.17005C20.4554 1.95008 21.928 2.98242 22.9533 4.26706C23.9383 5.47845 24.701 6.8547 25.206 8.3321C25.6814 9.7553 25.9218 11.2464 25.9177 12.7469C25.9708 16.1551 24.7281 19.4564 22.4407 21.9837C20.1207 24.5972 16.4537 25.9039 11.4398 25.9039L4.65173 25.9009ZM4.65173 20.4728H9.73C14.2896 20.4728 16.5693 17.7377 16.5693 13.1058C16.5693 8.4738 14.3468 6.0975 9.8989 6.0975H4.65173V20.4728Z" fill="black"/>
        <path d="M66.7065 0V41.5126H92.5713V33.853H75.7141V0H66.7065Z" fill="black"/>
        <path d="M98.584 0V41.5126H124.452V33.853H107.592V0H98.584Z" fill="black"/>
        <path d="M147.274 35.3789H142.715C138.951 35.3789 137.069 33.7294 137.069 29.8272C137.069 25.925 138.951 24.2755 142.715 24.2755H147.274V35.3789ZM155.621 18.2202V12.4544H147.274V18.2202H141.846C139.946 18.2202 138.521 17.6623 137.57 16.5465C136.62 15.4338 136.144 14.2336 136.144 12.3458C136.144 10.4581 136.611 9.19447 137.543 7.95207C138.475 6.70967 139.955 6.08547 142.018 6.08547H147.259V-2.97315e-05H140.534C138.341 -0.0456097 136.158 0.31109 134.093 1.05241C132.268 1.75404 130.852 2.68988 129.847 3.85993C128.885 4.95156 128.131 6.20957 127.621 7.57217C127.142 8.91297 126.901 10.3276 126.91 11.7518C126.91 14.4819 127.642 16.7134 129.105 18.4464C130.337 19.8752 131.976 20.8928 133.803 21.3624C133.881 21.3871 133.95 21.4353 133.999 21.5005C134.049 21.5657 134.077 21.6446 134.079 21.7263C134.082 21.8081 134.059 21.8886 134.014 21.9568C133.969 22.0251 133.904 22.0777 133.828 22.1073C132.018 22.7587 130.628 23.7176 129.657 24.9842C128.452 26.5477 127.814 28.4745 127.848 30.4484C127.837 31.7514 128.049 33.0467 128.475 34.2782C128.942 35.5562 129.627 36.7437 130.498 37.7884C131.427 38.9383 132.814 39.843 134.66 40.5024C136.762 41.207 138.969 41.5437 141.186 41.4975H155.633V24.2785H158.57V18.2202H155.621Z" fill="black"/>
        <path d="M51.2848 0V28.7657C51.2848 30.8706 50.8003 32.5171 49.8313 33.7053C48.8623 34.8934 47.4651 35.4875 45.6396 35.4875H45.0365C43.2111 35.4875 41.8149 34.8934 40.8479 33.7053C39.8809 32.5171 39.3953 30.8706 39.3913 28.7657V0H30.3325V28.3466C30.3325 32.7533 31.6392 36.2122 34.2528 38.7232C36.8663 41.2342 40.4578 42.4907 45.0275 42.4927H45.6306C50.2022 42.4927 53.7938 41.2362 56.4053 38.7232C59.0168 36.2102 60.3235 32.7513 60.3256 28.3466V0H51.2848Z" fill="black"/>
    </g>
</svg>
