<svg width="27" height="20" viewBox="0 0 27 20" fill="none" xmlns="http://www.w3.org/2000/svg">
    <g clip-path="url(#clip0_497_9808)">
        <path d="M16.9382 16.5422H3.28101C2.98845 16.5238 2.71508 16.392 2.52032 16.1753C2.32557 15.9586 2.22519 15.6746 2.24101 15.3851V6.62082H23.1855V7.47081C23.1855 7.63373 23.2509 7.78998 23.3674 7.90518C23.4839 8.02038 23.6418 8.0851 23.8066 8.0851C23.9713 8.0851 24.1293 8.02038 24.2458 7.90518C24.3622 7.78998 24.4277 7.63373 24.4277 7.47081V2.89224C24.4363 2.5883 24.3843 2.28564 24.2747 2.00158C24.165 1.71751 23.9998 1.45761 23.7885 1.23671C23.5773 1.01582 23.324 0.838266 23.0434 0.714203C22.7627 0.590139 22.46 0.521998 22.1527 0.513672H3.28101C2.65969 0.530503 2.07049 0.790373 1.64264 1.23628C1.2148 1.68218 0.983251 2.27772 0.998784 2.89224V15.3851C0.983227 16.0003 1.21455 16.5966 1.6422 17.0437C2.06985 17.4907 2.65904 17.7521 3.28101 17.7708H16.9382C17.103 17.7708 17.2609 17.7061 17.3774 17.5909C17.4939 17.4757 17.5593 17.3194 17.5593 17.1565C17.5593 16.9936 17.4939 16.8374 17.3774 16.7222C17.2609 16.607 17.103 16.5422 16.9382 16.5422ZM3.28101 1.74224H22.1671C22.4578 1.76064 22.7293 1.89178 22.9227 2.10713C23.1161 2.32248 23.2157 2.60464 23.1999 2.89224V5.39224H2.25545V2.89224C2.23956 2.60579 2.3382 2.32465 2.53007 2.1095C2.72194 1.89435 2.99166 1.76244 3.28101 1.74224Z" fill="#0ABD19"></path>
        <path d="M5.03713 12.9922C4.8724 12.9922 4.71442 13.0569 4.59793 13.1721C4.48145 13.2873 4.41602 13.4436 4.41602 13.6065C4.41602 13.7694 4.48145 13.9256 4.59793 14.0408C4.71442 14.156 4.8724 14.2208 5.03713 14.2208H7.92602C8.09074 14.2208 8.24873 14.156 8.36521 14.0408C8.48169 13.9256 8.54713 13.7694 8.54713 13.6065C8.54713 13.4436 8.48169 13.2873 8.36521 13.1721C8.24873 13.0569 8.09074 12.9922 7.92602 12.9922H5.03713Z" fill="#0ABD19"></path>
        <path d="M26.9988 10.4935C26.988 10.351 26.9273 10.2166 26.8271 10.1136C26.7269 10.0106 26.5935 9.94542 26.45 9.9292C23.3589 9.55777 22.3188 8.07206 22.2827 8.01492C22.2268 7.92893 22.1498 7.85832 22.0589 7.80962C21.968 7.76092 21.8661 7.73572 21.7627 7.73635C21.6601 7.73559 21.5589 7.75998 21.4682 7.80735C21.3775 7.85471 21.3 7.92357 21.2427 8.00777C21.2066 8.07206 20.1666 9.55777 17.0755 9.9292C16.9319 9.94542 16.7986 10.0106 16.6984 10.1136C16.5982 10.2166 16.5375 10.351 16.5266 10.4935C16.5266 10.7578 16.1655 16.9221 21.4955 19.4292C21.5807 19.4668 21.673 19.4863 21.7663 19.4863C21.8597 19.4863 21.952 19.4668 22.0372 19.4292C27.3527 16.8935 26.9988 10.7578 26.9988 10.4935ZM21.7483 18.1863C18.1805 16.3149 17.7761 12.4721 17.7472 11.0435C19.2271 10.8616 20.6194 10.2502 21.7483 9.28635C22.8748 10.2655 24.2698 10.8919 25.7566 11.0863C25.7277 12.4435 25.3161 16.3149 21.7483 18.1863Z" fill="#0ABD19"></path>
    </g>
    <defs>
        <clipPath id="clip0_497_9808">
            <rect width="26" height="20" fill="white" transform="translate(0.998047)"></rect>
        </clipPath>
    </defs>
</svg>