<svg width="27" height="24" viewBox="0 0 27 24" fill="none" xmlns="http://www.w3.org/2000/svg">
    <g clip-path="url(#clip0_497_9792)">
        <path d="M13.5431 21.5316H5.87307V10.7091H18.7142V12.0516C18.7142 12.2306 18.7827 12.4023 18.9046 12.5289C19.0265 12.6555 19.1918 12.7266 19.3642 12.7266C19.5366 12.7266 19.7019 12.6555 19.8238 12.5289C19.9457 12.4023 20.0142 12.2306 20.0142 12.0516V10.0341C20.0142 9.85509 19.9457 9.6834 19.8238 9.55682C19.7019 9.43023 19.5366 9.35911 19.3642 9.35911H5.22307C5.05068 9.35911 4.88535 9.43023 4.76345 9.55682C4.64155 9.6834 4.57307 9.85509 4.57307 10.0341V21.5616H3.3164C3.18212 21.5648 3.04865 21.5391 2.92437 21.4862C2.80008 21.4333 2.68767 21.3543 2.59418 21.2541C2.48648 21.1435 2.4015 21.0114 2.34439 20.8657C2.28729 20.7201 2.25925 20.5639 2.26196 20.4066V8.99911C2.25904 8.8123 2.29953 8.62751 2.37999 8.4604C2.46045 8.29329 2.57852 8.14878 2.72418 8.03911L11.5353 1.60411C11.696 1.48662 11.8877 1.42356 12.0842 1.42356C12.2807 1.42356 12.4724 1.48662 12.6331 1.60411L21.372 7.82911C21.522 7.94066 21.6437 8.08832 21.7267 8.25944C21.8098 8.43056 21.8516 8.62003 21.8486 8.81161V12.0591C21.8477 12.1474 21.8636 12.235 21.8955 12.3169C21.9273 12.3987 21.9745 12.4732 22.0343 12.536C22.0941 12.5987 22.1653 12.6486 22.2437 12.6826C22.3222 12.7166 22.4064 12.7341 22.4914 12.7341C22.5775 12.7383 22.6636 12.7239 22.7442 12.6921C22.8248 12.6602 22.8982 12.6114 22.9598 12.5488C23.0215 12.4862 23.07 12.4111 23.1025 12.3281C23.135 12.2451 23.1507 12.1561 23.1486 12.0666V8.81911C23.1502 8.41232 23.0563 8.01125 22.8751 7.65059C22.6939 7.28993 22.4308 6.98052 22.1086 6.74911L13.3625 0.486613C12.9852 0.21063 12.5349 0.0625 12.0733 0.0625C11.6118 0.0625 11.1615 0.21063 10.7842 0.486613L2.0164 6.92911C1.70085 7.16566 1.44395 7.47671 1.2669 7.83661C1.08984 8.19651 0.997701 8.59496 0.998068 8.99911V20.4141C0.996711 20.7501 1.05988 21.083 1.18389 21.3934C1.3079 21.7037 1.49025 21.9853 1.72029 22.2216C1.92999 22.442 2.17963 22.6171 2.45481 22.7368C2.72999 22.8565 3.02527 22.9185 3.32362 22.9191H5.25918H13.5503C13.7227 22.9191 13.888 22.848 14.0099 22.7214C14.1318 22.5948 14.2003 22.4231 14.2003 22.2441C14.2003 22.0651 14.1318 21.8934 14.0099 21.7668C13.888 21.6402 13.7227 21.5691 13.5503 21.5691L13.5431 21.5316Z" fill="#0ABD19"></path>
        <path d="M26.3466 17.8581H24.2738V13.8156C24.2738 13.6366 24.2053 13.4649 24.0834 13.3383C23.9615 13.2117 23.7962 13.1406 23.6238 13.1406H18.1782C18.0058 13.1406 17.8405 13.2117 17.7186 13.3383C17.5967 13.4649 17.5282 13.6366 17.5282 13.8156V17.8581H15.441C15.2686 17.8581 15.1033 17.9292 14.9814 18.0558C14.8595 18.1824 14.791 18.3541 14.791 18.5331V23.2506C14.791 23.4296 14.8595 23.6013 14.9814 23.7279C15.1033 23.8545 15.2686 23.9256 15.441 23.9256H26.3466C26.519 23.9256 26.6843 23.8545 26.8062 23.7279C26.9281 23.6013 26.9966 23.4296 26.9966 23.2506V18.5256C26.9947 18.3479 26.9253 18.1781 26.8037 18.0532C26.682 17.9282 26.5177 17.8581 26.3466 17.8581ZM18.8282 14.4906H22.9738V17.8581H18.8282V14.4906ZM16.1055 19.2081H20.251V22.5831H16.1055V19.2081ZM25.6966 22.5831H21.551V19.2081H25.6966V22.5831Z" fill="#0ABD19"></path>
    </g>
    <defs>
        <clipPath id="clip0_497_9792">
            <rect width="26" height="24" fill="white" transform="translate(0.998047)"></rect>
        </clipPath>
    </defs>
</svg>