<svg width="187" height="14" viewBox="0 0 187 14" fill="none" xmlns="http://www.w3.org/2000/svg">
    <g clip-path="url(#clip0_225_921)">
        <path d="M3.36985 6.25833V0.588417H5.13501C7.2746 0.588417 8.02346 1.97915 8.02346 3.31639C8.02346 5.13504 6.90017 6.31182 4.54662 6.31182H3.36985V6.25833ZM5.93736 6.57926C8.8258 6.36531 10.3235 5.13504 10.3235 3.36988C10.3235 1.7117 9.20023 0.213989 5.77689 0.213989H0V0.641907H1.23026V12.8376H0V13.2655H4.81407V12.8376H3.36985V6.63275H3.42334L8.45137 13.212H11.6608V12.7841H10.6979L5.93736 6.57926Z" fill="black"/>
        <path d="M19.0955 7.756L21.0746 2.24656H21.1281L23.0538 7.756H19.0955ZM22.5189 0.160461H21.2351L16.6885 12.8375H15.5117V13.2654H19.149V12.8375H17.2234L18.9351 8.02345H23.1607L24.8189 12.8375H23.3747V13.2654H27.7609V12.8375H26.9585L22.5189 0.160461Z" fill="black"/>
        <path d="M39.2083 12.7841H36.2663V0.641907H38.2455V0.213989H32.8965V0.641907H34.1267V12.8376H32.8965V13.2655H42.5246V8.02349H42.0967C40.9199 12.5701 40.5455 12.7841 39.2083 12.7841Z" fill="black"/>
        <path d="M52.1523 0.802376H54.1849C56.271 0.802376 57.1268 1.97915 57.1268 3.7978C57.1268 6.09786 56.164 6.63275 54.0244 6.63275H52.1523C52.1523 6.52577 52.1523 0.802376 52.1523 0.802376ZM54.0244 12.8376H52.1523V6.9002H54.5593C57.8222 6.9002 59.3734 5.56296 59.3734 3.63733C59.3734 1.7117 57.6617 0.213989 54.5593 0.213989H48.8359V0.641907H50.0662V12.7841H48.8359V13.212H53.9709V12.8376H54.0244Z" fill="black"/>
        <path d="M72.1045 12.7841V13.2655H76.7581V12.7841H75.5278V0.748886H76.7581V0.213989H72.1045V0.748886H73.3347V6.31182H68.1462V0.748886H69.43V0.213989H64.7764V0.748886H65.9531V12.7841H64.7764V13.2655H69.43V12.7841H68.1462V6.68624H73.3347V12.7841H72.1045Z" fill="black"/>
        <path d="M104.412 7.97H103.984C102.754 12.5166 102.38 12.7841 101.096 12.7841H98.154V0.641907H100.133V0.213989H94.7842V0.641907H96.0144V12.8376H94.7842V13.2655H104.412V7.97Z" fill="black"/>
        <path d="M112.756 7.756L114.735 2.24656H114.789L116.714 7.756H112.756ZM116.233 0.160461H114.949L110.349 12.8375H109.226V13.2654H112.863V12.8375H110.937L112.649 8.02345H116.875L118.533 12.8375H117.089V13.2654H121.475V12.8375H120.726L116.233 0.160461Z" fill="black"/>
        <path d="M133.778 0.588364H135.543V9.89557C135.543 11.8747 134.206 13.0515 132.28 13.0515C130.996 13.0515 129.659 12.3026 129.659 10.0026V0.588364H131.05V0.0534668H126.289V0.481384H127.519V9.52114C127.519 12.0886 128.964 13.3724 132.226 13.3724C134.58 13.3724 136.131 11.9817 136.131 9.84208V0.588364H137.361V0.0534668H133.778V0.588364Z" fill="black"/>
        <path d="M146.187 6.25833V0.588417H147.953C150.092 0.588417 150.841 1.97915 150.841 3.31639C150.841 5.13504 149.718 6.31182 147.364 6.31182H146.187V6.25833ZM148.808 6.57926C151.697 6.36531 153.195 5.13504 153.195 3.36988C153.195 1.7117 152.071 0.213989 148.648 0.213989H142.871V0.641907H144.101V12.8376H142.871V13.2655H147.685V12.8376H146.134V6.63275H146.187L151.215 13.212H154.425V12.7841H153.516L148.808 6.57926Z" fill="black"/>
        <path d="M166.032 12.7841H162.555V6.63275H164.107C165.123 6.63275 165.551 7.22114 165.979 9.20026H166.407V3.58384H165.979C165.604 5.61645 165.069 6.15135 164.107 6.15135H162.555V0.588417H166.514C167.476 0.588417 167.797 0.855866 168.867 4.3327H169.295V0.213989H159.186V0.641907H160.416V12.8376H159.186V13.2655H169.509V8.39791H169.028C167.851 12.2492 167.423 12.7841 166.032 12.7841Z" fill="black"/>
        <path d="M183.577 0.213989V0.748886H185.181V9.62818H185.128L179.244 0.213989H175.446V0.748886H176.784V12.7841H175.446V13.2655H178.977V12.7841H177.318V1.06982L185.074 13.2655H185.663V0.748886H187V0.213989H183.577Z" fill="black"/>
    </g>
    <defs>
        <clipPath id="clip0_225_921">
            <rect width="187" height="13.4794" fill="white"/>
        </clipPath>
    </defs>
</svg>
