<svg width="26" height="24" viewBox="0 0 26 24" fill="none" xmlns="http://www.w3.org/2000/svg">
    <g clip-path="url(#clip0_397_572)">
        <path d="M25.1847 18.4247L25.0569 18.2969C25.381 17.9034 25.5585 17.4097 25.5593 16.9V2.20339C25.5593 1.61901 25.3272 1.05857 24.914 0.645358C24.5007 0.232142 23.9403 0 23.3559 0H2.20339C1.61901 0 1.05857 0.232142 0.645358 0.645358C0.232142 1.05857 0 1.61901 0 2.20339V16.9C0 17.4844 0.232142 18.0448 0.645358 18.458C1.05857 18.8712 1.61901 19.1034 2.20339 19.1034H8.54475L7.11695 22.9153H4.8783C4.76143 22.9153 4.64934 22.9617 4.5667 23.0443C4.48406 23.127 4.43763 23.2391 4.43763 23.3559C4.43763 23.4728 4.48406 23.5849 4.5667 23.6675C4.64934 23.7502 4.76143 23.7966 4.8783 23.7966H20.681C20.7979 23.7966 20.91 23.7502 20.9926 23.6675C21.0753 23.5849 21.1217 23.4728 21.1217 23.3559C21.1217 23.2391 21.0753 23.127 20.9926 23.0443C20.91 22.9617 20.7979 22.9153 20.681 22.9153H18.4424L17.0146 19.1034H17.5875L18.0678 20.9586C18.0907 21.0429 18.1381 21.1185 18.204 21.1757C18.2699 21.233 18.3513 21.2694 18.438 21.2803C18.5246 21.2921 18.6127 21.2778 18.6911 21.2394C18.7696 21.2009 18.8349 21.14 18.8786 21.0644L20.3241 18.5834L22.6685 20.9322C22.9148 21.1842 23.231 21.3565 23.5762 21.4271C23.9214 21.4976 24.2799 21.463 24.6053 21.3278C24.9306 21.1926 25.2081 20.963 25.4017 20.6687C25.5953 20.3743 25.6963 20.0286 25.6915 19.6763C25.6934 19.4446 25.6497 19.2148 25.5627 19.0001C25.4758 18.7853 25.3473 18.5898 25.1847 18.4247ZM22.8359 16.0803L24.678 15.0095V16.9C24.677 17.1764 24.5874 17.4451 24.4224 17.6668L22.8359 16.0803ZM10.9112 22.9153L11.7925 21.1525H13.7668L14.6481 22.9153H10.9112ZM17.5214 22.9153H15.6353L14.4322 20.5136C14.3956 20.4409 14.3396 20.3798 14.2703 20.337C14.2011 20.2942 14.1214 20.2714 14.04 20.2712H11.5193C11.4379 20.2714 11.3582 20.2942 11.289 20.337C11.2198 20.3798 11.1637 20.4409 11.1271 20.5136L9.92407 22.9153H8.05559L9.4878 19.1034H16.0715L17.5214 22.9153ZM2.20339 18.222C1.85276 18.222 1.5165 18.0827 1.26857 17.8348C1.02064 17.5869 0.881356 17.2506 0.881356 16.9V2.20339C0.881356 1.85276 1.02064 1.5165 1.26857 1.26857C1.5165 1.02064 1.85276 0.881356 2.20339 0.881356H23.3559C23.7066 0.881356 24.0428 1.02064 24.2908 1.26857C24.5387 1.5165 24.678 1.85276 24.678 2.20339V13.6875L18.5658 12.0525L17.7329 7.88373C17.6553 7.52302 17.4563 7.19982 17.1692 6.96806C16.8821 6.7363 16.5242 6.60998 16.1553 6.61017H15.8644V6.03729C15.8644 5.21916 15.5394 4.43455 14.9609 3.85604C14.3824 3.27754 13.5978 2.95254 12.7797 2.95254C11.9615 2.95254 11.1769 3.27754 10.5984 3.85604C10.0199 4.43455 9.69492 5.21916 9.69492 6.03729V6.61017H9.39525C9.02383 6.61083 8.66401 6.73966 8.37657 6.9749C8.08914 7.21015 7.89171 7.53739 7.81763 7.90136L6.56169 14.2163C6.51478 14.4494 6.52015 14.6901 6.57743 14.9209C6.6347 15.1517 6.74245 15.367 6.89291 15.5512C7.04338 15.7354 7.23281 15.8839 7.44758 15.9861C7.66234 16.0882 7.89709 16.1415 8.13492 16.142H16.7942L17.3495 18.222H2.20339ZM15.6749 11.96L16.5563 15.2607H8.13492C8.02616 15.2613 7.91865 15.2375 7.82042 15.1908C7.72218 15.1441 7.63574 15.0759 7.56754 14.9912C7.49934 14.9064 7.45114 14.8074 7.42653 14.7015C7.40193 14.5956 7.40155 14.4854 7.42542 14.3793L8.69017 8.04678C8.73039 7.88797 8.82245 7.74712 8.95176 7.64655C9.08107 7.54597 9.24025 7.49142 9.40407 7.49153H9.69492V8.52712C9.69492 8.64399 9.74134 8.75608 9.82399 8.83873C9.90663 8.92137 10.0187 8.9678 10.1356 8.9678C10.2525 8.9678 10.3646 8.92137 10.4472 8.83873C10.5298 8.75608 10.5763 8.64399 10.5763 8.52712V7.49153H14.9831V8.52712C14.9831 8.64399 15.0295 8.75608 15.1121 8.83873C15.1948 8.92137 15.3069 8.9678 15.4237 8.9678C15.5406 8.9678 15.6527 8.92137 15.7353 8.83873C15.818 8.75608 15.8644 8.64399 15.8644 8.52712V7.49153H16.1641C16.3321 7.49304 16.4945 7.55201 16.6244 7.65863C16.7543 7.76525 16.8438 7.91311 16.878 8.07763L17.6271 11.7969L16.2258 11.4224C16.1488 11.3995 16.0671 11.3981 15.9895 11.4183C15.9118 11.4385 15.8411 11.4795 15.7851 11.5369C15.7315 11.5918 15.6932 11.6597 15.6738 11.7339C15.6545 11.808 15.6549 11.886 15.6749 11.96ZM14.9831 6.61017H10.5763V6.03729C10.5763 5.45291 10.8084 4.89247 11.2216 4.47926C11.6348 4.06604 12.1953 3.8339 12.7797 3.8339C13.364 3.8339 13.9245 4.06604 14.3377 4.47926C14.7509 4.89247 14.9831 5.45291 14.9831 6.03729V6.61017ZM24.559 20.3064C24.3895 20.4673 24.1647 20.557 23.931 20.557C23.6973 20.557 23.4726 20.4673 23.3031 20.3064L20.5488 17.5566C20.5012 17.5089 20.4434 17.4728 20.3796 17.451C20.3159 17.4292 20.2481 17.4223 20.1812 17.4308C20.1144 17.4393 20.0505 17.463 19.9942 17.5001C19.938 17.5372 19.8911 17.5867 19.857 17.6447L18.6583 19.7071L16.7458 12.4712L23.9817 14.4058L21.9193 15.6044C21.8612 15.638 21.8115 15.6845 21.7741 15.7403C21.7367 15.796 21.7125 15.8596 21.7034 15.9261C21.6947 15.9935 21.7017 16.0619 21.7239 16.1262C21.7461 16.1904 21.7828 16.2486 21.8312 16.2963L24.581 19.0461C24.665 19.1282 24.7317 19.2262 24.7772 19.3344C24.8227 19.4426 24.8462 19.5589 24.8462 19.6763C24.8462 19.7937 24.8227 19.9099 24.7772 20.0181C24.7317 20.1263 24.665 20.2244 24.581 20.3064H24.559Z" fill="#0ABD19"/>
    </g>
    <defs>
        <clipPath id="clip0_397_572">
            <rect width="26" height="24" fill="white"/>
        </clipPath>
    </defs>
</svg>
