<svg width="500" height="500" viewBox="0 0 500 500" fill="none" xmlns="http://www.w3.org/2000/svg">
    <path d="M101.17 344.29C101.17 344.29 141.58 395.46 210.64 397.54C279.7 399.62 341.46 356.54 392.41 323.02C443.36 289.5 460.08 233.34 434.64 187.02C409.2 140.7 363.04 156.57 307.64 124.02C252.24 91.4702 242.31 74.4002 178 77.3202C113.69 80.2402 60.5401 148.92 62.8801 225.86C65.2201 302.8 101.17 344.29 101.17 344.29Z" fill="#92E3A9"/>
    <path opacity="0.7" d="M101.17 344.29C101.17 344.29 141.58 395.46 210.64 397.54C279.7 399.62 341.46 356.54 392.41 323.02C443.36 289.5 460.08 233.34 434.64 187.02C409.2 140.7 363.04 156.57 307.64 124.02C252.24 91.4702 242.31 74.4002 178 77.3202C113.69 80.2402 60.5401 148.92 62.8801 225.86C65.2201 302.8 101.17 344.29 101.17 344.29Z" fill="white"/>
    <path d="M113.73 91.0803C113.67 91.0803 114.43 87.3503 114.5 87.0803C115.36 84.4103 118.6 79.7703 121.73 79.7803C122.251 79.795 122.764 79.9195 123.234 80.1456C123.704 80.3717 124.121 80.6945 124.458 81.0927C124.795 81.4909 125.044 81.9557 125.189 82.4567C125.334 82.9577 125.372 83.4837 125.3 84.0003C125.07 86.2003 123.09 88.0803 121.3 89.1603C119.2 90.4703 113.73 91.0803 113.73 91.0803Z" fill="#92E3A9"/>
    <path d="M107.66 66.0001C110.66 67.0601 112.08 72.5201 111.98 75.3201C111.98 75.5601 111.42 79.3201 111.37 79.3201H111.31C111.54 80.1801 111.79 81.1101 112.04 82.1301C112.48 84.0101 112.96 86.1301 113.33 88.4901C113.759 91.0182 114.04 93.5692 114.17 96.1301C114.33 98.9997 114.233 101.878 113.88 104.73C113.876 104.763 113.876 104.797 113.88 104.83C114.27 104 115.43 101.7 115.53 101.54C117.07 99.2001 121.41 95.5401 124.44 96.4101C124.938 96.5619 125.398 96.8168 125.79 97.1582C126.182 97.4997 126.498 97.9201 126.717 98.3919C126.936 98.8637 127.053 99.3763 127.06 99.8964C127.068 100.416 126.966 100.932 126.76 101.41C125.96 103.47 123.56 104.76 121.55 105.33C119.28 105.98 114.22 105.22 113.82 105.15C113.393 108.045 112.771 110.908 111.96 113.72C111.494 115.36 110.987 116.997 110.44 118.63C110.79 117.92 111.12 117.29 111.17 117.21C112.71 114.86 117.06 111.21 120.08 112.08C120.578 112.232 121.038 112.487 121.43 112.828C121.822 113.17 122.138 113.59 122.357 114.062C122.576 114.534 122.693 115.046 122.7 115.566C122.708 116.086 122.606 116.602 122.4 117.08C121.6 119.14 119.2 120.43 117.19 121C115.18 121.57 110.82 121 109.68 120.85L109.05 122.73C108.05 125.73 106.96 128.73 106.05 131.67C105.72 132.67 105.43 133.75 105.14 134.79C105.46 134.16 105.73 133.63 105.78 133.55C107.31 131.21 111.66 127.55 114.68 128.42C115.177 128.573 115.636 128.829 116.027 129.171C116.419 129.512 116.735 129.932 116.954 130.403C117.174 130.874 117.292 131.386 117.302 131.906C117.312 132.425 117.212 132.941 117.01 133.42C116.21 135.49 113.8 136.77 111.79 137.35C109.78 137.93 105.85 137.42 104.49 137.23C104.22 138.3 103.96 139.37 103.75 140.42C103.62 141.15 103.45 141.83 103.36 142.56L103.06 144.71C102.92 146.08 102.76 147.49 102.66 148.83C102.58 149.76 102.52 150.65 102.46 151.55C102.78 150.55 103.46 148.48 103.46 148.32C104.568 146.12 106.22 144.24 108.26 142.86C108.369 142.605 108.506 142.364 108.67 142.14C108.953 141.703 109.325 141.331 109.762 141.048C110.199 140.764 110.691 140.577 111.205 140.496C111.719 140.416 112.245 140.445 112.747 140.582C113.25 140.719 113.717 140.96 114.12 141.29C116.5 143.34 115.9 148.96 114.81 151.54C114.75 151.69 113.86 153.26 113.29 154.25C113.72 153.72 114.12 153.2 114.57 152.67C115.44 151.6 116.34 150.56 117.3 149.44L118.77 147.85C119.25 147.31 119.83 146.85 120.36 146.26C121.61 145.05 122.94 143.88 124.31 142.73C123.38 141.97 120.1 139.21 119.16 137.33C118.22 135.45 117.55 132.82 118.53 130.83C118.746 130.356 119.059 129.932 119.448 129.586C119.838 129.24 120.297 128.98 120.793 128.822C121.29 128.665 121.815 128.613 122.333 128.672C122.851 128.73 123.351 128.896 123.8 129.16C126.45 130.83 126.72 136.48 126.03 139.16C126.03 139.33 125.27 141.22 124.86 142.25C125.69 141.57 126.51 140.89 127.37 140.25C129.85 138.34 132.42 136.47 134.97 134.6L137.3 132.88C136.97 132.61 133.01 129.41 131.95 127.3C131.02 125.43 130.34 122.79 131.32 120.81C131.534 120.334 131.847 119.909 132.236 119.563C132.626 119.216 133.085 118.955 133.582 118.797C134.079 118.64 134.604 118.589 135.123 118.648C135.641 118.707 136.141 118.875 136.59 119.14C139.25 120.8 139.51 126.45 138.82 129.14C138.77 129.34 137.74 132.06 137.45 132.74C139.15 131.47 140.84 130.19 142.45 128.85C144.641 127.064 146.712 125.137 148.65 123.08C148.5 122.95 144.35 119.63 143.27 117.48C142.33 115.61 141.66 112.96 142.64 110.98C142.855 110.506 143.166 110.082 143.555 109.736C143.944 109.39 144.402 109.13 144.898 108.973C145.394 108.815 145.918 108.764 146.435 108.822C146.952 108.88 147.451 109.046 147.9 109.31C150.56 110.98 150.83 116.63 150.14 119.31C150.14 119.49 149.31 121.56 148.92 122.54L149.07 122.64C150.965 120.514 152.668 118.225 154.16 115.8C155 114.47 155.72 113.16 156.4 111.87C155.56 111.33 151.77 108.82 150.58 106.99C149.39 105.16 148.49 102.68 149.24 100.6C149.401 100.104 149.664 99.6479 150.013 99.2607C150.362 98.8735 150.789 98.5641 151.265 98.3528C151.742 98.1414 152.257 98.0329 152.778 98.0341C153.3 98.0354 153.815 98.1465 154.29 98.3601C157.12 99.7301 158 105.36 157.61 108.09C157.61 108.24 157.21 109.75 156.92 110.84C157.21 110.25 157.53 109.65 157.8 109.08C158.8 106.95 159.65 104.93 160.35 103.08C160.75 102.08 161.08 101.13 161.35 100.25C160.8 99.2501 158.66 95.4101 158.45 93.2501C158.24 91.0901 158.58 88.4701 160.21 86.9701C160.581 86.6049 161.025 86.3219 161.513 86.1394C162.001 85.957 162.521 85.8793 163.041 85.9114C163.561 85.9435 164.068 86.0846 164.529 86.3256C164.991 86.5666 165.397 86.902 165.72 87.3101C167.6 89.8201 165.81 95.1901 164.19 97.4701C164.05 97.6701 161.5 100.47 161.47 100.47V100.41C161.19 101.26 160.89 102.17 160.53 103.15C159.87 104.97 159.1 107.01 158.11 109.15C157.064 111.492 155.885 113.772 154.58 115.98C153.124 118.457 151.451 120.799 149.58 122.98L149.51 123.06C150.29 122.58 152.51 121.3 152.7 121.22C155.28 120.12 160.9 119.5 162.96 121.86C163.292 122.262 163.535 122.729 163.674 123.231C163.813 123.732 163.845 124.258 163.768 124.773C163.691 125.288 163.506 125.781 163.225 126.22C162.945 126.659 162.575 127.034 162.14 127.32C160.33 128.6 157.62 128.32 155.62 127.72C153.37 127 149.62 123.58 149.28 123.3C147.327 125.479 145.229 127.524 143 129.42C141.71 130.53 140.37 131.61 139 132.68C139.69 132.28 140.31 131.93 140.4 131.89C142.97 130.79 148.59 130.17 150.65 132.53C150.983 132.931 151.228 133.398 151.368 133.9C151.508 134.402 151.54 134.928 151.463 135.444C151.386 135.959 151.2 136.453 150.919 136.891C150.637 137.33 150.266 137.705 149.83 137.99C148.03 139.27 145.31 138.99 143.32 138.39C141.33 137.79 138 134.89 137.14 134.12C136.61 134.52 136.14 134.93 135.57 135.34C133.06 137.26 130.57 139.17 128.12 141.13C127.27 141.81 126.46 142.52 125.64 143.23L126.86 142.55C129.43 141.45 135.05 140.82 137.11 143.18C137.442 143.583 137.685 144.05 137.825 144.553C137.964 145.056 137.996 145.582 137.919 146.098C137.841 146.614 137.656 147.107 137.376 147.547C137.095 147.987 136.725 148.363 136.29 148.65C134.49 149.93 131.77 149.65 129.78 149.04C127.79 148.43 124.78 145.82 123.78 144.91C122.97 145.66 122.15 146.41 121.4 147.17C120.89 147.7 120.4 148.17 119.9 148.74L118.46 150.36C117.59 151.43 116.68 152.52 115.85 153.58C115.27 154.31 114.73 155.02 114.19 155.74C115.02 155.04 116.7 153.74 116.85 153.62C119.22 152.14 124.69 150.62 127.08 152.7C127.468 153.048 127.777 153.474 127.989 153.949C128.201 154.425 128.311 154.939 128.311 155.46C128.311 155.981 128.201 156.496 127.989 156.971C127.777 157.447 127.468 157.872 127.08 158.22C125.48 159.76 122.76 159.92 120.7 159.6C118.42 159.24 114.3 156.6 113.79 156.22C112.89 157.41 112.03 158.56 111.23 159.67C108.46 163.5 106.3 166.8 104.82 169.12L104.67 169.36L102.75 168.43L103.05 167.97C104.6 165.65 106.86 162.37 109.74 158.57C110.65 157.36 111.64 156.09 112.67 154.8C111.599 153.63 110.597 152.398 109.67 151.11C107.46 151.98 102.88 152.01 102.28 152.01C102.19 153.49 102.11 154.94 102.05 156.3C101.85 161.02 101.87 164.96 101.92 167.72V168.04L99.8107 167.04C99.8107 164.3 99.9207 160.6 100.2 156.22C100.29 154.72 100.42 153.11 100.57 151.46C99.9807 151.31 95.2107 150.09 93.4107 148.65C91.7807 147.34 90.0607 145.23 90.1207 143.01C90.1167 142.489 90.2224 141.974 90.4309 141.496C90.6394 141.019 90.9461 140.591 91.3309 140.24C91.7158 139.889 92.1702 139.623 92.6647 139.46C93.1591 139.296 93.6825 139.238 94.2007 139.29C97.3107 139.69 99.9207 144.71 100.43 147.46C100.43 147.63 100.59 149.46 100.65 150.56C100.72 149.89 100.77 149.23 100.85 148.56C100.98 147.19 101.16 145.83 101.35 144.36C101.46 143.65 101.58 142.94 101.69 142.22C101.8 141.5 101.99 140.76 102.14 140.02C102.52 138.32 102.98 136.61 103.49 134.9C102.29 134.78 98.0407 134.28 96.2207 133.23C94.4007 132.18 92.3807 130.36 92.1107 128.16C92.0271 127.646 92.0529 127.119 92.1864 126.615C92.3199 126.111 92.5581 125.641 92.8855 125.235C93.2129 124.83 93.6221 124.497 94.0865 124.26C94.5509 124.024 95.06 123.887 95.5807 123.86C98.7107 123.79 102.05 128.35 102.97 131C103.03 131.16 103.48 133.13 103.71 134.22C104.02 133.22 104.32 132.17 104.71 131.14C105.71 128.14 106.84 125.21 107.94 122.24C108.28 121.33 108.6 120.42 108.94 119.51C108.51 119.51 103.44 118.98 101.4 117.81C99.5907 116.81 97.5707 114.94 97.2907 112.74C97.2087 112.226 97.2356 111.7 97.3698 111.197C97.5039 110.693 97.7422 110.224 98.0693 109.818C98.3965 109.413 98.805 109.081 99.2687 108.843C99.7323 108.606 100.24 108.469 100.76 108.44C103.9 108.37 107.24 112.93 108.16 115.58C108.23 115.78 108.87 118.58 109 119.34C109.72 117.34 110.43 115.34 111 113.34C111.846 110.64 112.514 107.887 113 105.1C112.8 105.1 107.51 104.6 105.42 103.4C103.6 102.4 101.58 100.53 101.31 98.3301C101.226 97.8161 101.252 97.2901 101.386 96.7867C101.519 96.2833 101.758 95.8137 102.085 95.4088C102.413 95.0038 102.822 94.6726 103.287 94.4367C103.751 94.2009 104.26 94.0657 104.78 94.0401C107.91 93.9601 111.25 98.5201 112.17 101.17C112.23 101.34 112.73 103.5 112.94 104.54H113.11C113.523 101.723 113.684 98.8754 113.59 96.0301C113.59 94.4601 113.44 92.9701 113.29 91.5201C112.29 91.5201 107.75 91.5201 105.75 90.6501C103.75 89.7801 101.62 88.2201 101.1 86.0701C100.961 85.5665 100.931 85.0392 101.01 84.5229C101.089 84.0065 101.276 83.5127 101.559 83.0737C101.843 82.6348 102.215 82.2606 102.653 81.9756C103.091 81.6906 103.584 81.5013 104.1 81.4201C107.21 80.9901 111.03 85.1701 112.24 87.6901C112.3 87.8301 112.82 89.3001 113.17 90.3801C113.1 89.7201 113.03 89.0401 112.94 88.3801C112.63 86.0301 112.19 83.9001 111.79 82.0101C111.55 80.9401 111.32 80.0101 111.09 79.0801C110.09 78.5801 106.17 76.5201 104.83 74.8601C103.49 73.2001 102.29 70.7901 102.83 68.6501C102.95 68.1448 103.174 67.6701 103.488 67.2569C103.803 66.8437 104.201 66.5011 104.656 66.2513C105.111 66.0015 105.614 65.8501 106.131 65.8068C106.649 65.7636 107.17 65.8294 107.66 66.0001Z" fill="#92E3A9"/>
    <path d="M164.34 114.29C161.89 114.19 156.99 111.68 156.99 111.68C156.99 111.68 159.62 108.95 159.81 108.8C162 107.06 167.26 104.97 169.87 106.71C170.296 107.009 170.655 107.395 170.922 107.842C171.19 108.289 171.36 108.788 171.421 109.305C171.482 109.822 171.434 110.347 171.279 110.844C171.123 111.341 170.865 111.8 170.52 112.19C169.12 113.9 166.43 114.38 164.34 114.29Z" fill="#92E3A9"/>
    <g opacity="0.5">
        <path d="M113.731 91.0803C113.671 91.0803 114.431 87.3503 114.501 87.0803C115.361 84.4103 118.601 79.7703 121.731 79.7803C122.252 79.795 122.765 79.9195 123.235 80.1456C123.705 80.3717 124.122 80.6945 124.459 81.0927C124.796 81.4909 125.045 81.9557 125.19 82.4567C125.335 82.9577 125.373 83.4837 125.301 84.0003C125.071 86.2003 123.091 88.0803 121.301 89.1603C119.201 90.4703 113.731 91.0803 113.731 91.0803Z" fill="white"/>
        <path d="M107.66 66.0001C110.66 67.0601 112.08 72.5201 111.98 75.3201C111.98 75.5601 111.42 79.3201 111.37 79.3201H111.31C111.54 80.1801 111.79 81.1101 112.04 82.1301C112.48 84.0101 112.96 86.1301 113.33 88.4901C113.759 91.0182 114.04 93.5692 114.17 96.1301C114.33 98.9997 114.233 101.878 113.88 104.73C113.876 104.763 113.876 104.797 113.88 104.83C114.27 104 115.43 101.7 115.53 101.54C117.07 99.2001 121.41 95.5401 124.44 96.4101C124.938 96.5619 125.398 96.8168 125.79 97.1582C126.182 97.4997 126.498 97.9201 126.717 98.3919C126.936 98.8637 127.053 99.3763 127.06 99.8964C127.068 100.416 126.966 100.932 126.76 101.41C125.96 103.47 123.56 104.76 121.55 105.33C119.28 105.98 114.22 105.22 113.82 105.15C113.393 108.045 112.771 110.908 111.96 113.72C111.494 115.36 110.987 116.997 110.44 118.63C110.79 117.92 111.12 117.29 111.17 117.21C112.71 114.86 117.06 111.21 120.08 112.08C120.578 112.232 121.038 112.487 121.43 112.828C121.822 113.17 122.138 113.59 122.357 114.062C122.576 114.534 122.693 115.046 122.7 115.566C122.708 116.086 122.606 116.602 122.4 117.08C121.6 119.14 119.2 120.43 117.19 121C115.18 121.57 110.82 121 109.68 120.85L109.05 122.73C108.05 125.73 106.96 128.73 106.05 131.67C105.72 132.67 105.43 133.75 105.14 134.79C105.46 134.16 105.73 133.63 105.78 133.55C107.31 131.21 111.66 127.55 114.68 128.42C115.177 128.573 115.636 128.829 116.027 129.171C116.419 129.512 116.735 129.932 116.954 130.403C117.174 130.874 117.292 131.386 117.302 131.906C117.312 132.425 117.212 132.941 117.01 133.42C116.21 135.49 113.8 136.77 111.79 137.35C109.78 137.93 105.85 137.42 104.49 137.23C104.22 138.3 103.96 139.37 103.75 140.42C103.62 141.15 103.45 141.83 103.36 142.56L103.06 144.71C102.92 146.08 102.76 147.49 102.66 148.83C102.58 149.76 102.52 150.65 102.46 151.55C102.78 150.55 103.46 148.48 103.46 148.32C104.568 146.12 106.22 144.24 108.26 142.86C108.369 142.605 108.506 142.364 108.67 142.14C108.953 141.703 109.325 141.331 109.762 141.048C110.199 140.764 110.691 140.577 111.205 140.496C111.719 140.416 112.245 140.445 112.747 140.582C113.25 140.719 113.717 140.96 114.12 141.29C116.5 143.34 115.9 148.96 114.81 151.54C114.75 151.69 113.86 153.26 113.29 154.25C113.72 153.72 114.12 153.2 114.57 152.67C115.44 151.6 116.34 150.56 117.3 149.44L118.77 147.85C119.25 147.31 119.83 146.85 120.36 146.26C121.61 145.05 122.94 143.88 124.31 142.73C123.38 141.97 120.1 139.21 119.16 137.33C118.22 135.45 117.55 132.82 118.53 130.83C118.746 130.356 119.059 129.932 119.448 129.586C119.838 129.24 120.297 128.98 120.793 128.822C121.29 128.665 121.815 128.613 122.333 128.672C122.851 128.73 123.351 128.896 123.8 129.16C126.45 130.83 126.72 136.48 126.03 139.16C126.03 139.33 125.27 141.22 124.86 142.25C125.69 141.57 126.51 140.89 127.37 140.25C129.85 138.34 132.42 136.47 134.97 134.6L137.3 132.88C136.97 132.61 133.01 129.41 131.95 127.3C131.02 125.43 130.34 122.79 131.32 120.81C131.534 120.334 131.847 119.909 132.236 119.563C132.626 119.216 133.085 118.955 133.582 118.797C134.079 118.64 134.604 118.589 135.123 118.648C135.641 118.707 136.141 118.875 136.59 119.14C139.25 120.8 139.51 126.45 138.82 129.14C138.77 129.34 137.74 132.06 137.45 132.74C139.15 131.47 140.84 130.19 142.45 128.85C144.641 127.064 146.712 125.137 148.65 123.08C148.5 122.95 144.35 119.63 143.27 117.48C142.33 115.61 141.66 112.96 142.64 110.98C142.855 110.506 143.166 110.082 143.555 109.736C143.944 109.39 144.402 109.13 144.898 108.973C145.394 108.815 145.918 108.764 146.435 108.822C146.952 108.88 147.451 109.046 147.9 109.31C150.56 110.98 150.83 116.63 150.14 119.31C150.14 119.49 149.31 121.56 148.92 122.54L149.07 122.64C150.965 120.514 152.668 118.225 154.16 115.8C155 114.47 155.72 113.16 156.4 111.87C155.56 111.33 151.77 108.82 150.58 106.99C149.39 105.16 148.49 102.68 149.24 100.6C149.401 100.104 149.664 99.6479 150.013 99.2607C150.362 98.8735 150.789 98.5641 151.265 98.3528C151.742 98.1414 152.257 98.0329 152.778 98.0341C153.3 98.0354 153.815 98.1465 154.29 98.3601C157.12 99.7301 158 105.36 157.61 108.09C157.61 108.24 157.21 109.75 156.92 110.84C157.21 110.25 157.53 109.65 157.8 109.08C158.8 106.95 159.65 104.93 160.35 103.08C160.75 102.08 161.08 101.13 161.35 100.25C160.8 99.2501 158.66 95.4101 158.45 93.2501C158.24 91.0901 158.58 88.4701 160.21 86.9701C160.581 86.6049 161.025 86.3219 161.513 86.1394C162.001 85.957 162.521 85.8793 163.041 85.9114C163.561 85.9435 164.068 86.0846 164.529 86.3256C164.991 86.5666 165.397 86.902 165.72 87.3101C167.6 89.8201 165.81 95.1901 164.19 97.4701C164.05 97.6701 161.5 100.47 161.47 100.47V100.41C161.19 101.26 160.89 102.17 160.53 103.15C159.87 104.97 159.1 107.01 158.11 109.15C157.064 111.492 155.885 113.772 154.58 115.98C153.124 118.457 151.451 120.799 149.58 122.98L149.51 123.06C150.29 122.58 152.51 121.3 152.7 121.22C155.28 120.12 160.9 119.5 162.96 121.86C163.292 122.262 163.535 122.729 163.674 123.231C163.813 123.732 163.845 124.258 163.768 124.773C163.691 125.288 163.506 125.781 163.225 126.22C162.945 126.659 162.575 127.034 162.14 127.32C160.33 128.6 157.62 128.32 155.62 127.72C153.37 127 149.62 123.58 149.28 123.3C147.327 125.479 145.229 127.524 143 129.42C141.71 130.53 140.37 131.61 139 132.68C139.69 132.28 140.31 131.93 140.4 131.89C142.97 130.79 148.59 130.17 150.65 132.53C150.983 132.931 151.228 133.398 151.368 133.9C151.508 134.402 151.54 134.928 151.463 135.444C151.386 135.959 151.2 136.453 150.919 136.891C150.637 137.33 150.266 137.705 149.83 137.99C148.03 139.27 145.31 138.99 143.32 138.39C141.33 137.79 138 134.89 137.14 134.12C136.61 134.52 136.14 134.93 135.57 135.34C133.06 137.26 130.57 139.17 128.12 141.13C127.27 141.81 126.46 142.52 125.64 143.23L126.86 142.55C129.43 141.45 135.05 140.82 137.11 143.18C137.442 143.583 137.685 144.05 137.825 144.553C137.964 145.056 137.996 145.582 137.919 146.098C137.841 146.614 137.656 147.107 137.376 147.547C137.095 147.987 136.725 148.363 136.29 148.65C134.49 149.93 131.77 149.65 129.78 149.04C127.79 148.43 124.78 145.82 123.78 144.91C122.97 145.66 122.15 146.41 121.4 147.17C120.89 147.7 120.4 148.17 119.9 148.74L118.46 150.36C117.59 151.43 116.68 152.52 115.85 153.58C115.27 154.31 114.73 155.02 114.19 155.74C115.02 155.04 116.7 153.74 116.85 153.62C119.22 152.14 124.69 150.62 127.08 152.7C127.468 153.048 127.777 153.474 127.989 153.949C128.201 154.425 128.311 154.939 128.311 155.46C128.311 155.981 128.201 156.496 127.989 156.971C127.777 157.447 127.468 157.872 127.08 158.22C125.48 159.76 122.76 159.92 120.7 159.6C118.42 159.24 114.3 156.6 113.79 156.22C112.89 157.41 112.03 158.56 111.23 159.67C108.46 163.5 106.3 166.8 104.82 169.12L104.67 169.36L102.75 168.43L103.05 167.97C104.6 165.65 106.86 162.37 109.74 158.57C110.65 157.36 111.64 156.09 112.67 154.8C111.599 153.63 110.597 152.398 109.67 151.11C107.46 151.98 102.88 152.01 102.28 152.01C102.19 153.49 102.11 154.94 102.05 156.3C101.85 161.02 101.87 164.96 101.92 167.72V168.04L99.8107 167.04C99.8107 164.3 99.9207 160.6 100.2 156.22C100.29 154.72 100.42 153.11 100.57 151.46C99.9807 151.31 95.2107 150.09 93.4107 148.65C91.7807 147.34 90.0607 145.23 90.1207 143.01C90.1167 142.489 90.2224 141.974 90.4309 141.496C90.6394 141.019 90.9461 140.591 91.3309 140.24C91.7158 139.889 92.1702 139.623 92.6647 139.46C93.1591 139.296 93.6825 139.238 94.2007 139.29C97.3107 139.69 99.9207 144.71 100.43 147.46C100.43 147.63 100.59 149.46 100.65 150.56C100.72 149.89 100.77 149.23 100.85 148.56C100.98 147.19 101.16 145.83 101.35 144.36C101.46 143.65 101.58 142.94 101.69 142.22C101.8 141.5 101.99 140.76 102.14 140.02C102.52 138.32 102.98 136.61 103.49 134.9C102.29 134.78 98.0407 134.28 96.2207 133.23C94.4007 132.18 92.3807 130.36 92.1107 128.16C92.0271 127.646 92.0529 127.119 92.1864 126.615C92.3199 126.111 92.5581 125.641 92.8855 125.235C93.2129 124.83 93.6221 124.497 94.0865 124.26C94.5509 124.024 95.06 123.887 95.5807 123.86C98.7107 123.79 102.05 128.35 102.97 131C103.03 131.16 103.48 133.13 103.71 134.22C104.02 133.22 104.32 132.17 104.71 131.14C105.71 128.14 106.84 125.21 107.94 122.24C108.28 121.33 108.6 120.42 108.94 119.51C108.51 119.51 103.44 118.98 101.4 117.81C99.5907 116.81 97.5707 114.94 97.2907 112.74C97.2087 112.226 97.2356 111.7 97.3698 111.197C97.5039 110.693 97.7422 110.224 98.0693 109.818C98.3965 109.413 98.805 109.081 99.2687 108.843C99.7323 108.606 100.24 108.469 100.76 108.44C103.9 108.37 107.24 112.93 108.16 115.58C108.23 115.78 108.87 118.58 109 119.34C109.72 117.34 110.43 115.34 111 113.34C111.846 110.64 112.514 107.887 113 105.1C112.8 105.1 107.51 104.6 105.42 103.4C103.6 102.4 101.58 100.53 101.31 98.3301C101.226 97.8161 101.252 97.2901 101.386 96.7867C101.519 96.2833 101.758 95.8137 102.085 95.4088C102.413 95.0038 102.822 94.6726 103.287 94.4367C103.751 94.2009 104.26 94.0657 104.78 94.0401C107.91 93.9601 111.25 98.5201 112.17 101.17C112.23 101.34 112.73 103.5 112.94 104.54H113.11C113.523 101.723 113.684 98.8754 113.59 96.0301C113.59 94.4601 113.44 92.9701 113.29 91.5201C112.29 91.5201 107.75 91.5201 105.75 90.6501C103.75 89.7801 101.62 88.2201 101.1 86.0701C100.961 85.5665 100.931 85.0392 101.01 84.5229C101.089 84.0065 101.276 83.5127 101.559 83.0737C101.843 82.6348 102.215 82.2606 102.653 81.9756C103.091 81.6906 103.584 81.5013 104.1 81.4201C107.21 80.9901 111.03 85.1701 112.24 87.6901C112.3 87.8301 112.82 89.3001 113.17 90.3801C113.1 89.7201 113.03 89.0401 112.94 88.3801C112.63 86.0301 112.19 83.9001 111.79 82.0101C111.55 80.9401 111.32 80.0101 111.09 79.0801C110.09 78.5801 106.17 76.5201 104.83 74.8601C103.49 73.2001 102.29 70.7901 102.83 68.6501C102.95 68.1448 103.174 67.6701 103.488 67.2569C103.803 66.8437 104.201 66.5011 104.656 66.2513C105.111 66.0015 105.614 65.8501 106.131 65.8068C106.649 65.7636 107.17 65.8294 107.66 66.0001Z" fill="white"/>
        <path d="M164.34 114.29C161.89 114.19 156.99 111.68 156.99 111.68C156.99 111.68 159.62 108.95 159.81 108.8C162 107.06 167.26 104.97 169.87 106.71C170.297 107.009 170.656 107.395 170.923 107.842C171.19 108.289 171.36 108.788 171.422 109.305C171.483 109.822 171.434 110.347 171.279 110.844C171.124 111.341 170.865 111.8 170.52 112.19C169.12 113.9 166.43 114.38 164.34 114.29Z" fill="white"/>
    </g>
    <path d="M135.73 175.65C135.73 175.65 120.86 139.81 112.54 141.37C104.22 142.93 126.81 198.51 126.81 198.51C126.81 198.51 100.65 149.16 82.8105 149.16C64.9705 149.16 89.3505 203.7 112 221.88C112 221.88 76.3205 183.44 55.5105 191.75C34.7005 200.06 97.0805 239 97.0805 239C97.0805 239 60.8105 227.59 65.0005 236.43C69.1905 245.27 80.4605 246.81 80.4605 246.81L90.0005 248.89H142L150 245.78C150 245.78 183.3 229.15 174.38 222.4C165.46 215.65 145.84 230.19 145.84 230.19C145.84 230.19 179.73 192.79 173.19 178.77C166.65 164.75 137.51 204.22 137.51 204.22C137.51 204.22 161.3 153.83 156.51 145C151.72 136.17 135.73 175.65 135.73 175.65Z" fill="#92E3A9"/>
    <path opacity="0.4" d="M135.73 175.65C135.73 175.65 120.86 139.81 112.54 141.37C104.22 142.93 126.81 198.51 126.81 198.51C126.81 198.51 100.65 149.16 82.8105 149.16C64.9705 149.16 89.3505 203.7 112 221.88C112 221.88 76.3205 183.44 55.5105 191.75C34.7005 200.06 97.0805 239 97.0805 239C97.0805 239 60.8105 227.59 65.0005 236.43C69.1905 245.27 80.4605 246.81 80.4605 246.81L96.0005 248.89H138L150 245.78C150 245.78 183.3 229.15 174.38 222.4C165.46 215.65 145.84 230.19 145.84 230.19C145.84 230.19 179.73 192.79 173.19 178.77C166.65 164.75 137.51 204.22 137.51 204.22C137.51 204.22 161.3 153.83 156.51 145C151.72 136.17 135.73 175.65 135.73 175.65Z" fill="white"/>
    <path d="M140.49 177.54C127.41 216.19 127.41 243.54 127.41 243.54C127.41 243.54 142.87 244.14 158.92 232.24" stroke="#263238" stroke-linecap="round" stroke-linejoin="round"/>
    <path d="M134 198.35C131.301 186.796 127.721 175.466 123.29 164.46" stroke="#263238" stroke-linecap="round" stroke-linejoin="round"/>
    <path d="M95.2998 175.75L128.59 225.11C128.59 225.11 151.19 206.11 158.92 195.38" stroke="#263238" stroke-linecap="round" stroke-linejoin="round"/>
    <path d="M128 237C128 237 92.9204 220.35 78.6504 210.84" stroke="#263238" stroke-linecap="round" stroke-linejoin="round"/>
    <path d="M233.61 95.6299H226.38V396.92H233.61V95.6299Z" fill="#C2C2C2" stroke="#ABABAB" stroke-linecap="round" stroke-linejoin="round"/>
    <path d="M103.55 95.6299H96.3203V396.92H103.55V95.6299Z" fill="#C2C2C2" stroke="#ABABAB" stroke-linecap="round" stroke-linejoin="round"/>
    <path d="M168.58 95.6299H161.35V396.92H168.58V95.6299Z" fill="#C2C2C2" stroke="#ABABAB" stroke-linecap="round" stroke-linejoin="round"/>
    <path d="M298.63 95.6299H291.4V396.92H298.63V95.6299Z" fill="#C2C2C2" stroke="#ABABAB" stroke-linecap="round" stroke-linejoin="round"/>
    <path d="M296.46 105.02H93.9902V118.75H296.46V105.02Z" fill="#C2C2C2" stroke="#ABABAB" stroke-linecap="round" stroke-linejoin="round"/>
    <path d="M296.46 105.02H166.16V118.75H296.46V105.02Z" fill="#A6A6A6" stroke="#ABABAB" stroke-linecap="round" stroke-linejoin="round"/>
    <path d="M296.46 243.27H93.9902V257H296.46V243.27Z" fill="#C2C2C2" stroke="#ABABAB" stroke-linecap="round" stroke-linejoin="round"/>
    <path d="M296.46 243.27H166.16V257H296.46V243.27Z" fill="#A6A6A6" stroke="#ABABAB" stroke-linecap="round" stroke-linejoin="round"/>
    <path d="M296.46 381.51H93.9902V395.24H296.46V381.51Z" fill="#C2C2C2" stroke="#ABABAB" stroke-linecap="round" stroke-linejoin="round"/>
    <path d="M296.46 381.51H166.16V395.24H296.46V381.51Z" fill="#A6A6A6" stroke="#ABABAB" stroke-linecap="round" stroke-linejoin="round"/>
    <path d="M166.19 307.8H60.2305V396.81H166.19V307.8Z" fill="#92E3A9"/>
    <mask id="mask0_409_588" style="mask-type:luminance" maskUnits="userSpaceOnUse" x="60" y="307" width="107" height="90">
        <path d="M166.19 307.8H60.2305V396.81H166.19V307.8Z" fill="white"/>
    </mask>
    <g mask="url(#mask0_409_588)">
        <path opacity="0.6" d="M166.19 307.8H60.2305V396.81H166.19V307.8Z" fill="white" stroke="#696969" stroke-linecap="round" stroke-linejoin="round"/>
    </g>
    <path d="M166.19 307.8H60.2305V396.81H166.19V307.8Z" stroke="#696969" stroke-linecap="round" stroke-linejoin="round"/>
    <path d="M166.19 307.8H130.98V396.81H166.19V307.8Z" fill="#92E3A9"/>
    <mask id="mask1_409_588" style="mask-type:luminance" maskUnits="userSpaceOnUse" x="130" y="307" width="37" height="90">
        <path d="M166.19 307.8H130.98V396.81H166.19V307.8Z" fill="white"/>
    </mask>
    <g mask="url(#mask1_409_588)">
        <path opacity="0.39" d="M166.19 307.8H130.98V396.81H166.19V307.8Z" fill="white" stroke="#696969" stroke-linecap="round" stroke-linejoin="round"/>
    </g>
    <path d="M166.19 307.8H130.98V396.81H166.19V307.8Z" stroke="#696969" stroke-linecap="round" stroke-linejoin="round"/>
    <path d="M148.95 308.04V396.92" stroke="#696969" stroke-linecap="round" stroke-linejoin="round"/>
    <path d="M171.54 218.93H65.5801V307.94H171.54V218.93Z" fill="#92E3A9"/>
    <mask id="mask2_409_588" style="mask-type:luminance" maskUnits="userSpaceOnUse" x="65" y="218" width="107" height="90">
        <path d="M171.54 218.93H65.5801V307.94H171.54V218.93Z" fill="white"/>
    </mask>
    <g mask="url(#mask2_409_588)">
        <path opacity="0.6" d="M171.54 218.93H65.5801V307.94H171.54V218.93Z" fill="white" stroke="#696969" stroke-linecap="round" stroke-linejoin="round"/>
    </g>
    <path d="M171.54 218.93H65.5801V307.94H171.54V218.93Z" stroke="#696969" stroke-linecap="round" stroke-linejoin="round"/>
    <path d="M171.54 218.93H136.33V307.94H171.54V218.93Z" fill="#92E3A9"/>
    <mask id="mask3_409_588" style="mask-type:luminance" maskUnits="userSpaceOnUse" x="136" y="218" width="36" height="90">
        <path d="M171.54 218.93H136.33V307.94H171.54V218.93Z" fill="white"/>
    </mask>
    <g mask="url(#mask3_409_588)">
        <path opacity="0.39" d="M171.54 218.93H136.33V307.94H171.54V218.93Z" fill="white" stroke="#696969" stroke-linecap="round" stroke-linejoin="round"/>
    </g>
    <path d="M171.54 218.93H136.33V307.94H171.54V218.93Z" stroke="#696969" stroke-linecap="round" stroke-linejoin="round"/>
    <path d="M154.3 219.17V308.05" stroke="#696969" stroke-linecap="round" stroke-linejoin="round"/>
    <path d="M447.28 307.8H341.32V396.81H447.28V307.8Z" fill="#92E3A9"/>
    <mask id="mask4_409_588" style="mask-type:luminance" maskUnits="userSpaceOnUse" x="341" y="307" width="107" height="90">
        <path d="M447.28 307.8H341.32V396.81H447.28V307.8Z" fill="white"/>
    </mask>
    <g mask="url(#mask4_409_588)">
        <path opacity="0.6" d="M447.28 307.8H341.32V396.81H447.28V307.8Z" fill="white" stroke="#919191" stroke-linecap="round" stroke-linejoin="round"/>
    </g>
    <path d="M447.28 307.8H341.32V396.81H447.28V307.8Z" stroke="#919191" stroke-linecap="round" stroke-linejoin="round"/>
    <path d="M447.28 307.8H412.07V396.81H447.28V307.8Z" fill="#92E3A9"/>
    <mask id="mask5_409_588" style="mask-type:luminance" maskUnits="userSpaceOnUse" x="412" y="307" width="36" height="90">
        <path d="M447.28 307.8H412.07V396.81H447.28V307.8Z" fill="white"/>
    </mask>
    <g mask="url(#mask5_409_588)">
        <path opacity="0.39" d="M447.28 307.8H412.07V396.81H447.28V307.8Z" fill="white" stroke="#919191" stroke-linecap="round" stroke-linejoin="round"/>
    </g>
    <path d="M447.28 307.8H412.07V396.81H447.28V307.8Z" stroke="#919191" stroke-linecap="round" stroke-linejoin="round"/>
    <path d="M430.04 308.04V396.92" stroke="#919191" stroke-linecap="round" stroke-linejoin="round"/>
    <path d="M447.28 218.7H341.32V307.71H447.28V218.7Z" fill="#92E3A9"/>
    <mask id="mask6_409_588" style="mask-type:luminance" maskUnits="userSpaceOnUse" x="341" y="218" width="107" height="90">
        <path d="M447.28 218.7H341.32V307.71H447.28V218.7Z" fill="white"/>
    </mask>
    <g mask="url(#mask6_409_588)">
        <path opacity="0.6" d="M447.28 218.7H341.32V307.71H447.28V218.7Z" fill="white" stroke="#919191" stroke-linecap="round" stroke-linejoin="round"/>
    </g>
    <path d="M447.28 218.7H341.32V307.71H447.28V218.7Z" stroke="#919191" stroke-linecap="round" stroke-linejoin="round"/>
    <path d="M447.28 218.7H412.07V307.71H447.28V218.7Z" fill="#92E3A9"/>
    <mask id="mask7_409_588" style="mask-type:luminance" maskUnits="userSpaceOnUse" x="412" y="218" width="36" height="90">
        <path d="M447.28 218.7H412.07V307.71H447.28V218.7Z" fill="white"/>
    </mask>
    <g mask="url(#mask7_409_588)">
        <path opacity="0.39" d="M447.28 218.7H412.07V307.71H447.28V218.7Z" fill="white" stroke="#919191" stroke-linecap="round" stroke-linejoin="round"/>
    </g>
    <path d="M447.28 218.7H412.07V307.71H447.28V218.7Z" stroke="#919191" stroke-linecap="round" stroke-linejoin="round"/>
    <path d="M430.04 218.94V307.82" stroke="#919191" stroke-linecap="round" stroke-linejoin="round"/>
    <path d="M437.97 145H350.32V218.63H437.97V145Z" fill="#92E3A9"/>
    <mask id="mask8_409_588" style="mask-type:luminance" maskUnits="userSpaceOnUse" x="350" y="145" width="88" height="74">
        <path d="M437.97 145H350.32V218.63H437.97V145Z" fill="white"/>
    </mask>
    <g mask="url(#mask8_409_588)">
        <path opacity="0.6" d="M437.97 145H350.32V218.63H437.97V145Z" fill="white" stroke="#919191" stroke-linecap="round" stroke-linejoin="round"/>
    </g>
    <path d="M437.97 145H350.32V218.63H437.97V145Z" stroke="#919191" stroke-linecap="round" stroke-linejoin="round"/>
    <path d="M437.97 145H408.85V218.63H437.97V145Z" fill="#92E3A9"/>
    <mask id="mask9_409_588" style="mask-type:luminance" maskUnits="userSpaceOnUse" x="408" y="145" width="30" height="74">
        <path d="M437.97 145H408.85V218.63H437.97V145Z" fill="white"/>
    </mask>
    <g mask="url(#mask9_409_588)">
        <path opacity="0.39" d="M437.97 145H408.85V218.63H437.97V145Z" fill="white" stroke="#919191" stroke-linecap="round" stroke-linejoin="round"/>
    </g>
    <path d="M437.97 145H408.85V218.63H437.97V145Z" stroke="#919191" stroke-linecap="round" stroke-linejoin="round"/>
    <path d="M423.71 145.2V218.72" stroke="#919191" stroke-linecap="round" stroke-linejoin="round"/>
    <path d="M426.76 363.35H413.03V371.94H426.76V363.35Z" fill="white" stroke="#263238" stroke-linecap="round" stroke-linejoin="round"/>
    <path d="M297.56 396.92C302.144 396.92 305.86 393.204 305.86 388.62C305.86 384.036 302.144 380.32 297.56 380.32C292.976 380.32 289.26 384.036 289.26 388.62C289.26 393.204 292.976 396.92 297.56 396.92Z" fill="#263238" stroke="#263238" stroke-linecap="round" stroke-linejoin="round"/>
    <path d="M434.14 251.24H429.24V388.81H434.14V251.24Z" fill="#263238" stroke="#263238" stroke-linecap="round" stroke-linejoin="round"/>
    <path d="M431.53 299.36L419.94 290.14C415.01 286.212 411.312 280.951 409.286 274.982C407.26 269.013 406.991 262.588 408.51 256.47C408.957 254.685 409.986 253.099 411.435 251.963C412.883 250.828 414.669 250.207 416.51 250.2H446.51C448.351 250.204 450.139 250.823 451.588 251.959C453.038 253.095 454.066 254.683 454.51 256.47C456.032 262.587 455.764 269.012 453.74 274.981C451.715 280.95 448.019 286.212 443.09 290.14L431.53 299.36ZM416.53 254.89C415.729 254.887 414.95 255.154 414.319 255.647C413.688 256.141 413.241 256.832 413.05 257.61C411.743 262.853 411.971 268.361 413.707 273.478C415.443 278.595 418.613 283.105 422.84 286.47L431.51 293.37L440.19 286.47C444.418 283.105 447.591 278.596 449.33 273.48C451.069 268.363 451.302 262.855 450 257.61C449.808 256.833 449.36 256.143 448.729 255.65C448.098 255.156 447.321 254.889 446.52 254.89H416.53Z" fill="#263238"/>
    <path d="M402.76 367.65H251.03V385.31H402.76V367.65Z" fill="white"/>
    <mask id="mask10_409_588" style="mask-type:luminance" maskUnits="userSpaceOnUse" x="251" y="367" width="152" height="19">
        <path d="M402.76 367.65H251.03V385.31H402.76V367.65Z" fill="white"/>
    </mask>
    <g mask="url(#mask10_409_588)">
        <path opacity="0.28" d="M402.76 367.65H251.03V385.31H402.76V367.65Z" fill="black" stroke="#263238" stroke-linecap="round" stroke-linejoin="round"/>
    </g>
    <path d="M402.76 367.65H251.03V385.31H402.76V367.65Z" stroke="#263238" stroke-linecap="round" stroke-linejoin="round"/>
    <path d="M268.03 367.65H251.03V385.31H268.03V367.65Z" stroke="#263238" stroke-linecap="round" stroke-linejoin="round"/>
    <path d="M402.75 367.65H385.75V385.31H402.75V367.65Z" stroke="#263238" stroke-linecap="round" stroke-linejoin="round"/>
    <path d="M335.39 367.65H318.39V385.31H335.39V367.65Z" stroke="#263238" stroke-linecap="round" stroke-linejoin="round"/>
    <path d="M402.76 385.31H413.22L426.3 335.6H415.84L402.76 385.31Z" fill="white" stroke="#263238" stroke-linecap="round" stroke-linejoin="round"/>
    <path d="M438.56 356.53H424.83V378.77H438.56V356.53Z" fill="white" stroke="#263238" stroke-linecap="round" stroke-linejoin="round"/>
    <path d="M428.33 396.92C427.551 396.907 426.809 396.592 426.258 396.042C425.708 395.491 425.393 394.749 425.38 393.97V382.9C425.393 382.122 425.708 381.379 426.258 380.828C426.809 380.278 427.551 379.963 428.33 379.95C429.108 379.963 429.851 380.278 430.402 380.828C430.952 381.379 431.267 382.122 431.28 382.9V394C431.259 394.773 430.941 395.509 430.391 396.053C429.842 396.597 429.103 396.908 428.33 396.92Z" fill="#263238"/>
    <path d="M435.34 396.92C434.561 396.907 433.818 396.592 433.268 396.042C432.717 395.491 432.403 394.749 432.39 393.97V382.9C432.403 382.122 432.717 381.379 433.268 380.828C433.818 380.278 434.561 379.963 435.34 379.95C436.127 379.95 436.882 380.259 437.443 380.811C438.005 381.363 438.327 382.113 438.34 382.9V394C438.319 394.782 437.994 395.525 437.433 396.07C436.873 396.615 436.122 396.92 435.34 396.92Z" fill="#263238"/>
    <path d="M46.8193 396.92H460.63" stroke="#263238" stroke-linecap="round" stroke-linejoin="round"/>
    <path d="M189.59 425.81C229.487 425.81 261.83 421.879 261.83 417.03C261.83 412.181 229.487 408.25 189.59 408.25C149.693 408.25 117.35 412.181 117.35 417.03C117.35 421.879 149.693 425.81 189.59 425.81Z" fill="#92E3A9"/>
    <path opacity="0.5" d="M189.59 425.81C229.487 425.81 261.83 421.879 261.83 417.03C261.83 412.181 229.487 408.25 189.59 408.25C149.693 408.25 117.35 412.181 117.35 417.03C117.35 421.879 149.693 425.81 189.59 425.81Z" fill="white"/>
    <path d="M339.08 417C339.08 419.42 322.95 421.38 303.08 421.38C283.21 421.38 267.08 419.38 267.08 417C267.08 414.62 283.2 412.63 303.08 412.63C322.96 412.63 339.08 414.62 339.08 417Z" fill="#92E3A9"/>
    <path opacity="0.5" d="M339.08 417C339.08 419.42 322.95 421.38 303.08 421.38C283.21 421.38 267.08 419.38 267.08 417C267.08 414.62 283.2 412.63 303.08 412.63C322.96 412.63 339.08 414.62 339.08 417Z" fill="white"/>
    <path d="M204 127.79C204 127.79 198.41 123.4 192 125.59C185.59 127.78 180.73 138.46 179 147.14C177.27 155.82 170.62 162.4 172.22 172.58C173.82 182.76 185.39 184.35 199.36 185.85C213.33 187.35 220.91 185.65 227.49 176.47C234.07 167.29 231.28 156.12 227.39 146.24C223.5 136.36 217.02 127.19 211.63 125.49C206.24 123.79 204 127.79 204 127.79Z" fill="#263238" stroke="#263238" stroke-linecap="round" stroke-linejoin="round"/>
    <path d="M180.9 180C181.843 180.424 182.824 180.759 183.83 181" stroke="white" stroke-linecap="round" stroke-linejoin="round"/>
    <path d="M202.6 134.9C200.322 139.991 197.434 144.786 194 149.18C188.28 156.53 175.63 163.47 174.82 171.18C174.69 172.213 174.78 173.261 175.085 174.255C175.391 175.25 175.903 176.169 176.59 176.95" stroke="white" stroke-linecap="round" stroke-linejoin="round"/>
    <path d="M225.81 171.77C225.397 172.738 224.866 173.651 224.23 174.49" stroke="white" stroke-linecap="round" stroke-linejoin="round"/>
    <path d="M221 152.45C221 152.45 227.43 159.87 226.81 167.79" stroke="white" stroke-linecap="round" stroke-linejoin="round"/>
    <path d="M201.38 130.81C198.874 130.555 196.343 130.904 194 131.828C191.656 132.752 189.568 134.223 187.91 136.12C187.68 136.38 187.47 136.64 187.27 136.9" stroke="white" stroke-linecap="round" stroke-linejoin="round"/>
    <path d="M164.49 319.3L163.24 338.54C163.24 338.54 157.92 364.35 156.24 374.99C154.56 385.63 151.48 401.81 150.92 401.81C150.36 401.81 141.18 407.36 138.24 411.89C135.3 416.42 139.03 418.34 143.11 416.89C147.19 415.44 152.73 411.34 154.54 406.47C156.35 401.6 157.25 399.79 157.37 399C157.49 398.21 176.84 346.26 178.76 340.71C180.68 335.16 184.76 318.86 184.76 318.86L194.27 286.6C194.27 286.6 204.45 319.77 204.57 321.24C204.69 322.71 215.09 407.49 215.57 410.66C216.05 413.83 215.91 416.09 217.83 416.77C219.75 417.45 224.28 417.45 226.66 417.45C229.04 417.45 237.3 418.7 241.37 417.68C245.44 416.66 245.9 415.98 243.07 413.94C240.24 411.9 224.52 410.6 223.07 404.66C222.95 404.21 222.84 316.94 222.84 316.94C222.84 316.94 221.48 288.08 219.22 279.94H166.92L164.49 319.3Z" fill="white" stroke="#263238" stroke-linecap="round" stroke-linejoin="round"/>
    <path d="M143.1 416.87C147.17 415.39 152.72 411.32 154.53 406.45L154.91 405.45C152.6 407.91 148.91 411.33 148.91 411.33C148.684 410.17 148.179 409.082 147.44 408.16C147.117 407.804 146.704 407.543 146.244 407.404C145.785 407.265 145.296 407.253 144.83 407.37L148.83 402.97C145.83 404.83 140.43 408.63 138.31 411.9C135.28 416.41 139 418.34 143.1 416.87Z" fill="#263238" stroke="#263238" stroke-linecap="round" stroke-linejoin="round"/>
    <path d="M243 413.92C241.06 412.53 233.09 411.48 227.77 409.05C227.55 409.237 227.379 409.474 227.27 409.74C226.932 410.699 226.668 411.682 226.48 412.68L215.48 410.33V410.64C215.93 413.81 215.82 416.07 217.74 416.75C219.66 417.43 224.19 417.43 226.57 417.43C228.95 417.43 237.21 418.68 241.28 417.66C245.35 416.64 245.87 416 243 413.92Z" fill="#263238" stroke="#263238" stroke-linecap="round" stroke-linejoin="round"/>
    <path d="M179.73 233C179.73 233 174.54 235.39 168.26 246.67C161.39 258.98 162.57 265.82 162.47 280.67C162.37 295.52 162.07 320.17 162.07 320.17C162.07 320.17 181.07 325.26 194.7 324.46C208.33 323.66 225.62 320.57 225.62 320.57C225.62 320.57 221.93 270.29 218.44 255.83C214.95 241.37 212.85 234.83 212.85 234.83C206.105 235.766 199.27 235.867 192.5 235.13C180.93 234 179.73 233 179.73 233Z" fill="#263238" stroke="#263238" stroke-linecap="round" stroke-linejoin="round"/>
    <path d="M201.59 277.47C202.11 279.18 202.59 280.91 203.01 282.64" stroke="white" stroke-linecap="round" stroke-linejoin="round"/>
    <path d="M189.54 249.17C193.568 256.604 197.025 264.333 199.88 272.29" stroke="white" stroke-linecap="round" stroke-linejoin="round"/>
    <path d="M307.12 223.44C306.52 223.04 296.69 221.5 296.69 221.5L294.77 220.71C294.77 220.71 306.67 221.66 306.77 221.16C306.87 220.66 307.27 220.06 306.47 219.96C305.67 219.86 290.36 216.75 290.36 216.75C290.36 216.75 294.25 213.07 294.75 212.27C295.25 211.47 295.94 209.87 295.14 209.87C294.34 209.87 294.14 210.37 293.05 211.07C291.96 211.77 287.66 213.47 286.46 214.46C285.26 215.45 281.68 218.05 281.68 218.05L240.1 212.33C240.1 212.33 225.5 194.33 222.33 190.49C220.126 187.928 217.618 185.644 214.86 183.69C211.8 182.34 211.86 184.6 211.86 184.6L218.25 213C218.25 213 234.78 222.85 235.8 222.85C236.82 222.85 281.48 224.33 281.48 224.33C281.48 224.33 284.48 225.73 286.36 226.92C288.24 228.11 300.23 231.92 300.23 231.92C300.23 231.92 301.03 231.52 300.13 230.82C299.23 230.12 293.45 227.33 293.45 227.33L305.45 229.93C305.45 229.93 306.15 229.43 305.85 228.93C305.55 228.43 294.85 224.34 294.85 224.34L306.85 224.94C306.85 224.94 307.71 223.84 307.12 223.44Z" fill="white" stroke="#263238" stroke-linecap="round" stroke-linejoin="round"/>
    <path d="M237.59 209.24C233.28 203.93 224.67 193.33 222.33 190.49C220.126 187.928 217.618 185.644 214.86 183.69C211.8 182.34 211.86 184.6 211.86 184.6L218.25 213C218.25 213 225.71 217.44 230.91 220.36L237.59 209.24Z" fill="white" stroke="#263238" stroke-linecap="round" stroke-linejoin="round"/>
    <path d="M193.4 181.26C193.4 181.26 184.72 181.66 179.4 187.55C174.08 193.44 174.71 206.4 176.91 214.18C179.11 221.96 181.91 226.25 181.3 228.95C180.69 231.65 178.51 232.54 179.7 235.03C180.89 237.52 187.78 240.22 199.95 239.82C212.12 239.42 214.42 236.82 214.52 234.54C214.62 232.26 213.72 230.35 214.02 228.95C214.32 227.55 223.1 219.77 223.1 211.19C223.1 202.61 219.31 199.62 218.41 193.43C217.51 187.24 217.81 186.35 214.12 183.65C210.43 180.95 198.29 179.56 193.4 181.26Z" fill="white" stroke="#263238" stroke-linecap="round" stroke-linejoin="round"/>
    <path d="M189.46 211C186.559 213.428 183.339 215.446 179.89 217" stroke="#263238" stroke-linecap="round" stroke-linejoin="round"/>
    <path d="M190.42 212C190.42 212 188.27 218.94 183 222.77" stroke="#263238" stroke-linecap="round" stroke-linejoin="round"/>
    <path d="M211.96 187.54L212.96 197.12L208.76 192.23L211.96 187.54Z" fill="white" stroke="#263238" stroke-linecap="round" stroke-linejoin="round"/>
    <path d="M206.37 197.92L211.96 187.54L206.87 182.06L206.37 197.92Z" fill="white" stroke="#263238" stroke-linecap="round" stroke-linejoin="round"/>
    <path d="M195.6 164.3C196.472 167.759 196.905 171.314 196.89 174.88C196.861 177.19 196.627 179.492 196.19 181.76L206.37 197.92L209.26 182.92L211.16 172.54C211.16 172.54 199.59 171.88 195.6 164.3Z" fill="white" stroke="#263238" stroke-linecap="round" stroke-linejoin="round"/>
    <path d="M205.77 189.24L206.37 197.92L203.38 193.23L205.77 189.24Z" fill="white" stroke="#263238" stroke-linecap="round" stroke-linejoin="round"/>
    <path d="M192.8 181.36L202.08 198.02L205.77 189.24L195.9 175.67L192.8 181.36Z" fill="white" stroke="#263238" stroke-linecap="round" stroke-linejoin="round"/>
    <path d="M355.38 189.13H271.17V258.23H355.38V189.13Z" fill="#92E3A9"/>
    <mask id="mask11_409_588" style="mask-type:luminance" maskUnits="userSpaceOnUse" x="271" y="189" width="85" height="70">
        <path d="M355.38 189.13H271.17V258.23H355.38V189.13Z" fill="white"/>
    </mask>
    <g mask="url(#mask11_409_588)">
        <path opacity="0.2" d="M355.38 189.13H271.17V258.23H355.38V189.13Z" fill="black"/>
    </g>
    <path d="M355.38 189.13H271.17V258.23H355.38V189.13Z" stroke="#263238" stroke-linecap="round" stroke-linejoin="round"/>
    <path d="M337.55 189.13H253.34V258.23H337.55V189.13Z" fill="#92E3A9" stroke="#263238" stroke-linecap="round" stroke-linejoin="round"/>
    <path d="M369.25 281.49C366.55 277.21 355.38 258.23 355.38 258.23H337.56L346.73 281.49H369.25Z" fill="#92E3A9"/>
    <mask id="mask12_409_588" style="mask-type:luminance" maskUnits="userSpaceOnUse" x="337" y="258" width="33" height="24">
        <path d="M369.25 281.49C366.55 277.21 355.38 258.23 355.38 258.23H337.56L346.73 281.49H369.25Z" fill="white"/>
    </mask>
    <g mask="url(#mask12_409_588)">
        <path opacity="0.2" d="M369.25 281.49C366.55 277.21 355.38 258.23 355.38 258.23H337.56L346.73 281.49H369.25Z" fill="black"/>
    </g>
    <path d="M369.25 281.49C366.55 277.21 355.38 258.23 355.38 258.23H337.56L346.73 281.49H369.25Z" stroke="#263238" stroke-linecap="round" stroke-linejoin="round"/>
    <path d="M239.42 281.49C242.12 277.21 253.28 258.23 253.28 258.23H271.11L261.94 281.49H239.42Z" fill="#92E3A9" stroke="#263238" stroke-linecap="round" stroke-linejoin="round"/>
    <path d="M253.28 258.23L245.53 281.49H333.48L337.56 258.23H253.28Z" fill="#92E3A9" stroke="#263238" stroke-linecap="round" stroke-linejoin="round"/>
    <path d="M366.22 214.13V237.27" stroke="#263238" stroke-linecap="round" stroke-linejoin="round"/>
    <path d="M370.6 224.14V242.9" stroke="#263238" stroke-linecap="round" stroke-linejoin="round"/>
    <path d="M244.29 237.27V251.65" stroke="#263238" stroke-linecap="round" stroke-linejoin="round"/>
    <path d="M240.54 245.4V256.65" stroke="#263238" stroke-linecap="round" stroke-linejoin="round"/>
    <path d="M178.93 206.1C181.914 209.48 185.378 212.405 189.21 214.78C195.21 218.37 217.21 230.84 218.94 231.54C220.67 232.24 273.21 223.66 273.21 223.66C273.21 223.66 276.21 225.06 278.1 226.25C279.99 227.44 291.97 231.25 291.97 231.25C291.97 231.25 292.77 230.85 291.87 230.16C290.97 229.47 285.19 226.66 285.19 226.66L297.19 229.26C297.19 229.26 297.89 228.76 297.59 228.26C297.29 227.76 286.59 223.67 286.59 223.67L298.59 224.27C298.59 224.27 299.49 223.17 298.89 222.77C298.29 222.37 286 219.57 286 219.57C286 219.57 299.07 218.47 299.17 217.97C299.27 217.47 299.67 216.88 298.87 216.78C298.07 216.68 281.71 215.08 281.71 215.08C281.71 215.08 286 212.39 286.5 211.59C287 210.79 287.7 209.19 286.9 209.19C286.1 209.19 285.9 209.69 284.81 210.39C283.72 211.09 279.42 212.79 278.22 213.78C277.02 214.77 273.43 217.38 273.43 217.38L225.35 217.48L195.5 193.93" fill="white"/>
    <path d="M178.93 206.1C181.914 209.48 185.378 212.405 189.21 214.78C195.21 218.37 217.21 230.84 218.94 231.54C220.67 232.24 273.21 223.66 273.21 223.66C273.21 223.66 276.21 225.06 278.1 226.25C279.99 227.44 291.97 231.25 291.97 231.25C291.97 231.25 292.77 230.85 291.87 230.16C290.97 229.47 285.19 226.66 285.19 226.66L297.19 229.26C297.19 229.26 297.89 228.76 297.59 228.26C297.29 227.76 286.59 223.67 286.59 223.67L298.59 224.27C298.59 224.27 299.49 223.17 298.89 222.77C298.29 222.37 286 219.57 286 219.57C286 219.57 299.07 218.47 299.17 217.97C299.27 217.47 299.67 216.88 298.87 216.78C298.07 216.68 281.71 215.08 281.71 215.08C281.71 215.08 286 212.39 286.5 211.59C287 210.79 287.7 209.19 286.9 209.19C286.1 209.19 285.9 209.69 284.81 210.39C283.72 211.09 279.42 212.79 278.22 213.78C277.02 214.77 273.43 217.38 273.43 217.38L225.35 217.48L195.5 193.93" stroke="#263238" stroke-linecap="round" stroke-linejoin="round"/>
    <path d="M298.85 216.78C298.06 216.68 281.69 215.08 281.69 215.08C281.69 215.08 285.98 212.39 286.48 211.59C286.98 210.79 287.68 209.19 286.88 209.19C286.08 209.19 285.88 209.69 284.79 210.39C283.7 211.09 279.4 212.79 278.2 213.78C277 214.77 273.41 217.38 273.41 217.38L225.33 217.48L220 213.25C218 216.76 214.26 223.34 211.83 227.68C215.57 229.76 218.4 231.31 218.97 231.54C220.67 232.24 273.24 223.66 273.24 223.66C273.24 223.66 276.24 225.06 278.13 226.25C280.02 227.44 292 231.25 292 231.25C292 231.25 292.8 230.85 291.9 230.16C291 229.47 285.22 226.66 285.22 226.66L297.22 229.26C297.22 229.26 297.92 228.76 297.62 228.26C297.32 227.76 286.62 223.67 286.62 223.67L298.62 224.27C298.62 224.27 299.52 223.17 298.92 222.77C298.32 222.37 286 219.57 286 219.57C286 219.57 299.07 218.47 299.17 217.97C299.27 217.47 299.65 216.88 298.85 216.78Z" fill="white" stroke="#263238" stroke-linecap="round" stroke-linejoin="round"/>
    <path d="M218.34 155.92C218.511 155.713 218.736 155.559 218.99 155.473C219.244 155.388 219.517 155.376 219.778 155.439C220.038 155.501 220.276 155.636 220.464 155.827C220.652 156.018 220.782 156.259 220.84 156.52C221.007 157.605 220.951 158.712 220.676 159.775C220.401 160.838 219.913 161.833 219.24 162.7C218.14 163.8 217.14 164.1 217.14 162.7C217.418 160.42 217.818 158.157 218.34 155.92Z" fill="white" stroke="#263238" stroke-linecap="round" stroke-linejoin="round"/>
    <path d="M206.06 138.44C205.71 143.307 203.627 147.887 200.19 151.35C196.988 154.499 193.368 157.191 189.43 159.35C189.43 159.35 190.01 162.48 191.19 163.46C192.37 164.44 194.71 164.25 194.71 164.25C196.071 167.97 198.283 171.319 201.17 174.03C205.86 178.33 211.34 177.94 214.47 171.49C217.6 165.04 219.17 158.57 218.78 154.85L218.39 151.13C218.39 151.13 208.21 145.48 206.06 138.44Z" fill="white" stroke="#263238" stroke-linecap="round" stroke-linejoin="round"/>
    <path d="M205.47 157.78C205.967 157.78 206.37 157.064 206.37 156.18C206.37 155.296 205.967 154.58 205.47 154.58C204.973 154.58 204.57 155.296 204.57 156.18C204.57 157.064 204.973 157.78 205.47 157.78Z" fill="#263238"/>
    <path d="M210.36 170.55C210.857 170.55 211.26 169.834 211.26 168.95C211.26 168.066 210.857 167.35 210.36 167.35C209.863 167.35 209.46 168.066 209.46 168.95C209.46 169.834 209.863 170.55 210.36 170.55Z" fill="#263238"/>
    <path d="M214.15 157.78C214.647 157.78 215.05 157.064 215.05 156.18C215.05 155.296 214.647 154.58 214.15 154.58C213.653 154.58 213.25 155.296 213.25 156.18C213.25 157.064 213.653 157.78 214.15 157.78Z" fill="#263238"/>
    <path d="M212.35 154.48C212.007 155.678 211.905 156.932 212.05 158.17C212.35 159.87 213.75 162.76 212.55 163.26C212.003 163.51 211.397 163.605 210.799 163.534C210.201 163.463 209.635 163.23 209.16 162.86" stroke="#263238" stroke-linecap="round" stroke-linejoin="round"/>
    <path d="M202.87 153.29C202.87 153.29 203.35 150.23 207.36 150.58" stroke="#263238" stroke-linecap="round" stroke-linejoin="round"/>
    <path d="M213.61 151.52C213.61 151.52 217.35 148.52 218.56 154.01" stroke="#263238" stroke-linecap="round" stroke-linejoin="round"/>
</svg>
