<svg width="187" height="51" viewBox="0 0 187 51" fill="none" xmlns="http://www.w3.org/2000/svg">
    <g clip-path="url(#clip0_219_244)">
        <path d="M92.2658 20.4179H80.5222V1.52841H76.9692V49.4969H80.5222V26.7667H92.2658V49.4969H95.7814V1.52841H92.2658M57.6147 1.37165C56.3244 1.29327 53.7064 1.29327 51.3876 1.29327V49.4577H54.978V31.1952C55.8756 31.1952 57.7269 31.0384 59.2229 30.96C61.3173 30.8816 66.7777 28.687 66.7403 15.48C66.7964 0.587849 58.9237 1.37165 57.6147 1.37165ZM57.4277 24.8072H55.0528V7.44608H57.0724C58.0074 7.44608 63.5239 6.5839 63.6922 15.5584C63.9166 24.3761 59.5595 24.8072 57.4277 24.8072ZM24.4783 1.29327L24.5157 49.4577H38.9334V43.1873H28.1061V26.8451H35.7731C35.7731 25.4734 35.7357 23.4748 35.7731 20.849H28.1061V7.72041H38.9334C38.896 3.91899 38.9334 1.29327 38.9334 1.29327H24.4783ZM3.5156 13.0502C3.5156 5.17307 8.4898 4.85955 11.4257 9.91505C12.4355 3.84061 12.5103 3.40952 12.5103 3.40952C3.9457 -5.21226 0.0374 6.19201 0.0374 13.4813C0.0374 30.9208 11.8371 27.1978 10.1354 39.4642C9.537 43.9319 5.7409 46.4792 1.3651 40.9143C1.0472 42.7954 0.5236 45.0684 0 47.3414C5.7783 53.6902 13.277 50.6334 13.5201 37.5439C13.8567 21.0842 3.5156 22.2599 3.5156 13.0502ZM155.06 14.8138C154.537 0.509469 147.917 1.60679 146.458 1.45003C145.243 1.37165 142.662 1.29327 140.437 1.29327V49.3793H144.027V29.1573C145.243 29.1573 145.636 29.1573 147.468 29.0005L154.013 49.3793H158.37L151.133 27.7465C153.078 26.2572 155.341 22.7693 155.06 14.8138ZM146.253 23.5139C145.449 23.5139 144.832 23.5139 144.027 23.4356V7.17175H145.916C146.814 7.17175 151.526 6.5839 151.938 14.4611C152.442 23.7883 147.225 23.5139 146.253 23.5139ZM178.753 1.37165H174.602L167.085 49.536H170.638C171.76 40.8359 172.134 38.3669 172.134 38.3669L181.427 38.2885C182.512 44.7157 183.316 49.6144 183.316 49.6144H187L178.753 1.37165ZM172.956 32.8411L176.584 9.05287H176.622L180.418 32.7628L172.956 32.8411ZM118.072 0C110.76 0 105.992 11.3259 105.992 25.3951C105.992 39.4642 110.76 50.7901 118.072 50.7901C125.384 50.7901 130.152 39.4642 130.152 25.3951C130.152 11.3259 125.384 0 118.072 0ZM118.072 43.8535C112.705 43.8535 109.676 35.6628 109.676 25.3951C109.676 15.2449 112.705 6.93661 118.072 6.93661C123.401 6.93661 126.468 15.1273 126.468 25.3951C126.468 35.5452 123.439 43.8535 118.072 43.8535Z" fill="black"/>
    </g>
    <defs>
        <clipPath id="clip0_219_244">
            <rect width="187" height="50.7901" fill="white"/>
        </clipPath>
    </defs>
</svg>
