<svg width="26" height="26" viewBox="0 0 26 26" fill="none" xmlns="http://www.w3.org/2000/svg">
    <g clip-path="url(#clip0_397_612)">
        <path d="M20.5263 13C20.5263 13.3763 20.2184 13.6842 19.8421 13.6842H13.6842V19.8421C13.6842 20.2184 13.3763 20.5263 13 20.5263C12.6237 20.5263 12.3158 20.2184 12.3158 19.8421V13.6842H6.15789C5.78158 13.6842 5.47368 13.3763 5.47368 13C5.47368 12.6237 5.78158 12.3158 6.15789 12.3158H12.3158V6.15789C12.3158 5.78158 12.6237 5.47368 13 5.47368C13.3763 5.47368 13.6842 5.78158 13.6842 6.15789V12.3158H19.8421C20.2184 12.3158 20.5263 12.6237 20.5263 13ZM26 13C26 20.1842 20.1842 26 13 26C5.81579 26 0 20.1842 0 13C0 5.81579 5.81579 0 13 0C20.1842 0 26 5.81579 26 13ZM24.6316 13C24.6316 6.56842 19.4316 1.36842 13 1.36842C6.56842 1.36842 1.36842 6.56842 1.36842 13C1.36842 19.4316 6.56842 24.6316 13 24.6316C19.4316 24.6316 24.6316 19.4316 24.6316 13Z" fill="#0ABD19"/>
    </g>
    <defs>
        <clipPath id="clip0_397_612">
            <rect width="26" height="26" fill="white"/>
        </clipPath>
    </defs>
</svg>
