<svg width="187" height="147" viewBox="0 0 187 147" fill="none" xmlns="http://www.w3.org/2000/svg">
    <path d="M75.249 85.851C69.912 84.3369 65.6933 80.5972 64.2758 76.3283C63.8968 75.1837 63.7011 73.3442 63.6886 70.8099C63.6662 66.0471 63.6612 61.2853 63.6737 56.5245C63.6812 53.6785 63.822 51.7264 64.0963 50.668C65.7456 44.3411 72.8329 39.7106 81.1844 39.6165C87.5074 39.544 93.7807 39.5254 100.004 39.5607C100.045 39.5614 100.085 39.5722 100.118 39.5914C100.15 39.6107 100.175 39.6375 100.188 39.6681C100.2 39.6987 100.201 39.7317 100.189 39.7625C100.176 39.7932 100.152 39.8203 100.12 39.84C93.8193 43.5424 88.147 47.726 83.103 52.3908C77.4406 57.627 73.0611 63.0542 70.8919 69.7486C69.0929 75.2934 70.1252 81.5115 75.4098 85.654C75.4334 85.6735 75.4479 85.6987 75.4511 85.7256C75.4543 85.7524 75.446 85.7793 75.4275 85.802C75.409 85.8246 75.3813 85.8418 75.349 85.8507C75.3166 85.8596 75.2814 85.8597 75.249 85.851Z" fill="#9E2834"/>
    <path d="M113.685 40.8278C118.633 42.6359 122.246 46.0022 123.596 50.1093C123.96 51.2207 124.147 52.9269 124.157 55.2279C124.177 61.2921 124.177 67.3583 124.157 73.4265C124.154 74.7691 123.787 76.1764 123.054 77.6483C120.914 81.9466 116.43 85.1247 110.749 86.3125C107.241 87.0446 102.573 86.7741 98.7024 86.7418C98.6683 86.7409 98.6353 86.7319 98.6078 86.7159C98.5803 86.6999 98.5598 86.6777 98.5491 86.6525C98.5383 86.6272 98.538 86.6002 98.5481 86.5751C98.5581 86.55 98.5781 86.5281 98.6052 86.5124C105.262 82.5101 110.21 77.568 113.449 71.686C115.731 67.5347 117.058 62.472 114.68 58.3766C112.417 54.4811 107.525 53.017 102.218 53.3786C97.7375 53.6844 93.9339 55.4807 90.5829 57.6357C90.5599 57.6499 90.5312 57.6572 90.502 57.6563C90.4728 57.6555 90.4449 57.6464 90.4233 57.6309C90.4018 57.6154 90.3879 57.5943 90.3843 57.5715C90.3806 57.5487 90.3874 57.5256 90.4034 57.5064C90.6527 57.2163 90.9257 56.9292 91.2224 56.645C97.3261 50.8061 104.78 45.0084 112.862 40.8748C112.983 40.8127 113.122 40.7759 113.266 40.7676C113.41 40.7594 113.554 40.7801 113.685 40.8278Z" fill="#9E2834"/>
    <path d="M86.3206 67.107C80.6303 73.0215 79.1733 79.6923 83.0662 82.0067C86.9591 84.3211 94.7278 81.4027 100.418 75.4882C106.108 69.5737 107.565 62.9028 103.672 60.5884C99.7795 58.274 92.0108 61.1925 86.3206 67.107Z" fill="#9E2834"/>
    <path d="M99.7684 102.603C89.9397 104.135 89.3899 92.0808 98.3098 92.2749C101.519 92.3454 103.045 93.0246 104.316 95.3648C104.352 95.4324 104.365 95.5063 104.354 95.5791C104.343 95.6519 104.308 95.7211 104.253 95.7801C104.197 95.8391 104.123 95.8858 104.038 95.9155C103.953 95.9453 103.859 95.9571 103.766 95.9499L103.176 95.9028C103.048 95.893 102.97 95.8382 102.94 95.7382C102.611 94.5857 101.769 93.8556 100.415 93.5479C91.3945 91.4958 90.9382 102.874 99.8133 101.521C101.56 101.257 102.644 100.116 103.033 98.8134C103.068 98.6958 103.162 98.637 103.314 98.637H103.808C103.905 98.637 104.001 98.6556 104.088 98.6911C104.174 98.7266 104.249 98.778 104.305 98.8409C104.36 98.9038 104.396 98.9764 104.408 99.0525C104.421 99.1286 104.41 99.206 104.376 99.278C103.511 101.15 101.975 102.258 99.7684 102.603ZM118.577 97.4816C118.577 98.8789 117.871 100.219 116.614 101.207C115.357 102.195 113.652 102.75 111.875 102.75C110.097 102.75 108.393 102.195 107.136 101.207C105.879 100.219 105.173 98.8789 105.173 97.4816C105.173 96.0843 105.879 94.7443 107.136 93.7562C108.393 92.7682 110.097 92.2131 111.875 92.2131C113.652 92.2131 115.357 92.7682 116.614 93.7562C117.871 94.7443 118.577 96.0843 118.577 97.4816ZM111.819 101.727C113.198 101.735 114.526 101.294 115.508 100.503C116.491 99.7114 117.048 98.6339 117.058 97.5072C117.063 96.9493 116.934 96.3961 116.677 95.8792C116.42 95.3623 116.041 94.8919 115.561 94.4947C115.082 94.0976 114.511 93.7815 113.882 93.5646C113.252 93.3476 112.577 93.2341 111.893 93.2304C110.514 93.2228 109.187 93.6632 108.204 94.4546C107.221 95.2459 106.664 96.3235 106.654 97.4502C106.649 98.0081 106.778 98.5613 107.035 99.0782C107.292 99.595 107.671 100.065 108.151 100.463C108.63 100.86 109.201 101.176 109.831 101.393C110.46 101.61 111.135 101.723 111.819 101.727ZM51.1409 96.9407C53.4223 94.8356 58.3292 95.6912 58.7593 98.6811C59.0635 100.798 57.8417 102.078 55.0941 102.521C54.2526 102.656 53.6878 102.45 52.8239 102.403C48.9193 102.177 49.0839 97.12 49.7945 95.162C50.4253 93.4313 51.9949 92.5365 54.5032 92.4777C56.443 92.4327 57.7968 93.0961 58.5648 94.4681C58.5946 94.5218 58.6069 94.5805 58.6007 94.6389C58.5944 94.6972 58.5698 94.7535 58.5289 94.8025C58.4881 94.8515 58.4324 94.8918 58.3668 94.9196C58.3013 94.9475 58.2279 94.962 58.1534 94.962H57.4091C57.257 94.962 57.1635 94.9032 57.1286 94.7856C56.6649 93.1775 54.6864 93.495 53.1605 93.492C53.0209 93.4901 52.8937 93.5205 52.779 93.5832C51.3404 94.3417 50.6796 95.4315 50.7968 96.8525C50.7992 96.8831 50.8132 96.9125 50.837 96.9368C50.8609 96.9611 50.8935 96.9791 50.9307 96.9887C50.9678 96.9982 51.0077 96.9987 51.0452 96.9901C51.0827 96.9816 51.116 96.9643 51.1409 96.9407ZM57.454 99.2903C57.4731 98.9733 57.4074 98.6562 57.2609 98.3573C57.1144 98.0583 56.8899 97.7832 56.6002 97.5478C56.3104 97.3124 55.9611 97.1212 55.5723 96.9852C55.1834 96.8492 54.7625 96.771 54.3337 96.7551C53.9049 96.7393 53.4766 96.786 53.0732 96.8926C52.6698 96.9993 52.2992 97.1638 51.9825 97.3767C51.6659 97.5897 51.4095 97.8469 51.2278 98.1337C51.0462 98.4205 50.943 98.7313 50.924 99.0483C50.8856 99.6885 51.1928 100.315 51.778 100.791C52.3631 101.266 53.1783 101.551 54.0443 101.583C54.4731 101.599 54.9014 101.552 55.3048 101.446C55.7082 101.339 56.0788 101.175 56.3955 100.962C56.7121 100.749 56.9685 100.491 57.1502 100.205C57.3318 99.9178 57.435 99.6073 57.454 99.2903ZM60.6555 102.333C60.6351 102.324 60.6182 102.311 60.6063 102.295C60.5945 102.279 60.5882 102.26 60.5881 102.241V92.76C60.5881 92.7085 60.6133 92.6589 60.6586 92.6216C60.7039 92.5844 60.7657 92.5623 60.8312 92.5601C62.6938 92.4954 64.5513 92.4758 66.4038 92.5013C68.8348 92.5336 70.746 93.0628 70.7983 95.1678C70.8956 99.2427 65.5399 98.3195 62.2711 98.2813C62.1415 98.2813 62.0754 98.3313 62.0729 98.4312L61.9906 102.2C61.9856 102.322 61.9096 102.402 61.7625 102.441C61.386 102.537 61.017 102.501 60.6555 102.333ZM67.9036 93.6831C66.2542 93.3362 64.0364 93.4479 62.3198 93.5185C62.1851 93.5244 62.1165 93.5802 62.1141 93.6861L62.0056 97.1759C62.0051 97.1927 62.0089 97.2095 62.0167 97.2251C62.0246 97.2408 62.0364 97.2551 62.0514 97.2672C62.0663 97.2792 62.0842 97.2888 62.104 97.2953C62.1238 97.3019 62.145 97.3052 62.1664 97.3052C63.9566 97.3327 65.6808 97.3189 67.3388 97.2641C69.71 97.1817 70.1588 94.1594 67.9036 93.6831ZM73.3041 94.5475V102.277C73.3041 102.416 73.2169 102.481 73.0423 102.471L72.1148 102.418C71.9802 102.41 71.9129 102.352 71.9129 102.244L71.8755 92.7776C71.8755 92.6698 71.9453 92.612 72.0849 92.6042L73.6108 92.5248C73.7679 92.5169 73.8813 92.5679 73.9512 92.6777L78.8992 100.683C78.9194 100.716 78.9511 100.744 78.9907 100.764C79.0304 100.783 79.0763 100.794 79.1234 100.794C79.1704 100.794 79.2168 100.783 79.2571 100.764C79.2975 100.744 79.3302 100.716 79.3517 100.683L84.3484 92.6953C84.3957 92.6169 84.4743 92.5757 84.584 92.5718L86.0164 92.5218C86.0604 92.5202 86.1043 92.5256 86.1456 92.5376C86.1868 92.5496 86.2245 92.568 86.2563 92.5916C86.2881 92.6152 86.3134 92.6437 86.3307 92.6751C86.3479 92.7066 86.3568 92.7405 86.3567 92.7747L86.3605 102.247C86.3605 102.408 86.2582 102.482 86.0538 102.468L85.1412 102.415C84.9792 102.405 84.8981 102.337 84.8981 102.209V94.7327C84.8981 94.5583 84.8221 94.5348 84.67 94.6622C84.2399 95.0179 84.008 95.6647 83.7911 95.9852C82.7863 97.4728 81.8525 98.9879 80.9898 100.53C80.7131 101.027 79.2769 103.682 78.2858 102.094C76.7075 99.568 75.1205 97.0387 73.5248 94.5063C73.5134 94.4875 73.4941 94.4723 73.4702 94.4632C73.4463 94.4542 73.4191 94.4519 73.3933 94.4567C73.3674 94.4615 73.3445 94.4732 73.3283 94.4897C73.312 94.5062 73.3035 94.5266 73.3041 94.5475ZM132.77 94.7504C132.769 94.7187 132.755 94.6883 132.729 94.6637C132.704 94.6392 132.669 94.6219 132.63 94.6145C132.59 94.6072 132.549 94.6101 132.512 94.623C132.476 94.6359 132.445 94.6579 132.426 94.6857C130.795 97.2229 129.374 100.186 127.422 102.5C127.34 102.596 127.227 102.629 127.085 102.597L126.472 102.465C126.37 102.443 126.295 102.395 126.248 102.321L121.419 94.6475C121.257 94.3907 121.174 94.4064 121.169 94.6945C121.129 96.9407 121.135 99.1731 121.187 101.392C121.202 102.1 121.367 102.356 120.424 102.503C120.334 102.518 120.241 102.516 120.152 102.499C120.062 102.481 119.979 102.448 119.908 102.402C119.836 102.357 119.779 102.299 119.74 102.233C119.7 102.168 119.68 102.096 119.68 102.024V92.7247C119.68 92.5914 119.765 92.5267 119.934 92.5307L121.468 92.5571C121.6 92.5591 121.696 92.6071 121.756 92.7012L126.827 100.771C126.842 100.794 126.864 100.814 126.892 100.827C126.92 100.841 126.952 100.848 126.984 100.848C127.017 100.848 127.049 100.841 127.077 100.827C127.104 100.814 127.127 100.794 127.141 100.771L132.168 92.6747C132.225 92.5826 132.319 92.5365 132.449 92.5365H133.915C134.069 92.5365 134.146 92.5973 134.146 92.7188L134.165 102.265C134.165 102.39 134.087 102.453 133.93 102.453L133.006 102.462C132.849 102.462 132.77 102.4 132.77 102.277V94.7504ZM139.555 93.8331C139.555 94.1824 139.378 94.5174 139.064 94.7644C138.75 95.0114 138.323 95.1502 137.879 95.1502C137.435 95.1502 137.008 95.0114 136.694 94.7644C136.38 94.5174 136.203 94.1824 136.203 93.8331C136.203 93.4838 136.38 93.1487 136.694 92.9017C137.008 92.6547 137.435 92.516 137.879 92.516C138.323 92.516 138.75 92.6547 139.064 92.9017C139.378 93.1487 139.555 93.4838 139.555 93.8331ZM138.612 93.6361C138.432 93.8948 138.433 94.0448 138.777 94.1976C138.931 94.2662 139.031 94.2329 139.076 94.0977C139.659 92.3484 135.639 92.5953 137.03 94.5122C137.042 94.5291 137.061 94.5422 137.084 94.5497C137.107 94.5571 137.132 94.5584 137.156 94.5534C137.18 94.5484 137.201 94.5373 137.216 94.5219C137.231 94.5064 137.239 94.4876 137.239 94.4681L137.269 93.4597C137.272 93.3539 137.337 93.2813 137.464 93.2421C137.938 93.0971 138.312 93.1588 138.586 93.4274C138.653 93.492 138.662 93.5616 138.612 93.6361ZM137.714 94.1624C137.296 94.5387 137.752 94.9473 138.201 94.6769C138.315 94.6083 138.33 94.5279 138.246 94.4358L138.006 94.1741C137.914 94.0742 137.817 94.0702 137.714 94.1624Z" fill="#9E2834"/>
    <path d="M89.6887 100.827H89.0081C88.7685 100.827 88.5742 100.98 88.5742 101.168V102.209C88.5742 102.397 88.7685 102.55 89.0081 102.55H89.6887C89.9283 102.55 90.1226 102.397 90.1226 102.209V101.168C90.1226 100.98 89.9283 100.827 89.6887 100.827Z" fill="#9E2834"/>
</svg>
