<svg width="187" height="23" viewBox="0 0 187 23" fill="none" xmlns="http://www.w3.org/2000/svg">
    <path d="M27.4537 11.369C28.4857 9.09914 27.0678 8.21237 23.7053 8.21237H18.082C16.8608 8.21237 16.6021 8.11249 16.8714 7.52383L17.2755 6.64614C17.5236 6.07866 17.8808 5.9682 19.108 5.96668H26.4731C27.9863 5.96668 28.6355 6.16643 29.4572 6.48271L30.1881 3.37598H15.4989C12.6963 3.37598 10.5203 4.6456 9.408 7.09558L7.82816 10.5927C6.61755 13.2001 7.48465 13.9779 10.6337 13.9779H17.0999C18.3363 13.9779 18.539 14.1005 18.2772 14.6664L17.7839 15.7409C17.5282 16.3235 17.2089 16.4188 15.9801 16.4218H8.32299C6.74769 16.4218 6.12422 16.1282 5.48411 15.8377L4.69116 19.0307H18.9854C22.7883 19.0307 24.5679 17.6506 25.6922 15.1976L27.4537 11.369Z" fill="#002D56"/>
    <path d="M65.8013 12.2122C67.6323 12.2122 68.4359 12.4347 69.1955 12.6314L70.7633 9.21595C69.5278 9.49391 68.2646 9.62998 66.9983 9.6215H61.3432L63.032 5.96395H69.474C71.3368 5.96395 72.1404 6.17732 72.8985 6.38009L73.6309 3.37173H55.6443C55.7638 3.98914 55.7366 4.57023 55.0632 6.05626L50.3721 16.3283C50.0704 17.0283 49.6765 17.6848 49.2008 18.2804C48.7712 17.4953 48.4166 16.6715 48.1415 15.8198L45.6053 7.98869L50.8457 4.91374C52.3408 4.02697 53.1625 3.76215 54.2808 3.3687H47.0353C46.9857 3.56835 46.9214 3.76409 46.8431 3.95433C46.6056 4.47792 46.2197 4.86229 44.9637 5.6507L37.3777 10.3963L39.3449 6.05323C40.0244 4.56418 40.5555 3.98763 41.2259 3.36719H31.995C32.1191 3.98309 32.1055 4.55964 31.423 6.04718L26.7319 16.3237C26.0554 17.8083 25.5334 18.3863 24.8569 19.0204H34.0682C33.9728 18.3863 33.9728 17.8098 34.6462 16.3207L35.7282 13.9752L38.3371 12.3802L39.9502 19.0234H66.7864L68.8838 16.0075C67.6551 16.2961 66.3961 16.4358 65.134 16.4236H58.238L60.172 12.2122H65.8013Z" fill="#002D56"/>
    <path d="M89.5323 15.2158C87.6731 15.6057 85.7784 15.8015 83.8788 15.8C83.8788 15.8 80.8053 15.809 80.1683 15.8C79.3647 15.8 79.118 15.5745 79.4237 14.8057C79.7294 14.037 82.7877 7.45734 82.7877 7.45734C82.8952 7.21976 83.278 6.56905 84.2662 6.56905H90.0862C91.0219 6.58285 91.9494 6.74738 92.8328 7.05633L93.7589 3.45476H93.712L93.7392 3.35791H81.2623C77.8696 3.35791 75.4348 4.57911 73.8882 7.95974L70.9464 14.4184C69.3984 17.7793 70.7346 19.0172 74.1001 19.0172H86.9068L89.5323 15.2158Z" fill="#002D56"/>
    <path d="M112.186 16.3115L116.888 6.03643C117.559 4.55344 118.098 3.97537 118.755 3.35645H109.536C109.648 3.97083 109.644 4.5489 108.958 6.03341L107.331 9.61682H101.413L103.053 6.04249C103.74 4.55192 104.264 3.97386 104.937 3.35947H95.7064C95.8199 3.97537 95.8093 4.5489 95.1147 6.03795L90.4236 16.3145C89.7366 17.793 89.213 18.3816 88.5305 19.0081H97.7614C97.6555 18.3831 97.66 17.7975 98.3546 16.316L100.237 12.2045H106.139L104.264 16.316C103.583 17.796 103.053 18.3816 102.384 19.0096H111.596C111.488 18.3816 111.502 17.796 112.186 16.3115Z" fill="#002D56"/>
    <path d="M128.819 16.4052H121.946L123.861 12.2014H129.51C131.325 12.2014 132.144 12.4223 132.893 12.6175L134.458 9.20511C133.228 9.48425 131.97 9.62134 130.708 9.61369H125.044L126.727 5.9516H133.182C135.047 5.9516 135.843 6.16497 136.604 6.36472L137.326 3.35938H119.348C119.454 3.97527 119.442 4.55183 118.755 6.04239L114.064 16.3114C113.375 17.7959 112.841 18.3815 112.181 19.0065H130.48L132.574 15.9906C131.345 16.2852 130.083 16.4245 128.819 16.4052Z" fill="#002D56"/>
    <path d="M154.412 12.1939C156.148 12.1061 157.694 11.9805 158.752 9.68491L160.061 6.80971C161.259 4.18571 159.887 3.35645 156.257 3.35645H139.181C139.484 3.97688 139.475 4.55041 138.787 6.04249L134.096 16.316C133.417 17.799 132.898 18.3816 132.206 19.0096H141.437C141.328 18.3832 141.337 17.799 142.017 16.3175L143.889 12.206H146.331L146.982 19.0157H155.843C155.418 18.421 155.409 17.6099 155.229 16.6126L154.412 12.1939ZM152.127 6.81728L151.266 8.73004C150.921 9.48667 150.573 9.60925 149.548 9.60925H145.074L146.771 5.94715H151.23C152.243 5.94261 152.487 6.05308 152.127 6.81728Z" fill="#002D56"/>
    <path d="M169.115 6.62216C169.381 6.05469 169.72 5.94119 170.967 5.93665H178.326C179.857 5.93665 180.473 6.13792 181.307 6.45267L182.329 3.33838L167.334 3.34595C164.54 3.34595 162.376 4.61406 161.25 7.06706L159.674 10.5642C158.463 13.1746 159.338 13.9524 162.482 13.9524H168.944C170.17 13.9524 170.392 14.0735 170.12 14.6455L169.628 15.7184C169.372 16.2995 169.062 16.3978 167.812 16.3978H160.165C158.619 16.3978 157.965 16.1043 157.32 15.8122L156.555 18.9901H170.832C174.641 18.9901 176.431 17.6054 177.554 15.1524L179.304 11.3314C180.346 9.06154 178.931 8.17477 175.552 8.17628H169.932C168.694 8.17628 168.444 8.08397 168.721 7.49077L169.115 6.62216Z" fill="#002D56"/>
    <path d="M177.873 16.6597C178.105 16.6597 178.332 16.7285 178.524 16.8573C178.717 16.9862 178.867 17.1693 178.956 17.3835C179.044 17.5977 179.067 17.8333 179.022 18.0606C178.977 18.2879 178.865 18.4966 178.701 18.6603C178.536 18.8239 178.327 18.9353 178.1 18.9801C177.873 19.025 177.637 19.0013 177.423 18.9122C177.209 18.8231 177.026 18.6725 176.898 18.4795C176.77 18.2865 176.702 18.0597 176.702 17.828C176.701 17.674 176.731 17.5214 176.789 17.379C176.848 17.2366 176.934 17.1073 177.043 16.9986C177.152 16.8898 177.282 16.8039 177.424 16.7457C177.567 16.6875 177.72 16.6583 177.873 16.6597ZM177.863 16.8928C177.676 16.8849 177.491 16.9332 177.331 17.0313C177.172 17.1294 177.046 17.273 176.969 17.4435C176.892 17.614 176.867 17.8037 176.899 17.9881C176.93 18.1726 177.016 18.3434 177.146 18.4787C177.275 18.6139 177.442 18.7074 177.625 18.7471C177.807 18.7867 177.998 18.7708 178.172 18.7013C178.346 18.6319 178.495 18.512 178.6 18.3572C178.705 18.2024 178.761 18.0196 178.762 17.8325C178.766 17.7114 178.746 17.5906 178.703 17.4774C178.66 17.3641 178.594 17.2607 178.51 17.1731C178.427 17.0855 178.326 17.0156 178.215 16.9674C178.104 16.9193 177.984 16.8939 177.863 16.8928ZM177.666 18.5074H177.392V17.209C177.529 17.185 177.668 17.1728 177.807 17.1727C177.966 17.1557 178.125 17.1925 178.261 17.2771C178.301 17.3114 178.332 17.3547 178.352 17.4034C178.371 17.452 178.379 17.5048 178.374 17.5571C178.376 17.6287 178.351 17.6985 178.306 17.7539C178.26 17.8093 178.197 17.8468 178.126 17.8597V17.8703C178.24 17.89 178.312 17.9944 178.333 18.1866C178.34 18.2972 178.365 18.4061 178.406 18.5089H178.111C178.066 18.4015 178.04 18.2875 178.032 18.1715C178.03 18.1421 178.022 18.1135 178.009 18.0874C177.995 18.0613 177.976 18.0383 177.953 18.0199C177.931 18.0014 177.904 17.9879 177.876 17.9801C177.847 17.9723 177.818 17.9705 177.789 17.9747H177.663L177.666 18.5074ZM177.666 17.7599H177.796C177.957 17.7599 178.082 17.7084 178.082 17.5722C178.082 17.4633 178.004 17.3815 177.817 17.3815C177.767 17.3787 177.717 17.3787 177.666 17.3815V17.7599Z" fill="#002D56"/>
</svg>
