<svg width="187" height="45" viewBox="0 0 187 45" fill="none" xmlns="http://www.w3.org/2000/svg">
    <g clip-path="url(#clip0_239_1750)">
        <path d="M178.772 31.3187H181.554V21.3729C181.554 18.9875 183.343 18.0327 185.25 18.0327C185.637 18.0195 186.023 18.0462 186.404 18.1122L187 15.3687C186.79 15.3357 186.577 15.3224 186.364 15.3289C185.013 15.3289 182.707 15.8063 181.554 17.5553V15.4912H178.772V31.3187ZM163.826 21.1771C164.462 18.8314 166.21 17.3197 168.914 17.3197C171.418 17.3197 172.929 18.6723 173.166 21.1373L163.826 21.1771ZM160.527 23.7232C160.527 28.3749 163.667 31.9554 168.994 31.9554C172.253 31.9554 174.797 30.563 176.506 27.7795L174.638 26.6658C173.285 28.6135 171.617 29.5728 169.232 29.5728C165.654 29.5728 163.548 26.9487 163.548 23.3698H176.666C176.785 18.1597 173.365 15.1775 168.914 15.1775C163.428 15.1775 160.527 19.5521 160.527 23.7278M144.666 23.4493C144.666 19.5919 147.369 17.4818 150.27 17.4818C153.253 17.4818 155.955 19.1527 155.955 23.4493C155.955 27.7046 153.253 29.5698 150.231 29.5698C147.325 29.5698 144.666 27.3832 144.666 23.4493ZM141.487 23.7278C141.487 28.7374 145.223 31.9202 149.992 31.9202C152.855 31.9202 154.802 30.6074 155.915 29.2147V30.1698C155.915 34.1068 152.895 35.4991 149.516 35.4991C147.608 35.4991 145.579 34.982 143.951 33.7884L142.596 35.6933C144.624 37.2832 147.207 37.9196 149.83 37.9196C154.322 37.9196 158.701 35.574 158.701 29.5285V15.4912H156.038L155.958 17.4803C154.487 15.811 152.5 15.1346 150.273 15.1346C145.379 15.1346 141.49 18.9523 141.49 23.7247M125.51 31.3202H128.292V21.8534C128.531 18.9905 131.034 17.439 133.186 17.439C136.008 17.439 137.042 19.0701 137.042 22.1717V31.3187H139.824V21.8534C139.824 17.2003 137.281 15.1331 133.663 15.1331C131.715 15.1331 129.49 15.889 128.297 17.8368V15.4912H125.514L125.51 31.3202ZM110.563 21.1786C111.199 18.8329 112.949 17.3212 115.651 17.3212C118.155 17.3212 119.666 18.6738 119.905 21.1388L110.563 21.1786ZM107.265 23.7232C107.265 28.3749 110.405 31.9554 115.732 31.9554C118.992 31.9554 121.544 30.563 123.245 27.7795L121.377 26.6658C120.025 28.6135 118.355 29.5728 115.971 29.5728C112.393 29.5728 110.286 26.9487 110.286 23.3698H123.404C123.523 18.1597 120.105 15.1775 115.653 15.1775C110.167 15.1775 107.265 19.5521 107.265 23.7278M93.2738 31.3233H107.146L107.225 29.1811H97.3237L107.3 17.1314V15.4912H93.4282L93.3472 17.6777H103.364L93.2692 29.6878L93.2738 31.3233ZM79.7534 26.785C79.7534 24.1991 82.9331 23.4049 85.6373 23.4049C86.9479 23.4049 87.9024 23.4447 88.5431 23.558V25.3941C88.4636 28.1774 86.0395 29.689 83.5342 29.689C81.3089 29.689 79.758 28.4957 79.758 26.782M76.8168 27.0605C76.8168 30.4404 79.758 31.8728 82.7818 31.8728C85.1676 31.8728 87.1544 31.1963 88.5462 29.4459V31.3554H91.3284V21.8932C91.3284 16.7229 87.7908 15.1729 83.9746 15.1729C82.1469 15.1729 79.7611 15.5707 78.0527 16.882L79.0454 18.6723C80.1984 17.9562 82.0674 17.5186 83.4975 17.5186C86.0824 17.5186 88.3077 18.3142 88.5447 21.4556C87.594 21.3556 86.639 21.3045 85.6832 21.3025C81.1514 21.3025 76.8124 22.8939 76.8124 27.0695M72.042 31.3187H74.8239V10.4402H72.042V31.3187ZM60.7132 31.8802C65.5632 31.8802 69.9758 29.8514 69.9758 25.3972C69.9758 21.1021 66.3981 20.3478 62.8192 19.6714L60.3554 19.194C56.778 18.5177 55.2271 17.8016 55.2271 15.8538C55.2271 13.785 57.812 12.5518 61.1506 12.5518C63.5749 12.5518 66.0801 13.0292 68.3056 14.1829L69.6177 12.0759C66.7945 10.4402 63.5749 9.99951 61.1904 9.99951C56.3804 9.99951 52.2462 12.2672 52.2462 16.3618C52.2462 20.4181 56.0698 21.4112 59.5204 22.0493L62.1464 22.5297C65.1671 23.0867 66.9153 24.0017 66.9153 25.7905C66.9153 28.2554 64.0092 29.3694 60.7148 29.3694C58.7265 29.3694 55.3877 28.9318 53.0034 27.3419L51.5718 29.3694C54.1151 31.1153 56.778 31.8802 60.7132 31.8802Z" fill="#141414"/>
        <path d="M44.6142 22.3169C44.6142 26.7307 43.3058 31.0456 40.8548 34.7156C38.4035 38.3855 34.9197 41.2459 30.8437 42.9351C26.7674 44.624 22.2823 45.066 17.9552 44.2049C13.628 43.3437 9.6533 41.2182 6.53361 38.0972C3.41389 34.9762 1.28936 30.9997 0.428635 26.6707C-0.432088 22.3416 0.00966262 17.8544 1.69803 13.7766C3.38639 9.69871 6.24554 6.21327 9.91392 3.76109C13.5823 1.30886 17.8952 0 22.3071 0C28.2231 0 33.8973 2.35123 38.0805 6.53646C42.2641 10.7217 44.6142 16.3981 44.6142 22.3169Z" fill="#EBFF00"/>
        <path d="M39.4201 26.4617C38.1965 26.4617 36.7559 25.9032 35.3656 25.1197C33.6649 24.0486 32.4703 22.5629 31.848 21.9217C31.4273 21.4872 30.5234 20.6518 29.8595 20.3258C31.6949 20.3258 36.2665 20.3916 38.7198 18.0046C38.9599 17.7705 38.68 17.5242 38.4261 17.72C36.7269 19.0313 33.8865 18.9931 31.6138 18.9059C29.2982 18.8187 27.833 18.5999 26.2377 18.5999C24.6426 18.5999 23.1789 18.9059 20.8603 18.9059C18.8001 18.9059 14.8343 18.6855 12.4238 18.0934L12.1317 18.0184C11.835 17.9419 12.0904 17.4446 11.7524 17.4063C11.6423 17.3956 11.2615 17.5318 10.5411 17.8837C10.1082 18.0949 9.43681 18.3963 9.01163 18.8355C8.53444 19.3328 7.97467 20.4222 7.98996 20.713C8.00066 20.9302 8.9994 22.0503 9.53777 21.885C9.79778 21.8055 10.5013 21.5316 10.8898 21.426C11.5184 21.2454 12.6992 21.1689 12.693 22.3701C12.6854 23.8543 7.39654 26.4601 5.13142 26.4601C5.07968 26.4568 5.02782 26.4642 4.97903 26.4817C4.93026 26.4991 4.88558 26.5266 4.84779 26.562C4.80998 26.5976 4.77984 26.6405 4.75927 26.6879C4.73867 26.7356 4.72803 26.7869 4.72803 26.8388C4.72803 26.8906 4.73867 26.9419 4.75927 26.9896C4.77984 27.037 4.80998 27.0801 4.84779 27.1155C4.88558 27.1509 4.93026 27.1784 4.97903 27.1958C5.02782 27.2135 5.07968 27.2207 5.13142 27.2176C9.36493 27.2176 15.2579 24.4266 16.873 23.6585C19.6153 22.3563 24.349 22.1543 27.547 23.5758C28.6575 24.0685 34.9421 27.2176 39.4768 27.2176C39.9921 27.2176 39.9921 26.4601 39.4157 26.4601" fill="#141414"/>
    </g>
    <defs>
        <clipPath id="clip0_239_1750">
            <rect width="187" height="44.6337" fill="white"/>
        </clipPath>
    </defs>
</svg>
