<svg width="187" height="75" viewBox="0 0 187 75" fill="none" xmlns="http://www.w3.org/2000/svg">
    <g clip-path="url(#clip0_239_1813)">
        <path fill-rule="evenodd" clip-rule="evenodd" d="M165.713 0.00464185H165.648C165.254 0.0789115 163.87 1.82889 163.453 2.27451C162.64 3.24001 161.731 4.13125 160.937 5.11996C159.586 6.80031 157.349 9.0284 155.919 10.8155C155.766 11.0151 155.622 11.1126 155.459 11.2983C155.292 11.4839 155.274 11.5629 155.074 11.7578L154.215 12.6908C154.03 12.8997 154.007 12.9972 153.798 13.2061L152.558 14.6125C152.359 14.8307 152.317 14.8539 152.117 15.1046C151.788 15.5316 148.942 18.7624 148.757 18.883C148.441 18.08 148.074 17.2909 147.661 16.5343C147.452 16.1258 147.332 15.7869 147.123 15.3692C146.914 14.9514 146.737 14.6125 146.528 14.1855L139.603 0H119.513C119.782 0.663785 120.107 1.309 120.478 1.92173C121.212 3.14253 122.883 6.31292 123.542 7.6312L124.563 9.49723C124.749 9.83608 124.87 10.1424 125.046 10.4627C125.222 10.783 125.385 11.0662 125.584 11.4607C125.784 11.8553 125.905 12.0085 126.09 12.3937C126.893 14.0091 127.836 15.5456 128.648 17.1563C129.307 18.4421 130.022 19.635 130.658 20.9208C131.758 23.1907 133.062 25.4002 134.237 27.6515C134.399 27.9718 134.576 28.2457 134.743 28.5845C135.142 29.2019 135.486 29.861 135.764 30.5387C135.49 30.9287 135.184 31.2954 134.85 31.6389L133.401 33.0778C133.206 33.296 133.16 33.4167 132.942 33.6395L130.045 36.6149C129.883 36.7913 129.739 36.9027 129.572 37.0745L128.133 38.6109C127.97 38.7595 127.808 38.9173 127.659 39.0844L126.211 40.6116C125.246 41.5863 124.345 42.6633 123.366 43.6288L122.386 44.6175C122.219 44.7614 122.061 44.9238 121.913 45.0909C121.472 45.6155 120.97 46.1121 120.465 46.6181C119.49 47.5975 118.598 48.6605 117.61 49.6353L115.697 51.6313L114.718 52.6107C113.738 53.5762 112.843 54.6624 111.863 55.6279C111.107 56.3846 109.138 58.362 108.567 59.1093C108.15 59.6478 105.341 62.2936 105.272 62.6789C112.276 62.6789 119.281 62.6139 126.295 62.6789C127.283 62.6789 127.172 62.2519 127.887 61.5834C128.226 61.2446 128.435 60.9568 128.773 60.604C129.112 60.2512 129.006 60.2976 129.2 60.0888C129.641 59.6153 130.143 59.1465 130.537 58.6312C130.932 58.116 131.396 57.6657 131.832 57.2015L133.104 55.7533C133.564 55.3077 134 54.8249 134.399 54.3282L137.495 50.87C137.639 50.6937 137.769 50.6055 137.913 50.443C138.057 50.2759 138.131 50.1366 138.34 49.9277C138.944 49.3011 139.44 48.6327 140.086 48.0153C140.735 47.4026 142.708 45.0306 143.576 44.0976C143.85 43.7494 144.157 43.4292 144.486 43.1414C144.635 43.5638 144.825 43.9723 145.057 44.3622L146.849 48.0199L147.967 50.3687L152.159 58.9329C152.391 59.3832 152.568 59.736 152.786 60.1862C153.203 61.0218 153.589 61.8202 154.007 62.6232H174.096C174.096 62.108 170.945 56.6724 170.462 55.6976L167.816 50.7679C167.268 49.7699 166.716 48.8555 166.238 47.8482C166.038 47.4397 165.885 47.2355 165.699 46.8502C165.258 45.9822 164.051 43.6891 163.592 42.9186L162.548 40.9736C162.362 40.6023 162.185 40.347 162.009 39.9849C161.833 39.6228 161.656 39.3815 161.471 38.9869C161.132 38.3185 160.77 37.7243 160.371 37.0652L157.2 31.1375C157.571 30.8869 162.622 25.5487 163.216 24.9035L166.456 21.5011C166.809 21.1483 166.994 20.8651 167.347 20.5216L173.878 13.6935C174.305 13.1921 174.77 12.7094 175.262 12.2684L176.742 10.8526L177.216 10.3931L178.608 8.89843C179.773 7.73332 181.069 6.27578 182.317 5.02248L183.25 4.00128C183.58 3.6717 183.863 3.40712 184.183 3.06826C184.503 2.72941 184.415 2.7619 184.61 2.55302C185.446 1.78247 186.24 0.946938 186.968 0.0696278L165.685 0.0139256L165.713 0.00464185Z" fill="#FF0000"/>
        <path fill-rule="evenodd" clip-rule="evenodd" d="M66.2431 15.657H102.668C102.58 15.8426 101.647 20.7166 101.568 21.3896L101.196 23.3996C100.101 23.3996 65.0223 23.3996 64.8691 23.3996C64.716 23.3996 64.7392 23.3996 64.5489 24.3558L58.7326 53.6876C58.5794 54.4443 57.0198 61.8759 57.0198 62.47H71.6091C71.6555 61.9873 71.7437 61.4999 71.8737 61.031L75.629 42.0737C75.7404 41.5492 76.1999 39.4279 76.1999 39.0751H99.0982C99.2745 39.0751 99.4556 39.0797 99.6366 39.0797C102.909 39.0797 106.14 38.3231 109.078 36.8749C110.313 36.1368 111.394 35.1574 112.249 34.0016C113.14 32.7483 113.808 31.3464 114.226 29.861C115.326 26.2589 116.607 19.0687 117.522 14.7982C118.269 11.0755 119.299 6.01584 116.338 2.89651C115.015 1.65714 113.358 0.826249 111.575 0.505962C110.136 0.204241 108.66 0.0278511 107.184 0H69.3114C69.3114 0.538455 69.0607 1.31829 68.94 1.92173L66.9951 11.716C66.8512 12.4309 66.2478 15.1742 66.2478 15.657H66.2431Z" fill="black"/>
        <path fill-rule="evenodd" clip-rule="evenodd" d="M5.40232 30.2923C5.40232 37.8678 11.4089 39.0747 18.2463 39.0747H39.6963C39.6313 39.7895 38.4894 45.0023 38.3038 46.186C38.1831 46.9101 38.3038 46.8359 37.4821 46.8127C33.3741 46.7477 28.7972 46.8127 24.6381 46.8127H1.7399C1.71205 47.0494 1.66563 47.2861 1.596 47.5136C1.21537 49.1243 0.950782 50.7815 0.806885 52.434V54.6295C0.848661 57.0851 2.12053 59.3642 4.18615 60.6872C6.48851 61.8337 9.0276 62.4325 11.6038 62.4325C11.692 62.4325 11.7849 62.4325 11.8731 62.4325H36.5538C40.1419 62.4325 44.4031 61.4113 47.1604 59.2482C47.7406 58.8165 48.2652 58.3059 48.7108 57.7349C51.0271 55.0798 51.9369 51.3245 52.6192 47.8571L54.6941 37.6589C55.5622 33.2677 56.407 28.1617 52.1922 25.3395C50.3029 24.1326 47.0119 23.3945 43.9575 23.3945H6.39103C6.39103 24.2951 5.45802 27.4469 5.45802 30.2877H5.41624L5.40232 30.2923Z" fill="black"/>
        <path fill-rule="evenodd" clip-rule="evenodd" d="M7.95069 15.6567H59.011C59.141 14.176 59.9533 12.0871 59.9533 9.35309C59.9765 9.06065 59.9905 8.76357 59.9905 8.47114C59.9905 7.03681 59.6748 5.6164 59.0714 4.31204C58.5004 3.30476 57.6835 2.45066 56.6994 1.84257C54.4063 0.631051 51.8533 -0.00488281 49.2585 -0.00488281C49.1518 -0.00488281 49.0357 -0.00488281 48.9289 -0.000240962H24.4617C21.7184 0.0415357 19.0261 0.770306 16.6356 2.11644C16.2039 2.34854 15.7815 2.61312 15.3823 2.90556C14.7881 3.31868 14.2311 3.79215 13.7251 4.31204C13.0428 4.95726 12.4161 5.67674 11.8684 6.44265C10.5362 8.24833 9.49642 10.2675 8.80479 12.4028C8.42415 13.4704 8.15493 14.5752 8.00175 15.6939L7.94604 15.6521L7.95069 15.6567Z" fill="black"/>
        <path d="M0.273141 72.4589L1.43825 72.3986C1.45681 72.7699 1.51716 73.0159 1.62856 73.1459C1.80495 73.3548 2.13917 73.4615 2.61728 73.4615C3.01648 73.4615 3.30891 73.3873 3.4853 73.2434C3.66633 73.0995 3.75453 72.9277 3.75453 72.7235C3.75453 72.5471 3.68026 72.3986 3.53636 72.2779C3.43424 72.185 3.15109 72.0411 2.69155 71.8415C2.232 71.6419 1.89315 71.4748 1.67962 71.3402C1.4661 71.2056 1.30363 71.0292 1.1783 70.8157C1.05761 70.6022 0.99727 70.3515 0.99727 70.0637C0.99727 69.5624 1.1783 69.1446 1.54037 68.815C1.90243 68.4855 2.42696 68.3184 3.11395 68.3184C3.81023 68.3184 4.35333 68.4808 4.73396 68.8104C5.11459 69.1353 5.32812 69.5763 5.36525 70.1194L4.1955 70.1705C4.16765 69.8873 4.06089 69.6691 3.8845 69.516C3.70811 69.3674 3.44817 69.2885 3.10467 69.2885C2.76582 69.2885 2.52444 69.3489 2.38054 69.4695C2.23664 69.5856 2.16237 69.7388 2.16237 69.9198C2.16237 70.0916 2.22736 70.2308 2.36197 70.3422C2.49659 70.4536 2.78902 70.6114 3.23928 70.8064C3.92164 71.1035 4.35797 71.3448 4.54364 71.5259C4.82215 71.7997 4.96141 72.1432 4.96141 72.5703C4.96141 73.0948 4.75253 73.5451 4.3394 73.9164C3.92628 74.2924 3.34605 74.4781 2.60335 74.4781C2.09275 74.4781 1.65177 74.3899 1.27578 74.2228C0.904433 74.051 0.639847 73.8143 0.482025 73.508C0.328843 73.2062 0.254574 72.8535 0.268499 72.4589H0.273141ZM55.3209 74.376H54.1L55.3441 68.4298H57.7578C58.1895 68.4298 58.5284 68.4808 58.7744 68.5829C59.025 68.6851 59.2246 68.8522 59.3685 69.0843C59.5124 69.321 59.5867 69.5995 59.5867 69.9198C59.5867 70.2215 59.5264 70.514 59.4103 70.7971C59.2943 71.0849 59.1504 71.3077 58.9833 71.4795C58.8162 71.6512 58.6351 71.7812 58.4402 71.8647C58.2452 71.9529 57.9853 72.0179 57.6557 72.0643C57.4654 72.0922 57.1033 72.1061 56.5788 72.1061H55.799L55.3255 74.3713L55.3209 74.376ZM56.0032 71.1128H56.3792C57.0244 71.1128 57.4515 71.071 57.6696 70.9921C57.8832 70.9132 58.0549 70.7832 58.1802 70.6068C58.3056 70.4304 58.3659 70.2355 58.3659 70.0219C58.3659 69.878 58.3334 69.762 58.2684 69.6691C58.2034 69.5763 58.1152 69.5113 57.9992 69.4695C57.8832 69.4278 57.6279 69.4046 57.2287 69.4046H56.3513L55.9939 71.1081L56.0032 71.1128ZM116.208 74.376H114.62L117.243 71.3773L115.767 68.4298H117.044L117.628 69.516C117.647 69.5577 117.782 69.8223 118.028 70.319C118.042 70.3469 118.06 70.3793 118.079 70.4258C118.404 70.0312 118.677 69.7109 118.9 69.4603L119.829 68.4298H121.384L118.668 71.5537L120.13 74.376H118.752L118.297 73.508C118.06 73.0484 117.902 72.7235 117.823 72.5239C117.721 72.6771 117.452 72.9973 117.02 73.4801L116.213 74.376H116.208Z" fill="#FF0000" stroke="#FF0000" stroke-width="0.319385" stroke-miterlimit="22.9256"/>
        <path d="M11.5018 74.376H10.281L11.525 68.4298H13.9388C14.3705 68.4298 14.7093 68.4808 14.9553 68.5829C15.206 68.6851 15.4056 68.8522 15.5495 69.0843C15.6934 69.321 15.7677 69.5995 15.7677 69.9198C15.7677 70.2215 15.7073 70.514 15.5913 70.7971C15.4752 71.0849 15.3313 71.3077 15.1642 71.4795C14.9971 71.6512 14.8115 71.7812 14.6165 71.8647C14.4215 71.9529 14.1616 72.0179 13.832 72.0643C13.6417 72.0922 13.2796 72.1061 12.7551 72.1061H11.9753L11.5018 74.3713V74.376ZM12.1842 71.1128H12.5602C13.2054 71.1128 13.6324 71.071 13.8506 70.9921C14.0641 70.9132 14.2359 70.7832 14.3612 70.6068C14.4819 70.4304 14.5469 70.2355 14.5469 70.0219C14.5469 69.878 14.5144 69.762 14.4494 69.6691C14.3844 69.5763 14.2962 69.5113 14.1802 69.4695C14.0641 69.4278 13.8088 69.4046 13.4096 69.4046H12.5323L12.1749 71.1081L12.1842 71.1128ZM20.8505 72.0411C20.8505 71.6883 20.9016 71.317 21.0083 70.9271C21.1476 70.4026 21.3565 69.9523 21.6396 69.567C21.9228 69.1817 22.2802 68.88 22.7072 68.6526C23.1389 68.4298 23.6263 68.3184 24.1741 68.3184C24.9121 68.3184 25.5016 68.5458 25.9565 69.0054C26.4068 69.4649 26.6342 70.0683 26.6342 70.825C26.6342 71.4516 26.4857 72.0597 26.1933 72.6492C25.8962 73.2387 25.497 73.689 24.991 74.0046C24.4851 74.3249 23.9141 74.4781 23.2735 74.4781C22.7212 74.4781 22.257 74.3528 21.881 74.1021C21.505 73.8514 21.2404 73.5404 21.0826 73.1691C20.9248 72.7978 20.8459 72.4171 20.8459 72.0411H20.8505ZM22.062 72.0179C22.062 72.4264 22.1874 72.7699 22.4334 73.0484C22.684 73.3269 23.009 73.4615 23.4174 73.4615C23.747 73.4615 24.0627 73.3501 24.3644 73.132C24.6707 72.9138 24.9214 72.5842 25.121 72.1386C25.3206 71.693 25.4181 71.2659 25.4181 70.8435C25.4181 70.3747 25.2928 70.008 25.0421 69.7388C24.7914 69.4695 24.4711 69.3396 24.0812 69.3396C23.4871 69.3396 22.9997 69.6181 22.6237 70.1751C22.2477 70.7321 22.062 71.3448 22.062 72.0133V72.0179ZM32.8218 74.376H31.601L32.845 68.4298H35.4863C35.9412 68.4298 36.2939 68.4762 36.5446 68.569C36.7953 68.6665 36.9995 68.8336 37.1573 69.0843C37.3105 69.3349 37.3894 69.6366 37.3894 69.9894C37.3894 70.4954 37.2362 70.9132 36.9345 71.2427C36.6328 71.5723 36.1732 71.7765 35.5605 71.8508C35.7183 71.9901 35.8622 72.1757 36.0015 72.4078C36.2754 72.872 36.5817 73.5312 36.9159 74.3806H35.6023C35.5002 74.0464 35.2913 73.5265 34.9803 72.8163C34.8132 72.431 34.6368 72.1757 34.4418 72.0411C34.3258 71.9622 34.1216 71.9251 33.8338 71.9251H33.3324L32.8172 74.3853L32.8218 74.376ZM33.5228 71.0292H34.1726C34.8318 71.0292 35.2634 70.9874 35.4816 70.9085C35.6951 70.8296 35.8622 70.7089 35.9876 70.5372C36.1083 70.3701 36.1686 70.1937 36.1686 70.008C36.1686 69.7898 36.0804 69.6274 35.904 69.5206C35.7973 69.4556 35.5652 69.4231 35.2031 69.4231H33.857L33.5228 71.0246V71.0292ZM44.6586 74.376H43.4331L44.4682 69.4278H42.7229L42.9225 68.4298H47.6061L47.4065 69.4278H45.689L44.6539 74.376H44.6586ZM64.6649 72.0411C64.6649 71.6883 64.716 71.317 64.8228 70.9271C64.962 70.4026 65.1709 69.9523 65.454 69.567C65.7372 69.1817 66.0946 68.88 66.5263 68.6526C66.958 68.4298 67.4454 68.3184 67.9931 68.3184C68.7312 68.3184 69.3207 68.5458 69.7756 69.0054C70.2259 69.4649 70.4533 70.0683 70.4533 70.825C70.4533 71.4516 70.3048 72.0597 70.0123 72.6492C69.7153 73.2387 69.3161 73.689 68.8101 74.0046C68.3041 74.3249 67.7332 74.4781 67.0926 74.4781C66.5402 74.4781 66.0761 74.3528 65.7001 74.1021C65.3241 73.8514 65.0548 73.5404 64.9017 73.1691C64.7438 72.7978 64.6649 72.4171 64.6649 72.0411ZM65.8765 72.0179C65.8765 72.4264 66.0018 72.7699 66.2478 73.0484C66.4985 73.3269 66.8234 73.4615 67.2272 73.4615C67.5568 73.4615 67.8725 73.3501 68.1742 73.132C68.4759 72.9138 68.7265 72.5842 68.9261 72.1386C69.1257 71.693 69.2232 71.2659 69.2232 70.8435C69.2232 70.3747 69.0979 70.008 68.8472 69.7388C68.5966 69.4695 68.2763 69.3396 67.8864 69.3396C67.2876 69.3396 66.8048 69.6181 66.4288 70.1751C66.0528 70.7321 65.8672 71.3448 65.8672 72.0133L65.8765 72.0179ZM75.3412 74.376L76.5852 68.4298H77.806L76.562 74.376H75.3412ZM87.0944 74.376H85.9571L84.351 70.3793L83.5155 74.376H82.3782L83.6222 68.4298H84.7595L86.3702 72.4078L87.2011 68.4298H88.3384L87.0944 74.376ZM95.5797 74.376H94.3542L95.394 69.4278H93.6487L93.8482 68.4298H98.5319L98.3323 69.4278H96.6148L95.5797 74.376ZM105.021 74.376L106.265 68.4298H110.666L110.457 69.4278H107.277L106.985 70.7739H110.072L109.863 71.7719H106.771L106.418 73.3826H109.872L109.663 74.3806H105.021V74.376ZM127.984 74.376H126.764L127.799 69.4278H126.053L126.253 68.4298H130.937L130.737 69.4278H129.02L127.984 74.376ZM136.363 74.376H135.142L136.386 68.4298H139.027C139.482 68.4298 139.835 68.4762 140.086 68.569C140.336 68.6665 140.541 68.8336 140.698 69.0843C140.852 69.3349 140.931 69.6366 140.931 69.9894C140.931 70.4954 140.777 70.9132 140.476 71.2427C140.174 71.5723 139.714 71.7765 139.102 71.8508C139.259 71.9901 139.403 72.1757 139.543 72.4078C139.816 72.872 140.118 73.5312 140.457 74.3806H139.143C139.037 74.0464 138.832 73.5265 138.521 72.8163C138.354 72.431 138.173 72.1757 137.983 72.0411C137.867 71.9622 137.663 71.9251 137.375 71.9251H136.874L136.358 74.3853L136.363 74.376ZM137.064 71.0292H137.714C138.373 71.0292 138.805 70.9874 139.023 70.9085C139.236 70.8296 139.403 70.7089 139.529 70.5372C139.649 70.3701 139.71 70.1937 139.71 70.008C139.71 69.7898 139.622 69.6274 139.445 69.5206C139.338 69.4556 139.106 69.4231 138.744 69.4231H137.398L137.064 71.0246V71.0292ZM145.763 74.376L147.007 68.4298H151.407L151.198 69.4278H148.019L147.726 70.7739H150.808L150.6 71.7719H147.508L147.155 73.3826H150.609L150.4 74.3806H145.758L145.763 74.376ZM159.377 74.376H158.217L157.994 69.4092L157.052 74.376H155.947L157.191 68.4298H158.936L159.117 72.5192L160.988 68.4298H162.747L161.661 74.376H160.552L161.587 69.4417L159.373 74.376H159.377ZM167.514 74.376L168.758 68.4298H173.159L172.95 69.4278H169.77L169.478 70.7739H172.56L172.351 71.7719H169.26L168.907 73.3826H172.361L172.152 74.3806H167.51L167.514 74.376Z" fill="black" stroke="black" stroke-width="0.319385" stroke-miterlimit="22.9256"/>
    </g>
    <defs>
        <clipPath id="clip0_239_1813">
            <rect width="187" height="74.7524" fill="white"/>
        </clipPath>
    </defs>
</svg>
