<svg width="187" height="135" viewBox="0 0 187 135" fill="none" xmlns="http://www.w3.org/2000/svg">
    <path d="M20.8563 88.9595V68.4654H26.1332C29.0551 68.4654 31.4101 68.5881 31.4101 68.7927C31.4101 68.9563 31.6147 70.1718 31.8134 71.51C32.0588 72.8482 32.7075 77.1492 33.2743 81.047C33.8411 84.9448 34.4898 89.2458 34.6943 90.584C34.8989 91.9222 35.0566 93.1436 35.0566 93.3423C35.0566 93.5059 35.2203 93.6286 35.419 93.6286C35.6176 93.6286 35.8631 92.8572 35.9449 91.9222C36.0267 90.9463 36.839 85.3071 37.6922 79.2997L39.3167 68.4245L44.5936 68.5472L49.8705 68.67V109.249H43.384L43.1795 95.2473C43.0567 87.5394 42.934 81.4502 42.8522 81.7366C42.8113 81.982 41.8354 88.1063 40.7426 95.3292C39.6089 102.511 38.633 108.682 38.5103 108.963C38.3876 109.29 37.3766 109.448 35.3021 109.448C31.9361 109.448 32.1348 109.652 31.6088 105.591C31.4861 104.492 31.2056 102.669 31.0011 101.535C30.7965 100.437 30.2706 96.9479 29.7856 93.8273C28.611 85.9967 28.161 83.8871 27.7169 83.8871C27.5124 83.8871 27.3546 89.0822 27.3546 96.6732V109.453H20.8563V88.9595ZM52.1087 109.126C52.1087 108.922 53.7742 99.7938 55.761 88.8367C57.7888 77.8797 59.4134 68.7868 59.4134 68.67C59.4134 68.5472 61.2775 68.5063 63.5508 68.5472L67.729 68.67L68.1732 70.9023C68.4186 72.1178 68.8218 74.2274 69.0673 75.5714C69.3127 76.9096 69.7977 79.551 70.125 81.4561C70.4873 83.3612 71.2996 87.9076 71.9891 91.6008C72.6787 95.2941 73.491 99.8405 73.8124 101.746C74.1747 103.651 74.6247 105.965 74.8292 106.9C75.4369 109.535 75.5188 109.459 71.7846 109.459C69.8795 109.459 68.3368 109.418 68.3368 109.337C68.3368 109.255 68.1323 108.121 67.9336 106.777C67.6881 105.48 67.4076 103.773 67.2849 103.043L67.0804 101.705L63.5508 101.827L60.062 101.95L59.577 105.117C58.8465 109.705 59.092 109.459 55.3578 109.459C53.5696 109.453 52.1087 109.29 52.1087 109.126ZM66.309 95.8142C66.309 95.2064 63.7904 80.8425 63.6735 80.6789C63.5917 80.5971 63.428 80.9652 63.3112 81.4912C62.908 83.3144 61.0379 94.8441 61.0379 95.4519C61.0379 95.9369 61.6048 96.0596 63.6735 96.0596C65.1344 96.0596 66.309 95.9369 66.309 95.8142ZM77.6751 88.9595V68.4654H84.9798C91.4722 68.4654 92.489 68.5472 93.909 69.2777C97.725 71.2237 98.0873 73.2164 97.8886 90.175C97.725 104.498 97.6841 104.825 95.0895 107.303C93.2253 109.05 91.2326 109.413 83.887 109.453H77.681V88.9595H77.6751ZM90.1749 102.838C90.7826 102.19 90.8644 100.851 90.9872 89.2458C91.1099 76.6233 91.069 76.3019 90.2567 75.2442C89.4853 74.2683 89.123 74.1514 86.768 74.1514H84.1734V103.855L86.8089 103.692C88.5912 103.569 89.684 103.282 90.1749 102.838ZM101.617 89.0004V68.4654H108.922C117.039 68.4654 118.172 68.7109 120.001 70.8614C121.866 73.0937 121.988 74.1456 121.825 89.3685L121.702 103.575L120.603 105.48C119.996 106.497 118.78 107.794 117.968 108.32C116.548 109.173 115.94 109.255 109.039 109.418L101.611 109.541V89.0004H101.617ZM113.994 102.757L115.011 101.781V88.7549C115.011 73.456 115.215 74.1456 110.751 74.1456H108.109V103.768H110.546C112.615 103.773 113.182 103.61 113.994 102.757ZM125.968 88.9595V68.4654H143.014V74.1456H132.46V83.8871H140.577V89.5672H132.46L132.542 96.5856L132.665 103.563L138.263 103.686L143.861 103.808L143.739 106.526L143.616 109.243L134.809 109.366L125.962 109.448V88.9595H125.968ZM146.135 109.208C145.971 109.044 145.848 99.7938 145.848 88.6731V68.4654H153.439L156.443 78.6102C158.068 84.2085 159.569 88.7549 159.733 88.7549C159.897 88.7549 160.06 84.2085 160.06 78.6102V68.4654H166.547V109.494L163.017 109.372L159.447 109.249L158.348 105.392C155.222 94.1487 152.989 86.7271 152.791 86.7271C152.668 86.7271 152.545 91.7995 152.545 97.9705V109.255L149.501 109.378C147.8 109.413 146.298 109.372 146.135 109.208ZM26.9046 65.2163C24.5087 64.6086 22.5218 63.2294 21.4641 61.3594C20.57 59.8576 20.4473 59.168 20.4473 55.7611V51.8224H26.9397V54.867C26.9397 57.6253 27.0624 58.0752 27.9974 59.0044C28.8915 59.8985 29.2947 60.0212 30.7147 59.8167C31.6497 59.694 32.6198 59.2498 32.9061 58.8817C33.5548 57.9876 33.5548 53.523 32.9061 52.3893C32.6198 51.9042 30.592 49.8356 28.3597 47.761C20.979 41.029 20.4531 40.1408 20.4531 34.373C20.4531 29.9493 21.2654 28.0033 23.6204 26.3787C26.8286 24.2282 33.1165 24.1873 36.4416 26.256C38.9603 27.8397 39.6498 29.3415 39.8485 33.6834L40.0121 37.2131H33.4379V35.1853C33.4379 32.5088 32.5847 30.8843 31.042 30.5161C28.2428 29.9084 26.4546 32.3043 27.1033 35.7521C27.4305 37.4176 27.711 37.739 33.923 43.46C36.5994 45.8969 38.5921 48.1292 39.0771 49.1402C40.7426 52.5062 40.5381 59.9745 38.7908 62.3704C37.4117 64.2346 34.9339 65.2923 31.4861 65.4559C29.7856 65.5436 27.7169 65.4208 26.9046 65.2163ZM48.4564 47.9714V30.3174H41.1517V24.6373H62.0489V30.3174H54.9488V65.6254H48.4564V47.9714ZM64.2812 45.1313V24.6373H81.3274V30.2765L76.1733 30.3992L70.9782 30.522V40.2635L74.9578 40.3862L78.8964 40.5089V46.1482H70.7795V59.9452H82.1397V65.6254H64.2812V45.1313ZM89.6431 65.1345C89.4795 64.6086 88.8717 60.8744 85.7862 41.8822C84.8921 36.3248 83.8812 30.2765 83.5539 28.4883C83.2267 26.7002 82.9462 25.1223 82.9462 24.9587C82.9462 24.7542 84.4889 24.6315 86.3531 24.6315C90.3327 24.6315 90.0054 24.2692 90.6541 29.4993C90.8586 31.4044 91.4254 35.7054 91.8696 39.0363C92.3137 42.4023 92.8046 46.1365 92.9273 47.3578C93.1727 49.7947 93.4123 50.8056 93.6987 50.566C93.9032 50.3206 94.7973 43.9918 96.7842 28.6111L97.3101 24.6315H100.799C104.247 24.6315 104.328 24.6724 104.165 25.5665C103.639 28.6929 98.7243 59.0453 98.362 61.3594C97.6724 65.9468 98.0347 65.6195 93.6519 65.6195C90.9404 65.6254 89.7658 65.4617 89.6431 65.1345ZM106.485 45.1313V24.6373H123.73L123.607 27.4774L123.443 30.3174H113.38V40.4622H121.538L121.416 43.2204L121.293 45.9378L117.354 46.0605L113.375 46.1832V59.8985L118.973 60.0212L124.53 60.1439L124.653 62.9022L124.776 65.6195H106.473V45.1313H106.485Z" fill="#040404"/>
</svg>
