<svg width="289" height="45" viewBox="0 0 289 45" fill="none" xmlns="http://www.w3.org/2000/svg">
    <path d="M12.4727 35.2911V43.689C12.4727 44.1497 12.1495 44.3977 11.7543 44.3977C11.3592 44.3977 11.0359 44.1497 11.0359 43.689V35.2911C4.89366 34.9013 0.26001 29.2318 0.26001 22.1803C0.26001 15.1288 4.89366 9.45934 11.0359 9.06952V1.02591C11.0359 0.140043 11.8621 -0.143433 12.5087 0.210912C14.6997 1.34482 16.5675 4.71109 16.5675 8.53799C16.5675 9.10499 16.5317 9.63652 16.4598 10.1326C20.5187 12.1523 23.2486 16.7588 23.2486 22.1803C23.2486 29.2318 18.615 34.9013 12.4727 35.2911ZM11.0359 33.8737V30.4011C8.44968 30.0822 6.51004 27.9916 6.51004 25.2277C6.51004 22.9953 7.37212 21.4007 9.95831 18.4243L11.0359 17.184V10.4869C5.32469 10.8767 1.73272 16.1919 1.73272 22.1803C1.73272 28.1687 5.32469 33.4839 11.0359 33.8737ZM11.0359 19.2392L10.9282 19.381C8.84484 21.7905 7.94683 23.3497 7.94683 25.2277C7.94683 27.212 9.06036 28.7003 11.0359 28.9838V19.2392ZM12.4727 1.98264V9.06952C13.3707 9.10499 14.2687 9.28217 15.0949 9.56558C15.1308 9.2467 15.1308 8.89235 15.1308 8.53799C15.1308 6.02217 13.9813 3.01024 12.4727 1.98264ZM12.4727 15.5186C13.6221 14.1721 14.4842 12.7547 14.8794 10.983C14.125 10.6995 13.3348 10.5223 12.4727 10.4869V15.5186ZM12.4727 33.8737C18.148 33.5193 21.74 28.2042 21.776 22.1803C21.776 17.6092 19.6926 13.4634 16.1725 11.5499C15.5259 13.9949 14.161 15.6604 13.2629 16.688L12.4727 17.6092V28.9838C14.4483 28.7003 15.5618 27.212 15.5618 25.2277C15.5618 24.1646 15.1667 23.3497 14.4124 22.4638C14.3046 22.3574 14.161 22.1803 14.161 21.8969C14.161 21.4007 14.8794 20.9046 15.49 21.507C16.4239 22.4283 16.9986 23.7749 16.9986 25.2277C16.9986 27.9916 15.0589 30.0822 12.4727 30.4011V33.8737Z" fill="black"/>
    <path d="M45.119 20.0995C49.7303 22.0377 52.0541 24.5501 52.0541 28.4623C52.0541 32.4104 48.8589 35.3535 44.1025 35.3535C39.7817 35.3535 38.1115 33.3077 37.1311 33.3077C36.5502 33.3077 36.3687 33.8102 36.296 34.528L36.2234 35.3535H35.2794L33.1008 23.0426H34.0086C35.7151 28.57 38.6198 34.2409 43.9572 34.2409C47.7333 34.2409 49.5851 32.0874 49.5851 29.4673C49.5851 26.4523 48.3506 25.0526 44.1025 23.258L41.1978 22.0377C37.2764 20.3867 35.2794 18.3049 35.2794 15.1465C35.2794 11.3779 38.3294 9.22434 42.2506 9.22434C45.119 9.22434 46.5714 10.4447 47.3339 10.4447C47.6607 10.4447 47.8786 10.2652 47.9149 9.83452L47.9512 9.1167H48.8952L51.3279 17.3359H50.3113C47.9875 12.2393 45.3369 10.2652 42.2506 10.3011C39.1644 10.337 37.5669 12.0239 37.5669 14.0698C37.5669 16.0079 38.5835 17.3359 42.2143 18.8792L45.119 20.0995ZM56.048 9.47557H73.0405L75.4732 17.3359H74.4566C72.0965 11.9521 71.2614 10.5523 67.8847 10.5523H66.1782V32.0515C66.1782 33.3795 66.5776 33.9538 68.5746 34.0614L69.3007 34.0973V35.1023H59.7152V34.0973L60.4414 34.0614C62.4384 33.9538 62.9104 33.3795 62.9104 32.0515V10.5523H61.2039C57.8272 10.5523 56.992 11.9521 54.632 17.3359H53.6153L56.048 9.47557ZM91.3764 21.1404V21.1763H91.4494C95.6613 21.1763 97.8033 24.1194 97.8033 26.7754V35.1023H94.5357V25.8422C94.5357 23.3657 93.4823 21.7865 90.1785 21.7865H83.2794V32.0515C83.2794 33.2718 83.6062 33.9538 85.6038 34.0614L86.1842 34.0973V35.1023H77.1072V34.0973L77.6881 34.0614C79.6851 33.9538 80.0119 33.2718 80.0119 32.0515V12.5264C80.0119 11.3061 79.6851 10.6242 77.6881 10.5165L77.1072 10.4806V9.47557H88.8714C93.5915 9.47557 97.9487 10.7677 97.9487 15.6131C97.9487 20.3508 93.5915 21.0327 91.3764 21.1404ZM88.5447 20.6379C92.7565 20.6379 94.5357 19.5253 94.5357 15.6131C94.5357 11.7009 92.7565 10.6242 88.5447 10.6242H83.2794V20.6379H88.5447ZM120.859 31.872C121.513 33.8102 122.348 34.0255 123.873 34.0973V35.1023H115.159V34.0973L115.812 34.0614C117.918 33.9538 118.136 33.4154 117.482 31.8002L115.486 25.914H107.098L105.5 30.4722C104.629 32.9847 104.92 33.9178 107.316 34.0614L107.933 34.0973V35.1023H99.9815V34.0973L100.417 34.0614C102.487 33.8819 103.249 32.9847 104.157 30.4722L111.637 9.33205H113.161L120.859 31.872ZM107.498 24.7655H115.086L111.346 13.7826L107.498 24.7655ZM134.911 9.47557C142.209 9.47557 147.256 13.2442 147.256 22.2889C147.256 31.3337 142.209 35.1023 134.911 35.1023H125.615V34.0973L126.197 34.0614C128.193 33.9538 128.52 33.2718 128.52 32.0515V12.5264C128.52 11.3061 128.193 10.6242 126.197 10.5165L125.615 10.4806V9.47557H134.911ZM143.85 22.2889C143.85 13.9979 141.781 10.6242 134.628 10.6242H131.795V32.0515C131.795 33.3795 132.34 34.0255 134.628 34.0255C141.773 34.0255 143.85 30.58 143.85 22.2889ZM151.402 10.4806V9.47557H160.479V10.4806L159.898 10.5165C157.901 10.6242 157.575 11.3061 157.575 12.5264V32.0515C157.575 33.2718 157.901 33.9538 159.898 34.0614L160.479 34.0973V35.1023H151.402V34.0973L151.983 34.0614C153.98 33.9538 154.307 33.2718 154.307 32.0515V12.5264C154.307 11.3061 153.98 10.6242 151.983 10.5165L151.402 10.4806ZM185.097 10.5165C182.882 10.6959 182.156 11.2702 181.176 14.1056L173.986 35.2458H172.461L164.873 12.7059C164.255 10.8395 163.239 10.5523 161.86 10.4806V9.47557H170.573V10.4806L169.811 10.5165C167.814 10.6242 167.668 11.0908 168.25 12.7776L174.241 30.58L179.796 14.1056C180.668 11.5574 180.558 10.6601 178.162 10.5165L177.544 10.4806V9.47557H185.533V10.4806L185.097 10.5165ZM201.544 31.872C202.198 33.8102 203.033 34.0255 204.558 34.0973V35.1023H195.844V34.0973L196.498 34.0614C198.604 33.9538 198.821 33.4154 198.168 31.8002L196.171 25.914H187.783L186.186 30.4722C185.315 32.9847 185.605 33.9178 188.002 34.0614L188.619 34.0973V35.1023H180.668V34.0973L181.103 34.0614C183.172 33.8819 183.935 32.9847 184.842 30.4722L192.322 9.33205H193.847L201.544 31.872ZM188.183 24.7655H195.772L192.032 13.7826L188.183 24.7655ZM219.844 21.1404V21.1763H219.917C224.128 21.1763 226.271 24.1194 226.271 26.7754V35.1023H223.004V25.8422C223.004 23.3657 221.95 21.7865 218.646 21.7865H211.747V32.0515C211.747 33.2718 212.074 33.9538 214.071 34.0614L214.652 34.0973V35.1023H205.575V34.0973L206.156 34.0614C208.153 33.9538 208.48 33.2718 208.48 32.0515V12.5264C208.48 11.3061 208.153 10.6242 206.156 10.5165L205.575 10.4806V9.47557H217.339C222.059 9.47557 226.417 10.7677 226.417 15.6131C226.417 20.3508 222.059 21.0327 219.844 21.1404ZM217.013 20.6379C221.224 20.6379 223.004 19.5253 223.004 15.6131C223.004 11.7009 221.224 10.6242 217.013 10.6242H211.747V20.6379H217.013ZM231.209 10.4806V9.47557H240.286V10.4806L239.706 10.5165C237.708 10.6242 237.381 11.3061 237.381 12.5264V32.0515C237.381 33.2718 237.708 33.9538 239.706 34.0614L240.286 34.0973V35.1023H231.209V34.0973L231.79 34.0614C233.787 33.9538 234.114 33.2718 234.114 32.0515V12.5264C234.114 11.3061 233.787 10.6242 231.79 10.5165L231.209 10.4806ZM264.25 32.0515C264.25 33.2718 264.577 33.9538 266.574 34.0614L267.155 34.0973V35.1023H260.982V30.1851L258.695 32.1592C256.552 33.9897 254.41 35.3894 251.832 35.3894C248.564 35.3894 246.568 33.8461 246.568 29.6108V12.5264C246.568 11.3061 246.241 10.6242 244.244 10.5165L243.663 10.4806V9.47557H249.835V29.7185C249.835 32.4822 250.126 33.9178 252.704 33.9178C254.41 33.9178 256.153 32.9847 258.259 31.2259L260.982 28.9648V12.5264C260.982 11.3061 260.656 10.6242 258.658 10.5165L258.078 10.4806V9.47557H264.25V32.0515ZM281.504 20.0995C286.115 22.0377 288.439 24.5501 288.439 28.4623C288.439 32.4104 285.244 35.3535 280.487 35.3535C276.166 35.3535 274.496 33.3077 273.516 33.3077C272.935 33.3077 272.753 33.8102 272.681 34.528L272.608 35.3535H271.664L269.486 23.0426H270.394C272.1 28.57 275.005 34.2409 280.342 34.2409C284.118 34.2409 285.97 32.0874 285.97 29.4673C285.97 26.4523 284.735 25.0526 280.487 23.258L277.583 22.0377C273.661 20.3867 271.664 18.3049 271.664 15.1465C271.664 11.3779 274.714 9.22434 278.635 9.22434C281.504 9.22434 282.956 10.4447 283.719 10.4447C284.046 10.4447 284.263 10.2652 284.299 9.83452L284.336 9.1167H285.28L287.712 17.3359H286.696C284.373 12.2393 281.721 10.2652 278.635 10.3011C275.549 10.337 273.951 12.0239 273.951 14.0698C273.951 16.0079 274.969 17.3359 278.599 18.8792L281.504 20.0995Z" fill="black"/>
</svg>
