<svg width="187" height="38" viewBox="0 0 187 38" fill="none" xmlns="http://www.w3.org/2000/svg">
    <path d="M31.1168 20.6297C31.1168 23.6068 30.0696 25.8358 27.9602 27.3168C26.1351 28.5735 23.6667 29.2018 20.54 29.2018C18.4307 29.2018 16.4859 28.7979 14.6907 28.005C12.716 27.1523 11.1751 25.9256 10.083 24.3099L13.9726 20.8541C15.7379 22.9036 18.0417 23.9359 20.8542 23.9359C23.9808 23.9359 25.5516 22.9635 25.5516 21.0187C25.5516 19.8967 24.7887 18.9991 23.2777 18.3708C22.7392 18.1464 21.4975 17.8023 19.5527 17.3684C16.7252 16.7252 14.7056 15.9024 13.4789 14.9C11.9081 13.6434 11.1302 11.7884 11.1302 9.31996C11.1302 6.85156 12.1325 4.83196 14.1372 3.3958C15.9324 2.09428 18.1315 1.43604 20.7495 1.43604C24.5942 1.43604 27.8704 2.84228 30.5632 5.66972L26.6736 9.43964C24.8784 7.59956 22.8439 6.67204 20.555 6.67204C17.9968 6.67204 16.7103 7.47988 16.7103 9.09556C16.7103 10.0979 17.3984 10.8758 18.7897 11.4443C19.1488 11.5939 20.2708 11.8931 22.1408 12.3269C24.9383 13.0001 26.9728 13.778 28.2594 14.6756C30.1892 16.037 31.1467 18.0267 31.1467 20.6297H31.1168Z" fill="#CF152D"/>
    <path d="M50.1609 28.7829H44.8501V27.4365C43.7281 28.6184 42.1424 29.2018 40.1228 29.2018C35.1411 29.2018 32.6577 26.12 32.6577 19.9715V8.58691H37.9685V19.5077C37.9685 20.9888 38.178 22.0808 38.5819 22.784C39.0905 23.7264 40.033 24.2052 41.3944 24.2052C43.6982 24.2052 44.8501 22.6792 44.8501 19.6274V8.58691H50.1609V28.7829Z" fill="#CF152D"/>
    <path d="M70.4318 18.9392C70.4318 21.7666 69.8483 24.0854 68.6665 25.9404C67.2752 28.1246 65.2556 29.2167 62.5927 29.2167C60.9022 29.2167 59.481 28.6931 58.3291 27.6459V34.0188L53.0183 36.6668V8.58685H58.3291V9.85845C59.6157 8.73645 61.0369 8.16797 62.5927 8.16797C65.3603 8.16797 67.4248 9.31989 68.7862 11.6237C69.8932 13.5236 70.4467 15.9621 70.4467 18.9242L70.4318 18.9392ZM65.0462 19.0588C65.0462 15.1393 63.8942 13.1796 61.5904 13.1796C60.2889 13.1796 59.1968 13.748 58.3142 14.87V22.4847C59.1669 23.6366 60.3487 24.2201 61.8896 24.2201C63.999 24.2201 65.0462 22.4996 65.0462 19.0738V19.0588Z" fill="#CF152D"/>
    <path d="M89.5356 18.7149C89.5356 19.3283 89.5057 19.8968 89.4608 20.4054H77.3881C77.4629 21.5873 77.8818 22.5148 78.6447 23.188C79.4077 23.8612 80.3651 24.2053 81.547 24.2053C83.028 24.2053 84.1949 23.7265 85.0027 22.7841L88.7726 25.9406C87.9798 26.9729 86.9176 27.7657 85.6011 28.3492C84.2846 28.9326 82.9233 29.2169 81.547 29.2169C78.525 29.2169 76.1464 28.1996 74.426 26.18C72.8402 24.2801 72.0474 21.7967 72.0474 18.7149C72.0474 15.8426 72.8103 13.4191 74.3512 11.4444C76.0118 9.26023 78.2558 8.18311 81.0383 8.18311C83.8209 8.18311 85.9302 9.30511 87.4562 11.5341C88.8474 13.4789 89.5356 15.8875 89.5356 18.7299V18.7149ZM84.3894 16.3961C84.3146 15.319 83.9555 14.4513 83.3272 13.7781C82.6989 13.1049 81.8462 12.7758 80.769 12.7758C79.7966 12.7758 79.0187 13.1349 78.4652 13.838C77.8967 14.5411 77.5676 15.3938 77.4629 16.3961H84.3894Z" fill="#CF152D"/>
    <path d="M103.882 9.58917L102.491 14.7803C101.549 13.9126 100.516 13.4788 99.4092 13.4788C98.1077 13.4788 97.1802 13.8827 96.6416 14.7055C96.2078 15.3936 95.9834 16.4558 95.9834 17.862V28.7828H90.6726V8.58685H95.9834V9.93325C97.1054 8.75141 98.4967 8.16797 100.142 8.16797C101.788 8.16797 102.97 8.64669 103.867 9.58917H103.882Z" fill="#CF152D"/>
    <path d="M125.455 20.6297C125.455 23.6068 124.407 25.8358 122.298 27.3168C120.473 28.5735 118.005 29.2018 114.878 29.2018C112.769 29.2018 110.824 28.7979 109.029 28.005C107.054 27.1523 105.513 25.9256 104.421 24.3099L108.31 20.8541C110.076 22.9036 112.38 23.9359 115.192 23.9359C118.319 23.9359 119.89 22.9635 119.89 21.0187C119.89 19.8967 119.127 18.9991 117.616 18.3708C117.077 18.1464 115.835 17.8023 113.891 17.3684C111.063 16.7252 109.044 15.9024 107.817 14.9C106.246 13.6434 105.468 11.7884 105.468 9.31996C105.468 6.85156 106.47 4.83196 108.475 3.3958C110.27 2.09428 112.469 1.43604 115.087 1.43604C118.932 1.43604 122.208 2.84228 124.901 5.66972L121.012 9.43964C119.216 7.59956 117.182 6.67204 114.893 6.67204C112.335 6.67204 111.048 7.47988 111.048 9.09556C111.048 10.0979 111.736 10.8758 113.128 11.4443C113.487 11.5939 114.609 11.8931 116.479 12.3269C119.276 13.0001 121.311 13.778 122.597 14.6756C124.527 16.037 125.485 18.0267 125.485 20.6297H125.455Z" fill="#CF152D"/>
    <path d="M139.233 22.5896L138.47 27.9752C137.422 28.798 136.046 29.202 134.356 29.202C132.665 29.202 131.334 28.6036 130.361 27.3918C129.434 26.2698 128.97 24.8336 128.97 23.1282V13.5837H125.589V8.58709H128.97V3.39597L134.281 0.748047V8.58709H139.128V13.5837H134.281V21.692C134.281 23.3077 134.939 24.1156 136.241 24.1156C137.034 24.1156 138.036 23.6069 139.248 22.5747L139.233 22.5896Z" fill="#CF152D"/>
    <path d="M157.574 18.7149C157.574 19.3283 157.544 19.8968 157.499 20.4054H145.426C145.501 21.5873 145.92 22.5148 146.683 23.188C147.446 23.8612 148.403 24.2053 149.585 24.2053C151.066 24.2053 152.233 23.7265 153.041 22.7841L156.811 25.9406C156.018 26.9729 154.956 27.7657 153.639 28.3492C152.323 28.9326 150.961 29.2169 149.585 29.2169C146.563 29.2169 144.184 28.1996 142.464 26.18C140.878 24.2801 140.085 21.7967 140.085 18.7149C140.085 15.8426 140.848 13.4191 142.389 11.4444C144.05 9.26023 146.279 8.18311 149.076 8.18311C151.874 8.18311 153.968 9.30511 155.494 11.5341C156.886 13.4789 157.574 15.8875 157.574 18.7299V18.7149ZM152.412 16.3961C152.338 15.319 151.979 14.4513 151.35 13.7781C150.722 13.1049 149.869 12.7758 148.792 12.7758C147.82 12.7758 147.042 13.1349 146.488 13.838C145.92 14.5411 145.591 15.3938 145.486 16.3961H152.412Z" fill="#CF152D"/>
    <path d="M176.917 18.9392C176.917 21.7666 176.333 24.0854 175.152 25.9404C173.76 28.1246 171.741 29.2167 169.078 29.2167C167.387 29.2167 165.966 28.6931 164.814 27.6459V34.0188L159.503 36.6668V8.58685H164.814V9.85845C166.101 8.73645 167.522 8.16797 169.078 8.16797C171.845 8.16797 173.91 9.31989 175.271 11.6237C176.378 13.5236 176.932 15.9621 176.932 18.9242L176.917 18.9392ZM171.531 19.0588C171.531 15.1393 170.379 13.1796 168.075 13.1796C166.774 13.1796 165.682 13.748 164.799 14.87V22.4847C165.652 23.6366 166.834 24.2201 168.375 24.2201C170.484 24.2201 171.531 22.4996 171.531 19.0738V19.0588Z" fill="#CF152D"/>
</svg>
