<svg width="187" height="150" viewBox="0 0 187 157" fill="none" xmlns="http://www.w3.org/2000/svg">
    <g clip-path="url(#clip0_222_533)">
        <path d="M35.0806 156.957C35.0806 156.929 35.1828 156.75 35.302 156.557C35.5915 156.092 35.7873 155.563 35.7873 155.213C35.7873 154.884 35.6 154.341 35.4638 154.269C35.4127 154.241 35.3701 154.191 35.3701 154.148C35.3701 154.055 3.5336 127.34 3.36331 127.29C3.29519 127.269 3.2441 127.226 3.2441 127.197C3.2441 127.169 3.13341 127.119 2.99718 127.097C2.86094 127.076 2.73322 127.033 2.70768 127.004C2.65659 126.933 1.85621 126.94 1.51562 127.011C1.17503 127.09 0.374647 127.354 0.161779 127.469L0 127.555V122.436L6.73513 116.782C10.439 113.672 13.5043 111.127 13.5469 111.127C13.5895 111.127 13.6406 111.091 13.6661 111.041C13.7087 110.955 13.8449 110.884 14.4835 110.619C15.0285 110.398 15.7863 110.383 16.2375 110.591C16.6037 110.755 17.1486 111.17 17.1486 111.284C17.1486 111.327 17.1912 111.377 17.2423 111.406C17.4892 111.527 17.5488 112.449 17.3274 112.75C17.2849 112.814 17.1997 112.978 17.1486 113.121C17.0975 113.257 17.0294 113.372 17.0039 113.372C16.9783 113.372 16.9102 113.479 16.8591 113.607C16.808 113.736 16.7399 113.843 16.7144 113.843C16.6888 113.843 16.6207 113.994 16.5696 114.172C16.5185 114.351 16.4589 114.515 16.4249 114.53C16.3482 114.573 16.3482 115.438 16.4249 115.438C16.4589 115.438 16.51 115.53 16.5356 115.645C16.5611 115.759 16.6292 115.866 16.6803 115.888C16.7399 115.909 16.7825 115.967 16.7825 116.017C16.7825 116.145 48.5594 142.824 48.7126 142.824C48.7808 142.824 48.8574 142.86 48.8829 142.903C48.9681 143.024 49.6663 143.239 49.9728 143.239C50.2453 143.239 51.3011 143.01 51.3692 142.939C51.3863 142.917 51.5225 142.867 51.6672 142.824C51.812 142.781 51.9312 142.731 51.9312 142.71C51.9312 142.688 52.0589 142.638 52.2122 142.596C52.3655 142.553 52.4932 142.495 52.4932 142.474C52.4932 142.453 52.706 142.395 52.97 142.36C53.3361 142.302 53.532 142.302 53.847 142.36C54.0684 142.395 54.2472 142.453 54.2472 142.488C54.2472 142.524 54.2898 142.545 54.3409 142.545C54.4771 142.545 55.0391 143.067 55.2349 143.375C55.3797 143.596 55.4052 143.718 55.4052 144.082C55.3967 144.483 55.3711 144.569 55.0987 145.019C54.9369 145.291 54.7496 145.526 54.6985 145.541C54.6474 145.555 54.6048 145.605 54.6048 145.641C54.6048 145.677 51.5736 148.25 47.8697 151.36L41.1346 157.014H38.0948C36.4515 157 35.0806 156.979 35.0806 156.957ZM94.6921 156.936C94.6921 156.9 94.7602 156.779 94.8368 156.664C94.956 156.5 94.9816 156.393 94.956 156.078C94.939 155.864 94.8964 155.678 94.8624 155.656C94.8283 155.635 94.7517 155.549 94.7006 155.463C94.6495 155.377 90.6135 151.96 85.7346 147.871C79.0931 142.302 76.7856 140.401 76.5557 140.308C76.0789 140.122 75.6787 140.144 75.0997 140.401C74.7506 140.558 74.4952 140.622 74.1716 140.644L73.7289 140.673L73.3797 140.379C72.937 140.008 72.8774 139.786 73.0988 139.379C73.2265 139.143 74.078 138.392 77.4413 135.561C79.7488 133.624 81.656 132.044 81.6901 132.051C81.7242 132.058 86.9181 136.412 93.236 141.716L104.731 151.36L101.376 154.184L98.0213 157.007H96.3524C95.1689 157 94.6921 156.986 94.6921 156.936ZM178.809 154.956C178.732 154.941 178.57 154.891 178.46 154.848C178.341 154.806 178.145 154.755 178.017 154.727C177.889 154.705 177.787 154.67 177.787 154.641C177.787 154.62 177.659 154.562 177.506 154.52C177.353 154.477 177.225 154.419 177.225 154.391C177.225 154.362 177.174 154.341 177.114 154.341C176.97 154.341 175.675 153.254 175.675 153.133C175.675 153.083 175.65 153.04 175.616 153.04C175.539 153.04 175.207 152.468 175.139 152.246C175.113 152.146 175.062 152.046 175.037 152.01C174.773 151.724 174.773 149.651 175.037 149.351C175.062 149.315 175.13 149.172 175.182 149.029C175.233 148.886 175.36 148.65 175.471 148.515C175.582 148.379 175.675 148.236 175.675 148.207C175.675 148.121 176.791 147.178 177.021 147.078C177.77 146.735 178.102 146.613 178.332 146.577C178.477 146.556 178.639 146.506 178.69 146.47C178.826 146.377 180.682 146.377 180.81 146.47C180.861 146.506 181.023 146.556 181.167 146.577C181.397 146.613 181.746 146.749 182.47 147.078C182.717 147.192 183.628 147.964 183.773 148.179C183.833 148.272 183.943 148.443 184.011 148.558C184.079 148.672 184.156 148.779 184.173 148.793C184.199 148.808 184.25 148.915 184.301 149.029C184.352 149.144 184.42 149.287 184.454 149.351C184.565 149.573 184.658 150.166 184.658 150.674C184.658 151.167 184.548 151.896 184.454 152.01C184.429 152.046 184.36 152.182 184.309 152.318C184.258 152.454 184.19 152.568 184.165 152.568C184.139 152.568 184.079 152.675 184.028 152.804C183.977 152.933 183.892 153.054 183.841 153.068C183.79 153.083 183.747 153.14 183.747 153.197C183.747 153.319 182.598 154.284 182.453 154.284C182.394 154.284 182.325 154.319 182.3 154.362C182.283 154.405 182.138 154.477 181.985 154.52C181.832 154.562 181.704 154.612 181.704 154.641C181.704 154.663 181.551 154.713 181.372 154.755C181.184 154.791 180.997 154.856 180.938 154.891C180.861 154.963 179.09 155.013 178.809 154.956ZM181.057 154.277C181.695 154.098 182.079 153.898 182.598 153.469C184.377 152.003 184.343 149.294 182.538 147.85C182.249 147.621 181.985 147.435 181.942 147.435C181.9 147.435 181.789 147.392 181.687 147.335C181.244 147.092 180.605 146.971 179.771 146.963C178.937 146.963 178.579 147.028 177.796 147.335C177.319 147.521 176.399 148.329 176.135 148.793C175.769 149.43 175.616 149.987 175.616 150.681C175.616 152.368 176.697 153.755 178.417 154.262C179.124 154.484 180.316 154.491 181.057 154.277ZM177.932 150.674V148.186L179.328 148.222C180.554 148.25 180.767 148.272 181.082 148.386C181.542 148.55 181.704 148.701 181.883 149.129C182.053 149.53 182.027 149.801 181.815 150.223C181.619 150.588 181.474 150.681 180.665 150.924L180.469 150.981L180.657 151.26C180.759 151.417 180.903 151.61 180.972 151.696C181.048 151.782 181.108 151.867 181.108 151.889C181.108 151.91 181.201 152.046 181.321 152.182C181.44 152.325 181.534 152.454 181.534 152.475C181.534 152.496 181.644 152.639 181.78 152.804C181.917 152.968 182.027 153.111 182.027 153.133C182.027 153.154 181.866 153.161 181.661 153.147C181.27 153.126 181.261 153.118 180.886 152.511C180.835 152.432 180.665 152.175 180.503 151.953C180.341 151.724 180.137 151.417 180.035 151.274L179.856 151.01L179.252 150.995L178.647 150.981V153.168H177.94L177.932 150.674ZM180.895 150.323C181.167 150.173 181.423 149.458 181.236 149.358C181.193 149.337 181.167 149.272 181.167 149.215C181.167 149.072 180.776 148.801 180.58 148.801C180.495 148.801 180.393 148.772 180.35 148.736C180.307 148.701 179.958 148.679 179.473 148.693L178.673 148.708L178.656 149.587L178.639 150.466L179.677 150.445C180.503 150.423 180.75 150.402 180.895 150.323ZM105.514 149.351L104.722 148.686L104.816 148.507C104.867 148.407 104.927 148.329 104.961 148.329C104.995 148.329 105.054 148.2 105.106 148.05C105.157 147.893 105.225 147.743 105.259 147.714C105.335 147.643 105.335 146.577 105.259 146.534C105.225 146.52 105.174 146.406 105.148 146.284C105.097 146.056 104.859 145.634 104.714 145.526C104.671 145.491 104.62 145.434 104.612 145.391C104.544 145.191 102.9 143.775 96.659 138.528C92.921 135.382 89.8387 132.809 89.8131 132.809C89.7876 132.809 89.5747 132.659 89.3278 132.473C89.0809 132.287 88.6211 132.015 88.2975 131.865L87.71 131.601H86.7649C85.8964 131.601 85.7857 131.615 85.4962 131.744C85.3259 131.822 85.1215 131.93 85.0534 131.98C84.9342 132.065 84.8661 132.023 84.1168 131.386C83.657 131 83.3249 130.671 83.3505 130.636C83.376 130.6 83.6911 130.357 84.0487 130.092C84.4063 129.828 84.7639 129.563 84.8491 129.499C84.9342 129.435 85.0194 129.385 85.0449 129.385C85.0704 129.385 85.1982 129.32 85.3259 129.235C85.4536 129.156 85.5898 129.084 85.6409 129.084C85.692 129.084 85.7261 129.056 85.7261 129.027C85.7261 128.97 85.8027 128.927 86.3987 128.67C86.5861 128.584 86.8074 128.491 86.8841 128.455C87.2162 128.298 88.0932 127.969 88.289 127.934C88.4082 127.912 88.5274 127.876 88.57 127.848C88.7147 127.762 90.0686 127.505 90.886 127.405C91.3458 127.347 92.0184 127.304 92.359 127.304C93.0743 127.297 94.8028 127.469 95.2796 127.583C95.4499 127.626 95.7649 127.69 95.9778 127.726C96.1906 127.762 96.395 127.812 96.4376 127.841C96.4801 127.869 96.6675 127.919 96.8633 127.962C97.0591 128.005 97.2465 128.055 97.289 128.076C97.3316 128.098 97.4934 128.155 97.6552 128.198C97.817 128.241 97.9532 128.298 97.9532 128.327C97.9532 128.355 98.0128 128.377 98.0724 128.377C98.2001 128.377 100.124 129.163 100.193 129.249C100.218 129.277 100.312 129.328 100.405 129.37C100.618 129.456 100.772 129.535 101.155 129.749C101.317 129.842 101.47 129.914 101.495 129.914C101.521 129.914 101.759 130.057 102.023 130.235C102.287 130.414 102.534 130.557 102.577 130.557C102.619 130.557 102.679 130.607 102.721 130.679C102.764 130.743 102.832 130.8 102.875 130.8C102.943 130.8 103.437 131.122 104.271 131.722C104.748 132.065 106.664 133.695 106.664 133.767C106.664 133.795 106.791 133.953 106.945 134.103C107.098 134.26 107.226 134.41 107.226 134.439C107.226 134.467 107.285 134.525 107.37 134.568C107.456 134.61 107.515 134.668 107.515 134.696C107.515 134.725 107.626 134.882 107.762 135.039C107.898 135.197 108.009 135.347 108.009 135.368C108.009 135.39 108.103 135.518 108.205 135.654C108.384 135.876 108.844 136.641 109.099 137.155C109.15 137.263 109.244 137.434 109.295 137.541C109.354 137.649 109.431 137.856 109.474 137.999C109.516 138.142 109.576 138.292 109.61 138.321C109.712 138.428 109.967 139.5 110.18 140.651C110.291 141.273 110.3 142.56 110.189 143.074C110.146 143.289 110.07 143.682 110.027 143.961C109.984 144.24 109.925 144.49 109.891 144.519C109.865 144.554 109.797 144.747 109.755 144.962C109.703 145.176 109.644 145.369 109.61 145.405C109.584 145.441 109.533 145.541 109.508 145.641C109.482 145.741 109.397 145.927 109.32 146.063C109.244 146.198 109.184 146.327 109.184 146.349C109.184 146.37 109.107 146.527 109.005 146.706C108.903 146.885 108.826 147.049 108.826 147.078C108.826 147.106 108.801 147.142 108.775 147.149C108.75 147.164 108.665 147.264 108.597 147.378C108.528 147.492 108.392 147.693 108.299 147.821C108.205 147.95 108.086 148.121 108.035 148.207C107.924 148.386 107.473 148.894 107.277 149.065C107.2 149.129 107.132 149.208 107.132 149.237C107.132 149.265 106.945 149.451 106.715 149.651L106.298 150.016L105.514 149.351ZM57.1167 142.195C56.4951 141.995 55.8139 141.545 55.8139 141.33C55.8139 141.28 55.7884 141.237 55.7458 141.237C55.7117 141.237 55.6436 141.087 55.5925 140.908C55.5244 140.651 55.5244 140.487 55.584 140.194C55.6266 139.979 55.6862 139.793 55.7202 139.772C55.7543 139.75 55.8224 139.643 55.882 139.529C55.9331 139.414 56.0012 139.307 56.0183 139.293C56.18 139.178 56.6483 137.949 56.6483 137.649C56.6483 137.441 56.4014 136.855 56.2396 136.676C56.18 136.605 52.8508 133.795 48.8489 130.428C44.0125 126.354 41.5262 124.302 41.4326 124.302C41.3389 124.302 40.4704 124.988 38.9463 126.268L36.6047 128.234L35.0891 126.968L33.5735 125.703L35.9321 123.716C37.2348 122.622 38.2906 121.693 38.2906 121.643C38.2906 121.564 24.5734 110.019 24.1903 109.769C23.9604 109.626 23.2707 109.425 22.9982 109.425C22.7513 109.425 21.6955 109.654 21.6274 109.726C21.6103 109.747 21.4741 109.797 21.3293 109.84C21.1846 109.883 21.0654 109.94 21.0654 109.969C21.0654 109.997 21.0313 110.019 20.9973 110.019C20.9632 110.019 20.7503 110.09 20.5204 110.176C20.1969 110.305 20.0096 110.333 19.5838 110.341C19.124 110.341 19.0048 110.319 18.6813 110.169C18.2896 109.983 17.9575 109.683 17.7191 109.29C17.5573 109.018 17.5233 108.303 17.6595 108.067C17.7021 107.989 17.7957 107.831 17.8553 107.717C17.9149 107.603 18.0171 107.431 18.0767 107.331C18.1363 107.231 21.8658 104.071 26.353 100.304L34.5186 93.4553L35.1232 93.2122C35.6511 92.9978 35.7873 92.9692 36.2045 92.9692C36.5792 92.9692 36.7665 93.0049 37.0645 93.1264C37.5499 93.3266 38.0948 93.827 38.214 94.1844C38.3332 94.549 38.2651 95.1209 38.0437 95.4855C37.9415 95.6499 37.8649 95.8144 37.8649 95.8429C37.8649 95.8715 37.8394 95.9144 37.8138 95.9216C37.7372 95.9502 37.4051 96.6365 37.2689 97.0582C37.1241 97.4943 37.1582 97.7517 37.4477 98.2592C37.6606 98.6381 38.5035 99.353 53.532 111.97C66.0316 122.465 69.48 125.324 69.7951 125.474C70.621 125.86 71.1744 125.832 72.4346 125.324C72.7922 125.181 73.1328 125.067 73.1924 125.067C73.252 125.067 73.3031 125.045 73.3031 125.017C73.3031 124.945 73.8736 124.831 74.2568 124.831C74.8187 124.831 75.1253 124.945 75.6021 125.339C75.849 125.539 76.0449 125.746 76.0449 125.796C76.0449 125.853 76.0959 125.96 76.1555 126.039C76.2407 126.153 76.2662 126.282 76.2407 126.611C76.2237 126.847 76.1726 127.09 76.13 127.154C76.0874 127.219 76.0023 127.369 75.9427 127.476C75.8831 127.59 75.7809 127.762 75.7213 127.862C75.5851 128.069 59.603 141.523 59.4837 141.523C59.4412 141.523 59.3816 141.559 59.3645 141.609C59.339 141.659 59.2198 141.738 59.0921 141.788C58.9643 141.838 58.8111 141.902 58.7515 141.931C58.3428 142.124 58.1044 142.188 57.6957 142.209C57.4658 142.231 57.1933 142.224 57.1167 142.195ZM116.158 140.673C115.809 140.494 115.57 140.186 115.57 139.915C115.57 139.722 115.749 139.307 115.979 138.964C116.149 138.707 116.149 137.827 115.979 137.749C115.911 137.72 115.86 137.656 115.86 137.62C115.86 137.541 98.1405 122.643 98.0469 122.643C98.0128 122.643 97.9106 122.593 97.8084 122.522C97.5019 122.322 96.9144 122.358 96.2588 122.622C95.816 122.801 95.6372 122.844 95.2881 122.844C94.9134 122.844 94.8283 122.822 94.6665 122.686C94.3089 122.386 94.079 121.829 94.2748 121.728C94.3089 121.707 94.36 121.607 94.3855 121.507C94.4196 121.357 95.3051 120.585 98.6599 117.761L102.892 114.201L114.421 123.88L125.95 133.56L121.803 137.034C117.469 140.658 117.248 140.823 116.686 140.823C116.558 140.823 116.319 140.758 116.158 140.673ZM126.69 131.536L125.89 130.864L126.06 130.664C126.375 130.3 127.108 129.106 127.108 128.963C127.108 128.913 127.133 128.841 127.167 128.813C127.201 128.784 127.32 128.463 127.423 128.105C127.601 127.512 127.618 127.362 127.618 126.361C127.618 124.995 127.448 124.295 126.827 123.058C126.469 122.336 126.265 121.843 126.265 121.678C126.265 121.35 126.656 120.949 127.099 120.828C127.644 120.678 127.618 120.656 131.178 123.651L134.473 126.418L131.016 129.32C129.117 130.915 127.542 132.223 127.525 132.223C127.508 132.208 127.133 131.908 126.69 131.536ZM135.443 124.709C135.273 124.624 135.052 124.445 134.856 124.223C134.626 123.966 134.652 123.651 134.941 123.158C135.137 122.822 135.188 122.679 135.188 122.393V122.043L126.486 114.737C121.701 110.719 117.537 107.238 117.23 107.002L116.677 106.58H116.055C115.698 106.58 115.408 106.609 115.383 106.645C115.357 106.68 115.221 106.745 115.085 106.788C114.949 106.831 114.821 106.888 114.804 106.916C114.736 107.002 114.208 107.066 113.986 107.016C113.867 106.988 113.629 106.845 113.467 106.695C113.169 106.423 113.169 106.416 113.195 106.051C113.22 105.773 113.271 105.622 113.407 105.451C113.51 105.322 115.442 103.678 117.699 101.784L121.794 98.345L131.986 106.895C137.589 111.599 142.281 115.502 142.4 115.573C142.579 115.681 142.715 115.702 143.09 115.702C143.498 115.702 143.643 115.673 144.163 115.459C144.665 115.252 144.801 115.223 145.074 115.245C145.252 115.259 145.414 115.302 145.431 115.33C145.457 115.359 145.533 115.402 145.601 115.423C145.67 115.445 145.746 115.516 145.763 115.581C145.78 115.645 145.84 115.709 145.891 115.724C146.027 115.766 146.078 116.138 145.993 116.438C145.951 116.589 145.891 116.71 145.865 116.71C145.84 116.71 145.78 116.782 145.738 116.874C145.619 117.103 136.593 124.659 136.346 124.738C136.108 124.795 135.614 124.788 135.443 124.709ZM122.212 123.837C122.016 123.78 121.701 123.659 121.505 123.566C120.406 123.022 119.257 122.708 118.354 122.708C117.937 122.708 117.026 122.879 116.788 123.008C116.634 123.087 116.592 123.051 115.723 122.329L114.812 121.571L114.923 121.357C114.983 121.242 115.068 121.078 115.11 120.999C115.213 120.806 115.213 119.212 115.11 119.098C115.068 119.055 115 118.89 114.949 118.74C114.872 118.49 114.736 118.24 114.08 117.218C113.952 117.017 113.859 116.767 113.833 116.567C113.799 116.274 113.816 116.217 114.02 115.988C114.14 115.852 114.344 115.695 114.48 115.638C114.685 115.552 114.761 115.552 115.059 115.616C115.374 115.688 115.664 115.917 119.419 119.062C123.727 122.672 123.898 122.829 123.719 123.208C123.617 123.437 123.242 123.752 122.961 123.852C122.68 123.966 122.663 123.966 122.212 123.837ZM77.7904 117.482C76.3514 117.389 74.4526 117.103 73.2946 116.81C73.0647 116.753 72.7922 116.689 72.6986 116.674C72.5027 116.639 71.9493 116.488 71.5746 116.367C71.4384 116.324 71.0638 116.202 70.7317 116.102C70.3996 116.002 69.9994 115.866 69.8376 115.802C69.6759 115.738 69.5226 115.688 69.5056 115.688C69.3608 115.688 66.1167 114.322 66.0316 114.229C66.006 114.201 65.9124 114.144 65.8187 114.108C65.4696 113.958 65.2141 113.829 65.0013 113.7C64.8821 113.629 64.7458 113.565 64.7033 113.565C64.6607 113.565 64.6266 113.536 64.6266 113.507C64.6266 113.472 64.5926 113.45 64.5415 113.45C64.4989 113.45 64.3627 113.386 64.2435 113.314C64.1243 113.243 63.971 113.157 63.9029 113.136C63.8348 113.114 63.7837 113.071 63.7837 113.036C63.7837 113 63.7411 112.971 63.69 112.971C63.6389 112.971 63.4942 112.893 63.3579 112.8C63.2217 112.707 63.077 112.621 63.0344 112.621C62.9918 112.621 62.9322 112.578 62.9152 112.528C62.8896 112.478 62.8385 112.442 62.796 112.442C62.7534 112.442 62.5661 112.335 62.3787 112.206C62.1914 112.078 62.0126 111.97 61.97 111.97C61.9275 111.97 61.8594 111.92 61.8168 111.849C61.7742 111.785 61.7061 111.727 61.6635 111.727C61.5869 111.727 60.795 111.191 60.3182 110.812C60.1734 110.698 60.0202 110.605 59.9776 110.605C59.8754 110.605 55.2775 106.738 55.2775 106.659C55.2775 106.623 55.1668 106.495 55.0306 106.373C54.5878 105.973 53.9407 105.308 53.9407 105.244C53.9407 105.208 53.8811 105.151 53.7959 105.115C53.7193 105.079 53.6512 105.022 53.6512 104.986C53.6512 104.95 53.5235 104.793 53.3702 104.643C53.2169 104.486 53.0892 104.328 53.0892 104.293C53.0892 104.257 53.0381 104.207 52.987 104.193C52.9274 104.171 52.8763 104.128 52.8763 104.093C52.8763 104.057 52.7827 103.935 52.6635 103.821C52.5443 103.707 52.4591 103.585 52.4591 103.549C52.4591 103.514 52.408 103.463 52.3569 103.449C52.2973 103.428 52.2548 103.385 52.2548 103.349C52.2548 103.313 52.1781 103.199 52.0759 103.092C51.9738 102.985 51.8971 102.87 51.8971 102.827C51.8971 102.784 51.8631 102.756 51.829 102.756C51.795 102.756 51.7098 102.67 51.6502 102.563C51.5906 102.456 51.4629 102.262 51.3692 102.134C51.2756 102.005 51.1564 101.826 51.1053 101.733C51.0542 101.648 50.9946 101.569 50.969 101.569C50.9435 101.569 50.8073 101.376 50.6625 101.14C50.5263 100.904 50.2623 100.49 50.092 100.211C49.9217 99.932 49.6322 99.4316 49.4534 99.0885C49.3002 98.7954 49.1554 98.5094 49.0021 98.2235C48.9255 98.0876 48.8744 97.959 48.8744 97.9304C48.8744 97.9018 48.8148 97.7803 48.7382 97.6444C48.602 97.4014 48.4572 97.0439 48.2784 96.5507C48.2273 96.4077 48.1507 96.2075 48.1081 96.1075C48.0315 95.9073 47.8016 95.221 47.6398 94.692C47.5802 94.499 47.4865 94.0844 47.4269 93.777C47.3673 93.4696 47.2907 93.1264 47.2566 93.0121C47.197 92.8119 47.0863 91.8325 46.9842 90.5886C46.9331 89.981 47.0352 88.2868 47.1885 87.3431C47.2651 86.8213 47.5036 85.7776 47.6228 85.3987C47.8952 84.5337 48.2103 83.7044 48.5509 82.9181C49.0873 81.71 50.3815 79.6082 51.0372 78.8719C51.1308 78.7718 51.1989 78.6717 51.1989 78.6503C51.1989 78.6289 51.233 78.5788 51.2671 78.5359C51.548 78.25 51.8971 77.8425 51.8971 77.7996C51.8971 77.771 52.1015 77.5422 52.3569 77.2849C52.6124 77.0275 52.8848 76.7416 52.9615 76.6558L53.1062 76.4985L54.6304 77.7782C55.7798 78.7432 56.146 79.0792 56.0949 79.1436C55.9672 79.3294 55.7969 79.8012 55.5414 80.6162C55.4137 81.0165 55.4648 82.0102 55.6266 82.5249C55.7117 82.7894 55.8054 83.0182 55.8309 83.0325C55.8565 83.0468 55.9161 83.1611 55.9757 83.2827C56.0268 83.4042 56.0949 83.5043 56.129 83.5043C56.163 83.5043 56.2141 83.5615 56.2482 83.6401C56.2822 83.7187 56.4355 83.8975 56.5973 84.0476C56.759 84.1977 56.8868 84.3335 56.8868 84.3478C56.8868 84.3836 86.4924 109.24 86.535 109.24C86.552 109.24 86.7138 109.347 86.8926 109.476C88.0846 110.333 89.711 110.626 91.3373 110.276C92.1121 110.112 92.6911 109.94 92.7507 109.869C92.7763 109.84 93.4915 110.398 94.343 111.113L95.8926 112.407L95.7309 112.535C95.6457 112.607 95.5521 112.664 95.5265 112.664C95.501 112.664 95.2285 112.835 94.9305 113.05C94.6325 113.264 94.3515 113.436 94.3259 113.436C94.3004 113.436 94.0705 113.572 93.8236 113.729C93.5766 113.886 93.3467 114.022 93.3212 114.022C93.2957 114.022 93.1339 114.101 92.9891 114.201C92.8359 114.294 92.6911 114.38 92.6656 114.38C92.64 114.38 92.4612 114.465 92.2824 114.573C91.8907 114.794 91.3969 115.023 90.3581 115.452C89.1575 115.952 88.9191 116.038 88.7914 116.038C88.7233 116.038 88.6722 116.067 88.6722 116.095C88.6722 116.131 88.6381 116.152 88.5955 116.152C88.553 116.152 88.3231 116.217 88.0846 116.295C87.3183 116.546 86.833 116.674 85.8197 116.896C85.5898 116.946 85.2407 117.025 85.0449 117.067C84.2871 117.239 83.0184 117.403 81.7753 117.482C80.2171 117.589 79.3911 117.589 77.7904 117.482ZM105.284 113.572L104.467 112.885L107.839 110.055L111.211 107.224L114.378 109.883C116.6 111.749 117.563 112.6 117.622 112.735C117.733 113.021 117.639 113.314 117.35 113.579C117.043 113.865 116.677 114.008 116.353 113.965C116.226 113.951 115.86 113.829 115.545 113.7C113.927 113.05 112.709 112.785 111.245 112.778C109.95 112.771 108.861 112.986 107.66 113.486C106.86 113.822 106.63 113.929 106.34 114.115L106.102 114.265L105.284 113.572ZM96.9995 108.911C96.1992 108.239 95.5435 107.645 95.5435 107.595C95.5435 107.545 95.5861 107.438 95.6372 107.36C95.6883 107.281 95.7649 107.095 95.8245 106.945C95.8756 106.802 95.9437 106.623 95.9778 106.559C96.2332 106.073 96.2332 104.457 95.9778 103.964C95.9437 103.9 95.8756 103.749 95.8245 103.642C95.7734 103.528 95.6457 103.321 95.535 103.185C95.4243 103.042 95.3392 102.906 95.3392 102.87C95.3392 102.791 66.3296 78.3572 65.3078 77.5708C64.8736 77.2349 64.4904 76.9632 64.4648 76.9632C64.4393 76.9632 64.2775 76.8846 64.1157 76.7988C63.9455 76.7059 63.6985 76.5986 63.5708 76.5557C63.4431 76.5128 63.2217 76.4413 63.094 76.3985C62.6172 76.2197 60.3693 76.2483 60.0968 76.427C60.0542 76.4556 59.901 76.4985 59.7477 76.52C59.5944 76.5414 59.3645 76.6129 59.2198 76.6773C59.0836 76.7416 58.9218 76.7916 58.8622 76.7916C58.7345 76.7916 55.8395 74.3754 55.8395 74.2681C55.8395 74.2252 55.9246 74.1466 56.0353 74.0894C56.2226 73.9893 57.023 73.4532 57.2529 73.2745C57.3125 73.2244 57.3891 73.1887 57.4232 73.1887C57.4572 73.1887 57.6531 73.0743 57.866 72.9385C58.2576 72.6883 58.4024 72.6025 58.7259 72.4667C58.8196 72.4238 58.9303 72.3594 58.9558 72.3165C58.9899 72.2736 59.041 72.2451 59.0836 72.2451C59.1261 72.2451 59.2879 72.1736 59.4497 72.0806C59.6115 71.9877 59.8669 71.8662 60.0287 71.8018C60.182 71.7375 60.3267 71.666 60.3522 71.6446C60.4033 71.5874 61.936 70.9511 62.0211 70.9511C62.0552 70.9511 62.2681 70.8725 62.4894 70.7796C62.7108 70.6866 63.0088 70.5723 63.1451 70.5365C63.2813 70.5008 63.4771 70.4293 63.5793 70.3864C63.6815 70.3435 63.8092 70.3078 63.8688 70.3006C63.9284 70.3006 64.0561 70.2649 64.1498 70.222C64.2435 70.1791 64.4819 70.1076 64.6777 70.0718C64.8736 70.029 65.0609 69.9789 65.0949 69.9503C65.1375 69.9217 65.3759 69.8717 65.6229 69.8288C65.8783 69.7859 66.1082 69.7359 66.1508 69.7073C66.1933 69.6858 66.4403 69.6358 66.7127 69.5929C66.9852 69.5571 67.2832 69.5 67.3854 69.4642C67.4791 69.4356 67.9389 69.3713 68.4072 69.3212C68.867 69.2712 69.5226 69.2069 69.8461 69.1711C70.5784 69.0925 73.9417 69.1354 74.4867 69.2283C74.6995 69.264 75.1934 69.3355 75.5765 69.3784C76.5642 69.4999 77.4498 69.6429 77.6116 69.7073C77.6882 69.7359 77.9607 69.793 78.2076 69.8288C78.463 69.8645 78.6929 69.9146 78.7355 69.9432C78.7781 69.9646 78.9654 70.0218 79.1527 70.0575C79.3486 70.1004 79.5359 70.1505 79.5785 70.1791C79.621 70.2077 79.8084 70.2577 80.0042 70.3006C80.2 70.3435 80.3874 70.3935 80.4299 70.4221C80.4725 70.4507 80.6087 70.4865 80.745 70.5151C80.8812 70.5437 81.0515 70.5866 81.1281 70.6294C81.2048 70.6652 81.4006 70.7367 81.5709 70.7796C81.7412 70.8225 81.8689 70.8797 81.8689 70.9082C81.8689 70.9368 81.92 70.9583 81.9881 70.9583C82.1329 70.9583 82.4053 71.0655 84.0317 71.7446C85.5473 72.388 85.7431 72.4738 86.1603 72.6954C86.5946 72.9313 86.7223 72.9957 86.9863 73.1172C87.114 73.1744 87.2162 73.2387 87.2162 73.2673C87.2162 73.2959 87.2502 73.3174 87.2928 73.3174C87.3779 73.3174 88.008 73.6748 88.0506 73.7463C88.0676 73.7677 88.1102 73.7892 88.1613 73.7892C88.2039 73.7892 88.3571 73.8678 88.4934 73.9607C88.6296 74.0537 88.7743 74.1395 88.8169 74.1395C88.8595 74.1395 88.9191 74.1824 88.9361 74.2324C88.9617 74.2824 89.0128 74.3182 89.0553 74.3182C89.132 74.3182 89.8131 74.7471 90.0771 74.9687C90.1537 75.033 90.2474 75.0902 90.2814 75.0902C90.3155 75.0902 90.5539 75.2475 90.8179 75.4477C91.0818 75.6407 91.3117 75.8051 91.3373 75.8051C91.3628 75.8051 91.482 75.898 91.6097 76.0124C91.7375 76.1268 91.8737 76.2197 91.9248 76.2197C92.044 76.2197 96.2332 79.7298 96.2332 79.837C96.2332 79.8799 96.3609 80.0157 96.5142 80.1301C96.6675 80.2516 96.7952 80.366 96.7952 80.3874C96.7952 80.4089 96.9825 80.6019 97.2209 80.8235C97.4508 81.0451 97.6467 81.2453 97.6467 81.2739C97.6467 81.3025 97.7148 81.374 97.7914 81.4454C98.0298 81.6528 98.4896 82.1675 98.4896 82.239C98.4896 82.2747 98.5492 82.339 98.6344 82.3748C98.711 82.4177 98.7791 82.4749 98.7791 82.5106C98.7791 82.5463 98.8728 82.6607 98.992 82.7751C99.1027 82.8895 99.1963 83.011 99.1963 83.0539C99.1963 83.0897 99.2219 83.1325 99.2474 83.1468C99.3326 83.1754 99.7583 83.7116 99.7583 83.7831C99.7583 83.8188 99.7839 83.8474 99.8179 83.8474C99.852 83.8474 99.9286 83.9332 99.9967 84.0404C100.065 84.1477 100.176 84.3121 100.252 84.4122C100.329 84.5122 100.448 84.6838 100.516 84.7982C100.584 84.9126 100.661 85.0198 100.678 85.0341C100.882 85.1842 102.568 88.0509 102.568 88.251C102.568 88.3011 102.594 88.3368 102.636 88.3368C102.67 88.3368 102.721 88.4226 102.747 88.5298C102.773 88.6371 102.832 88.7729 102.883 88.8372C102.926 88.9015 103.011 89.0731 103.062 89.2232C103.113 89.3734 103.181 89.5163 103.207 89.5449C103.232 89.5807 103.292 89.7237 103.343 89.8666C103.386 90.0096 103.471 90.2098 103.522 90.3099C103.573 90.4099 103.641 90.5958 103.667 90.7245C103.692 90.8531 103.743 90.989 103.769 91.0176C103.794 91.0533 103.862 91.2392 103.905 91.4322C103.948 91.6252 104.016 91.8397 104.05 91.904C104.135 92.0613 104.314 92.8619 104.441 93.6769C104.501 94.0343 104.586 94.4704 104.629 94.6491C104.739 95.0852 104.748 98.3879 104.629 98.8383C104.586 99.017 104.501 99.4388 104.441 99.7819C104.297 100.633 104.126 101.39 104.05 101.498C104.016 101.548 103.948 101.748 103.905 101.941C103.862 102.134 103.794 102.32 103.769 102.348C103.743 102.384 103.675 102.563 103.624 102.749C103.573 102.934 103.505 103.106 103.471 103.12C103.437 103.135 103.377 103.263 103.343 103.399C103.3 103.535 103.215 103.742 103.156 103.857C103.096 103.971 103.002 104.143 102.96 104.243C102.917 104.343 102.79 104.572 102.687 104.75C102.585 104.929 102.5 105.108 102.5 105.136C102.5 105.208 102.049 105.944 101.887 106.151C101.819 106.237 101.7 106.402 101.64 106.516C101.572 106.63 101.444 106.831 101.342 106.959C101.24 107.088 101.121 107.281 101.061 107.388C101.001 107.495 100.925 107.581 100.882 107.581C100.848 107.581 100.814 107.61 100.814 107.645C100.814 107.681 100.738 107.796 100.635 107.903C100.533 108.01 100.457 108.117 100.457 108.139C100.457 108.167 100.295 108.353 100.107 108.561C99.9116 108.768 99.7583 108.961 99.7583 108.982C99.7583 109.011 99.5965 109.19 99.4007 109.383C99.2049 109.576 98.9664 109.833 98.8728 109.955C98.7791 110.076 98.6599 110.176 98.6173 110.176C98.4981 110.14 97.7999 109.583 96.9995 108.911ZM136.729 108.203L135.912 107.51L136.116 107.195C136.508 106.595 136.61 105.958 136.423 105.308C136.355 105.072 136.269 104.879 136.235 104.879C136.201 104.879 136.176 104.85 136.176 104.807C136.176 104.765 136.099 104.65 135.997 104.543C135.903 104.436 135.818 104.321 135.818 104.286C135.818 104.25 135.758 104.2 135.673 104.164C135.597 104.128 135.529 104.071 135.529 104.028C135.529 103.935 129.347 98.7596 129.185 98.7167C129.117 98.6953 129.066 98.6595 129.066 98.6309C129.066 98.5666 128.41 98.2092 128.3 98.2092C128.257 98.2092 128.223 98.1877 128.223 98.1591C128.223 98.1305 128.061 98.0734 127.874 98.0376C127.678 98.0019 127.508 97.9447 127.482 97.9161C127.431 97.8446 126.205 97.8446 126.154 97.9161C126.137 97.9447 126.001 97.9876 125.847 98.009C125.703 98.0305 125.464 98.1162 125.319 98.1949C125.175 98.2735 125.03 98.3378 125.004 98.3378C124.97 98.3378 124.596 98.0376 124.161 97.673L123.37 97.0082L123.915 96.565C124.57 96.036 125.379 95.4069 125.66 95.221C125.771 95.1495 126.069 94.9422 126.324 94.7706C126.58 94.5991 126.861 94.4204 126.954 94.3775C127.048 94.3346 127.261 94.2273 127.414 94.1273C127.882 93.8413 128.521 93.5196 128.785 93.4338C128.921 93.3909 129.177 93.3052 129.347 93.2408C129.517 93.1765 129.73 93.105 129.807 93.0764C129.883 93.0478 130.088 92.9978 130.267 92.962C130.445 92.9263 130.65 92.8762 130.726 92.8476C131.331 92.6189 134.337 92.6117 134.941 92.8405C135.018 92.8691 135.231 92.9263 135.418 92.962C135.605 93.0049 135.767 93.055 135.793 93.0835C135.81 93.1121 135.878 93.1336 135.937 93.1336C136.082 93.1336 137.129 93.5697 137.41 93.7555C137.538 93.8342 137.666 93.9056 137.691 93.9056C137.717 93.9056 137.972 94.0629 138.253 94.2631C138.534 94.4561 138.798 94.6205 138.824 94.6205C138.858 94.6205 138.943 94.6706 139.011 94.7421C139.207 94.9279 139.394 94.8993 139.394 94.6849C139.394 94.5848 139.36 94.5061 139.326 94.5061C139.292 94.5061 139.258 94.4775 139.258 94.4418C139.258 94.4061 139.181 94.2416 139.088 94.0701C138.79 93.5339 138.551 93.0407 138.551 92.9763C138.551 92.9406 138.509 92.8262 138.449 92.719C138.117 92.0756 137.794 90.7745 137.7 89.7022C137.606 88.6656 137.7 87.4361 137.921 86.6926C138.16 85.8919 138.347 85.3343 138.449 85.1413C138.5 85.0412 138.551 84.934 138.551 84.9126C138.551 84.8911 138.645 84.6981 138.764 84.4908C138.883 84.2835 138.977 84.0905 138.977 84.0547C138.977 84.019 139.003 83.9975 139.037 83.9975C139.071 83.9975 139.139 83.8975 139.19 83.7759C139.241 83.6544 139.369 83.4471 139.471 83.3184C139.573 83.1897 139.675 83.0396 139.701 82.9896C139.76 82.8537 140.586 81.8672 140.782 81.6885C140.876 81.6027 140.952 81.5026 140.952 81.4669C140.952 81.3025 141.157 81.4311 141.915 82.0745L142.724 82.7537L142.562 83.0968C142.426 83.3756 142.4 83.5543 142.4 84.0905C142.4 84.7196 142.408 84.7481 142.638 85.1127C142.775 85.32 142.953 85.5417 143.039 85.6131C143.124 85.6846 143.2 85.7704 143.2 85.799C143.2 85.8776 159.523 99.5817 159.617 99.5817C159.659 99.5817 159.804 99.6818 159.94 99.8033C160.272 100.096 160.707 100.289 161.132 100.332C161.328 100.354 161.498 100.39 161.524 100.418C161.575 100.482 161.941 100.482 162.103 100.418C162.171 100.39 162.444 100.332 162.716 100.297C162.989 100.261 163.244 100.197 163.295 100.168C163.363 100.118 163.585 100.268 164.206 100.797L165.032 101.49L164.717 101.719C164.547 101.848 164.317 101.991 164.206 102.041C164.095 102.091 163.866 102.212 163.704 102.32C163.27 102.591 162.784 102.834 162.691 102.834C162.648 102.834 162.614 102.863 162.614 102.892C162.614 102.927 162.58 102.949 162.546 102.949C162.503 102.949 162.358 103.013 162.214 103.092C162.069 103.17 161.848 103.256 161.72 103.278C161.592 103.299 161.49 103.335 161.49 103.356C161.49 103.378 161.354 103.435 161.192 103.478C161.03 103.521 160.826 103.592 160.749 103.628C160.673 103.671 160.494 103.721 160.34 103.742C160.187 103.764 160.059 103.807 160.042 103.828C160.025 103.857 159.83 103.907 159.6 103.942C159.378 103.978 159.123 104.035 159.021 104.071C158.731 104.171 156.841 104.357 156.1 104.357C155.359 104.357 153.341 104.164 153.129 104.071C153.06 104.043 152.882 104 152.728 103.978C152.32 103.921 151.502 103.714 151.179 103.592C151.025 103.535 150.795 103.463 150.668 103.442C150.54 103.421 150.438 103.378 150.438 103.356C150.438 103.328 150.353 103.292 150.242 103.27C149.944 103.213 148.241 102.484 148.198 102.398C148.181 102.377 148.139 102.355 148.096 102.355C148.054 102.355 147.917 102.291 147.79 102.205C147.662 102.127 147.526 102.055 147.492 102.055C147.458 102.055 147.27 101.955 147.083 101.826C146.896 101.705 146.683 101.583 146.615 101.562C146.547 101.54 146.496 101.498 146.496 101.462C146.496 101.426 146.461 101.398 146.419 101.398C146.376 101.398 146.172 101.276 145.968 101.133C145.763 100.99 145.576 100.868 145.55 100.868C145.525 100.868 145.397 100.776 145.269 100.661C145.142 100.547 145.005 100.454 144.971 100.454C144.937 100.454 144.384 100.018 143.745 99.4816C143.107 98.9455 142.528 98.5094 142.46 98.5094C142.357 98.5094 142.34 98.5452 142.383 98.7739C142.408 98.9169 142.485 99.1814 142.553 99.353C142.655 99.6103 142.681 99.8677 142.672 100.904C142.672 102.069 142.655 102.184 142.477 102.763C142.366 103.106 142.255 103.406 142.213 103.442C142.179 103.471 142.145 103.535 142.145 103.585C142.145 103.728 141.557 104.757 141.293 105.079C141.225 105.165 141.165 105.265 141.165 105.301C141.165 105.336 141.131 105.365 141.097 105.365C141.055 105.365 141.029 105.401 141.029 105.444C141.029 105.487 140.935 105.608 140.825 105.722C140.714 105.837 140.612 105.944 140.612 105.973C140.612 105.994 140.561 106.066 140.501 106.123C139.99 106.616 139.479 107.138 139.479 107.167C139.479 107.202 139.36 107.309 138.134 108.396L137.547 108.911L136.729 108.203ZM165.841 99.5245C165.432 99.1814 165.075 98.8669 165.049 98.824C165.024 98.7811 165.066 98.5952 165.151 98.4093C165.288 98.1234 165.313 97.9518 165.313 97.3728C165.313 96.951 165.288 96.6579 165.236 96.6365C165.194 96.615 165.117 96.5006 165.066 96.3863C165.015 96.2719 164.93 96.1575 164.879 96.1289C164.828 96.1003 164.785 96.0503 164.785 96.0074C164.785 95.9716 160.936 92.7047 156.228 88.7514C148.394 82.1818 147.628 81.5527 147.211 81.3811C146.955 81.281 146.7 81.1666 146.632 81.1381C146.479 81.0737 145.363 81.0666 145.278 81.1381C145.244 81.1666 145.031 81.2238 144.81 81.2596C144.588 81.3025 144.392 81.3525 144.367 81.3883C144.333 81.4383 142.647 80.0729 142.647 80.0014C142.647 79.9871 142.681 79.9728 142.724 79.9728C142.766 79.9728 142.945 79.8656 143.132 79.7369C143.32 79.6082 143.498 79.501 143.532 79.501C143.566 79.501 143.635 79.451 143.686 79.3795C143.737 79.3151 143.805 79.2579 143.847 79.2579C143.89 79.2579 144.026 79.1936 144.145 79.115C144.648 78.8004 146.649 77.9426 147.126 77.8425C147.313 77.8068 147.492 77.7496 147.534 77.7281C147.577 77.6995 147.764 77.6495 147.96 77.6066C148.156 77.5637 148.377 77.5065 148.454 77.4779C148.599 77.4207 149.586 77.2778 150.421 77.192C151.051 77.1276 152.251 77.1276 152.882 77.192C153.801 77.292 154.78 77.435 154.917 77.4851C155.095 77.5565 155.64 77.6566 155.845 77.6566C155.947 77.6566 156.006 77.6209 156.006 77.5565C156.006 77.4994 154.951 76.57 153.673 75.4906L151.34 73.5247L153.452 71.7518C154.61 70.7796 155.581 69.9789 155.615 69.9789C155.64 69.9789 156.032 70.2863 156.475 70.658L157.284 71.3372V72.0592C157.284 72.8098 157.386 73.5604 157.505 73.732C157.531 73.7677 157.565 73.8678 157.599 73.9679C157.658 74.1609 158.186 75.2332 158.271 75.3261C158.305 75.3619 158.416 75.5192 158.518 75.6836C158.74 76.0196 159.77 77.3421 159.932 77.4922C160.145 77.6924 160.656 78.5431 160.656 78.6932C160.656 78.7361 160.604 78.8433 160.553 78.9362C160.4 79.1864 160.349 79.4795 160.443 79.5725C160.485 79.6154 160.63 79.7012 160.766 79.7512C160.902 79.8012 161.013 79.8727 161.013 79.9013C161.013 79.9299 161.047 79.9585 161.09 79.9585C161.132 79.9585 161.32 80.0657 161.507 80.1944C161.694 80.3231 161.865 80.4303 161.899 80.4303C161.924 80.4303 162.018 80.4804 162.103 80.5519C162.188 80.6233 162.554 80.895 162.929 81.1666C163.636 81.6885 165.798 83.54 165.798 83.6258C165.798 83.6544 165.867 83.733 165.943 83.8117C166.182 84.0261 166.922 84.8411 166.922 84.884C166.922 84.9054 167.042 85.0627 167.186 85.2271C167.331 85.3987 167.493 85.5988 167.535 85.6846C167.629 85.8491 167.731 85.992 167.927 86.2351C168.089 86.4424 168.676 87.4218 168.676 87.4861C168.676 87.5362 168.898 87.9651 169.06 88.2224C169.111 88.3011 169.179 88.4655 169.204 88.5799C169.23 88.6942 169.281 88.8158 169.306 88.8444C169.332 88.8801 169.4 89.0517 169.451 89.2304C169.502 89.4091 169.57 89.5807 169.596 89.6164C169.621 89.6522 169.681 89.8881 169.732 90.1454C169.775 90.4028 169.843 90.6601 169.877 90.7173C170.022 90.9532 170.107 92.5903 170.022 93.5196C169.979 94.02 169.911 94.4704 169.877 94.5276C169.843 94.5848 169.775 94.8207 169.732 95.0566C169.69 95.2925 169.621 95.4998 169.596 95.5141C169.562 95.5284 169.519 95.6499 169.494 95.7858C169.451 95.9931 169.332 96.279 169.034 96.8724C168.889 97.1583 168.285 98.1806 168.182 98.3164L167.689 98.9526C167.484 99.2171 167.288 99.4388 167.254 99.4388C167.22 99.4388 167.195 99.4745 167.195 99.5102C167.195 99.5531 167.059 99.7104 166.897 99.8605L166.599 100.139L165.841 99.5245ZM113.467 94.7778C113.254 94.7063 113.067 94.6277 113.058 94.5991C113.041 94.5705 112.956 94.5204 112.862 94.4918C112.769 94.4633 112.675 94.3918 112.641 94.3346C112.616 94.2774 112.556 94.1987 112.513 94.1559C112.471 94.113 112.36 93.9843 112.275 93.8699C112.139 93.684 112.122 93.6054 112.156 93.1908C112.173 92.9334 112.224 92.6904 112.258 92.6475C112.292 92.6046 112.36 92.4402 112.411 92.2829C112.462 92.1256 112.522 91.9612 112.556 91.9255C112.59 91.8897 112.65 91.6538 112.701 91.3965C112.743 91.1391 112.811 90.8746 112.845 90.8246C112.931 90.6816 112.922 89.6736 112.837 89.6307C112.794 89.6093 112.769 89.5092 112.769 89.402C112.769 89.1375 112.624 88.537 112.556 88.537C112.53 88.537 112.479 88.4369 112.454 88.3154C112.428 88.1938 112.326 87.9508 112.232 87.7792C112.139 87.6076 112.062 87.4432 112.062 87.4146C112.062 87.386 112.037 87.3503 112.011 87.3431C111.985 87.3288 111.858 87.1501 111.73 86.9428C111.458 86.4924 111.466 86.4996 110.879 85.749C110.632 85.4344 110.385 85.1485 110.334 85.1056C110.282 85.0698 110.231 85.0126 110.231 84.9769C110.231 84.9412 106.051 81.4097 100.95 77.1276C95.8415 72.8384 91.6779 69.3284 91.6949 69.3141C91.7204 69.2926 92.9721 69.8145 99.2389 72.4238C100.865 73.1029 102.236 73.6605 102.27 73.6605C102.313 73.6605 102.355 73.6819 102.364 73.7034C102.389 73.7463 103.283 74.1323 103.352 74.1323C103.369 74.1323 105.531 75.9409 108.162 78.1427C110.793 80.3517 112.965 82.1532 112.99 82.1532C113.016 82.1532 113.254 82.2961 113.51 82.4606C113.765 82.6321 114.029 82.7965 114.097 82.8323C114.165 82.868 114.353 82.9681 114.523 83.0682C115.161 83.4256 116.813 84.1405 117.213 84.2263C117.375 84.262 117.563 84.3121 117.639 84.3407C117.844 84.4193 118.559 84.5194 118.925 84.5194C119.095 84.5194 119.3 84.548 119.376 84.5837C119.453 84.6195 119.572 84.6266 119.632 84.6052C119.7 84.5837 119.904 84.5551 120.1 84.5408C120.611 84.5122 121.326 84.405 121.462 84.3478C121.53 84.3192 121.862 84.2191 122.212 84.1334C123.336 83.8474 123.923 83.9332 124.536 84.4765C124.843 84.7481 125.124 85.2414 125.124 85.5131C125.124 85.7919 124.843 86.4209 124.587 86.7212C124.459 86.8785 124.349 87.0357 124.349 87.0715C124.349 87.1072 122.441 88.7443 120.108 90.703C117.775 92.6618 115.834 94.2631 115.783 94.2631C115.732 94.2631 115.545 94.356 115.366 94.4633C115.076 94.6348 114.157 94.9136 113.91 94.9065C113.884 94.9065 113.68 94.8493 113.467 94.7778ZM177.906 88.8658C177.481 88.6656 177.336 88.4655 177.344 88.0723C177.344 87.8149 177.404 87.6505 177.574 87.3717C177.693 87.1716 177.796 86.9714 177.796 86.9142C177.796 86.857 177.83 86.807 177.864 86.7855C177.974 86.7283 177.949 86.2351 177.821 86.0635C177.753 85.9777 173.087 82.0173 167.433 77.2706L157.164 68.6421L160.851 65.5467C162.878 63.8453 164.564 62.4513 164.598 62.4513C164.623 62.4513 169.17 66.2473 174.696 70.8939C180.222 75.5335 184.761 79.3366 184.795 79.3366C184.82 79.3366 184.974 79.4295 185.118 79.5439C185.374 79.744 185.416 79.7512 185.902 79.7512C186.251 79.7512 186.498 79.7155 186.693 79.6368L186.974 79.5224L186.992 80.9164L187.009 82.3104L183.194 85.5059C180.069 88.1223 179.311 88.73 178.996 88.8587C178.536 89.0374 178.272 89.0445 177.906 88.8658ZM124.4 79.7298C117.673 76.906 107.405 72.6168 106.894 72.4238C106.11 72.1235 104.646 71.5016 104.62 71.4658C104.603 71.4444 104.561 71.423 104.527 71.423C104.441 71.423 102.415 70.5866 102.364 70.5294C102.347 70.5079 102.211 70.4579 102.066 70.415C101.921 70.3721 101.802 70.3221 101.802 70.3006C101.802 70.2792 101.674 70.2291 101.521 70.1862C101.368 70.1433 101.24 70.0861 101.24 70.0575C101.24 70.029 101.206 70.0075 101.163 70.0075C101.061 70.0075 100.159 69.6358 100.124 69.5786C100.107 69.5571 100.065 69.5357 100.031 69.5357C99.9286 69.5357 98.4641 68.9281 98.4385 68.8709C98.4215 68.8494 98.3789 68.828 98.3449 68.828C98.2682 68.828 96.2417 67.9987 96.1821 67.9415C96.1651 67.9201 96.0374 67.87 95.9012 67.8271C95.7649 67.7843 92.9806 66.6333 89.711 65.2679C82.9843 62.4585 82.8651 62.4084 82.5756 62.3584C82.4564 62.3369 82.3032 62.2869 82.2265 62.244C82.1499 62.2011 81.9626 62.1511 81.8008 62.1296C81.6475 62.1082 81.4857 62.0724 81.4517 62.051C81.341 61.9938 80.762 61.8723 80.6002 61.8723C80.5151 61.8723 80.4384 61.8365 80.4214 61.8008C80.4044 61.7579 80.1149 61.7222 79.604 61.7079C78.8803 61.6864 78.7781 61.6936 78.4801 61.8151C78.3013 61.8866 78.0117 62.051 77.8329 62.1797C77.3902 62.5014 77.3306 62.5371 77.1347 62.63C76.147 63.0876 75.8916 63.1519 75.3381 63.0804C75.0571 63.0447 74.9465 62.9803 74.4952 62.6157C74.0609 62.2512 73.9673 62.1368 73.8651 61.8437C73.6607 61.2575 73.814 60.7499 74.393 60.0708C74.4526 60.0065 77.7648 57.197 81.7667 53.83L89.0383 47.7107L90.2814 48.2325C90.9626 48.5185 91.5501 48.7544 91.5672 48.7544C91.5842 48.7544 92.2994 49.0332 93.1424 49.3835C93.9853 49.7266 95.2881 50.2628 96.0459 50.5702C96.8037 50.8776 98.0554 51.3923 98.8302 51.714C99.605 52.0356 100.261 52.3001 100.295 52.3001C100.38 52.3001 102.977 53.3868 103.002 53.4368C103.019 53.4582 103.079 53.4797 103.139 53.4797C103.198 53.4797 103.905 53.7442 104.697 54.073C105.489 54.4019 106.774 54.9309 107.549 55.2454C108.324 55.5671 109.073 55.8602 109.218 55.9031C109.363 55.946 109.482 55.996 109.482 56.0175C109.482 56.0389 109.61 56.089 109.763 56.1319C109.916 56.1748 110.044 56.2248 110.044 56.2534C110.044 56.2748 110.172 56.332 110.325 56.3749C110.478 56.4178 110.606 56.4678 110.606 56.4964C110.606 56.525 110.734 56.5751 110.887 56.618C111.04 56.6609 111.168 56.7109 111.168 56.7323C111.168 56.8038 111.841 56.9754 111.96 56.9397C112.105 56.8968 112.113 56.6895 111.977 56.5679C111.926 56.5179 111.73 56.2391 111.543 55.946C111.355 55.6529 111.074 55.2025 110.904 54.9452C110.734 54.6878 110.487 54.2732 110.342 54.0301C110.197 53.7871 110.044 53.5512 109.993 53.5011C109.942 53.4511 109.755 53.1723 109.576 52.8792C109.397 52.5861 109.107 52.1357 108.937 51.8784C108.767 51.621 108.528 51.235 108.401 51.0205C108.273 50.8061 108.145 50.6202 108.111 50.6059C108.077 50.5845 107.924 50.3629 107.771 50.1055C107.617 49.8481 107.302 49.3477 107.072 48.9903C106.843 48.6329 106.553 48.1682 106.425 47.9609C106.298 47.7464 106.17 47.5606 106.136 47.5463C106.102 47.532 105.949 47.3032 105.795 47.0458C105.642 46.7885 105.327 46.2881 105.097 45.9306C104.867 45.5732 104.629 45.1872 104.561 45.0728C104.501 44.9584 104.382 44.794 104.305 44.7011C104.229 44.6081 104.041 44.3293 103.888 44.0791C103.684 43.7574 103.488 43.4286 103.283 43.1069C103.105 42.821 102.849 42.4135 102.713 42.1919C102.577 41.9703 102.406 41.7201 102.338 41.6271C102.27 41.5342 102.083 41.2554 101.93 41.0052C101.734 40.6978 101.546 40.3832 101.342 40.0759C101.172 39.8185 100.908 39.3896 100.746 39.1322C100.584 38.8749 100.405 38.5889 100.337 38.496L100.218 38.3316L107.498 32.2194C115.391 25.5854 115.442 25.5497 116.336 25.3995C116.864 25.3138 117.222 25.3424 117.656 25.5211C118.252 25.7641 118.669 26.2074 118.814 26.7292C118.925 27.1438 118.755 27.7157 118.32 28.4449C117.656 29.5529 117.622 30.2964 118.21 30.8969C118.371 31.0613 118.559 31.2615 118.635 31.3473C118.831 31.5689 149.518 57.3257 149.586 57.3257C149.62 57.3257 149.748 57.4186 149.884 57.533C150.48 58.0477 151.076 58.205 151.911 58.0549C152.43 57.9619 152.575 57.919 153.384 57.5759C154.627 57.0469 155.479 57.1112 156.253 57.7761C156.62 58.0906 156.798 58.4766 156.798 58.9484C156.798 59.3059 156.688 59.7134 156.56 59.8063C156.534 59.8206 156.458 59.9564 156.381 60.0994C156.27 60.3139 154.67 61.6936 148.156 67.1695C143.711 70.9082 140.024 73.975 139.982 73.975C139.931 73.975 139.897 73.9965 139.897 74.0322C139.897 74.0608 139.811 74.1252 139.701 74.1681C139.599 74.211 139.411 74.2967 139.301 74.3468C138.56 74.6828 138.006 74.7185 137.402 74.4755C137.197 74.3968 136.993 74.2896 136.951 74.2395C136.899 74.1895 136.814 74.1466 136.763 74.1466C136.712 74.1466 136.67 74.1109 136.67 74.068C136.67 74.0251 136.601 73.9393 136.516 73.875C136.252 73.6819 136.082 73.2673 136.091 72.867C136.099 72.5453 136.15 72.4095 136.482 71.8376C137.027 70.9011 137.163 70.5437 137.163 70.0718C137.163 69.6644 137.053 69.3999 136.712 68.9995C136.389 68.6278 110.01 46.5311 109.882 46.5311C109.618 46.5311 109.789 46.9815 110.317 47.6821C110.419 47.8108 110.538 48.0109 110.589 48.1253C110.64 48.2397 110.708 48.3469 110.742 48.3612C110.776 48.3827 110.938 48.6186 111.108 48.8902C111.67 49.8053 111.917 50.177 112.045 50.3486C112.122 50.4415 112.224 50.6059 112.275 50.7203C112.326 50.8347 112.386 50.9419 112.411 50.9562C112.462 50.9991 112.641 51.2636 112.982 51.814C113.143 52.0714 113.407 52.5003 113.578 52.7577C113.748 53.015 113.927 53.2938 113.978 53.3796C114.029 53.4654 114.089 53.5369 114.106 53.5583C114.131 53.5726 114.191 53.6799 114.242 53.7942C114.293 53.9086 114.361 54.0158 114.378 54.0301C114.455 54.0873 115.076 55.0524 115.476 55.7244C115.613 55.9603 115.749 56.1533 115.783 56.1533C115.809 56.1533 115.877 56.2605 115.928 56.3892C115.979 56.5179 116.038 56.6251 116.072 56.6251C116.107 56.6251 116.166 56.7324 116.217 56.861C116.268 56.9897 116.336 57.0969 116.362 57.0969C116.388 57.0969 116.532 57.29 116.669 57.5259C117.128 58.2979 117.682 59.1558 117.758 59.2201C117.775 59.2344 117.886 59.3988 117.988 59.5775C118.099 59.7563 118.337 60.1423 118.533 60.4354C118.721 60.7285 119.01 61.1789 119.163 61.4362C119.495 61.9867 119.674 62.2512 119.725 62.294C119.751 62.3083 119.81 62.4156 119.862 62.53C119.913 62.6443 119.989 62.7516 120.015 62.773C120.049 62.7945 120.194 63.0018 120.347 63.2448C120.849 64.0669 121.215 64.6245 121.275 64.696C121.309 64.7318 121.471 64.9748 121.624 65.225C121.786 65.4824 122.067 65.9327 122.254 66.2187C122.441 66.5118 122.697 66.9193 122.833 67.1337C122.961 67.3482 123.148 67.627 123.25 67.7557C123.344 67.8843 123.472 68.0845 123.523 68.1989C123.574 68.3133 123.634 68.4205 123.659 68.4348C123.727 68.4848 123.915 68.7708 124.647 69.9432C124.851 70.2649 125.038 70.5437 125.064 70.5651C125.132 70.608 125.566 71.3729 125.566 71.4444C125.566 71.4801 125.592 71.5087 125.635 71.5087C125.677 71.5087 125.813 71.7018 125.958 71.9377C126.103 72.1736 126.375 72.6025 126.563 72.8956C126.75 73.1887 126.929 73.4746 126.954 73.5318C126.98 73.589 127.022 73.6319 127.048 73.6319C127.073 73.6319 127.142 73.732 127.193 73.8535C127.244 73.975 127.303 74.0894 127.329 74.1037C127.389 74.1466 127.584 74.4326 127.874 74.8972C128.01 75.126 128.249 75.4977 128.402 75.7265C128.555 75.9552 128.751 76.2626 128.836 76.4056C128.921 76.5486 129.006 76.6844 129.032 76.6987C129.057 76.713 129.126 76.8202 129.194 76.9346C129.262 77.049 129.458 77.3564 129.628 77.6137C129.798 77.8711 130.062 78.3 130.232 78.5574C130.394 78.8147 130.582 79.0935 130.65 79.1793C130.718 79.2651 130.811 79.4224 130.871 79.5367C130.922 79.6511 130.982 79.7584 131.007 79.7726C131.058 79.8155 131.246 80.0872 131.535 80.5662L131.782 80.9808L131.067 81.5884C130.675 81.9244 130.318 82.1889 130.275 82.1889C130.198 82.1532 127.567 81.0594 124.4 79.7298ZM42.0201 78.4787C41.8753 78.4072 41.7561 78.3286 41.7561 78.3C41.7561 78.2714 41.705 78.2142 41.6454 78.1785C41.4241 78.0427 41.4581 77.2992 41.688 77.1419C41.7646 77.0919 41.9775 76.5343 42.0201 76.2912C42.0456 76.1339 42.0201 75.991 41.9264 75.848C41.8583 75.7336 37.5413 72.0592 32.1771 67.5484L22.5555 59.456L26.0465 56.5179L29.5375 53.5798L39.2528 61.7293C48.4146 69.4142 48.9851 69.8717 49.2576 69.9146C49.6067 69.9646 50.0239 69.8788 50.5518 69.6644C50.8328 69.55 51.0457 69.5071 51.3096 69.5071C51.6332 69.5071 51.7098 69.5357 51.9312 69.7144C52.0674 69.8288 52.2122 69.9718 52.2548 70.029C52.3655 70.2005 52.3314 70.5437 52.1781 70.7867C52.1015 70.9154 50.1772 72.5739 47.6824 74.6685C42.6587 78.8791 42.7438 78.8219 42.0201 78.4787ZM20.5886 67.0122L17.072 64.0669L19.0729 62.3798L21.0739 60.6927L21.7977 61.3218L22.5214 61.9509L22.564 62.7802C22.6065 63.5379 22.7428 64.2528 22.896 64.553C22.9301 64.6174 22.9982 64.7675 23.0493 64.8747C23.1941 65.2107 23.7135 66.0829 23.9519 66.376C24.0711 66.5261 24.1733 66.6619 24.1733 66.6691C24.1733 66.6834 24.2754 66.8192 24.4032 66.9693C24.5309 67.1194 24.6671 67.291 24.7012 67.341C24.7437 67.3911 24.8715 67.5484 24.9992 67.6842C25.7059 68.4491 25.8762 69.0853 25.4845 69.4785C25.1354 69.8288 24.9566 69.9146 24.5053 69.9432L24.0881 69.9718L20.5886 67.0122ZM57.2273 65.7397C56.8953 65.5825 56.725 65.368 56.6824 65.0606C56.6484 64.8318 56.759 64.4673 56.8782 64.3886C56.9549 64.3386 57.1677 63.781 57.2103 63.5522C57.2359 63.4021 57.2018 63.252 57.0996 63.0804C56.9038 62.7444 40.232 48.7544 39.8573 48.6114C39.4231 48.447 39.0825 48.4899 38.3247 48.7973C37.7712 49.026 37.2859 49.0189 36.9879 48.7758C36.7495 48.59 36.5707 48.2826 36.5707 48.0824C36.5707 47.7107 36.8857 47.4176 41.2367 43.7717C43.6379 41.7558 45.707 40.0616 45.8432 40.0044C46.2178 39.8399 46.5073 39.8185 46.7457 39.9186C47.0523 40.0544 47.461 40.4762 47.461 40.662C47.461 40.8408 47.3077 41.2125 47.1119 41.5342C46.9246 41.8273 46.8564 42.2991 46.9586 42.5565C47.0182 42.7066 49.3002 44.6582 55.5925 49.9411C64.0902 57.0755 64.1583 57.1255 64.4819 57.1613C64.848 57.2042 65.146 57.147 65.7335 56.9039C66.2529 56.6895 66.7809 56.6895 67.0448 56.8896C67.5387 57.2757 67.6323 57.5973 67.3684 58.0263C67.2917 58.1549 65.3674 59.8134 62.8726 61.908C58.445 65.6253 58.1299 65.8684 57.6616 65.8541C57.5509 65.8613 57.3636 65.8041 57.2273 65.7397ZM175.931 65.0677C175.735 64.982 175.565 64.889 175.556 64.8604C175.539 64.8318 175.497 64.8104 175.446 64.8104C175.394 64.8104 175.301 64.7604 175.233 64.696C175.165 64.6317 175.003 64.5387 174.867 64.4887C174.739 64.4387 174.628 64.3672 174.628 64.3386C174.628 64.31 174.586 64.2814 174.534 64.2814C174.483 64.2814 174.398 64.2456 174.356 64.1956C174.313 64.1527 174.168 64.0669 174.032 64.0169C173.896 63.9668 173.785 63.8954 173.785 63.8739C173.785 63.8525 173.734 63.8096 173.666 63.7881C173.598 63.7667 173.385 63.6737 173.189 63.5737C172.993 63.4807 172.755 63.3664 172.661 63.3235C172.568 63.2806 172.465 63.2377 172.448 63.2162C172.431 63.1948 172.304 63.1447 172.167 63.1019C171.886 63.0161 171.605 62.916 171.256 62.7802C171.12 62.7301 170.822 62.6586 170.592 62.6157C170.362 62.58 170.098 62.5228 170.013 62.4871C169.928 62.4513 169.409 62.4227 168.864 62.4227L167.867 62.4156L167.042 61.7293L166.216 61.043L168.344 59.2558C170.243 57.6617 170.49 57.4758 170.592 57.5473C170.856 57.726 177.412 63.2591 177.625 63.4807C177.906 63.7667 178 64.1599 177.864 64.4601C177.813 64.5673 177.634 64.7746 177.464 64.9176C177.174 65.1678 177.131 65.1821 176.723 65.2036C176.348 65.225 176.229 65.2036 175.931 65.0677ZM68.2284 56.4679C67.6323 56.1819 67.5387 55.7601 67.9133 55.0881C67.9899 54.9523 68.0581 54.8093 68.0581 54.7736C68.0581 54.7379 68.0836 54.7164 68.1177 54.7164C68.2113 54.7164 68.2709 54.2732 68.2198 53.9944C68.1773 53.7585 67.9644 53.5655 64.235 50.42C62.0637 48.5971 60.2416 47.103 60.182 47.103C60.1223 47.103 59.5178 47.5677 58.8451 48.1325L57.619 49.1619L56.8612 48.5256L56.1034 47.8894L57.3295 46.8528C58.0022 46.2809 58.5556 45.7805 58.5556 45.7305C58.5556 45.6161 51.2585 39.4897 51.0116 39.4039C50.9094 39.361 50.8158 39.3109 50.8158 39.2895C50.8158 39.268 50.6625 39.2466 50.4667 39.2466C50.1261 39.2466 49.9558 39.2895 49.215 39.5897C48.4913 39.8757 47.8441 39.6612 47.6568 39.0822C47.5632 38.7891 47.6398 38.4817 47.8782 38.21C48.1932 37.8598 56.5462 30.8898 56.8101 30.7682C57.2188 30.5609 57.4828 30.5466 57.8489 30.7039C58.3854 30.9326 58.6493 31.4617 58.3854 31.7833C58.3343 31.8477 58.2065 32.0907 58.0958 32.3266C57.883 32.7913 57.866 33.2846 58.0618 33.499C58.1129 33.5562 61.9615 36.8017 66.602 40.6978C74.1716 47.0601 75.0657 47.7965 75.3466 47.8608C75.7298 47.9537 76.1215 47.9037 76.6239 47.7107C77.1177 47.5177 77.2539 47.4676 77.4328 47.4319C77.6116 47.389 78.165 47.6249 78.2672 47.7822C78.3098 47.8465 78.3864 47.9323 78.429 47.9752C78.5482 48.0824 78.5397 48.5113 78.4119 48.6972C78.3523 48.7758 78.2842 48.8831 78.2587 48.9331C78.2331 48.9831 76.2322 50.6845 73.8055 52.7219C70.059 55.8674 69.3608 56.4321 69.1224 56.4821C68.7903 56.5608 68.4157 56.5536 68.2284 56.4679ZM159.268 56.2891C158.953 56.1962 158.731 56.0675 158.408 55.7959C158.169 55.5957 157.965 55.3955 157.965 55.3455C157.965 55.2955 157.914 55.1811 157.863 55.0881C157.803 54.9952 157.761 54.8308 157.761 54.7307C157.761 54.4877 157.999 53.9086 158.305 53.4153C158.748 52.7076 158.91 52.2144 158.876 51.6997C158.85 51.3565 158.808 51.1992 158.689 51.0634C158.603 50.9633 158.535 50.8633 158.535 50.849C158.535 50.8347 158.442 50.7346 158.322 50.6417C158.203 50.5487 158.11 50.4486 158.11 50.42C158.11 50.3557 127.082 24.3129 127.005 24.3129C126.971 24.3129 126.835 24.22 126.707 24.1056C126.58 23.9913 126.452 23.8983 126.426 23.8983C126.401 23.8983 126.282 23.8411 126.154 23.7625C125.958 23.6481 125.847 23.6267 125.226 23.6267C124.834 23.6267 124.442 23.6553 124.349 23.691C122.501 24.4273 122.382 24.4702 121.982 24.5131C121.641 24.5488 121.53 24.5274 120.926 24.2843C120.628 24.1628 120.117 23.6267 119.947 23.2621C119.785 22.9046 119.742 22.5615 119.853 22.5043C119.887 22.49 119.938 22.3613 119.964 22.2184C119.989 22.0825 120.091 21.8681 120.185 21.7466C120.279 21.625 120.355 21.5106 120.355 21.4892C120.355 21.4177 120.381 21.4034 127.916 15.0482L135.29 8.83598L155.87 26.1144L176.45 43.3929L169.085 49.5622C165.032 52.9578 161.66 55.7673 161.584 55.8173C161.354 55.9674 160.681 56.2248 160.4 56.2677C160.255 56.2891 160.119 56.332 160.094 56.3606C160.042 56.4607 159.719 56.425 159.268 56.2891ZM40.2235 56.1319C40.0532 56.0675 39.7892 55.9245 39.6189 55.8102C39.4486 55.6958 39.2869 55.6029 39.2613 55.6029C39.2358 55.6029 39.0229 55.4813 38.8015 55.3384C38.5801 55.1954 38.3673 55.0739 38.3332 55.0739C38.2992 55.0739 38.1459 54.9952 37.9926 54.9023C37.6606 54.695 36.196 54.073 36.0513 54.073C35.9917 54.073 35.915 54.0444 35.8725 54.0087C35.8299 53.9729 35.6085 53.9015 35.3871 53.8586C35.1572 53.8085 34.8677 53.7442 34.7315 53.7156C34.5953 53.687 34.0503 53.6513 33.5139 53.6441L32.5432 53.6298L31.8109 53.015C31.4108 52.679 31.0787 52.3788 31.0787 52.3573C31.0787 52.3359 31.9642 51.5638 33.0541 50.6488L35.0295 48.9903L38.4354 51.8426C40.513 53.5798 41.8838 54.7736 41.9434 54.8951C42.0031 55.0024 42.0456 55.1525 42.0456 55.224C42.0456 55.5528 41.6029 56.0818 41.2197 56.2033C40.9472 56.282 40.5556 56.2534 40.2235 56.1319ZM79.3741 47.2603C79.0591 47.1674 78.6674 46.7385 78.6674 46.4882C78.6674 46.3882 78.7781 46.1165 78.9228 45.8878C79.2549 45.3373 79.3315 44.7583 79.1016 44.5009C79.0165 44.408 78.9484 44.315 78.9484 44.3007C78.9484 44.2507 62.2255 30.2249 62.1659 30.2249C62.1403 30.2249 62.0637 30.182 61.9871 30.1248C61.8934 30.0534 61.7401 30.0248 61.4166 30.0319C61.059 30.0391 60.8887 30.0748 60.4715 30.2535C59.6796 30.5967 59.2198 30.5538 58.8196 30.0962C58.743 30.0176 58.6663 29.8389 58.6493 29.7031C58.5727 29.217 58.6493 29.1383 62.83 25.6283L66.7298 22.3542L77.5434 31.4331L88.3571 40.5119L84.4404 43.8003C82.2861 45.609 80.4299 47.1245 80.3107 47.1745C80.0042 47.3104 79.6466 47.3461 79.3741 47.2603ZM177.549 39.8757C176.084 38.6461 176.05 38.6104 176.178 38.5103C176.254 38.4531 176.314 38.3745 176.314 38.3316C176.314 38.2887 176.365 38.2315 176.425 38.2029C176.535 38.1457 176.655 38.0027 176.842 37.6739C176.902 37.5667 176.97 37.4809 177.004 37.4809C177.029 37.4809 177.089 37.4237 177.131 37.345C177.174 37.2736 177.404 36.8947 177.642 36.5086C177.881 36.1226 178.068 35.7509 178.068 35.6937C178.068 35.6365 178.094 35.5865 178.128 35.5865C178.162 35.5865 178.23 35.4578 178.272 35.3077C178.315 35.1504 178.383 35.0003 178.409 34.9717C178.443 34.9359 178.502 34.7787 178.553 34.6142C178.605 34.4498 178.664 34.2925 178.698 34.2568C178.732 34.2211 178.792 34.0137 178.843 33.785C178.885 33.5562 178.954 33.3203 178.988 33.256C179.09 33.0558 179.269 31.4402 179.269 30.6753C179.269 29.8961 179.09 28.1947 178.988 28.0017C178.954 27.9373 178.885 27.6871 178.834 27.4512C178.783 27.2153 178.724 27.008 178.69 26.9937C178.656 26.9794 178.63 26.9151 178.63 26.8507C178.63 26.7221 178.247 25.6998 178.136 25.5425C178.094 25.4853 178.068 25.4067 178.068 25.371C178.068 25.3352 178 25.1779 177.915 25.0278C177.404 24.1128 177.276 23.8626 177.148 23.548C177.106 23.4337 177.038 23.2907 177.004 23.2263C176.816 22.8475 176.748 22.1826 176.868 21.8252C176.961 21.5321 177.566 21.0245 178.077 20.8101C178.434 20.66 178.528 20.6457 178.962 20.6742C179.303 20.6957 179.516 20.7386 179.66 20.8315C179.78 20.903 179.899 20.9602 179.924 20.9602C179.95 20.9602 181.551 22.2827 183.483 23.9055L186.992 26.8507V34.5713L183.075 37.8598C180.921 39.6684 179.132 41.1482 179.098 41.1482C179.081 41.141 178.375 40.5691 177.549 39.8757ZM89.149 38.5746L88.4167 37.9598L88.57 37.7597C88.6551 37.6524 88.7573 37.4952 88.8084 37.4165C88.8595 37.3379 88.9191 37.2521 88.9446 37.2378C89.0383 37.1806 89.3363 36.6731 89.3874 36.48C89.4129 36.38 89.464 36.2942 89.4896 36.2942C89.5151 36.2942 89.5832 36.1369 89.6343 35.9367C89.6854 35.7437 89.745 35.5793 89.7706 35.5793C89.8642 35.5793 90.009 34.4141 90.009 33.6635C90.009 32.8914 89.8983 32.0693 89.7791 31.8763C89.745 31.8191 89.6769 31.6404 89.6343 31.476C89.5917 31.3115 89.5066 31.0971 89.4555 30.9898C89.3874 30.8612 89.3193 30.7325 89.2597 30.6038C89.2086 30.4966 89.0979 30.2893 89.0128 30.1463C88.8084 29.796 88.7147 29.3528 88.7914 29.124C88.8595 28.9239 89.1149 28.6665 89.2512 28.6665C89.3022 28.6665 89.3533 28.6236 89.3789 28.5807C89.4385 28.4449 89.9749 28.4663 90.1963 28.6093C90.29 28.6737 90.4006 28.7237 90.4262 28.7237C90.4603 28.7237 91.8226 29.846 93.4574 31.2257L96.4291 33.7206L93.1764 36.4443C91.3884 37.9455 89.9153 39.168 89.8983 39.168C89.8898 39.1894 89.5492 38.9178 89.149 38.5746ZM85.0279 31.4045C84.9087 31.3759 84.6532 31.2829 84.4489 31.19C84.0657 31.0184 83.4271 30.7468 83.061 30.6038C82.7715 30.4894 81.6135 30.2821 81.2899 30.2821C80.9664 30.2821 79.9531 30.4966 79.8169 30.5895C79.7402 30.6467 79.5614 30.5252 78.8632 29.9461L78.0118 29.2313L78.1054 28.9739C78.1565 28.8309 78.2331 28.6808 78.2757 28.6379C78.3183 28.595 78.3523 28.259 78.3523 27.9016C78.3523 27.2511 78.2587 26.8364 78.0118 26.3575C77.9607 26.2574 77.8755 26.0858 77.8244 25.9714C77.7733 25.8571 77.7137 25.7498 77.6967 25.7355C77.6456 25.6998 77.5094 25.4996 77.2454 25.085C77.1092 24.8705 77.0326 24.6632 77.0326 24.4845C77.024 24.2343 77.0496 24.1843 77.305 23.9627C77.6456 23.6696 77.9692 23.5194 78.0714 23.6052C78.1139 23.641 78.2076 23.6624 78.2842 23.6624C78.3779 23.6624 79.7147 24.7419 82.1754 26.8078C84.236 28.5378 86.0241 30.0534 86.1433 30.1749C86.4754 30.5252 86.4498 30.804 86.0496 31.1328C85.709 31.4116 85.411 31.4902 85.0279 31.4045ZM169.741 26.2359C169.094 26.0572 168.327 25.757 168.157 25.614C168.021 25.4996 166.573 24.892 166.19 24.7919C166.02 24.7419 165.798 24.6704 165.696 24.6275C165.603 24.5846 165.483 24.5488 165.432 24.5488C165.381 24.5488 165.211 24.5131 165.049 24.4631C164.64 24.3487 163.389 24.1914 162.852 24.1914C162.265 24.1914 161.047 24.3487 160.8 24.4559C160.69 24.506 160.553 24.5417 160.502 24.5417C160.451 24.5417 160.306 24.5917 160.187 24.6561C159.693 24.9063 159.796 24.9635 158.016 23.4694L156.373 22.0897L156.602 21.7251C157.02 21.0603 157.224 20.0809 157.156 19.1158C157.122 18.5511 156.918 17.6146 156.764 17.3144C156.73 17.25 156.688 17.1285 156.662 17.0499C156.594 16.8354 156.441 16.5351 155.896 15.6416C154.576 13.4612 154.636 13.5827 154.627 13.0966C154.619 12.539 154.746 12.3031 155.3 11.8456C155.768 11.4524 156.092 11.3595 156.713 11.4024C156.986 11.4238 157.207 11.481 157.394 11.5882C157.548 11.674 157.692 11.7384 157.718 11.7384C157.743 11.7384 157.82 11.7741 157.88 11.8241C157.939 11.8742 158.161 12.0315 158.357 12.1887C158.561 12.3389 158.723 12.489 158.723 12.5104C158.723 12.5676 170.839 22.7331 171.299 23.0619C171.495 23.2049 171.657 23.3407 171.657 23.3765C171.657 23.4122 171.716 23.4837 171.793 23.5337C171.869 23.5909 172.048 23.8197 172.184 24.0484C172.619 24.7562 172.516 25.2351 171.784 25.8285C171.384 26.1502 170.814 26.3861 170.422 26.3718C170.328 26.3718 170.013 26.3146 169.741 26.2359ZM69.0543 21.7037C68.6626 21.3677 68.339 21.0817 68.339 21.0531C68.339 21.0245 69.744 19.8307 71.4639 18.3938L74.5888 15.7774L77.6541 18.3509C79.6806 20.0523 80.7194 20.9673 80.7194 21.046C80.7194 21.1675 80.4555 21.6465 80.3022 21.7966C80.2511 21.8466 80.0893 21.9396 79.9361 22.0039C79.6721 22.1183 79.6295 22.1183 79.3571 22.0397C79.1953 21.9968 78.8973 21.8895 78.7014 21.8037C78.5056 21.718 78.2927 21.6465 78.2416 21.6465C78.1906 21.6465 78.0884 21.6036 78.0118 21.5607C77.9351 21.5106 77.8244 21.4749 77.7648 21.4749C77.7052 21.4749 77.569 21.4392 77.4753 21.3963C77.3731 21.3534 77.1177 21.2819 76.9134 21.239C76.709 21.1961 76.5046 21.1461 76.4621 21.1175C76.3003 21.0102 74.6399 20.9387 73.7544 21.0031C73.2776 21.0388 72.8433 21.0889 72.8093 21.1103C72.7667 21.1389 72.5794 21.189 72.3835 21.2247C71.813 21.3391 70.7998 21.7466 70.1356 22.1326C69.9824 22.2184 69.8376 22.297 69.8206 22.297C69.7865 22.3113 69.446 22.0397 69.0543 21.7037ZM139.462 7.9138C138.662 7.23467 138.006 6.66277 138.006 6.63418C138.006 6.60559 139.769 5.10436 141.923 3.29573L145.84 0.00732422H154.278L157.905 3.05982C160.783 5.48324 161.55 6.15522 161.584 6.30534C161.609 6.41257 161.66 6.51265 161.694 6.52695C161.779 6.56984 161.779 6.82005 161.694 6.95587C161.66 7.01306 161.592 7.17748 161.541 7.31331C161.422 7.6493 160.596 8.39991 160.145 8.57863C159.813 8.71445 159.225 8.74305 159.063 8.62867C159.012 8.60008 158.85 8.53574 158.697 8.49999C158.544 8.4571 158.024 8.26409 157.539 8.07107C157.054 7.87091 156.56 7.67789 156.432 7.635C156.304 7.59211 156.1 7.52062 155.972 7.47058C155.845 7.42054 155.615 7.3562 155.444 7.32046C155.283 7.28471 155.129 7.23467 155.112 7.20608C155.095 7.17748 154.942 7.14174 154.78 7.11314C154.619 7.0917 154.389 7.03451 154.269 6.99162C154.074 6.91298 153.452 6.7986 152.575 6.66992C151.681 6.5341 150.106 6.48406 149.058 6.55554C148.479 6.59129 147.866 6.64848 147.696 6.67707C146.955 6.79145 146.308 6.92728 146.112 6.99876C145.993 7.04166 145.797 7.09885 145.67 7.12029C145.542 7.14174 145.355 7.19893 145.244 7.24182C145.142 7.28471 144.954 7.3419 144.827 7.36335C144.699 7.38479 144.597 7.42054 144.597 7.44198C144.597 7.46343 144.469 7.52062 144.316 7.56351C144.163 7.6064 144.035 7.66359 144.035 7.68504C144.035 7.70649 143.933 7.74938 143.805 7.77082C143.677 7.79227 143.422 7.8995 143.226 7.99958C143.03 8.09967 142.792 8.22119 142.698 8.26409C142.323 8.42136 142.068 8.55003 141.727 8.7645C141.531 8.88602 141.336 8.98611 141.302 8.98611C141.268 8.98611 141.199 9.029 141.148 9.07189C141.097 9.12193 141.029 9.15767 140.978 9.15767C140.927 9.15767 140.263 8.58578 139.462 7.9138Z" fill="black"/>
    </g>
    <defs>
        <clipPath id="clip0_222_533">
            <rect width="187" height="157" fill="white"/>
        </clipPath>
    </defs>
</svg>
