<svg width="187" height="130" viewBox="0 0 187 130" fill="none" xmlns="http://www.w3.org/2000/svg">
    <path d="M57.4834 23.7301C51.8267 31.3486 46.1561 38.9897 40.5011 46.6099C40.1617 46.2186 39.8362 45.8152 39.5695 45.3615C38.593 43.7253 38.0787 41.8501 38.0787 39.9454V28.7982C38.0787 25.8408 35.6824 23.4392 32.7233 23.4392C29.7693 23.4392 27.3626 25.8391 27.3626 28.7982V35.054L26.9488 34.8289C26.3133 34.4722 25.78 33.9632 25.4008 33.3312C25.0337 32.7113 24.8346 31.9962 24.8346 31.2621V19.63C24.8346 16.6726 22.4313 14.2745 19.4791 14.2745C16.5252 14.2745 14.1185 16.6726 14.1185 19.63V29.0821L13.6943 28.8518C13.0554 28.5073 12.529 27.9861 12.1515 27.3489C11.7793 26.7377 11.5853 26.0139 11.5853 25.285V11.002C11.5853 8.04117 9.18376 5.64307 6.22985 5.64307C3.26902 5.64307 0.865723 8.04117 0.865723 11.002V27.0442C0.865723 34.0463 0.865723 50.4902 24.9593 57.3209L31.7207 58.4394C28.3097 63.0348 24.9177 67.6076 21.4946 72.2168H38.1497C44.3761 63.8105 50.6077 55.4041 56.8376 47.0082C57.0211 46.764 57.2254 46.5337 57.499 46.184C58.5899 47.6609 59.6132 49.0271 60.7196 50.504C62.4095 48.2219 64.0354 46.0472 65.7513 43.7616C66.8109 45.1849 67.8031 46.5337 68.8091 47.8912L72.1093 43.443C67.2351 36.8773 62.3731 30.3184 57.4834 23.7301ZM22.3725 17.1089C23.82 18.5565 23.5949 21.661 23.5949 21.661C23.5949 21.661 23.2278 19.327 21.7699 17.8691C20.1388 16.2345 17.8187 15.883 17.8187 15.883C17.8187 15.883 20.9197 15.658 22.3725 17.1089ZM8.87729 8.58312C10.3248 10.0306 10.1049 13.1369 10.1049 13.1369C10.1049 13.1369 9.7361 10.8029 8.2782 9.34497C6.64195 7.71045 4.32176 7.35896 4.32176 7.35896C4.32176 7.35896 7.42804 7.13387 8.87729 8.58312ZM4.32176 32.9451C7.42804 41.7912 14.4942 50.3499 26.0345 54.4605C13.9904 52.7082 4.32176 40.638 4.32176 32.9451ZM35.6391 26.426C37.0866 27.8736 36.8615 30.9798 36.8615 30.9798C36.8615 30.9798 36.4944 28.6441 35.0365 27.1862C33.4055 25.5516 31.087 25.2002 31.087 25.2002C31.087 25.2002 34.1864 24.9768 35.6391 26.426Z" fill="black"/>
    <path d="M180.779 5.64307C177.825 5.64307 175.418 8.03944 175.418 11.002V25.2833C175.418 26.0122 175.224 26.736 174.852 27.3472C174.48 27.9844 173.95 28.5056 173.309 28.8501L172.883 29.0804V19.6282C172.883 16.6691 170.48 14.2728 167.528 14.2728C164.574 14.2728 162.167 16.6709 162.167 19.6282V31.2603C162.167 31.9945 161.968 32.7113 161.601 33.3295C161.229 33.9614 160.694 34.4705 160.055 34.8272L159.639 35.054V28.7982C159.639 25.8408 157.236 23.4392 154.284 23.4392C151.325 23.4392 148.928 25.8391 148.928 28.7982V39.9454C148.928 41.8501 148.409 43.7253 147.437 45.3615C147.167 45.8152 146.842 46.2186 146.502 46.6099C140.847 38.9897 135.177 31.3504 129.518 23.7301C124.634 30.3184 119.772 36.8755 114.898 43.4413L118.198 47.8895C119.206 46.532 120.196 45.1832 121.256 43.7599C122.972 46.0472 124.592 48.2219 126.282 50.5023C127.394 49.0253 128.412 47.6592 129.508 46.1822C129.782 46.532 129.986 46.7623 130.169 47.0064C136.401 55.4024 142.627 63.8087 148.856 72.2151H165.511C162.087 67.6059 158.696 63.033 155.285 58.4394L162.049 57.3209C186.134 50.4902 186.134 34.0463 186.134 27.0442V11.002C186.134 8.04117 183.736 5.64307 180.779 5.64307ZM151.964 27.1879C150.506 28.6458 150.139 30.9816 150.139 30.9816C150.139 30.9816 149.919 27.8753 151.366 26.4278C152.814 24.9785 155.92 25.2036 155.92 25.2036C155.92 25.2036 153.6 25.5534 151.964 27.1879ZM164.633 17.1072C166.08 15.658 169.185 15.883 169.185 15.883C169.185 15.883 166.866 16.2345 165.23 17.8691C163.772 19.327 163.405 21.661 163.405 21.661C163.405 21.661 163.184 18.5547 164.633 17.1072ZM160.971 54.4605C172.506 50.3499 179.577 41.7929 182.678 32.9451C182.677 40.638 173.015 52.7082 160.971 54.4605ZM178.727 9.34497C177.269 10.8029 176.902 13.1369 176.902 13.1369C176.902 13.1369 176.677 10.0324 178.124 8.58312C179.577 7.13387 182.678 7.35896 182.678 7.35896C182.678 7.35896 180.358 7.71045 178.727 9.34497Z" fill="black"/>
    <path d="M70.7034 63.0364L73.95 67.3565L78.9695 60.6366L81.146 63.5853L93.5261 46.9112L96.7501 51.2502L101.792 44.52L104.012 47.5102L85.6894 72.215H98.5301L105.402 62.9222L108.664 67.282L113.684 60.5362L115.899 63.5334L109.463 72.215H131.636L93.5261 20.8662L55.4214 72.215H63.8797C66.0839 69.2421 68.3348 66.2154 70.7034 63.0364Z" fill="black"/>
    <path d="M9.43829 106.644C9.43829 107.864 10.7508 108.566 10.7508 109.206C10.7508 109.482 10.5049 109.726 10.0789 109.726H4.71134C4.28367 109.726 4.03953 109.482 4.03953 109.206C4.03953 108.567 5.35026 107.864 5.35026 106.644V90.0474C3.64302 90.0474 3.45948 90.2916 2.78767 90.8699C2.11585 91.4499 1.84228 91.7547 1.4146 91.7547C1.07869 91.7547 0.865723 91.4811 0.865723 91.114V87.1178C0.865723 86.6295 1.04926 86.4165 1.53754 86.4165C2.02582 86.4165 2.42232 86.6901 4.58841 86.6901H10.2036C10.6919 86.6901 11.4849 86.6 12.0961 86.5083C12.6138 86.4477 12.9186 86.4165 13.1021 86.4165C13.5904 86.4165 13.9263 86.7212 13.9263 87.2095V90.9322C13.9263 91.4188 13.5904 91.7547 13.1021 91.7547C12.7056 91.7547 12.4615 91.5105 11.9437 90.8993C11.3343 90.2292 11.3343 90.0457 9.44175 90.0457V106.644H9.43829Z" fill="black"/>
    <path d="M29.1527 106.644C29.1527 107.864 30.4652 108.566 30.4652 109.206C30.4652 109.482 30.221 109.726 29.7934 109.726H24.424C23.9964 109.726 23.7522 109.482 23.7522 109.206C23.7522 108.567 25.0647 107.864 25.0647 106.644V102.587L20.2442 104.845V106.644C20.2442 107.864 21.5567 108.566 21.5567 109.206C21.5567 109.482 21.3126 109.726 20.8849 109.726H15.5156C15.0879 109.726 14.8438 109.482 14.8438 109.206C14.8438 108.567 16.1545 107.864 16.1545 106.644V89.7739C16.1545 88.555 14.8438 87.852 14.8438 87.2113C14.8438 86.936 15.0879 86.6919 15.5156 86.6919H20.8849C21.3126 86.6919 21.5567 86.936 21.5567 87.2113C21.5567 87.852 20.2442 88.5532 20.2442 89.7739V100.452L25.0647 98.1941V89.7739C25.0647 88.555 23.7522 87.852 23.7522 87.2113C23.7522 86.936 23.9964 86.6919 24.424 86.6919H29.7934C30.221 86.6919 30.4652 86.936 30.4652 87.2113C30.4652 87.852 29.1527 88.5532 29.1527 89.7739V106.644Z" fill="black"/>
    <path d="M32.3666 109.724C31.939 109.724 31.6948 109.48 31.6948 109.205C31.6948 108.566 33.0073 107.863 33.0073 106.642V89.7725C33.0073 88.5535 31.6948 87.8505 31.6948 87.2099C31.6948 86.9346 31.9407 86.6904 32.3666 86.6904H43.0447C43.7771 86.6904 44.0818 86.9952 44.0818 87.7276V91.2061C44.0818 91.6632 43.9901 91.8156 43.7459 91.9991C43.2577 92.3662 40.8786 93.9834 40.5133 93.9834C40.2691 93.9834 39.9938 93.7393 39.9938 93.4034V90.0478H37.4918C37.2789 90.0478 37.0953 90.2313 37.0953 90.4131V97.8879L39.8103 96.1789C40.0856 95.9971 40.3592 95.8742 40.6033 95.8742C40.9704 95.8742 41.1833 96.1789 41.1833 96.5149V99.3216C41.1833 99.841 41.0621 100.085 40.6033 100.359L37.0953 102.585V106.003C37.0953 106.216 37.2771 106.369 37.4918 106.369H39.9938V104.447C39.9938 103.988 40.0856 103.836 40.3297 103.654C40.818 103.287 43.1971 101.671 43.5641 101.671C43.8083 101.671 44.0836 101.915 44.0836 102.25V108.687C44.0836 109.418 43.7788 109.724 43.0464 109.724H32.3666Z" fill="black"/>
    <path d="M69.1986 97.8274L66.056 106.918C65.9642 107.222 65.9348 107.467 65.9348 107.65C65.9348 108.138 66.5443 108.627 66.5443 109.205C66.5443 109.48 66.3001 109.724 65.8742 109.724H61.8156C61.3879 109.724 61.1438 109.48 61.1438 109.205C61.1438 108.627 61.7238 108.138 61.755 107.65C61.755 107.467 61.7238 107.222 61.6321 106.918L58.5206 97.8568V106.644C58.5206 107.865 59.8313 108.566 59.8313 109.207C59.8313 109.482 59.5872 109.726 59.1612 109.726H53.9443C53.5166 109.726 53.2725 109.482 53.2725 109.207C53.2725 108.568 54.5849 107.865 54.5849 106.644V89.7119C54.5849 88.4912 53.2725 87.79 53.2725 87.1493C53.2725 86.874 53.5166 86.6299 53.9443 86.6299H57.9094C58.8859 86.6299 59.0989 87.0281 59.2513 87.4852L63.857 101.183L68.3121 87.8523C68.4645 87.3935 68.8298 86.6316 69.8375 86.6316H73.7715C74.1991 86.6316 74.4433 86.8758 74.4433 87.1511C74.4433 87.7917 73.1308 88.493 73.1308 89.7136V106.646C73.1308 107.866 74.4433 108.568 74.4433 109.208C74.4433 109.484 74.1991 109.728 73.7715 109.728H68.5545C68.1268 109.728 67.8827 109.484 67.8827 109.208C67.8827 108.569 69.1952 107.866 69.1952 106.646V97.8274H69.1986Z" fill="black"/>
    <path d="M80.5898 106.369H83.916C84.0372 106.369 84.129 106.248 84.129 106.156V90.2625C84.129 90.1413 84.0372 90.0495 83.916 90.0495H80.5898C80.4686 90.0495 80.3769 90.1413 80.3769 90.2625V106.156C80.3769 106.248 80.4686 106.369 80.5898 106.369ZM76.2871 107.254V89.163C76.2871 87.5458 77.5684 86.6904 79.1856 86.6904H85.1956C87.0258 86.6904 88.2153 87.9735 88.2153 89.3154V107.101C88.2153 108.351 87.0569 109.724 85.1956 109.724H79.1856C77.539 109.724 76.2871 108.841 76.2871 107.254Z" fill="black"/>
    <path d="M94.9665 106.369H98.291C98.4122 106.369 98.5039 106.248 98.5039 106.156V90.2625C98.5039 90.1413 98.4122 90.0495 98.291 90.0495H94.9665C94.8453 90.0495 94.7536 90.1413 94.7536 90.2625V106.156C94.7536 106.248 94.8453 106.369 94.9665 106.369ZM90.6655 107.254V89.163C90.6655 87.5458 91.9468 86.6904 93.564 86.6904H99.574C101.404 86.6904 102.594 87.9735 102.594 89.3154V107.101C102.594 108.351 101.435 109.724 99.574 109.724H93.564C91.9157 109.724 90.6655 108.841 90.6655 107.254Z" fill="black"/>
    <path d="M105.253 107.224V101.64C105.253 101.091 105.62 100.755 106.046 100.755C106.656 100.755 108.333 101.882 108.822 102.25C109.097 102.433 109.341 102.708 109.341 103.5V106.367H112.484V102.127C112.484 101.73 112.331 101.457 111.935 101.179L106.902 97.7026C106.017 97.0932 105.253 96.4525 105.253 95.1106V89.04C105.253 87.5129 106.534 86.6904 108.152 86.6904H113.246C115.078 86.6904 116.267 87.9406 116.267 89.1907V93.9211C116.267 94.47 115.9 94.8353 115.595 94.8353C114.865 94.8353 113.216 93.6752 112.697 93.3393C112.423 93.1575 112.177 92.8822 112.177 92.0892V90.0443H109.343V93.7964C109.343 94.2241 109.435 94.4682 109.923 94.8353L115.017 98.3433C116.025 99.0151 116.574 99.6246 116.574 100.935V107.221C116.574 108.471 115.14 109.723 113.677 109.723H108.276C106.474 109.726 105.253 108.474 105.253 107.224Z" fill="black"/>
    <path d="M119.083 109.724C118.655 109.724 118.411 109.48 118.411 109.205C118.411 108.566 119.722 107.863 119.722 106.642V89.7725C119.722 88.5535 118.411 87.8505 118.411 87.2099C118.411 86.9346 118.655 86.6904 119.083 86.6904H129.759C130.491 86.6904 130.798 86.9952 130.798 87.7276V91.2061C130.798 91.6632 130.706 91.8156 130.462 91.9991C129.974 92.3662 127.595 93.9834 127.229 93.9834C126.985 93.9834 126.71 93.7393 126.71 93.4034V90.0478H124.208C123.995 90.0478 123.811 90.2313 123.811 90.4131V97.8879L126.526 96.1789C126.802 95.9971 127.075 95.8742 127.319 95.8742C127.685 95.8742 127.899 96.1789 127.899 96.5149V99.3216C127.899 99.841 127.778 100.085 127.319 100.359L123.811 102.585V106.003C123.811 106.216 123.993 106.369 124.208 106.369H126.71V104.447C126.71 103.988 126.802 103.836 127.046 103.654C127.534 103.287 129.913 101.671 130.28 101.671C130.524 101.671 130.8 101.915 130.8 102.25V108.687C130.8 109.418 130.495 109.724 129.761 109.724H119.083Z" fill="black"/>
    <path d="M149.506 106.369C149.811 106.369 149.934 106.248 149.934 105.941V100.755C149.934 100.328 148.043 98.9545 148.043 98.9545L145.725 100.511C145.479 100.695 145.387 100.816 145.387 101.031V106.369H149.506ZM145.389 90.0478V96.546L148.623 94.5323C148.93 94.3193 149.143 94.0129 149.143 93.7376V90.4425C149.143 90.1066 149.081 90.046 148.715 90.046L145.389 90.0478ZM140.662 109.724C140.234 109.724 139.99 109.48 139.99 109.205C139.99 108.566 141.301 107.863 141.301 106.642V89.7725C141.301 88.5535 139.99 87.8505 139.99 87.2099C139.99 86.9346 140.234 86.6904 140.662 86.6904H149.905C152.163 86.6904 153.229 87.7588 153.229 89.6184V94.2864C153.229 95.3859 152.227 96.1183 151.615 96.6361C152.44 97.2144 154.026 98.1009 154.026 99.3199V107.375C154.026 108.93 152.684 109.724 151.129 109.724H140.662Z" fill="black"/>
    <path d="M165.535 99.6575L164.068 92.9463L162.056 101.519L165.535 99.6575ZM173.039 109.175C173.039 109.511 172.795 109.724 172.369 109.724H167.365C166.875 109.724 166.662 109.48 166.662 109.175C166.662 108.687 167.457 108.353 167.457 107.619C167.457 107.406 166.449 103.287 166.449 103.287L160.929 106.277V107.101C160.929 108.291 162.027 108.687 162.027 109.175C162.027 109.482 161.814 109.724 161.324 109.724H155.894C155.466 109.724 155.222 109.511 155.222 109.175C155.222 108.687 156.412 108.078 156.685 107.009C156.928 106.062 161.08 89.7725 161.08 88.8271C161.08 88.247 160.287 87.6064 160.287 87.2393C160.287 86.9034 160.531 86.6904 160.959 86.6904H167.273C167.701 86.6904 167.943 86.9034 167.943 87.2393C167.943 87.6064 167.15 88.247 167.15 88.8271C167.15 89.7725 170.904 104.752 171.237 105.972C171.727 107.834 173.039 108.687 173.039 109.175Z" fill="black"/>
    <path d="M177.865 94.4714L180.001 89.4675C180.001 88.6138 179.025 87.852 179.025 87.2113C179.025 86.9378 179.271 86.6919 179.698 86.6919H185.461C185.888 86.6919 186.134 86.9378 186.134 87.2113C186.134 87.852 185.033 88.7056 184.488 89.8345C182.779 93.3442 180.126 98.9871 179.911 99.6572V106.644C179.911 107.864 181.224 108.567 181.224 109.206C181.224 109.482 180.978 109.726 180.552 109.726H175.181C174.753 109.726 174.511 109.482 174.511 109.206C174.511 108.567 175.822 107.864 175.822 106.644V99.6572C175.609 98.9854 172.953 93.3425 171.245 89.8345C170.695 88.7056 169.595 87.852 169.595 87.2113C169.595 86.9378 169.839 86.6919 170.267 86.6919H176.035C176.462 86.6919 176.705 86.9378 176.705 87.2113C176.705 87.852 175.728 88.6156 175.728 89.4675L177.865 94.4714Z" fill="black"/>
    <path d="M179.122 123.355V121.294H182.32V120.52H179.122V118.56H182.713V117.769H178.213V124.146H182.841V123.355H179.122ZM166.028 121.431H164.478V118.558H166.028C167.195 118.558 167.805 119.078 167.805 119.99C167.806 120.903 167.195 121.431 166.028 121.431ZM168.824 124.146L167.313 122.004C168.206 121.685 168.715 120.976 168.715 119.99C168.715 118.605 167.715 117.767 166.054 117.767H163.568V124.144H164.478V122.203H166.056C166.193 122.203 166.329 122.194 166.458 122.184L167.834 124.144L168.824 124.146ZM150.774 123.408C149.344 123.408 148.286 122.369 148.286 120.956C148.286 119.544 149.344 118.505 150.774 118.505C152.187 118.505 153.245 119.544 153.245 120.956C153.245 122.369 152.187 123.408 150.774 123.408ZM150.774 124.219C152.715 124.219 154.154 122.835 154.154 120.956C154.154 119.08 152.715 117.694 150.774 117.694C148.814 117.694 147.375 119.088 147.375 120.956C147.375 122.825 148.814 124.219 150.774 124.219ZM135.885 124.146H136.785V118.56H138.972V117.769H133.696V118.56H135.883L135.885 124.146ZM122.89 124.219C124.576 124.219 125.359 123.382 125.359 122.407C125.359 120.066 121.496 121.043 121.496 119.481C121.496 118.924 121.962 118.468 123.046 118.468C123.61 118.468 124.241 118.633 124.796 118.989L125.096 118.259C124.568 117.895 123.794 117.694 123.046 117.694C121.368 117.694 120.604 118.532 120.604 119.519C120.604 121.89 124.467 120.906 124.467 122.463C124.467 123.019 123.995 123.445 122.89 123.445C122.069 123.445 121.259 123.135 120.786 122.707L120.449 123.417C120.958 123.891 121.913 124.219 122.89 124.219ZM98.3774 121.431H96.8277V118.558H98.3774C99.5444 118.558 100.156 119.078 100.156 119.99C100.154 120.903 99.5444 121.431 98.3774 121.431ZM101.174 124.146L99.6622 122.004C100.556 121.685 101.065 120.976 101.065 119.99C101.065 118.605 100.064 117.767 98.4034 117.767H95.917V124.144H96.8277V122.203H98.4051C98.5419 122.203 98.6787 122.194 98.8068 122.184L100.183 124.144L101.174 124.146ZM83.1231 123.408C81.6928 123.408 80.6349 122.369 80.6349 120.956C80.6349 119.544 81.6928 118.505 83.1231 118.505C84.5359 118.505 85.5939 119.544 85.5939 120.956C85.5939 122.369 84.5359 123.408 83.1231 123.408ZM83.1231 124.219C85.064 124.219 86.5029 122.835 86.5029 120.956C86.5029 119.08 85.064 117.694 83.1231 117.694C81.1647 117.694 79.7242 119.088 79.7242 120.956C79.7242 122.825 81.163 124.219 83.1231 124.219ZM67.4497 123.408C66.0195 123.408 64.9615 122.369 64.9615 120.956C64.9615 119.544 66.0195 118.505 67.4497 118.505C68.8626 118.505 69.9205 119.544 69.9205 120.956C69.9205 122.369 68.8626 123.408 67.4497 123.408ZM67.4497 124.219C69.3907 124.219 70.8295 122.835 70.8295 120.956C70.8295 119.08 69.3907 117.694 67.4497 117.694C65.4896 117.694 64.0508 119.088 64.0508 120.956C64.0508 122.825 65.4896 124.219 67.4497 124.219ZM49.9357 123.355V118.56H51.6586C53.2359 118.56 54.2471 119.526 54.2471 120.956C54.2471 122.388 53.2359 123.355 51.6586 123.355H49.9357ZM49.025 124.146H51.7122C53.764 124.146 55.1562 122.852 55.1562 120.956C55.1562 119.06 53.7623 117.769 51.7122 117.769H49.025V124.146ZM36.9237 124.146H37.824V118.56H40.0109V117.769H34.7351V118.56H36.9219V124.146H36.9237ZM23.1913 124.219C24.8777 124.219 25.8889 123.244 25.8889 121.395V117.767H25.0059V121.356C25.0059 122.769 24.3496 123.406 23.2017 123.406C22.0537 123.406 21.4061 122.769 21.4061 121.356V117.767H20.4954V121.395C20.4936 123.244 21.5135 124.219 23.1913 124.219ZM7.75339 123.408C6.32319 123.408 5.26525 122.369 5.26525 120.956C5.26525 119.544 6.32319 118.505 7.75339 118.505C9.16628 118.505 10.2242 119.544 10.2242 120.956C10.2242 122.369 9.16628 123.408 7.75339 123.408ZM7.75339 124.219C9.69438 124.219 11.1332 122.835 11.1332 120.956C11.1332 119.08 9.69438 117.694 7.75339 117.694C5.79335 117.694 4.35449 119.088 4.35449 120.956C4.35449 122.825 5.79335 124.219 7.75339 124.219Z" fill="black"/>
</svg>
