<svg width="187" height="160" viewBox="0 0 187 160" fill="none" xmlns="http://www.w3.org/2000/svg">
    <path d="M163.281 101.816V99.0674H176.445V101.816H163.281ZM152.927 78.4784L160.9 59.4355L178.109 64.687L176.331 68.9079L164.801 65.3741L163.453 68.6134L173.893 71.8036L172.258 75.7054L161.818 72.5152L160.355 75.9999L171.914 79.5336L170.136 83.7545L152.927 78.4784ZM51.5683 94.3557H55.1535V106.503H52.0559V98.552H52.0272L47.0941 106.503H45.8322L40.9277 98.552H40.899V106.503H37.8015V94.3557H41.3866L46.4344 102.822H46.4631L51.5683 94.3557ZM67.9452 94.3557H70.842L77.2665 106.503H73.8822L72.9357 104.638H65.8228L64.8763 106.503H61.5493L67.9452 94.3557ZM69.3792 97.4723L66.97 102.307H71.8171L69.4079 97.4723H69.3792ZM92.6108 102.012L96.0812 106.503H92.5535L89.2552 102.11H86.7312V106.503H83.6337V94.3557H91.1194C94.217 94.3557 96.1959 95.8526 96.1959 98.233C96.1959 100.196 94.8479 101.57 92.6108 101.988V102.012ZM90.8039 99.779C92.238 99.779 93.0697 99.2146 93.0697 98.2085C93.0697 97.1778 92.3527 96.7115 90.7466 96.7115H86.7025V99.8036H90.8039V99.779ZM112.171 94.3557H116.416L110.536 99.5582L116.473 106.503H112.688L108.471 101.325H108.443L106.292 103.313V106.503H103.194V94.3557H106.292V99.7054H106.32L112.171 94.3557ZM122.841 94.3557H133.596V96.687H125.967V99.2391H132.879V101.448H125.967V104.196H133.596V106.527H122.869L122.841 94.3557ZM139.963 94.3557H153.185V96.687H148.137V106.503H145.04V96.7115H139.963V94.3557ZM10.3251 101.816V99.0674H23.4897V101.816H10.3251ZM6.02295 67.5582L27.0461 60.4661L28.9677 64.6379L21.2239 67.2391L27.9926 81.8895L22.3998 83.779L15.6311 69.1287L7.94457 71.7054L6.02295 67.5582ZM38.9774 57.3987L44.857 56.2944L46.7499 63.7054L56.5302 61.8895L54.6372 54.4784L60.5168 53.3741L65.5647 73.1287L59.6851 74.233L57.7061 66.4784L47.9259 68.2944L49.9048 76.0735L44.0252 77.1778C43.9966 77.1778 38.9774 57.3987 38.9774 57.3987ZM107.037 71.6318L108.73 51.46L114.753 51.8281L113.06 71.9999L107.037 71.6318ZM124.734 52.3925L131.215 53.4723L135.03 68.4907H135.087L145.298 55.8281L151.78 56.9079L136.636 74.9692L130.728 73.9631L124.734 52.3925ZM97.2285 71.1164L90.5458 71.4109L85.1538 64.9324L81.2245 65.1042L81.626 71.8036L75.603 72.0735L74.3697 51.8772L87.0754 51.3128C92.324 51.0674 96.0525 53.3987 96.3107 57.6441C96.5114 60.8833 94.5325 63.2146 91.2341 64.2453V64.2698L97.2285 71.1164ZM87.1328 60.4416C89.1691 60.3434 90.4024 59.46 90.2877 57.8895C90.2016 56.2698 88.997 55.6072 86.8173 55.7054L80.6222 55.9753L80.909 60.7115L87.1328 60.4416Z" fill="black"/>
</svg>
