<svg width="187" height="139" viewBox="0 0 187 139" fill="none" xmlns="http://www.w3.org/2000/svg">
    <path d="M119.341 62.1449C114.437 62.1449 110.995 65.023 110.995 68.6899C110.995 72.3567 114.466 75.2561 119.427 75.2561C124.332 75.2561 127.774 72.378 127.774 68.7112C127.745 65.0443 124.274 62.1449 119.341 62.1449ZM119.341 78.2195C111.741 78.2195 106.435 74.0196 106.435 68.7112C106.435 63.4241 111.798 59.1816 119.427 59.1816C127.028 59.1816 132.363 63.3814 132.363 68.6899C132.334 73.977 126.942 78.2195 119.341 78.2195ZM38.8338 62.1449C33.9294 62.1449 30.5163 65.023 30.5163 68.6899C30.5163 72.3567 33.9867 75.2561 38.8912 75.2561C43.7956 75.2561 47.2373 72.378 47.2373 68.7112C47.2373 65.0443 43.767 62.1449 38.8338 62.1449ZM38.8338 78.2195C31.2334 78.2195 25.8987 74.0196 25.8987 68.7112C25.8987 63.4241 31.262 59.1816 38.8912 59.1816C46.4916 59.1816 51.8263 63.3814 51.8263 68.6899C51.8263 73.977 46.463 78.2195 38.8338 78.2195ZM64.4459 77.8997L57.7346 64.7032V77.8997H53.4324V59.5014H59.6275L65.6792 71.3334L71.7022 59.5014H77.8686V77.8997H73.5091V64.6819L66.7691 77.8997H64.4459ZM164.686 62.4434H159.81V74.9577H164.686C169.935 74.9577 173.29 72.4207 173.29 68.7325C173.29 65.0869 170.049 62.4434 164.686 62.4434ZM164.686 77.8997H155.451V59.48H164.743C172.717 59.48 177.851 63.3388 177.851 68.6685C177.851 73.8704 172.803 77.8997 164.686 77.8997ZM144.036 62.4434H138.271V67.8584H144.064C147.42 67.8584 149.313 66.7925 149.313 65.0656C149.342 63.0403 147.277 62.4434 144.036 62.4434ZM149.858 77.8997L143.72 70.7791H138.271V77.8784H133.94V59.4587H144.896C150.661 59.4587 153.787 61.484 153.787 64.9164C153.787 68.0503 151.407 69.6492 148.366 70.1822L154.963 77.857L149.858 77.8997ZM106.033 62.4434H91.951V67.8584H104.943V70.8004H91.951V77.8997H87.5915V59.48H106.033V62.4434ZM18.585 77.8997H14.1969V62.4434H5.76465V59.48H26.9312V62.4434H18.585V77.8997Z" fill="black"/>
</svg>
