<svg width="187" height="28" viewBox="0 0 187 28" fill="none" xmlns="http://www.w3.org/2000/svg">
    <g clip-path="url(#clip0_221_411)">
        <path d="M58.6442 16.3425C57.6307 15.6828 56.4642 15.6828 55.3397 15.7488C54.2632 15.7488 52.4341 16.1446 50.7428 16.7413C49.5524 17.1611 48.32 17.401 46.1849 17.2691C44.4697 17.1581 43.828 16.9152 42.8175 16.4534C42.6406 16.2765 42.1128 15.9677 41.8699 15.9257C41.1203 15.6168 40.2207 15.6168 38.8113 15.7488C36.8502 15.9257 35.111 16.2105 32.7781 17.7518C30.3342 19.3591 28.1782 22.5316 28.1782 23.6561C28.1782 25.3084 29.4346 26.4988 32.3163 26.4988H32.3823C35.0241 26.4988 38.0407 25.2004 40.4606 23.1284C42.0438 21.698 43.4772 20.1118 43.6541 18.6994C43.6991 18.0397 43.5851 17.5749 43.4112 17.2691C44.0739 17.5119 44.8236 17.6889 46.1879 17.7548C47.2015 17.8208 48.0801 17.7548 48.9617 17.6439C48.0801 18.1057 46.5418 19.2961 45.7262 20.2857C44.7816 21.4761 44.2538 22.5976 44.2538 23.6561C44.1849 25.3084 45.4173 26.4988 48.4339 26.4988C50.7908 26.4988 54.1133 25.1554 55.8525 23.857C55.9185 23.7701 56.4042 23.4372 56.4042 23.4162C58.4733 21.653 59.5948 19.6949 59.6368 18.3935C59.7057 17.446 59.175 16.6963 58.6472 16.3455L58.6442 16.3425ZM41.1203 17.6889C40.9224 18.9873 39.516 21.1253 38.0377 22.6006C36.3854 24.2978 34.1395 25.9051 32.907 25.9051H32.8411C32.2024 25.9051 31.9595 25.4853 32.0255 24.8916C32.2024 23.7251 33.5458 21.4761 35.3719 19.6919C36.8472 18.2166 38.2806 17.0502 39.621 16.3875C40.1727 16.1446 40.7454 16.1446 40.9853 16.5194C41.2732 16.7413 41.2282 17.335 41.1173 17.6859L41.1203 17.6889ZM57.1029 17.6889C56.86 18.9873 55.5586 21.1253 54.0863 22.6006C52.3891 24.2978 50.1461 25.9051 48.8897 25.9051H48.8447C48.185 25.9051 47.9631 25.4853 48.0081 24.8916C48.185 23.7251 49.6154 21.4761 51.3756 19.6919C52.8509 18.2166 54.2602 17.0502 55.6246 16.3875C56.1524 16.1446 56.7491 16.1446 57.0339 16.5194C57.2768 16.7413 57.2768 17.335 57.1029 17.6859V17.6889Z" fill="black"/>
        <path d="M107.908 13.3259C106.916 13.083 105.617 14.0965 104.673 15.3319C103.485 15.7518 101.611 15.8597 100.184 15.7937C101.899 13.7457 103.021 12.0275 104.913 9.7815C106.079 8.37215 107.689 6.58797 108.922 5.52946C110.22 5.70638 112.4 5.94926 114.292 5.94926C117.132 5.94926 119.069 5.42151 119.138 4.16508C119.315 2.86668 117.486 2.22797 115.417 2.22797C113.237 2.22797 110.817 2.93265 108.634 3.88021C106.148 3.28649 103.548 2.58181 101.437 1.98509C97.7609 0.971552 93.9317 0.332846 91.4428 0.332846C84.0692 0.221897 78.9386 3.9222 78.3479 8.30618C77.997 11.4337 79.7782 14.4953 83.2566 15.7518C83.7844 15.9287 84.3121 15.9707 84.3781 15.7967C84.4231 15.6198 84.2012 15.6858 83.6104 15.4429C79.8891 13.8566 79.2294 10.906 79.7122 8.66002C80.7677 4.30002 85.6105 2.75573 91.158 2.75573H91.2239C94.1086 2.75573 98.1807 3.52638 100.67 3.98817C102.538 4.40797 104.961 4.86976 106.568 5.11265C103.902 6.69892 100.538 9.43066 98.0038 12.1384C96.7714 13.5028 95.8238 14.6723 94.9872 15.7937C94.0426 15.7937 92.4534 15.7488 91.7937 15.7937C90.1444 15.9257 89.6167 16.2795 89.5717 16.5194C89.5027 16.8073 89.9225 16.5194 91.3319 16.4534C92.0366 16.3875 93.29 16.3875 94.5884 16.3875C93.5089 17.8628 92.4534 19.1642 90.978 20.7714C87.4996 24.6037 83.8893 26.6757 79.4004 26.4988C77.6402 26.4328 76.3388 25.8391 76.3388 24.7146C76.3388 24.1869 76.6266 23.7671 77.1094 23.3053C77.6372 22.7116 77.922 22.2468 78.054 21.4102C78.099 20.2197 77.2863 19.1192 75.6341 19.1192C73.4541 19.1192 72.2007 20.8824 72.2007 22.6426C72.2667 25.5513 75.5681 27.0686 79.6403 27.0686C85.6045 27.0686 93.287 23.7191 98.3517 18.0367C98.9454 17.443 99.3652 16.9122 99.716 16.4504C101.719 16.4504 103.128 16.3395 104.205 16.0306C103.896 16.3845 103.545 16.9782 103.26 17.6829C103.018 18.2106 102.841 19.1582 103.128 19.1582C103.305 19.1582 103.611 18.6964 104.073 18.2106C105.087 17.1521 105.902 16.5134 107.156 15.4999C108.496 14.4414 108.85 13.5628 107.905 13.3199L107.908 13.3259ZM115.303 2.8187H115.348C117.24 2.8187 118.607 3.28049 118.541 4.05114C118.475 4.68984 117.177 5.17562 115.702 5.17562C114.58 5.17562 112.643 4.93273 110.397 4.339C111.585 3.56836 113.525 2.8187 115.306 2.8187H115.303Z" fill="black"/>
        <path d="M36.6941 5.52945C37.9955 5.70637 40.1755 5.94926 42.0677 5.94926C44.9073 5.94926 46.8445 5.4215 46.9104 4.16508C47.0873 2.86668 45.2612 2.22797 43.1891 2.22797C41.0121 2.22797 38.5923 2.93265 36.4093 3.88021C35.7046 3.70329 34.9999 3.52937 34.2742 3.35245L34.2982 3.28648C32.7779 2.86668 31.2606 2.42888 29.8063 2.03006C26.043 1.01653 22.0369 0.224892 19.482 0.224892C14.1535 0.179913 10.1263 1.89812 7.97034 4.47694C6.9568 5.62241 6.31809 6.92081 6.12019 8.30917C5.94327 9.87445 6.2971 11.3918 7.13372 12.7141C7.92536 14.0785 9.20277 15.203 11.0289 15.8627C15.4549 17.1851 19.7249 15.8837 20.8254 13.1519C22.0369 10.2013 19.482 7.91036 17.413 7.00777C16.1356 6.50101 15.0801 6.50101 15.1011 6.76488C15.146 6.91781 15.7398 6.69891 17.1491 7.29264C19.3051 8.21922 20.7804 10.3093 19.7699 12.7771C18.6034 15.5958 13.7157 16.5674 10.9 15.155C8.89691 14.1415 7.77542 12.4443 7.42159 10.7501C7.31064 10.0244 7.35562 9.31671 7.48756 8.65701C8.54307 4.29702 13.3858 2.75273 18.9333 2.75273H18.9993C21.8839 2.75273 25.9561 3.52337 28.4419 3.98516C30.3341 4.40497 32.7569 4.86676 34.3432 5.10965C31.6774 6.69592 28.31 9.42766 25.7791 12.1354C24.5467 13.4998 20.2317 19.1612 18.7564 20.7714C15.278 24.6037 11.6676 26.6757 7.19969 26.4988C5.41551 26.4328 4.11711 25.8391 4.11711 24.7146C4.11711 24.1869 4.42596 23.7671 4.88775 23.3053C5.41551 22.7116 5.72437 22.2468 5.83532 21.4101C5.90129 20.2197 5.06467 19.1192 3.41243 19.1192C1.23243 19.1192 0 20.8824 0 22.6426C0.0449793 25.5512 3.34646 27.0685 7.41859 27.0685C13.3828 27.0685 21.0653 23.7191 26.13 18.0367C26.7237 17.443 30.7958 12.0245 32.691 9.7755C33.8574 8.36615 35.4647 6.58197 36.6971 5.52346L36.6941 5.52945ZM43.0812 2.8187H43.1262C45.0183 2.8187 46.3827 3.28049 46.3197 4.05113C46.2747 4.68984 44.9763 5.17562 43.501 5.17562C42.3795 5.17562 40.4184 4.93273 38.1754 4.339C39.3629 3.56835 41.3 2.8187 43.0842 2.8187H43.0812Z" fill="black"/>
        <path d="M185.59 0C184.049 0 183.105 0.440797 182.289 1.21144C179.56 3.7003 177.557 5.94627 175.488 8.36915C172.54 11.7846 169.875 15.0441 167.938 17.8178L167.869 17.7518C168.177 16.8043 167.692 15.7488 166.042 15.6828C164.039 15.5718 161.859 16.2765 160.252 17.0472C158.732 17.6859 157.61 18.3456 156.555 19.1162C156.048 19.4251 155.343 19.9528 154.858 20.3936C154.842 20.3936 154.834 20.4006 154.834 20.4146C153.82 21.3412 152.414 22.4627 151.292 23.2333C148.692 24.9515 146.56 25.4793 145.679 25.4793C144.731 25.4793 144.269 25.0595 144.269 24.1809C144.269 23.7611 144.377 23.2333 144.62 22.8825C146.093 22.5946 148.689 21.8899 150.411 21.0533C152.237 20.1717 154.174 18.9813 154.306 17.398C154.351 16.4504 153.646 15.6138 151.754 15.6138H151.709C149.64 15.6138 147.505 16.3395 145.259 17.443C144.269 17.9947 142.902 18.8074 142.266 19.2931C141.562 19.8209 140.965 20.2857 140.263 20.9454C140.197 20.9903 140.176 21.0323 140.131 21.0773C139.25 21.803 138.263 22.6186 137.358 23.2363C134.761 24.9545 132.692 25.3743 131.945 25.3743C130.998 25.3743 130.446 24.8466 130.578 24.01C130.755 22.6006 132.296 20.3546 133.882 18.7444C135.531 17.0472 136.896 16.1026 137.535 16.2765C138.131 16.3875 137.777 16.8702 137.007 18.1716C136.41 19.1642 136.587 20.1777 137.777 20.1777C138.722 20.1777 139.778 19.1642 140.023 17.9318C140.263 16.6993 139.364 15.7518 137.535 15.6858C135.642 15.5748 133.178 16.5224 131.285 17.449C130.269 17.9348 128.973 18.8133 128.335 19.2991C127.852 19.608 127.411 19.9378 126.949 20.3336C126.925 20.3546 126.88 20.3996 126.862 20.4206C126.817 20.4416 126.776 20.4866 126.752 20.5076C126.599 20.6395 126.443 20.7954 126.269 20.9484C125.651 21.5001 124.883 22.1388 123.981 22.8855C123.033 23.6561 122.02 24.3608 121.429 24.6037C120.964 24.8466 120.304 25.0235 120.02 24.7806C119.777 24.6037 119.777 24.1209 120.086 23.5902C120.436 22.8195 121.318 21.695 122.089 20.7055C123.255 19.1642 124.266 18.0397 125.282 16.8073C125.855 16.1026 125.633 15.8597 123.981 15.8597C122.152 15.8597 121.735 16.1026 120.197 17.6889C120.373 16.8073 120.02 15.7518 118.301 15.6858C114.892 15.5748 111.171 17.449 109.279 18.9903C107.386 20.4656 105.866 22.2947 105.797 24.1899C105.731 25.9741 107.141 26.5468 108.991 26.5018C111.806 26.5018 114.649 24.2978 116.187 22.9544L116.232 23.0204C115.837 23.5482 115.483 24.4298 115.597 25.1344C115.774 26.016 116.541 26.4988 117.951 26.4988C119.846 26.4988 121.495 25.5962 123.564 24.01C124.533 23.2603 125.921 22.0489 126.737 21.2782C126.758 21.2572 126.781 21.2572 126.802 21.2332C126.889 21.1463 127.045 20.9903 127.198 20.8584C127.354 20.7055 127.486 20.5945 127.573 20.5286L127.639 20.5945C126.758 21.5211 126.098 22.7086 126.098 23.833C126.098 25.4193 127.399 26.4988 129.996 26.4988H130.062C132.485 26.4988 135.543 25.2004 137.616 23.7671C138.716 23.0414 139.879 22.0489 140.629 21.3652C140.674 21.3442 140.698 21.3202 140.74 21.2992C140.917 21.1223 141.376 20.7055 141.577 20.5286L141.622 20.5945C140.674 21.653 140.101 22.7745 140.101 23.833C140.035 25.3743 140.917 26.6098 144.218 26.4988C146.53 26.4328 148.95 25.5513 151.373 23.899C152.717 23.0174 154.147 21.827 154.852 21.1673C154.897 21.1223 154.939 21.0803 155.008 21.0353C155.16 20.9034 155.292 20.7924 155.316 20.7714L155.382 20.8164C154.327 21.9409 153.601 23.2393 153.556 24.1869C153.487 25.9711 154.855 26.5438 156.75 26.4988C159.565 26.4988 162.408 24.2948 163.946 22.9514L163.991 23.0174C163.596 23.5452 163.221 24.3608 163.353 25.0655C163.53 25.9681 164.3 26.4958 165.71 26.4958C167.602 26.4958 169.254 25.5932 171.323 24.007C172.445 23.1254 174.139 21.65 174.867 20.9454C175.218 20.5945 175.572 20.2197 175.395 20.0428C175.218 19.8659 174.867 20.2197 174.624 20.4176C173.92 21.0563 172.972 21.8929 171.74 22.8855C170.795 23.6561 169.782 24.3608 169.188 24.6037C168.66 24.8466 168.064 25.0235 167.779 24.7806C167.536 24.6037 167.536 24.1209 167.845 23.5902C168.24 22.7745 170.906 19.2302 172.864 16.8073C176.343 12.4893 178.346 10.0244 180.283 7.77542C182.484 5.28657 185.432 1.98209 187.018 0.440797C186.952 0.15293 186.313 0 185.608 0L185.59 0ZM147.754 18.5255C149.295 16.8732 150.351 16.2795 150.947 16.2795C151.475 16.2795 151.715 16.6334 151.583 17.1611C151.475 17.9318 150.528 19.3411 148.986 20.4656C147.511 21.5241 145.994 22.1178 144.914 22.2947C145.574 21.1283 146.566 19.8269 147.754 18.5285V18.5255ZM115.525 22.6426C113.941 24.1179 111.695 25.4193 110.571 25.4193C110.154 25.4193 109.866 25.2424 109.803 24.8466C109.734 24.0759 110.817 22.4237 113.06 20.1777C115.24 18.0397 117.417 16.3455 118.61 16.3455C119.246 16.3455 119.732 16.6334 119.666 17.404C119.597 18.3516 117.354 20.9933 115.525 22.6456V22.6426ZM163.272 22.6426C161.685 24.1179 159.439 25.4193 158.318 25.4193C157.898 25.4193 157.613 25.2424 157.547 24.8466C157.439 24.0759 158.561 22.4237 160.804 20.1777C162.984 18.0397 165.164 16.3455 166.285 16.3455H166.354C166.99 16.3455 167.476 16.6334 167.41 17.404C167.341 18.3516 165.098 20.9933 163.272 22.6456V22.6426Z" fill="black"/>
    </g>
    <defs>
        <clipPath id="clip0_221_411">
            <rect width="187" height="27.0716" fill="white"/>
        </clipPath>
    </defs>
</svg>
