<svg width="26" height="30" viewBox="0 0 26 30" fill="none" xmlns="http://www.w3.org/2000/svg">
    <g clip-path="url(#clip0_397_601)">
        <mask id="mask0_397_601" style="mask-type:luminance" maskUnits="userSpaceOnUse" x="0" y="0" width="26" height="30">
            <path d="M26 0H0V30H26V0Z" fill="white"/>
        </mask>
        <g mask="url(#mask0_397_601)">
            <path d="M16.4271 3.56059C14.6881 1.35256 12.071 0.0859375 9.25789 0.0859375C7.1779 0.0859375 5.21724 0.770598 3.58052 2.07145C1.66249 3.59483 0.460518 5.77718 0.179206 8.20773C-0.102105 10.6383 0.579862 13.0431 2.09724 14.9688C3.84478 17.1768 6.4533 18.4434 9.26642 18.4434C10.6133 18.4434 11.9176 18.1524 13.1025 17.5961L15.0461 20.0609L14.4749 20.5145C14.2107 20.7199 14.151 21.105 14.3471 21.3789L18.5923 27.6008C19.3425 28.7048 20.5956 29.3638 21.9254 29.3638C22.8461 29.3638 23.7071 29.0642 24.4317 28.4908C25.3097 27.7976 25.8553 26.7535 25.949 25.6409C26.0428 24.5283 25.6592 23.4072 24.909 22.5856L19.8454 17.0142C19.6153 16.766 19.2402 16.7318 18.9759 16.9457L18.4048 17.3993L16.4612 14.9345C19.01 11.6567 19.1038 6.94966 16.4271 3.56059ZM3.10314 14.1643C1.79888 12.5125 1.21068 10.45 1.45789 8.35322C1.69658 6.25645 2.73658 4.38219 4.38183 3.07277C5.78839 1.95164 7.47626 1.36112 9.25789 1.36112C11.6789 1.36112 13.9294 2.44802 15.4297 4.35651C18.1235 7.77126 17.5523 12.7436 14.151 15.448C13.7845 15.739 13.4008 15.9957 13.0002 16.2097C13.0002 16.2097 13.0002 16.2097 12.9917 16.2097C11.8494 16.8259 10.5877 17.1511 9.26642 17.1511C6.84544 17.1597 4.60347 16.0642 3.10314 14.1643ZM19.2999 18.315L23.9628 23.4414C24.4828 24.0148 24.7386 24.7594 24.6789 25.5297C24.6192 26.2999 24.2526 26.9931 23.6389 27.4809C23.1445 27.8746 22.5563 28.08 21.9254 28.08C21.0133 28.08 20.1608 27.6264 19.6494 26.8733L15.7451 21.1393L18.5156 18.9312L18.6946 18.7857L19.2999 18.315ZM16.1543 19.1794L16.052 19.2564L14.2363 16.9543C14.4749 16.8002 14.7136 16.6291 14.9353 16.4493C15.1654 16.2696 15.3785 16.0813 15.5831 15.8759L17.3989 18.1781L16.1543 19.1794Z" fill="#0ABD19"/>
            <path d="M12.995 7.02006C12.995 7.01433 12.995 7.0086 12.9899 7.0086C12.9899 6.99713 12.9849 6.9914 12.9849 6.97994C12.9849 6.97421 12.9799 6.96275 12.9799 6.95702C12.9799 6.95129 12.9749 6.94556 12.9749 6.93983C12.9648 6.91117 12.9547 6.88825 12.9397 6.86533L11.3407 4.18911C11.2703 4.06877 11.1546 4 11.0289 4H6.97612C6.85041 4 6.73476 4.06877 6.66436 4.18911L5.06537 6.8596C5.05028 6.88252 5.04023 6.91117 5.03017 6.9341C5.03017 6.93983 5.02514 6.94556 5.02514 6.95129C5.02011 6.95702 5.02011 6.96848 5.02011 6.97421C5.02011 6.98567 5.01509 6.9914 5.01509 7.00287C5.01509 7.0086 5.01509 7.01433 5.01006 7.01433C5.00503 7.04298 5 7.07163 5 7.10029V13.5702C5 13.8052 5.17096 14 5.37712 14H12.6229C12.829 14 13 13.8052 13 13.5702V7.10602C13 7.07163 13 7.04298 12.995 7.02006ZM7.17725 4.8596H10.8278L11.9089 6.67049H6.09114L7.17725 4.8596ZM12.2458 13.1461H5.75927V7.53582H9.00504H12.2508V13.1461H12.2458Z" fill="#0ABD19"/>
            <path d="M9.3576 9.25779L10.4724 10.0108L10.4723 6.87598L7.57227 6.87604V10.0108L8.64332 9.25779C8.86774 9.10268 9.13234 9.09766 9.3576 9.25779Z" fill="#0ABD19"/>
        </g>
    </g>
    <defs>
        <clipPath id="clip0_397_601">
            <rect width="26" height="30" fill="white"/>
        </clipPath>
    </defs>
</svg>
