<svg width="187" height="64" viewBox="0 0 187 64" fill="none" xmlns="http://www.w3.org/2000/svg">
    <g clip-path="url(#clip0_234_1400)">
        <path d="M66.8661 44.2958H45.6959C46.6671 48.2696 49.8901 51.2718 54.0846 51.2718C56.4466 51.2718 58.7644 50.2563 60.3099 48.5127L65.4313 48.6228C63.1795 52.9054 58.8748 55.6428 53.8859 55.6428C46.601 55.6428 40.8833 49.3288 40.8833 42.177C40.8833 34.8038 46.5126 28.7552 53.9963 28.7552C61.2371 28.7552 67.0208 34.7157 67.0208 41.9122C66.9985 42.6846 66.9544 43.5237 66.8661 44.2958ZM53.9299 33.1259C49.7797 33.1259 45.9387 36.3933 45.6738 40.6095H62.1862C61.9211 36.415 58.1021 33.1259 53.9299 33.1259ZM88.0806 55.0025V41.1171C88.0806 36.7902 86.7783 33.1259 81.7009 33.1259C76.9991 33.1259 74.968 36.7685 74.968 41.0731V55.0028H70.1778V29.4393H74.6592V32.1547H74.7472C76.6015 29.7041 79.2726 28.7329 82.2308 28.7329C85.8731 28.7329 89.2949 30.1677 91.2816 33.3026C92.5179 35.245 92.8932 37.5849 92.8932 39.8588V55.0025H88.0806ZM118.39 55.0025V51.3602H118.302C116.182 54.3181 112.805 55.6428 109.251 55.6428C101.59 55.6428 95.9609 49.9251 95.9609 42.3094C95.9609 34.649 101.502 28.7329 109.251 28.7329C112.474 28.7329 115.895 29.9692 117.926 32.5519H118.015V20.8521H122.805V55.0025H118.39ZM109.516 33.1259C104.438 33.1259 100.752 37.2764 100.752 42.2654C100.752 47.0556 104.593 51.2718 109.471 51.2718C114.46 51.2718 118.368 47.21 118.368 42.2654C118.39 37.1437 114.747 33.1259 109.516 33.1259ZM136.69 63.546H131.723L135.454 54.4949L125.255 29.4396H130.421L137.949 49.2851L145.653 29.4396H150.819L136.69 63.546ZM164.483 55.6428C156.956 55.6428 150.686 49.594 150.686 42.0223C150.686 34.4946 157.11 28.7329 164.483 28.7329C171.967 28.7329 178.28 34.5389 178.28 42.1106C178.28 49.4175 172.232 55.6428 164.483 55.6428ZM164.483 33.1259C159.494 33.1259 155.477 37.188 155.477 42.177C155.477 47.166 159.494 51.2718 164.483 51.2718C169.517 51.2718 173.49 47.1216 173.49 42.1326C173.468 37.1437 169.45 33.1259 164.483 33.1259ZM182.187 55.0025V20.8521H187V55.0025H182.187ZM4.74618 49.9695C4.94494 50.7862 5.20976 51.4486 5.51891 51.9565C5.82776 52.4641 6.22529 52.9054 6.68887 53.3249C8.21201 54.6496 10.1327 55.3336 12.4065 55.3336C14.6581 55.3336 16.7775 54.7817 18.6979 53.7221V49.1304C16.7112 50.3003 14.8128 50.8963 13.0246 50.8963C10.5963 50.8963 9.33794 49.4172 9.33794 46.481V33.9647H17.3952V29.5276H9.35995V21.3156H4.61377V29.5056H0V33.9427H4.41501V45.2893C4.41501 47.5855 4.5254 49.1527 4.74618 49.9695ZM33.7752 33.7222C35.2543 33.7222 36.8879 34.5389 38.6318 36.1725L41.2368 31.8455C39.1177 29.9032 36.5567 29.02 35.0556 29.02H34.7244C33.0025 29.02 30.1326 29.02 27.7927 32.817L27.7044 32.9715L27.7264 29.5279H22.7597V54.8704H27.7267V41.6253C27.7267 39.5062 28.3227 37.6519 29.5149 36.0844C30.7069 34.5166 32.1417 33.7222 33.7752 33.7222Z" fill="#231F20"/>
        <path d="M137.352 23.6337C137.132 23.6777 136.911 23.5012 136.867 23.2805L135.586 15.2449C135.167 12.6181 135.564 10.4324 136.955 8.64439C138.302 6.87845 140.311 5.81858 142.871 5.39934L176.249 0.10151C176.469 0.0574742 176.691 0.233918 176.734 0.454698L179.273 16.5696C179.317 16.7904 179.141 17.0111 178.92 17.0552L137.352 23.6337Z" fill="#FF671B"/>
        <path d="M148.523 15.1348C148.236 16.1723 147.463 16.8567 146.404 17.0331C145.058 17.2539 143.512 16.4591 143.203 14.5164C142.916 12.7725 143.844 11.3818 145.455 11.117C146.515 10.9405 147.375 11.3378 148.06 12.2649L149.672 12.0001C148.943 10.4326 147.045 9.50545 145.234 9.79259C142.85 10.1901 141.349 12.3092 141.747 14.7375C142.144 17.1878 144.241 18.7333 146.603 18.3358C148.414 18.0486 149.782 16.6802 150.113 14.8479L148.523 15.1348ZM154.748 8.24712C152.32 8.64435 150.664 10.8519 151.061 13.1921C151.459 15.5763 153.732 17.1878 156.161 16.7903C158.589 16.3931 160.223 14.1412 159.848 11.7793C159.428 9.4391 157.155 7.8499 154.748 8.24712ZM155.918 15.4656C154.307 15.7304 152.761 14.6268 152.496 12.971C152.232 11.3374 153.335 9.79198 154.947 9.52747C156.558 9.26265 158.104 10.3663 158.369 11.9778C158.633 13.6556 157.552 15.2008 155.918 15.4656ZM174.087 13.6336L173.292 8.73272C172.938 6.59157 171.504 5.48767 169.428 5.84085C168.17 6.03962 167.42 6.59157 166.978 7.62912L166.934 7.71719L166.89 7.65114C166.294 6.79033 165.058 6.56955 164.153 6.70196C163.115 6.8784 162.585 7.25391 162.011 8.18107L161.989 8.20309L161.901 8.2251L161.746 7.34198L160.422 7.56276L161.746 15.6864L163.203 15.4436L162.475 10.8962C162.21 9.21832 162.74 8.29146 164.153 8.07068C164.859 7.96029 165.433 8.13673 165.853 8.60031C166.294 9.10823 166.382 9.63786 166.471 10.2559L167.221 14.7813L168.678 14.5385L167.928 10.0131C167.729 8.84311 167.751 7.47439 169.517 7.18756C170.819 6.96678 171.659 7.73951 171.924 9.37304L172.652 13.8984L174.087 13.6336ZM141.503 18.4238C141.503 19.0642 140.973 19.5938 140.333 19.5938C139.693 19.5938 139.163 19.0639 139.163 18.4238C139.163 17.7838 139.693 17.2539 140.333 17.2539C140.995 17.2319 141.503 17.7615 141.503 18.4238Z" fill="white"/>
    </g>
    <defs>
        <clipPath id="clip0_234_1400">
            <rect width="187" height="63.6403" fill="white"/>
        </clipPath>
    </defs>
</svg>
