<svg width="187" height="76" viewBox="0 0 187 76" fill="none" xmlns="http://www.w3.org/2000/svg">
    <path d="M74.2092 54.7484C74.2092 53.2042 74.161 52.1425 74.0886 50.9361C74.4264 50.9361 77.1288 50.9361 77.9733 50.9361C79.7589 50.9361 80.9653 51.5634 80.9653 53.0835C80.9653 54.5795 79.4693 55.231 78.5524 55.3516V55.3758C79.4452 55.3999 81.2066 56.0031 81.2066 57.6921C81.2066 59.6707 79.5176 60.4428 77.7562 60.4428C76.9599 60.4428 74.4023 60.4187 74.0645 60.4428C74.1368 59.2122 74.1851 58.1747 74.1851 56.6305L74.2092 54.7484ZM77.1771 51.7082C76.7428 51.7082 76.6704 51.7082 76.4532 51.7564C76.4291 52.432 76.3808 53.2042 76.3808 53.6867C76.3808 54.1934 76.405 54.6278 76.405 55.0862H77.0806C77.9251 55.0862 78.7696 54.5071 78.7696 53.3489C78.7696 52.432 78.3594 51.7082 77.1771 51.7082ZM77.0564 55.8583C76.791 55.8583 76.598 55.8583 76.4291 55.8583C76.4291 56.2444 76.405 56.6305 76.405 57.2096C76.405 58.0541 76.4291 59.1399 76.4291 59.6224C76.6945 59.6224 76.9358 59.6466 77.2495 59.6466C78.1181 59.6466 78.8661 58.9951 78.8661 57.7645C78.8902 56.5098 78.2387 55.8583 77.0564 55.8583Z" fill="#F37830"/>
    <path d="M95.9009 54.7484C95.9009 53.2042 95.8768 52.1425 95.7803 50.9361C96.673 50.9361 101.137 50.9602 101.523 50.9361C101.499 51.105 101.499 51.9253 101.523 52.1425C100.413 52.046 98.531 52.046 98.0966 52.046C98.0243 53.0594 98.0966 53.9763 98.0966 54.9656C99.3996 54.9414 100.365 54.9173 101.475 54.8691C101.426 55.1827 101.426 55.7618 101.475 56.0514C100.365 55.979 99.2307 55.9307 98.0966 55.9307C98.0966 56.5098 98.0966 57.113 98.0966 57.6921C98.0966 58.2712 98.0966 58.7538 98.1208 59.2846C99.2307 59.2846 100.389 59.357 101.523 59.2122C101.499 59.4294 101.499 60.2739 101.523 60.4428C100.992 60.4428 96.1181 60.4187 95.7803 60.4428C95.8768 59.2122 95.9009 58.1747 95.9009 56.6305V54.7484Z" fill="#F37830"/>
    <path d="M124.421 60.4428C123.915 60.4187 122.25 60.4187 121.864 60.4428C121.526 59.5259 121.188 58.5608 120.802 57.6439C120.175 57.6197 117.882 57.6197 117.376 57.6439C116.941 58.5608 116.652 59.5259 116.338 60.4669C116.121 60.4428 115.204 60.4428 114.915 60.4669C115.614 58.9468 117.834 54.0004 119.137 50.8878C119.33 50.8878 120.054 50.8878 120.271 50.8878C121.55 54.0004 123.287 58.223 124.421 60.4428ZM120.488 56.8235C120.03 55.6894 119.644 54.6036 119.161 53.5178C118.655 54.6036 118.196 55.6894 117.738 56.8235H120.488Z" fill="#F37830"/>
    <path d="M136.148 57.0165C136.148 55.5205 136.196 54.7725 136.196 53.7833C136.196 52.3114 136.148 51.3945 136.124 50.9361C136.534 50.9602 136.944 50.9843 137.355 50.9843C137.741 50.9843 138.175 50.9602 138.561 50.9361C138.368 52.7216 138.344 54.1693 138.344 55.7618C138.344 59.1399 139.406 59.6948 141.312 59.6948C143.676 59.6948 143.845 57.3061 143.845 54.7243C143.845 53.4696 143.797 52.2149 143.725 50.9361C143.99 50.9602 144.255 50.9843 144.497 50.9843C144.762 50.9843 145.003 50.9602 145.221 50.9361C145.124 51.7323 145.052 53.7109 145.052 56.1238C145.052 59.3088 143.556 60.6358 140.684 60.6358C138.151 60.6358 136.148 59.5983 136.148 57.0165Z" fill="#F37830"/>
    <path d="M160.639 53.18C160.639 52.6733 160.663 52.2149 160.615 52.0218C160.06 52.0218 158.805 52.0218 157.912 52.1184C157.96 51.9253 157.96 51.1291 157.912 50.9119C159.239 50.936 164.258 50.936 165.513 50.9119C165.464 51.1291 165.464 51.9253 165.513 52.1184C164.716 52.046 163.413 52.046 162.834 52.046C162.834 52.239 162.834 52.6733 162.834 53.18V56.6305C162.834 58.1747 162.883 59.2122 162.955 60.4428C162.617 60.4187 160.856 60.4187 160.518 60.4428C160.615 59.2122 160.639 58.1747 160.639 56.6305V53.18Z" fill="#F37830"/>
    <path d="M183.32 55.0621C184.116 54.0245 184.912 52.2873 185.564 50.9361C185.805 50.9361 186.722 50.9361 186.987 50.9361C186.312 51.9736 184.792 54.6036 183.875 56.3409C183.875 56.7752 183.851 57.113 183.851 57.5715C183.851 58.4884 183.875 59.4294 183.995 60.4669C183.585 60.4428 181.896 60.4428 181.486 60.4669C181.558 59.5983 181.679 58.6573 181.679 57.8128C181.679 57.3785 181.679 56.9441 181.655 56.534C180.593 54.676 178.904 51.7082 178.446 50.9361C178.904 50.9361 180.666 50.9361 181.076 50.9361C181.776 52.2873 182.91 54.4347 183.32 55.0621Z" fill="#F37830"/>
    <path d="M36.7369 5.50138C36.5197 10.665 36.5197 17.2039 36.5197 23.0672C36.5197 33.9252 36.6645 36.3622 38.6913 39.0405C40.7181 41.6947 44.5305 43.1907 49.4287 43.1907C55.1231 43.1907 59.611 40.3435 61.1794 36.1692C61.7344 34.6732 62.0963 32.574 62.0963 26.9761C62.0963 18.0967 62.0239 9.1931 61.469 0.337802C62.4583 0.482575 66.8738 0.482575 67.9355 0.337802L67.6942 3.57107C67.3564 9.43439 67.1393 23.4774 66.9945 30.3541C66.8497 38.4132 64.4851 42.0807 59.8282 44.9521C56.5226 47.003 51.8416 47.8717 48.0292 47.8717C39.6082 47.8717 29.4982 45.2899 27.954 34.7214C27.7851 33.7563 27.7851 31.7295 27.7851 31.1262V12.5711C27.7851 9.09658 27.6403 3.78823 27.4473 0.313675C29.0639 0.530835 35.5063 0.530835 36.9299 0.313675L36.7369 5.50138Z" fill="#F37830"/>
    <path d="M78.4559 19.0377C78.4559 16.0457 78.4559 15.3942 78.2629 9.33788C78.1664 7.91427 78.0457 1.78554 77.9492 0.506714C79.7348 0.844518 85.9841 0.772131 87.7214 0.506714C87.2388 10.7615 87.0217 19.3031 87.0217 29.7509C87.0217 34.5043 87.1664 38.9199 87.2388 42.6357H88.5177C90.5445 42.6357 100.679 42.6357 104.805 42.0325C104.563 42.7805 104.539 46.1585 104.805 47.0513C101.209 46.9307 95.1772 46.6652 91.389 46.6652C86.8769 46.6652 83.0887 46.7859 77.9492 47.0754C77.9492 46.0138 78.4559 30.2576 78.4559 28.5445V19.0377Z" fill="#F37830"/>
    <path d="M124.421 37.7617C124.421 42.9253 124.687 45.1451 124.928 47.0513C122.877 46.8583 117.545 46.7859 115.011 47.0513C115.325 41.9119 115.687 36.6759 115.687 31.5123L115.638 12.5711C115.638 10.0617 115.566 7.69711 115.47 5.04294H111.971C111.343 5.04294 104.612 5.18771 100.992 5.50139C101.209 4.72926 101.378 0.916902 101.161 0.0965201C106.711 0.434324 114.36 0.434326 119.789 0.434326C125.604 0.434326 131.877 0.31368 138.585 -0.0241241C138.368 1.15819 138.295 4.43972 138.537 5.52552C134.387 5.11533 129.392 5.04294 124.542 5.04294C124.494 7.50408 124.421 10.0617 124.421 12.6435V37.7617Z" fill="#F37830"/>
    <path d="M165.875 39.6196L162.931 32.4292C159.915 32.3085 148.357 32.3085 145.582 32.4292C143.314 37.641 141.094 43.2389 139.96 47.0995C139.043 46.9789 134.435 46.9789 133.421 47.0995L141.553 29.6544C148.647 14.3808 152.724 5.57377 154.365 0.313675H158.926C162.304 9.28961 166.454 18.7723 169.011 24.4667C171.666 30.3541 176.298 40.5365 179.435 47.0995C178.398 47.0513 170.073 47.0513 168.818 47.0995L165.875 39.6196ZM154.293 11.606L147.175 28.2308C149.66 28.3032 152.001 28.4238 154.438 28.4238C155.837 28.4238 157.96 28.4238 160.904 28.2308L154.293 11.606Z" fill="#F37830"/>
    <path d="M17.3616 2.41289C6.40705 9.84458 -0.0112305 19.1583 -0.0112305 30.5713C-0.0112305 56.4616 31.2356 75.5716 75.8258 75.5716C95.7804 75.5716 112.478 70.408 124.832 64.038H124.059C109.172 68.5501 94.0672 70.3839 78.5524 70.3839C33.7451 70.3839 2.90836 49.3435 2.8601 29.9198C2.8601 19.1583 7.85478 9.86871 17.3616 3.06437V2.41289Z" fill="#F37830"/>
    <path d="M173.982 0.265427C175.478 0.265427 176.757 1.47187 176.757 3.06438C176.757 4.65688 175.478 5.88745 173.982 5.88745C172.462 5.88745 171.135 4.68101 171.135 3.06438C171.11 1.47187 172.438 0.265427 173.982 0.265427ZM173.982 5.45313C175.261 5.45313 176.274 4.41559 176.274 3.04025C176.274 1.68903 175.261 0.651489 173.982 0.651489C172.631 0.651489 171.665 1.68903 171.665 3.04025C171.665 4.41559 172.631 5.45313 173.982 5.45313ZM172.872 1.42361H174.127C174.899 1.42361 175.285 1.73729 175.285 2.36464C175.285 2.94373 174.899 3.20915 174.416 3.25741L175.357 4.70514H174.802L173.934 3.28153H173.354V4.70514H172.872V1.42361ZM173.354 2.87135H173.885C174.344 2.87135 174.754 2.84722 174.754 2.36464C174.754 1.90619 174.344 1.85793 174.006 1.85793H173.354V2.87135Z" fill="#F37830"/>
</svg>
