<svg width="187" height="127" viewBox="0 0 187 127" fill="none" xmlns="http://www.w3.org/2000/svg">
    <path d="M123.974 53.54C134.63 48.8618 141.647 41.7144 142.037 33.9173C142.037 33.9173 139.178 31.7082 130.081 28.3294C122.024 25.3406 115.917 24.6908 115.917 24.6908V42.2342C115.917 44.8333 114.877 47.5622 112.928 49.9014C106.82 48.4719 100.192 47.5622 93.175 47.5622C86.1576 47.5622 79.4002 48.3419 73.2925 49.9014C71.3432 47.5622 70.3036 44.8333 70.3036 42.2342V24.6908C70.3036 24.6908 64.1959 25.3406 56.1389 28.3294C47.0423 31.7082 44.1834 33.9173 44.1834 33.9173C44.5732 41.7144 51.5906 48.8618 62.2466 53.54C51.4606 58.2183 44.5732 65.3656 44.1834 73.1627C44.1834 73.1627 47.0423 75.3718 56.1389 78.7506C64.1959 81.7394 70.3036 82.3892 70.3036 82.3892V64.8458C70.3036 62.2467 71.3432 59.5178 73.2925 57.1786C79.4002 58.6081 86.0277 59.5178 93.0451 59.5178C100.062 59.5178 106.82 58.7381 112.928 57.1786C114.877 59.5178 115.917 62.2467 115.917 64.8458V82.3892C115.917 82.3892 122.024 81.7394 130.081 78.7506C139.178 75.3718 142.037 73.1627 142.037 73.1627C141.647 65.3656 134.63 58.2183 123.974 53.54ZM93.0451 57.4385H92.7852C86.4176 57.4385 81.2195 55.8791 77.4509 53.54C81.2195 51.2009 86.4176 49.6415 92.7852 49.6415H93.0451H93.305C99.6726 49.6415 104.871 51.2009 108.639 53.54C104.871 55.8791 99.6726 57.4385 93.305 57.4385M30.1486 101.752C27.0298 101.752 27.0298 99.4128 27.0298 98.5032V94.2148C27.0298 93.9549 27.0298 93.565 27.5496 93.565H29.109C29.6288 93.565 29.6288 93.9549 29.6288 94.2148V98.5032C29.6288 98.7631 29.6288 99.6727 30.7984 99.6727H33.5274C34.567 99.6727 34.6969 98.893 34.6969 98.5032V94.2148C34.6969 93.9549 34.6969 93.565 35.2167 93.565H36.7761C37.2959 93.565 37.2959 93.9549 37.2959 94.2148V98.5032C37.2959 99.4128 37.2959 101.752 34.1771 101.752M44.8331 101.232C43.7935 99.8027 42.2341 97.9834 40.6747 96.0341V101.232C40.6747 101.492 40.6747 101.752 40.1549 101.752H38.7254C38.2056 101.752 38.2056 101.362 38.2056 101.232V94.3447C38.2056 94.0848 38.2056 93.695 38.7254 93.695H41.5843C42.364 93.695 43.5336 95.3843 44.3133 96.4239C44.9631 97.2037 46.0027 98.5032 46.7824 99.4128V94.2148C46.7824 93.9549 46.7824 93.565 47.3022 93.565H48.8616C49.3814 93.565 49.3814 93.9549 49.3814 94.2148V101.752H46.3925C45.7428 101.752 45.4829 101.752 44.8331 101.232ZM57.0486 99.6727C58.3481 99.6727 58.2181 98.3732 58.2181 97.8534C58.2181 95.9042 57.6983 95.9042 56.7886 95.9042H52.7602V99.6727H57.0486ZM50.2911 101.752V93.695H57.4384C57.8283 93.695 60.8171 93.695 60.8171 96.6839C60.8171 99.8027 61.207 101.752 57.5684 101.752H53.6698L52.8901 100.063V101.752M63.6761 93.695H70.3036C70.8234 93.695 70.8234 94.0848 70.8234 94.7346C70.8234 95.3843 70.9533 95.7742 70.3036 95.7742H65.1055C64.9756 95.7742 64.4558 95.6442 64.4558 96.164C64.4558 96.6839 64.3258 96.8138 64.8456 96.8138H69.3939C69.3939 96.8138 70.0437 98.1133 70.1736 98.2433C70.3036 98.3732 70.3036 98.6331 69.9137 98.6331H65.1055L64.3258 97.2037V99.2829C64.3258 99.8027 64.7157 99.6727 64.8456 99.6727H70.3036C70.8234 99.6727 70.8234 100.063 70.8234 100.712C70.8234 101.362 70.8234 101.752 70.3036 101.752H63.4162C62.8964 101.752 61.7268 101.622 61.7268 99.8027V95.3843C61.8568 94.8645 62.1167 93.695 63.6761 93.695ZM78.2306 95.7742H74.9818C74.462 95.7742 74.462 95.9041 74.462 96.164V97.5935H77.7108C79.2702 97.5935 79.2702 97.2037 79.2702 96.8138C79.4002 95.9041 79.4002 95.7742 78.2306 95.7742ZM72.5128 93.695H79.79C80.6997 93.695 82.1292 93.695 82.1292 96.294C82.1292 97.9834 81.7393 98.1133 80.9596 98.6331C82.2591 98.893 82.1292 100.582 82.1292 101.362C82.1292 101.752 81.9992 101.752 81.8693 101.752H79.79C79.4002 101.752 79.4002 101.102 79.4002 100.712C79.4002 99.6727 78.8804 99.8027 78.6205 99.8027H75.5016C75.2417 99.2829 74.592 98.1133 74.592 98.1133V101.362C74.592 101.622 74.3321 101.752 74.2021 101.752H72.1229C72.2529 101.752 71.863 101.752 71.863 101.492V94.3447C71.863 93.8249 72.2529 93.695 72.5128 93.695ZM93.6948 95.9042L92.3953 98.3732L92.5253 98.5032H94.9943L95.1243 98.3732C94.9943 98.2433 93.9547 96.1641 93.6948 95.9042ZM94.6045 93.695C95.1243 93.695 95.6441 93.9549 96.1639 94.9945C96.5538 95.7742 99.1528 100.452 99.6726 101.492V101.752H96.9436L96.1639 100.322H92.7852C92.7852 100.322 92.2654 99.023 92.0055 98.6331C91.7456 99.023 90.706 101.102 90.3161 101.622H87.5871V101.492C88.1069 100.452 92.0055 93.565 92.0055 93.565M106.82 95.7742H103.571C103.051 95.7742 103.051 95.9041 103.051 96.164V97.5935H106.3C107.86 97.5935 107.86 97.2037 107.86 96.8138C107.989 95.9041 107.989 95.7742 106.82 95.7742ZM101.102 93.695H108.379C109.289 93.695 110.718 93.695 110.718 96.294C110.718 97.9834 110.329 98.1133 109.549 98.6331C110.848 98.893 110.718 100.582 110.718 101.362C110.718 101.752 110.589 101.752 110.459 101.752H108.379C107.989 101.752 107.989 101.102 107.989 100.712C107.989 99.6727 107.47 99.8027 107.21 99.8027H104.091C103.831 99.2829 103.181 98.1133 103.181 98.1133V101.362C103.181 101.622 102.921 101.752 102.791 101.752H100.712C100.842 101.752 100.452 101.752 100.452 101.492V94.3447C100.452 93.8249 100.842 93.695 101.102 93.695ZM116.956 101.752C116.436 100.712 114.877 97.9834 113.967 96.164V101.232C113.967 101.492 113.967 101.752 113.447 101.752H112.018C111.498 101.752 111.498 101.362 111.498 101.232V94.3447C111.498 94.0848 111.498 93.695 112.018 93.695H114.487C114.877 93.695 115.397 93.565 116.046 94.8645C116.436 95.7742 117.476 97.8534 118.126 98.893C118.775 97.8534 119.815 95.7742 120.205 94.8645C120.855 93.695 121.374 93.695 121.764 93.695H124.233C124.753 93.695 124.753 94.0848 124.753 94.3447V101.232C124.753 101.492 124.883 101.752 124.233 101.752H122.804C122.284 101.752 122.284 101.362 122.284 101.232V96.164C121.245 97.9834 119.815 100.712 119.165 101.752M132.81 99.6727C133.98 99.6727 133.98 98.3732 133.98 97.5935C133.98 96.8138 134.11 95.6442 132.55 95.6442H129.951C128.392 95.6442 128.522 96.8138 128.522 97.5935C128.522 98.3732 128.392 99.6727 129.691 99.6727H132.81ZM128.002 101.752C125.663 101.752 125.663 99.1529 125.663 97.4636C125.663 95.9041 125.533 93.565 128.522 93.565H133.85C136.839 93.565 136.709 96.0341 136.709 97.4636C136.709 99.1529 136.839 101.752 134.37 101.752M140.737 101.752C137.618 101.752 137.618 99.4128 137.618 98.5032V94.2148C137.618 93.9549 137.618 93.565 138.138 93.565H139.698C140.217 93.565 140.217 93.9549 140.217 94.2148V98.5032C140.217 98.7631 140.217 99.6727 141.387 99.6727H144.116C145.156 99.6727 145.286 98.893 145.286 98.5032V94.2148C145.286 93.9549 145.286 93.565 145.805 93.565H147.365C147.885 93.565 147.885 93.9549 147.885 94.2148V98.5032C147.885 99.4128 147.885 101.752 144.766 101.752M155.162 95.7742H152.043C151.523 95.7742 151.523 95.9041 151.523 96.164V97.5935H154.772C156.331 97.5935 156.331 97.2037 156.331 96.8138C156.461 95.9041 156.331 95.7742 155.162 95.7742ZM149.444 93.695H156.721C157.631 93.695 159.06 93.695 159.06 96.294C159.06 97.9834 158.671 98.1133 157.891 98.6331C159.19 98.893 159.06 100.582 159.06 101.362C159.06 101.752 158.93 101.752 158.8 101.752H156.721C156.331 101.752 156.331 101.102 156.331 100.712C156.331 99.6727 155.812 99.8027 155.552 99.8027H152.433C152.173 99.2829 151.523 98.1133 151.523 98.1133V101.362C151.523 101.622 151.263 101.752 151.133 101.752H149.054C149.184 101.752 148.794 101.752 148.794 101.492V94.3447C148.794 93.8249 149.184 93.695 149.444 93.695Z" fill="black"/>
</svg>
