<svg width="187" height="120" viewBox="0 0 187 187" fill="none" xmlns="http://www.w3.org/2000/svg">
    <path d="M113.052 156.413C114.922 157.796 116.754 158.993 118.398 160.413C125.801 166.769 130.137 174.732 130.848 184.527C131.035 186.957 130.997 186.957 128.53 186.957C123.333 186.957 118.174 186.957 112.978 186.957H111.557C111.183 180.713 108.716 175.666 103.519 172.077C100.155 169.759 96.416 168.713 92.3785 168.974C87.7053 169.273 83.6677 171.143 80.4152 174.582C77.1627 177.984 75.63 182.134 75.3683 186.844H55.8533C56.3393 173.423 62.62 163.554 73.985 156.413C72.8261 155.777 71.7793 155.179 70.7325 154.619C66.8071 152.488 62.8816 150.357 58.9562 148.151C58.2459 147.74 57.6851 147.702 56.9374 148.151C41.2357 156.787 25.4966 165.423 9.7575 174.059C6.57977 175.816 3.40204 177.536 0 179.367C0 178.807 0 178.395 0 177.984C0 171.666 0 165.348 0 159.03C0 157.834 0.336465 157.161 1.42063 156.6C13.1969 150.207 24.9358 143.777 36.6747 137.347C37.0486 137.16 37.385 136.898 37.9084 136.599C35.4784 135.253 33.1979 133.982 30.9174 132.748C20.8609 127.253 10.8417 121.794 0.822471 116.261C0.448621 116.075 0.037385 115.514 0.037385 115.14C0 108.336 0.037385 101.494 0.037385 94.6903C0.037385 94.5781 0.112155 94.466 0.14954 94.2417C0.523391 94.3912 0.859856 94.5407 1.19632 94.6903C16.599 103.102 32.0016 111.514 47.4042 119.963C50.7315 121.757 54.0214 123.589 57.3487 125.383C57.6851 125.57 58.2833 125.682 58.6198 125.496C63.4798 122.879 68.3025 120.187 73.1252 117.495C73.1252 117.495 73.1625 117.42 73.2747 117.271C72.8261 116.972 72.3401 116.635 71.8541 116.374C66.022 113.009 60.2273 109.607 54.8812 105.42C42.7311 95.924 34.5812 83.9234 31.8894 68.5581C29.0856 52.4078 31.4408 37.3042 41.46 23.9204C48.3763 14.6863 57.4982 8.4056 68.2651 4.36801C74.8075 1.97537 81.5368 0.629509 88.453 0.180888C100.902 -0.641583 112.828 1.30244 124.044 6.79804C140.044 14.6489 150.737 26.9112 154.774 44.5195C156.232 50.875 156.344 57.3052 155.671 63.7729C154.886 71.3994 152.83 78.6521 149.241 85.4188C144.718 93.9426 138.362 100.896 130.586 106.467C125.539 110.093 120.118 113.196 114.847 116.523C114.473 116.785 114.062 117.009 113.464 117.383C114.623 118.019 115.595 118.542 116.567 119.103C120.268 121.159 124.006 123.178 127.707 125.271C128.492 125.72 129.128 125.72 129.95 125.271C148.344 115.177 166.737 105.121 185.168 95.0641C185.692 94.8024 186.215 94.5407 186.888 94.1669C186.888 94.6903 186.963 95.0267 186.963 95.4006C186.963 101.868 186.963 108.336 186.963 114.803C186.963 115.551 186.738 116 186.065 116.374C174.214 122.841 162.363 129.309 150.512 135.776C150.064 136.001 149.652 136.3 149.017 136.674C149.914 137.16 150.624 137.571 151.372 137.982C162.961 144.3 174.513 150.656 186.103 156.974C186.738 157.31 187 157.684 187 158.394C187 165.086 187 171.816 187 178.508C187 178.732 187 178.956 186.925 179.367C185.243 178.47 183.71 177.61 182.14 176.75C164.868 167.292 147.596 157.796 130.362 148.3C129.427 147.777 128.754 147.74 127.819 148.3C123.371 150.805 118.884 153.198 114.398 155.665C113.987 155.89 113.613 156.114 113.09 156.413H113.052ZM52.4886 56.6323C52.4138 60.5951 52.8998 64.4832 53.7971 68.3338C56.0776 77.7175 61.6479 84.858 69.0128 90.8396C76.3403 96.7838 84.4902 101.42 92.7149 105.943C93.1262 106.167 93.8739 106.167 94.2851 105.943C100.192 102.466 106.136 99.0643 111.856 95.3258C117.539 91.6621 122.698 87.288 126.735 81.8298C133.689 72.4462 135.558 61.7914 133.988 50.5012C132.194 37.4538 125.165 27.9206 113.576 21.8268C104.603 17.0789 94.9954 15.8826 85.0136 17.7519C77.5366 19.1351 70.8073 22.3128 65.1247 27.4346C56.4888 35.2481 52.4512 45.1177 52.4512 56.6697L52.4886 56.6323ZM108.753 136.711C108.454 136.487 108.342 136.337 108.192 136.262C103.482 133.683 98.7713 131.066 94.0608 128.524C93.7243 128.337 93.0888 128.449 92.7149 128.636C88.9016 130.692 85.1258 132.748 81.3499 134.842C80.3405 135.403 79.3685 135.963 78.2095 136.599C78.6955 136.898 78.9572 137.085 79.2563 137.272C83.6677 139.702 88.0792 142.095 92.4532 144.525C93.2383 144.973 93.8365 144.936 94.5842 144.525C97.7993 142.73 101.052 140.973 104.304 139.178C105.762 138.393 107.22 137.571 108.753 136.711Z" fill="black"/>
</svg>
