<svg width="187" height="72" viewBox="0 0 187 72" fill="none" xmlns="http://www.w3.org/2000/svg">
    <g clip-path="url(#clip0_225_987)">
        <path d="M48.3218 0.0933838H61.9627L39.6133 70.4986H22.7953L0 0.456388L13.7889 0.50749L31.6148 54.3202L48.3218 0.0933838Z" fill="black"/>
        <path d="M174.986 0H48.3555V12.1201H174.986V0Z" fill="black"/>
        <path d="M64.1458 70.4228H51.8213L65.6084 22.7072H78.3541L92.143 70.4228H79.607L78.1444 64.1971H65.6084L64.1476 70.4228H64.1458ZM76.0545 54.0841L71.8764 36.9683L67.908 54.0841H76.0545Z" fill="black"/>
        <path d="M108.23 22.7072L122.017 48.639L121.599 37.7472V22.7072H133.718V70.4228H121.809L108.02 44.4892L108.648 55.3811V70.4228H96.5293V22.7072H108.23Z" fill="black"/>
        <path d="M172.996 36.4502H161.086C160.947 34.8942 160.319 33.858 159.206 33.34C158.506 32.6509 157.461 32.302 156.071 32.302C153.283 32.302 151.893 33.2536 151.893 35.1532C151.893 36.8836 154.4 38.5242 159.417 40.082C169.163 43.023 174.041 48.0363 174.041 55.1202C173.759 65.6667 167.771 71.0254 156.071 71.1981C145.903 70.68 140.194 65.4922 138.939 55.6383H151.057C151.475 57.3687 152.173 58.6657 153.145 59.5274C154.12 60.2199 155.304 60.5653 156.696 60.5653C160.319 60.5653 162.129 59.4428 162.129 57.1943C162.129 55.2947 159.692 53.6523 154.818 52.2673C144.925 49.3315 139.984 44.1437 139.984 36.7092C140.261 26.8552 145.762 21.7573 156.488 21.4102C166.235 21.5846 171.741 26.5962 172.994 36.4484L172.996 36.4502Z" fill="black"/>
        <path d="M186.448 21.4489H185.895C185.891 23.5741 184.173 25.2939 182.048 25.2975C179.923 25.2939 178.203 23.5741 178.201 21.4489C178.201 19.3237 179.923 17.6056 182.048 17.6004C184.173 17.6039 185.893 19.3237 185.895 21.4489H187C187 18.714 184.781 16.4972 182.046 16.4955C179.312 16.4955 177.095 18.7123 177.095 21.4489C177.095 24.1855 179.312 26.4023 182.046 26.4023C184.781 26.4023 187 24.1838 187 21.4489H186.448Z" fill="black"/>
        <path d="M184.827 23.8596V24.0129H183.53L181.675 21.5705L181.211 21.6005V23.1459C181.15 23.641 181.386 23.8789 181.921 23.8578V24.0111H179.728V23.8578C180.263 23.9001 180.489 23.6305 180.408 23.0543V19.6216C180.469 19.1264 180.242 18.8885 179.728 18.9097V18.7845H181.921C183.241 18.8057 183.913 19.2586 183.932 20.1449C183.932 20.8868 183.458 21.3309 182.51 21.4736L184.119 23.4842C184.325 23.7309 184.561 23.856 184.829 23.856L184.827 23.8596ZM181.211 19.3449V21.2939C182.447 21.3344 183.067 20.9538 183.067 20.1485C183.067 19.4277 182.612 19.0665 181.706 19.0665C181.336 19.0453 181.171 19.1387 181.211 19.3449Z" fill="black"/>
    </g>
    <defs>
        <clipPath id="clip0_225_987">
            <rect width="187" height="71.1999" fill="white"/>
        </clipPath>
    </defs>
</svg>
