<svg width="187" height="141" viewBox="0 0 187 141" fill="none" xmlns="http://www.w3.org/2000/svg">
    <g clip-path="url(#clip0_223_575)">
        <path d="M187 0H0V141H187V0Z" fill="white"/>
        <path d="M106.356 69.5601C106.356 66.8054 104.798 64.3835 99.5256 64.3835C96.8245 64.3835 94.6775 64.958 93.5001 65.4672L94.3572 67.6801C95.4307 67.1709 97.1362 66.7466 98.7465 66.7466C101.422 66.7466 101.854 67.889 101.854 68.6201V68.7963C96.028 68.7898 92.3486 70.3108 92.3486 73.4115C92.3486 75.3045 94.2273 77.0801 97.4825 77.0801C99.491 77.0801 101.162 76.4795 102.166 75.5134H102.27C102.27 75.5134 102.937 77.6088 106.599 76.8124C106.408 75.9377 106.348 75.0042 106.348 73.888M102.01 72.4649C102.01 72.6869 101.984 72.9219 101.906 73.1242C101.569 73.9663 100.409 74.6779 98.9629 74.6779C97.7595 74.6779 96.7985 74.1622 96.7985 73.072C96.7985 71.4009 99.2399 70.944 102.01 70.9505V72.4649Z" fill="#0078BF"/>
        <path d="M15.5835 60.6366C15.5835 60.6366 19.3928 72.3997 19.9988 74.3058C20.7087 76.5317 21.99 77.3542 25.6694 76.7994L28.0415 69.5078C28.6475 67.6931 29.0458 66.4072 29.4353 64.5598H29.5046C29.773 66.4202 30.1626 67.6997 30.656 69.5144C30.656 69.5144 31.6257 72.824 32.1191 74.5669C32.6126 76.3033 33.9978 77.3999 37.6079 76.8059L43.2699 60.6366H38.6988L36.7682 67.6278C36.2487 69.6645 35.7812 71.2508 35.409 73.1177H35.3484C35.0194 71.2769 34.5952 69.7494 34.0671 67.7649L32.0499 60.6431H27.2797L25.124 67.5887C24.5093 69.6972 23.9466 71.4009 23.5829 73.2026H23.5137C23.1414 71.5119 22.6479 69.3708 22.1112 67.3276C22.1112 67.3276 20.8299 62.3599 20.3797 60.6497" fill="#0078BF"/>
        <path d="M56.2733 69.5601C56.2733 66.8054 54.715 64.3835 49.4426 64.3835C46.7328 64.3835 44.5858 64.958 43.4171 65.4672L44.2741 67.6801C45.3477 67.1709 47.0532 66.7466 48.6634 66.7466C51.3386 66.7466 51.7715 67.889 51.7715 68.6201V68.7963C45.945 68.7898 42.2656 70.3108 42.2656 73.4115C42.2656 75.3045 44.1443 77.0801 47.3995 77.0801C49.408 77.0801 51.0789 76.4795 52.0831 75.5134H52.1784C52.1784 75.5134 52.845 77.6088 56.5157 76.8124C56.3253 75.9377 56.256 75.0042 56.256 73.888M51.9273 72.4649C51.9273 72.6869 51.9013 72.9219 51.8234 73.1242C51.4858 73.9663 50.3343 74.6779 48.8885 74.6779C47.6852 74.6779 46.7242 74.1622 46.7242 73.072C46.7242 71.4009 49.1569 70.944 51.936 70.9505V72.4649H51.9273Z" fill="#0078BF"/>
        <path d="M63.5368 73.3723V60.6366H59.1821V76.8059H63.5368" fill="#0078BF"/>
        <path d="M120.502 60.6365V72.5628C120.502 74.2078 120.909 75.3567 121.792 76.0617C122.554 76.6753 123.818 77.0735 125.333 77.0735C126.623 77.0735 127.887 76.8907 128.485 76.721L128.424 74.1556C127.982 74.2404 127.472 74.3057 126.77 74.3057C125.29 74.3057 124.788 73.5876 124.788 72.1124V67.5495H128.58V64.4553H124.788V60.63" fill="#0078BF"/>
        <path d="M109.265 64.6577V76.8059H113.758V70.5849C113.758 70.252 113.784 69.9582 113.854 69.6906C114.191 68.385 115.507 67.556 117.403 67.556C117.923 67.556 118.295 67.5952 118.693 67.6409V64.4618C118.355 64.4096 118.13 64.39 117.706 64.39C116.027 64.39 114.122 65.206 113.325 66.9554H113.204V64.6642" fill="#0078BF"/>
        <path d="M66.5845 64.6576V76.8058H70.9651V69.684C70.9651 69.3511 71.0171 68.9986 71.1729 68.6918C71.5365 67.9738 72.4196 67.1317 73.8307 67.1317C75.5968 67.1317 76.4193 68.2544 76.4193 69.8864V76.8058H80.7913V69.5992C80.7913 69.2793 80.8519 68.8942 80.9731 68.6135C81.328 67.7975 82.289 67.1317 83.5963 67.1317C85.3884 67.1317 86.2454 68.2414 86.2454 70.1475V76.7993H90.6174V69.6449C90.6174 65.8718 88.0722 64.377 85.2066 64.377C83.9339 64.377 82.9297 64.6185 82.0293 65.0363C81.2674 65.3888 80.5835 65.8914 79.9861 66.5507H79.9255C79.2329 65.2386 77.6054 64.377 75.4843 64.377C72.7572 64.377 71.5365 65.4149 70.792 66.3026H70.7227V64.6511" fill="#0078BF"/>
        <path d="M152.119 62.8691C152.985 62.8691 153.695 62.5296 153.79 62.0923L154.647 54.8007C154.647 54.0827 153.531 53.4886 152.119 53.4886C150.708 53.4886 149.6 54.0827 149.6 54.8007L150.457 62.0923C150.552 62.5296 151.262 62.8691 152.128 62.8691" fill="#FCBD1B"/>
        <path d="M146.899 65.1473C147.332 64.5859 147.297 63.9462 146.838 63.6655L138.891 59.4616C138.068 59.1026 136.83 59.5334 136.12 60.4538C135.419 61.3743 135.54 62.3991 136.363 62.7581L145.159 65.8458C145.713 66.0025 146.457 65.7022 146.89 65.1408" fill="#FCBD1B"/>
        <path d="M157.348 65.1473C157.781 65.7086 158.526 66.0089 159.08 65.8523L167.876 62.7646C168.707 62.4056 168.819 61.3807 168.118 60.4603C167.417 59.5399 166.179 59.1091 165.348 59.4681L157.4 63.672C156.941 63.9527 156.916 64.5924 157.34 65.1538" fill="#FCBD1B"/>
        <path d="M152.119 71.9753C152.985 71.9753 153.695 72.3148 153.79 72.7521L154.647 80.0437C154.647 80.7617 153.531 81.3558 152.119 81.3558C150.708 81.3558 149.6 80.7617 149.6 80.0437L150.457 72.7521C150.552 72.3148 151.262 71.9753 152.128 71.9753" fill="#FCBD1B"/>
        <path d="M157.348 69.7036C157.781 69.1357 158.526 68.842 159.08 68.9986L167.876 72.0863C168.707 72.4453 168.819 73.4702 168.118 74.3906C167.417 75.3045 166.179 75.7418 165.348 75.3828L157.4 71.1789C156.941 70.8982 156.916 70.2585 157.34 69.6971" fill="#FCBD1B"/>
        <path d="M146.899 69.6971C147.332 70.2585 147.297 70.8982 146.838 71.1789L138.891 75.3763C138.068 75.7353 136.83 75.3045 136.12 74.384C135.419 73.4636 135.54 72.4388 136.363 72.0732L145.159 68.9856C145.713 68.8289 146.457 69.1227 146.89 69.6906" fill="#FCBD1B"/>
    </g>
    <defs>
        <clipPath id="clip0_223_575">
            <rect width="187" height="141" fill="white"/>
        </clipPath>
    </defs>
</svg>
