<svg width="187" height="29" viewBox="0 0 187 29" fill="none" xmlns="http://www.w3.org/2000/svg">
    <g clip-path="url(#clip0_240_1904)">
        <path fill-rule="evenodd" clip-rule="evenodd" d="M10.6064 13.8917L14.2863 5.27994C14.4428 4.94131 14.5659 4.6478 14.657 4.39901C14.7485 4.15185 14.7948 3.9368 14.7948 3.75427C14.7948 3.49287 14.6838 3.31035 14.4615 3.20587C14.2399 3.10139 13.894 3.00993 13.4244 2.93187C13.32 2.93187 13.2155 2.92496 13.1114 2.91196C13.0069 2.89895 12.8899 2.87984 12.759 2.85342V1.87451H19.2178V2.81439H16.7514L11.2329 15.4576V24.382C11.2329 25.2174 11.4475 25.739 11.878 25.9479C12.3085 26.1565 12.772 26.2605 13.2675 26.2605H13.3273H13.3854H13.8549H14.2863V27.161H5.98752V26.2219H8.76651V15.4576L3.20854 4.96733C3.1561 4.86245 3.08455 4.73236 2.99268 4.57544C2.90162 4.41893 2.77803 4.25022 2.62112 4.06688C2.38615 3.8059 2.07353 3.56524 1.68124 3.34287C1.29057 3.1205 0.781605 2.95789 0.155562 2.85342L0.115723 1.87451H7.20099V2.81439H4.73462L10.6064 13.8917Z" fill="#757674"/>
        <path fill-rule="evenodd" clip-rule="evenodd" d="M40.884 26.2217L36.2651 10.8389H33.1723L30.3933 23.1687C30.3677 23.3777 30.3413 23.5667 30.3149 23.7362C30.2893 23.9058 30.2759 24.0692 30.2759 24.2257C30.2759 25.1387 30.5177 25.7062 30.9999 25.9286C31.4828 26.1498 32.0243 26.2607 32.6243 26.2607H32.8796H33.1337H33.3097H33.4862V27.1612H27.0273V26.2217H28.2408L34.4252 0.348633H35.3261L42.4496 24.0692C42.6841 25.0603 42.9711 25.6737 43.3106 25.9087C43.65 26.1437 44.0281 26.2607 44.446 26.2607H44.818H45.1895V27.1612H39.0441V26.2217H40.884ZM35.9517 9.89905L34.7378 5.59398L33.4862 9.89905H35.9517Z" fill="#757674"/>
        <path fill-rule="evenodd" clip-rule="evenodd" d="M55.6992 1.56196H60.3181V4.02792C61.7796 3.06244 63.1882 2.36484 64.5455 1.93434C65.9025 1.50302 67.1676 1.27496 68.3425 1.24854C71.3694 1.24854 73.7894 2.35793 75.6033 4.57551C77.4168 6.7939 78.3758 9.24685 78.4803 11.9352V12.1311V12.3653C78.5067 14.8186 77.6908 17.0948 76.0338 19.1957C74.3765 21.2966 71.708 22.5291 68.029 22.8946C68.525 23.0775 69.04 23.3056 69.5754 23.5796C70.11 23.8532 70.6645 24.1345 71.2389 24.4211C72.2304 24.917 73.274 25.374 74.3708 25.7915C75.4663 26.209 76.6013 26.4179 77.7754 26.4179C78.0624 26.4179 78.3429 26.4045 78.6173 26.3781C78.8913 26.3529 79.1588 26.313 79.4202 26.2606L80.0458 26.8488C79.5498 27.1358 79.0218 27.3444 78.4608 27.4749C77.8998 27.6042 77.3189 27.67 76.7192 27.67C75.7794 27.67 74.8013 27.5525 73.7829 27.3176C72.7654 27.083 71.7345 26.7704 70.6909 26.3781C69.8555 26.0655 69.0205 25.7191 68.1855 25.341C67.3509 24.9634 66.5416 24.5646 65.759 24.1475C64.7151 23.6247 63.7236 23.1101 62.7837 22.6011C61.8442 22.0917 61.0226 21.6681 60.3181 21.3291V24.3821C60.3181 25.2431 60.5198 25.7716 60.9246 25.9679C61.3295 26.163 61.8576 26.2606 62.5101 26.2606H63.117H63.7236V27.161H56.3257V26.222H58.1648V6.80731V6.55242V6.25932C58.1912 5.29383 58.1001 4.43201 57.8916 3.67628C57.6826 2.91893 56.9517 2.54087 55.6992 2.54087V1.56196ZM60.3181 5.59385V18.5501C61.7796 19.7762 63.1626 20.6506 64.4667 21.173C65.772 21.6937 66.9855 21.9551 68.1071 21.9551C70.0645 21.9551 71.7154 21.3486 73.0593 20.1355C74.4025 18.9221 75.3749 17.5842 75.9745 16.1232C76.2099 15.6012 76.3859 15.0788 76.5034 14.5577C76.6209 14.0353 76.6794 13.5397 76.6794 13.0702V12.9137V12.7177C76.6794 12.6649 76.6729 12.6133 76.6603 12.5616C76.6469 12.5088 76.6404 12.4563 76.6404 12.4043C76.6404 9.14237 75.6688 6.74837 73.7244 5.22188C71.7808 3.69539 69.647 2.93194 67.3245 2.93194C66.0196 2.93194 64.748 3.16041 63.5077 3.61693C62.2686 4.07386 61.2052 4.74584 60.3181 5.63247V5.59385Z" fill="#757674"/>
        <path fill-rule="evenodd" clip-rule="evenodd" d="M111.524 2.50105V0.661133H112.464V9.89893H111.524C111.524 7.26345 110.911 5.40443 109.685 4.32105C108.459 3.23807 107.114 2.5791 105.653 2.34454C105.34 2.31852 105.027 2.2921 104.714 2.26649C104.401 2.24006 104.101 2.22705 103.814 2.22705C100.421 2.22705 97.8246 3.47995 96.0242 5.98454C94.2233 8.48993 93.3236 11.2689 93.3236 14.3223V14.4593V14.5963C93.3492 17.4403 94.2172 20.0896 95.9262 22.5418C97.6352 24.9955 100.265 26.4432 103.814 26.8867C103.892 26.8867 103.97 26.894 104.048 26.907C104.127 26.9192 104.205 26.9265 104.283 26.9265H104.479H104.714C106.123 26.9265 107.395 26.7176 108.53 26.2996C109.665 25.8822 110.533 25.426 111.133 24.9301C111.29 24.7996 111.433 24.6626 111.564 24.5195C111.694 24.3756 111.786 24.2382 111.838 24.1081V21.2897C111.838 20.5587 111.492 20.1282 110.8 19.9977C110.109 19.8673 109.228 19.8022 108.158 19.8022V18.8241H116.457V19.7632H113.99V21.9157C114.017 22.0987 114.049 22.2487 114.089 22.3661C114.127 22.4836 114.16 22.5816 114.186 22.6597C114.291 22.8418 114.376 22.9662 114.441 23.0312C114.506 23.0971 114.551 23.1426 114.578 23.1686C114.578 23.1942 114.558 23.2337 114.519 23.2861C114.48 23.3377 114.408 23.4166 114.304 23.5215C114.147 23.7556 113.951 24.004 113.716 24.2638C113.481 24.5256 113.194 24.787 112.855 25.0476C111.916 25.8041 110.664 26.5025 109.097 27.1411C107.532 27.7802 105.771 28.1001 103.814 28.1001C99.4036 27.9436 96.1282 26.5671 93.9883 23.9715C91.8488 21.3742 90.7788 18.4843 90.7788 15.3008V14.9097C90.7788 14.7788 90.7918 14.6483 90.8178 14.5178C90.9752 11.1774 92.2663 8.11146 94.6932 5.31987C97.1197 2.52707 100.578 1.09164 105.066 1.01359C105.536 1.01359 106.351 1.07904 107.512 1.20953C108.674 1.34043 110.011 1.78354 111.524 2.54048V2.50105Z" fill="#757674"/>
        <path fill-rule="evenodd" clip-rule="evenodd" d="M127.255 26.2219H129.446V4.96774C129.446 4.07989 129.225 3.50588 128.781 3.2449C128.337 2.98432 127.737 2.85382 126.98 2.85382V1.87451H134.065V2.81439H131.6V24.0694C131.6 25.0605 131.743 25.6739 132.03 25.9089C132.317 26.1439 132.708 26.2609 133.204 26.2609H133.615H134.065V27.1614H127.255V26.2219Z" fill="#757674"/>
        <path fill-rule="evenodd" clip-rule="evenodd" d="M166.752 2.50117V0.348633H167.692V10.2129H166.752C166.778 10.082 166.791 9.93848 166.791 9.78238V9.35187C166.791 7.36804 166.367 5.86757 165.519 4.84964C164.671 3.83212 163.738 3.10119 162.72 2.65768C161.833 2.29221 160.998 2.07757 160.215 2.01253C159.432 1.94708 158.936 1.91455 158.727 1.91455C154.944 2.14871 152.171 3.47316 150.409 5.88708C148.648 8.3006 147.754 10.982 147.728 13.9309V14.2248V14.4789C147.859 17.5583 148.87 20.3763 150.762 22.9342C152.653 25.4912 155.309 26.8083 158.727 26.8868C158.858 26.9136 158.995 26.9266 159.138 26.9266H159.55C161.272 26.9266 162.811 26.6067 164.169 25.9676C165.525 25.3286 166.595 24.6164 167.378 23.8334C167.483 23.7297 167.587 23.6244 167.692 23.5216C167.796 23.4167 167.887 23.3122 167.966 23.2078L168.591 24.0692C168.2 24.8773 167.443 25.5953 166.321 26.2217C165.2 26.8486 163.999 27.3173 162.72 27.6311C162.146 27.7876 161.572 27.9112 160.998 28.0027C160.424 28.0941 159.888 28.1401 159.393 28.1401H159.217H159.04C158.988 28.1137 158.936 28.1002 158.884 28.1002H158.727C154.421 27.7876 151.153 26.2607 148.922 23.5216C146.691 20.7804 145.562 17.7795 145.536 14.5179V14.4594V14.4005C145.51 11.1393 146.632 8.14409 148.903 5.41755C151.173 2.6902 154.657 1.22225 159.354 1.0137C159.771 1.0137 160.6 1.05923 161.839 1.1507C163.079 1.24217 164.403 1.56169 165.812 2.10968C165.969 2.18814 166.126 2.25969 166.282 2.32473C166.438 2.39018 166.595 2.46255 166.752 2.5406V2.50117Z" fill="#757674"/>
        <path fill-rule="evenodd" clip-rule="evenodd" d="M180.064 26.2219H182.256V4.96774C182.256 4.07989 182.034 3.50588 181.59 3.2449C181.147 2.98432 180.546 2.85382 179.79 2.85382V1.87451H186.874V2.81439H184.408V24.0694C184.408 25.0605 184.552 25.6739 184.839 25.9089C185.126 26.1439 185.517 26.2609 186.013 26.2609H186.424H186.874V27.1614H180.064V26.2219Z" fill="#757674"/>
    </g>
    <defs>
        <clipPath id="clip0_240_1904">
            <rect width="187" height="28.424" fill="white"/>
        </clipPath>
    </defs>
</svg>
