<svg width="183" height="91" viewBox="0 0 183 91" fill="none" xmlns="http://www.w3.org/2000/svg">
    <path d="M135.025 0.619046C136.468 0.336616 138.074 0.73007 139.1 1.852C140.323 3.18234 140.831 5.01521 141.145 6.77407C141.793 10.9268 141.553 15.2119 140.523 19.2789C139.051 25.1359 136.298 30.5683 133.065 35.5858C131.389 38.1666 129.572 40.6501 127.622 43.0166C127.078 43.562 127.285 44.4093 127.214 45.1085C127.227 50.1085 127.098 55.1592 127.971 60.0988C128.258 61.246 128.457 62.6737 129.522 63.3457C130.768 63.6457 132.003 62.9172 132.963 62.1556C135.132 60.2818 136.58 57.7069 137.882 55.1592C138.188 54.5066 138.632 53.8717 138.62 53.1159C138.658 51.7018 138.883 50.3053 139.161 48.9223C139.743 45.017 140.582 41.1409 141.838 37.4031C142.416 35.765 143.051 34.1152 144.053 32.6972C144.57 31.9746 145.315 31.2539 146.258 31.3474C147.465 31.398 148.782 31.3766 149.833 32.0798C150.696 32.7479 150.528 34.0003 150.515 34.9781C150.135 41.6668 148.1 48.0848 147.002 54.6547C146.847 55.7961 146.619 56.9823 146.9 58.1198C147.034 58.6613 147.66 58.673 148.062 58.449C149.13 57.9211 149.889 56.9355 150.619 56.0103C152.346 53.6886 153.736 51.1292 155.085 48.5639C158.078 42.7907 160.667 36.809 163.242 30.8312C163.473 30.282 163.788 29.7424 164.3 29.4249C165.336 28.749 166.613 28.6556 167.809 28.6517C168.858 28.638 170.018 29.012 170.583 29.9898C171.327 31.2617 171.055 32.7966 170.917 34.1912C170.033 42.0914 168.918 49.9605 167.924 57.8471C169.859 55.9655 171.75 54.0333 173.561 52.0232C175.458 49.8787 177.13 47.5374 179.027 45.3929C179.614 44.756 180.21 44.0821 180.988 43.6906C181.506 43.4257 182.26 43.6419 182.418 44.2613C182.74 45.2332 182.252 46.2051 181.77 47.0193C180.572 48.9846 179.074 50.7279 177.591 52.4654C174.135 56.4291 170.398 60.1202 166.706 63.8405C166.042 66.0103 165.521 68.2425 164.765 70.3909C163.488 74.1949 161.938 77.9249 159.851 81.3375C158.292 83.8637 156.404 86.2342 154.016 87.9697C151.832 89.5747 149.152 90.4862 146.462 90.3616C144.88 90.307 143.195 89.8143 142.131 88.5384C141.054 87.2704 140.869 85.4765 141.079 83.8676C141.473 80.7823 143.057 78.0301 144.829 75.5759C148.587 70.5623 153.389 66.5011 158.365 62.8393C158.675 62.627 158.645 62.1868 158.751 61.8596C159.869 56.3551 160.827 50.7747 160.901 45.1378C159.346 48.597 157.753 52.0583 155.696 55.2371C154.027 57.7867 152.066 60.2818 149.394 61.7602C147.497 62.8335 145.184 62.9932 143.129 62.3426C141.793 61.9433 140.672 60.9947 139.913 59.8066C138.479 62.1907 136.704 64.4092 134.467 66.0317C132.17 67.7068 129.279 68.6145 126.465 68.2366C124.544 67.9795 122.839 66.7271 121.834 65.0422C120.217 62.3777 119.684 59.2067 119.327 56.135C118.067 59.5125 116.536 62.8666 114.182 65.5915C112.835 67.1264 111.079 68.4314 109.046 68.7158C106.953 68.9534 104.704 68.4781 103.051 67.0796C101.496 65.7805 100.591 63.8229 100.179 61.8362C99.8482 60.3208 99.8671 58.7567 99.9143 57.2141C98.5388 60.6909 96.9082 64.1131 94.5785 67.0251C92.8439 69.1735 90.6106 71.059 87.9143 71.694C85.7792 72.177 83.406 71.992 81.5222 70.7726C80.0276 69.8202 79.0205 68.2483 78.3422 66.6102C77.5032 64.5533 77.1064 62.3387 76.8306 60.1358C75.3851 62.9211 73.6204 65.7162 70.9638 67.4166C68.8645 68.7878 66.1324 68.7099 63.9141 67.6912C62.1966 66.9024 60.872 65.4006 60.0237 63.6963C58.6028 60.8954 58.1984 57.6835 58.1399 54.5612C57.0515 57.8101 55.9877 61.1467 54.0208 63.9651C52.7794 65.7688 51.0354 67.2627 48.9589 67.9055C47.1147 68.4645 45.1213 68.4606 43.2659 67.9639C41.6012 67.5101 40.169 66.3025 39.3849 64.7248C38.4968 63.0029 38.1548 61.0473 37.9923 59.1249C37.7335 56.0142 38.0887 52.8978 38.4968 49.8203C38.9314 46.7992 39.4888 43.7724 40.5412 40.9091C40.921 39.9274 41.3594 38.9535 41.998 38.1199C42.5932 37.368 43.5644 37.1304 44.4468 36.9512C45.6126 36.7584 46.837 36.661 47.9877 36.996C48.6433 37.1752 49.2291 37.6816 49.3972 38.377C49.6466 39.3704 49.3859 40.3968 49.2291 41.3844C48.3354 46.1759 47.2319 50.9402 46.7935 55.8097C46.6726 57.4011 46.5951 59.0158 46.8332 60.6013C46.9768 61.4174 47.196 62.29 47.7987 62.8821C48.307 63.3788 49.1799 63.5658 49.7581 63.0847C50.6632 62.3738 51.247 61.3356 51.8196 60.3422C53.2952 57.6348 54.4176 54.7423 55.5078 51.8537C57.4483 46.659 59.094 41.3571 60.7681 36.0688C60.9571 35.2313 61.7034 34.7443 62.4573 34.5204C64.1446 33.9925 65.9113 33.7315 67.6723 33.6633C68.3771 33.6302 69.2802 33.9672 69.3823 34.7911C69.437 35.7611 69.2802 36.7291 69.199 37.6953C68.4848 43.8211 67.387 49.8923 66.7086 56.022C66.5235 57.962 66.2816 59.9234 66.5348 61.8673C66.6198 62.5569 66.7974 63.2931 67.3 63.7918C67.8877 64.3508 68.8343 64.3819 69.5013 63.9534C70.55 63.3146 71.3001 62.2881 71.9878 61.2772C73.6411 58.7528 74.892 55.9792 76.1012 53.2075C76.4678 52.5121 76.2883 51.7057 76.2959 50.9539C76.0559 44.9566 76.8211 38.9672 78.0153 33.1102C79.0998 27.9446 80.5415 22.8472 82.4915 17.9563C83.6818 15.0191 85.0404 12.1344 86.8108 9.51656C87.9502 7.87067 89.2482 6.27543 90.9469 5.21973C92.1089 4.47957 93.543 4.11923 94.8902 4.45619C96.0126 4.7133 96.9498 5.53917 97.5298 6.54423C98.2799 7.8473 98.6333 9.34515 98.8506 10.8313C99.4174 14.9879 99.1302 19.2536 98.0532 23.2972C96.4131 29.5243 93.4108 35.278 89.919 40.5975C88.5283 42.705 87.0413 44.7443 85.475 46.7155C85.286 51.6317 85.0668 56.5577 85.3597 61.4739C85.4976 63.1139 85.6186 64.791 86.1892 66.3434C86.4348 66.992 86.9128 67.7847 87.697 67.6835C89.1651 67.5276 90.3177 66.4174 91.2303 65.3091C93.0688 62.9854 94.3706 60.2741 95.5553 57.553C98.1855 51.3356 100.135 44.8359 101.861 38.2971C102.176 37.0973 102.223 35.8117 102.72 34.6703C103.378 33.8639 104.511 33.7938 105.46 33.7432C106.926 33.7432 108.536 33.901 109.734 34.8554C110.318 35.2936 110.178 36.0864 110.095 36.7233C109.29 42.2979 108.313 47.851 107.833 53.4704C107.718 55.0287 107.608 56.5908 107.669 58.1529C107.72 59.7287 107.55 61.3317 107.884 62.886C108.015 63.5269 108.513 64.2066 109.224 64.0859C110.699 63.8716 111.71 62.5783 112.593 61.4564C115.098 57.9289 116.774 53.8736 118.392 49.8573C118.588 49.3099 118.875 48.784 118.949 48.1997C118.977 43.038 119.72 37.9134 120.576 32.8394C121.868 25.6754 123.527 18.5407 126.199 11.7779C127.376 8.87184 128.744 5.99495 130.72 3.568C131.85 2.21234 133.277 0.969648 135.025 0.619046ZM134.938 5.36971C134.184 6.71368 133.717 8.2018 133.256 9.67238C132.098 13.5758 131.265 17.5687 130.488 21.5675C129.609 26.1682 128.842 30.7923 128.219 35.4358C129.772 33.3147 131.232 31.1195 132.525 28.8192C135.591 23.3576 137.914 17.2259 137.91 10.8372C137.897 9.17764 137.912 7.48501 137.487 5.87224C137.292 5.17493 136.865 4.32374 136.058 4.31206C135.525 4.41724 135.21 4.9334 134.938 5.36971ZM92.8307 8.70627C91.8576 10.0522 91.3134 11.663 90.7617 13.2271C89.4806 17.1577 88.5907 21.2091 87.7896 25.2664C86.8656 30.1515 86.0739 35.0696 85.6601 40.0287C87.4929 37.5959 89.1613 35.0248 90.5784 32.3116C94.1155 25.6053 96.1392 17.8667 95.2984 10.21C95.1604 9.43864 95.0603 8.50955 94.399 8.00702C93.7887 7.67589 93.184 8.23296 92.8307 8.70627ZM151.412 73.6008C149.455 75.5525 147.565 77.6133 146.065 79.9682C145.209 81.3647 144.398 82.9522 144.568 84.6604C144.608 85.3889 144.837 86.2401 145.547 86.5614C146.785 87.1458 148.232 86.6452 149.203 85.7531C150.972 84.1676 152.111 81.9958 153.137 79.8591C154.857 76.1758 156.09 72.2744 157.183 68.3515C155.199 70.0286 153.251 71.7543 151.412 73.6008Z" fill="#87179D"/>
    <path d="M107.623 15.8352C109.061 15.6365 110.535 15.73 111.981 15.8488C113.08 16.0066 114.386 16.2676 114.996 17.3389C115.408 18.3362 115.068 19.4581 114.783 20.4456C114.157 22.2785 113.218 24.0529 111.82 25.3774C111.083 26.1001 109.989 26.0884 109.04 26.0397C107.926 25.9287 106.75 25.7378 105.83 25.0327C105.309 24.6256 105.241 23.8971 105.199 23.2758C105.127 21.5754 105.358 19.8769 105.687 18.2135C105.885 17.1558 106.628 16.1917 107.623 15.8352Z" fill="#87179D"/>
    <path d="M32.8114 26.18C34.4968 25.7339 36.4184 26.2754 37.5407 27.6759C38.9238 29.4152 39.1581 31.9513 38.3967 34.0237C37.5407 36.4857 36.2597 38.7607 34.9654 41.0027C31.194 47.3817 26.9067 53.414 22.6365 59.4443C19.9837 63.2055 17.2307 66.8966 14.7102 70.7552C14.3436 71.4077 13.7824 72.029 13.7786 72.8237C15.1825 72.5491 16.5354 72.0446 17.9431 71.7739C21.8108 70.9149 25.7334 70.2565 29.6899 70.0364C32.8189 69.8962 35.9989 70.1767 38.9937 71.1584C40.2143 71.5986 41.4935 72.1128 42.3759 73.1295C43.3943 74.2339 42.6763 76.3667 41.2309 76.62C40.3882 76.7641 39.6248 76.3025 38.9087 75.9168C36.5034 74.5982 33.6824 74.5436 31.0239 74.6663C25.467 74.9585 20.1953 77.0465 15.2146 79.4657C12.8434 80.5623 10.5155 81.8361 7.97228 82.4575C6.84615 82.7282 5.45549 82.8471 4.61278 81.8576C3.16355 80.1474 2.89525 77.7614 2.64205 75.5915C2.58537 73.9223 2.17913 72.1108 3.00672 70.5682C4.29157 67.851 5.97321 65.3617 7.61327 62.8647C11.8155 56.5967 16.2935 50.5332 20.7111 44.4288C22.7669 41.5948 24.8415 38.7744 26.7896 35.8585C27.1637 35.2664 27.5888 34.6899 27.8042 34.012C27.6512 33.4004 26.9502 33.788 26.5742 33.9185C22.8784 35.5391 19.1826 37.22 15.2789 38.2543C11.7777 39.2126 8.02707 39.6139 4.48997 38.6205C3.19189 38.229 1.84281 37.6661 0.973645 36.5481C0.384127 35.8176 0.26509 34.7424 0.641096 33.8835C0.888618 33.3089 1.56316 33.1745 2.11111 33.2037C3.57546 33.2699 4.97178 33.7861 6.4059 34.0432C8.69028 34.5107 11.0162 33.9809 13.2345 33.4102C18.748 31.8909 23.9478 29.4211 29.2743 27.3486C30.4363 26.9123 31.6021 26.4643 32.8114 26.18Z" fill="#87179D"/>
</svg>
