<svg id="Layer_1" data-name="Layer 1" xmlns="http://www.w3.org/2000/svg" viewBox="0 0 126.84 43.86"><defs><style>.cls-1{fill:#06c;}.cls-2{fill:#fefefe;}.cls-3{fill:#fcfcfd;}.cls-4{fill:#fbfcfd;}.cls-5{fill:#187dc1;}.cls-6{fill:#0978be;}.cls-7{fill:#fdfdfe;}.cls-8{fill:#f8fbfd;}.cls-9{fill:#f4f9fc;}</style></defs><title>50PXL W</title><path class="cls-1" d="M10,2.39h114s0,.06.06.07c2.33.54,3.29,2.42,2.81,4.79-.84,4.12-1.73,8.22-2.6,12.33q-1.12,5.31-2.26,10.63A6.34,6.34,0,0,1,115.73,35q-55.68,0-111.36,0H4A3.66,3.66,0,0,1,.14,31.9a6.3,6.3,0,0,1,.2-2.48C1.87,22.23,3.42,15.05,4.91,7.85a6.39,6.39,0,0,1,5-5.39S9.93,2.41,10,2.39ZM78.08,32.77h36.33a5.3,5.3,0,0,0,5.28-4.22q2.11-9.9,4.22-19.79a3.25,3.25,0,0,0-3.41-4.2H51.2a3.2,3.2,0,0,0-.54,0,6.2,6.2,0,0,0-4.93,4.67c-1.65,7.68-3.27,15.37-4.93,23.05-.11.51.13.47.47.47ZM16.79,26.9c.15.13.29.08.41.08h3.65a.67.67,0,0,0,.64-.33c.64-.94,1.3-1.86,1.94-2.79a.6.6,0,0,1,.56-.31q3.42,0,6.85,0c.25,0,.37.06.43.34.2.89.45,1.78.65,2.67.07.32.19.43.52.42,1.2,0,2.4,0,3.6,0,.39,0,.51-.06.4-.48q-2-7.56-3.91-15.11c-.09-.32-.23-.4-.55-.39-1.1,0-2.2,0-3.3,0a.87.87,0,0,0-.81.41Q22.67,18.72,17.44,26Zm-2.42-12c0,.28-.09.47-.13.66Q13,21,11.73,26.52c-.08.37,0,.49.38.48,1,0,2.07,0,3.11,0,.36,0,.47-.12.54-.45q.76-3.4,1.55-6.81c.63-2.76,1.25-5.51,1.89-8.26.09-.36,0-.49-.37-.48-.69,0-1.38,0-2.07,0a2.38,2.38,0,0,0-.88.08C14,11.93,12,12.76,10.1,13.58c-.25.11-.31.23-.25.48.16.71.32,1.41.45,2.12.06.34.16.39.47.25C11.93,15.91,13.11,15.41,14.37,14.87Z" transform="translate(-0.08 -2.39)"/><path class="cls-2" d="M78.08,32.77H41.27c-.34,0-.58,0-.47-.47,1.66-7.68,3.28-15.37,4.93-23.05a6.2,6.2,0,0,1,4.93-4.67,3.2,3.2,0,0,1,.54,0h69.3a3.25,3.25,0,0,1,3.41,4.2q-2.1,9.89-4.22,19.79a5.3,5.3,0,0,1-5.28,4.22Zm21-18.08a10.37,10.37,0,0,0-2.5,5.44,5.6,5.6,0,0,0,4.07,6.63,12.91,12.91,0,0,0,5.56.37,10,10,0,0,0,9.12-8.73,5.58,5.58,0,0,0-4-6.56,10.29,10.29,0,0,0-3.25-.53H81a.44.44,0,0,0-.52.41c-.32,1.46-.65,2.92-1,4.37s-.62,3.06-1.09,4.54A3.91,3.91,0,0,1,76,23.38a8.3,8.3,0,0,1-4.81.16,1.92,1.92,0,0,1-1.56-2,5.87,5.87,0,0,1,.16-1.62q.93-4.08,1.87-8.15c.08-.33.06-.48-.34-.47-1,0-2.07,0-3.1,0-.31,0-.42.1-.49.4-.59,2.66-1.21,5.31-1.81,8a10.88,10.88,0,0,0-.31,2.49,4.29,4.29,0,0,0,3.69,4.67,16.33,16.33,0,0,0,5.49.2,8.09,8.09,0,0,0,7.4-5.91c.63-1.95,1-4,1.45-6,.08-.35.2-.47.58-.47,1.44,0,2.89,0,4.33,0,.59,0,.58,0,.45.59q-1.27,5.61-2.56,11.23c-.09.38,0,.44.36.43,1,0,2,0,3,0,.51,0,.64-.17.75-.62.83-3.77,1.69-7.53,2.54-11.29,0-.21.1-.35.37-.35ZM65.13,26.94c0-.14,0-.22-.06-.3q-1.93-7.5-3.88-15a.37.37,0,0,0-.43-.33c-1.14,0-2.27,0-3.41,0a.69.69,0,0,0-.64.34L46,26.58c-.07.1-.21.18-.14.36,1.34,0,2.69,0,4,0a.52.52,0,0,0,.46-.28c.65-.93,1.31-1.85,1.95-2.79a.59.59,0,0,1,.56-.29q3.3,0,6.6,0c.34,0,.45.12.52.42.19.86.41,1.72.62,2.58,0,.19.07.37.36.36C62.35,26.93,63.71,26.94,65.13,26.94Zm53-15.28a1.64,1.64,0,1,0-1.67,1.63A1.63,1.63,0,0,0,118.13,11.66Z" transform="translate(-0.08 -2.39)"/><path class="cls-3" d="M16.79,26.9l.65-.91q5.22-7.29,10.43-14.58a.87.87,0,0,1,.81-.41c1.1,0,2.2,0,3.3,0,.32,0,.46.07.55.39Q34.47,19,36.44,26.51c.11.42,0,.49-.4.48-1.2,0-2.4,0-3.6,0-.33,0-.45-.1-.52-.42-.2-.89-.45-1.78-.65-2.67-.06-.28-.18-.34-.43-.34q-3.43,0-6.85,0a.6.6,0,0,0-.56.31c-.64.93-1.3,1.85-1.94,2.79a.67.67,0,0,1-.64.33H17.2C17.08,27,16.94,27,16.79,26.9Zm9.13-6.72h4.25c.16,0,.3,0,.24-.23-.35-1.55-.69-3.1-1.05-4.72-.12.15-.19.24-.25.33Z" transform="translate(-0.08 -2.39)"/><path class="cls-4" d="M14.37,14.87c-1.26.54-2.44,1-3.6,1.56-.31.14-.41.09-.47-.25-.13-.71-.29-1.41-.45-2.12-.06-.25,0-.37.25-.48,1.93-.82,3.85-1.65,5.78-2.49a2.38,2.38,0,0,1,.88-.08c.69,0,1.38,0,2.07,0,.4,0,.46.12.37.48-.64,2.75-1.26,5.5-1.89,8.26q-.78,3.41-1.55,6.81c-.07.33-.18.46-.54.45-1,0-2.07,0-3.11,0-.39,0-.46-.11-.38-.48Q13,21,14.24,15.53C14.28,15.34,14.32,15.15,14.37,14.87Z" transform="translate(-0.08 -2.39)"/><path class="cls-1" d="M15.28,40.64l.49,0c1.76.19,2.43,1.23,1.87,2.93a2.75,2.75,0,0,1-.81,1.27c-.23.18-.24.32,0,.49.43.31.08.47-.12.7s-.45.23-.63-.07a.82.82,0,0,0-1-.39,3.9,3.9,0,0,1-2.14-.12,1.63,1.63,0,0,1-1.2-1.8,3.12,3.12,0,0,1,3.17-3Zm-2.19,2.92a1.21,1.21,0,0,0,1.51,1.19c.2,0,.18-.08.11-.27-.13-.37.31-.42.47-.64s.24-.06.32.06c.29.43.45.17.61-.11a2.11,2.11,0,0,0,.26-.74A1.19,1.19,0,0,0,15,41.55,2,2,0,0,0,13.09,43.56Z" transform="translate(-0.08 -2.39)"/><path class="cls-1" d="M74,45.69c-.3,0-.54,0-.79-.08A1.85,1.85,0,0,1,71.52,43a2.86,2.86,0,0,1,2.21-2.21,4.67,4.67,0,0,1,2.67,0,1.6,1.6,0,0,1,1.17,1.64,3,3,0,0,1-2.48,3.06C74.73,45.63,74.35,45.65,74,45.69Zm-1.18-2.17a1.11,1.11,0,0,0,1,1.21,2,2,0,0,0,2.32-2,1.07,1.07,0,0,0-.94-1.09A2,2,0,0,0,72.84,43.52Z" transform="translate(-0.08 -2.39)"/><path class="cls-1" d="M96,40.74c.52,0,1,0,1.57,0s1,.1,1.25.68a1.53,1.53,0,0,1-.61,1.6c-.19.12-.35.17-.1.43a.89.89,0,0,1,.13.8c0,.24-.07.49-.13.72s.18.52,0,.57a4.16,4.16,0,0,1-1.22,0c-.13,0-.1-.21-.09-.34,0-.28.1-.55.13-.83a.47.47,0,0,0-.51-.57c-.47,0-1,0-1.42,0-.22,0-.29.1-.32.29s-.09.45-.13.67c-.18.83-.46,1-1.3.83-.22,0-.17-.16-.14-.28.3-1.43.61-2.85.9-4.28a.32.32,0,0,1,.37-.29C94.91,40.75,95.47,40.74,96,40.74Zm-.11,2.15h.84a.73.73,0,0,0,.66-.77c0-.48-.39-.45-.71-.46s-.79,0-1.18,0-.36.06-.42.33c-.21.93-.23.92.72.92Z" transform="translate(-0.08 -2.39)"/><path class="cls-1" d="M107.06,45.68a4.77,4.77,0,0,1-1.5-.21,1.22,1.22,0,0,1-.71-.57c-.29-.57-.11-.89.51-.89H106c.13,0,.23,0,.24.18.05.47.42.54.79.58a1.83,1.83,0,0,0,1.15-.16.56.56,0,0,0,.32-.57c0-.23-.25-.29-.44-.33-.58-.11-1.17-.19-1.75-.3s-.9-.2-1-.71a1.41,1.41,0,0,1,.43-1.39,1.47,1.47,0,0,1,.57-.38,4.81,4.81,0,0,1,3.09-.09,1.07,1.07,0,0,1,.85,1c0,.24,0,.38-.3.36a6.94,6.94,0,0,0-.79,0c-.21,0-.33,0-.42-.27-.17-.46-.64-.41-1-.42a1,1,0,0,0-1,.46c-.16.33.07.46.33.51.48.1,1,.17,1.46.26l.43.07c1.16.27,1.45,1.18.66,2.08a2.76,2.76,0,0,1-1.86.79C107.52,45.67,107.29,45.67,107.06,45.68Z" transform="translate(-0.08 -2.39)"/><path class="cls-1" d="M24.45,40.74c-.23,1.07-.45,2.07-.66,3.08a2,2,0,0,1-1.51,1.65,4.63,4.63,0,0,1-2.53.07,1.24,1.24,0,0,1-1-1.64c.18-.95.4-1.89.59-2.84,0-.23.12-.34.37-.32s.65,0,1,0c-.21,1-.42,2-.61,2.93-.13.67.12,1,.79,1.08a1.37,1.37,0,0,0,1.65-1.11c.2-.81.38-1.63.52-2.45.06-.37.21-.5.57-.46A7.83,7.83,0,0,0,24.45,40.74Z" transform="translate(-0.08 -2.39)"/><path class="cls-1" d="M61.69,40.74c-.2,1-.41,1.94-.59,2.89-.15.74.14,1.09.88,1.13a1.36,1.36,0,0,0,1.55-1.13c.2-.82.37-1.66.53-2.49.06-.29.15-.41.47-.41.93,0,.93,0,.74.89-.15.74-.31,1.47-.46,2.21a2.05,2.05,0,0,1-1.52,1.64,4.63,4.63,0,0,1-2.53.07,1.23,1.23,0,0,1-1-1.64c.17-.94.39-1.86.57-2.8.05-.28.16-.39.45-.37S61.34,40.74,61.69,40.74Z" transform="translate(-0.08 -2.39)"/><path class="cls-1" d="M84,43.9c-1.27,0-1.28,0-1.51,1.21-.07.34-.19.54-.57.46h-.24c-.61,0-.61,0-.49-.59L82,41.13c0-.27.14-.41.46-.4,1,0,1.94,0,2.91,0,1.18,0,1.64.66,1.28,1.77a1.81,1.81,0,0,1-1.82,1.38Zm.19-2.27c-1,0-1,0-1.18,1,0,.08,0,.16,0,.24s0,.17.12.16a6.44,6.44,0,0,0,1.81-.08.76.76,0,0,0,.48-.92c0-.4-.39-.37-.69-.37Z" transform="translate(-0.08 -2.39)"/><path class="cls-1" d="M86.36,45.57c1-1.6,2-3.1,3-4.62.15-.23.34-.21.55-.21,1.17,0,1.17,0,1.43,1.11s.49,2.24.77,3.36c.09.35,0,.4-.32.36h-.24c-.54.08-.93,0-.91-.69,0-.25-.15-.31-.39-.3a4.82,4.82,0,0,1-.93,0c-.66-.08-1.19.05-1.42.76a.35.35,0,0,1-.38.24C87.18,45.56,86.82,45.57,86.36,45.57Zm3.73-3.78c-.23.37-.42.65-.58,1s-.45.55-.47.93c.37,0,.75,0,1.12,0s.28-.08.24-.29C90.3,42.91,90.2,42.4,90.09,41.79Z" transform="translate(-0.08 -2.39)"/><path class="cls-1" d="M24.25,45.57c1-1.6,2-3.1,3-4.62.15-.24.34-.21.55-.21,1.17,0,1.17,0,1.43,1.11s.48,2.21.76,3.31c.11.39,0,.45-.35.41h-.2c-.54.08-.93,0-.9-.69,0-.25-.16-.31-.39-.3a4.92,4.92,0,0,1-.94,0c-.66-.08-1.19.05-1.42.76-.05.18-.19.24-.38.24C25.06,45.56,24.7,45.57,24.25,45.57ZM28,41.79c-.37.61-.68,1.12-1,1.63-.12.19-.1.29.16.28s.59,0,.88,0,.32-.07.27-.3C28.18,42.9,28.09,42.41,28,41.79Z" transform="translate(-0.08 -2.39)"/><path class="cls-1" d="M52.64,45.57c1.06-1.61,2-3.13,3-4.65a.41.41,0,0,1,.37-.18c1.32-.08,1.32-.08,1.61,1.2l.82,3.63c-.42,0-.79,0-1.17,0s-.31-.23-.31-.4c0-.54-.27-.66-.73-.6a1.69,1.69,0,0,1-.55,0c-.7-.09-1.29,0-1.54.8,0,.16-.19.2-.36.19Zm3.73-3.78c-.24.38-.42.65-.57.94s-.61.7-.44.89.73.05,1.11.08c.22,0,.24-.1.21-.27C56.58,42.92,56.48,42.41,56.37,41.79Z" transform="translate(-0.08 -2.39)"/><path class="cls-1" d="M44.84,40.76c1.52-.07,1.52-.07,2,1.27.09.24.19.48.32.81.46-.57.9-1.08,1.28-1.61a1,1,0,0,1,1-.5,7,7,0,0,0,.93,0c-.69.78-1.29,1.51-2,2.18a3.36,3.36,0,0,0-1.12,2.21c0,.35-.16.46-.52.45-.87,0-.91,0-.69-.84a2.19,2.19,0,0,0-.22-1.68C45.54,42.32,45.21,41.56,44.84,40.76Z" transform="translate(-0.08 -2.39)"/><path class="cls-1" d="M104.79,40.74c-.15.91-.15.91-1,.91-1,0-1,0-1.19,1s-.38,1.72-.55,2.59c0,.28-.14.4-.44.38s-.59,0-.95,0c.24-1.15.47-2.26.71-3.37.12-.55.12-.55-.46-.55-.26,0-.53,0-.79,0s-.44.12-.36-.2-.11-.69.39-.7Z" transform="translate(-0.08 -2.39)"/><path class="cls-1" d="M67.15,45.57c.25-1.18.49-2.32.74-3.45.08-.35,0-.52-.38-.48a5.78,5.78,0,0,1-.93,0c-.13,0-.41.1-.33-.19s-.1-.69.34-.7c1.55,0,3.11,0,4.67,0-.13.91-.13.91-1,.91s-1,0-1.15,1-.39,1.72-.55,2.59c-.06.31-.18.41-.48.39S67.48,45.57,67.15,45.57Z" transform="translate(-0.08 -2.39)"/><path class="cls-1" d="M44.54,40.74c-.14.91-.14.91-1,.91s-1,0-1.15,1-.39,1.72-.55,2.59c-.06.32-.18.41-.48.39s-.59,0-.92,0c.25-1.18.49-2.32.74-3.45.09-.36,0-.52-.38-.48a5.78,5.78,0,0,1-.93,0c-.13,0-.41.1-.33-.19s-.1-.69.34-.7C41.42,40.72,43,40.74,44.54,40.74Z" transform="translate(-0.08 -2.39)"/><path class="cls-1" d="M30.92,45.57c.33-1.57.66-3.09,1-4.62,0-.11.05-.22.21-.21.34,0,.77-.12,1,0s0,.59-.07.89c-.16.86-.34,1.71-.53,2.56-.08.32,0,.39.32.38.73,0,1.45,0,2.17,0,.27,0,.35,0,.31.35-.06.5-.24.66-.77.64C33.36,45.54,32.16,45.57,30.92,45.57Z" transform="translate(-0.08 -2.39)"/><path class="cls-1" d="M37.06,45.57c-.72,0-.72,0-.59-.61.27-1.27.55-2.53.79-3.81.07-.35.23-.43.56-.42.87,0,.87,0,.69.84-.24,1.11-.5,2.21-.7,3.32C37.72,45.41,37.58,45.75,37.06,45.57Z" transform="translate(-0.08 -2.39)"/><path class="cls-1" d="M99.06,14.69H93.43c-.27,0-.32.14-.37.35-.85,3.76-1.71,7.52-2.54,11.29-.11.45-.24.65-.75.62-1-.05-2,0-3,0-.35,0-.45-.05-.36-.43Q87.7,20.9,89,15.28c.13-.59.14-.59-.45-.59-1.44,0-2.89,0-4.33,0-.38,0-.5.12-.58.47-.47,2-.82,4-1.45,6A8.09,8.09,0,0,1,74.76,27a16.33,16.33,0,0,1-5.49-.2,4.29,4.29,0,0,1-3.69-4.67,10.88,10.88,0,0,1,.31-2.49c.6-2.66,1.22-5.31,1.81-8,.07-.3.18-.4.49-.4,1,0,2.07,0,3.1,0,.4,0,.42.14.34.47q-.94,4.07-1.87,8.15a5.87,5.87,0,0,0-.16,1.62,1.92,1.92,0,0,0,1.56,2A8.3,8.3,0,0,0,76,23.38a3.91,3.91,0,0,0,2.4-2.76c.47-1.48.73-3,1.09-4.54s.68-2.91,1-4.37A.44.44,0,0,1,81,11.3h27.11a10.29,10.29,0,0,1,3.25.53,5.58,5.58,0,0,1,4,6.56,10,10,0,0,1-9.12,8.73,12.91,12.91,0,0,1-5.56-.37,5.6,5.6,0,0,1-4.07-6.63A10.37,10.37,0,0,1,99.06,14.69Zm5.85,9.24.75-.05A5.9,5.9,0,0,0,111.4,18a2.86,2.86,0,0,0-2-3,7.12,7.12,0,0,0-2.86-.33c-3.38.18-5.54,2.09-6,5.32a3.08,3.08,0,0,0,2.43,3.7A8.59,8.59,0,0,0,104.91,23.93Z" transform="translate(-0.08 -2.39)"/><path class="cls-1" d="M65.13,26.94c-1.42,0-2.78,0-4.14,0-.29,0-.31-.17-.36-.36-.21-.86-.43-1.72-.62-2.58-.07-.3-.18-.43-.52-.42q-3.3,0-6.6,0a.59.59,0,0,0-.56.29c-.64.94-1.3,1.86-1.95,2.79a.52.52,0,0,1-.46.28c-1.35,0-2.7,0-4,0-.07-.18.07-.26.14-.36L56.71,11.64a.69.69,0,0,1,.64-.34c1.14,0,2.27,0,3.41,0a.37.37,0,0,1,.43.33q1.94,7.51,3.88,15C65.09,26.72,65.1,26.8,65.13,26.94Zm-7-11.52c-1.14,1.66-2.21,3.22-3.35,4.86h4.18c.26,0,.23-.16.2-.33C58.8,18.48,58.46,17,58.1,15.42Z" transform="translate(-0.08 -2.39)"/><path class="cls-5" d="M118.13,11.66A1.64,1.64,0,1,1,116.47,10,1.62,1.62,0,0,1,118.13,11.66Zm-2.28-1c-.06-.07-.12,0-.17,0a1.28,1.28,0,0,0,1.55,2,1.29,1.29,0,0,0,.33-1.75,1.12,1.12,0,0,0-1.72-.28Z" transform="translate(-0.08 -2.39)"/><path class="cls-6" d="M25.92,20.18l3.19-4.62c.06-.09.13-.18.25-.33.36,1.62.7,3.17,1.05,4.72.06.24-.08.23-.24.23Z" transform="translate(-0.08 -2.39)"/><path class="cls-7" d="M104.91,23.93a8.59,8.59,0,0,1-2-.24A3.08,3.08,0,0,1,100.5,20c.47-3.23,2.63-5.14,6-5.32a7.12,7.12,0,0,1,2.86.33,2.86,2.86,0,0,1,2,3,5.9,5.9,0,0,1-5.74,5.86Z" transform="translate(-0.08 -2.39)"/><path class="cls-3" d="M58.1,15.42c.36,1.6.7,3.06,1,4.53,0,.17.06.33-.2.33H54.75C55.89,18.64,57,17.08,58.1,15.42Z" transform="translate(-0.08 -2.39)"/><path class="cls-8" d="M115.84,10.67a1.12,1.12,0,0,1,1.72.28,1.29,1.29,0,0,1-.33,1.75,1.28,1.28,0,0,1-1.55-2s.11-.08.17,0c0,.5,0,1,0,1.51,0,.15-.06.36.21.35s.14-.2.17-.33-.08-.34.09-.39.29.17.36.33a.64.64,0,0,1,.06.18c.06.16.16.26.33.21s0-.24,0-.35-.37-.37-.11-.69.11-.69-.34-.76A3.77,3.77,0,0,1,115.84,10.67Z" transform="translate(-0.08 -2.39)"/><path class="cls-5" d="M115.84,10.67a3.77,3.77,0,0,0,.82.05c.45.07.62.41.34.76s.13.45.11.69.23.26,0,.35-.27,0-.33-.21a.64.64,0,0,0-.06-.18c-.07-.16-.13-.39-.36-.33s-.06.26-.09.39.07.32-.17.33-.21-.2-.21-.35c0-.5,0-1,0-1.51Zm.88.57c0-.17-.13-.24-.3-.25s-.18.08-.18.21,0,.27.17.27S116.69,11.42,116.72,11.24Z" transform="translate(-0.08 -2.39)"/><path class="cls-9" d="M116.72,11.24c0,.18-.15.23-.31.23s-.16-.15-.17-.27,0-.22.18-.21S116.7,11.07,116.72,11.24Z" transform="translate(-0.08 -2.39)"/></svg>