
<svg width="187" height="97" viewBox="0 0 187 97" fill="none" xmlns="http://www.w3.org/2000/svg">
    <g clip-path="url(#clip0_225_597)">
        <path d="M9.04519 31.0549C8.05832 31.0549 8.09655 31.0549 7.74906 32.0905L6.19232 36.646C5.43132 38.8942 5.58074 39.0054 6.99154 39.2L8.09307 39.3912C8.36064 39.6622 8.31894 40.3502 8.0201 40.4892C6.80042 40.4162 5.54947 40.4162 3.98578 40.378C2.73483 40.378 1.54642 40.4197 0.215548 40.4892C-0.0450673 40.3085 -0.0867657 39.7282 0.177324 39.3912L1.31708 39.2C2.42209 39.0437 2.84255 38.7136 3.40895 37.4487C3.86416 36.4618 4.47574 34.8599 5.27495 32.8132L10.4838 19.2578C10.9772 18.0416 11.3247 17.1312 11.217 16.4883C12.5374 16.2207 13.7988 14.6605 13.8753 14.6605C14.181 14.6605 14.3722 14.7682 14.5251 14.9628C15.1262 16.669 15.6231 18.462 16.2382 20.1717L21.7146 36.1178C22.5867 38.6753 22.7813 38.9359 24.7168 39.2869L25.2902 39.3912C25.596 39.6622 25.596 40.3085 25.3249 40.4892C23.7682 40.4162 22.3574 40.378 20.3837 40.378C18.7435 40.378 17.0687 40.451 15.7413 40.4892C15.4285 40.3085 15.3903 39.6135 15.6231 39.3912L16.4606 39.2869C17.8262 39.1236 17.9443 38.8977 17.4509 37.2576L15.6613 32.0939C15.2756 31.0584 15.1644 31.0584 14.1011 31.0584H9.03824L9.04519 31.0549ZM13.6112 29.3488C14.671 29.3488 14.8308 29.2689 14.532 28.3515L12.9301 23.7855C12.2768 21.7771 12.0509 21.0508 11.8564 20.7832H11.7938C11.6374 21.0508 11.3316 22.0064 10.6436 23.7855L9.04866 28.2438C8.63168 29.3488 8.74287 29.3488 9.66024 29.3488H13.6146H13.6112Z" fill="#4C4D4E"/>
        <path d="M30.8844 25.3839C30.8844 25.9191 30.9643 26.072 31.1902 26.072C32.4099 25.3457 33.6643 24.8558 35.1932 24.8558C39.6411 24.8558 42.4557 28.1673 42.4557 32.3823C42.4557 37.7927 38.4214 40.9131 33.4315 40.9131C30.6238 40.9131 28.8377 39.8846 28.3825 39.8846C27.9273 39.8846 27.6528 40.2286 27.42 40.4892C27.347 40.5274 27.2705 40.5274 27.1628 40.5274C27.0065 40.5274 26.7736 40.378 26.7736 40.2599C26.7736 40.1104 26.8918 38.0915 26.8918 36.6842V19.5253C26.8918 16.9817 26.8501 16.7072 26.0231 16.2207L25.4845 15.8698C25.2551 15.7203 25.2169 15.1088 25.4845 15.0045C26.93 14.5806 28.9107 13.7744 30.4744 13.1698C30.7037 13.1316 30.9296 13.2949 31.0095 13.479C30.9296 15.0045 30.8879 17.3605 30.8879 18.9937V25.3839H30.8844ZM30.8844 34.29C30.8844 35.9649 31.1138 37.2923 31.7184 38.0915C32.257 38.8178 33.1744 39.3911 34.2689 39.3911C36.8195 39.3911 38.2268 36.99 38.2268 33.7584C38.2268 29.3105 35.8743 26.9129 33.1743 26.9129C32.4099 26.9129 31.6072 27.177 31.3014 27.4028C30.9643 27.6322 30.8844 28.136 30.8844 29.4183V34.29Z" fill="#4C4D4E"/>
        <path d="M49.1521 31.3642C48.4328 31.3642 48.3528 31.399 48.3528 31.8611C48.3528 35.2839 50.7088 38.022 54.0933 38.022C55.6188 38.022 56.8732 37.5251 57.7593 36.1143C58.1311 35.9997 58.5516 36.3854 58.5829 36.7259C57.2972 39.7664 54.4895 40.9131 52.1578 40.9131C47.7447 40.9131 44.8154 37.6363 44.8154 33.3032C44.8154 28.97 47.7447 24.8593 52.8424 24.8593C55.6605 24.8593 58.5551 26.6801 58.5551 29.9916C58.5551 30.3322 58.5099 30.565 58.35 30.8638C58.1311 31.2078 57.252 31.3642 55.7369 31.3642H49.1555H49.1521ZM52.6478 29.8387C53.7563 29.8387 54.2497 29.7206 54.5173 29.5712C54.7362 29.4148 54.8891 29.1194 54.8891 28.765C54.8891 27.3994 54.0273 26.2944 52.3872 26.2944C49.8297 26.2944 48.6552 28.765 48.6552 29.5712C48.6552 29.7206 48.7281 29.8387 49.1903 29.8387H52.6478Z" fill="#4C4D4E"/>
        <path d="M61.8143 30.2695C61.8143 28.539 61.8143 28.0804 60.8692 27.514L60.4139 27.2568C60.3028 27.1005 60.3028 26.5618 60.4452 26.3707C62.0888 25.8425 64.1008 24.9982 65.2405 24.3206C65.4699 24.3206 65.7027 24.4318 65.7722 24.6611C65.734 25.3839 65.7027 26.0302 65.7027 26.3707C65.7027 26.6348 65.8521 26.8294 66.078 26.8294C67.2594 25.992 68.5139 24.8557 69.803 24.8557C71.0922 24.8557 71.8984 25.7314 71.8984 26.7113C71.8984 28.1985 70.7969 28.9317 69.7752 28.9317C69.3965 28.9317 69.0525 28.8136 68.7397 28.6155C67.7911 27.9692 67.1413 27.8962 66.9119 27.8962C66.0432 27.8962 65.8139 28.7649 65.8139 30.6344V35.8502C65.8139 38.6683 65.9633 39.0783 67.2977 39.2382L68.7849 39.3876C69.0525 39.6586 69.0108 40.3432 68.705 40.4856C66.4255 40.4092 65.1363 40.371 63.722 40.371C62.4676 40.371 61.2027 40.4092 59.7641 40.4856C59.4688 40.3432 59.4306 39.6586 59.6912 39.3876L60.3792 39.2833C61.6614 39.0783 61.8178 38.6683 61.8178 35.8536V30.2695H61.8143Z" fill="#4C4D4E"/>
        <path d="M84.7625 25.3839C85.2594 25.8426 85.5235 26.4507 85.5235 27.3298C85.5235 28.5391 84.8806 29.1194 84.5714 29.1194C84.3073 29.1194 84.1162 29.0429 83.8486 28.6989C83.0112 27.5939 81.8714 26.3742 80.3876 26.3742C78.2263 26.3742 75.978 28.5009 75.978 32.0939C75.978 35.1587 77.9517 38.0915 81.4127 38.0915C83.8903 38.0915 84.7625 37.1811 85.5235 36.0795C85.864 36.0483 86.2845 36.3089 86.3227 36.771C84.9536 39.8498 82.0243 40.9166 79.6197 40.9166C77.6077 40.9166 75.6201 40.1139 74.3379 38.8594C73.0035 37.5633 72.1313 35.5896 72.1313 33.3796C72.1313 28.9387 75.363 24.8627 81.4892 24.8627C82.5907 24.8627 83.7027 25.0086 84.7625 25.3874" fill="#4C4D4E"/>
        <path d="M89.5543 30.2695C89.5543 28.539 89.5543 28.0804 88.6091 27.514L88.147 27.2568C88.0323 27.1005 88.0323 26.5618 88.1817 26.3707C89.8219 25.8425 91.8408 24.9982 92.977 24.3206C93.1994 24.3206 93.4392 24.4318 93.5122 24.6611C93.4739 25.3839 93.4392 26.0302 93.4392 26.3707C93.4392 26.6348 93.5886 26.8294 93.811 26.8294C94.9925 25.992 96.2504 24.8557 97.5361 24.8557C98.8218 24.8557 99.6314 25.7314 99.6314 26.7113C99.6314 28.1985 98.5334 28.9317 97.5048 28.9317C97.133 28.9317 96.7785 28.8136 96.4797 28.6155C95.5311 27.9692 94.8778 27.8962 94.6485 27.8962C93.7763 27.8962 93.5539 28.7649 93.5539 30.6344V35.8502C93.5539 38.6683 93.7068 39.0783 95.0376 39.2382L96.5214 39.3876C96.782 39.6586 96.7507 40.3432 96.445 40.4856C94.162 40.4092 92.8693 40.371 91.4585 40.371C90.211 40.371 88.9462 40.4092 87.5111 40.4856C87.2018 40.3432 87.1636 39.6586 87.4277 39.3876L88.1192 39.2833C89.4014 39.0783 89.5578 38.6683 89.5578 35.8536V30.2695H89.5543Z" fill="#4C4D4E"/>
        <path d="M116.224 32.6847C116.224 38.0881 112.419 40.9131 107.898 40.9131C103.377 40.9131 99.8677 38.1263 99.8677 33.1503C99.8677 28.1743 103.753 24.8593 108.197 24.8593C112.499 24.8593 116.227 27.7538 116.227 32.6847M108.353 39.3911C110.977 39.3911 111.734 36.2672 111.734 33.3414C111.734 30.1445 110.636 26.3743 107.822 26.3778C105.879 26.3778 104.357 28.355 104.357 32.5839C104.357 36.0518 105.612 39.3946 108.353 39.3946" fill="#4C4D4E"/>
        <path d="M119.237 30.2661C119.237 28.5391 119.237 28.0804 118.285 27.5175L117.822 27.2569C117.711 27.1005 117.711 26.5619 117.864 26.3708C119.542 25.9225 121.589 25.0052 122.816 24.3241C123.08 24.3241 123.226 24.4805 123.309 24.6299C123.229 25.3492 123.229 26.0754 123.229 26.3708C123.229 26.6418 123.344 26.7183 123.573 26.7565C125.439 25.7696 126.433 24.8592 129.015 24.8592C130.648 24.8592 131.916 25.7349 132.441 26.4507C132.667 26.7982 132.896 27.0275 133.049 27.0275C133.202 27.0275 133.428 26.9094 133.89 26.6418C135.673 25.5438 136.969 24.8592 138.755 24.8592C141.952 24.8592 143.397 26.9824 143.397 29.9603V35.8572C143.397 38.6753 143.547 39.0853 144.846 39.2869L145.687 39.3911C146.021 39.6622 145.833 40.3502 145.687 40.4892C144.044 40.4162 142.751 40.3815 141.347 40.3815C140.093 40.3815 138.786 40.4162 137.424 40.4892C137.118 40.3502 137.077 39.6622 137.351 39.3911L137.966 39.2869C139.255 39.0819 139.412 38.6718 139.412 35.8572V30.6831C139.412 28.6677 138.72 27.1387 136.319 27.1387C135.221 27.1387 134.227 27.7121 133.776 28.282C133.4 28.7407 133.317 29.1993 133.317 30.2731V35.8572C133.317 38.6753 133.47 39.0853 134.766 39.3147L135.339 39.3946C135.6 39.6656 135.565 40.3537 135.249 40.4927C133.928 40.4197 132.671 40.3849 131.26 40.3849C130.009 40.3849 128.716 40.4197 127.462 40.4927C127.145 40.3537 127.114 39.6656 127.382 39.3946L127.872 39.3147C129.178 39.0853 129.328 38.6753 129.328 35.8572V30.6831C129.328 28.6677 128.64 27.1387 126.437 27.1387C125.137 27.1387 124.147 27.7607 123.737 28.3237C123.271 28.9387 123.233 29.2688 123.233 30.7561V35.8572C123.233 38.6753 123.389 39.0853 124.682 39.3147L125.255 39.3946C125.512 39.6656 125.481 40.3537 125.175 40.4927C123.841 40.4197 122.552 40.3849 121.148 40.3849C119.893 40.3849 118.629 40.4197 117.183 40.4927C116.881 40.3537 116.853 39.6656 117.11 39.3946L117.795 39.2904C119.087 39.0853 119.244 38.6753 119.244 35.8607V30.2765L119.237 30.2661Z" fill="#4C4D4E"/>
        <path d="M151.386 25.3839C151.386 25.9191 151.459 26.072 151.685 26.072C152.911 25.3457 154.159 24.8558 155.681 24.8558C160.132 24.8558 162.957 28.1673 162.957 32.3823C162.957 37.7927 158.92 40.9131 153.937 40.9131C151.122 40.9131 149.329 39.8846 148.874 39.8846C148.418 39.8846 148.158 40.2251 147.925 40.4857C147.845 40.5239 147.772 40.5239 147.657 40.5239C147.508 40.5239 147.272 40.3745 147.272 40.2564C147.272 40.107 147.39 38.0881 147.39 36.6807V19.5253C147.39 16.9817 147.348 16.7072 146.514 16.2207L145.986 15.8698C145.757 15.7203 145.722 15.1088 145.986 15.0045C147.428 14.5806 149.405 13.7744 150.972 13.1698C151.195 13.1316 151.424 13.2949 151.501 13.479C151.424 15.0045 151.393 17.3605 151.393 18.9937V25.3839H151.386ZM151.386 34.29C151.386 35.9649 151.612 37.2923 152.22 38.0915C152.752 38.8178 153.666 39.3877 154.76 39.3877C157.318 39.3877 158.721 36.9865 158.721 33.7549C158.721 29.3071 156.365 26.9094 153.666 26.9094C152.908 26.9094 152.105 27.1735 151.803 27.3994C151.459 27.6287 151.386 28.1326 151.386 29.4183V34.29Z" fill="#4C4D4E"/>
        <path d="M169.949 35.8537C169.949 38.6718 170.102 39.0784 171.387 39.2799L172.075 39.3842C172.339 39.6587 172.298 40.3432 172.006 40.4822C170.592 40.4092 169.292 40.371 167.892 40.371C166.637 40.371 165.341 40.4058 163.896 40.4822C163.59 40.3432 163.548 39.6552 163.816 39.3842L164.504 39.2799C165.793 39.0784 165.949 38.6683 165.949 35.8537V30.2696C165.949 28.5426 165.949 28.0839 164.994 27.5175L164.538 27.2603C164.424 27.104 164.424 26.5654 164.58 26.3708C166.561 25.8078 168.465 24.9669 169.525 24.3241C169.751 24.3588 169.945 24.4353 170.063 24.6299C169.987 25.8843 169.945 27.7086 169.945 29.2653V35.8537H169.949ZM165.494 17.4369C165.494 16.0608 166.495 15.0288 167.937 15.0288C169.379 15.0288 170.366 16.0574 170.366 17.4369C170.366 18.8164 169.375 19.8311 167.937 19.8311C166.498 19.8311 165.494 18.799 165.494 17.4369Z" fill="#4C4D4E"/>
        <path d="M177.552 31.3607C176.833 31.3607 176.763 31.3954 176.763 31.8576C176.763 35.2803 179.119 38.022 182.504 38.022C184.029 38.022 185.287 37.5251 186.159 36.1178C186.548 35.9996 186.958 36.3853 187 36.7259C185.7 39.7629 182.886 40.9131 180.565 40.9131C176.151 40.9131 173.222 37.6363 173.222 33.2996C173.222 28.963 176.155 24.8557 181.242 24.8557C184.064 24.8557 186.958 26.6765 186.958 29.9881C186.958 30.3286 186.91 30.5649 186.771 30.8603C186.548 31.2043 185.655 31.3607 184.147 31.3607H177.552ZM181.061 29.8387C182.163 29.8387 182.663 29.724 182.921 29.5711C183.146 29.4147 183.299 29.1159 183.299 28.7684C183.299 27.3993 182.424 26.2943 180.794 26.2943C178.243 26.2943 177.062 28.7684 177.062 29.5711C177.062 29.7205 177.135 29.8387 177.597 29.8387H181.061Z" fill="#4C4D4E"/>
        <path d="M50.9834 59.5871C50.9834 61.745 49.253 62.4365 48.2765 63.0063C50.49 64.4519 51.5846 65.7654 53.1101 68.1248C54.0274 66.8878 55.0351 64.9418 55.8726 63.0932C56.3591 61.9951 56.4668 61.7137 55.6745 61.5677L54.8371 61.4322C54.5765 61.1681 54.6286 60.7338 54.917 60.6191H56.505C57.9749 60.6191 60.6818 60.5079 61.3386 60.4454C61.5401 60.56 61.62 61.0222 61.3941 61.2515L60.0737 61.5399C58.583 61.8562 57.9749 62.6901 56.995 64.3511C56.3104 65.5048 55.2714 67.0684 54.0101 68.865C53.8398 69.129 53.8676 69.3862 54.0587 69.6989C55.2714 71.5997 56.5954 72.7881 58.6386 72.7881C59.4447 72.7881 60.3552 72.4406 60.9667 72.0028C61.2517 72.034 61.4497 72.3224 61.3698 72.6074C59.959 74.1294 57.888 74.6749 56.4459 74.6749C55.1012 74.6749 53.6348 74.3031 53.0892 73.761C52.6827 73.3475 52.078 72.4649 51.7132 71.8533C49.8124 73.7923 47.9673 74.6749 45.7538 74.6749C41.6117 74.6749 40.0098 71.829 39.9473 69.5321C40.0098 66.5333 42.1886 64.8411 44.3499 63.7152C43.9156 63.3434 42.338 62.1967 42.338 60.1882C42.338 57.596 44.4298 55.8655 46.8206 55.8655C49.385 55.8655 50.9973 57.596 50.9973 59.5766M45.3403 64.5005C45.2047 64.5005 44.9163 64.6743 44.687 64.848C43.7036 65.5395 42.9287 67.0059 42.9287 68.4341C42.9287 70.8561 44.9476 72.5553 47.4391 72.5553C48.7039 72.5553 49.8854 72.041 50.7784 71.2313C51.2093 70.8561 51.2093 70.6858 50.8688 70.1472C50.1773 69.0491 49.3711 67.9545 48.5406 67.0372C47.1889 65.543 45.4932 64.504 45.3403 64.504M44.8538 59.1249C44.8538 60.3342 45.5453 61.1855 46.8067 62.1098C46.9734 62.2349 47.2097 62.3774 47.2758 62.3774C47.3592 62.3774 47.4982 62.2558 47.5642 62.2314C48.0993 61.6199 48.5093 60.6677 48.5093 59.4724C48.5093 57.9712 47.79 56.9114 46.6955 56.9114C45.6912 56.9114 44.8538 57.7975 44.8538 59.1249Z" fill="#4C4D4E"/>
        <path d="M82.58 49.1694C85.0159 49.1694 87.1529 49.1347 87.9417 49.0513C87.9417 49.8887 87.9417 52.7451 88.0182 54.5381C87.8653 54.8404 87.1807 54.9168 86.802 54.6875C86.4163 52.481 85.8151 51.376 84.3765 51.0007C83.3445 50.7331 82.3924 50.6914 81.1762 50.6914H79.2337C77.6388 50.6914 77.6388 50.7644 77.6388 52.8979V59.7156C77.6388 60.6573 77.67 60.7338 78.5422 60.7338H80.7939C84.1055 60.7338 84.7136 60.6608 85.0507 59.0589L85.3669 57.7732C85.5962 57.5126 86.319 57.5126 86.5031 57.8079C86.4614 58.7948 86.3885 60.2056 86.3885 61.6164C86.3885 63.0272 86.4614 64.3928 86.5031 65.5708C86.3155 65.8731 85.5962 65.8731 85.3669 65.6021L85.0507 64.1218C84.7136 62.5233 84.109 62.4538 80.7939 62.4538H78.5422C77.67 62.4538 77.6388 62.5233 77.6388 63.4824V68.8059C77.6388 72.8437 77.9793 72.9549 79.7654 73.1112L81.3603 73.2989C81.6349 73.5699 81.5897 74.251 81.2874 74.4004C78.8515 74.3275 77.1314 74.2892 75.467 74.2892C73.8025 74.2892 72.0755 74.324 70.3276 74.4004C70.0253 74.251 69.9906 73.5699 70.2477 73.2989L71.0921 73.1877C72.8782 72.9584 73.2257 72.8472 73.2257 68.8059V54.6597C73.2257 50.6184 72.8782 50.5107 71.0921 50.2327L70.5883 50.1667C70.3276 49.8922 70.3624 49.2181 70.6717 49.0547C72.013 49.1416 73.7191 49.1729 75.3905 49.1729H82.58V49.1694Z" fill="#4C4D4E"/>
        <path d="M94.7978 69.7545C94.7978 72.5692 94.9507 72.9896 96.2399 73.1877L96.921 73.2954C97.1955 73.5664 97.1538 74.2475 96.848 74.3969C95.4511 74.3205 94.1515 74.2857 92.7407 74.2857C91.4932 74.2857 90.1902 74.3205 88.7516 74.3969C88.4353 74.2475 88.4075 73.5664 88.6751 73.2954L89.3597 73.1877C90.6558 72.9896 90.8052 72.5692 90.8052 69.7545V64.1704C90.8052 62.4503 90.8052 61.9917 89.86 61.4218L89.4014 61.1612C89.2867 61.0083 89.2867 60.4697 89.4361 60.2786C91.4168 59.7122 93.3175 58.8782 94.3808 58.2284C94.6032 58.2701 94.8013 58.3431 94.916 58.5377C94.8361 59.7921 94.8048 61.6164 94.8048 63.1766V69.758L94.7978 69.7545ZM90.35 51.3412C90.35 49.9652 91.3403 48.9401 92.7789 48.9401C94.2175 48.9401 95.2183 49.9617 95.2183 51.3412C95.2183 52.7207 94.228 53.7389 92.7789 53.7389C91.3299 53.7389 90.35 52.7033 90.35 51.3412Z" fill="#4C4D4E"/>
        <path d="M104.795 60.963C104.111 60.963 104.083 61.0395 104.083 62.2592V68.1282C104.083 70.5189 104.416 72.649 106.856 72.649C107.617 72.649 108.075 72.3884 108.687 71.9645C109.021 72.0027 109.25 72.305 109.177 72.7255C108.409 73.7888 106.665 74.8208 104.347 74.8208C100.73 74.8208 100.08 72.7289 100.08 70.0602V62.3356C100.08 61.0082 100.007 60.963 99.3987 60.963H98.0609C97.6822 60.7719 97.6092 60.1603 97.9567 59.938C99.2458 59.448 100.128 58.9441 100.966 58.3395C101.692 57.8044 102.526 57.0052 103.051 55.9801C103.395 55.7542 103.93 55.8689 104.114 56.1642V58.4507C104.114 59.0553 104.114 59.1665 104.847 59.1665H108.611C108.833 59.2882 108.916 59.5939 108.916 59.9762C108.875 60.4349 108.722 60.7719 108.413 60.963H104.799H104.795Z" fill="#4C4D4E"/>
        <path d="M122.913 59.2882C123.403 59.7469 123.677 60.3515 123.677 61.2341C123.677 62.4468 123.031 63.0167 122.729 63.0167C122.458 63.0167 122.273 62.9403 121.995 62.5997C121.168 61.4947 120.022 60.2716 118.545 60.2716C116.377 60.2716 114.125 62.3982 114.125 65.9877C114.125 69.0595 116.106 71.9888 119.567 71.9888C122.037 71.9888 122.913 71.0819 123.677 69.9803C124.018 69.9386 124.438 70.2062 124.477 70.6684C123.104 73.7367 120.171 74.8104 117.78 74.8104C115.755 74.8104 113.777 74.0112 112.488 72.7533C111.15 71.4572 110.285 69.4765 110.285 67.2734C110.285 62.8256 113.513 58.7531 119.639 58.7531C120.741 58.7531 121.846 58.899 122.909 59.2847" fill="#4C4D4E"/>
        <path d="M132.003 59.9345C132.003 60.3932 132.09 60.5774 132.351 60.5774C133.678 59.594 135.318 58.7565 137.223 58.7565C140.489 58.7565 142.094 60.8449 142.094 64.08V69.751C142.094 72.5657 142.233 72.9861 143.54 73.1807L144.409 73.2919C144.742 73.5595 144.711 74.244 144.329 74.3934C142.734 74.317 141.441 74.2823 140.027 74.2823C138.776 74.2823 137.487 74.317 136.152 74.3934C135.84 74.244 135.808 73.5595 136.072 73.2919L136.646 73.2155C137.938 72.9896 138.091 72.5691 138.091 69.7545V64.3893C138.091 62.5581 137.289 61.0395 135.051 61.0395C133.796 61.0395 132.917 61.6511 132.452 62.148C132.042 62.6067 132 63.1731 132 64.6603V69.7545C132 72.5691 132.153 72.9896 133.456 73.2155L134.015 73.2919C134.286 73.5595 134.245 74.244 133.942 74.3934C132.611 74.317 131.319 74.2823 129.915 74.2823C128.692 74.2823 127.399 74.317 125.804 74.3934C125.498 74.244 125.464 73.5595 125.731 73.2919L126.562 73.1807C127.858 72.9861 128.007 72.5657 128.007 69.751V53.433C128.007 50.8755 127.969 50.6115 127.135 50.1215L126.607 49.781C126.378 49.6315 126.336 49.0165 126.607 48.9053C128.087 48.4883 130.023 47.6856 131.583 47.081C131.809 47.0428 132.042 47.1991 132.115 47.3868C132.042 48.9053 132 51.2613 132 52.9014V59.9415L132.003 59.9345Z" fill="#4C4D4E"/>
        <path d="M66.1094 7.22431V0.10083H70.8282V1.24406H67.4715V2.94327H69.9074V4.08998H67.4715V6.08108H70.936V7.22431H66.1094Z" fill="#4C4D4E"/>
        <path d="M76.6347 1.99463C76.4262 1.44213 76.0022 1.06684 75.3594 1.06684C74.7687 1.06684 74.3412 1.30313 74.3412 1.85216C74.3412 3.07879 78.0142 2.82165 78.0142 5.13244C78.0142 6.59188 77.0968 7.3216 75.5158 7.3216C74.3482 7.3216 73.2571 6.6718 72.854 5.63282L73.9764 5.13939C74.303 5.81004 74.727 6.25482 75.5262 6.25482C76.2107 6.25482 76.732 6.00115 76.732 5.30618C76.732 3.90581 73.059 4.1838 73.059 1.99116C73.059 0.719355 74.1258 -0.00341797 75.3594 -0.00341797C76.5026 -0.00341797 77.4513 0.569935 77.8717 1.60545L76.6312 1.99116L76.6347 1.99463Z" fill="#4C4D4E"/>
        <path d="M85.0092 0.090332V1.23356H83.1432V7.22423H81.781V1.23356H79.915V0.090332H85.0092Z" fill="#4C4D4E"/>
        <path d="M87.6673 5.82385H86.3052V7.22422H87.6673V5.82385Z" fill="#4C4D4E"/>
        <path d="M95.3224 7.22425V6.23739H96.4309V1.32392H95.166V0.493431C95.8158 0.465632 96.3961 0.319688 96.7158 0H97.7131V6.23739H98.8111V7.22425H95.3259H95.3224Z" fill="#4C4D4E"/>
        <path d="M105.327 3.43317C106.192 3.80845 106.755 4.40266 106.755 5.38604C106.755 6.5536 105.622 7.32155 104.107 7.32155C102.592 7.32155 101.463 6.5536 101.463 5.38604C101.463 4.39918 102.026 3.80845 102.895 3.43317C102.193 3.06136 101.73 2.6131 101.73 1.77566C101.734 0.691499 102.658 0 104.107 0C105.556 0 106.491 0.688024 106.491 1.77566C106.491 2.6131 106.025 3.06136 105.327 3.43317ZM105.473 5.29917C105.473 4.6598 104.34 4.00652 104.024 4.00652C103.708 4.00652 102.749 4.5764 102.749 5.29917C102.749 5.92117 103.214 6.33468 104.111 6.33468C105.007 6.33468 105.476 5.9177 105.476 5.29917M103.016 1.79651C103.016 2.44631 103.746 2.88067 104.107 2.88067C104.469 2.88067 105.205 2.31079 105.205 1.79651C105.205 1.32392 104.906 0.986862 104.1 0.986862C103.294 0.986862 103.016 1.32392 103.016 1.79651Z" fill="#4C4D4E"/>
        <path d="M109.483 5.7648C109.781 6.01847 110.174 6.25476 110.685 6.25476C111.654 6.25476 112.44 5.28875 112.464 4.08644C111.998 4.48953 111.519 4.65632 110.862 4.65632C109.608 4.65632 108.683 3.71116 108.673 2.34901C108.683 0.858292 109.757 0 111.185 0C112.613 0 113.746 1.06678 113.746 3.23858C113.746 5.72311 112.62 7.32155 110.685 7.32155C109.997 7.32155 109.462 7.12348 108.92 6.78642L109.479 5.76133L109.483 5.7648ZM111.178 3.59301C111.752 3.59301 112.186 3.31502 112.464 2.78337C112.464 1.58106 111.783 1.06678 111.091 1.06678C110.4 1.06678 109.948 1.56022 109.959 2.30036C109.948 3.08916 110.382 3.59301 111.182 3.59301" fill="#4C4D4E"/>
        <path d="M116.088 7.22419V6.04969C116.304 4.93773 119.605 3.35666 119.605 2.05359C119.605 1.43159 119.198 1.0702 118.545 1.0702C117.836 1.0702 117.423 1.54278 117.263 2.19606L116.12 1.94934C116.266 0.85476 117.294 0.00341797 118.566 0.00341797C119.838 0.00341797 120.884 0.72619 120.884 2.05706C120.884 3.79797 119.285 4.50685 117.51 6.12613H120.884V7.23114H116.088V7.22419Z" fill="#4C4D4E"/>
        <path d="M58.3813 96.6847V89.5577H59.7991L62.6033 94.4156H62.6242V89.5577H63.9064V96.6847H62.5964L59.681 91.6114H59.6636V96.6847H58.3813Z" fill="#4C4D4E"/>
        <path d="M68.6182 96.6847V89.5577H73.337V90.7044H69.9803V92.4002H72.4197V93.5469H69.9803V95.5415H73.4448V96.6847H68.6182Z" fill="#4C4D4E"/>
        <path d="M77.1006 89.5577H78.3759L79.2724 94.3635H79.2932L80.3079 89.5577H81.7152L82.6499 94.3635H82.6708L83.6472 89.5577H84.919L83.4387 96.6847H82.0592L81.0202 91.6114H81.0029L79.9743 96.6847H78.5948L77.1006 89.5577Z" fill="#4C4D4E"/>
        <path d="M97.0497 92.3828L98.2763 89.5577H99.6975L97.7342 93.8422V96.6847H96.3686V93.8422L94.4053 89.5577H95.823L97.0497 92.3828Z" fill="#4C4D4E"/>
        <path d="M106.164 96.7855C104.222 96.7855 103.176 95.4512 103.176 93.123C103.176 90.7949 104.222 89.464 106.164 89.464C108.107 89.464 109.153 90.7949 109.153 93.123C109.153 95.4512 108.107 96.7855 106.164 96.7855ZM106.164 90.6037C105.049 90.6037 104.534 91.4551 104.534 93.1196C104.514 94.7875 105.038 95.6388 106.164 95.6388C107.29 95.6388 107.794 94.7875 107.794 93.1196C107.794 91.4516 107.28 90.6037 106.164 90.6037Z" fill="#4C4D4E"/>
        <path d="M113.315 96.6847V89.5577H116.158C117.777 89.5577 118.43 90.496 118.437 91.6739C118.448 92.5496 118.003 93.2619 117.134 93.5087L118.705 96.6847H117.197L115.852 93.7832H114.678V96.6847H113.315ZM114.678 92.6782H115.685C116.752 92.6782 117.075 92.3411 117.075 91.6739C117.075 91.0068 116.672 90.6662 115.922 90.6662H114.678V92.6782Z" fill="#4C4D4E"/>
        <path d="M122.982 96.6847V89.5577H124.341V92.7477H124.327L126.725 89.5577H128.292L126.27 92.2334L128.619 96.6847H127.111L125.342 93.3002L124.341 94.5442V96.6847H122.982Z" fill="#4C4D4E"/>
    </g>
    <defs>
        <clipPath id="clip0_225_597">
            <rect width="187" height="96.7855" fill="white"/>
        </clipPath>
    </defs>
</svg>
