<svg width="187" height="34" viewBox="0 0 187 34" fill="none" xmlns="http://www.w3.org/2000/svg">
    <g clip-path="url(#clip0_234_1406)">
        <path fill-rule="evenodd" clip-rule="evenodd" d="M150.073 1.35132V0H171.239C174.167 0.1125 177.318 0.225 179.908 1.91382C180.814 2.55805 181.538 3.42477 182.012 4.43042C182.485 5.43607 182.691 6.54672 182.611 7.65529C182.678 8.58135 182.529 9.51034 182.178 10.3697C181.826 11.2291 181.281 11.9955 180.584 12.6093C178.404 14.2424 175.764 15.1481 173.04 15.1981V15.6481C175.698 15.8063 178.195 16.9744 180.021 18.9132C181.334 20.5894 182.083 22.6388 182.159 24.7672C182.066 26.1596 182.141 27.5581 182.384 28.9323C182.497 29.3823 182.722 29.9462 183.178 30.0587C184.192 30.2837 184.867 29.3837 185.428 28.5948C185.766 27.8007 186.442 28.8198 187.005 28.9323C186.892 29.4948 186.33 29.9462 185.991 30.3962C184.895 31.5005 183.572 32.3542 182.115 32.8985C180.657 33.4427 179.099 33.6646 177.547 33.5488C176.292 33.5306 175.059 33.2221 173.944 32.6475C172.851 32.0107 171.905 31.15 171.167 30.1217C170.43 29.0934 169.919 27.9209 169.667 26.681C169.104 24.5422 169.554 22.4034 169.217 20.2632C169.283 18.9132 168.929 17.5758 168.203 16.4356C167.189 15.4218 165.614 15.8731 164.375 15.7606V31.5238H168.315V32.8751H149.961V31.6323H153.676V1.23882C152.437 1.35132 151.313 1.35132 150.073 1.35132ZM164.259 1.35132V14.5231C165.315 14.6166 166.379 14.5407 167.411 14.2981C167.833 14.135 168.203 13.8603 168.48 13.5034C168.758 13.1464 168.933 12.7207 168.988 12.2718C169.38 10.0445 169.493 7.77704 169.325 5.52176C169.387 4.78184 169.253 4.03874 168.937 3.36693C168.62 2.69513 168.133 2.11825 167.524 1.69412C166.485 1.29313 165.358 1.17663 164.259 1.35662V1.35132ZM115.96 1.35132V0H144.444C144.444 3.82764 144.669 7.76779 144.669 11.5954H143.093C142.412 8.53731 140.892 5.72978 138.703 3.48882C137.625 2.4913 136.306 1.79277 134.875 1.4625C133.457 1.27827 132.027 1.20305 130.597 1.2375V15.6494C131.357 15.6963 132.117 15.5684 132.82 15.2757C133.522 14.9829 134.148 14.533 134.65 13.9606C135.785 12.634 136.456 10.974 136.564 9.23161H138.14V23.8672H136.564C136.443 21.8641 135.65 19.9604 134.314 18.4632C133.838 17.9645 133.259 17.5752 132.617 17.3225C131.976 17.0697 131.287 16.9595 130.599 16.9994V31.7488C132.512 31.6363 134.426 31.9738 136.228 31.2988C138.595 30.1699 140.503 28.2621 141.632 25.8948C142.46 24.1411 143.174 22.3355 143.769 20.4895H145.12C145.008 24.6547 145.008 28.9337 144.895 33.0988H116.073V31.7488H119.563V1.35132H115.96ZM75.205 1.35132V0H93.8932V1.35132H89.8406V16.7744C93.5557 13.0593 97.2709 9.45661 100.874 5.74147C101.593 5.14813 102.138 4.37043 102.45 3.49147C102.463 3.11174 102.348 2.73862 102.123 2.43225C101.899 2.12588 101.577 1.9041 101.211 1.80265C99.894 1.43126 98.5248 1.27923 97.1584 1.35265V0H110.33V1.35132C109.429 1.46382 108.416 1.12632 107.627 1.68882C106.903 2.18972 106.224 2.75495 105.601 3.37764L98.9597 10.0204C98.6222 10.2454 98.8472 10.4704 98.9597 10.6954C102.9 17.6757 106.727 24.7685 110.669 31.8613H112.695V33.2126H94.6821V31.8613H98.0597C95.3571 27.0198 92.5485 22.1784 89.7281 17.3382V31.8613H92.9932C93.0118 32.3147 92.974 32.7686 92.8807 33.2126H75.0925V31.8613H78.8077V1.46382C77.6813 1.35132 76.4438 1.35132 75.205 1.35132ZM44.2397 25.8935C47.3977 17.2257 50.549 8.66911 53.7017 0H60.1221L71.9438 31.7488H74.5327V33.1001H56.9668V31.7488H60.3444C59.3306 28.4837 58.0944 25.331 57.0793 22.0672H47.3977C46.7227 23.981 45.9339 25.8948 45.3714 27.8087C45.1293 28.3396 45.0432 28.9284 45.1228 29.5065C45.2025 30.0846 45.4447 30.6281 45.8214 31.0738C46.2204 31.3712 46.6757 31.5844 47.1596 31.7005C47.6435 31.8165 48.146 31.833 48.6365 31.7488V33.1001H39.4036V31.8613C40.1977 31.8613 41.0924 31.9738 41.6536 31.2988C42.8275 29.6636 43.7031 27.8336 44.2397 25.8935ZM52.12 8.78029C50.6562 12.7204 49.1924 16.7731 47.8424 20.7145H56.5115C55.053 16.7744 53.5891 12.7218 52.1253 8.78161L52.12 8.78029ZM23.1956 6.41779C21.5861 6.40189 19.9981 6.78909 18.5765 7.54411C18.464 7.54411 18.464 7.65661 18.3515 7.65661C18.0136 7.77596 17.7059 7.96797 17.4502 8.21911H17.3377C17.1127 8.33161 16.8877 8.55661 16.6627 8.66911C16.5502 8.55661 16.4377 8.55661 16.4377 8.44411C16.3252 8.33161 16.1002 8.21911 15.9877 8.10661C15.8752 7.99411 15.7627 7.99411 15.7627 7.88161C15.4999 7.6658 15.1918 7.51199 14.8614 7.43161C13.8194 6.85975 12.6684 6.51428 11.4837 6.41779C10.9131 7.34919 10.5304 8.38337 10.3574 9.4619C11.3224 9.47452 12.2768 9.66522 13.1726 10.0244C13.5586 10.1895 13.9343 10.3778 14.2976 10.5882C14.4101 10.5882 14.4101 10.7007 14.5226 10.7007C15.4441 11.3982 16.2104 12.2798 16.7726 13.2895C17.2997 12.3515 18.0306 11.5438 18.9114 10.9257L19.0239 10.8132C19.1364 10.7007 19.2489 10.7007 19.3614 10.5882L19.4739 10.4757C19.5864 10.3632 19.6989 10.3632 19.9239 10.2507H20.0364C21.028 9.79829 22.1057 9.56576 23.1956 9.56911C24.1572 9.56719 25.1096 9.75516 25.9983 10.1222C26.887 10.4893 27.6945 11.0283 28.3744 11.7082C29.0543 12.3881 29.5932 13.1955 29.9603 14.0842C30.3274 14.9729 30.5154 15.9254 30.5134 16.8869C30.5017 17.9544 30.2651 19.0074 29.819 19.9773C29.373 20.9472 28.7275 21.8122 27.9246 22.5159V23.31C27.9413 24.3424 27.7893 25.3707 27.4746 26.3541C29.2833 25.5204 30.8162 24.1876 31.8932 22.5123C32.9701 20.837 33.5461 18.889 33.5536 16.8975C33.57 15.527 33.3143 14.1668 32.8011 12.8959C32.2879 11.6249 31.5275 10.4685 30.564 9.49369C29.6005 8.51886 28.4531 7.74501 27.1882 7.217C25.9234 6.689 24.5663 6.41734 23.1956 6.41779Z" fill="black"/>
        <path fill-rule="evenodd" clip-rule="evenodd" d="M14.4106 26.3488C14.7319 26.2448 15.0357 26.0931 15.3119 25.8988C15.4244 25.8988 15.4244 25.7863 15.5369 25.7863C16.0125 25.5254 16.4647 25.2239 16.8883 24.885C17.0008 24.9975 17.0008 24.9975 17.1133 24.9975C17.3383 25.11 17.4508 25.2225 17.6758 25.335C17.7883 25.335 17.7883 25.4475 17.9008 25.4475C19.1836 26.2815 20.6535 26.7841 22.1784 26.91C22.819 26.0035 23.2428 24.9621 23.4172 23.8659C22.4522 23.8533 21.4978 23.6626 20.6021 23.3034C20.2055 23.1617 19.8273 22.9728 19.4758 22.7409L19.3633 22.6284C18.3798 21.9667 17.5692 21.079 16.9994 20.0396C16.4731 20.98 15.7421 21.7901 14.8606 22.41C14.6356 22.635 14.2981 22.7475 14.0665 22.9725C13.954 22.9725 13.954 23.085 13.8415 23.085C13.7563 23.0971 13.6773 23.1366 13.6165 23.1975C13.504 23.1975 13.3915 23.31 13.279 23.31C12.4224 23.6543 11.5112 23.8426 10.5883 23.8659C9.62674 23.8685 8.67417 23.6812 7.7852 23.3148C6.89623 22.9484 6.08837 22.41 5.40798 21.7306C4.72759 21.0512 4.18805 20.2441 3.82033 19.3557C3.45262 18.4672 3.26396 17.5149 3.26518 16.5534C3.2769 15.4859 3.5135 14.4329 3.95957 13.4629C4.40564 12.493 5.05115 11.6281 5.854 10.9244V10.1303C5.71321 9.18924 5.79019 8.22842 6.079 7.32178C4.27033 8.15544 2.73737 9.48831 1.66046 11.1636C0.583551 12.8389 0.00748601 14.7868 3.74955e-05 16.7784C-0.00363002 18.1396 0.261782 19.4882 0.781018 20.7465C1.30025 22.0049 2.06307 23.1482 3.02563 24.1107C3.98818 25.0733 5.13149 25.8361 6.38983 26.3553C7.64816 26.8746 8.99672 27.14 10.358 27.1363C11.7484 27.1456 13.1265 26.8756 14.4106 26.3422" fill="black"/>
        <path fill-rule="evenodd" clip-rule="evenodd" d="M7.5433 15.0882C7.6558 15.3132 7.7683 15.4257 7.7683 15.6507C7.82665 15.6547 7.88158 15.6797 7.92293 15.7211C7.96429 15.7624 7.98929 15.8174 7.9933 15.8757C8.1058 15.9882 8.1058 16.1007 8.2183 16.1007C8.3308 16.3257 8.5558 16.5507 8.6683 16.7757C8.5558 16.8882 8.4433 17.1132 8.3308 17.2257C8.3308 17.3382 8.2183 17.3382 8.2183 17.4507C7.96975 17.8504 7.74438 18.264 7.5433 18.6895C6.98654 19.7378 6.64203 20.8856 6.52948 22.0672C7.43594 22.7078 8.47742 23.1316 9.5736 23.306C9.57488 22.3398 9.766 21.3833 10.1361 20.4909V20.2659C10.3581 19.7917 10.624 19.3392 10.9302 18.9145C11.5764 18.0591 12.3784 17.3335 13.294 16.7757C12.1644 16.1886 11.2265 15.2902 10.5914 14.1869C10.4789 13.9619 10.3664 13.8494 10.2539 13.6244C9.76656 12.6021 9.4966 11.4899 9.4611 10.3579C9.4597 9.39708 9.64793 8.44539 10.015 7.55741C10.382 6.66943 10.9207 5.8626 11.6002 5.18317C12.2796 4.50375 13.0864 3.96507 13.9744 3.59801C14.8624 3.23095 15.8141 3.04272 16.7749 3.04412C17.8444 3.04396 18.9012 3.27526 19.8729 3.72213C20.8445 4.169 21.708 4.82086 22.4039 5.63294H23.198C24.2304 5.61618 25.2587 5.76818 26.2421 6.08294C25.4083 4.2719 24.074 2.73702 22.3966 1.65926C20.7192 0.581494 18.7687 0.00578407 16.7749 0C15.0012 0.00413103 13.2582 0.46255 11.712 1.33154C10.1658 2.20054 8.86797 3.45113 7.94229 4.96408C7.0166 6.47703 6.49391 8.20189 6.42407 9.97418C6.35423 11.7465 6.73955 13.5071 7.5433 15.0882ZM25.5565 17.7909C25.444 17.6784 25.444 17.5659 25.3315 17.4534C25.219 17.2284 24.994 17.0034 24.8815 16.7784C24.8815 16.6659 24.994 16.6659 24.994 16.5534C25.1065 16.3284 25.3315 16.1034 25.444 15.8784C25.444 15.7659 25.5565 15.7659 25.5565 15.6534C26.3745 14.3626 26.876 12.897 27.0203 11.3757C26.1139 10.7351 25.0724 10.3113 23.9762 10.1369C23.9636 11.1019 23.7729 12.0563 23.4137 12.952C22.7689 14.4867 21.618 15.7544 20.1526 16.5441C21.7178 17.3574 22.9225 18.7264 23.5302 20.3823C23.852 21.2064 24.0051 22.0868 23.9802 22.9712C23.9821 23.9327 23.7941 24.8851 23.4271 25.7738C23.06 26.6625 22.5211 27.47 21.8411 28.1499C21.1612 28.8298 20.3538 29.3687 19.4651 29.7358C18.5764 30.1029 17.6239 30.2909 16.6624 30.2889C15.5949 30.2772 14.5419 30.0406 13.572 29.5946C12.6021 29.1485 11.7371 28.503 11.0334 27.7001H10.2393C9.20689 27.7169 8.17865 27.5649 7.19522 27.2501C8.02888 29.0588 9.36175 30.5918 11.037 31.6687C12.7123 32.7456 14.6603 33.3216 16.6518 33.3291C18.0131 33.3328 19.3616 33.0673 20.62 32.5481C21.8783 32.0289 23.0216 31.2661 23.9842 30.3035C24.9467 29.3409 25.7095 28.1976 26.2288 26.9393C26.748 25.681 27.0134 24.3324 27.0098 22.9712C27.0307 21.1399 26.5224 19.3415 25.5459 17.7922C25.6589 17.9051 25.6589 17.9051 25.5459 17.7922" fill="black"/>
    </g>
    <defs>
        <clipPath id="clip0_234_1406">
            <rect width="187" height="33.5594" fill="white"/>
        </clipPath>
    </defs>
</svg>
