<svg width="187" height="86" viewBox="0 0 187 86" fill="none" xmlns="http://www.w3.org/2000/svg">
    <g clip-path="url(#clip0_222_436)">
        <path fill-rule="evenodd" clip-rule="evenodd" d="M116.012 67.13C105.146 79.34 89.3968 85.84 75.8333 85.84C56.8208 85.84 39.7057 75.14 26.7527 57.32C25.7351 55.92 26.6411 54.01 27.8688 55.09C41.8459 67.48 59.1318 74.94 76.9822 74.94C89.0226 74.94 102.264 71.13 114.443 63.26C116.281 62.07 117.817 65.1 116.025 67.13H116.012Z" fill="#FF9900"/>
        <path fill-rule="evenodd" clip-rule="evenodd" d="M120.535 59.27C119.143 56.56 111.351 57.98 107.845 58.62C106.781 58.81 106.617 57.4 107.576 56.38C113.793 49.73 123.988 51.65 125.17 53.87C126.365 56.12 124.855 71.68 119.032 79.11C118.132 80.25 117.285 79.64 117.679 78.13C118.992 73.14 121.927 61.97 120.535 59.26V59.27Z" fill="#FF9900"/>
        <path fill-rule="evenodd" clip-rule="evenodd" d="M108.094 9.38V2.91C108.094 1.93 108.587 1.27 109.171 1.27H128.197C128.807 1.27 129.293 1.94 129.293 2.9V8.44C129.293 9.37 128.774 10.58 127.862 12.51L118.008 33.94C121.664 33.81 125.538 34.64 128.86 37.49C129.608 38.13 129.812 39.08 129.871 40.01V46.91C129.871 47.86 129.188 48.96 128.472 48.39C122.616 43.72 114.843 43.21 108.37 48.45C107.707 48.99 107.018 47.9 107.018 46.95V40.39C107.018 39.34 107.031 37.55 107.727 35.95L119.143 11H109.204C108.593 11 108.107 10.34 108.107 9.37L108.094 9.38Z" fill="black"/>
        <path fill-rule="evenodd" clip-rule="evenodd" d="M38.6944 49.76H32.904C32.3525 49.71 31.9127 49.07 31.8667 48.27V3.02C31.8667 2.11 32.3722 1.39 32.9893 1.39H38.3793C38.9439 1.43 39.3969 2.08 39.4297 2.91V8.82H39.5413C40.9462 3.11 43.5919 0.440002 47.1568 0.440002C50.7216 0.440002 53.0457 3.11 54.6673 8.82C56.0722 3.11 59.2562 0.440002 62.6635 0.440002C65.0926 0.440002 67.7449 1.96 69.3599 5.39C71.1981 9.2 70.8174 14.72 70.8174 19.58V48.13C70.8174 49.03 70.3119 49.76 69.6947 49.76H63.9109C63.3332 49.7 62.8736 49 62.8736 48.14V24.15C62.8736 22.25 62.9787 17.48 62.7095 15.68C62.2762 12.63 60.9829 11.78 59.3088 11.78C57.9038 11.78 56.4464 13.21 55.849 15.49C55.2515 17.78 55.3106 21.58 55.3106 24.15V48.13C55.3106 49.03 54.8117 49.76 54.1946 49.76H48.4107C47.833 49.7 47.3734 49 47.3734 48.14V24.15C47.3734 19.1 47.9052 11.68 43.802 11.68C39.6989 11.68 39.8039 18.92 39.8039 24.15V48.13C39.8039 49.03 39.3049 49.76 38.6878 49.76H38.6944Z" fill="black"/>
        <path fill-rule="evenodd" clip-rule="evenodd" d="M145.666 0.440002C154.253 0.440002 158.901 11.68 158.901 25.96C158.901 40.24 153.767 50.72 145.666 50.72C137.565 50.72 132.647 39.48 132.647 25.49C132.647 11.5 137.289 0.440002 145.666 0.440002ZM145.719 9.67C141.451 9.67 141.182 18.52 141.182 24.05C141.182 29.58 141.13 41.38 145.666 41.38C150.203 41.38 150.367 31.86 150.367 26.05C150.367 22.24 150.262 17.67 149.5 14.05C148.85 10.91 147.557 9.67 145.719 9.67Z" fill="black"/>
        <path fill-rule="evenodd" clip-rule="evenodd" d="M170.042 49.76H164.278C163.7 49.7 163.241 49 163.241 48.14V2.87C163.28 2.04 163.759 1.39 164.344 1.39H169.714C170.219 1.43 170.633 1.95 170.745 2.66V9.58H170.856C172.478 3.39 174.743 0.440002 178.741 0.440002C181.334 0.440002 183.875 1.87 185.496 5.77C187.006 9.39 187.006 15.48 187.006 19.86V48.33C186.941 49.13 186.468 49.76 185.897 49.76H180.093C179.555 49.71 179.128 49.11 179.063 48.33V23.76C179.063 18.81 179.443 11.57 175.445 11.57C174.04 11.57 172.74 13 172.097 15.19C171.29 17.95 171.178 20.71 171.178 23.76V48.12C171.165 49.02 170.666 49.75 170.049 49.75L170.042 49.76Z" fill="black"/>
        <path fill-rule="evenodd" clip-rule="evenodd" d="M92.9289 28.15C92.9289 31.59 92.9814 34.45 91.8456 37.5C90.9265 39.98 89.4625 41.51 87.8409 41.51C85.6219 41.51 84.322 38.93 84.322 35.12C84.322 27.61 88.7469 26.25 92.9289 26.25V28.16V28.15ZM98.7587 49.64C98.3779 50.16 97.8264 50.2 97.3931 49.85C95.4696 47.42 95.1282 46.29 94.0778 43.98C90.9003 48.91 88.6484 50.39 84.5321 50.39C79.6608 50.39 75.8662 45.81 75.8662 36.65C75.8662 29.49 78.4135 24.63 82.0374 22.24C85.1755 20.14 89.561 19.76 92.9223 19.19V18.05C92.9223 15.95 93.0339 13.47 92.2199 11.66C91.5174 10.04 90.165 9.37 88.9701 9.37C86.7643 9.37 84.8013 11.09 84.3155 14.66C84.217 15.45 83.8362 16.24 83.311 16.28L77.7044 15.36C77.2318 15.2 76.7065 14.62 76.8378 13.52C78.1246 3.15 84.2761 0.0200043 89.7776 0.0200043C92.5941 0.0200043 96.2771 1.16 98.4961 4.41C101.312 8.42 101.043 13.76 101.043 19.58V33.31C101.043 37.44 102.173 39.25 103.23 41.48C103.597 42.28 103.683 43.24 103.21 43.82C102.028 45.33 99.9273 48.11 98.7718 49.68L98.7587 49.66V49.64Z" fill="black"/>
        <path fill-rule="evenodd" clip-rule="evenodd" d="M17.0559 28.15C17.0559 31.59 17.1084 34.45 15.9726 37.5C15.0535 39.98 13.5895 41.51 11.9679 41.51C9.74894 41.51 8.44905 38.93 8.44905 35.12C8.44905 27.61 12.8739 26.25 17.0559 26.25V28.16V28.15ZM22.8922 49.64C22.5115 50.16 21.9534 50.2 21.5267 49.85C19.6031 47.42 19.2618 46.29 18.2113 43.98C15.0338 48.91 12.782 50.39 8.67227 50.39C3.80097 50.39 0.00634766 45.81 0.00634766 36.65C0.00634766 29.49 2.5536 24.63 6.17753 22.24C9.31564 20.14 13.7011 19.76 17.0624 19.19V18.05C17.0624 15.95 17.1675 13.47 16.36 11.66C15.6575 10.04 14.3051 9.37 13.1103 9.37C10.9044 9.37 8.94143 11.09 8.45562 14.66C8.35714 15.45 7.97637 16.24 7.45116 16.28L1.84457 15.36C1.37189 15.2 0.846679 14.62 0.977981 13.52C2.25817 3.13 8.4031 0 13.9112 0C16.7276 0 20.4106 1.14 22.6296 4.39C25.4461 8.4 25.1769 13.74 25.1769 19.56V33.29C25.1769 37.42 26.3061 39.23 27.3631 41.46C27.7307 42.26 27.8161 43.22 27.3434 43.8C26.1617 45.31 24.0608 48.09 22.9054 49.66L22.8922 49.64Z" fill="black"/>
    </g>
    <defs>
        <clipPath id="clip0_222_436">
            <rect width="187" height="85.84" fill="white"/>
        </clipPath>
    </defs>
</svg>
