<svg width="187" height="139" viewBox="0 0 187 139" fill="none" xmlns="http://www.w3.org/2000/svg">
    <path d="M178.224 41.0389H175.212V68.3486H178.224V69.4146H167.239V68.3486H170.279V41.0389H163.166V70.3739L139.619 42.5526V68.3486H142.659V69.4146H122.955V68.3486H127.602L123.988 60.0768H111.655L107.841 68.3486H111.196V69.4146H93.2993V68.3486H96.3108V43.4054L84.609 69.7343L72.2475 44.1728V68.3486H75.5458V69.4146H64.5036C61.6929 69.4146 56.559 67.7943 56.559 61.8037V59.2667C56.559 55.8557 54.2645 54.4273 49.7042 54.4273H46.5493V68.3486H51.2243V69.4146H25.4688V68.3486H30.1151L26.5013 60.0768H14.1685L10.3826 68.3486H13.7383V69.4146H6.1665V68.3486H8.83384L22.3999 38.6938L35.5358 68.3486H41.6162V41.0389H38.6047V39.973H50.4213C58.2799 39.973 62.3525 43.1495 62.3525 47.3494C62.3525 50.2914 59.7426 53.0415 55.9854 53.9156C60.2875 54.8537 61.6929 57.6251 61.6929 60.9083V65.2147C61.6929 67.1761 63.1843 68.3486 64.8765 68.3486H70.8708V41.0389H67.8593V39.973H75.6892L86.2438 62.358L96.3108 39.973H104.284V41.0389H101.244V68.3486H106.292L119.858 38.6938L133.022 68.3486H138.242V41.0389H135.231V39.973H143.663L161.79 61.3986V41.0389H158.778V39.973H178.252V41.0389H178.224Z" fill="black"/>
    <path d="M112.057 59.0323H123.5L117.85 46.1343L112.057 59.0323Z" fill="white"/>
    <path d="M49.6755 53.3829C54.4653 53.3829 56.8171 49.844 56.8171 47.5202C56.8171 43.3204 53.7196 41.0605 49.1306 41.0605H46.5493V53.3829H49.6755Z" fill="white"/>
    <path d="M14.5986 59.0323H26.0423L20.3922 46.1343L14.5986 59.0323Z" fill="white"/>
    <path d="M135.69 86.7046H137.554L132.592 96.0423C131.588 97.9184 130.441 98.6006 128.663 98.6006C127.688 98.6006 126.942 98.4514 126.139 98.1529L126.741 97.0869C127.315 97.3215 127.831 97.4281 128.577 97.4281C129.638 97.4281 130.298 97.0017 130.986 95.7225L125.623 86.7046H127.544L131.847 94.2515" fill="black"/>
    <path d="M115.986 93.356V87.8983H114.351V86.7044H115.986V83.9756H117.735V86.7044H121.464V87.8983H117.735V93.1854C117.735 94.294 118.538 94.6991 119.714 94.6991C120.317 94.6991 120.804 94.6138 121.435 94.3793V95.5305C120.833 95.7863 120.145 95.9142 119.313 95.9142C117.42 95.9142 115.986 95.2107 115.986 93.356Z" fill="black"/>
    <path d="M98.8633 92.3328V86.7046H100.613V91.9917C100.613 93.6759 101.789 94.7205 103.882 94.7205C105.89 94.7205 107.41 93.5906 107.41 91.8851V86.7046H109.131V95.7439H107.41V94.1662C106.607 95.1469 105.403 95.9357 103.366 95.9357C100.527 95.957 98.8633 94.486 98.8633 92.3328Z" fill="black"/>
    <path d="M82.6873 93.1429V93.1003C82.6873 91.2029 84.7523 90.1796 87.7351 90.1796C89.2265 90.1796 90.3164 90.3288 91.3489 90.5633V90.2435C91.3489 88.6233 90.0583 87.7705 87.8498 87.7705C86.4731 87.7705 85.3546 88.0477 84.2647 88.4314L83.7485 87.3228C85.0391 86.8751 86.3297 86.5767 88.0506 86.5767C89.7141 86.5767 91.0047 86.9178 91.8652 87.5787C92.6682 88.1969 93.0698 89.071 93.0698 90.2222V95.7652H91.3776V94.4007C90.5458 95.2109 89.1978 95.957 87.1041 95.957C84.8957 95.957 82.6873 94.9977 82.6873 93.1429ZM91.3776 92.4394V91.5653C90.5172 91.3734 89.3412 91.1816 87.9072 91.1816C85.6988 91.1816 84.4655 91.9064 84.4655 93.0576V93.1003C84.4655 94.2302 85.8422 94.8911 87.4196 94.8911C89.5994 94.8911 91.3776 93.8678 91.3776 92.4394Z" fill="black"/>
    <path d="M67.0847 91.2668V91.2242C67.0847 88.6233 69.4652 86.5127 72.7349 86.5127C76.2339 86.5127 78.2416 88.6446 78.2416 91.2882L78.2129 91.7145H68.8629C69.1211 93.6759 70.928 94.7845 73.0217 94.7845C74.6278 94.7845 75.7751 94.2728 76.7215 93.5053L77.8114 94.2515C76.6355 95.2748 75.2014 95.957 72.9643 95.957C69.7234 95.9783 67.0847 94.0596 67.0847 91.2668ZM76.4634 90.7339C76.2913 89.0923 75.058 87.6639 72.7062 87.6639C70.6412 87.6639 69.0924 88.9857 68.8629 90.7339H76.4634Z" fill="black"/>
    <path d="M52.1707 94.0384V95.7652H50.4211V82.9951H52.1707V88.5381C53.1172 87.4508 54.5225 86.5341 56.6736 86.5341C59.4843 86.5341 62.2951 88.2396 62.2951 91.2243V91.2669C62.2951 94.2302 59.513 95.9784 56.6736 95.9784C54.4938 95.9571 53.0598 95.0404 52.1707 94.0384ZM60.4882 91.2669V91.2243C60.4882 89.0924 58.5665 87.7279 56.3294 87.7279C54.1497 87.7279 52.056 89.135 52.056 91.2029V91.2456C52.056 93.3562 54.121 94.7419 56.3294 94.7419C58.6239 94.7419 60.4882 93.4414 60.4882 91.2669Z" fill="black"/>
</svg>
