<svg width="187" height="42" viewBox="0 0 187 42" fill="none" xmlns="http://www.w3.org/2000/svg">
    <g clip-path="url(#clip0_234_1414)">
        <path d="M157.115 9.7688H152.275V41.3348H150.924L130.786 10.7428V39.5232H135.432V40.7504H124.654V39.5232H129.241V9.7688H124.654V8.60005H136.724L150.797 29.5596V9.7688H146.21V8.60005H157.115V9.7688ZM122.195 9.7688H117.481V39.5232H122.195V40.7504H106.703V39.5232H111.417V9.7688H106.703V8.60005H122.195V9.7688ZM110.96 3.30172C110.96 2.32776 111.281 1.55833 111.932 0.905781C112.573 0.321406 113.419 0 114.381 0C115.343 0 116.189 0.321406 116.898 0.905781C117.54 1.54859 117.87 2.32776 117.87 3.30172C117.87 4.27568 117.549 5.0451 116.898 5.62948C116.121 6.27229 115.285 6.60344 114.381 6.60344C113.409 6.60344 112.641 6.28203 111.932 5.62948C111.29 5.0451 110.96 4.27568 110.96 3.30172ZM104.38 9.7688H99.6666V39.5232H104.38V40.7504H88.8884V39.5232H93.602V10.6064L84.0484 40.7504H82.3671L72.8815 10.6064L72.8135 39.5232H77.4008V40.7504H66.6226V39.5232H71.3362V9.7688H66.6226V8.60005H78.8197L85.4674 30.5239L92.3775 8.60005H104.38V9.7688ZM60.869 15.8463C60.869 20.307 57.516 22.9659 50.8003 23.7354C54.4838 24.3197 57.0009 25.8002 58.3519 28.1279C59.3821 29.8713 59.8972 32.7834 59.8972 36.7961C59.8972 37.8967 60.0915 38.6077 60.4803 39.0557C60.9273 39.5037 61.6465 39.7667 62.6087 39.7667L64.6108 39.5038V40.7309L60.6066 41.2471C55.6986 41.2471 53.2495 38.7928 53.2495 33.9424C53.2495 31.0303 52.9287 28.8292 52.2776 27.3487C51.3057 25.2158 49.566 24.1834 47.0489 24.1834H44.4053V39.5135H49.119V40.7407H33.6952V39.5135H38.4088V9.7688H33.6952V8.60005H49.6341C52.9287 8.60005 55.4459 8.98963 57.1176 9.7688C59.6347 10.8694 60.8593 12.9342 60.8593 15.8463H60.869ZM53.2495 11.5122C52.4137 10.3434 50.8586 9.7688 48.5358 9.7688H44.4053V22.9659H48.3415C52.3456 22.9659 54.3477 20.833 54.3477 16.5573C54.3477 14.1614 53.9589 12.4861 53.2495 11.5122ZM16.7844 7.83062L27.6987 39.5232H31.5084V40.7504H16.4054V39.5232H21.3134L18.4755 30.9816H8.21241L5.30648 39.5232H10.1465V40.7504H0V39.5232H3.86809L15.2294 7.83062H16.7747H16.7844ZM8.71779 29.8226H18.009L13.4897 16.3722L8.70807 29.8226H8.71779ZM175.386 9.7688H170.352V23.6087C172.869 23.6087 174.55 23.2873 175.512 22.6348C176.737 21.7972 177.446 20.1122 177.582 17.7163H178.943V31.1082H177.582C177.388 28.5857 176.747 26.9007 175.648 25.9949C174.677 25.1573 172.869 24.6996 170.352 24.7678V39.5135H177.067C179.847 39.5135 181.907 38.6759 183.268 36.9909C184.24 35.6371 185.008 33.436 185.591 30.3291H187.01L186.495 40.7407H159.515V39.5135H164.229V9.7688H159.515V8.60005H185.785L186.048 17.2001H184.755C184.114 14.4146 183.142 12.4764 181.781 11.3758C180.362 10.2753 178.234 9.75906 175.396 9.75906L175.386 9.7688Z" fill="black"/>
    </g>
    <defs>
        <clipPath id="clip0_234_1414">
            <rect width="187" height="41.3348" fill="white"/>
        </clipPath>
    </defs>
</svg>
