<svg width="187" height="63" viewBox="0 0 187 63" fill="none" xmlns="http://www.w3.org/2000/svg">
    <rect width="187" height="62.3333" fill="#FF0000"/>
    <path fill-rule="evenodd" clip-rule="evenodd" d="M37.3541 42.3532L32.4136 27.5141C40.0457 26.8634 46.5383 23.9723 51.6833 18.9495L57.2384 33.9469C52.6669 38.6693 45.3702 42.1413 37.3541 42.3532ZM135.042 42.0228L145.456 18.7002H149.663L145.221 28.6486C145.081 28.9864 145.389 28.9353 145.389 28.9353L153.274 22.697L154.412 26.1765L147.023 31.7765L148.665 42.0241H144.854L143.54 33.1254C143.509 32.9172 143.346 32.8524 143.257 33.0481L139.249 42.0241L135.042 42.0228ZM73.4962 33.4233C67.3701 33.553 64.6736 36.5151 66.4625 38.6556C68.1031 40.1267 72.0513 37.207 73.4962 33.4233ZM66.6795 26.4171C69.3673 23.8327 72.6123 22.5462 75.2216 22.8491C79.2558 23.4113 80.1833 28.0814 77.0555 34.2436C74.4961 39.6367 71.0154 42.5252 67.1544 42.5689C63.5079 42.5252 61.5631 39.8137 62.1054 36.6447C62.8609 32.6878 66.8864 30.6495 74.6619 30.3303C75.2827 27.9343 75.1356 26.634 73.7979 26.5903C71.7958 26.5953 69.7961 27.7697 67.5421 30.0287L66.6795 26.4171ZM76.2838 42.1126L84.7262 23.2568H88.8577L87.3654 26.7375C87.2893 26.8945 87.5374 26.8733 87.7095 26.5255C89.5358 22.97 91.7861 22.1535 94.3717 23.4961L92.1177 27.4942C89.8587 26.9955 87.8616 28.0053 86.1262 30.5211C84.3684 33.2014 82.8076 37 80.6284 42.1126H76.2838ZM90.5033 45.1769C91.8422 45.1869 93.1574 44.6147 94.4477 43.4602L95.6408 46.4909C94.2246 47.7076 92.8445 48.2761 91.5018 48.1951L90.5033 45.1769ZM103.223 29.8205C104.756 25.3911 100.321 25.2826 96.4436 30.8677C93.5763 35.2061 93.216 38.2604 95.1446 38.5845C96.8862 38.8139 99.0018 37.2955 101.491 34.0317L103.151 37.485C99.9829 41.3347 96.8263 42.9853 93.686 42.4342C89.1232 41.604 88.4787 36.5375 92.2424 30.2169C95.6046 25.1766 99.0741 22.6945 102.79 22.6995C106.306 22.7706 107.827 25.0869 107.029 29.2408L103.223 29.8205ZM110.009 35.3893C108.466 39.5008 112.662 40.1192 117.504 35.4205L118.953 38.6045C113.185 44.5386 105.69 43.3967 105.659 37.6445C105.751 31.5247 111.613 23.6395 117.287 22.8354C121.543 22.2495 123.857 24.8463 122.531 29.3293C121.235 32.699 116.918 35.049 110.009 35.3881V35.3893ZM111.518 31.9261C112.938 32.0495 115.445 31.2816 117.071 30.4101C119.447 29.0201 119.508 26.2064 117.749 26.2363C115.622 26.2675 113.517 28.3519 111.518 31.9261ZM119.564 42.0216L129.979 18.7002H134.185L123.772 42.0228L119.564 42.0216ZM141.958 18.7002L140.478 22.0138L136.272 22.0113L137.751 18.7002H141.958ZM127.337 42.0228L135.69 23.3154L139.899 23.3116L131.544 42.0241L127.337 42.0228Z" fill="white"/>
</svg>
