<svg width="187" height="70" viewBox="0 0 187 70" fill="none" xmlns="http://www.w3.org/2000/svg">
    <g clip-path="url(#clip0_225_695)">
        <path d="M182.83 28.3305C180.418 25.8808 177.257 24.3287 174.022 23.2254C169.684 21.7107 165.009 21.3741 160.708 19.7659C159.287 19.2236 157.884 18.5317 156.856 17.391C155.491 15.8763 155.192 13.5575 156.014 11.7062C156.538 10.5281 157.566 9.63047 158.726 9.08817C160.633 8.19057 162.802 8.05967 164.878 8.22797C166.991 8.37757 169.142 9.06947 170.713 10.5281C172.078 11.7623 172.938 13.4827 173.293 15.2779C173.349 15.7454 173.686 16.2503 174.209 16.1942C177.594 16.2316 180.979 16.2877 184.363 16.269C184.85 16.3251 185.298 15.9137 185.168 15.4088C184.775 12.716 183.84 10.0606 182.288 7.81657C180.418 5.06767 177.632 3.01067 174.565 1.79517C171.722 0.654471 168.655 0.149571 165.607 -0.0187291H162.111C158.371 0.186971 154.556 0.729271 151.115 2.28137C148.609 3.40337 146.309 5.16117 144.869 7.53607C143.448 9.79877 142.906 12.4916 142.868 15.147C141.054 11.4257 138.305 8.17187 135.052 5.62867C130.713 2.20657 125.29 0.261771 119.774 -0.0374291H116.913C113.135 0.186971 109.395 1.21547 106.048 3.01067C101.148 5.62867 97.0345 9.74267 94.4352 14.6608C94.0051 12.5851 93.3319 10.5281 92.2286 8.69547C90.77 6.18967 88.5821 4.15137 86.0389 2.76757C82.6916 0.916271 78.8394 0.186971 75.062 -0.0374291H71.4155C68.6666 0.130871 65.9177 0.448771 63.2623 1.23417C60.1955 2.13177 57.2222 3.70257 55.1839 6.22707C54.0245 7.62957 53.2578 9.31257 52.7529 11.0517C52.7529 8.19057 52.7529 5.31077 52.7529 2.44967C52.7529 2.13177 52.7529 1.77647 52.4724 1.55207C52.248 1.29027 51.8927 1.32767 51.5748 1.30897C48.508 1.30897 45.4412 1.30897 42.3931 1.30897C41.9256 1.29027 41.5703 1.70167 41.5516 2.15047C41.4955 2.97327 41.5516 3.79607 41.5516 4.61887C41.5516 4.82457 41.4955 4.99287 41.3085 5.10507C40.9906 4.97417 40.7288 4.76847 40.4483 4.56277C36.7457 1.96347 32.4073 0.205671 27.8632 -0.0748291H25.4509C22.9825 0.0560709 20.5515 0.486171 18.214 1.29027C14.1561 2.69277 10.5096 5.14247 7.5363 8.20927C4.0394 11.7249 1.5523 16.2503 0.598598 21.131C0.299398 22.5896 0.149798 24.0669 0.0375977 25.5442V28.5549C0.224598 31.8835 0.916498 35.1934 2.2816 38.2415C4.4508 43.0661 8.116 47.1614 12.5292 50.0599C16.7367 52.8275 21.8044 54.1739 26.8347 54.1178C31.865 54.1552 36.7831 52.2665 40.7101 49.181C40.9345 49.0314 41.3272 48.62 41.5142 49.0127C41.6077 49.9664 41.5142 50.9388 41.5516 51.9112C41.5516 52.3413 41.9256 52.7714 42.3744 52.734C45.5534 52.734 48.7324 52.734 51.9114 52.734C52.3976 52.734 52.7903 52.2665 52.7529 51.799C52.7529 48.9753 52.7529 46.1516 52.7529 43.3279C53.6879 45.3288 54.9034 47.2175 56.5303 48.7135C59.2605 51.3128 62.8696 52.8088 66.5161 53.5007C69.5642 54.0991 72.6871 54.1552 75.7913 54.0804C79.0638 53.9308 82.355 53.4446 85.4592 52.3787C87.9276 51.5372 90.3025 50.2843 92.2286 48.5078C94.0799 46.8061 95.4076 44.5434 95.9873 42.0937C96.8101 43.2905 97.7077 44.4312 98.6988 45.4971C102.289 49.4241 107.095 52.2291 112.294 53.3885C118.203 54.7349 124.58 54.2487 130.059 51.612C135.201 49.181 139.484 45.0483 142.27 40.0928C143.037 43.0474 144.402 45.9085 146.533 48.1338C148.347 50.0599 150.647 51.4811 153.135 52.3974C157.417 54.0056 162.054 54.23 166.58 54.0804C170.301 53.8934 174.041 53.2576 177.501 51.8364C180.175 50.7331 182.681 49.0875 184.42 46.75C185.953 44.7304 186.757 42.262 186.963 39.7562V37.3813C186.682 33.9779 185.261 30.6493 182.793 28.2557L182.83 28.3305ZM39.0645 37.3252C37.6433 39.9058 35.3058 41.9441 32.5756 43.0474C29.0787 44.4686 25.0395 44.6556 21.4865 43.3092C18.3823 42.1685 15.7643 39.8684 14.1187 37.0073C12.0991 33.5291 11.4446 29.3964 11.7438 25.4133C12.0804 21.3928 13.6138 17.391 16.4375 14.4364C18.4571 12.3046 21.1873 10.8647 24.1045 10.4159C27.3396 9.91097 30.7617 10.3411 33.7163 11.7623C36.2969 13.0152 38.3539 15.2031 39.5507 17.8024C40.841 20.57 41.2898 23.6368 41.3272 26.6475C41.3833 30.3127 40.8597 34.0901 39.0458 37.3439L39.0645 37.3252ZM82.9908 41.7571C82.2428 43.1035 80.9712 44.0946 79.55 44.6743C77.8109 45.4036 75.8848 45.5345 74.0148 45.4784C71.2285 45.4036 68.2926 44.6743 66.1982 42.7482C64.5713 41.2896 63.6363 39.2139 63.2623 37.1008C63.2249 36.6894 62.9444 36.2406 62.4769 36.2593C59.2418 36.1471 55.988 36.2032 52.7342 36.091C52.7342 30.4997 52.7342 24.9084 52.7342 19.3171C53.1082 20.4204 53.5196 21.505 54.1928 22.4587C55.427 24.3287 57.2596 25.7499 59.2231 26.7784C62.8883 28.7232 67.021 29.5647 71.0602 30.3688C74.127 31.0046 77.2499 31.6217 80.0923 33.0242C81.7192 33.847 83.3274 35.1373 83.7762 36.9886C84.0941 38.5968 83.8136 40.3172 83.0282 41.7384L82.9908 41.7571ZM91.6115 27.7695C89.1805 25.5816 86.1511 24.1417 83.0656 23.1319C79.7931 22.0286 76.3523 21.5798 73.005 20.6822C71.2472 20.2147 69.4707 19.6724 67.8812 18.7374C66.7031 18.0268 65.6559 16.9983 65.2258 15.6706C64.7209 14.1372 64.8705 12.3233 65.8055 10.9769C66.6096 9.78007 67.9373 9.03207 69.2837 8.62067C71.135 8.07837 73.0798 8.05967 74.9872 8.28407C76.932 8.52717 78.8768 9.29387 80.298 10.7151C81.5509 11.9306 82.3363 13.5762 82.6729 15.2779C82.729 15.7267 83.0095 16.2129 83.5144 16.2129C86.9178 16.2503 90.3212 16.2877 93.7059 16.3064C92.1912 19.9155 91.518 23.8612 91.6115 27.7882V27.7695ZM131.199 36.9325C129.89 39.4196 127.759 41.4392 125.272 42.7108C122.41 44.1507 119.082 44.506 115.922 44.0198C113.285 43.6084 110.798 42.4303 108.815 40.6351C106.815 38.896 105.449 36.4837 104.664 33.9779C103.692 30.8737 103.449 27.5451 103.823 24.31C104.271 20.7757 105.543 17.204 108.067 14.6047C110.33 12.2111 113.434 10.659 116.726 10.3224C119.493 10.0232 122.373 10.3972 124.898 11.594C127.59 12.903 129.872 15.0535 131.274 17.7089C132.695 20.4017 133.369 23.4685 133.443 26.4979C133.537 30.0883 132.901 33.7535 131.199 36.9325ZM172.265 43.4027C170.75 44.7117 168.73 45.2914 166.748 45.441C164.055 45.5906 161.232 45.3662 158.782 44.0946C156.762 43.0848 155.191 41.2522 154.443 39.1204C154.107 38.3163 154.032 37.4561 153.752 36.6333C153.471 36.0536 152.742 36.2593 152.218 36.1845C149.507 36.1845 146.795 36.091 144.084 36.1097C145.468 31.9209 145.785 27.4142 145.224 23.0571C147.094 25.5068 149.881 27.0215 152.704 28.0687C157.398 29.8452 162.447 30.2753 167.253 31.6965C169.086 32.2575 170.918 32.9494 172.433 34.1462C173.443 34.9503 174.228 36.0723 174.415 37.3626C174.714 39.5505 173.929 41.9254 172.227 43.384L172.265 43.4027Z" fill="#040404"/>
        <path d="M9.35004 57.5025C8.93864 57.5025 8.54594 57.5025 8.13454 57.5025C8.13454 59.0359 8.13454 60.5693 8.13454 62.1027C6.63854 60.1766 3.49694 60.0831 1.75784 61.7474C-0.0560564 63.4491 0.0187436 66.7403 1.96354 68.3111C2.78634 69.0404 3.90834 69.3209 4.99294 69.2274C6.20844 69.3396 7.38654 68.7038 8.13454 67.7688C8.13454 68.2176 8.13454 68.6477 8.13454 69.0965C8.52724 69.0965 8.93864 69.0965 9.33134 69.0965C9.33134 65.2256 9.33134 61.3547 9.33134 57.4838L9.35004 57.5025ZM7.25564 67.2452C6.17104 68.3859 4.22624 68.5542 2.97334 67.6005C1.77654 66.6842 1.49604 64.9077 2.03834 63.5613C2.35624 62.7011 3.10424 62.0466 3.98314 61.8035C5.25474 61.4482 6.71334 61.8783 7.51744 62.9255C8.48984 64.1784 8.39634 66.1419 7.27434 67.2452H7.25564Z" fill="#040404"/>
        <path d="M13.0902 57.5213C13.6512 57.3156 14.3057 57.8392 14.2122 58.4376C14.1935 59.1482 13.1837 59.5222 12.7162 58.9612C12.2487 58.5311 12.4731 57.6709 13.0902 57.5213Z" fill="#040404"/>
        <path d="M76.2771 58.0261C77.0999 57.3903 78.1845 57.4464 79.1569 57.596C79.1008 57.97 79.026 58.344 78.9512 58.718C78.3341 58.6058 77.6235 58.4749 77.0999 58.8676C76.5389 59.3351 76.5576 60.1205 76.5389 60.775C77.1934 60.775 77.8479 60.775 78.5024 60.775C78.5024 61.149 78.5024 61.523 78.5024 61.897C77.8479 61.897 77.2121 61.897 76.5576 61.897C76.5576 64.3093 76.5576 66.7029 76.5576 69.0965C76.1649 69.0965 75.7535 69.0965 75.3608 69.0965C75.3608 66.7029 75.3608 64.2906 75.3608 61.897C74.7811 61.897 74.1827 61.897 73.603 61.897C73.603 61.523 73.603 61.149 73.603 60.775C74.1827 60.775 74.7811 60.775 75.3608 60.775C75.3047 59.8026 75.473 58.6806 76.2958 58.0261H76.2771Z" fill="#040404"/>
        <path d="M99.4279 57.5025H100.643C100.643 59.0172 100.643 60.5319 100.643 62.0466C101.298 61.149 102.364 60.5506 103.486 60.5693C104.421 60.5693 105.449 60.8498 106.01 61.6539C106.665 62.5702 106.59 63.7483 106.59 64.8142V69.0965C106.179 69.0965 105.786 69.0965 105.374 69.0965C105.374 67.5631 105.374 66.0297 105.374 64.4963C105.337 63.6922 105.3 62.7759 104.701 62.1775C103.86 61.4482 102.513 61.5417 101.672 62.2149C100.905 62.832 100.643 63.8792 100.625 64.8142C100.625 66.2354 100.625 67.6566 100.625 69.0965C100.213 69.0965 99.8206 69.0965 99.4092 69.0965V57.4838L99.4279 57.5025Z" fill="#040404"/>
        <path d="M110.068 57.5586C110.648 57.2407 111.415 57.783 111.302 58.4375C111.302 59.1107 110.405 59.4473 109.9 59.0359C109.395 58.6619 109.489 57.8204 110.05 57.5586H110.068Z" fill="#040404"/>
        <path d="M164.915 57.5586C165.495 57.2407 166.262 57.8017 166.15 58.4562C166.112 59.1668 165.102 59.5034 164.654 58.9611C164.224 58.5684 164.373 57.783 164.915 57.5773V57.5586Z" fill="#040404"/>
        <path d="M160.109 57.6334C160.521 57.6334 160.913 57.6147 161.325 57.6334V69.1339C160.932 69.1339 160.521 69.1339 160.128 69.1339C160.128 65.3004 160.128 61.4856 160.128 57.6521L160.109 57.6334Z" fill="#040404"/>
        <path d="M17.5407 61.3548C18.4196 60.5694 19.6912 60.4571 20.7945 60.6628C21.6173 60.8124 22.2905 61.3547 22.7019 62.0653C22.3466 62.3271 21.9726 62.5703 21.6173 62.7947C21.075 61.6353 19.4294 61.2987 18.4757 62.1215C17.9708 62.5516 18.0269 63.4865 18.644 63.8044C19.766 64.4215 21.1872 64.2346 22.197 65.0761C23.3564 65.9924 23.1694 68.0493 21.8978 68.7786C21.0563 69.3583 20.0091 69.2648 19.0554 69.2461C18.0082 69.2274 17.0732 68.5543 16.5122 67.7128C16.8488 67.4697 17.2041 67.2266 17.5594 67.0022C18.2513 68.1616 19.8595 68.6104 21.0189 67.9185C21.6547 67.6006 21.9165 66.6282 21.3368 66.1233C20.6823 65.581 19.8034 65.5436 19.018 65.3192C18.1765 65.1322 17.2602 64.7021 16.9423 63.8419C16.6805 63.0004 16.8675 61.9719 17.5594 61.3735L17.5407 61.3548Z" fill="#040404"/>
        <path d="M25.9554 61.9531C27.5636 60.0831 30.8548 60.0831 32.4069 62.0279C32.0703 62.2897 31.7337 62.5328 31.4158 62.7759C30.4808 61.3734 28.2929 61.336 27.1522 62.5141C25.8432 63.8979 25.918 66.4224 27.4327 67.6379C28.6108 68.5729 30.5369 68.4046 31.4158 67.133C31.7524 67.3761 32.089 67.6379 32.4069 67.8997C31.7524 68.5916 30.8922 69.2087 29.9011 69.2461C28.91 69.2835 27.8441 69.3396 26.9652 68.7786C24.6277 67.4696 24.2724 63.9353 25.9554 61.9718V61.9531Z" fill="#040404"/>
        <path d="M41.0652 61.4482C39.9245 60.588 38.3911 60.3823 37.026 60.7189C36.1097 60.9433 35.2682 61.4856 34.7072 62.271C33.7535 63.58 33.6039 65.3939 34.2584 66.8712C34.782 68.0306 35.8666 68.9282 37.1008 69.19C37.8675 69.2648 38.6529 69.2835 39.4196 69.19C40.7847 68.9095 41.9628 67.881 42.4303 66.5533C43.0848 64.7955 42.5986 62.6076 41.0652 61.4482ZM40.579 67.2452C39.5505 68.4233 37.587 68.5542 36.3528 67.6005C35.1934 66.6842 34.8942 64.9638 35.4178 63.6174C35.7357 62.7572 36.4463 62.0653 37.3252 61.8035C38.4285 61.4669 39.7375 61.7474 40.5416 62.6076C41.6636 63.8605 41.6823 65.9549 40.579 67.2265V67.2452Z" fill="#040404"/>
        <path d="M60.6252 65.3004C60.7 63.9914 60.4008 62.5889 59.4471 61.6539C58.1568 60.3823 55.9876 60.2514 54.4729 61.1677C52.6777 62.2336 52.0232 64.6459 52.7151 66.5533C53.1452 67.8249 54.2298 68.816 55.5201 69.1713C56.1185 69.3022 56.7543 69.2461 57.3527 69.2461C58.5682 69.2461 59.6341 68.4794 60.3634 67.5631C60.0642 67.3013 59.7463 67.0582 59.4284 66.7964C58.6804 67.881 57.2592 68.5168 55.9689 68.1241C54.716 67.7875 53.8558 66.572 53.7249 65.3004C56.025 65.3004 58.3438 65.3004 60.6439 65.3004H60.6252ZM53.7249 64.2719C53.8371 62.9068 55.0713 61.7848 56.4177 61.6726C57.2592 61.6165 58.1568 61.8596 58.6991 62.5328C59.1292 63.0003 59.2601 63.6548 59.3162 64.2532C57.4462 64.2532 55.5762 64.2532 53.7062 64.2532L53.7249 64.2719Z" fill="#040404"/>
        <path d="M65.6933 60.8686C66.3852 60.5133 67.1893 60.5507 67.9373 60.6442C67.8625 61.0369 67.7877 61.4483 67.7129 61.841C67.1893 61.7849 66.6283 61.7288 66.1234 61.9345C65.1323 62.2898 64.4778 63.337 64.4778 64.3655C64.4778 65.955 64.4778 67.5445 64.4778 69.1153C64.0851 69.1153 63.6737 69.1153 63.281 69.1153C63.281 66.329 63.3371 63.5614 63.1875 60.7751C63.5989 60.7751 63.9916 60.7751 64.403 60.7751C64.403 61.2426 64.403 61.7288 64.403 62.1963C64.7209 61.654 65.1136 61.1304 65.712 60.8686H65.6933Z" fill="#040404"/>
        <path d="M88.1704 60.7749C87.759 60.7749 87.3663 60.7749 86.9549 60.7749C86.9549 61.0367 86.9549 61.3173 86.9549 61.5791C85.1971 60.1579 82.336 60.214 80.7465 61.8783C78.9139 63.7669 79.2505 67.3199 81.5506 68.685C82.5417 69.3582 83.7572 69.2835 84.8979 69.2274C85.6646 69.1713 86.3378 68.7598 86.9549 68.311C86.9549 68.5728 86.9549 68.8533 86.9549 69.1151C87.3476 69.1151 87.759 69.1151 88.1517 69.1151C88.1891 66.3288 88.1517 63.5612 88.1517 60.7749H88.1704ZM85.9451 67.5631C84.8231 68.4794 83.0466 68.4606 81.9433 67.5069C80.8774 66.5719 80.6156 64.945 81.1018 63.636C81.401 62.7945 82.1116 62.084 82.9718 61.8222C84.1499 61.4482 85.5898 61.766 86.3565 62.7758C87.4411 64.1596 87.3102 66.4224 85.9264 67.5631H85.9451Z" fill="#040404"/>
        <path d="M91.4993 61.4295C92.3782 60.588 93.6872 60.4571 94.8466 60.6628C95.6507 60.8124 96.3426 61.3547 96.7353 62.0653C96.38 62.3271 96.006 62.5702 95.6507 62.7946C95.1084 61.6352 93.4815 61.2986 92.5091 62.1027C91.9855 62.5328 92.0416 63.4678 92.6587 63.7857C93.8368 64.4215 95.3889 64.2158 96.38 65.2256C97.0158 65.8427 97.128 66.8338 96.8475 67.6379C96.4735 68.6664 95.3328 69.2461 94.2856 69.2274C93.5002 69.2274 92.6774 69.3022 91.9668 68.9469C91.3684 68.6664 90.9009 68.2176 90.5269 67.6753C90.8635 67.4322 91.2188 67.1891 91.5741 66.9647C92.266 68.1615 93.9677 68.5916 95.1271 67.8249C95.7068 67.4696 95.8938 66.5533 95.3515 66.0858C94.697 65.5435 93.8181 65.5061 93.0327 65.2817C92.1912 65.0947 91.2936 64.6459 90.957 63.8044C90.7139 63.0003 90.8635 62.0092 91.4993 61.4108V61.4295Z" fill="#040404"/>
        <path d="M121.082 61.5417C119.942 60.6067 118.352 60.3823 116.968 60.7189C116.071 60.9433 115.248 61.4482 114.687 62.1775C113.172 64.1036 113.565 67.32 115.697 68.629C116.706 69.3396 118.015 69.2648 119.194 69.2087C120.577 69.003 121.793 67.9932 122.316 66.6842C122.99 64.9451 122.597 62.7385 121.101 61.5417H121.082ZM120.11 67.6005C119.025 68.442 117.38 68.442 116.295 67.6005C115.061 66.6281 114.78 64.7581 115.435 63.3743C115.771 62.6076 116.463 62.0279 117.249 61.8035C118.371 61.4856 119.68 61.7474 120.465 62.6263C121.681 64.0101 121.568 66.4224 120.11 67.5818V67.6005Z" fill="#040404"/>
        <path d="M126.449 62.0466C127.048 61.2986 127.889 60.7001 128.88 60.6066C129.853 60.5131 130.956 60.6815 131.667 61.4482C132.265 62.1214 132.415 63.0376 132.433 63.8978C132.433 65.6369 132.433 67.376 132.433 69.1151C132.022 69.1151 131.629 69.1151 131.218 69.1151C131.218 67.5256 131.218 65.9361 131.218 64.3653C131.18 63.5799 131.106 62.701 130.489 62.14C129.554 61.4107 128.076 61.5978 127.272 62.458C126.636 63.1312 126.487 64.1035 126.468 65.0011C126.468 66.3849 126.468 67.7501 126.468 69.1339C126.075 69.1339 125.664 69.1339 125.271 69.1339C125.215 66.3476 125.365 63.5612 125.178 60.7936C125.589 60.7936 126.019 60.7936 126.449 60.7936C126.468 61.205 126.487 61.6351 126.468 62.0652L126.449 62.0466Z" fill="#040404"/>
        <path d="M145.729 61.5417C144.589 60.6067 142.999 60.3823 141.597 60.7376C140.605 60.9807 139.689 61.6165 139.147 62.4767C137.838 64.4402 138.361 67.507 140.475 68.7038C141.466 69.377 142.7 69.2835 143.841 69.2087C145.318 69.003 146.608 67.8623 147.057 66.4411C147.618 64.7394 147.169 62.6637 145.748 61.5417H145.729ZM145.15 67.2265C144.14 68.3859 142.251 68.5355 141.017 67.6566C139.764 66.7403 139.446 64.9077 140.026 63.5052C140.344 62.6824 141.054 62.0466 141.877 61.8035C142.98 61.4669 144.308 61.7287 145.112 62.6076C146.215 63.8605 146.253 65.9549 145.15 67.2265Z" fill="#040404"/>
        <path d="M150.872 62.0653C151.47 61.2799 152.349 60.6815 153.359 60.6067C154.331 60.5319 155.416 60.7189 156.108 61.4669C156.725 62.1588 156.856 63.1499 156.856 64.0475C156.856 65.7492 156.856 67.4322 156.856 69.1152C156.463 69.1152 156.051 69.1152 155.659 69.1152C155.659 67.5818 155.659 66.0484 155.659 64.515C155.621 63.6922 155.584 62.7572 154.948 62.1588C153.957 61.3547 152.368 61.6165 151.601 62.6076C151.059 63.2808 150.928 64.1597 150.909 65.0012C150.909 66.385 150.909 67.7501 150.909 69.1339C150.516 69.1339 150.105 69.1339 149.712 69.1339C149.656 66.3476 149.806 63.58 149.619 60.7937H150.872C150.909 61.2238 150.909 61.6539 150.89 62.084L150.872 62.0653Z" fill="#040404"/>
        <path d="M170.32 62.0653C170.974 61.1303 172.115 60.5132 173.274 60.588C174.172 60.588 175.126 60.8872 175.668 61.6352C176.21 62.3645 176.266 63.3369 176.285 64.2158C176.285 65.8427 176.285 67.4883 176.285 69.1152C175.892 69.1152 175.481 69.1152 175.088 69.1152C175.069 67.5444 175.107 65.9549 175.069 64.3654C175.051 63.5613 174.957 62.645 174.303 62.084C173.293 61.336 171.722 61.6165 170.974 62.6263C170.488 63.2434 170.338 64.0662 170.32 64.8329C170.32 66.2541 170.32 67.6753 170.32 69.1152C169.908 69.1152 169.515 69.1152 169.104 69.1152C169.067 66.3289 169.198 63.5613 169.029 60.775C169.441 60.775 169.871 60.775 170.282 60.775C170.32 61.2051 170.32 61.6352 170.32 62.0653Z" fill="#040404"/>
        <path d="M186.869 65.3004C186.963 64.1971 186.869 63.0003 186.14 62.1027C184.775 60.214 181.745 60.1018 180.119 61.6913C178.118 63.5239 178.361 67.2078 180.68 68.6664C181.689 69.3957 182.998 69.3022 184.195 69.2087C185.205 69.0404 186.028 68.3298 186.682 67.5818C186.383 67.32 186.065 67.0582 185.747 66.7964C185.018 67.8436 183.672 68.4794 182.4 68.1615C181.091 67.8623 180.175 66.6094 180.044 65.3191C182.325 65.3191 184.607 65.3191 186.888 65.3191L186.869 65.3004ZM180.062 64.2719C180.193 62.6637 181.858 61.4482 183.428 61.6913C184.12 61.7848 184.794 62.1214 185.186 62.7198C185.523 63.1686 185.598 63.7296 185.672 64.2719C183.802 64.2719 181.932 64.2719 180.062 64.2719Z" fill="#040404"/>
        <path d="M12.7349 60.775C13.1463 60.775 13.539 60.775 13.9504 60.775C13.9504 63.5613 13.9504 66.3289 13.9504 69.1152C13.5577 69.1152 13.1463 69.1152 12.7536 69.1152C12.7536 66.3289 12.7536 63.5613 12.7536 60.775H12.7349Z" fill="#040404"/>
        <path d="M43.459 60.775C43.9265 60.775 44.4127 60.775 44.8802 60.775C45.0111 60.9246 45.0485 61.1303 45.142 61.3173C45.9461 63.4678 46.7502 65.6183 47.573 67.7501C48.4332 65.4126 49.3308 63.0938 50.2097 60.775C50.6772 60.775 51.1447 60.775 51.5935 60.775C50.4528 63.5613 49.3308 66.3289 48.2088 69.1152H46.8437C45.7217 66.3289 44.5997 63.5613 43.459 60.775Z" fill="#040404"/>
        <path d="M109.825 60.775C110.218 60.775 110.629 60.775 111.041 60.775C111.041 63.5613 111.041 66.3289 111.041 69.1152C110.648 69.1152 110.237 69.1152 109.844 69.1152C109.844 66.3289 109.844 63.5613 109.844 60.775H109.825Z" fill="#040404"/>
        <path d="M164.672 60.775C165.065 60.775 165.476 60.775 165.888 60.775C165.888 63.5613 165.888 66.3289 165.888 69.1152C165.495 69.1152 165.084 69.1152 164.691 69.1152C164.691 66.3289 164.691 63.5613 164.691 60.775H164.672Z" fill="#040404"/>
    </g>
    <defs>
        <clipPath id="clip0_225_695">
            <rect width="187" height="69.2648" fill="white"/>
        </clipPath>
    </defs>
</svg>
