<svg width="187" height="36" viewBox="0 0 187 36" fill="none" xmlns="http://www.w3.org/2000/svg">
    <g clip-path="url(#clip0_232_1300)">
        <path d="M102.863 17.2901C102.863 7.75075 111.07 0 120.644 0C130.219 0 138.426 7.75075 138.426 17.2901C138.426 26.8295 130.219 34.5803 120.644 34.5803C111.07 34.5803 102.863 26.8295 102.863 17.2901ZM136.532 17.2901C136.532 8.6626 129.272 1.68342 120.644 1.68342C112.017 1.68342 104.757 8.6626 104.757 17.2901C104.757 25.9177 112.052 32.8968 120.644 32.8968C129.237 32.8968 136.532 25.9177 136.532 17.2901Z" fill="#CA006C"/>
        <path d="M69.3015 22.3752L64.8825 31.9146L60.4285 22.3752L50.6085 1.71826H48.6445L64.7773 35.562H64.9527L81.0855 1.71826H79.1215L69.3015 22.3752Z" fill="#CA006C"/>
        <path d="M185.176 0.771568V17.3252L185.281 30.4068L156.453 0H156.242V34.6153H158.066V17.3252L157.996 4.24362L186.824 34.6153H187V0.771568H185.176Z" fill="#CA006C"/>
        <path d="M1.96399 34.6153H0L16.1328 0.981934H16.3432L32.4409 34.6153H30.4769L25.9878 25.1811H6.45311L1.96399 34.6153ZM7.15454 23.7432H25.2864L20.692 14.0284L16.2029 4.45399L11.7839 14.0284L7.15454 23.7783V23.7432Z" fill="#CA006C"/>
    </g>
    <defs>
        <clipPath id="clip0_232_1300">
            <rect width="187" height="35.5623" fill="white"/>
        </clipPath>
    </defs>
</svg>
