
<svg width="187" height="24" viewBox="0 0 187 24" fill="none" xmlns="http://www.w3.org/2000/svg">
    <g clip-path="url(#clip0_217_158)">
        <path d="M12.1855 10.8264V10.7327C13.9195 10.0297 15.0444 8.34247 15.0444 6.04598C15.0444 2.81214 13.404 0.703125 8.57669 0.703125H0V21.6527H8.62356C13.9195 21.6527 16.0286 19.5437 16.0286 15.935C16.0754 13.7322 14.9506 11.342 12.1855 10.8264ZM2.01529 2.57781H8.90476C11.7168 2.57781 13.0291 3.84323 13.0291 6.09285C13.0291 8.62368 11.5293 10.1703 8.57669 10.2172H1.96842V2.57781H2.01529ZM8.85789 19.7781H2.01529V12.045H9.1391C12.5604 12.045 14.0602 13.5916 14.0602 15.9818C14.0602 18.5127 12.4198 19.7781 8.85789 19.7781Z" fill="black"/>
        <path d="M20.7622 21.6527H34.8224V19.7781H22.7775V11.9981H33.6975V10.1234H22.7775V2.57781H34.8224V0.703125H20.7622V21.6527Z" fill="black"/>
        <path d="M76.2528 13.1698C76.2528 18.2783 73.4408 20.1999 69.5039 20.1999C66.1295 20.1999 62.8957 18.2314 62.8957 13.1698V0.703125H60.8804V12.9355C60.8804 18.9813 64.1611 22.0746 69.4571 22.0746C75.1749 22.0746 78.2212 18.9813 78.2212 12.9355V0.703125H76.2059V13.1698H76.2528Z" fill="black"/>
        <path d="M82.0176 2.53094H89.1414V21.6527H91.1567V2.53094H98.2805V0.703125H82.0176V2.53094Z" fill="black"/>
        <path d="M110.653 12.1856L103.53 0.703125H101.374L109.622 14.154V21.6527H111.638V14.154L119.933 0.703125H117.73L110.653 12.1856Z" fill="black"/>
        <path d="M125.698 0.703125H123.682V21.6527H137.274V19.7781H125.698V0.703125Z" fill="black"/>
        <path d="M158.505 9.93587C154.427 9.37346 152.974 7.77999 152.974 5.81157C152.974 3.51507 155.13 2.01532 157.849 2.01532C160.098 2.01532 162.02 2.9058 163.426 4.21808L164.832 2.81207C162.91 1.12485 160.379 0.234375 157.802 0.234375C153.537 0.234375 151.006 2.85893 151.006 6.0459C151.006 8.71733 152.834 10.9201 157.661 11.6231C162.348 12.2792 163.988 13.779 163.988 16.3098C163.988 18.5594 161.926 20.2935 158.552 20.2935C155.74 20.2935 153.115 18.9344 151.803 17.294L150.256 18.6532C151.896 20.6216 154.99 22.0745 158.224 22.0745C163.332 22.0745 165.863 19.778 165.863 16.0755C166.003 12.5604 163.098 10.592 158.505 9.93587Z" fill="black"/>
        <path d="M184.985 0.703125V10.264H172.752V0.703125H170.737V21.6527H172.752V12.1387H184.985V21.6527H187V0.703125H184.985Z" fill="black"/>
        <path d="M145.101 10.8262C145.101 10.873 145.054 10.873 145.101 10.9199H145.148C145.148 10.873 145.194 10.8262 145.101 10.8262Z" fill="black"/>
        <path d="M145.007 12.5137C145.007 12.6074 144.913 12.5605 144.913 12.6543C145.054 12.7011 145.101 12.5605 145.007 12.5137Z" fill="black"/>
        <path d="M144.96 12.9353C145.007 12.9353 144.96 13.0759 145.054 13.0291C145.101 13.0291 145.101 12.9822 145.148 12.9822C145.148 12.8885 145.148 12.7947 145.148 12.701C145.101 12.701 145.101 12.6541 145.054 12.701C145.101 12.7947 145.007 12.8416 144.96 12.9353Z" fill="black"/>
        <path d="M141.961 14.2006C142.008 14.1538 142.054 13.9194 141.961 13.9194H141.914C141.867 14.0132 141.82 14.1538 141.961 14.2006Z" fill="black"/>
        <path d="M145.148 14.1541C145.148 14.1072 145.194 14.0604 145.194 14.0135C145.148 14.0135 145.148 13.9666 145.101 14.0135C145.007 14.0604 145.054 14.1541 145.148 14.1541Z" fill="black"/>
        <path d="M144.679 14.9976C144.585 15.0444 144.585 15.2788 144.679 15.2788C144.679 15.3725 144.726 15.4194 144.726 15.5131C144.866 15.5131 144.913 15.6068 145.054 15.6068C145.101 15.5131 145.101 15.3725 145.148 15.2788C145.007 15.185 144.96 14.9976 144.679 14.9976Z" fill="black"/>
        <path d="M144.913 15.9819C144.82 15.9819 144.82 16.0757 144.913 16.0757C144.866 16.0757 144.913 16.0288 144.913 15.9819Z" fill="black"/>
        <path d="M144.163 16.7314C144.163 16.7783 144.117 16.7783 144.163 16.7783H144.21C144.21 16.7783 144.21 16.7314 144.163 16.7314C144.21 16.7314 144.21 16.7314 144.163 16.7314Z" fill="black"/>
        <path d="M144.304 17.247C144.351 17.247 144.445 17.2001 144.445 17.2001C144.445 17.2001 144.445 17.1064 144.491 17.1533C144.585 17.1064 144.538 17.247 144.632 17.247C144.679 17.247 144.679 17.247 144.726 17.247C144.819 17.1064 144.726 16.9658 144.726 16.7783C144.632 16.7783 144.491 16.7783 144.445 16.7783C144.445 16.8252 144.491 16.8252 144.445 16.8721C144.398 16.9189 144.351 17.0127 144.304 17.0595C144.257 17.0595 144.21 17.1064 144.163 17.1064C144.21 17.2001 144.21 17.2001 144.304 17.247Z" fill="black"/>
        <path d="M144.304 17.2938C144.351 17.4344 144.257 17.5281 144.304 17.575C144.445 17.575 144.398 17.3875 144.538 17.4813C144.585 17.4344 144.585 17.3875 144.585 17.2938C144.445 17.2469 144.398 17.3407 144.304 17.2938Z" fill="black"/>
        <path d="M145.007 17.3877H144.96C144.96 17.4346 144.96 17.4814 145.007 17.4814C144.96 17.4814 145.007 17.4346 145.007 17.3877Z" fill="black"/>
        <path d="M144.116 17.3877V17.4346C144.163 17.5283 144.163 17.3877 144.116 17.3877Z" fill="black"/>
        <path d="M144.07 17.6221C144.07 17.5752 144.023 17.5752 144.07 17.5752H144.023V17.6221C144.023 17.6689 144.023 17.6689 144.07 17.6221Z" fill="black"/>
        <path d="M144.163 17.8564C144.257 17.8564 144.257 17.7627 144.257 17.6689C144.21 17.6689 144.163 17.6689 144.116 17.6689C144.163 17.7627 144.163 17.8096 144.163 17.8564Z" fill="black"/>
        <path d="M145.054 17.997C145.101 17.9502 145.054 17.9033 145.054 17.8564C144.913 17.9033 145.007 17.7158 144.913 17.7158C144.866 17.8096 144.913 17.997 145.054 17.997Z" fill="black"/>
        <path d="M144.538 18.2781C144.538 18.1375 144.538 18.0438 144.538 17.9032C144.492 17.9032 144.445 17.8563 144.351 17.9032C144.351 17.95 144.351 18.0906 144.304 18.1375C144.304 18.1844 144.163 18.1375 144.21 18.1844C144.117 18.2312 144.21 18.3718 144.21 18.4187C144.21 18.5124 144.163 18.4656 144.21 18.5124C144.257 18.5593 144.21 18.6062 144.304 18.6062C144.351 18.5593 144.304 18.5124 144.304 18.4656C144.445 18.4656 144.492 18.3718 144.538 18.2781ZM144.304 18.1844C144.351 18.1844 144.351 18.2312 144.351 18.2312C144.257 18.2781 144.257 18.2312 144.304 18.1844Z" fill="black"/>
        <path d="M142.898 17.9971C142.898 18.1377 142.71 18.0439 142.71 18.1377C142.71 18.1845 142.804 18.1845 142.851 18.2314C142.804 18.2314 142.757 18.2783 142.757 18.3251C142.804 18.3251 142.851 18.3251 142.851 18.3251C142.898 18.2783 143.085 18.1377 142.898 17.9971Z" fill="black"/>
        <path d="M144.632 18.2314C144.632 18.2783 144.632 18.3252 144.632 18.3252C144.726 18.3252 144.679 18.2783 144.773 18.2783C144.773 18.3252 144.773 18.372 144.82 18.372C144.913 18.372 145.007 18.2314 144.913 18.1377C144.773 18.1377 144.773 18.1846 144.726 18.2314C144.726 18.2314 144.679 18.2314 144.632 18.2314Z" fill="black"/>
        <path d="M142.57 18.4658C142.617 18.4189 142.57 18.3721 142.57 18.3252C142.523 18.3252 142.476 18.3252 142.476 18.3252C142.476 18.3721 142.476 18.4189 142.476 18.4189C142.523 18.4189 142.476 18.5127 142.57 18.4658Z" fill="black"/>
        <path d="M143.085 18.3251V18.372C143.179 18.4189 143.179 18.2783 143.085 18.3251Z" fill="black"/>
        <path d="M143.039 18.5596C143.085 18.5596 143.132 18.6064 143.179 18.6064C143.226 18.5595 143.226 18.4658 143.179 18.4189C143.179 18.5127 143.085 18.4658 143.039 18.5596Z" fill="black"/>
        <path d="M143.367 18.5127C143.367 18.5599 143.367 18.5599 143.367 18.5127C143.367 18.5599 143.414 18.5599 143.414 18.5599C143.414 18.5127 143.414 18.5127 143.367 18.5127Z" fill="black"/>
        <path d="M144.96 18.6061C144.913 18.6061 144.819 18.6061 144.773 18.6061C144.632 18.4655 144.538 18.6529 144.398 18.6998C144.398 18.7935 144.351 18.8873 144.257 18.9341C144.257 19.0747 144.21 19.1216 144.21 19.2622C144.163 19.2154 144.116 19.2622 144.116 19.2622C144.304 19.2622 144.116 19.4497 144.21 19.5434C144.257 19.5434 144.304 19.4966 144.351 19.4966C144.351 19.4028 144.398 19.3559 144.445 19.3091C144.445 19.2153 144.445 19.1685 144.445 19.1216C144.538 19.0747 144.585 19.0279 144.679 19.0279C144.773 19.0748 144.773 19.1685 144.773 19.2622C144.819 19.2622 144.819 19.2622 144.913 19.3091C144.866 19.1216 144.913 19.0747 144.913 18.9341C144.96 18.8873 145.007 18.8873 145.007 18.8404C145.007 18.7467 145.007 18.6529 144.96 18.6061Z" fill="black"/>
        <path d="M142.336 18.6533C142.383 18.6533 142.429 18.7002 142.523 18.7002C142.523 18.6533 142.523 18.6533 142.523 18.6065C142.476 18.5596 142.383 18.5596 142.336 18.6533Z" fill="black"/>
        <path d="M142.851 18.6065C142.851 18.6533 142.851 18.7002 142.851 18.7002C142.898 18.7002 142.945 18.7002 142.992 18.6533C142.992 18.5596 142.898 18.5596 142.851 18.6065Z" fill="black"/>
        <path d="M143.929 18.7471C143.976 18.7002 144.023 18.7002 143.976 18.7002H143.929V18.7471Z" fill="black"/>
        <path d="M143.414 18.7939C143.367 18.7939 143.32 18.7471 143.273 18.7471C143.273 18.7939 143.273 18.8408 143.273 18.8877C143.32 18.9345 143.32 18.7939 143.414 18.7939Z" fill="black"/>
        <path d="M142.945 18.8875C142.898 18.8875 142.898 18.8407 142.851 18.8875C142.851 18.9344 142.945 18.9344 142.945 18.8875Z" fill="black"/>
        <path d="M143.742 18.8877C143.742 18.9346 143.742 18.9814 143.742 19.0283C143.835 19.0752 143.789 18.9346 143.742 18.8877Z" fill="black"/>
        <path d="M143.742 19.1216C143.695 19.2153 143.789 19.3091 143.882 19.3559C143.976 19.2622 143.835 19.2153 143.835 19.1685C143.789 19.1216 143.789 19.1216 143.742 19.1216Z" fill="black"/>
        <path d="M144.96 19.4501C144.96 19.4501 144.866 19.4032 144.866 19.497C144.866 19.5439 144.96 19.4501 144.913 19.5438C145.007 19.5438 145.007 19.497 145.054 19.5438C145.054 19.497 145.054 19.4501 145.054 19.4501C145.007 19.3564 144.96 19.4032 144.96 19.4501Z" fill="black"/>
        <path d="M142.898 19.6843C142.992 19.6843 142.992 19.6375 142.992 19.5906C143.039 19.5906 143.085 19.5906 143.039 19.5437C142.945 19.4968 142.898 19.5906 142.898 19.6843Z" fill="black"/>
        <path d="M144.304 19.6372C144.257 19.6841 144.21 19.7778 144.116 19.7778C144.116 19.8715 144.163 19.9184 144.163 20.059C144.21 20.059 144.257 20.059 144.257 20.1059C144.21 20.1996 144.257 20.2934 144.304 20.3871C144.398 20.3871 144.445 20.2465 144.445 20.1527C144.398 20.1059 144.351 20.1059 144.351 20.059C144.398 20.059 144.398 20.0121 144.398 20.059C144.445 20.059 144.398 20.1527 144.491 20.1527C144.632 20.059 144.491 19.9184 144.491 19.7778C144.491 19.6841 144.351 19.6841 144.304 19.6372Z" fill="black"/>
        <path d="M143.273 19.6841C143.273 19.6841 143.226 19.8715 143.273 19.8715C143.367 19.8247 143.32 19.6841 143.273 19.6841Z" fill="black"/>
        <path d="M144.82 19.8716C144.773 20.1528 144.82 20.2934 144.82 20.5746C144.96 20.5277 144.913 20.2934 144.913 20.1997C145.007 20.1059 144.96 19.8716 144.82 19.8716Z" fill="black"/>
        <path d="M143.32 20.3403C143.226 20.3403 143.226 20.3403 143.273 20.4341C143.32 20.4341 143.32 20.3872 143.32 20.3403Z" fill="black"/>
        <path d="M143.835 20.3405C143.835 20.3874 143.835 20.4811 143.882 20.4811C143.835 20.4342 143.929 20.2936 143.835 20.3405Z" fill="black"/>
        <path d="M144.445 20.809C144.398 20.7622 144.351 20.6684 144.304 20.6216C144.304 20.5747 144.304 20.5747 144.304 20.5278C144.257 20.5278 144.257 20.481 144.21 20.481C144.07 20.5747 144.163 20.9028 144.07 21.0434C144.116 21.0434 144.116 21.0902 144.163 21.1371C144.21 21.1371 144.257 21.1371 144.304 21.1371C144.351 21.1371 144.398 21.2308 144.445 21.184V21.1371C144.445 21.0434 144.398 20.9965 144.351 20.9496C144.398 20.8559 144.445 20.9028 144.445 20.809Z" fill="black"/>
        <path d="M143.273 20.6216C143.32 20.6216 143.414 20.6216 143.414 20.5747C143.367 20.5278 143.367 20.5747 143.273 20.5278C143.226 20.5278 143.226 20.5747 143.273 20.6216Z" fill="black"/>
        <path d="M144.632 20.8563H144.679V20.8091H144.632V20.8563Z" fill="black"/>
        <path d="M144.257 21.3246C144.257 21.2777 144.163 21.2777 144.163 21.2308C144.163 21.184 144.163 21.1371 144.117 21.184C144.07 21.2777 144.117 21.4652 144.117 21.5589C144.163 21.5589 144.163 21.6058 144.21 21.5589C144.257 21.512 144.257 21.4183 144.257 21.3246Z" fill="black"/>
        <path d="M143.132 21.5122C143.179 21.5122 143.179 21.5591 143.226 21.5122C143.226 21.4653 143.226 21.4653 143.226 21.4185C143.179 21.4185 143.179 21.4185 143.132 21.4185C143.132 21.4653 143.132 21.4653 143.132 21.5122Z" fill="black"/>
        <path d="M142.992 21.6528C143.039 21.6528 143.085 21.6997 143.085 21.7466C143.132 21.6997 143.226 21.7466 143.226 21.606C143.132 21.5591 143.085 21.5591 142.992 21.6528Z" fill="black"/>
        <path d="M143.085 21.7466C143.085 21.7934 142.992 21.7466 142.992 21.8403C143.039 21.8403 143.085 21.8403 143.132 21.8403C143.132 21.7935 143.132 21.7934 143.085 21.7466Z" fill="black"/>
        <path d="M142.195 22.168C142.289 22.168 142.148 22.3086 142.195 22.168Z" fill="black"/>
        <path d="M142.289 22.4492C142.289 22.4961 142.242 22.4961 142.289 22.543H142.336C142.336 22.4492 142.336 22.4492 142.289 22.4492Z" fill="black"/>
        <path d="M145.148 11.2482C145.148 11.2013 145.101 11.2013 145.101 11.1544C145.101 11.1076 145.148 11.1076 145.148 11.0607C145.101 10.967 145.007 10.9201 144.866 10.9201C144.82 10.8264 144.773 10.7795 144.773 10.6858C144.679 10.6858 144.632 10.6389 144.585 10.592C144.585 10.4514 144.398 10.4046 144.398 10.264C144.538 10.3108 144.538 10.2639 144.632 10.2171C144.679 10.2639 144.679 10.4046 144.679 10.4983C144.726 10.5452 144.726 10.6389 144.82 10.6389C144.866 10.592 144.82 10.4983 144.913 10.4983C145.007 10.4983 144.96 10.6389 145.007 10.6858C145.054 10.6858 145.148 10.6858 145.148 10.6858C145.195 10.6389 145.148 10.592 145.148 10.4983C145.148 10.4514 145.054 10.4046 145.054 10.3577C145.101 10.3108 145.101 10.264 145.148 10.264C145.148 10.2171 145.148 10.1234 145.101 10.1234C145.054 10.1234 145.101 10.2639 145.007 10.2171C144.96 10.2171 144.866 10.2171 144.866 10.2171L144.773 10.0765C144.773 10.0296 144.726 9.98274 144.773 9.93588C144.726 9.88901 144.679 9.93588 144.679 9.84215C144.679 9.79528 144.679 9.74841 144.726 9.74841C144.726 9.84214 144.866 9.79527 144.866 9.93588C144.913 9.93588 144.96 9.98275 145.007 9.98275C145.054 9.98275 145.148 9.93589 145.148 9.88902C145.148 9.84215 145.101 9.70155 145.148 9.60781C145.195 9.56095 145.241 9.46721 145.241 9.42035C145.195 9.32661 145.101 9.3266 145.101 9.23287C145.195 9.23287 145.195 9.13914 145.195 9.0454C145.148 8.99853 145.101 8.99854 145.101 8.95168C145.007 8.95168 144.96 8.95168 144.866 8.95168C144.866 8.90481 144.82 8.85794 144.773 8.85794C144.726 8.71733 144.632 8.6236 144.492 8.57673C144.492 8.52986 144.445 8.43614 144.492 8.483C144.585 8.483 144.538 8.52986 144.632 8.52986C144.726 8.52986 144.726 8.48299 144.773 8.52986C144.913 8.52986 144.866 8.62361 144.96 8.71734C145.007 8.76421 145.007 8.7642 145.101 8.7642C145.101 8.71733 145.148 8.57673 145.101 8.52986C145.101 8.48299 145.195 8.483 145.148 8.43613C145.101 8.38927 145.101 8.29553 145.054 8.2018C144.913 8.2018 144.913 8.29552 144.82 8.29552C144.726 8.15492 144.538 8.15493 144.492 7.96746C144.538 7.9206 144.585 7.87372 144.632 7.82685C144.773 7.87372 144.82 7.96746 145.007 7.96746C145.101 7.87373 145.054 7.59253 145.007 7.49879C144.96 7.45192 144.96 7.54566 144.866 7.54566C144.773 7.54566 144.679 7.54566 144.632 7.54566C144.632 7.35819 144.632 7.17071 144.773 7.12385C144.773 7.17071 144.82 7.17072 144.82 7.21759H144.866C144.866 7.26445 144.866 7.35819 144.96 7.31133C145.054 7.26446 145.007 6.98324 144.96 6.88951C144.866 6.88951 144.866 6.93638 144.82 6.93638C144.726 6.84264 144.538 6.84265 144.538 6.60832C144.585 6.51458 144.679 6.65518 144.82 6.60832C144.913 6.56145 144.913 6.42085 144.96 6.37398C144.913 6.28025 144.96 6.09277 144.913 5.99904C144.82 5.95217 144.773 5.99904 144.679 5.99904C144.632 5.9053 144.679 5.85843 144.679 5.7647C144.773 5.7647 144.82 5.71783 144.913 5.71783C144.96 5.57723 144.913 5.3429 144.913 5.15543C144.913 5.0617 145.007 4.92109 144.866 4.87423C144.773 4.92109 144.773 5.0617 144.632 4.96797C144.585 5.01483 144.585 5.10856 144.538 5.10856C144.492 5.0617 144.492 4.96796 144.538 4.87423C144.632 4.82736 144.679 4.82735 144.726 4.78049C144.726 4.68675 144.726 4.59302 144.726 4.54615C144.773 4.49928 144.866 4.54616 144.866 4.4993C144.866 4.40556 144.866 4.31183 144.82 4.26496C144.866 4.17122 144.913 4.03061 144.866 3.89001C144.866 3.84315 144.82 3.84315 144.82 3.79629C144.82 3.70255 144.82 3.60882 144.82 3.51508C144.82 3.46821 144.773 3.37448 144.773 3.32762C144.773 3.23388 144.82 3.14014 144.82 3.04641C144.82 2.95268 144.773 2.85894 144.773 2.81207C144.82 2.71834 144.773 2.57773 144.773 2.43713C144.773 2.39026 144.82 2.3434 144.773 2.3434C144.773 2.24967 144.726 2.15593 144.679 2.0622C144.679 1.96846 144.679 1.9216 144.679 1.82786C144.632 1.82786 144.632 1.82786 144.632 1.82786C144.585 1.68726 144.492 1.59352 144.351 1.54665C144.257 1.35919 144.07 1.26545 143.976 1.03111C143.929 0.984246 143.882 0.984258 143.882 0.984258C143.882 0.890523 143.882 0.796786 143.882 0.703052C143.835 0.656184 143.835 0.609309 143.789 0.562442L143.742 0.515586C143.742 0.468719 143.742 0.421846 143.742 0.421846C143.742 0.374979 143.648 0.374976 143.648 0.374976V0.328106H143.554C143.507 0.328106 143.507 0.28125 143.46 0.28125C143.367 0.28125 143.32 0.328109 143.32 0.374976C143.273 0.374976 143.226 0.374976 143.226 0.374976L143.179 0.421846C143.132 0.468713 143.039 0.515574 142.992 0.562442C142.851 0.562442 142.664 0.515577 142.57 0.609312C142.57 0.79678 142.476 0.937382 142.429 1.07798C142.429 1.21858 142.383 1.26545 142.336 1.35919C142.336 1.40606 142.383 1.35919 142.383 1.40606C142.336 1.45293 142.289 1.49979 142.336 1.59352C142.289 1.59352 142.289 1.6404 142.242 1.6404C142.195 1.82786 142.195 2.0622 142.148 2.29653C142.101 2.3434 142.054 2.34339 142.101 2.43713C142.101 2.53086 142.195 2.484 142.148 2.57774C142.008 2.76521 142.148 3.04641 142.148 3.28075C142.148 3.32761 142.101 3.32762 142.101 3.32762C142.054 3.46822 142.101 3.56194 142.101 3.65568C142.101 3.79628 142.054 3.89002 142.054 3.98375C142.054 4.03062 142.101 4.03061 142.101 4.12435C142.054 4.21808 142.054 4.35869 142.054 4.45243C142.054 4.59303 142.008 4.73362 142.054 4.82736C142.054 4.87422 142.101 4.9211 142.101 4.96797C142.101 5.01483 142.101 5.0617 142.101 5.10856C142.101 5.2023 142.148 5.20229 142.148 5.24916C142.148 5.29603 142.148 5.29603 142.101 5.29603C142.101 5.3429 142.148 5.38977 142.148 5.38977C142.148 5.43664 142.148 5.4835 142.148 5.53036C142.148 5.67097 142.242 5.81156 142.195 5.95217C142.195 5.99903 142.148 6.09278 142.148 6.13965C142.148 6.18651 142.148 6.23337 142.148 6.28024C142.148 6.46771 142.101 6.74891 142.101 6.93638C142.101 6.98325 142.148 7.03012 142.101 7.07699C142.101 7.12386 142.054 7.07698 142.054 7.12385C142.054 7.17071 142.101 7.17072 142.101 7.21759C141.914 7.45192 142.101 7.77999 142.148 7.96746C142.101 8.01433 142.101 8.10806 142.054 8.10806C142.101 8.20179 142.101 8.24866 142.101 8.38926C142.148 8.483 142.242 8.483 142.195 8.57673C142.148 8.6236 142.054 8.6236 142.101 8.67047C142.101 8.81107 142.242 8.81107 142.242 8.90481C142.242 8.95167 142.289 8.95166 142.289 8.99853C142.289 9.0454 142.242 9.0454 142.242 9.09227C142.289 9.27974 142.195 9.3266 142.195 9.4672C142.101 9.51407 142.054 9.6078 142.008 9.70154C142.101 9.74841 142.054 9.88901 142.008 9.98275C142.054 10.0296 142.101 10.0765 142.101 10.1234C142.101 10.264 142.008 10.3108 142.008 10.4045C142.008 10.4983 141.961 10.6858 142.054 10.6858C142.148 10.6389 142.008 10.4983 142.101 10.4514C142.148 10.4514 142.148 10.4983 142.195 10.5452C142.289 10.5452 142.289 10.5452 142.336 10.592C142.336 10.7795 142.429 11.0138 142.289 11.1544C142.289 11.1544 142.195 11.1544 142.242 11.1544C142.148 11.2013 142.148 11.1544 142.054 11.1544C142.008 11.2013 142.054 11.2482 142.054 11.3419C142.101 11.3419 142.101 11.3419 142.101 11.3888C142.242 11.3888 142.289 11.3419 142.383 11.295C142.429 11.3888 142.383 11.4825 142.289 11.4825C142.289 11.5762 142.242 11.6231 142.195 11.6231C142.101 11.6231 142.101 11.67 142.054 11.67C142.054 11.7637 142.054 11.8574 142.054 11.9043C142.148 11.9043 142.101 11.7637 142.195 11.8106C142.242 11.8574 142.289 11.8574 142.289 11.8574C142.242 11.998 142.242 12.1855 142.148 12.2324C142.148 12.4198 142.148 12.5604 142.148 12.701C142.242 12.701 142.242 12.7948 142.289 12.8416C142.242 12.9822 142.195 13.2166 142.242 13.3572C142.289 13.4041 142.383 13.3103 142.383 13.3572C142.429 13.4509 142.383 13.5915 142.383 13.6852C142.383 13.8259 142.383 13.9665 142.383 14.0133C142.336 14.0602 142.289 14.0133 142.242 14.0602C142.242 14.2008 142.336 14.2477 142.383 14.3414C142.289 14.482 142.383 14.6226 142.383 14.8101C142.336 14.8101 142.336 14.7632 142.289 14.8101C142.289 14.9038 142.336 14.8569 142.336 14.9507C142.289 15.0913 142.148 15.185 142.101 15.3256C142.101 15.3725 142.195 15.3725 142.242 15.3725C142.242 15.4662 142.289 15.5599 142.383 15.5599C142.336 15.6537 142.429 15.7005 142.429 15.7474C142.429 15.8411 142.429 15.9349 142.429 16.0286C142.429 16.0755 142.57 16.0755 142.476 16.1223C142.476 16.1692 142.289 16.0755 142.336 16.1692C142.429 16.2161 142.523 16.1692 142.57 16.2161C142.523 16.2161 142.523 16.3098 142.523 16.3567C142.476 16.4036 142.476 16.3567 142.476 16.4036C142.476 16.4504 142.476 16.4973 142.476 16.5441C142.523 16.5441 142.664 16.4504 142.617 16.5441C142.57 16.6379 142.476 16.4973 142.429 16.5441C142.383 16.6379 142.476 16.6379 142.476 16.6848C142.476 16.7316 142.476 16.7316 142.476 16.7785C142.523 16.7785 142.57 16.7785 142.523 16.8722C142.476 16.9191 142.383 16.966 142.383 17.0597C142.383 17.1066 142.476 17.0597 142.476 17.1534C142.429 17.2472 142.476 17.294 142.476 17.3878C142.57 17.3878 142.523 17.5284 142.664 17.4815C142.664 17.3878 142.617 17.3409 142.664 17.3409C142.711 17.3409 142.804 17.294 142.804 17.3409C142.804 17.3878 142.757 17.3878 142.804 17.4346C142.664 17.4815 142.523 17.5752 142.57 17.7158C142.617 17.7627 142.57 17.669 142.617 17.669C142.664 17.669 142.711 17.669 142.711 17.669C142.711 17.669 142.711 17.5752 142.757 17.6221C142.851 17.5752 142.757 17.7158 142.851 17.669C142.851 17.6221 142.945 17.6221 142.945 17.5284C142.945 17.4815 142.851 17.5284 142.898 17.4346C142.945 17.4346 142.945 17.3878 142.992 17.4346C143.039 17.4815 143.086 17.4815 143.132 17.5284C143.132 17.5752 143.273 17.5752 143.226 17.669C143.132 17.669 143.086 17.7158 143.132 17.8096C143.226 17.8564 143.179 17.7158 143.273 17.7158C143.32 17.8096 143.32 17.8564 143.46 17.8564C143.507 17.7627 143.367 17.8096 143.367 17.7627C143.367 17.7158 143.46 17.7158 143.46 17.669C143.507 17.4815 143.414 17.2003 143.507 17.0128C143.46 17.0128 143.507 16.966 143.507 16.966C143.507 16.9191 143.414 16.9191 143.414 16.8722C143.414 16.8254 143.554 16.8722 143.507 16.7785C143.507 16.7316 143.414 16.6848 143.414 16.6379C143.414 16.5442 143.46 16.5441 143.46 16.4973C143.507 16.4973 143.507 16.5441 143.554 16.4973C143.554 16.5441 143.554 16.6379 143.601 16.591C143.601 16.591 143.601 16.5441 143.648 16.5441C143.695 16.4504 143.554 16.4973 143.554 16.4504C143.554 16.4036 143.507 16.3567 143.507 16.3567C143.507 16.3098 143.507 16.2161 143.46 16.1692C143.46 16.0755 143.367 16.0755 143.414 16.0286C143.507 15.9817 143.507 15.8411 143.648 15.8411C143.695 15.9817 143.929 15.9349 143.882 16.1692C143.929 16.1692 144.023 16.1692 144.023 16.2161C144.023 16.263 143.882 16.2629 143.929 16.3098C143.976 16.3567 143.929 16.4036 143.929 16.4504C143.929 16.4973 143.835 16.4973 143.835 16.5441C143.882 16.6379 143.882 16.8722 144.023 16.8254C144.023 16.7785 143.976 16.7785 144.023 16.6848C143.976 16.6379 143.929 16.6379 143.929 16.591C144.023 16.591 144.07 16.4973 144.07 16.4036C144.163 16.4036 144.257 16.4036 144.351 16.3567C144.351 16.3098 144.351 16.263 144.304 16.2161C144.21 16.2161 144.163 16.3098 144.117 16.2629C144.117 16.2161 144.117 16.2161 144.117 16.2161C144.117 16.1692 144.163 16.1223 144.21 16.0755C144.21 16.0286 144.21 15.9818 144.257 15.9818C144.304 16.0286 144.257 16.1223 144.257 16.1692C144.257 16.1692 144.304 16.2629 144.351 16.2629C144.398 16.2629 144.492 16.2161 144.538 16.2629C144.538 16.2161 144.585 16.1692 144.585 16.1223C144.492 16.1223 144.445 15.9349 144.492 15.8411C144.445 15.8411 144.398 15.7943 144.304 15.7943C144.304 15.8411 144.304 15.9349 144.21 15.888C144.163 15.7474 144.257 15.6068 144.21 15.4662C144.304 15.4662 144.304 15.4193 144.398 15.3725C144.398 15.4662 144.445 15.5131 144.585 15.5131C144.585 15.4662 144.632 15.3725 144.585 15.3256C144.538 15.2787 144.445 15.4193 144.398 15.3256C144.445 15.2319 144.538 15.2319 144.538 15.1381C144.538 15.0913 144.492 15.0913 144.538 14.9975C144.398 14.9975 144.492 14.9507 144.445 14.9038C144.492 14.8101 144.538 14.7163 144.538 14.5757C144.445 14.5757 144.492 14.482 144.445 14.4351C144.538 14.4351 144.538 14.3414 144.585 14.3414C144.679 14.3414 144.773 14.3414 144.866 14.3414C144.913 14.3414 144.913 14.4351 144.96 14.4351C145.054 14.2477 144.866 14.1539 144.773 14.0602C144.679 14.0602 144.679 14.0133 144.585 14.0133C144.538 13.9196 144.445 13.9196 144.398 13.8259C144.445 13.7321 144.538 13.6852 144.679 13.6852C144.726 13.6852 144.726 13.5915 144.773 13.5915C144.866 13.6384 144.96 13.5915 145.007 13.5915C145.007 13.4509 144.913 13.3572 144.913 13.2634C144.913 13.3572 144.82 13.3572 144.82 13.3572C144.773 13.4041 144.82 13.4509 144.773 13.4041C144.726 13.4041 144.726 13.3572 144.679 13.4041C144.632 13.2635 144.538 13.2635 144.492 13.1229C144.492 13.076 144.585 13.1228 144.538 13.076C144.492 12.9354 144.585 12.8885 144.585 12.7948C144.585 12.701 144.585 12.6073 144.585 12.5604C144.632 12.5604 144.679 12.5604 144.726 12.5604C144.82 12.373 144.913 12.1386 145.101 12.0449C145.101 11.998 145.101 11.9512 145.101 11.9512C145.101 11.9043 145.007 11.9512 145.007 11.8574C145.007 11.8106 145.054 11.8106 145.007 11.7637C145.101 11.7637 145.054 11.67 145.148 11.6231C145.148 11.5294 145.054 11.4356 145.054 11.3419C145.101 11.3419 145.148 11.295 145.148 11.2482ZM142.289 11.8106C142.242 11.7637 142.242 11.7637 142.242 11.7168H142.289C142.289 11.7168 142.289 11.7637 142.289 11.8106ZM142.523 17.4346C142.523 17.3878 142.617 17.3878 142.664 17.3878C142.711 17.4815 142.57 17.4346 142.523 17.4346ZM142.711 17.3409C142.757 17.2472 142.757 17.2003 142.711 17.1066C142.851 17.1066 142.898 17.1066 142.898 17.2003C142.851 17.294 142.804 17.3878 142.711 17.3409ZM143.367 17.2003C143.414 17.1534 143.414 17.294 143.367 17.2472C143.367 17.2472 143.367 17.2472 143.367 17.2003ZM143.46 17.4815C143.46 17.6221 143.273 17.5752 143.32 17.7158C143.273 17.7158 143.273 17.669 143.273 17.669C143.226 17.669 143.179 17.669 143.179 17.6221C143.179 17.5284 143.273 17.5752 143.273 17.5284C143.273 17.4346 143.132 17.3878 143.226 17.294C143.273 17.294 143.273 17.3409 143.32 17.3409C143.32 17.3409 143.367 17.3409 143.414 17.3409C143.414 17.3878 143.414 17.4815 143.46 17.4815ZM144.585 6.88951C144.538 6.88951 144.538 6.84265 144.538 6.79578C144.492 6.79578 144.445 6.79578 144.492 6.74891C144.538 6.74891 144.585 6.74891 144.585 6.74891C144.585 6.79578 144.585 6.84264 144.585 6.88951ZM144.679 5.43664C144.773 5.48351 144.726 5.4835 144.726 5.57723C144.632 5.57723 144.632 5.43664 144.679 5.43664ZM144.726 5.99904C144.726 6.09277 144.773 6.09277 144.726 6.1865C144.585 6.1865 144.585 6.09277 144.538 6.04591C144.538 5.99904 144.445 6.0459 144.492 5.95217C144.538 5.85843 144.632 5.95217 144.726 5.99904ZM144.445 6.37398C144.445 6.46772 144.445 6.46771 144.351 6.46771C144.304 6.37397 144.398 6.28025 144.445 6.37398ZM144.163 13.6852C144.163 13.7321 144.163 13.7321 144.163 13.779C144.07 13.779 144.117 13.7321 144.07 13.7321C144.07 13.6853 144.117 13.7321 144.163 13.6852ZM143.742 13.4509C143.789 13.4509 143.789 13.4978 143.835 13.4509C143.835 13.5446 143.976 13.5447 143.976 13.6384C143.929 13.6384 143.929 13.6853 143.882 13.6384C143.835 13.6384 143.882 13.5915 143.882 13.5447H143.789V13.4978C143.789 13.5446 143.742 13.4978 143.742 13.4509ZM144.07 15.1381C144.023 15.185 144.023 15.185 144.07 15.1381ZM143.742 14.7163C143.835 14.7163 143.789 14.8101 143.742 14.8101C143.695 14.8101 143.742 14.7163 143.742 14.7163ZM143.648 14.4351C143.648 14.3414 143.648 14.2477 143.648 14.2008C143.742 14.2008 143.789 14.2477 143.789 14.3414C143.742 14.3414 143.742 14.3883 143.648 14.4351ZM143.648 13.779H143.695C143.695 13.8727 143.742 13.9196 143.742 14.0133C143.695 14.0133 143.695 13.9196 143.601 13.9196C143.648 13.8727 143.601 13.8727 143.648 13.779ZM143.648 15.0444C143.789 15.0444 143.789 15.185 143.648 15.185C143.601 15.1381 143.601 15.0913 143.648 15.0444ZM143.648 15.7474C143.648 15.8411 143.695 15.8411 143.648 15.9349L143.601 15.9818C143.554 15.9818 143.507 15.888 143.46 15.8411C143.46 15.7943 143.507 15.7943 143.507 15.7943C143.507 15.7474 143.46 15.7005 143.46 15.6537C143.46 15.5599 143.507 15.5131 143.554 15.4662C143.601 15.4662 143.648 15.4662 143.695 15.4662C143.695 15.3256 143.601 15.3725 143.554 15.3256C143.601 15.2319 143.742 15.3256 143.882 15.3256C143.882 15.3725 143.929 15.3725 143.882 15.4662C143.835 15.5131 143.742 15.4662 143.789 15.5599C143.742 15.5599 143.742 15.6068 143.695 15.5599C143.695 15.6068 143.648 15.6537 143.648 15.7474ZM144.163 15.888C144.117 15.888 144.117 15.8411 144.117 15.8411C144.07 15.8411 143.976 15.8411 143.929 15.8411C143.882 15.9817 144.023 15.888 144.023 15.9818C143.882 15.9818 143.835 15.888 143.882 15.8411C143.976 15.888 143.976 15.7474 143.929 15.7005C143.882 15.7005 143.882 15.7943 143.835 15.7943C143.789 15.7943 143.742 15.6537 143.789 15.6537C143.882 15.6537 143.929 15.7005 144.023 15.7005C144.117 15.6537 144.023 15.5599 144.07 15.4662C144.117 15.4662 144.21 15.4662 144.21 15.5131C144.21 15.6537 144.163 15.7474 144.163 15.888ZM144.117 15.3725C144.07 15.3256 144.07 15.2787 144.117 15.2319C144.163 15.2319 144.21 15.2319 144.21 15.2787C144.21 15.3725 144.163 15.3725 144.117 15.3725ZM144.163 12.7948C144.163 12.701 144.163 12.6073 144.21 12.5604C144.257 12.6073 144.304 12.7948 144.163 12.7948ZM144.351 8.95168C144.445 8.95168 144.445 8.99853 144.445 8.99853C144.538 8.99853 144.585 9.0454 144.632 9.0454C144.726 9.0454 144.726 8.99853 144.82 9.0454C144.82 9.186 144.913 9.186 144.913 9.27974C144.773 9.27974 144.679 9.3266 144.585 9.27974C144.538 9.186 144.445 9.13914 144.445 9.0454C144.398 9.0454 144.351 9.0454 144.351 9.0454C144.304 9.0454 144.351 8.99854 144.351 8.95168ZM144.82 11.5294C144.82 11.5762 144.866 11.5762 144.82 11.67C144.773 11.67 144.773 11.7168 144.726 11.67C144.82 11.7637 144.96 11.9043 144.866 12.0918C144.82 12.0918 144.82 12.0449 144.773 12.0918C144.726 11.998 144.632 11.9043 144.585 11.8106C144.585 11.7168 144.679 11.7168 144.679 11.67C144.679 11.5762 144.679 11.4356 144.538 11.4356C144.538 11.3888 144.585 11.3419 144.538 11.3419C144.585 11.295 144.679 11.295 144.679 11.2482C144.726 11.2482 144.726 11.295 144.773 11.3419C144.82 11.3419 144.913 11.3888 144.913 11.4356C144.913 11.4825 144.82 11.4825 144.82 11.5294Z" fill="black"/>
        <path d="M142.992 19.1216C142.992 19.1684 142.898 19.2153 142.851 19.2153C142.945 19.3091 142.757 19.4965 142.945 19.4965C142.945 19.4028 142.945 19.3559 142.992 19.309C143.085 19.309 143.179 19.4028 143.132 19.5434C143.179 19.5434 143.226 19.5903 143.273 19.5903C143.32 19.5434 143.32 19.4965 143.32 19.4028C143.273 19.4028 143.273 19.3559 143.226 19.4028C143.226 19.3091 143.132 19.3559 143.132 19.2622C143.226 19.2153 143.226 19.309 143.273 19.309C143.273 19.2622 143.226 19.2622 143.226 19.2622C143.226 19.2153 143.226 19.1685 143.179 19.1685C143.132 19.1685 143.179 19.2622 143.132 19.2622C143.085 19.2153 143.085 19.1684 142.992 19.1216Z" fill="black"/>
        <path d="M143.132 20.106C143.132 20.1528 142.992 20.1997 143.132 20.2465C143.132 20.1997 143.132 20.1528 143.132 20.106C143.179 20.1528 143.226 20.1528 143.226 20.1528C143.226 20.1997 143.226 20.2465 143.273 20.2465C143.32 20.1997 143.273 20.1528 143.273 20.106C143.226 20.0591 143.179 20.0591 143.132 20.106Z" fill="black"/>
        <path d="M142.945 21.6528C142.898 21.6528 142.898 21.6528 142.851 21.6528C142.851 21.5591 142.804 21.5591 142.804 21.5122C142.804 21.4185 142.757 21.3716 142.804 21.2779C142.804 21.231 142.898 21.231 142.898 21.1841C142.851 21.1841 142.851 21.1373 142.804 21.1373C142.757 21.0904 142.757 21.0904 142.757 21.0435C142.757 20.9967 142.804 20.9029 142.757 20.8561C142.804 20.8092 142.898 20.8092 142.992 20.8092C142.992 20.8561 143.039 20.9498 143.039 20.9967C143.039 21.0435 143.039 21.0904 143.085 21.0904C143.085 20.9967 143.132 20.9967 143.179 20.9967C143.179 20.9029 143.039 20.9029 143.085 20.7623C142.992 20.7623 142.992 20.6686 142.992 20.5749C143.039 20.5749 143.039 20.528 143.085 20.528C143.085 20.4811 142.992 20.3874 143.039 20.3405C143.039 20.2937 142.945 20.3405 142.992 20.2468C142.992 20.1999 143.039 20.1531 142.992 20.1062C142.945 20.1062 142.945 20.1062 142.898 20.1062C142.851 20.1531 142.898 20.1999 142.898 20.2468C142.898 20.2468 142.851 20.2468 142.851 20.2937C142.851 20.3874 142.898 20.4811 142.898 20.6217C142.898 20.7155 142.664 20.8092 142.617 20.6686C142.617 20.5749 142.757 20.5749 142.711 20.4811C142.711 20.4343 142.617 20.4343 142.57 20.3874C142.617 20.3405 142.57 20.1531 142.664 20.1531C142.664 20.0593 142.57 20.1062 142.617 20.0125C142.664 20.0125 142.664 19.9656 142.664 19.9187C142.57 19.8719 142.57 19.6844 142.617 19.5907C142.617 19.5438 142.57 19.5438 142.523 19.4969V19.4501H142.476C142.382 19.4032 142.476 19.2626 142.382 19.2157C142.476 19.2157 142.476 19.1689 142.476 19.122C142.382 19.0751 142.289 19.0283 142.242 18.9814C142.242 18.8408 142.242 18.7471 142.195 18.6533C142.008 18.6533 142.008 18.7939 141.961 18.8877C141.914 18.8408 141.914 18.9345 141.867 18.9345C141.867 19.122 141.914 19.2626 141.867 19.4501C141.961 19.4501 142.008 19.5438 142.054 19.5907C142.008 19.6375 142.008 19.7781 142.008 19.8719C142.054 19.9187 142.101 19.9187 142.101 19.9187C142.101 20.0593 142.148 20.1062 142.195 20.1999C142.195 20.2468 142.148 20.2937 142.148 20.3874C142.195 20.4811 142.242 20.2937 142.289 20.3874C142.289 20.528 142.148 20.528 142.148 20.6217C142.148 20.7623 142.195 20.8561 142.289 20.903C142.289 20.9498 142.195 20.9029 142.242 20.9967C142.289 21.1373 142.195 21.1373 142.195 21.2779C142.242 21.2779 142.429 21.4654 142.242 21.5122C142.289 21.606 142.336 21.6997 142.382 21.7934C142.382 21.8403 142.382 21.8872 142.382 21.934C142.336 21.934 142.289 21.934 142.289 21.934C142.289 22.0746 142.336 22.1215 142.382 22.1684C142.382 22.309 142.429 22.4496 142.382 22.5433C142.382 22.5902 142.476 22.5433 142.476 22.5902C142.476 22.637 142.476 22.6839 142.523 22.6839C142.57 22.637 142.57 22.5902 142.617 22.5902C142.523 22.5902 142.523 22.4496 142.476 22.4496C142.523 22.4496 142.57 22.4496 142.617 22.4496C142.664 22.3558 142.617 22.2621 142.617 22.1215C142.617 22.0746 142.711 22.0746 142.711 21.9809C142.711 21.934 142.711 21.8872 142.711 21.8403C142.757 21.8403 142.804 21.8403 142.757 21.7934C142.757 21.7466 142.711 21.7466 142.711 21.6997C142.757 21.6997 142.757 21.606 142.804 21.606C142.898 21.6528 143.039 21.6528 142.945 21.6528ZM142.289 19.122V19.0751C142.336 19.0283 142.336 19.1689 142.289 19.122Z" fill="black"/>
        <path d="M50.101 1.54661C50.0541 1.45288 50.0072 1.35915 50.0072 1.21855C50.0072 1.17168 49.9135 1.17167 49.9135 1.07794V0.890473C49.8666 0.796739 49.726 0.796745 49.6323 0.749878C49.5854 0.70301 49.6323 0.703002 49.6323 0.609267C49.5386 0.5624 49.398 0.468675 49.2574 0.515542C49.2574 0.468675 49.2105 0.421799 49.1636 0.374932C49.0699 0.23433 49.023 0.0937343 48.9293 0C48.6012 0 48.2263 0 47.9451 0C47.8982 0 47.9451 0.140596 47.8982 0.140596C47.8045 0.0937286 47.7108 0 47.5233 0C47.4296 0.0937343 47.3827 0.187469 47.2421 0.234336C47.2421 0.32807 47.2421 0.421802 47.1015 0.421802C47.1015 0.515536 47.0546 0.515533 47.0546 0.609267C46.914 0.609267 46.914 0.749878 46.7734 0.749878C46.7265 0.796745 46.6797 0.890476 46.5859 0.937343H46.5391V0.984213C46.4922 0.984213 46.4922 1.03107 46.4453 1.03107C46.4453 1.17167 46.3516 1.21854 46.3047 1.31227C46.3047 1.45288 46.2579 1.49975 46.2579 1.59348C46.211 1.59348 46.211 1.59348 46.1641 1.59348C46.1641 1.87468 46.0235 2.10902 46.0704 2.34336C45.9767 2.34336 45.9767 2.48396 45.8829 2.53082C45.8829 2.57769 45.9298 2.57769 45.8829 2.67142C45.8361 2.67142 45.7892 2.76516 45.7892 2.81203C45.6017 2.90576 45.508 3.04636 45.3205 3.18696C45.3674 3.37443 45.2737 3.37443 45.1799 3.46817C45.1799 3.65564 45.1799 3.74936 45.2268 3.8431C45.1331 3.93683 45.2268 4.12431 45.2268 4.21805C45.2268 4.31178 45.1799 4.31177 45.0862 4.35864C45.0862 4.49924 45.0393 4.59298 45.0393 4.68672C44.9925 4.82732 44.9925 4.87419 44.9456 4.92105C44.9456 4.96792 44.9456 4.96791 44.9456 5.01478C44.9456 5.06165 44.8519 5.10852 44.8519 5.15539C44.8519 5.20226 44.8519 5.29599 44.8519 5.34285C44.8519 5.38972 44.805 5.43658 44.7581 5.48345V5.67093C44.7113 5.7178 44.6175 5.76466 44.6644 5.8584C44.5707 5.90526 44.5707 5.99899 44.4769 6.04586C44.4301 6.2802 44.1957 6.32707 44.1957 6.60827C44.102 6.60827 44.102 6.702 44.0082 6.702C44.0082 6.8426 43.9614 6.93634 43.8677 6.98321C43.8677 7.03007 43.9614 7.03007 43.9145 7.1238C43.8208 7.1238 43.8208 7.21754 43.727 7.26441C43.727 7.31128 43.6802 7.35814 43.6802 7.40501C43.5864 7.35814 43.6333 7.45188 43.5864 7.45188C43.5396 7.54561 43.5864 7.63935 43.5864 7.68621C43.5864 7.73308 43.5396 7.73309 43.5396 7.77995C43.5396 7.82682 43.5396 7.87368 43.5396 7.92055C43.4927 7.96742 43.4458 7.96742 43.4458 8.01429C43.4458 8.20176 43.399 8.38923 43.2584 8.48296C43.2584 8.57669 43.3052 8.57669 43.2584 8.62356C43.2115 8.67042 43.1178 8.76416 43.1178 8.90476C43.024 8.95163 42.9772 9.04536 42.9303 9.09223C42.9303 9.13909 42.9303 9.18596 42.9303 9.23282C42.8834 9.23282 42.7897 9.23283 42.7897 9.32656C42.7428 9.32656 42.8366 9.46716 42.7428 9.46716C42.7428 9.56089 42.8366 9.51404 42.8366 9.60777C42.7897 9.65464 42.7897 9.7015 42.7428 9.74837C42.7428 9.8421 42.7428 9.9827 42.696 10.0296C42.696 10.0296 42.696 10.0764 42.696 10.1233C42.696 10.1702 42.6491 10.1702 42.6022 10.217C42.5554 10.3108 42.6022 10.4045 42.5085 10.4514C42.5085 10.4982 42.5554 10.592 42.5085 10.6857C42.4616 10.7794 42.3679 10.8732 42.321 10.9669C42.2742 11.1075 42.321 11.2481 42.321 11.3418C42.2273 11.3887 42.2273 11.5762 42.0867 11.6231C42.0867 11.7168 42.0398 11.7168 42.0398 11.8105C41.8992 11.8105 41.9461 11.9511 41.8524 11.9511C41.8524 12.0449 41.8992 11.998 41.8992 12.0917C41.7586 12.1855 41.8524 12.2792 41.7586 12.4198H41.7118C41.7118 12.4198 41.7118 12.4667 41.7118 12.5135C41.618 12.6073 41.5243 12.701 41.4774 12.8416C41.4774 12.8885 41.4774 12.9822 41.4774 13.0291C41.4774 13.0759 41.4774 13.1697 41.4774 13.1697H41.4306C41.4306 13.1697 41.4306 13.2165 41.4306 13.2634C41.4306 13.3103 41.3837 13.3571 41.4306 13.404C41.3837 13.404 41.3837 13.4977 41.3368 13.5446C41.2431 13.7321 41.1494 13.9195 41.1494 14.2007C41.1494 14.2476 41.1025 14.2476 41.0556 14.2476C41.0556 14.482 40.915 14.5757 40.8681 14.81C40.7744 14.81 40.7744 14.9038 40.7275 14.9506C40.7275 14.9506 40.6807 14.9506 40.6338 14.9506V14.9975C40.6338 15.0444 40.5869 14.9975 40.5401 14.9975V15.0444C40.4463 15.0912 40.3526 15.1381 40.3057 15.2318C40.3526 15.2787 40.3995 15.3724 40.4463 15.4193C40.4463 15.7005 40.4463 15.9817 40.3057 16.1223C40.2589 16.4504 40.1183 16.6378 40.0245 16.8722C39.9308 16.8722 39.8839 16.9659 39.7902 17.0128C39.7902 17.2002 39.6965 17.294 39.7433 17.4814C39.6965 17.622 39.5559 17.6221 39.5559 17.7627C39.5559 17.8095 39.6027 17.9033 39.5559 17.997C39.509 18.1376 39.4153 18.1845 39.4153 18.3719C39.3215 18.4188 39.2747 18.4657 39.2747 18.6063C39.2747 18.6531 39.1341 18.6063 39.1809 18.7C39.1809 18.7937 39.2278 18.8406 39.2278 18.9343C39.1341 18.9343 39.0872 19.0281 38.9466 19.0281C38.9466 19.1218 38.806 19.1687 38.806 19.1687C38.7591 19.2624 38.806 19.3093 38.806 19.403C38.8997 19.403 38.9466 19.2624 39.0872 19.2624C39.0872 19.403 38.9935 19.4499 38.9466 19.5436C38.8529 19.5436 38.8529 19.5905 38.806 19.6373C38.7591 19.6842 38.7591 19.6842 38.7123 19.7311C38.7123 19.8248 38.806 19.7779 38.7591 19.9185C38.7123 20.0123 38.6185 20.0591 38.6185 20.1529C38.5717 20.1997 38.4779 20.3404 38.6185 20.3872C38.7123 20.3872 38.6654 20.1997 38.7591 20.2935C38.806 20.3403 38.7123 20.3404 38.7123 20.3872C38.6654 20.4341 38.6654 20.4809 38.6185 20.5747C38.5248 20.5747 38.4779 20.6216 38.3842 20.6684C38.3842 20.809 38.3373 20.8559 38.3842 20.9496C38.3842 21.0433 38.4779 21.0902 38.4779 21.184C38.4779 21.2777 38.4311 21.3714 38.4779 21.4652C38.2905 21.4652 38.2436 21.6058 38.1499 21.6995C38.1499 21.7932 38.2436 21.7464 38.2436 21.8401C38.1967 21.8401 38.2436 21.9807 38.1499 21.9807C38.103 21.9807 38.103 21.8401 38.0093 21.8401C37.9624 21.887 38.0093 22.0744 37.8687 22.0744C37.8687 22.1682 37.9624 22.1213 38.0093 22.215C37.9624 22.2619 37.9624 22.3556 38.0093 22.4025C37.9624 22.4494 37.8686 22.4962 37.9155 22.6368C38.0092 22.6837 37.9624 22.5431 38.0561 22.5431C38.2436 22.59 38.2905 22.4494 38.4311 22.4494C38.4311 22.6368 38.2905 22.6368 38.2436 22.7306H38.103C38.103 22.8243 37.9624 22.8243 37.9155 22.918C37.9155 23.0118 37.9155 23.0586 37.9155 23.1055C37.9624 23.1524 37.9624 23.0586 38.0093 23.0586C38.103 23.0118 38.103 22.9649 38.1967 22.8712C38.3373 22.8712 38.3373 22.7306 38.4779 22.7306C38.4779 22.6837 38.5248 22.6368 38.5717 22.59C38.6654 22.5431 38.7123 22.4962 38.7591 22.4962C38.7591 22.4962 38.806 22.4962 38.8529 22.4962C38.8997 22.4962 38.8529 22.4025 38.8997 22.4025C38.9466 22.3556 39.0403 22.4025 38.9935 22.3088V22.215C38.8997 22.215 38.8997 22.3088 38.806 22.3088C38.806 22.2619 38.7123 22.3088 38.7123 22.215C38.7123 22.1213 38.806 22.1213 38.8529 22.0276C38.8529 21.9338 38.8529 21.887 38.9466 21.8401C39.0403 21.887 39.0872 21.8401 39.1809 21.8401C39.1809 21.7464 39.2278 21.7464 39.2747 21.6995C39.2747 21.6995 39.2747 21.6526 39.2747 21.6058C39.3215 21.5589 39.4153 21.512 39.4153 21.4183C39.4153 21.3246 39.2747 21.4183 39.2278 21.3714C39.2278 21.2308 39.3215 21.184 39.4621 21.184C39.4621 21.1371 39.4153 21.0902 39.4621 20.9965C39.509 20.9496 39.6027 20.9496 39.6965 20.9028C39.6965 20.809 39.6027 20.7622 39.6027 20.6684C39.6496 20.6684 39.6965 20.6216 39.7433 20.5747C39.7433 20.5278 39.7433 20.4341 39.8371 20.4341C39.9777 20.3872 39.9308 20.5747 40.0245 20.5747C40.0714 20.4809 40.1651 20.3872 40.2589 20.2935C40.3057 20.2935 40.3526 20.2935 40.3995 20.2466C40.2589 20.1529 40.212 20.2935 40.0714 20.2466C40.0245 20.1997 40.0714 20.0592 40.0245 19.9654C40.1183 19.9185 40.212 19.9185 40.3057 19.8717C40.3526 19.7779 40.3057 19.6373 40.3995 19.5436C40.4932 19.5436 40.5869 19.5436 40.6807 19.5436C40.6807 19.4499 40.7275 19.4499 40.7275 19.403C40.7275 19.3561 40.6338 19.3561 40.5869 19.3093C40.6338 19.1687 40.5401 19.1687 40.4932 19.0749C40.5869 19.0749 40.6338 18.9343 40.6338 18.8406C40.7275 18.8406 40.7276 18.9812 40.8213 19.0281C40.7744 19.0749 40.8213 19.1687 40.8213 19.2624C41.0088 19.2624 41.1025 19.2624 41.1025 19.1218C41.1025 18.9812 40.9619 19.0281 40.9619 18.8875C40.9619 18.7 40.8681 18.6531 40.8681 18.5125C40.915 18.3719 41.0088 18.3251 41.0556 18.2313C41.1494 18.2313 41.1494 18.3719 41.2431 18.3719C41.29 18.3719 41.3368 18.3251 41.4306 18.2782C41.4774 18.2782 41.5712 18.2782 41.618 18.2782V18.2313C41.618 18.1845 41.8055 18.2313 41.7586 18.1376C41.6649 18.0439 41.3837 18.1376 41.3837 17.9501C41.4306 17.9033 41.4774 17.8095 41.5712 17.8095C41.618 17.7627 41.6649 17.6689 41.8055 17.6689C41.8055 17.7626 41.8524 17.8564 41.993 17.8564C42.0398 17.8564 42.0398 17.8095 42.0398 17.7627C42.0867 17.7627 42.1336 17.7158 42.1336 17.6689C42.0867 17.622 41.993 17.6689 41.993 17.6221C41.993 17.5283 41.8524 17.5283 41.8524 17.3877C41.993 17.294 41.993 17.0596 42.0867 16.9659H42.1336C42.2742 16.9659 42.321 17.0596 42.4616 17.0596C42.5554 16.919 42.7428 16.9191 42.7428 16.6847C42.7897 16.6847 42.7428 16.591 42.8366 16.6378C42.8366 16.4972 42.696 16.4504 42.696 16.3098C42.696 16.216 42.7897 16.216 42.8366 16.1692C42.8834 16.1223 42.9303 16.0754 42.9772 16.0286C43.1178 16.0286 43.2115 16.0286 43.3052 15.9817C43.3521 15.9348 43.3521 15.7942 43.3521 15.6536C43.2584 15.6536 43.2584 15.6068 43.1646 15.6068C43.1646 15.513 43.0709 15.513 43.0709 15.4193C43.0709 15.3256 43.2115 15.2318 43.2584 15.185C43.2584 15.0444 43.399 15.0444 43.4927 14.9506C43.5864 14.9506 43.6333 14.9506 43.727 14.9506C43.727 14.81 43.8676 14.7631 43.8208 14.6225C43.9145 14.5757 44.0082 14.4819 44.0551 14.4351C44.1957 14.4351 44.2426 14.3414 44.3363 14.2945C44.3363 14.2008 44.2895 14.2007 44.3363 14.1539C44.4301 14.0601 44.6644 14.107 44.7581 14.0133C44.7581 13.9195 44.7113 13.9196 44.7581 13.8727C44.6175 13.8258 44.4769 13.8727 44.4301 13.7321C44.4769 13.6383 44.4769 13.5915 44.5707 13.5446C44.5707 13.4509 44.6175 13.4509 44.6644 13.3571C44.7581 13.3103 44.805 13.2634 44.8519 13.2165C44.8519 13.1228 44.8987 13.1228 44.8987 13.0291C44.9925 13.0291 44.9925 12.8885 45.0393 12.8416C45.1331 12.8416 45.0862 12.701 45.2268 12.701C45.3205 12.4198 45.6017 12.3261 45.5549 11.9511C45.6955 11.8574 45.7423 11.6699 45.8829 11.5762V11.4356C45.9298 11.4356 45.9298 11.3887 45.9767 11.4356V11.2481C46.0704 11.1544 46.1641 11.1075 46.1641 10.9669C46.2579 10.92 46.3516 10.8263 46.3516 10.6857C46.3985 10.6857 46.3985 10.6388 46.4922 10.6857C46.4922 10.592 46.4922 10.4982 46.4922 10.4514C46.5859 10.4514 46.5391 10.3576 46.5859 10.3108C46.6328 10.2639 46.6797 10.2639 46.7265 10.217C46.7265 10.1233 46.7734 10.1233 46.7265 10.0296C46.7734 10.0296 46.7734 9.9827 46.8203 10.0296C46.7734 9.8421 46.8671 9.8421 46.9609 9.74837C46.914 9.74837 46.8671 9.74837 46.8671 9.65464C46.9609 9.56091 47.0546 9.46717 47.1015 9.32656C47.1015 9.18596 47.1015 9.09222 47.2421 9.04536C47.2421 8.85789 47.3358 8.76415 47.3358 8.52982C47.3827 8.52982 47.4296 8.48296 47.4296 8.43609C47.4296 8.43609 47.5233 8.38922 47.5233 8.34235C47.5702 8.34235 47.5233 8.24862 47.5233 8.20175C47.5702 8.20175 47.5702 8.15488 47.617 8.10801C47.5702 7.92055 47.7108 7.92055 47.7108 7.73308C47.8514 7.59248 47.9451 7.45188 47.9451 7.26441C47.992 7.26441 47.992 7.21754 48.0388 7.21754C48.0388 6.93634 48.1326 6.74887 48.1794 6.51453C48.2732 6.46767 48.2732 6.37393 48.2732 6.23333C48.4138 6.18646 48.4138 5.95212 48.4606 5.76466C48.6012 5.67092 48.5544 5.43659 48.695 5.38972C48.695 5.29599 48.7418 5.24912 48.695 5.15539C48.695 5.10852 48.7418 5.10852 48.7887 5.06165C48.7887 5.01478 48.7418 5.01479 48.7887 4.92105C48.8356 4.87419 48.8824 4.78045 48.9293 4.68672L56.2875 21.6995H58.4902L50.101 2.10902C50.0541 1.87469 50.101 1.68721 50.101 1.54661ZM38.2905 22.1682C38.2436 22.1682 38.2905 22.0276 38.2905 21.9807C38.3373 22.0276 38.2905 22.1682 38.2905 22.1682ZM47.4764 1.07794H47.3827C47.3827 0.984205 47.2421 0.937335 47.2889 0.796733C47.3358 0.702999 47.5233 0.703008 47.6639 0.703008C47.6639 0.890476 47.7108 1.03108 47.7108 1.21855C47.617 1.21855 47.4764 1.21854 47.4764 1.07794Z" fill="black"/>
    </g>
    <defs>
        <clipPath id="clip0_217_158">
            <rect width="187" height="23.1524" fill="white"/>
        </clipPath>
    </defs>
</svg>
