<svg width="187" height="106" viewBox="0 0 187 106" fill="none" xmlns="http://www.w3.org/2000/svg">
    <path fill-rule="evenodd" clip-rule="evenodd" d="M33.4628 37.7303C33.4316 40.9218 32.8581 44.2036 31.2188 46.9868C30.0874 48.8973 28.2673 50.4993 26.0545 50.9824C23.9445 51.4187 21.6288 51.0915 19.8305 49.8697C17.9293 48.6044 16.6858 46.5661 15.9502 44.4467C14.8688 41.3924 14.7347 38.0981 14.9685 34.8973C15.2615 31.9739 16.0219 28.9756 17.8421 26.6007C19.1105 24.9177 21.0709 23.7646 23.1809 23.5339C24.9948 23.3002 26.9116 23.6337 28.4543 24.6466C30.1342 25.7374 31.2967 27.4609 32.0447 29.2873C33.1386 31.952 33.5095 34.863 33.4628 37.7303ZM181.336 66.1231C181.367 70.954 181.355 75.7848 181.339 80.6156C168.156 82.4233 154.975 84.2995 141.789 86.1321C94.5307 92.7395 47.2696 99.3717 0.00539431 105.967C0.00539431 101.148 -0.0101924 96.3361 0.0116242 91.5177C14.233 89.5667 28.4418 87.5377 42.6601 85.5649C88.8802 79.0791 135.11 72.6214 181.336 66.1231ZM14.8875 0.00623288V14.8727C19.6466 13.2676 24.8047 12.8562 29.7508 13.7227C34.2264 14.5143 38.5336 16.5557 41.75 19.7939C44.9789 22.9605 47.0421 27.1991 47.8618 31.6154C48.563 35.3087 48.4913 39.1328 47.7994 42.823C47.0764 46.563 45.5243 50.1783 43.0808 53.1267C40.3818 56.4303 36.6449 58.8239 32.5932 60.1298C28.8906 61.3515 24.9262 61.685 21.0553 61.3297C16.4302 60.9027 11.8643 59.2665 8.23027 56.3493C4.62117 53.482 2.06551 49.3991 0.893643 44.9641C0.37316 43.0474 0.0833067 41.0683 0.00227342 39.083V0.00311792L14.8875 0.00623288ZM161.068 13.3549C164.952 13.0993 168.922 13.4983 172.584 14.854C177.11 16.4809 181.068 19.6506 183.549 23.7677C185.406 26.822 186.494 30.3127 186.843 33.8594C187.417 39.7655 186.463 46.0144 183.228 51.0821C180.482 55.4267 176.075 58.612 171.188 60.1516C167.52 61.3515 163.599 61.6725 159.759 61.3359C155.779 60.9682 151.843 59.7215 148.499 57.518C145.289 55.4236 142.692 52.4285 141.047 48.9784C138.6 43.839 138.142 37.9142 139.105 32.351C139.897 27.7851 141.945 23.3625 145.267 20.0776C148.259 17.0232 152.217 15.0161 156.368 14.0562C157.908 13.6822 159.485 13.4858 161.068 13.3549ZM71.4269 13.3861C74.662 13.1087 77.975 13.3643 81.0792 14.3647C83.6442 15.2124 86.044 16.6087 87.9608 18.5161C89.7778 20.277 91.174 22.4369 92.1838 24.7494C94.4964 30.1413 94.886 36.225 93.951 41.9752C84.0182 41.9752 74.0854 41.9628 64.1557 41.9783C64.3365 44.0665 65.3026 46.083 66.8952 47.4637C69.2639 49.5768 72.4865 50.3996 75.5845 50.6551C80.4465 50.8795 85.3521 50.2874 89.9959 48.8257C90.6193 52.067 91.2738 55.299 91.8878 58.5372C86.4336 60.7064 80.5119 61.3671 74.6838 61.3671C71.1713 61.2923 67.6339 60.831 64.3271 59.6062C61.9429 58.7335 59.6833 57.4806 57.7572 55.8226C55.6441 54.0336 53.9548 51.7678 52.7705 49.2713C51.1187 45.7807 50.433 41.8848 50.4486 38.042C50.405 34.249 51.153 30.4467 52.6365 26.9529C54.279 23.0882 56.9157 19.6007 60.397 17.204C63.629 14.9444 67.5061 13.6977 71.4269 13.3861ZM111.345 0C111.361 11.0486 111.33 22.0971 111.361 33.1488C111.622 32.9774 111.778 32.7 111.947 32.4445C115.939 26.3981 119.96 20.3736 123.94 14.3211C130.173 14.2961 136.409 14.3117 142.646 14.3148C136.587 21.5361 130.513 28.7388 124.451 35.9538C124.32 36.0785 124.236 36.2655 124.41 36.3964C131.148 44.3813 137.936 52.3257 144.662 60.3199C138.563 60.3293 132.464 60.3199 126.361 60.323C126.187 60.348 126.05 60.2856 125.953 60.1423C121.088 53.0924 116.244 46.0238 111.358 38.9926C111.323 46.0923 111.376 53.189 111.33 60.2856C109.319 60.3791 107.284 60.2981 105.261 60.323H96.971C96.9648 40.2174 96.971 20.1118 96.971 0.00311792H111.345V0ZM167.271 24.7463C165.722 23.6711 163.761 23.3002 161.91 23.5246C160.258 23.7085 158.675 24.4097 157.469 25.5473C155.879 27.0215 154.913 29.038 154.327 31.095C153.557 33.7815 153.439 36.6052 153.598 39.3759C153.785 41.6604 154.258 43.945 155.265 46.0144C156.107 47.7411 157.394 49.3119 159.105 50.2375C160.71 51.1226 162.62 51.3283 164.416 51.0478C166.407 50.6925 168.156 49.4396 169.321 47.8127C170.92 45.6248 171.653 42.932 171.98 40.2735C172.344 36.7642 172.12 33.1301 170.911 29.7922C170.181 27.8318 169.031 25.9431 167.271 24.7463ZM73.2002 22.8296C71.1651 22.7454 69.0769 23.4093 67.5591 24.7868C65.4709 26.6444 64.3614 29.3964 64.0871 32.1297H81.0854C81.0667 29.6613 80.4153 27.062 78.7417 25.1764C77.3703 23.6087 75.2572 22.8327 73.2002 22.8296Z" fill="black"/>
</svg>
