<svg width="187" height="25" viewBox="0 0 187 25" fill="none" xmlns="http://www.w3.org/2000/svg">
    <g clip-path="url(#clip0_233_1364)">
        <path fill-rule="evenodd" clip-rule="evenodd" d="M43.681 0.000123438C43.7756 0.000123438 43.8064 0.121123 43.8064 0.275123C43.8064 0.487423 43.6502 0.853724 43.5567 1.70622C43.5248 2.01092 43.4621 3.35182 43.3994 3.71812C43.3686 3.87102 43.3059 4.05362 43.1805 4.05362C42.9924 4.05362 42.9297 3.90072 42.9297 3.65762C42.9297 3.44312 42.8978 2.92612 42.7416 2.55982C42.5216 2.07252 42.2092 1.70622 40.5174 1.52362C39.9839 1.46312 36.5695 1.43232 36.2252 1.43232C36.0998 1.43232 36.0371 1.52362 36.0371 1.73702V10.1487C36.0371 10.3621 36.0679 10.4534 36.2252 10.4534H37.0227C38.302 10.4501 40.6593 10.4391 41.2071 10.3929C41.9584 10.3313 42.3973 10.2708 42.6789 9.96502C42.8989 9.72302 43.0232 9.56902 43.1486 9.56902C43.2421 9.56902 43.3059 9.63062 43.3059 9.81322C43.3059 9.99692 43.1486 10.5139 43.0551 11.5204C42.9924 12.1298 42.9297 13.2584 42.9297 13.4707C42.9297 13.7149 42.9297 14.0493 42.7097 14.0493C42.5535 14.0493 42.4908 13.9283 42.4908 13.7754C42.4908 13.4707 42.4908 13.1649 42.3654 12.77C42.24 12.3432 41.9584 11.824 40.7374 11.703C39.8904 11.6117 36.7884 11.5501 36.256 11.5501C36.0998 11.5501 36.0371 11.6414 36.0371 11.7635V14.4453C36.0371 15.4826 36.0063 19.0169 36.0371 19.6571C36.1284 21.6976 36.5739 22.1321 39.4075 22.1552L39.6715 22.1563C40.4855 22.1563 41.8638 22.1563 42.6789 21.8208C43.4929 21.4864 43.8691 20.8759 44.0891 19.6263C44.1518 19.2908 44.2134 19.1698 44.3707 19.1698C44.5577 19.1698 44.5577 19.414 44.5577 19.6263C44.5577 19.8705 44.308 21.9429 44.1507 22.5831C43.9318 23.3751 43.681 23.3751 42.46 23.3751C37.873 23.3751 35.7599 23.2035 34.8073 23.1936H34.7215C34.6588 23.1936 34.1264 23.2233 33.4675 23.2233C32.8626 23.2558 32.2571 23.2759 31.6514 23.2838C31.306 23.2838 31.1498 23.2233 31.1498 23.0407C31.1498 22.9494 31.2125 22.8581 31.4006 22.8581C31.6822 22.8581 32.0584 22.7965 32.34 22.7349C32.967 22.6139 33.1232 21.9429 33.2486 21.0585C33.3817 19.9706 33.4026 18.0687 33.4048 15.7246V6.56052C33.4026 3.96232 33.3927 3.26822 33.3432 2.49932C33.2805 1.46312 33.0297 0.974723 31.9957 0.761323C31.746 0.701923 31.2125 0.671123 30.932 0.671123C30.8066 0.671123 30.6812 0.610623 30.6812 0.488523C30.6812 0.305923 30.8374 0.244323 31.1828 0.244323C32.5281 0.244323 34.3871 0.327923 34.6907 0.335623H35.7786C37.6398 0.333423 41.349 0.327923 41.8957 0.304823C42.4908 0.274023 42.9924 0.213523 43.2421 0.153023C43.3994 0.122223 43.5237 0.000123438 43.681 0.000123438ZM0.4972 0.730523C1.8953 0.730523 3.8544 0.820723 4.0095 0.820723C4.7553 0.820723 5.9675 0.730523 7.3975 0.730523C12.496 0.730523 13.6147 3.71372 13.6147 5.20532C13.6147 7.65282 12.1539 9.11362 10.6931 10.5766C12.9921 11.2619 16.0699 13.3805 16.0699 16.8708C16.0699 20.0641 13.4585 23.3751 8.1433 23.3751C7.4283 23.3751 4.2581 23.1969 4.0095 23.1969C3.8544 23.1969 1.8953 23.286 0.9625 23.286C0.6215 23.286 0.4664 23.2266 0.4664 23.0473C0.4664 22.9582 0.528 22.868 0.715 22.868C0.9944 22.868 1.3673 22.8086 1.6478 22.7492C2.2693 22.6293 2.4244 21.9726 2.5487 21.108C2.6884 19.9805 2.7027 17.9576 2.7038 15.476V7.69682C2.7038 4.50132 2.6961 3.76542 2.6422 2.93932C2.5795 1.92512 2.3309 1.44772 1.3046 1.23872C1.0571 1.17932 0.528 1.14962 0.2486 1.14962C0.1243 1.14852 0 1.08912 0 0.968123C0 0.789923 0.1551 0.730523 0.4972 0.730523ZM164.976 0.000123438C165.222 0.000123438 165.747 0.662323 166.056 0.962623C166.52 1.47412 171.123 6.31742 175.879 11.2817C178.937 14.4706 182.305 18.1402 183.293 19.1335L182.953 3.85012C182.922 1.89432 182.706 1.23212 181.749 0.992323C181.25 0.896738 180.743 0.846301 180.235 0.841623C180.018 0.841623 179.988 0.751423 179.988 0.630423C179.988 0.450023 180.235 0.420323 180.606 0.420323C181.995 0.420323 183.479 0.510523 183.818 0.510523C184.159 0.510523 185.177 0.420323 186.443 0.420323C186.784 0.420323 187 0.450023 187 0.630423C187 0.751423 186.877 0.841623 186.66 0.841623C186.506 0.841623 186.289 0.841623 185.919 0.931823C184.899 1.14192 184.776 1.80412 184.776 3.60922L184.714 21.2389C184.714 23.2233 184.653 23.374 184.436 23.374C184.188 23.374 183.819 23.044 182.181 21.449C181.842 21.1487 177.394 16.7256 174.118 13.2958C171.404 10.4429 168.716 7.56476 166.055 4.66192L166.458 19.0719C166.52 21.5392 166.828 22.3213 167.662 22.5622C168.169 22.6798 168.687 22.7403 169.208 22.7426C169.362 22.7426 169.454 22.802 169.454 22.923C169.454 23.1034 169.269 23.1639 168.898 23.1639C167.138 23.1639 165.902 23.0737 165.624 23.0737C165.345 23.0737 164.049 23.1639 162.658 23.1639C162.35 23.1639 162.163 23.1331 162.163 22.923C162.163 22.802 162.257 22.7426 162.411 22.7426C162.658 22.7426 163.214 22.7118 163.678 22.5622C164.45 22.351 164.604 21.4787 164.604 18.7419L164.635 1.50382C164.635 0.330123 164.728 -0.000976562 164.976 -0.000976562V0.000123438ZM114.201 0.000123438C114.417 0.000123438 114.509 0.242123 114.569 0.819623L116.628 19.4591C116.751 20.5514 116.965 22.252 118.285 22.6766C119.176 22.9505 119.975 22.9505 120.282 22.9505C120.436 22.9505 120.527 22.9802 120.527 23.1023C120.527 23.2838 120.252 23.3751 119.884 23.3751C119.207 23.3751 115.891 23.2838 114.754 23.1925C114.048 23.132 113.894 23.0418 113.894 22.8889C113.894 22.7679 113.956 22.7074 114.11 22.6766C114.263 22.6458 114.293 22.1299 114.232 21.5843L112.758 5.92032H112.665L105.141 21.7053C104.497 23.0418 104.404 23.3146 104.128 23.3146C103.913 23.3146 103.76 23.011 103.176 21.9176C102.377 20.4304 99.7359 15.179 99.583 14.8754C99.3058 14.3287 95.8672 7.04342 95.5295 6.22392H95.4063L94.1776 20.3083C94.1468 20.7945 94.1468 21.3423 94.1468 21.8571C94.1468 22.3125 94.4845 22.7074 94.9454 22.7976C95.4679 22.9186 95.9277 22.9505 96.1125 22.9505C96.2357 22.9505 96.3578 23.011 96.3578 23.1023C96.3578 23.3146 96.1741 23.3751 95.8056 23.3751C94.6693 23.3751 93.1953 23.2838 92.9489 23.2838C92.6739 23.2838 91.1988 23.3751 90.3694 23.3751C90.0625 23.3751 89.848 23.3146 89.848 23.1023C89.848 23.011 90.002 22.9505 90.1549 22.9505C90.4002 22.9505 90.6147 22.9505 91.0756 22.8581C92.0887 22.6766 92.1811 21.493 92.3043 20.3391L94.5153 0.546823C94.5769 0.212423 94.6693 0.000123438 94.853 0.000123438C95.0378 0.000123438 95.161 0.121123 95.315 0.455523L104.711 19.5493L113.741 0.486323C113.864 0.212423 113.986 0.000123438 114.201 0.000123438ZM146.677 0.000123438C146.772 0.000123438 146.803 0.121123 146.803 0.275123C146.803 0.487423 146.646 0.853724 146.553 1.70622C146.521 2.01092 146.458 3.35182 146.396 3.71812C146.365 3.87102 146.302 4.05362 146.176 4.05362C145.989 4.05362 145.926 3.90072 145.926 3.65762C145.926 3.44312 145.894 2.92612 145.738 2.55982C145.518 2.07252 145.205 1.70622 143.514 1.52362C142.98 1.46312 139.566 1.43232 139.222 1.43232C139.096 1.43232 139.033 1.52362 139.033 1.73702V10.1487C139.033 10.3621 139.064 10.4534 139.22 10.4534H140.019C141.297 10.4501 143.656 10.4391 144.203 10.3929C144.955 10.3313 145.394 10.2708 145.675 9.96502C145.895 9.72302 146.019 9.56902 146.145 9.56902C146.239 9.56902 146.302 9.63062 146.302 9.81322C146.302 9.99692 146.145 10.5139 146.051 11.5204C145.988 12.1298 145.926 13.2584 145.926 13.4707C145.926 13.7149 145.926 14.0493 145.706 14.0493C145.55 14.0493 145.486 13.9283 145.486 13.7754C145.486 13.4707 145.486 13.1649 145.362 12.77C145.236 12.3432 144.955 11.824 143.733 11.703C142.887 11.6117 139.785 11.5501 139.252 11.5501C139.096 11.5501 139.032 11.6414 139.032 11.7635V14.7687C139.028 16.0755 139.005 19.073 139.032 19.6571C139.125 21.6976 139.57 22.1321 142.403 22.1552L142.667 22.1563C143.482 22.1563 144.861 22.1563 145.675 21.8208C146.489 21.4864 146.865 20.8759 147.085 19.6263C147.148 19.2908 147.211 19.1698 147.367 19.1698C147.554 19.1698 147.554 19.414 147.554 19.6263C147.554 19.8705 147.304 21.9429 147.147 22.5831C146.928 23.3751 146.677 23.3751 145.456 23.3751C140.868 23.3751 138.756 23.2035 137.804 23.1936H137.718C137.655 23.1936 137.123 23.2233 136.464 23.2233C135.837 23.253 135.116 23.2838 134.647 23.2838C134.303 23.2838 134.146 23.2233 134.146 23.0407C134.146 22.9494 134.209 22.8581 134.396 22.8581C134.679 22.8581 135.055 22.7965 135.336 22.7349C135.963 22.6139 136.12 21.9429 136.245 21.0585C136.393 19.843 136.401 17.6089 136.401 14.8809V8.02682C136.401 4.19222 136.397 3.39692 136.34 2.49932C136.277 1.46312 136.026 0.974723 134.992 0.761323C134.741 0.700823 134.209 0.670023 133.927 0.670023C133.801 0.670023 133.675 0.609523 133.675 0.487423C133.675 0.304823 133.833 0.243223 134.178 0.243223C135.523 0.243223 137.382 0.326823 137.685 0.334523H138.774C140.636 0.333423 144.346 0.327923 144.892 0.304823C145.486 0.274023 145.988 0.213523 146.24 0.153023C146.396 0.122223 146.521 0.000123438 146.677 0.000123438ZM61.8376 0.820723C62.0499 0.820723 63.2027 0.730523 64.3874 0.730523C64.7207 0.730523 64.7812 0.820723 64.7812 0.939523C64.7812 1.06052 64.5986 1.09022 64.3258 1.21012C64.0838 1.33002 63.932 1.50932 63.932 1.74912C63.932 2.10882 64.0827 2.46852 64.3258 2.91732C64.8109 3.78632 69.3638 11.5138 69.9105 12.3828C70.488 11.1244 74.3424 4.56402 74.9485 3.57622C75.3445 2.94702 75.4655 2.43772 75.4655 2.04832C75.4655 1.63032 75.3445 1.30032 74.9793 1.21012C74.7065 1.11992 74.5239 1.06052 74.5239 0.910923C74.5239 0.789923 74.7065 0.730523 75.0101 0.730523C75.7988 0.730523 76.7701 0.820723 77.0121 0.820723C77.1947 0.820723 79.3804 0.730523 79.9568 0.730523C80.1691 0.730523 80.3517 0.791023 80.3517 0.910923C80.3517 1.06052 80.1999 1.14962 79.9568 1.14962C79.6235 1.14962 79.0471 1.27062 78.5609 1.56872C77.9537 1.92842 77.6204 2.28812 76.9516 3.09772C75.9506 4.29562 71.7013 11.3345 71.1546 12.6215C70.7003 13.7006 70.7003 14.629 70.7003 15.6168V18.193C70.7003 18.6726 70.7003 19.931 70.7905 21.1883C70.8521 22.0573 71.1249 22.7162 72.0357 22.8361C72.4603 22.8955 73.128 22.956 73.4008 22.956C73.5834 22.956 73.6428 23.0462 73.6428 23.1353C73.6428 23.2849 73.4921 23.3751 73.1588 23.3751C71.5616 23.3751 69.7422 23.2926 69.4551 23.286H69.4254C69.2736 23.286 67.3607 23.3751 66.451 23.3751C66.1166 23.3751 65.9648 23.3146 65.9648 23.1353C65.9648 23.0462 66.0253 22.956 66.2068 22.956C66.4818 22.956 66.8448 22.8955 67.1187 22.835C67.7248 22.7162 67.9987 22.0573 68.0592 21.1883C68.1318 20.1818 68.1472 19.1753 68.1494 18.5681V15.6168C68.1494 13.9998 67.8469 13.3398 67.452 12.473C67.2397 11.9934 63.173 5.40332 62.1104 3.84572C61.3514 2.73692 60.5924 1.98782 60.0468 1.62922C59.5903 1.33002 59.0139 1.14962 58.7411 1.14962C58.5893 1.14962 58.4375 1.09022 58.4375 0.940623C58.4375 0.819623 58.5585 0.731623 58.8324 0.731623C59.4088 0.731623 61.6858 0.820723 61.8376 0.820723ZM5.2954 10.9561C5.1744 10.9561 5.1128 11.0144 5.1128 11.1618V14.651C5.115 16.6695 5.1205 18.8464 5.1436 19.1808C5.2349 20.6207 5.2349 21.0321 6.1776 21.4721C7.0004 21.8549 8.3094 21.9121 8.8572 21.9121C10.5006 21.9121 13.1483 21.0618 13.1483 17.742C13.1483 15.9787 12.54 13.4234 10.1959 11.8669C9.1619 11.1904 8.3996 11.1024 7.6692 11.0144C7.2743 10.9561 5.7519 10.9561 5.2954 10.9561ZM6.9113 1.45982C6.5813 1.45982 5.9521 1.48952 5.4725 1.60612C5.203 1.66552 5.1128 1.75352 5.1128 1.92952V9.78572C5.1128 9.99032 5.1733 10.0497 5.3229 10.108C5.5033 10.1377 6.0423 10.2257 7.1511 10.2257C8.8297 10.2257 9.2488 10.1674 9.878 9.46342C10.5072 8.75942 10.956 7.70452 10.956 6.50222C10.956 4.06902 9.8483 1.45982 6.9113 1.45982Z" fill="#1A1919"/>
    </g>
    <defs>
        <clipPath id="clip0_233_1364">
            <rect width="187" height="24.2" fill="white"/>
        </clipPath>
    </defs>
</svg>
