<svg width="187" height="148" viewBox="0 0 187 148" fill="none" xmlns="http://www.w3.org/2000/svg">
    <g clip-path="url(#clip0_229_1144)">
        <path d="M187 0H0V147.632H187V0Z" fill="white"/>
        <path d="M12.0296 19.2031H173.965L173.15 18.3884V128.379L173.965 127.565H12.0296L12.8443 128.379V18.3884L12.0296 19.2031ZM12.0296 129.194H174.78V17.5737H11.2148V129.2H12.0296V129.194Z" fill="#BE2518"/>
        <path d="M19.6299 25.9834H49.6538C63.3562 25.9834 77.4304 29.2204 77.4304 45.6676C77.4304 51.8955 74.3192 57.9976 68.0858 59.9933V60.6167C75.8119 63.3561 80.6673 68.9606 80.6673 77.4303C80.6673 92.002 67.0907 96.9887 54.6295 96.9887H19.6299V25.9834ZM45.9138 53.2679C49.6538 53.2679 53.8859 52.8961 53.8859 48.0352C53.8859 42.8025 49.025 43.1743 45.2904 43.1743H43.5462V53.3882H45.9138V53.2624V53.2679ZM43.5462 80.0494H46.4113C50.6489 80.0494 56.751 79.9236 56.751 74.0675C56.751 68.2115 50.1513 68.2115 46.0395 68.2115H43.5517V80.0439L43.5462 80.0494Z" fill="#BE2518"/>
        <path d="M100.723 25.9834H125.634V49.9052H141.458V25.9834H166.369V97.1145H141.458V72.3233H125.634V96.9887H100.723V25.9834Z" fill="#BE2518"/>
        <path d="M166.37 100.975H19.6299V120.785H166.37V100.975Z" fill="#BE2518"/>
        <path d="M23.1182 115.426V106.459H25.1085C25.4803 106.459 28.4712 106.213 28.4712 109.078C28.4712 110.822 27.2245 111.692 25.4803 111.692H25.1085V115.426H23.1182ZM24.9827 110.319C25.9778 110.319 26.4754 110.068 26.4754 109.073C26.4754 108.449 26.2294 107.952 25.3545 107.952H24.9827V110.319Z" fill="#FFDC09"/>
        <path d="M31.336 106.454V109.942H33.3318V106.454H35.322V115.426H33.3318V111.566H31.336V115.426H29.3457V106.454H31.336Z" fill="#FFDC09"/>
        <path d="M43.1742 110.942C43.1742 114.305 41.43 115.552 39.6857 115.552C37.9415 115.552 36.1973 114.305 36.1973 110.942C36.1973 107.58 37.9415 106.333 39.6857 106.333C41.43 106.333 43.1742 107.58 43.1742 110.942ZM39.6857 113.928C40.9324 113.928 41.0582 111.686 41.0582 110.937C41.0582 110.188 40.9324 107.946 39.6857 107.946C38.4391 107.946 38.3133 110.188 38.3133 110.937C38.3133 111.686 38.4391 113.928 39.6857 113.928Z" fill="#FFDC09"/>
        <path d="M48.7791 106.454V108.078H47.2809V115.426H45.2906V108.078H43.7979V106.454H48.7791Z" fill="#FFDC09"/>
        <path d="M56.1274 110.942C56.1274 114.305 54.3831 115.552 52.6389 115.552C50.8946 115.552 49.1504 114.305 49.1504 110.942C49.1504 107.58 50.8946 106.333 52.6389 106.333C54.3831 106.333 56.1274 107.58 56.1274 110.942ZM52.6389 113.928C53.8855 113.928 54.0113 111.686 54.0113 110.937C54.0113 110.188 53.8855 107.946 52.6389 107.946C51.3922 107.946 51.2664 110.188 51.2664 110.937C51.2664 111.686 51.3922 113.928 52.6389 113.928Z" fill="#FFDC09"/>
        <path d="M63.35 110.691H59.9873V112.309H63.35V110.691Z" fill="#FFDC09"/>
        <path d="M69.0813 106.453L70.2022 110.811C70.3279 111.309 70.4482 111.812 70.574 112.304C70.6997 111.806 70.6997 111.309 70.82 110.685L72.0667 106.328H74.057L71.3176 115.295H69.6991L66.834 106.328H69.0758V106.453H69.0813Z" fill="#FFDC09"/>
        <path d="M76.9268 106.454H74.9365V115.421H76.9268V106.454Z" fill="#FFDC09"/>
        <path d="M78.1734 115.426V106.459H79.6662C80.038 106.459 84.1498 105.961 84.1498 111.068C84.1498 113.688 83.0289 115.552 79.9122 115.552H78.168V115.426H78.1734ZM82.165 110.943C82.165 109.822 81.7931 107.952 80.1692 107.952V113.808C81.7877 113.934 82.165 112.064 82.165 110.943Z" fill="#FFDC09"/>
        <path d="M89.0114 106.453V108.077H87.0211V110.068H88.7654V111.686H87.0211V113.682H89.0114V115.3H85.0254V106.333H89.0114V106.453Z" fill="#FFDC09"/>
        <path d="M96.8627 110.942C96.8627 114.305 95.1185 115.552 93.3742 115.552C91.63 115.552 89.8857 114.305 89.8857 110.942C89.8857 107.58 91.63 106.333 93.3742 106.333C95.1185 106.333 96.8627 107.58 96.8627 110.942ZM93.3742 113.928C94.6209 113.928 94.7466 111.686 94.7466 110.937C94.7466 110.188 94.6209 107.946 93.3742 107.946C92.1276 107.946 92.0018 110.188 92.0018 110.937C91.876 111.686 92.0018 113.928 93.3742 113.928Z" fill="#FFDC09"/>
        <path d="M103.961 110.691H100.724V112.309H103.961V110.691Z" fill="#FFDC09"/>
        <path d="M108.197 115.426V106.459H110.193C110.565 106.459 113.556 106.213 113.556 109.078C113.556 110.822 112.309 111.692 110.565 111.692H110.193V115.426H108.197ZM110.188 110.319C111.183 110.319 111.68 110.068 111.68 109.073C111.68 108.449 111.434 107.952 110.559 107.952H110.188V110.319Z" fill="#FFDC09"/>
        <path d="M114.552 115.426V106.459H116.548C117.794 106.459 120.036 106.585 120.036 109.078C120.036 110.073 119.664 110.948 118.664 111.446L120.408 115.557H118.292L116.548 111.446V115.557H114.552V115.432V115.426ZM116.416 110.319H116.788C117.657 110.319 118.035 109.822 118.035 109.073C118.035 108.449 117.663 107.952 116.662 107.952H116.416V110.319Z" fill="#FFDC09"/>
        <path d="M128.002 110.942C128.002 114.305 126.258 115.552 124.514 115.552C122.77 115.552 121.025 114.305 121.025 110.942C121.025 107.58 122.77 106.333 124.514 106.333C126.258 106.333 128.002 107.58 128.002 110.942ZM124.514 113.928C125.761 113.928 125.886 111.686 125.886 110.937C125.886 110.188 125.761 107.946 124.514 107.946C123.267 107.946 123.141 110.188 123.141 110.937C123.141 111.686 123.267 113.928 124.514 113.928Z" fill="#FFDC09"/>
        <path d="M135.974 106.454L138.342 115.421H136.226L135.854 113.928H133.858L133.486 115.421H131.496L133.738 106.454H135.98H135.974ZM135.105 110.068L134.853 108.695L134.602 110.068L134.23 112.435H135.602L135.105 110.068Z" fill="#FFDC09"/>
        <path d="M140.956 106.454V112.31C140.956 112.933 140.83 114.054 141.951 114.054C142.946 114.054 142.946 113.431 142.946 112.681V106.454H144.936V113.059C144.936 114.054 144.81 115.672 141.945 115.672C140.075 115.672 139.08 114.929 139.08 113.179V106.454H140.95H140.956Z" fill="#FFDC09"/>
        <path d="M146.062 115.426V106.459H147.555C147.927 106.459 152.038 105.961 152.038 111.068C152.038 113.688 150.918 115.552 147.801 115.552H146.057V115.426H146.062ZM150.048 110.943C150.048 109.822 149.671 107.952 148.052 107.952V113.808C149.671 113.934 150.048 112.064 150.048 110.943Z" fill="#FFDC09"/>
        <path d="M154.91 106.454H152.914V115.421H154.91V106.454Z" fill="#FFDC09"/>
        <path d="M162.881 110.942C162.881 114.305 161.137 115.552 159.393 115.552C157.649 115.552 155.904 114.305 155.904 110.942C155.904 107.58 157.649 106.333 159.393 106.333C161.137 106.333 162.881 107.58 162.881 110.942ZM159.393 113.928C160.639 113.928 160.765 111.686 160.765 110.937C160.765 110.188 160.639 107.946 159.393 107.946C158.146 107.946 158.02 110.188 158.02 110.937C158.02 111.686 158.146 113.928 159.393 113.928Z" fill="#FFDC09"/>
        <path d="M77.1788 54.0111C77.1788 56.8762 79.4207 59.2438 81.4164 61.3598C75.6861 64.225 69.8301 67.2159 69.8301 73.5695C69.8301 79.2998 76.3095 84.035 84.2816 84.035C90.1376 84.035 95.1188 81.2956 99.2306 78.6765C99.854 79.2998 104.092 83.5374 104.092 83.5374H112.687C112.687 83.5374 104.966 75.9371 104.092 75.0677C104.961 74.1928 110.194 69.7092 110.194 69.7092L105.212 66.598C105.212 66.598 100.855 70.4583 99.9797 71.2074C99.2306 70.4638 92.3794 63.8586 91.2585 62.7377C95.2446 60.4959 99.1049 58.1283 99.1049 53.7705C99.1049 49.4126 94.3697 46.0499 88.3934 46.0499C81.7937 45.7984 77.1788 49.2869 77.1788 54.022V54.0111ZM71.197 73.5695C71.197 68.0853 76.5555 65.3459 82.2858 62.4807L83.6582 61.7316L82.5373 60.485C80.5416 58.4947 78.5513 56.3732 78.5513 54.0056C78.5513 50.0195 82.5373 47.1544 88.1419 47.1544C93.3746 47.1544 97.3606 49.8938 97.3606 53.3823C97.3606 57.1168 93.6261 59.2383 89.7603 61.4801L88.6394 62.1035L99.7282 72.8149C99.7282 72.8149 104.463 68.7031 105.081 68.0798C105.579 68.4516 106.825 69.0749 107.575 69.6983C106.454 70.6934 101.718 74.8052 101.718 74.8052C101.718 74.8052 107.197 80.1582 108.942 81.9025H104.332C103.96 81.5307 99.0994 76.6698 99.0994 76.6698L98.6018 77.0416C94.8618 79.781 89.8806 82.5258 84.1503 82.5258C77.0476 82.5258 71.197 78.5398 71.197 73.5586V73.5695Z" fill="#B11918"/>
        <path d="M82.1656 52.7698C82.1656 54.6398 83.4123 55.8865 84.6535 57.1277L86.775 59.2437L87.6444 58.7462L88.6395 58.1228C91.0071 56.7504 93.8723 55.2577 93.8723 52.3925C93.8723 49.8992 91.3789 48.0347 88.0162 48.0347C84.7793 48.1604 82.1602 50.1507 82.1602 52.7698H82.1656ZM85.6486 56.2528C84.6535 55.1319 83.6583 54.011 83.6583 52.7643C83.6583 51.0201 85.6486 49.5274 88.142 49.5274C90.258 49.5274 92.4998 50.6483 92.4998 52.5183C92.4998 54.6343 90.3783 55.7553 88.0162 57.1277C88.0162 57.1277 87.1414 57.6253 87.0211 57.6253C86.6492 57.248 85.6486 56.2528 85.6486 56.2528Z" fill="#B11918"/>
        <path d="M82.5373 64.8485C78.9231 66.7185 74.4395 69.0861 74.4395 73.0721C74.4395 76.8067 78.6716 80.1694 83.4067 80.1694C88.1418 80.1694 92.374 77.43 95.7421 75.1882L96.7373 74.5648L85.2767 63.4761L82.5373 64.8485ZM85.0252 65.1C85.6485 65.7234 93.3691 73.3236 94.49 74.3188C91.3733 76.3146 87.6388 78.6767 83.4012 78.6767C79.4152 78.6767 75.8009 75.9373 75.8009 72.9464C75.8009 69.7094 79.6612 67.7137 83.1497 65.9694C83.1497 66.0952 84.3964 65.3461 85.0197 65.0946L85.0252 65.1Z" fill="#B11918"/>
        <path d="M99.2247 77.6818C95.1129 80.5469 90.1317 83.2863 84.2756 83.2863C77.1729 83.2863 70.5732 79.1745 70.5732 73.57C70.5732 67.5936 76.1778 64.8488 82.0338 61.8579L82.6572 61.6063C80.5411 59.3645 78.0478 56.997 78.0478 54.0061C78.0478 49.5224 82.4056 46.4058 88.2617 46.4058C93.4944 46.4058 98.2241 49.2709 98.2241 53.3827C98.2241 57.4945 93.992 59.9824 90.0005 62.2242L99.8426 71.8148L105.075 67.2054L108.815 69.573L102.839 74.8057L110.811 82.5263H104.211L99.2302 77.6708L99.2247 77.6818ZM87.2665 58.2491C89.8856 56.7564 93.1226 55.3839 93.1226 52.5188C93.1226 50.4028 90.755 48.9046 88.0156 48.9046C85.2763 48.9046 82.9087 50.6488 82.9087 52.7649C82.9087 54.5091 84.4014 55.8815 85.7738 57.2485L86.8947 58.3694L87.2665 58.2436V58.2491ZM82.9087 65.3463C79.4202 67.2163 75.1881 69.3324 75.1881 72.9466C75.1881 76.3094 79.0484 79.3003 83.4117 79.3003C88.1469 79.3003 92.2587 76.5609 95.6214 74.3136L85.156 64.0997L82.9141 65.3463H82.9087Z" fill="#FFDC09"/>
    </g>
    <defs>
        <clipPath id="clip0_229_1144">
            <rect width="187" height="147.632" fill="white"/>
        </clipPath>
    </defs>
</svg>
