<svg width="187" height="22" viewBox="0 0 187 22" fill="none" xmlns="http://www.w3.org/2000/svg">
    <g clip-path="url(#clip0_217_220)">
        <path d="M0 21.2168V0.177246H3.58603C4.61694 0.177246 5.34301 0.31581 5.76979 0.587395C6.29633 0.953203 6.55683 1.62385 6.55683 2.59934V7.93127C6.55683 8.7294 6.3961 9.29473 6.07463 9.63837C5.75316 9.97647 5.21554 10.1649 4.45621 10.2037V10.2647C5.9139 10.3256 6.63997 10.9741 6.63997 12.2157V18.8057C6.63997 19.7757 6.36839 20.4408 5.82522 20.79C5.39844 21.0782 4.6502 21.2278 3.58049 21.2278H0V21.2168ZM1.92326 9.4721H3.20913C4.16245 9.4721 4.63911 8.96772 4.63911 7.95898V3.23673C4.63911 2.28341 4.09594 1.80675 3.0096 1.80675H1.92881V9.4721H1.92326ZM1.92326 19.5872H3.0872C4.17354 19.5872 4.72225 19.1106 4.72225 18.1573V12.3875C4.72225 11.5339 4.21788 11.1071 3.20913 11.1071H1.92326V19.5872Z" fill="#231F20"/>
        <path d="M18.7117 17.8359V3.55832C18.7117 1.18611 19.8368 0 22.0926 0C24.3484 0 25.4736 1.18611 25.4736 3.55832V17.8415C25.4736 20.2137 24.3429 21.3998 22.0926 21.3998C19.8424 21.3998 18.7117 20.2137 18.7117 17.8415V17.8359ZM20.6349 3.61374V17.7805C20.6349 19.0996 21.1227 19.7647 22.0926 19.7647C23.0626 19.7647 23.5503 19.1052 23.5503 17.7805V3.61374C23.5503 2.29461 23.0626 1.63505 22.0926 1.63505C21.1227 1.63505 20.6349 2.29461 20.6349 3.61374Z" fill="#231F20"/>
        <path d="M37.512 21.2168V0.177246H41.098C42.1289 0.177246 42.8605 0.31581 43.2873 0.587395C43.8138 0.953203 44.0743 1.62385 44.0743 2.59934V7.93127C44.0743 8.7294 43.9136 9.29473 43.5921 9.63837C43.2707 9.97647 42.733 10.1649 41.9737 10.2037V10.2647C43.4314 10.3256 44.1575 10.9741 44.1575 12.2157V18.8057C44.1575 19.7757 43.8859 20.4408 43.3427 20.79C42.9159 21.0782 42.1677 21.2278 41.098 21.2278H37.512V21.2168ZM39.4352 9.4721H40.7211C41.6689 9.4721 42.1455 8.96772 42.1455 7.95898V3.23673C42.1455 2.28341 41.6024 1.80675 40.5105 1.80675H39.4352V9.4721ZM39.4352 19.5872H40.5992C41.6855 19.5872 42.2342 19.1106 42.2342 18.1573V12.3875C42.2342 11.5339 41.7298 11.1071 40.7211 11.1071H39.4352V19.5872Z" fill="#231F20"/>
        <path d="M56.2512 21.2168V0.177246H59.8372C60.8682 0.177246 61.5942 0.31581 62.021 0.587395C62.5476 0.953203 62.8081 1.62385 62.8081 2.59934V7.93127C62.8081 8.7294 62.6473 9.29473 62.3259 9.63837C62.0044 9.97647 61.4668 10.1649 60.7074 10.2037V10.2647C62.1651 10.3256 62.8967 10.9741 62.8967 12.2157V18.8057C62.8967 19.7757 62.6252 20.4408 62.082 20.79C61.6552 21.0782 60.907 21.2278 59.8372 21.2278H56.2512V21.2168ZM58.1745 9.4721H59.4548C60.4081 9.4721 60.8848 8.96772 60.8848 7.95898V3.23673C60.8848 2.28341 60.3416 1.80675 59.2497 1.80675H58.1689V9.4721H58.1745ZM58.1745 19.5872H59.3384C60.4248 19.5872 60.9735 19.1106 60.9735 18.1573V12.3875C60.9735 11.5339 60.4691 11.1071 59.4548 11.1071H58.1745V19.5872Z" fill="#231F20"/>
        <path d="M74.9629 21.2168V0.177246H76.8862V21.2223H74.9629V21.2168Z" fill="#231F20"/>
        <path d="M101.983 21.2168V0.177246H105.569C106.6 0.177246 107.326 0.31581 107.753 0.587395C108.279 0.953203 108.54 1.62385 108.54 2.59934V7.93127C108.54 8.7294 108.379 9.29473 108.058 9.63837C107.736 9.97647 107.198 10.1649 106.439 10.2037V10.2647C107.897 10.3256 108.628 10.9741 108.628 12.2157V18.8057C108.628 19.7757 108.357 20.4408 107.814 20.79C107.387 21.0782 106.639 21.2278 105.569 21.2278H101.983V21.2168ZM103.906 9.4721H105.187C106.14 9.4721 106.616 8.96772 106.616 7.95898V3.23673C106.616 2.28341 106.073 1.80675 104.981 1.80675H103.901V9.4721H103.906ZM103.906 19.5872H105.07C106.156 19.5872 106.705 19.1106 106.705 18.1573V12.3875C106.705 11.5339 106.201 11.1071 105.187 11.1071H103.906V19.5872Z" fill="#231F20"/>
        <path d="M125.444 21.2168V12.3875C125.444 11.5339 124.94 11.1071 123.931 11.1071H122.645V21.2223H120.722V0.177246H124.308C125.339 0.177246 126.065 0.31581 126.492 0.587395C127.019 0.953203 127.279 1.62385 127.279 2.59934V7.93127C127.279 8.7294 127.118 9.29474 126.797 9.63837C126.475 9.97647 125.938 10.1649 125.178 10.2037V10.2647C126.636 10.3644 127.362 11.0129 127.362 12.2157V21.2223H125.439L125.444 21.2168ZM122.645 9.4721H123.931C124.885 9.4721 125.356 8.96773 125.356 7.95898V3.23673C125.356 2.28341 124.813 1.80675 123.721 1.80675H122.64V9.4721H122.645Z" fill="#231F20"/>
        <path d="M139.434 17.8359V3.55832C139.434 1.18611 140.559 0 142.815 0C145.071 0 146.196 1.18611 146.196 3.55832V17.8415C146.196 20.2137 145.065 21.3998 142.815 21.3998C140.565 21.3998 139.434 20.2137 139.434 17.8415V17.8359ZM141.357 3.61374V17.7805C141.357 19.0996 141.845 19.7647 142.815 19.7647C143.785 19.7647 144.272 19.1052 144.272 17.7805V3.61374C144.272 2.29461 143.785 1.63505 142.815 1.63505C141.845 1.63505 141.357 2.29461 141.357 3.61374Z" fill="#231F20"/>
        <path d="M166.044 19.0053L167.501 0.177246H169.308L167.18 21.2223H164.675L163.217 2.51066H163.156L161.698 21.2223H159.193L157.065 0.177246H158.872L160.446 19.0053H160.507L161.992 0.177246H164.381L165.983 19.0053H166.038H166.044Z" fill="#231F20"/>
        <path d="M185.309 0.177246H187V21.2223H184.229L181.779 2.51066V21.2223H180.088V0.177246H182.921L185.309 18.1905V0.177246Z" fill="#231F20"/>
    </g>
    <defs>
        <clipPath id="clip0_217_220">
            <rect width="187" height="21.3942" fill="white"/>
        </clipPath>
    </defs>
</svg>
