<svg width="187" height="25" viewBox="0 0 187 25" fill="none" xmlns="http://www.w3.org/2000/svg">
    <g clip-path="url(#clip0_232_1306)">
        <path fill-rule="evenodd" clip-rule="evenodd" d="M72.8985 1.36953L72.7367 24.6623C72.7367 24.7594 72.0682 24.7917 71.9711 24.6623L58.4807 1.86558V23.2928L61.3168 23.4222C61.3168 23.4222 61.3492 24.2202 61.3168 24.2202H54.8789C54.7819 24.2202 54.7819 23.4222 54.8789 23.4222H57.5102L57.6719 1.49893L54.8682 1.36953C54.7711 1.36953 54.7711 0.571536 54.8682 0.571536H61.5756C61.8129 0.571536 61.9423 0.70094 62.2766 1.17542L71.9819 17.6637V1.49893C71.9819 1.36953 71.9172 1.36953 71.7878 1.36953H69.1566C69.0272 1.36953 69.0272 0.571536 69.1566 0.571536H75.5621C75.5621 0.571536 75.5944 1.36953 75.5621 1.36953H72.8877H72.8985ZM177.673 24.2202C177.608 24.2202 177.608 23.4222 177.673 23.4222H180.304L180.466 2.90081L173.661 24.6515C173.629 24.7486 172.993 24.7486 172.96 24.6515L165.185 2.66357V23.282L168.021 23.4114C168.021 23.4114 168.054 24.2094 168.021 24.2094H161.584C161.584 24.2094 161.551 23.4114 161.584 23.4114H164.258L164.387 1.48815L161.584 1.35875C161.584 1.35875 161.551 0.560752 161.584 0.560752H168.021C168.151 0.560752 168.291 0.754858 168.453 1.16464L174.697 18.6881L180.164 1.16464C180.293 0.797993 180.531 0.560752 180.595 0.560752H186.936C187.001 0.560752 187.001 1.35875 186.936 1.35875H184.229L184.1 23.282L186.936 23.4114C187.001 23.4114 187.001 24.2094 186.936 24.2094H177.662L177.673 24.2202ZM44.3972 5.30558L40.9572 15.8844H47.7617L44.3972 5.30558ZM57.0141 24.2202H47.3735C47.3088 24.2202 47.3088 23.4222 47.3735 23.4222H50.0047L47.9666 16.6824H40.6984L38.9622 21.934L38.3583 21.6429L45.4001 0.0970532C45.4324 0 46.101 0 46.1334 0.0970532L54.0378 23.3251C54.0378 23.3251 54.1349 23.4222 54.2751 23.4222H57.0141C57.0788 23.4222 57.0788 24.2202 57.0141 24.2202ZM154.272 2.00577C153.269 1.09994 152.072 0.808777 150.638 0.808777C149.204 0.808777 148.007 1.11072 147.036 2.00577C145.57 3.53705 144.772 6.84764 144.772 12.412C144.772 18.8175 145.57 21.2547 147.036 22.7859C148.007 23.7565 149.172 24.0153 150.638 24.0153C152.105 24.0153 153.269 23.7457 154.272 22.7859C155.739 21.2547 156.537 18.8175 156.537 12.412C156.537 6.83686 155.739 3.53705 154.272 2.00577ZM150.638 24.7917C145.236 24.7917 140.836 19.2597 140.836 12.412C140.836 5.56439 144.934 0 150.638 0C156.343 0 160.441 5.53203 160.441 12.412C160.441 19.292 156.073 24.7917 150.638 24.7917ZM131.993 2.00577C130.99 1.09994 129.793 0.808777 128.359 0.808777C126.925 0.808777 125.728 1.11072 124.757 2.00577C123.291 3.53705 122.493 6.84764 122.493 12.412C122.493 18.8175 123.291 21.2547 124.757 22.7859C125.728 23.7565 126.892 24.0153 128.359 24.0153C129.826 24.0153 130.99 23.7457 131.993 22.7859C133.46 21.2547 134.258 18.8175 134.258 12.412C134.258 6.83686 133.46 3.53705 131.993 2.00577ZM128.359 24.7917C122.956 24.7917 118.546 19.2597 118.546 12.412C118.546 5.56439 122.654 0 128.359 0C134.064 0 138.172 5.53203 138.172 12.412C138.172 19.292 133.805 24.7917 128.359 24.7917ZM106.058 1.36953H104.225C104.063 1.36953 103.988 1.36953 103.988 1.49893V11.5062H106.522C109.488 11.5062 110.329 10.7406 110.329 6.50257C110.329 2.26458 108.83 1.36953 106.058 1.36953ZM115.904 24.7917C113.37 24.7917 111.17 23.0879 111.17 18.3215V16.154C111.17 13.21 109.272 12.315 106.533 12.315H103.999V23.2928C103.999 23.3898 104.063 23.4222 104.236 23.4222H107.277V24.2202H97.5392C97.4745 24.2202 97.4745 23.4222 97.5392 23.4222H100.203L100.365 1.49893L97.5285 1.36953C97.4638 1.36953 97.4638 0.571536 97.5285 0.571536H106.77C111.267 0.571536 114.006 3.1057 114.006 6.37316C114.006 9.64062 111.105 11.916 108.172 11.916C112.604 11.916 114.912 14.6874 114.912 18.3862V21.3841C114.912 23.0879 115.613 23.6486 116.745 23.6486C117.511 23.6486 117.813 23.5516 118.244 23.0447C118.276 23.0124 118.74 23.5731 118.675 23.6163C118.039 24.2849 117.209 24.7809 115.904 24.7809V24.7917ZM90.3142 2.53417C89.3436 1.67147 88.0819 1.36953 86.7448 1.36953H83.7792C83.6175 1.36953 83.542 1.36953 83.542 1.49893V23.2928C83.542 23.3898 83.6067 23.4222 83.7792 23.4222H86.7448C88.0819 23.4222 89.3436 23.1849 90.3142 22.2899C91.8778 20.8233 92.6111 18.4832 92.6111 12.412C92.6111 7.10645 91.8778 4.00075 90.3142 2.53417ZM86.7448 24.2202H77.0718C77.0718 24.2202 77.0394 23.4222 77.0718 23.4222H79.7354L79.9079 1.49893L77.0718 1.36953C77.0718 1.36953 77.0394 0.571536 77.0718 0.571536H86.7448C92.1474 0.571536 96.5148 5.87711 96.5148 12.412C96.5148 18.9469 92.1474 24.2202 86.7448 24.2202ZM27.5639 1.36953H25.7306C25.5581 1.36953 25.4934 1.36953 25.4934 1.49893V11.5062H28.0276C30.9931 11.5062 31.8342 10.7406 31.8342 6.50257C31.8342 2.26458 30.3353 1.36953 27.5639 1.36953ZM37.3986 24.7917C34.8644 24.7917 32.6645 23.0879 32.6645 18.3215V16.154C32.6645 13.21 30.7666 12.315 28.0276 12.315H25.4934V23.2928C25.4934 23.3898 25.5581 23.4222 25.7306 23.4222H28.7716V24.2202H19.034C18.9693 24.2202 18.9693 23.4222 19.034 23.4222H21.6975L21.8701 1.49893L19.034 1.36953C18.9693 1.36953 18.9693 0.571536 19.034 0.571536H28.2756C32.7832 0.571536 35.5114 3.1057 35.5114 6.37316C35.5114 9.64062 32.6106 11.916 29.6775 11.916C34.1203 11.916 36.4173 14.6874 36.4173 18.3862V21.3841C36.4173 23.0879 37.1182 23.6486 38.2505 23.6486C39.0161 23.6486 39.3181 23.5516 39.7494 23.0447C39.7818 23.0124 40.2455 23.5731 40.1808 23.6163C39.5445 24.2849 38.7142 24.7809 37.4094 24.7809L37.3986 24.7917ZM8.78945 11.9483H6.52488V23.2928C6.52488 23.3898 6.58958 23.4222 6.76212 23.4222H9.23158C12.0677 23.4222 13.5019 22.5163 13.5019 18.149C13.5019 12.811 11.8305 11.9375 8.80023 11.9375L8.78945 11.9483ZM8.08851 1.36953H6.75133C6.58958 1.36953 6.51409 1.36953 6.51409 1.49893V11.2043H9.08061C11.3452 11.2043 12.154 10.2661 12.154 6.16827C12.154 2.07047 11.1187 1.36953 8.08851 1.36953ZM10.0296 24.2202H0.0546613C-0.0100409 24.2202 -0.0100409 23.4222 0.0546613 23.4222H2.72902L2.89077 1.49893L0.0546613 1.36953C-0.0208246 1.36953 -0.0208246 0.571536 0.0546613 0.571536H8.59534C12.2294 0.571536 15.54 2.34006 15.54 6.03887C15.54 9.24162 12.3373 11.614 10.2345 11.614C13.7068 11.614 17.1037 13.9864 17.1037 17.9548C17.1037 21.1253 14.7313 24.231 10.0296 24.231V24.2202Z" fill="black"/>
    </g>
    <defs>
        <clipPath id="clip0_232_1306">
            <rect width="187" height="24.7917" fill="white"/>
        </clipPath>
    </defs>
</svg>
