<svg width="147" height="100" viewBox="0 0 147 149" fill="none" xmlns="http://www.w3.org/2000/svg">
    <g clip-path="url(#clip0_225_747)">
        <path fill-rule="evenodd" clip-rule="evenodd" d="M0 0H147V149H0V0Z" fill="white"/>
        <path fill-rule="evenodd" clip-rule="evenodd" d="M140.487 82.4231L139.511 80.3052C139.511 80.3052 138.756 80.5371 137.467 80.7149C136.423 80.8617 135.233 80.8308 134.592 80.8463C134.577 80.197 134.539 79.0916 134.272 77.9321C134.005 76.7726 133.082 75.4045 133.098 75.3736C133.403 74.5928 133.86 73.8044 133.86 73.8044L132.884 71.47H130.589C130.589 71.47 127.836 75.2267 126.455 76.7958C125.083 78.365 123.245 80.3979 123.245 80.3979L120.492 80.081L120.644 82.4309C120.644 82.4309 116.145 86.8678 114.307 86.8678C114.17 86.8678 114.048 86.8601 113.933 86.8446C115.032 84.2319 118.875 80.3825 118.875 80.3825L117.899 78.0481L115.504 76.649C115.238 75.2421 114.727 73.6962 113.476 73.0005C111.844 72.0961 109.503 72.0806 106.795 73.6962C101.038 77.1282 97.8653 85.2445 97.8653 85.2445C97.8653 85.2445 93.1143 87.9654 89.98 87.7567C90.0639 87.3934 90.163 87.1306 90.163 87.1306C90.163 87.1306 99.4592 81.1632 105.423 72.2352C108.671 67.3732 110.143 60.1072 105.842 58.2984C104.126 57.5718 101.305 58.2056 97.3468 61.6299C90.9104 67.1954 84.901 84.0541 84.901 84.0541C84.901 84.0541 78.762 89.1249 74.6211 87.9113C73.9957 87.7258 73.5306 87.463 73.1874 87.1538C73.1874 86.5818 73.3094 86.1721 73.3094 86.1721C73.3094 86.1721 80.516 86.2417 82.7886 82.57C84.2909 80.1429 84.8171 76.8809 82.1175 74.5155C80.9355 73.4797 78.8841 73.0701 76.0014 73.9745C70.0378 75.8528 68.0474 81.4878 68.0474 81.4878H66.9874C66.9493 80.653 67.1475 78.2568 65.9197 76.9891C65.6223 76.6799 65.0199 76.1852 64.6538 76.0074C66.4002 74.0518 68.8405 70.7357 69.7785 66.6079C70.3124 64.2349 71.3724 59.6743 66.5375 58.1515C64.5623 57.5254 61.6186 58.5689 58.6063 61.5526C53.0088 67.0717 48.6162 83.0415 48.6162 83.0415C48.6162 83.0415 44.6507 87.5557 42.7289 86.6977C43.3618 83.9768 47.335 80.2511 47.335 80.2511L46.3589 77.9167L43.9643 76.5176C43.6745 75.0025 43.0492 73.3715 41.6231 72.7145C40.0064 71.9724 37.7948 72.0497 35.2477 73.5648C31.5415 75.7755 28.9105 79.9187 27.4996 82.6009C27.4996 82.6009 20.5142 88.4756 15.8775 86.0407C11.5764 83.7759 14.4286 75.1417 18.3865 70.0554C24.3501 62.3797 29.551 58.94 32.4566 60.9729C32.5023 61.0038 32.5481 61.0425 32.5938 61.0811C32.5176 63.2996 30.7178 65.8427 30.7178 65.8427L31.694 68.1771L35.5146 70.0554C35.5146 70.0554 41.1122 59.6666 34.0809 56.134C28.7961 53.4827 18.0204 57.2317 10.5316 69.1279C5.87975 76.5098 5.66622 83.4512 7.93878 87.177C10.2113 90.895 11.912 93.4072 15.7936 93.4072C19.4694 93.4072 24.9144 90.0757 26.9353 88.7539C27.0955 89.2872 28.6359 93.4072 30.939 93.4072C34.5232 93.4072 37.2229 90.8564 37.7262 90.3539C37.7567 90.3849 37.7872 90.4081 37.8177 90.439C37.8406 91.1037 38.1075 93.4149 40.7232 93.4149C43.6745 93.4149 48.9441 89.0399 49.3178 88.7229C49.3254 88.7384 49.3407 88.7539 49.3483 88.7693C49.4322 89.3413 50.2558 93.5695 55.8686 93.5695C63.5175 93.5695 66.2705 86.033 66.2705 86.033H67.0713C67.1704 89.0708 69.8319 93.5695 74.0796 93.5695C80.7372 93.5695 85.6865 89.7356 85.9915 89.4882C85.9915 89.4959 86.0068 89.5037 86.0144 89.5114C86.0754 89.9056 86.6855 93.4072 90.2926 93.4072C94.1133 93.4072 98.994 89.952 99.0092 89.9443C99.0092 89.9829 99.36 93.4072 102.525 93.4072C106.147 93.4072 108.87 90.3694 109.221 89.9675C109.243 89.9984 109.266 90.0293 109.289 90.0602C109.426 90.7018 110.128 93.4072 112.012 93.4072C115.482 93.4072 120.698 88.8698 121.865 87.8108C122.002 88.1355 123.878 93.4072 126.997 93.4072C132.198 93.4072 134.188 86.4968 134.188 86.4968C134.188 86.4968 137.452 86.9683 139.138 85.3991C140.823 83.8377 140.51 82.4231 140.51 82.4231H140.487ZM123.405 73.3715H126.394C126.394 73.3715 127.081 72.4594 127.813 71.0603C128.545 69.6612 129.079 68.2157 129.079 68.2157L128.103 65.8813H124.358C124.358 65.8813 124.023 66.9944 123.497 68.3858C122.97 69.7772 122.429 71.0371 122.429 71.0371L123.405 73.3715ZM104.088 86.1876C104.477 84.7189 105.812 82.9797 106.925 81.8357C108.382 80.3438 110.456 78.6046 111.798 78.7283C111.424 79.88 110.486 81.2173 109.587 82.3458C108.412 83.8222 105.751 86.605 104.088 86.1953V86.1876ZM103.577 65.6108C102.403 68.8496 97.5222 74.7474 93.427 78.1563C96.0808 72.4285 100.664 65.6108 103.577 65.6108ZM65.0427 65.8427C64.0895 68.4399 60.6349 72.7222 57.1955 75.8683C59.3385 70.9289 62.4041 65.6881 65.0427 65.8427ZM54.1451 85.5305L58.9114 81.7197C58.9114 81.7197 61.0238 80.9081 62.3355 81.5961C61.9847 83.9691 58.8656 87.4012 55.7542 87.4012C54.9153 87.4012 54.3205 87.2156 53.8934 86.9374C53.9239 86.1644 54.1451 85.5383 54.1451 85.5383V85.5305ZM32.3727 86.1876C32.7616 84.7189 34.0962 82.9797 35.2096 81.8357C36.6662 80.3438 38.7405 78.6046 40.0826 78.7283C39.709 79.88 38.771 81.2173 37.8711 82.3458C36.6967 83.8222 34.0352 86.605 32.3727 86.1953V86.1876Z" fill="#1D1D1B" stroke="#1D1D1B" stroke-width="1.11" stroke-miterlimit="2.61"/>
        <path fill-rule="evenodd" clip-rule="evenodd" d="M134.989 91.4748C134.989 90.1839 136.011 89.2332 137.223 89.2332C138.436 89.2332 139.442 90.1839 139.442 91.4748C139.442 92.7657 138.421 93.7319 137.223 93.7319C136.026 93.7319 134.989 92.7811 134.989 91.4748ZM137.223 93.3531C138.215 93.3531 139 92.557 139 91.4671C139 90.3772 138.215 89.5965 137.223 89.5965C136.232 89.5965 135.431 90.4004 135.431 91.4671C135.431 92.5338 136.217 93.3531 137.223 93.3531ZM136.758 92.7811H136.377V90.1839H137.345C137.948 90.1839 138.237 90.4081 138.237 90.926C138.237 91.3898 137.948 91.5907 137.582 91.6371L138.298 92.7811H137.871L137.2 91.6603H136.758V92.7811ZM137.223 91.3202C137.551 91.3202 137.841 91.297 137.841 90.8951C137.841 90.5704 137.559 90.5163 137.292 90.5163H136.766V91.3202H137.223Z" fill="#1D1D1B"/>
        <path fill-rule="evenodd" clip-rule="evenodd" d="M124.358 65.8814H128.103C128.103 65.8814 127.569 67.3346 126.837 68.7337C126.105 70.1328 125.418 71.0449 125.418 71.0449H122.429C122.429 71.0449 122.97 69.7849 123.496 68.3936C124.023 67.0022 124.358 65.8891 124.358 65.8891V65.8814ZM42.6373 86.6669C44.5286 87.6872 48.6009 83.0416 48.6009 83.0416C48.6009 83.0416 53.0012 67.0718 58.5911 61.5527C61.611 58.5767 64.5394 57.5718 66.5222 58.1516C68.5049 58.7313 69.5497 60.9034 68.7795 64.2736C67.2466 71.0062 61.7177 75.5978 61.7177 75.5978C61.7177 75.5978 64.4936 75.2344 65.5613 76.7959C66.6289 78.365 66.0188 81.4956 66.0188 81.4956H68.0169C68.0169 81.4956 70.0073 75.8606 75.9709 73.9822C78.8459 73.0778 80.9812 73.4102 82.087 74.5233C83.2766 75.7214 83.2843 77.8162 81.7819 80.2434C79.5094 83.9228 72.3027 83.8455 72.3027 83.8455C72.3027 83.8455 71.3876 86.976 74.5982 87.9191C78.7391 89.1327 84.8781 84.0619 84.8781 84.0619C84.8781 84.0619 90.8874 67.2032 97.3238 61.6377C101.282 58.2211 104.164 57.4404 105.819 58.3061C108.282 59.6048 107.993 64.5673 104.424 69.9086C98.4601 78.8365 89.1639 84.804 89.1639 84.804C89.1639 84.804 88.1116 87.6099 89.896 87.7568C93.0304 88.0118 97.85 85.2523 97.85 85.2523C97.85 85.2523 101.022 77.136 106.78 73.7039C109.487 72.0884 111.829 72.1039 113.461 73.0083C114.711 73.6962 115.222 75.2499 115.489 76.6567L117.884 78.0558C117.884 78.0558 109.098 86.8756 114.299 86.8756C116.137 86.8756 120.637 82.4386 120.637 82.4386L120.484 80.0888L123.237 80.4057C123.237 80.4057 125.075 78.3728 126.448 76.8036C127.828 75.2345 130.581 71.4778 130.581 71.4778H132.877C132.877 71.4778 132.419 72.2585 132.114 73.0469C131.809 73.8276 133.029 75.0799 133.647 76.649C134.257 78.2182 133.799 80.8772 133.799 80.8772C133.799 80.8772 135.447 80.8695 137.467 80.7226C138.657 80.6376 139.511 80.3129 139.511 80.3129C139.511 80.3129 139.816 81.5033 138.131 83.0725C136.446 84.6416 133.182 84.1701 133.182 84.1701C133.182 84.1701 131.191 91.0806 125.99 91.0806C121.857 91.0806 121.094 85.2678 121.094 85.2678C121.094 85.2678 114.925 91.0806 110.997 91.0806C108.854 91.0806 108.244 87.5944 108.244 87.5944C108.244 87.5944 105.392 91.0806 101.518 91.0806C98.3305 91.0806 98.0026 87.6176 98.0026 87.6176C98.0026 87.6176 93.1066 91.0806 89.286 91.0806C85.4653 91.0806 85.0001 87.1461 85.0001 87.1461C85.0001 87.1461 79.9517 91.2352 73.073 91.2352C65.2715 91.2352 67.2619 83.6986 67.2619 83.6986H65.2639C65.2639 83.6986 62.5109 91.2352 54.8619 91.2352C48.8526 91.2352 48.334 86.3731 48.334 86.3731C48.334 86.3731 42.7746 91.0806 39.7166 91.0806C36.6585 91.0806 36.811 87.9268 36.811 87.9268C36.811 87.9268 33.9055 91.0806 29.9323 91.0806C25.9591 91.0806 26.7217 85.8939 26.7217 85.8939C26.7217 85.8939 19.3778 91.0806 14.7946 91.0806C6.84059 91.0806 3.01994 81.0395 10.5087 69.1356C18.0052 57.2394 28.8647 53.3204 34.058 56.1418C39.259 58.9554 34.5156 67.7288 34.5156 67.7288L30.6949 65.8505C30.6949 65.8505 34.3631 60.6792 31.4575 58.6463C28.552 56.6133 23.351 60.0531 17.3874 67.7288C11.4239 75.4045 10.9663 83.3894 15.8622 86.0485C20.4684 88.5529 27.4843 82.6087 27.4843 82.6087C28.8952 79.9342 31.5262 75.7833 35.2324 73.5725C37.7719 72.0575 39.9911 71.9802 41.6078 72.7223C43.0263 73.3793 43.6516 75.0026 43.949 76.5253L46.3436 77.9244C46.3436 77.9244 39.0607 84.7421 42.6373 86.6746V86.6669ZM34.2334 79.4936C32.5023 81.2637 30.245 84.4639 31.8083 85.8784C33.3717 87.3007 36.5517 83.9846 37.871 82.3304C39.4268 80.3748 41.0892 77.8085 39.7776 76.649C38.565 75.5823 35.9645 77.7157 34.2334 79.4859V79.4936ZM105.949 79.4936C104.218 81.2637 101.96 84.4639 103.524 85.8784C105.08 87.3007 108.267 83.9846 109.587 82.3304C111.15 80.3748 112.812 77.8085 111.493 76.649C110.281 75.5823 107.68 77.7157 105.949 79.4859V79.4936ZM64.7529 63.6784C61.1305 62.0551 56.4024 72.2894 54.4501 78.1254C59.9332 74.1987 67.3992 64.861 64.7529 63.6784ZM78.518 76.8036C77.8697 76.1388 75.6124 78.4578 73.9957 80.7767C77.2292 80.4443 79.1662 77.4684 78.518 76.8036ZM103.379 63.4619C99.8786 61.63 92.6491 73.8199 90.8112 80.0424C96.2791 76.9118 106.117 64.8997 103.379 63.4619ZM57.9352 79.3854L53.1689 83.1962C53.1689 83.1962 51.72 87.3935 55.7618 87.3935C59.163 87.3935 62.5719 83.2889 62.366 80.9545C62.0914 77.7776 57.9352 79.3776 57.9352 79.3776V79.3854ZM126.242 86.4891C127.859 86.6591 129.315 83.8377 129.315 83.8377C129.315 83.8377 128.141 83.7759 127.233 83.6831C126.41 83.5981 125.197 83.4281 125.197 83.4281C125.197 83.4281 124.633 86.3267 126.249 86.4891H126.242ZM129.59 76.6413L126.356 80.7767C126.356 80.7767 127.157 80.9313 128.126 81.0009C129.147 81.0705 129.826 81.0009 129.826 81.0009C129.826 81.0009 130.024 79.9883 129.986 79.0994C129.956 78.3573 129.59 76.6413 129.59 76.6413Z" fill="#FDD800"/>
    </g>
    <defs>
        <clipPath id="clip0_225_747">
            <rect width="147" height="149" fill="white"/>
        </clipPath>
    </defs>
</svg>
