<svg width="187" height="60" viewBox="0 0 187 60" fill="none" xmlns="http://www.w3.org/2000/svg">
    <g clip-path="url(#clip0_235_1430)">
        <path d="M0 22.7561C0 15.5828 5.4418 10.0586 12.5326 10.0586C18.2218 10.0586 23.1689 13.8514 23.9109 18.9634H19.2112C18.5516 16.4074 15.6658 14.511 12.4502 14.511C7.83289 14.511 4.36993 18.1388 4.36993 22.8386C4.36993 27.4559 7.83289 31.0837 12.4502 31.0837C15.6658 31.0837 18.5516 29.1873 19.2112 26.384H23.8285C23.1689 31.7433 18.1393 35.4537 12.4502 35.4537C5.4418 35.3712 0 29.9294 0 22.7561Z" fill="black"/>
        <path d="M51.1198 10.5537V34.8769H46.5025V31.3315C45.1833 33.6401 41.8028 35.3716 38.3398 35.3716C31.5788 35.3716 26.4668 29.8474 26.4668 22.6741C26.4668 15.5008 31.5788 9.97656 38.3398 9.97656C41.8028 9.97656 45.1833 11.708 46.5025 14.0167V10.4713H51.1198V10.5537ZM46.5025 27.044V18.4691C45.1833 16.078 42.2975 14.3465 39.2468 14.3465C34.547 14.3465 31.0016 17.8919 31.0016 22.6741C31.0016 27.3738 34.6295 31.0017 39.2468 31.0017C42.2975 31.0841 45.1833 29.3527 46.5025 27.044Z" fill="black"/>
        <path d="M54.9961 22.7561C54.9961 15.5828 60.4379 10.0586 67.5287 10.0586C73.2179 10.0586 78.165 13.8514 78.907 18.9634H74.2073C73.5477 16.4074 70.6619 14.511 67.4463 14.511C62.829 14.511 59.366 18.1388 59.366 22.8386C59.366 27.4559 62.829 31.0837 67.4463 31.0837C70.6619 31.0837 73.5477 29.1873 74.2073 26.384H78.8246C78.165 31.7433 73.1354 35.4537 67.4463 35.4537C60.4379 35.3712 54.9961 29.9294 54.9961 22.7561Z" fill="black"/>
        <path d="M105.291 20.9427V34.877H100.673V21.6023C100.673 17.3148 98.1172 14.5939 94.242 14.5939C91.4387 14.5939 88.8002 16.078 87.3985 18.4691V34.877H82.7812V0H87.3985V14.0168C88.9651 11.6257 92.0158 10.0591 95.3139 10.0591C101.333 10.0591 105.291 14.3466 105.291 20.9427Z" fill="black"/>
        <path d="M133.737 10.5537V34.8769H129.12V31.3315C127.8 33.6401 124.42 35.3716 120.957 35.3716C114.196 35.3716 109.084 29.8474 109.084 22.6741C109.084 15.5008 114.196 9.97656 120.957 9.97656C124.42 9.97656 127.8 11.708 129.12 14.0167V10.4713H133.737V10.5537ZM129.12 27.044V18.4691C127.8 16.078 124.915 14.3465 121.864 14.3465C117.164 14.3465 113.619 17.8919 113.619 22.6741C113.619 27.3738 117.247 31.0017 121.864 31.0017C124.915 31.0841 127.8 29.3527 129.12 27.044Z" fill="black"/>
        <path d="M152.454 10.4709V14.8408C151.547 14.511 150.475 14.4285 149.65 14.4285C147.672 14.4285 145.033 15.9951 143.549 18.7985V34.9589H138.932V10.5533H143.549V14.0987C144.868 11.6252 147.589 10.0586 149.898 10.0586C150.97 10.0586 151.877 10.3059 152.454 10.4709Z" fill="black"/>
        <path d="M178.425 23.5812H158.802C159.214 28.1985 162.265 31.2492 166.964 31.2492C170.345 31.2492 173.066 29.6002 173.725 27.0442H178.343C177.436 32.1562 172.736 35.4542 166.882 35.4542C159.791 35.4542 154.432 29.93 154.432 22.6742C154.432 15.6659 159.873 10.1416 166.799 10.1416C173.313 10.1416 178.59 15.1711 178.59 22.1795C178.507 22.5918 178.425 23.1689 178.425 23.5812ZM173.56 20.1182C173.313 16.4904 170.427 13.9344 166.552 13.9344C162.677 13.9344 159.873 16.4079 159.049 20.1182H173.56Z" fill="black"/>
        <path d="M187 34.877H182.383V0H187V34.877Z" fill="black"/>
        <path d="M80.2254 46.9972C80.2254 49.9654 77.9168 52.1916 74.8661 52.1916H70.5786V59.2825H68.1875V41.8027H74.8661C77.9168 41.8027 80.2254 44.0289 80.2254 46.9972ZM77.8343 46.9972C77.8343 45.3481 76.5151 44.1114 74.8661 44.1114H70.5786V49.883H74.8661C76.5976 49.883 77.8343 48.6462 77.8343 46.9972Z" fill="black"/>
        <path d="M94.3243 47.0798V59.2002H92.0157V57.4687C91.3561 58.623 89.6246 59.4475 87.9756 59.4475C84.5951 59.4475 82.0391 56.6442 82.0391 53.0988C82.0391 49.5534 84.5951 46.75 87.9756 46.75C89.707 46.75 91.3561 47.657 92.0157 48.7288V46.9974H94.3243V47.0798ZM92.0157 55.325V51.0375C91.3561 49.8007 89.872 48.9762 88.3878 48.9762C86.0792 48.9762 84.2653 50.7077 84.2653 53.0988C84.2653 55.4899 86.0792 57.2213 88.3878 57.2213C89.872 57.3038 91.3561 56.4793 92.0157 55.325Z" fill="black"/>
        <path d="M104.302 46.9969V49.1407C103.89 48.9758 103.313 48.8933 102.9 48.8933C101.911 48.8933 100.592 49.7178 99.8497 51.0371V59.1173H97.541V47.0794H99.8497V48.8109C100.509 47.5741 101.828 46.832 103.065 46.832C103.56 46.832 104.055 46.9145 104.302 46.9969Z" fill="black"/>
        <path d="M109.248 43.1222C109.248 43.9468 108.506 44.6888 107.682 44.6888C106.857 44.6888 106.115 44.0292 106.115 43.1222C106.115 42.2977 106.775 41.5557 107.682 41.5557C108.506 41.6381 109.248 42.2977 109.248 43.1222ZM108.836 47.0799V59.2003H106.527V47.0799H108.836Z" fill="black"/>
        <path d="M111.227 55.4899H113.453C113.618 56.7266 114.69 57.4687 116.256 57.4687C117.74 57.4687 118.73 56.8091 118.73 55.7372C118.73 52.6865 111.474 54.9951 111.474 50.3779C111.474 48.3166 113.205 46.75 115.926 46.75C118.317 46.75 120.461 48.0692 120.708 50.3779H118.4C118.235 49.3884 117.246 48.6464 115.844 48.6464C114.607 48.6464 113.7 49.2235 113.7 50.1305C113.7 53.0163 120.956 50.5428 120.956 55.5723C120.956 57.716 118.977 59.3651 116.339 59.3651C113.453 59.4475 111.474 57.9634 111.227 55.4899Z" fill="black"/>
    </g>
    <defs>
        <clipPath id="clip0_235_1430">
            <rect width="187" height="59.4475" fill="white"/>
        </clipPath>
    </defs>
</svg>
