<svg width="187" height="37" viewBox="0 0 187 37" fill="none" xmlns="http://www.w3.org/2000/svg">
    <path d="M24.0795 33.1813C24.0795 33.1813 20.0321 36.5771 13.8841 36.4315C5.48192 36.2375 0 31.2894 0 23.3821C0 15.766 5.53315 9.84766 14.96 9.84766C19.9296 9.84766 24.1307 13.9226 24.1307 13.9226C24.1307 13.9226 19.5197 18.0945 19.4685 18.143C19.5197 18.0945 17.4192 16.6877 17.2655 16.5906C14.8063 15.1838 11.6299 15.1838 9.37562 17.0272C7.48 18.5796 7.0189 20.9081 7.0189 23.1396C7.0189 28.3788 10.2978 31.0468 14.96 31.0468C17.2655 31.0468 19.571 28.9124 19.571 28.9124L24.0795 33.1813Z" fill="#00A0CB"/>
    <path d="M50.157 29.7856C50.157 32.0656 50.2594 34.3456 50.6181 35.898H44.2652L43.7529 33.0843H43.5992C41.9597 35.0733 39.0394 36.4801 35.3507 36.4801C29.715 36.4801 26.5898 32.7448 26.5898 28.9124C26.5898 22.509 32.8403 19.2103 43.1381 19.3073V18.8707C43.1381 14.1167 37.4 13.9711 33.9161 15.5235C33.66 15.6205 30.8934 17.2213 30.9446 17.2698L27.8707 14.0681C27.8707 14.0681 31.7131 9.65366 38.6296 9.84771C48.4663 10.1388 50.157 15.0384 50.157 20.6171V29.7856ZM43.2405 24.4494C38.2709 24.4009 33.5063 24.3524 33.5063 28.2333C33.5063 30.7558 35.2994 31.8716 37.5024 31.8716C40.3715 31.8716 42.3696 30.1737 43.0356 28.3788C43.1893 27.8937 43.1893 27.4571 43.1893 26.972V24.4494H43.2405Z" fill="#00A0CB"/>
    <path d="M54.9729 18.6281C54.9729 15.1838 54.9216 12.6613 54.7679 10.4298H60.6085L60.8647 15.2323H61.0184C62.3504 11.6911 67.5762 9.84766 70.4964 9.84766C71.1625 9.84766 71.5211 9.89617 72.0847 9.99319V16.0085C71.4699 15.9115 70.8551 15.863 70.0353 15.863C66.8077 15.863 62.5041 17.8034 61.8893 20.7141C61.7869 21.2962 61.7356 21.9753 61.7356 22.6545V35.8979H54.9216V18.6281H54.9729Z" fill="#00A0CB"/>
    <path d="M87.7107 3.39574V10.3813H94.6784V15.1838H87.7107V26.4868C87.7107 31.629 89.6063 31.1924 92.2192 31.1924C93.4488 31.1924 94.1148 31.1439 94.8833 30.9498L94.9858 35.8009C94.0123 36.189 91.1433 36.48 89.0427 36.48C86.4811 36.48 84.4318 35.7039 83.2022 34.3941C81.7164 32.9388 81.0504 30.5617 81.0504 27.2145V15.2324H75.671V10.4298H81.0504V3.34723L87.7107 3.39574Z" fill="#00A0CB"/>
    <path d="M104.156 24.983C104.003 24.983 104.925 27.9422 105.027 28.1847C105.54 29.1549 106.308 29.9311 107.282 30.5617C110.458 32.5992 116.299 32.0171 118.194 28.4758L123.164 31.3864C120.192 35.2673 116.401 36.4315 112.2 36.4315C102.671 36.4315 97.035 31.3379 97.035 23.5762C97.035 16.4936 102.005 9.84766 111.431 9.84766C120.961 9.84766 124.137 16.6392 124.137 22.2664C124.137 23.4792 124.035 24.4009 123.881 24.983H104.156ZM117.118 20.4715C117.17 18.0945 115.991 14.2621 111.022 14.2621C106.411 14.2621 104.515 17.8519 104.208 20.4715H117.118Z" fill="#00A0CB"/>
    <path d="M127.98 18.6281C127.98 15.1838 127.928 12.6613 127.775 10.4298H133.615L133.871 15.2323H134.025C135.357 11.6911 140.583 9.84766 143.503 9.84766C144.169 9.84766 144.528 9.89617 145.092 9.99319V16.0085C144.477 15.9115 143.862 15.863 143.042 15.863C139.815 15.863 135.511 17.8034 134.896 20.7141C134.794 21.2962 134.742 21.9753 134.742 22.6545V35.8979H127.928V18.6281H127.98Z" fill="#00A0CB"/>
    <path d="M157.848 0L153.289 12.2732H148.217L151.342 0H157.848Z" fill="#00A0CB"/>
    <path d="M158.463 28.9609C158.053 29.3489 161.332 31.1438 161.64 31.2894C163.792 32.1626 168.505 32.017 168.505 28.9123C168.505 27.166 167.275 26.3413 163.535 25.177C157.592 23.4791 155.184 20.7626 155.184 17.7549C155.184 13.2434 159.642 9.79913 166.661 9.79913C172.04 9.79913 175.319 13.777 175.319 13.777L171.169 17.3183C171.425 17.1243 168.659 15.6689 168.403 15.5234C166.661 14.6987 162.511 14.3591 162.511 17.0757C162.511 18.6766 163.945 19.4528 167.839 20.617C173.372 22.2179 175.883 24.5949 175.934 28.3787C175.934 33.0358 171.63 36.4315 163.587 36.383C157.695 36.383 154.313 32.6477 154.313 32.6477L158.463 28.9609Z" fill="#00A0CB"/>
    <path d="M182.748 18.5311C180.391 18.5311 178.495 16.7362 178.495 14.5047C178.495 12.2732 180.391 10.4783 182.748 10.4783C185.104 10.4783 187 12.2732 187 14.5047C187 16.7362 185.104 18.5311 182.748 18.5311ZM182.748 11.2059C180.852 11.2059 179.264 12.6613 179.264 14.5047C179.264 16.2996 180.801 17.8034 182.748 17.8034C184.643 17.8034 186.232 16.3481 186.232 14.5047C186.232 12.7098 184.643 11.2059 182.748 11.2059Z" fill="#00A0CB"/>
    <path d="M181.211 12.4673C181.518 12.4188 181.979 12.3703 182.492 12.3703C183.158 12.3703 183.567 12.4673 183.926 12.7099C184.182 12.9039 184.336 13.195 184.336 13.5831C184.336 14.1652 183.926 14.5048 183.516 14.6503C183.824 14.7473 184.029 15.0869 184.131 15.475C184.285 16.0086 184.387 16.4937 184.49 16.6878H183.619C183.567 16.5422 183.414 16.2026 183.311 15.669C183.158 15.0869 182.953 14.9414 182.492 14.8929H182.082V16.6878H181.262V12.4673H181.211ZM182.03 14.3592H182.543C183.106 14.3592 183.465 14.0682 183.465 13.6316C183.465 13.1465 183.106 12.9524 182.594 12.9524C182.338 12.9524 182.184 12.9524 182.082 13.0009V14.3592H182.03Z" fill="#00A0CB"/>
</svg>
