
<svg width="187" height="136" viewBox="0 0 187 136" fill="none" xmlns="http://www.w3.org/2000/svg">
    <path d="M148.223 57.8626C147.994 56.0061 145.814 54.4626 142.344 54.692C139.045 54.9006 137.927 56.0896 137.583 57.7583L135.374 70.1902H135.26L130.556 59.6147C129.15 56.4025 128.233 55.589 123.73 55.8601C119.227 56.1522 118.424 57.0282 117.908 60.4074L116.129 71.3792H116.015L110.565 59.4479C109.848 57.8626 108.471 56.8196 105.173 57.0282C102.965 57.1742 101.445 57.9252 100.67 58.9472C100.584 58.4466 100.297 57.9043 99.8098 57.2994C97.6014 54.4626 89.6854 50.1865 78.2131 54.8798C74.1977 56.5276 71.1575 58.7595 69.7808 61.4295C68.2321 59.4687 65.3066 58.1129 60.7463 57.8C56.7597 57.5288 53.8916 58.4675 51.4824 60.5742H51.3677L52.2854 53.2736C52.6583 50.3742 50.3638 48.8724 46.9508 48.6638C43.5377 48.4344 40.8991 49.6025 40.5549 52.5018L37.7155 74.9669C37.3426 77.8663 39.6371 79.3681 43.0502 79.5767C46.4632 79.8061 49.0732 78.638 49.446 75.7387L50.3925 68.146C50.708 65.5804 52.3428 64.016 55.2683 64.2037C58.165 64.3914 59.427 65.7681 59.1402 68.146L58.1077 76.3018C57.7348 79.2012 60.0293 80.7031 63.4423 80.9117C66.8554 81.1411 69.494 79.973 69.8382 77.0736L70.7273 70.0025C70.8994 70.2736 71.1002 70.5239 71.3009 70.7951C76.6643 77.6785 85.4693 78.1166 93.6434 74.7583C99.6091 72.3178 102.621 70.0442 103.768 68.1877L108.185 75.7387C110.135 79.0761 111.454 79.535 115.498 79.2847C119.887 79.0135 122.353 78.5546 123.099 74.6749L124.791 65.3718H124.906L128.778 74.3202C130.441 78.054 132.965 78.2 137.353 77.908C141.397 77.6577 142.602 77.0319 143.72 73.4859L147.478 61.7215C148.109 59.9693 148.338 58.9472 148.223 57.8626ZM82.085 59.0307C84.6376 57.9877 87.5917 58.0086 89.6281 60.616L80.02 64.5583C78.0983 61.8675 79.7905 59.9902 82.085 59.0307ZM98.6913 63.9325C95.565 65.2258 95.1635 68.438 91.435 69.9816C88.108 71.3583 84.9818 70.5657 82.8881 68.292L97.4293 62.3055C98.6626 61.8049 99.5517 61.2834 100.068 60.7203C100.068 60.7828 100.068 60.8454 100.068 60.908C100.183 61.7632 100.498 62.5558 101.129 63.7031C100.326 63.5779 99.4657 63.6196 98.6913 63.9325ZM173.291 56.8405C170.279 56.5485 168.558 57.7166 166.78 61.1166L161.474 71.0871L161.359 71.0663L159.323 58.6761C158.979 56.4233 157.573 55.2761 154.906 55.0049C151.608 54.692 148.883 56.0061 148.51 58.0712C148.395 58.7387 148.539 60.0528 149.428 63.0773L153.271 76.5939C153.501 77.2822 153.615 77.9288 153.529 78.3043C153.415 78.9301 152.726 79.2638 150.317 79.0344C147.65 78.7632 145.728 79.2221 145.355 81.2454C144.954 83.4356 146.961 85.0209 151.608 85.4798C156.483 85.9595 161.818 85.2086 165.375 80.0564L174.868 66.2479C176.761 63.5362 177.966 61.6798 178.109 60.9706C178.596 58.5718 176.13 57.1117 173.291 56.8405ZM37.9449 70.6074C37.5721 69.1264 35.5644 67.708 32.8111 68.1043C29.5988 68.5423 28.6523 71.7755 24.7517 72.3178C20.7077 72.881 18.7574 70.3153 18.0117 67.5203C17.4094 65.2258 17.7249 62.2221 22.4572 61.5755C26.5586 61.0123 28.6236 63.8074 31.6064 63.4111C33.9009 63.0982 35.4497 61.6589 34.9621 59.719C34.1877 56.7779 28.1074 54.692 20.0193 55.7976C10.7841 57.0699 4.44556 61.5546 6.45323 69.2724C8.48958 77.0528 16.635 79.5141 25.8703 78.2417C36.1667 76.8233 38.3752 72.3178 37.9449 70.6074Z" fill="#128CED"/>
</svg>
