<svg width="187" height="103" viewBox="0 0 187 103" fill="none" xmlns="http://www.w3.org/2000/svg">
    <g clip-path="url(#clip0_212_99)">
        <path d="M0 0H187V103H0V0Z" fill="#2AA3E1"/>
        <path d="M66.3441 36.3529C65.1391 36.9436 63.5849 37.1103 62.2926 36.5801C60.9828 36.0803 60.0747 34.9442 59.8302 33.7325C59.5682 32.4298 59.7778 31.0363 60.5113 29.87C61.0177 29.052 61.9608 28.4461 63.026 28.325C64.1786 28.1886 65.4185 28.2947 66.4314 28.8248C67.1125 29.1883 67.4967 29.8245 67.9857 30.3698C68.1079 29.7336 68.1429 29.0975 68.1429 28.4613C66.7807 28.0675 65.3661 27.6736 63.9167 27.6888C62.3624 27.6433 60.8082 28.2189 59.7603 29.2186C58.5379 30.4001 57.9791 32.036 58.2235 33.5961C58.3807 34.7322 59.0967 35.7925 60.162 36.4741C61.2797 37.2011 62.6942 37.4889 64.0738 37.5041C65.6106 37.5041 67.095 36.9285 68.1952 36.0197C68.1952 35.641 68.1953 35.2623 68.1778 34.8836C67.619 35.4289 67.095 36.0045 66.3441 36.3529Z" fill="white"/>
        <path d="M171.091 33.5811C170.654 32.8389 169.798 32.3845 168.943 32.0664C168.139 31.7332 167.266 31.4908 166.585 30.9758C165.921 30.4911 165.729 29.552 166.271 28.931C167.004 28.0525 168.558 28.0222 169.554 28.5826C170.217 28.9613 170.375 29.6732 170.514 30.3094C170.671 30.3094 170.846 30.3094 171.021 30.3094C171.021 29.552 171.021 28.8098 171.021 28.0525C170.008 27.901 168.995 27.6586 167.947 27.7041C167.056 27.7192 166.183 28.0373 165.572 28.5675C164.681 29.34 164.437 30.688 165.223 31.5969C166.358 32.8541 168.419 32.9601 169.728 34.0204C170.427 34.6263 170.497 35.7169 169.781 36.3379C168.75 37.277 166.795 37.2164 165.851 36.2016C165.38 35.8077 165.485 35.0504 164.786 34.8535C164.786 35.626 164.786 36.4136 164.856 37.1861C166.428 37.5042 168.157 37.7314 169.676 37.1407C171.178 36.5802 171.859 34.8383 171.125 33.5811H171.091Z" fill="white"/>
        <path d="M158.814 28.2189C159.128 28.5824 159.477 28.9762 159.407 29.4761C159.46 30.082 158.814 30.4606 158.656 31.0059C158.849 31.0059 159.076 30.9756 159.198 30.8393C159.757 30.4001 160.281 29.8699 160.368 29.2034C160.473 28.6733 160.211 28.1431 159.949 27.6736C159.565 27.8553 159.18 28.0371 158.796 28.2189H158.814Z" fill="white"/>
        <path d="M12.2769 27.8706C12.2769 28.6734 12.2769 29.4913 12.2769 30.2941C12.4166 30.2941 12.6785 30.2941 12.8182 30.2941C12.8881 29.6731 12.9754 28.8855 13.7438 28.5977C14.617 28.3402 15.56 28.4462 16.4681 28.4008C16.4681 30.8243 16.4681 33.2478 16.4681 35.6562C16.4507 36.0197 16.4681 36.4438 16.1887 36.7468C15.8569 36.868 15.4902 36.868 15.1409 36.8983C15.1409 37.0194 15.1409 37.1558 15.1409 37.2769C16.4856 37.2315 17.8128 37.2466 19.1575 37.2769C19.1575 37.1558 19.1575 37.0194 19.1575 36.8983C18.7733 36.8528 18.3891 36.8074 18.0049 36.7468C17.7779 35.8834 17.8477 34.9897 17.8303 34.1112C17.8303 32.2178 17.8303 30.3244 17.8303 28.4462C18.7209 28.4765 19.6639 28.325 20.5197 28.5825C21.3055 28.84 21.3754 29.6731 21.5151 30.2941C21.6897 30.2941 21.8469 30.2941 22.0215 30.2941C22.0215 29.4762 22.0215 28.6734 22.0215 27.8706C18.7733 27.9009 15.5425 27.8858 12.2943 27.8706H12.2769Z" fill="white"/>
        <path d="M36.4115 28.2188C36.4115 28.1279 36.4115 27.9461 36.4115 27.8552C35.0843 27.8552 33.7571 27.8552 32.4298 27.8552C32.4298 27.9461 32.4298 28.143 32.4298 28.2339C32.7791 28.2642 33.1458 28.3096 33.4951 28.3551C33.9841 29.5517 33.6697 30.8543 33.7571 32.0964C31.6789 32.0964 29.6007 32.0964 27.5051 32.0964C27.5924 30.8543 27.313 29.582 27.7321 28.3702C28.1512 28.2642 28.8323 28.3854 28.9196 27.8704C27.5226 27.8704 26.1255 27.8552 24.7458 27.8704C24.8506 28.3702 25.5142 28.2339 25.881 28.4611C26.1429 28.7338 26.108 29.1124 26.1429 29.4305C26.1429 31.5057 26.1429 33.5657 26.1429 35.6408C26.108 36.0195 26.1429 36.489 25.7587 36.7314C25.4793 36.8223 25.165 36.8526 24.8681 36.898C24.8681 37.0192 24.8681 37.1555 24.8681 37.2767C26.1953 37.2313 27.5051 37.2313 28.8323 37.2767C28.8323 37.1858 28.8498 36.9738 28.8673 36.8829C28.518 36.8374 28.1338 36.8829 27.8369 36.7314C27.5924 36.4588 27.5749 36.0952 27.5575 35.762C27.5575 34.732 27.5575 33.702 27.5575 32.6871C29.6357 32.6871 31.7313 32.6871 33.8094 32.6871C33.7396 34.0201 33.9666 35.3833 33.6348 36.7011C33.1808 36.8374 32.5171 36.7163 32.3774 37.2313C33.7396 37.2615 35.1018 37.201 36.4814 37.2615C36.4814 37.1707 36.4814 36.9889 36.4814 36.8829C36.1496 36.8374 35.8003 36.8374 35.5034 36.686C35.1018 36.3376 35.2065 35.8074 35.1891 35.3682C35.224 33.2173 35.1367 31.0513 35.2415 28.9004C35.2415 28.3096 35.9749 28.249 36.4814 28.1885L36.4115 28.2188Z" fill="white"/>
        <path d="M46.7151 36.2467C46.034 36.7314 45.091 36.7617 44.2527 36.7769C43.7114 36.7769 43.1525 36.8223 42.6461 36.6708C42.3143 36.5648 42.227 36.2164 42.227 35.9438C42.2095 34.838 42.227 33.7474 42.227 32.6417C43.1176 32.672 44.0432 32.566 44.9338 32.7629C45.3355 32.8538 45.3879 33.2779 45.5101 33.5505C45.6673 33.5505 45.807 33.5505 45.9642 33.5505C45.8245 32.7174 45.9642 31.8844 45.8943 31.0513C45.8245 31.0513 45.6673 31.0361 45.5974 31.021C45.4228 31.3391 45.4228 31.8086 44.9688 31.9449C44.0956 32.1873 43.1525 32.051 42.2444 32.0813C42.2444 30.8392 42.2444 29.5971 42.2444 28.3551C43.4669 28.4157 44.829 28.1885 45.9293 28.7792C46.5754 29.0973 46.296 29.991 47.0295 30.2333C47.0295 29.4305 46.9945 28.6429 46.9247 27.8401C44.4798 27.8704 42.0349 27.8552 39.5725 27.8401C39.5725 27.931 39.5725 28.1127 39.5725 28.2036C39.8869 28.2794 40.2536 28.2642 40.533 28.4308C40.8997 28.7792 40.795 29.2791 40.8299 29.7032C40.795 31.8541 40.8648 34.0201 40.795 36.1861C40.8299 36.7769 40.0964 36.8677 39.5725 36.9132C39.5725 37.0344 39.5725 37.1707 39.5725 37.2919C42.2444 37.2313 44.8989 37.2616 47.5708 37.2919C47.6058 36.4285 47.8502 35.5954 47.7804 34.732C47.1168 35.0501 47.3089 35.8529 46.7326 36.2467H46.7151Z" fill="white"/>
        <path d="M82.0788 28.4157C82.3582 28.3096 82.6726 28.2793 82.9694 28.2339C82.9694 28.143 82.9694 27.9613 82.9694 27.8704C81.6247 27.9007 80.2801 27.8704 78.9179 27.8855C79.0227 28.3854 79.6688 28.2793 80.088 28.3854C80.542 29.582 80.2451 30.8695 80.3324 32.0964C78.2543 32.0964 76.1586 32.0964 74.0805 32.0964C74.1678 30.8543 73.8884 29.582 74.2901 28.3702C74.6393 28.3248 75.0061 28.2642 75.3728 28.2188C75.3728 28.1279 75.3728 27.9461 75.3728 27.8552C74.063 27.8552 72.7358 27.8552 71.426 27.8552C71.426 27.9461 71.4435 28.1279 71.4609 28.2188C71.7578 28.2793 72.0547 28.2945 72.3341 28.4005C72.6834 28.5823 72.6834 29.0064 72.7009 29.3245C72.7009 31.4451 72.7009 33.5505 72.7009 35.6711C72.7009 35.974 72.7009 36.2921 72.5437 36.5648C72.3341 36.9132 71.8102 36.8526 71.4435 36.9435C71.4435 37.0646 71.4435 37.1858 71.426 37.3221C72.7358 37.2767 74.0456 37.2918 75.3553 37.3221C75.3553 37.1858 75.3553 37.0646 75.3728 36.9283C75.041 36.898 74.7092 36.898 74.3948 36.792C74.0979 36.5345 74.0979 36.1558 74.0805 35.8226C74.0805 34.7926 74.0805 33.7626 74.0805 32.7477C76.1586 32.7477 78.2543 32.7477 80.3324 32.7477C80.3324 33.7323 80.3324 34.7017 80.3324 35.6863C80.2975 36.0498 80.3324 36.4588 80.053 36.7465C79.7561 36.9435 79.372 36.8829 79.0227 36.9283C79.0227 37.0646 79.0227 37.1858 79.0227 37.3221C80.3324 37.2767 81.6422 37.2918 82.952 37.3221C82.952 37.201 82.952 37.0798 82.952 36.9586C82.6376 36.898 82.3058 36.8829 82.0264 36.7617C81.7295 36.5345 81.7121 36.1407 81.7121 35.8226C81.7121 33.7171 81.7121 31.5965 81.7121 29.4911C81.7121 29.1276 81.7121 28.6883 82.0788 28.446V28.4157Z" fill="white"/>
        <path d="M90.0771 28.2493C90.0771 28.1584 90.0771 27.9615 90.0597 27.8706C88.7674 27.8706 87.4751 27.9009 86.1828 27.8706C86.1828 27.9918 86.1478 28.113 86.1304 28.2341C86.6717 28.2796 87.3877 28.4008 87.3703 29.0066C87.4227 31.2333 87.3703 33.4599 87.3878 35.6865C87.3878 36.05 87.4052 36.5044 87.0559 36.7619C86.7591 36.8831 86.4447 36.8983 86.1304 36.9437C86.1304 37.0649 86.1304 37.2012 86.1304 37.3224C87.4401 37.2769 88.7499 37.2769 90.0422 37.3224C90.0422 37.2315 90.0422 37.0346 90.0422 36.9437C89.7104 36.8983 89.3437 36.8983 89.0468 36.7316C88.7674 36.4893 88.8023 36.1409 88.7848 35.8228C88.7848 34.0052 88.7848 32.2027 88.7848 30.4002C88.7848 29.7337 88.6801 29.0218 89.0293 28.4008C89.3611 28.3553 89.7104 28.3099 90.0422 28.2644L90.0771 28.2493Z" fill="white"/>
        <path d="M100.52 36.3984C100.084 36.7468 99.4552 36.7771 98.8963 36.8074C98.093 36.8528 97.2373 36.8983 96.4863 36.6105C95.945 36.3378 95.9974 35.7319 95.9974 35.2775C96.0323 33.1721 95.9624 31.0666 96.0323 28.9612C96.0323 28.3402 96.8182 28.2796 97.3595 28.2341C97.3595 28.1433 97.3595 27.9615 97.3595 27.8706C96.0323 27.8858 94.7051 27.8858 93.3604 27.8706C93.3604 27.9615 93.3604 28.1281 93.3429 28.219C93.6747 28.2796 94.024 28.3099 94.3209 28.431C94.6352 28.7037 94.5828 29.1127 94.6003 29.461C94.6003 31.5665 94.6003 33.6871 94.6003 35.7925C94.5828 36.05 94.6003 36.3227 94.4606 36.5499C94.2335 36.8983 93.7096 36.8528 93.3254 36.9285C93.3254 37.0497 93.3254 37.1709 93.3254 37.3072C96.0672 37.2618 98.809 37.2769 101.551 37.3072C101.586 36.5196 101.621 35.7319 101.656 34.9594C101.481 34.9594 101.306 34.9594 101.149 34.9594C101.009 35.4593 100.974 36.0349 100.503 36.3984H100.52Z" fill="white"/>
        <path d="M114.159 28.9307C113.164 28.2036 111.854 27.8401 110.562 27.8704C108.658 27.8704 106.737 27.9007 104.834 27.8704C104.834 27.9613 104.834 28.143 104.834 28.2339C105.148 28.2945 105.48 28.3097 105.777 28.4308C106.109 28.6883 106.091 29.1125 106.109 29.4608C106.109 31.3997 106.109 33.3385 106.109 35.2773C106.109 35.6863 106.144 36.0953 105.986 36.4891C105.812 36.898 105.236 36.8526 104.816 36.9283C104.816 37.0192 104.816 37.201 104.816 37.2919C105.882 37.2919 106.947 37.2464 108.012 37.2767C109.112 37.2767 110.248 37.3676 111.348 37.2161C112.745 37.0041 114.124 36.3982 114.963 35.3682C115.661 34.5654 116.045 33.5657 116.028 32.5508C116.08 31.1725 115.329 29.8092 114.124 28.9155L114.159 28.9307ZM114.212 34.6108C113.775 35.6408 112.658 36.3679 111.453 36.5951C110.387 36.8072 109.252 36.8678 108.187 36.6406C107.68 36.5345 107.488 36.065 107.506 35.656C107.506 33.2476 107.506 30.8544 107.506 28.446C109.13 28.2642 110.946 28.1885 112.378 29.0367C114.404 30.2182 115.05 32.672 114.229 34.6108H114.212Z" fill="white"/>
        <path d="M127.152 35.8681C126.436 34.8684 125.738 33.8535 125.039 32.8387C125.598 32.6115 126.174 32.3843 126.576 31.9602C127.554 30.8999 127.292 29.1428 125.982 28.3703C125.319 27.9462 124.463 27.8553 123.66 27.8704C122.263 27.9007 120.848 27.8704 119.451 27.9007C119.521 28.4006 120.149 28.3097 120.551 28.4157C120.691 28.7187 120.813 29.0216 120.813 29.3549C120.813 31.5057 120.813 33.6566 120.813 35.8227C120.813 36.1407 120.813 36.5043 120.534 36.7466C120.254 36.9132 119.888 36.8981 119.556 36.9587C119.556 37.0799 119.556 37.2162 119.556 37.3374C120.883 37.2919 122.21 37.3071 123.52 37.3374C123.52 37.2465 123.52 37.0496 123.52 36.9587C123.153 36.9284 122.786 36.8678 122.42 36.8072C122.053 35.5651 122.28 34.2776 122.228 33.0204C122.769 33.081 123.485 33.0204 123.817 33.49C124.62 34.5352 125.266 35.6712 126.139 36.6709C126.768 37.3979 127.921 37.4888 128.881 37.4131C129.126 37.4131 129.318 37.2768 129.527 37.1707C129.091 37.0647 128.654 37.0344 128.235 36.8981C127.729 36.7163 127.449 36.2619 127.152 35.8832V35.8681ZM122.245 32.4146C122.245 31.0968 122.21 29.779 122.263 28.4612C122.839 28.3703 123.468 28.3703 124.044 28.5066C125.581 28.9004 126.279 30.7938 125.231 31.8541C124.463 32.5357 123.258 32.5357 122.245 32.4146Z" fill="white"/>
        <path d="M138.888 36.4285C137.858 36.8526 136.687 36.792 135.587 36.7617C135.186 36.7617 134.749 36.5497 134.749 36.171C134.679 34.9895 134.749 33.8232 134.714 32.6417C135.605 32.6569 136.495 32.566 137.369 32.7629C137.805 32.8387 137.858 33.2628 137.997 33.5657C138.119 33.5657 138.259 33.5809 138.381 33.596C138.381 32.7478 138.381 31.8995 138.381 31.0513C138.277 31.0513 138.085 31.0513 137.98 31.0513C137.875 31.3694 137.892 31.8238 137.456 31.9601C136.565 32.2176 135.622 32.0813 134.714 32.1116C134.714 30.8695 134.714 29.6426 134.714 28.4006C135.971 28.446 137.421 28.1885 138.504 28.8853C139.063 29.2185 138.783 30.0667 139.517 30.2334C139.517 29.4457 139.394 28.6581 139.412 27.8704C137.299 27.8704 135.168 27.9007 133.055 27.8704C132.636 27.8704 132.112 27.7644 131.92 28.1885C132.304 28.2945 132.776 28.2794 133.107 28.5217C133.317 28.8095 133.317 29.1428 133.317 29.476C133.317 31.2028 133.317 32.9295 133.317 34.6412C133.317 35.3531 133.387 36.0801 133.125 36.7617C132.758 36.8223 132.409 36.8829 132.042 36.9284C132.042 37.0495 132.042 37.1859 132.077 37.307C134.732 37.2616 137.386 37.2616 140.04 37.307C140.145 36.4588 140.302 35.6106 140.32 34.7623C140.233 34.8229 140.04 34.929 139.936 34.9895C139.691 35.5045 139.569 36.171 138.923 36.4285H138.888Z" fill="white"/>
        <path d="M151.898 27.8706C151.898 27.9918 151.863 28.113 151.846 28.2493C152.143 28.2947 152.422 28.3402 152.719 28.4008C153.278 29.2793 153.086 30.3244 153.121 31.2787C153.103 32.6874 153.225 34.0809 153.208 35.4896C152.247 34.5656 151.374 33.5659 150.466 32.5965C148.982 31.0363 147.515 29.4459 146.03 27.8706C145.122 27.8858 144.214 27.8706 143.323 27.8858C143.446 28.4462 144.179 28.2644 144.633 28.3856C144.808 28.6885 144.965 29.0066 144.948 29.3399C144.948 30.8546 144.93 32.3541 144.913 33.8688C144.878 34.8383 144.965 35.838 144.598 36.7771C144.284 36.8377 143.97 36.8831 143.655 36.9285C143.655 37.0497 143.655 37.186 143.655 37.3072C144.773 37.2618 145.891 37.2769 147.008 37.3072C147.008 37.186 147.008 37.0649 147.008 36.9437C146.484 36.9285 145.856 36.7771 145.821 36.2318C145.594 33.9749 145.681 31.6877 145.646 29.4156C148.161 32.0815 150.676 34.7322 153.173 37.4133C153.348 37.4133 153.522 37.4284 153.697 37.4435C153.802 35.126 153.837 32.8085 153.959 30.5062C153.994 29.9003 153.906 29.249 154.186 28.6734C154.326 28.3099 154.849 28.325 155.199 28.2038C155.199 28.113 155.181 27.9463 155.181 27.8706C154.081 27.8706 152.998 27.8858 151.898 27.8706Z" fill="white"/>
        <path d="M106.51 74.5691C104.659 73.5542 103.786 71.7214 103 70.0401C98.6692 61.073 94.3208 52.106 90.0073 43.1238C89.658 43.1238 89.3087 43.1238 88.9594 43.1238C84.9079 52.3938 80.8389 61.6486 76.7873 70.9035C76.1761 72.191 75.5474 73.5845 74.2202 74.4479C73.2597 75.0689 72.0198 75.0992 70.8672 75.0538C70.8672 75.5233 70.8672 75.9929 70.8672 76.4625C74.7266 76.2353 78.5861 76.2958 82.4455 76.4625C82.4455 75.9929 82.4455 75.5233 82.4281 75.0538C81.6946 75.0538 80.9437 75.1295 80.2277 74.9478C79.7038 74.8114 79.2497 74.4328 79.2148 73.948C79.11 72.9786 79.4767 72.0395 79.7911 71.1307C80.804 68.5254 81.7994 65.905 82.8297 63.3148C86.8464 63.3148 90.863 63.3148 94.8621 63.3148C96.2418 66.2836 97.6563 69.2525 99.001 72.2364C99.2804 72.9635 99.6821 73.9632 98.9137 74.5691C97.9357 75.281 96.591 75.0386 95.4384 75.0689C95.4384 75.5385 95.4384 76.008 95.4384 76.4625C100.189 76.2807 104.939 76.2807 109.671 76.4625C109.671 75.9929 109.671 75.5233 109.671 75.0689C108.606 75.0992 107.471 75.1295 106.545 74.5842L106.51 74.5691ZM83.4584 61.5578C85.0301 57.468 86.7067 53.3935 88.226 49.2886C90.1644 53.3783 92.1029 57.468 94.0064 61.5729C90.4962 61.5729 86.9686 61.5729 83.4584 61.5729V61.5578Z" fill="white"/>
        <path d="M142.311 68.3436C141.577 68.6465 141.193 69.2979 140.652 69.7977C138.905 71.6002 136.757 73.1452 134.225 74.0389C131.972 74.8417 129.527 75.1749 127.1 75.0992C123.747 74.9174 120.516 73.6451 118.141 71.5851C116.273 70.0249 114.98 67.9801 114.264 65.8292C113.478 63.4208 113.304 60.8761 113.618 58.392C113.915 55.8321 114.718 53.2723 116.255 51.0457C117.373 49.4098 118.944 47.9708 120.865 47.0468C123.188 45.8957 125.93 45.5624 128.567 45.6988C130.855 45.7896 133.177 46.1532 135.255 47.0317C137.421 47.9254 139.185 49.4855 140.302 51.3032C140.529 51.6515 140.704 52.0454 140.984 52.3635C141.263 52.4089 141.56 52.4089 141.839 52.424C141.892 50.3792 141.979 48.3343 142.049 46.3046C140.512 46.0017 139.045 45.4867 137.526 45.1383C134.417 44.3658 131.204 43.8054 127.956 43.7599C125.092 43.7145 122.193 44.1689 119.573 45.214C117.093 46.1835 114.91 47.6679 113.164 49.4704C109.741 52.9996 108.03 57.6801 108.222 62.2696C108.362 65.087 109.357 67.8892 111.208 70.2218C113.793 73.5088 118.001 75.6596 122.42 76.5079C127.222 77.4167 132.461 77.2198 136.914 75.2658C138.905 74.4176 140.669 73.2058 142.293 71.888C142.293 70.6914 142.293 69.5099 142.276 68.3285L142.311 68.3436Z" fill="white"/>
        <path d="M33.7046 45.6078C31.7487 44.6687 29.4784 44.3203 27.2606 44.3809C24.1346 44.3506 21.0086 44.5627 17.8826 44.5021C16.0315 44.5021 14.1978 44.3809 12.3467 44.3809C12.3467 44.8353 12.3467 45.2746 12.3467 45.729C13.4818 45.7896 14.7916 45.6381 15.7172 46.35C16.5729 47.062 16.6602 48.1677 16.7126 49.1371C16.7126 56.6652 16.7126 64.2084 16.7126 71.7365C16.6602 72.6756 16.5903 73.7511 15.787 74.463C14.8614 75.2052 13.5167 75.0689 12.3641 75.0689C12.3467 75.5384 12.3467 76.008 12.3641 76.4775C13.2373 76.4473 14.128 76.4321 15.0011 76.4018C18.5986 76.2503 22.2136 76.4018 25.8111 76.4624C25.8111 75.9928 25.8111 75.5233 25.8111 75.0689C24.6061 74.9931 23.1042 75.3718 22.1787 74.4781C21.3928 73.5542 21.4277 72.3272 21.3404 71.2367C21.323 67.9195 21.3404 64.6023 21.3404 61.2699C24.9379 61.5425 28.6751 61.7849 32.1329 60.7095C34.3159 60.043 36.2892 58.7555 37.3545 56.9378C38.4897 55.0748 38.6992 52.8481 38.1579 50.8033C37.5816 48.6373 35.9749 46.6681 33.7046 45.6078ZM32.3599 57.2711C31.5042 58.5283 29.9674 59.3765 28.3259 59.6189C25.9683 59.9975 23.5059 59.5734 21.3579 58.71C21.3404 54.4537 21.3579 50.1974 21.3579 45.9259C24.0647 45.6381 26.9986 45.517 29.461 46.6984C31.4169 47.577 32.6917 49.334 33.1458 51.1668C33.6522 53.1814 33.6522 55.4383 32.3949 57.2559L32.3599 57.2711Z" fill="white"/>
        <path d="M65.0517 72.2969C64.5103 73.236 63.5324 73.9328 62.3972 74.266C60.843 74.7356 59.149 74.7962 57.5074 74.8568C55.4817 74.8568 53.4035 74.9476 51.4127 74.5235C50.5395 74.3266 49.6663 73.9328 49.1948 73.236C48.7233 72.509 48.6185 71.6456 48.601 70.8125C48.601 63.5268 48.601 56.241 48.601 48.9553C48.6359 47.9707 48.8106 46.8044 49.806 46.1682C50.8189 45.5775 52.0937 45.7593 53.2463 45.6987C53.2463 45.2443 53.2463 44.805 53.2463 44.3506C51.1856 44.3506 49.1249 44.4566 47.0642 44.4718C44.5844 44.5172 42.122 44.3657 39.6597 44.3506C39.6597 44.805 39.6597 45.2443 39.6597 45.6987C40.8123 45.7441 42.1744 45.6078 43.0651 46.3651C43.8684 47.0771 43.9557 48.1525 44.0081 49.0916C44.0081 56.1956 44.0081 63.2996 44.0081 70.4035C44.0081 71.4032 44.0605 72.4181 43.7287 73.3875C43.5366 73.9631 43.1 74.5235 42.4364 74.7659C41.5807 75.1294 40.5852 75.0082 39.6597 75.0234C39.6597 75.4929 39.6597 75.9625 39.6597 76.4321C42.5761 76.3715 45.4925 76.2957 48.4264 76.3109C54.8006 76.2351 61.1748 76.4018 67.5665 76.4321C67.6538 73.7662 67.776 71.1003 67.8633 68.4496C67.322 68.4496 66.7806 68.4496 66.2218 68.4496C65.9598 69.7522 65.7328 71.1003 65.0517 72.2969Z" fill="white"/>
        <path d="M173.064 68.268C172.854 69.3434 172.61 70.434 172.051 71.4337C171.527 72.388 170.619 73.1908 169.536 73.6452C168.261 74.2056 166.829 74.4177 165.415 74.554C163.372 74.7661 161.328 74.6601 159.285 74.6904C158.185 74.6904 156.928 74.5692 156.142 73.827C155.443 73.0999 155.426 72.1153 155.391 71.2217C155.391 67.6621 155.373 64.1177 155.391 60.5581C157.626 60.5581 159.879 60.5127 162.114 60.6036C163.302 60.6945 164.594 60.7248 165.607 61.3609C166.393 61.9668 166.41 62.9362 166.533 63.7845C167.022 63.7845 167.511 63.7845 168 63.7845C168 62.4364 167.877 61.0883 167.895 59.7402C167.877 58.2406 167.965 56.7411 168 55.2567C167.511 55.2567 167.004 55.2567 166.515 55.2567C166.445 56.1958 166.498 57.3167 165.607 57.9983C164.699 58.589 163.511 58.6951 162.411 58.7708C160.158 58.892 157.923 58.8768 155.67 58.8465C155.321 58.9071 155.408 58.483 155.373 58.3164C155.373 54.257 155.373 50.1824 155.373 46.123C158.36 46.1533 161.363 45.9715 164.332 46.3653C166.026 46.5926 167.807 47.0621 168.943 48.2284C169.973 49.3039 170.165 50.7428 170.392 52.0758C170.881 52.0758 171.37 52.0758 171.876 52.0758C171.632 49.5311 171.51 46.9712 171.422 44.4114C168.227 44.4114 165.013 44.5477 161.8 44.5326C156.666 44.6083 151.549 44.4568 146.415 44.4265C146.415 44.8658 146.397 45.3051 146.467 45.7443C147.62 45.8503 148.982 45.6686 149.872 46.4411C150.798 47.3045 150.763 48.5617 150.746 49.6674C150.746 57.0743 150.746 64.4964 150.746 71.9033C150.746 72.797 150.588 73.7815 149.872 74.4783C148.964 75.2205 147.62 75.0993 146.467 75.0993C146.432 75.5689 146.432 76.0384 146.432 76.4928C155.461 76.2808 164.472 76.3565 173.501 76.4928C173.885 73.7664 174.182 71.0399 174.548 68.3134C174.059 68.3134 173.57 68.3134 173.064 68.3134V68.268Z" fill="white"/>
    </g>
    <defs>
        <clipPath id="clip0_212_99">
            <rect width="187" height="103" fill="white"/>
        </clipPath>
    </defs>
</svg>
