<svg width="187" height="141" viewBox="0 0 187 141" fill="none" xmlns="http://www.w3.org/2000/svg">
    <g clip-path="url(#clip0_225_752)">
        <path d="M80.7967 99.4908L80.6351 99.41V99.2484L80.2311 98.9252L79.9887 98.7636L79.6655 98.602C79.4288 98.4981 79.2384 98.4866 79.019 98.4404C78.4996 98.3307 77.859 98.2153 77.3164 98.198L77.1548 98.2788H76.9124C76.7681 98.3307 76.6758 98.4289 76.5084 98.4404L75.937 98.6828L75.6946 98.8444C75.5272 98.9483 75.4695 99.0464 75.3714 99.1676L75.129 99.4158C74.9674 99.814 75.0424 100.616 75.129 100.957C75.1867 101.182 75.1463 101.28 75.2098 101.442L75.3714 101.603L75.4522 101.932L75.937 102.336L76.1794 102.498L76.4218 102.659L76.6642 102.821C76.9701 103.017 77.3164 103.219 77.6396 103.306C77.934 103.392 78.2687 103.427 78.3726 103.548H78.615L78.6958 103.629C78.9325 103.721 79.1633 103.721 79.3423 103.871L79.5039 104.114L79.6655 104.437L79.5847 104.922C79.4288 105.401 79.0364 105.753 78.615 105.811C78.1302 105.886 77.9628 105.736 77.7204 105.649L77.3164 105.488L77.2356 105.407C76.9759 105.262 76.8027 105.101 76.67 104.916L76.5084 104.755L76.3468 104.345C76.2314 104.218 76.0698 104.316 76.0178 104.102C75.7119 104.143 75.4349 104.05 75.204 104.102C74.9443 104.166 74.9097 104.322 74.7192 104.426C74.6903 104.697 74.8116 104.887 74.8808 105.072L74.9616 105.401L75.1232 105.563L75.204 105.643L75.533 106.128C75.6657 106.296 75.7812 106.486 75.937 106.613H76.0986L76.1794 106.78L76.8316 107.104H76.9932C77.276 107.219 77.7147 107.358 77.9686 107.346C78.2514 107.334 78.7362 107.323 78.996 107.306L79.2095 107.202C79.4981 107.104 79.6135 107.075 79.6943 106.988L79.9079 106.878L79.9887 106.815L80.0695 106.827L80.2946 106.567C80.5312 106.394 80.8082 105.978 80.814 105.886L80.8948 105.799C81.0103 105.551 81.0737 105.366 81.143 105.153C81.3623 104.466 81.2931 103.912 81.0622 103.45C80.8602 103.046 80.8256 103.052 80.5716 102.804L80.3292 102.475C80.2195 102.4 80.0175 102.388 79.8444 102.313L79.7636 102.232L79.5212 102.152L79.198 102.071L79.1172 101.99C78.8286 101.875 78.5515 101.846 78.3091 101.748L78.2283 101.667H78.0667L77.9051 101.505C77.4896 101.326 77.3568 101.32 77.1779 101.182C76.947 101.003 76.7508 100.876 76.7681 100.53C76.797 99.9756 77.4261 99.8198 78.0667 99.8025C78.3726 99.791 78.7709 99.8025 79.0421 99.8833C79.3827 99.9872 79.5327 100.172 79.6886 100.287C79.7347 100.674 79.8213 101.24 80.0926 101.505C80.3696 101.476 80.6293 101.551 80.8256 101.505C81.0853 101.447 81.1199 101.286 81.3161 101.182C81.345 100.87 81.1545 100.622 81.0737 100.368C80.9699 100.033 80.9641 99.7448 80.8313 99.4793" fill="#12100B"/>
        <path d="M89.0732 98.3597C88.9751 98.302 88.5942 98.4174 88.421 98.4405C87.3937 98.5848 86.1989 98.4405 85.0966 98.5213C84.7041 98.5502 84.3174 98.6656 83.9596 98.6829C83.417 98.706 82.6436 98.5502 82.4993 98.8445C82.3551 99.1389 82.609 99.6353 82.8225 99.8199L83.065 100.062C83.1169 100.074 84.404 99.9181 84.9292 100.143C85.2004 100.605 85.1254 101.194 85.1716 101.765C85.2235 102.377 85.2986 103.121 85.2524 103.791C85.2351 104.045 85.1601 104.281 85.1716 104.524C85.1889 104.818 85.3217 105.136 85.3332 105.418C85.3563 105.863 85.0735 106.296 85.414 106.636C85.6102 106.902 85.8757 106.729 86.222 106.717C86.7011 106.815 86.805 106.538 87.03 106.388C87.1628 105.568 86.9262 104.645 86.8684 103.71C86.7992 102.602 86.9204 101.442 86.8684 100.299C87.0935 100.195 87.1224 99.9816 87.4341 99.895C87.8669 99.7738 88.8077 100.016 89.0559 99.895C89.3041 99.7738 89.4657 98.8215 89.3791 98.6772L89.0559 98.3482" fill="#12100B"/>
        <path d="M72.3588 98.5214L72.1164 98.6022C71.672 98.7176 71.1121 98.6541 70.4138 98.683C70.2291 98.6888 70.0097 98.7523 69.8481 98.7638C68.6823 98.8504 67.0431 98.5849 67.0085 98.6022L66.7661 98.9312C66.5352 99.0928 66.6738 99.4044 66.6853 99.6584C66.6968 99.9008 66.7546 99.9643 66.7661 100.062L66.6853 100.224L66.7661 100.386C66.795 101.009 66.8238 101.719 66.7661 102.411C66.6795 103.462 66.6968 104.841 66.6853 105.903L66.6045 106.307C66.616 106.492 66.6911 106.538 66.7661 106.717C67.0835 107.006 67.4933 106.769 67.9031 106.798C68.209 106.821 68.5611 106.925 68.8785 106.959C70.0155 107.098 71.1237 107.098 72.2029 107.202C72.3934 107.035 72.6012 106.89 72.6878 106.717L72.7686 106.388C72.8551 105.771 72.6647 105.551 72.4454 105.332C72.1279 105.332 71.8105 105.54 71.3892 105.58C70.9621 105.615 70.5465 105.522 70.0905 105.499C69.7904 105.482 69.4672 105.551 69.1959 105.499C68.9535 105.453 68.7342 105.384 68.6303 105.176C68.4976 104.876 68.4976 104.097 68.6303 103.791C69.0574 103.029 70.6677 103.202 71.7124 103.306C71.9086 103.133 72.1914 102.96 72.278 102.654C72.3819 102.302 72.3184 102.059 72.1164 101.759C71.9432 101.719 71.47 101.592 71.3892 101.678L71.1467 101.759L70.8235 101.84C70.61 101.857 70.5984 101.713 70.4195 101.759C70.0905 101.84 69.3633 101.921 69.0401 101.84L68.8785 101.678L68.6361 101.517C68.4168 100.847 68.5957 100.374 68.9593 100.137C69.3114 99.9124 69.825 100.01 70.2579 99.9758L70.5003 99.895L70.5811 99.9758C71.2622 99.9758 72.0125 100.028 72.5319 100.057C72.7974 99.7738 73.086 99.7161 73.0975 99.3294L73.0167 99.0812C72.9129 98.7523 72.6589 98.5676 72.3646 98.5156" fill="#12100B"/>
        <path d="M99.3523 99.0986C99.1792 99.0004 99.0464 98.8619 98.9425 98.6888C98.5732 98.6946 98.0999 98.608 98.0422 98.9312C97.794 99.1505 97.8055 99.5084 97.6324 99.7508C97.4881 99.9528 97.2226 100.005 97.1418 100.241C95.9471 100.311 96.1145 101.217 96.8128 101.632H97.1418L97.2226 101.713L97.6324 101.88L97.7998 102.129L97.8806 102.296C97.9845 103.266 97.9441 104.605 97.8806 105.661C97.8575 106.082 97.6786 106.486 97.7998 106.809C97.9729 106.988 98.198 107.121 98.6193 107.058C99.1042 107.156 99.208 106.879 99.4389 106.729C99.2715 104.328 99.3985 101.627 99.3581 99.0986" fill="#12100B"/>
        <path d="M119.963 102.048C120.015 101.419 120.027 100.657 120.044 99.9988C120.055 99.6698 120.194 99.3293 120.044 99.0119C118.918 98.1577 118.647 99.6063 117.914 100.08L117.585 100.241L117.175 100.409C116.985 100.57 116.708 100.657 116.766 101.067C116.979 101.344 117.487 101.332 117.995 101.315C118.058 101.517 118.312 101.563 118.405 101.805V102.053L118.486 102.302C118.486 102.481 118.422 102.735 118.405 102.954C118.364 103.589 118.451 104.287 118.405 104.922C118.359 105.609 117.995 106.365 118.486 106.809C118.763 106.948 119.051 106.827 119.305 106.728C119.721 106.786 119.928 106.636 120.125 106.48C120.223 106.036 119.998 105.638 119.957 105.164C119.876 104.212 119.876 103.058 119.957 102.048" fill="#12100B"/>
        <path d="M112.073 103.675C111.9 103.693 111.571 103.75 111.519 103.647L111.98 103.075L112.448 102.556L112.864 102.1L113.014 102.931C113.014 102.931 113.06 103.445 112.962 103.658L112.702 103.71C112.471 103.727 112.367 103.687 112.367 103.687L112.079 103.675M114.618 103.606C114.399 103.479 114.676 103.058 114.618 99.1794C114.48 98.9658 114.064 98.735 113.631 98.8504C113.204 98.9658 113.377 98.9658 113.302 99.0178C113.146 99.2486 113.06 99.5084 112.892 99.7565C112.702 100.039 112.361 100.368 112.234 100.576L112.073 100.824L111.986 100.905C111.848 101.119 111.727 101.223 111.576 101.396C111.369 101.638 110.999 101.961 110.838 102.134L110.757 102.383C110.364 102.815 109.897 103.144 109.528 103.531C109.326 103.745 109.21 103.808 109.118 104.022C109.014 104.264 109.089 104.351 109.118 104.518V104.847C109.141 104.905 109.204 105.274 109.528 105.257C109.851 105.245 110.434 105.32 110.918 105.338C111.473 105.361 112.073 105.234 112.477 105.505C112.621 105.834 112.5 106.665 112.558 106.815L112.887 107.144C112.985 107.167 114.133 107.133 114.526 106.896C114.687 106.677 114.572 106.18 114.607 105.828L114.936 105.58L115.432 105.418L115.674 105.251C115.842 104.749 115.703 104.004 115.432 103.693C115.27 103.548 114.791 103.67 114.607 103.606" fill="#12100B"/>
        <path d="M105.505 102.625L105.257 102.792C105.147 102.879 105.141 102.902 104.928 102.96C104.76 103 104.195 103.092 103.698 103.041C103.525 102.89 103.352 102.769 103.208 102.55L103.127 102.302C103.064 102.054 102.983 101.615 103.127 101.234L103.208 101.147L103.698 100.657C103.791 100.588 104.022 100.414 104.276 100.409C104.68 100.397 104.986 100.663 105.257 100.98L105.424 101.228L105.58 101.309C105.747 101.678 105.828 102.233 105.499 102.619M107.392 103.364L107.311 103.121V102.792C107.254 102.51 107.179 102.227 107.144 101.973C107.115 101.748 107.023 101.424 106.982 101.321L106.902 100.992L106.815 100.911C106.729 100.686 106.74 100.576 106.653 100.42L106.486 100.259L106.405 100.01L106.238 99.8488L105.909 99.4391H105.747L105.667 99.2775L105.176 99.1967L105.095 99.1101C104.708 99.012 104.68 99.0812 104.437 99.1101H104.108C103.825 99.1447 103.537 99.2544 103.45 99.2775H103.289L102.96 99.4391L102.712 99.5199L102.544 99.6007C102.342 99.7738 102.134 100.299 102.054 100.507V100.588L101.973 100.674C101.921 100.876 101.921 101.153 101.892 101.413C101.852 101.713 101.794 101.99 101.811 102.233C101.823 102.481 101.892 102.902 101.973 102.971L102.054 103.381L102.221 103.548L102.302 103.791C102.452 103.981 102.711 104.079 102.873 104.201L103.121 104.449C103.364 104.639 103.479 104.57 103.779 104.61C103.9 104.628 103.929 104.685 104.108 104.691C104.42 104.703 104.703 104.622 105.009 104.61C105.164 104.605 105.528 104.362 105.667 104.778C105.626 105.205 105.164 105.569 105.009 105.759H104.847C104.657 105.834 104.264 105.932 103.947 105.84V105.759H103.785V105.678H103.618L103.45 105.349C103.248 105.13 103.15 104.916 102.873 104.853C102.631 104.795 102.423 104.922 102.383 104.939H102.134C101.8 105.043 101.707 105.124 101.644 105.349C101.574 105.603 101.725 105.765 101.725 105.84L101.811 105.926C101.915 106.134 102.054 106.325 102.14 106.417L102.717 106.913L102.798 106.994L103.369 107.242L103.779 107.323C104.039 107.381 104.443 107.496 104.599 107.485L104.685 107.404H104.934C105.159 107.335 105.418 107.242 105.586 107.156V107.075H105.753V106.994H105.915L106.244 106.584C106.469 106.359 106.723 106.25 106.734 106.013C106.746 105.834 106.884 105.897 106.902 105.684L106.982 105.603C107.104 105.332 107.219 104.968 107.225 104.784L107.311 104.703C107.329 104.507 107.294 104.27 107.311 104.045C107.329 103.802 107.398 103.572 107.392 103.387" fill="#12100B"/>
        <path d="M91.3412 105.176C90.7582 105.107 90.4004 105.263 90.1234 105.499L90.0426 105.661C90.031 106.215 90.1118 106.671 90.3716 106.959C91.0815 107.225 91.7798 106.884 91.6702 106.071C91.7452 105.586 91.5201 105.407 91.347 105.182" fill="#12100B"/>
        <path d="M36.0957 53.0641C35.911 51.3499 35.4839 49.6416 35.5993 47.8754C35.6224 47.5291 35.7263 47.2117 35.7263 46.8885C35.7148 45.9304 35.3569 45.0127 35.1088 44.2336C34.8086 43.3101 34.52 42.5021 34.0583 42.0057L33.8736 41.9422C33.6428 42.7849 34.168 43.7661 34.0583 44.7876C34.0006 45.3359 33.7409 45.8669 33.6889 46.4556C33.5966 47.4483 33.8448 48.5449 34.0006 49.6704C34.1622 50.8594 34.0929 52.031 34.2488 52.9429C34.3469 53.5143 34.6528 54.0915 34.5604 54.6109C34.4854 55.0265 33.8967 55.367 33.637 55.9095C33.4985 56.1866 33.4581 56.6252 33.3253 56.8387C33.0656 57.2658 32.373 57.2081 32.3961 57.8257C32.4769 58.9627 34.6932 58.905 35.178 58.2586C35.4666 57.8776 35.3569 57.185 35.5474 56.5271C35.7436 55.8691 36.1361 55.5344 36.2284 55.0438C36.3381 54.4493 36.1823 53.7971 36.1072 53.0699M57.4737 45.3417C58.149 44.88 58.7031 43.0388 57.5372 42.808C56.7869 43.5467 55.4133 43.9334 53.953 44.5395C53.1392 44.88 51.0672 45.6072 50.8652 46.3921C50.7671 46.7846 51.0268 47.6215 50.9922 47.9966C50.9576 48.3545 50.7209 48.6835 50.6805 49.0471C50.5651 50.0802 50.8883 51.0498 51.8579 50.8998C52.6544 50.2014 52.0311 49.0817 52.1638 48.4295C52.2216 48.164 52.5967 47.962 52.7179 47.6273L52.7756 47.0732C53.07 46.6115 54.3975 46.1901 54.94 46.0228C55.8404 45.7457 56.9196 45.7226 57.4737 45.3417ZM24.9796 44.2855C24.5871 43.9508 24.3736 43.5756 24.0504 43.5467C23.8195 44.2451 24.3505 44.6664 24.362 45.3417C24.3736 46.2074 23.5598 47.1078 24.1138 47.9966C25.1643 48.3487 26.2089 47.5984 26.2782 46.825C26.3071 46.5018 26.0473 46.1382 25.9088 45.7111C25.6202 44.8511 25.6087 44.8338 24.9854 44.2913M135.2 31.6226C135.252 30.7973 135.442 29.9662 135.136 29.2736C134.773 28.9619 134.305 29.0773 133.838 29.0889C132.597 29.112 131.142 29.2158 129.757 29.1524C128.366 29.0889 127.004 28.9215 125.931 29.337C125.706 32.0151 126.023 34.3526 126.058 36.9383C126.063 37.7982 126.052 38.7621 126.364 39.2873C126.964 40.28 128.886 40.5744 130.629 40.5859C132.17 40.5917 134.473 40.3377 134.958 39.3508C135.223 38.8082 135.044 37.7001 135.084 36.817C135.16 34.947 135.102 33.3079 135.206 31.6284M64.2092 49.7858C64.1457 49.226 64.1976 48.695 64.088 48.366C63.9148 47.8524 63.3665 47.483 63.101 47.0674C62.8125 46.623 62.6913 46.219 62.3565 45.7688H62.1718L62.1083 45.9535C61.9756 47.0501 62.2064 48.3949 62.42 49.5377C62.6162 50.6054 62.9914 51.6847 62.8529 52.7524C62.7951 53.2199 62.4662 53.7048 62.6047 54.2935C62.1545 54.7494 61.612 55.1188 61.6177 56.0249C61.358 56.5848 60.6135 56.4001 60.5673 57.0754C60.4807 58.3913 63.0606 58.1604 63.4704 57.5083C63.7417 57.0812 63.5743 56.2674 63.7821 55.6556C64.0187 54.9572 64.8094 54.5878 64.8325 53.6182C64.8556 52.637 64.3419 50.8998 64.215 49.7858M127.166 15.4967L130.687 15.4332C131.933 15.4332 133.486 15.0581 133.901 15.6814C134.207 16.1374 133.988 17.6899 133.965 18.4633C133.867 21.3318 134.276 24.5524 133.901 26.988C131.922 27.2016 128.967 27.3747 127.102 26.9245C126.802 24.2234 127.143 21.049 126.981 18.1517C126.929 17.2167 126.773 16.2644 127.166 15.4967ZM125.931 28.2231C127.252 28.5117 128.845 28.4078 130.444 28.4078C132.043 28.4078 133.647 28.4771 135.015 28.2808C135.535 25.4989 135.009 22.4169 135.136 19.4445C135.217 17.6726 135.413 15.9354 135.079 14.3193C132.447 13.9557 128.944 14.1635 126.121 14.1981C125.561 15.0696 125.752 16.2413 125.81 17.4071C125.983 20.9855 125.584 24.9506 125.931 28.2174M28.3098 23.5308C28.3848 24.5235 29.0024 24.9853 29.6084 25.4412C30.1913 25.0314 31.0282 24.6274 31.894 24.7024C32.2345 24.9795 32.1537 25.6778 32.6962 25.7529C32.7828 25.0718 33.1291 24.2176 32.8174 23.5308C31.3168 23.5539 29.6546 23.0749 28.304 23.5308M27.2017 34.9586C24.2293 34.6238 25.0258 37.8732 25.1643 40.2107C25.6722 40.205 25.9434 39.9626 26.3359 39.8414C26.4917 38.7448 26.4513 37.5154 27.3863 37.4288C28.1713 37.3596 28.5291 38.2888 29.3025 38.2946C29.5796 38.2946 30.1913 37.8963 30.4799 37.7405C31.1841 37.3596 31.7497 37.1172 31.7785 36.1937C31.0629 36.0263 30.2664 35.859 29.4295 35.6396C28.6561 35.4376 27.8942 35.0336 27.2017 34.9586ZM64.0245 27.6691C65.2077 28.0962 66.1715 27.2939 66.7429 26.7398C67.6548 25.8683 68.3474 25.1584 69.773 24.7659C70.8177 24.4716 71.7065 24.9333 72.9243 25.1353L72.7396 24.8294C71.7123 23.6982 68.9823 22.9421 67.0546 23.652C66.4312 23.8829 65.4501 24.6043 65.0749 25.0141C64.6882 25.4354 64.5151 26.6994 63.8398 26.8033C63.5339 26.8553 63.1126 26.4916 62.9106 26.6821C63.0087 27.1438 63.6724 27.5421 64.0245 27.6691ZM87.9997 12.7206C88.525 12.6456 88.0979 11.826 88.2421 11.1738C88.3114 10.8564 88.675 10.4697 88.8597 10.2503C89.5465 9.41346 90.5796 8.54195 90.9606 7.53192C91.6185 5.80044 90.3488 4.20748 90.2795 2.71263C90.2391 1.91038 90.5796 0.975377 91.2665 0.981149C91.9187 0.981149 92.4554 2.08353 92.8075 2.71263C95.7048 7.87245 98.4002 12.2762 101.332 17.234C100.328 17.5168 100.513 18.8962 101.211 19.1502C101.69 19.3233 102.348 19.052 102.879 18.902C103.491 18.7288 104.143 18.6307 104.056 18.0362C103.97 17.4533 103.15 17.5687 102.573 17.361C100.767 14.4059 98.8042 11.572 97.1362 8.77282C95.9068 6.70081 94.6717 4.20748 93.3673 2.03735C92.9518 1.34476 92.3631 0.317414 91.7628 0.121179C89.9621 -0.473296 89.3561 1.39093 89.5408 2.90309C89.7024 4.25365 90.5392 5.45991 90.4065 6.60846C90.1756 8.56504 87.8208 9.223 87.5669 10.9949C87.5265 11.2719 87.3937 12.8072 87.9997 12.7264M51.4828 27.2362C51.7714 27.1496 52.1581 27.115 52.285 26.861C51.8233 26.532 51.0846 26.5205 50.4324 26.4916C48.7297 26.4166 47.258 26.6763 45.74 26.7398C45.2552 26.7629 44.7416 26.6417 44.3202 26.861C44.857 27.4786 45.9825 27.7095 47.0387 27.7845C48.7297 27.9057 50.3054 27.5767 51.4886 27.2304M26.0877 28.656C26.5725 28.6214 27.2421 29.0254 27.8769 29.2101C29.2563 29.6141 30.6531 29.6949 32.1999 29.3948C32.2807 29.112 32.2807 28.7483 32.1999 28.4655C31.6516 28.5002 31.1321 28.6733 30.5954 28.7137C29.2275 28.8118 26.9419 28.4886 27.0112 27.4786C27.0574 26.8726 28.2752 26.8899 28.3675 26.3647C28.4368 25.9895 27.8769 25.649 27.6288 25.3142C27.3459 24.9449 26.9996 24.0849 26.3301 23.9521C25.8915 23.8713 25.5798 24.0791 25.2797 24.0156C24.8007 23.9175 24.8411 23.4558 24.2293 23.4616C23.7733 24.0445 23.5482 24.8352 23.1211 25.6836C22.7344 26.4512 22.215 27.2824 22.3824 28.0327C22.4747 28.4482 23.3058 29.2678 23.9234 29.3948C25.1816 29.6372 25.3143 28.7079 26.0877 28.6502M26.5206 18.648C27.1035 18.3306 27.6576 17.967 28.1886 17.5976C29.2217 16.8761 30.2606 15.9931 30.7223 14.6945C30.0067 14.3193 29.2621 14.8215 28.5003 14.758C27.5249 14.6772 26.8265 13.7191 25.8453 13.8345C24.3447 14.0019 26.1454 15.3236 26.157 15.9354C26.1685 16.6857 25.2509 16.9454 24.9854 17.6034C24.6968 18.3075 25.0315 18.6769 24.7372 19.5773C25.4067 19.4445 25.9377 18.9712 26.5264 18.6538M162.505 47.685C160.797 48.1063 157.911 47.8697 155.585 47.8697C155.008 47.8697 154.333 47.9966 153.917 47.6215C153.865 46.9174 154.523 46.4037 155.031 45.9535C155.995 45.0935 156.884 44.1816 157.813 43.2351C158.408 42.6291 158.806 42.023 159.481 41.6306C160.578 40.9841 161.42 43.362 161.709 44.1008C162.211 45.411 162.638 46.4325 162.511 47.685M160.901 54.1723C160.641 54.5878 160.312 55.1938 159.793 55.2227C159.025 55.2689 158.61 54.3454 158.188 53.8606C157.663 53.2546 157.155 52.8967 156.705 52.4408C156.295 52.031 155.868 51.4885 155.285 50.9575C154.743 50.4553 152.896 49.024 154.795 48.7931C156.255 48.62 158.511 48.8566 160.289 48.8566C161.051 48.8566 161.853 48.6892 162.453 49.0413C162.471 51.3499 161.871 52.6486 160.907 54.1723M157.75 57.2658C157.224 57.5891 156.728 57.8776 156.266 58.0681C155.083 58.5645 154.062 58.98 152.682 58.8703C152.319 57.9296 152.503 56.3366 152.503 54.7321C152.503 53.5316 152.399 52.3196 152.44 51.4596C152.451 51.1306 152.509 50.5419 152.746 50.4727C153.6 50.1321 154.569 51.5577 155.337 52.3888C156.11 53.2199 156.884 54.1319 157.438 54.6167C157.969 55.0726 158.863 55.4651 158.858 56.1C158.858 56.6194 158.177 57.0119 157.75 57.2716M152.44 44.4125C152.659 43.8642 153.969 43.4659 154.662 43.0561C155.308 42.6637 156.134 41.9653 156.514 41.3247C156.936 40.6205 156.953 39.7606 157.565 39.3508C158.061 39.5759 158.91 39.7663 158.985 40.4012C159.077 41.1342 158.09 41.7287 157.628 42.1327C156.405 43.1889 155.654 44.02 154.598 45.2205C154.206 45.6707 153.519 46.6865 152.873 46.5191C152.434 46.4095 152.168 45.0935 152.44 44.4182M151.326 43.0561C150.87 43.2812 150.252 43.212 149.658 43.3043C148.971 43.4082 148.434 43.6391 147.869 43.489C147.182 43.3101 146.703 42.554 146.264 42.0692C145.929 41.6998 144.89 40.9091 144.902 40.4012C144.914 39.9799 145.618 39.6336 146.074 39.3508C147.037 38.7621 147.84 38.2195 149.04 37.931C149.848 37.7347 150.691 37.5789 151.389 37.7463C151.591 39.218 151.799 41.7114 151.326 43.0619M151.326 58.8069C149.196 59.0493 147.678 58.2412 146.201 57.387C145.854 57.185 145.127 56.7464 145.087 56.3366C145.035 55.8056 145.791 55.165 146.322 54.6686C146.905 54.1261 147.251 53.7971 147.805 53.2488C148.607 52.4466 149.225 51.9156 149.969 51.0902C150.356 50.6574 150.443 50.2533 151.205 50.288C151.655 50.7555 151.51 51.5346 151.51 52.2619C151.51 54.4147 151.649 57.0119 151.326 58.8126M142.986 54.2358C142.091 52.7813 141.352 51.3038 141.254 49.1683C142.178 48.5911 143.638 48.7989 145.023 48.7989C146.408 48.7989 147.794 48.77 148.977 48.7989C149.427 48.8104 149.871 48.9028 150.212 49.1106C150.12 49.9128 149.404 50.3457 148.856 50.842C147.736 51.8463 146.957 52.8217 145.825 53.9933C145.398 54.4378 144.712 55.3612 144.157 55.3497C143.667 55.3439 143.251 54.6744 142.986 54.2415M149.658 45.1512C149.762 44.6203 150.789 44.4587 151.453 44.7184C151.551 45.2378 151.568 46.1382 151.389 46.5711C150.575 46.5133 149.513 45.8669 149.658 45.1512ZM141.751 45.7111C143.315 45.6014 145.335 45.3706 147.066 45.2147C147.43 45.1859 147.759 45.0993 148.117 45.2147C148.573 45.3648 148.746 45.8381 149.109 46.2017C149.398 46.496 150.345 46.9231 150.223 47.5003C150.108 48.0428 149.121 47.8985 148.492 47.8697C146.403 47.7773 143.292 48.1294 141.324 47.7485C141.099 47.0097 141.312 46.1324 141.756 45.7111M139.835 43.7314C139.102 43.8815 138.796 43.0504 138.167 42.808C137.133 42.6348 136.1 43.6968 135.385 42.8715C135.702 42.4444 136.297 42.5021 136.747 42.3751C137.641 42.1154 138.547 41.7979 139.465 41.4459C140.094 41.2092 140.51 40.938 141.318 40.9553C141.301 41.4343 140.96 41.9422 140.7 42.4963C140.487 42.9523 140.273 43.6449 139.835 43.7314ZM142.859 42.4328C143.142 41.9595 143.384 41.3651 143.909 41.3189C144.4 41.2727 144.839 41.7575 145.208 42.1212C145.577 42.4905 145.987 42.8541 146.074 43.3563C145.352 43.9046 143.338 44.1528 142.368 43.6679C142.282 43.2755 142.616 42.8368 142.859 42.4328ZM152.624 37.7405C153.929 37.6193 155.193 37.8271 155.833 38.5428C155.816 39.7663 155.343 40.7302 154.725 41.3824C154.24 41.8903 153.559 42.427 152.682 42.4905C152.353 42.023 152.503 41.3131 152.503 40.6379C152.492 39.6336 152.307 38.5428 152.624 37.7347M131.368 46.3286C130.254 46.3286 129.059 46.3748 128.026 46.3286C127.501 46.3056 126.883 46.346 126.485 46.0805L126.669 45.8323C128.678 45.8208 131.391 45.7053 133.647 45.8323C133.919 45.8496 134.421 45.7573 134.513 46.144C133.636 46.4499 132.51 46.3286 131.362 46.3286M126.058 43.4255C125.977 43.8469 124.915 43.7487 124.511 43.7314C122.779 43.6679 120.921 43.5063 119.565 43.2351C117.389 42.8022 115.086 41.9307 112.771 42.3693C112.246 42.4674 111.721 42.8137 111.103 42.7387C110.417 42.6579 109.978 41.9884 109.435 41.6883C108.183 41.0015 106.146 40.6205 104.183 40.7648C102.833 40.8629 102.025 41.4055 100.599 41.5094C100.524 40.6956 100.888 40.2338 101.032 39.4662C101.171 38.7448 101.032 37.6828 101.65 37.55C102.198 37.4346 102.406 38.0233 102.7 38.3523C103.116 38.814 103.75 39.5816 104.432 39.5239C104.847 38.7909 104.039 38.4446 103.687 38.0406C103.496 37.8213 103.352 37.5154 103.191 37.2961C103.029 37.0825 102.642 36.8978 102.885 36.5573C103.196 36.1706 103.768 36.2918 104.183 36.3726C105.291 36.5862 106.607 37.2037 107.889 37.3019C109.043 37.3942 110.497 37.2268 110.607 36.3726C110.699 35.6396 109.793 34.7046 109.187 34.5199C108.425 34.2833 107.496 34.5834 106.596 34.6412C105.719 34.6989 104.749 34.6412 103.877 34.5777C102.342 34.4622 100.536 34.2371 99.1793 33.6484C98.3886 33.3079 97.8172 32.7712 97.142 32.4768C96.4205 32.1536 95.4971 32.1998 94.7929 31.7323C94.7525 30.8608 95.295 30.1912 95.7799 29.6949C96.6167 28.8407 97.8692 28.0731 98.7465 27.0977C99.0581 26.7514 99.4218 26.4051 99.5545 26.0472C99.6699 25.7183 99.6064 25.3142 99.7392 24.9968C99.947 24.4947 100.686 23.9291 101.344 24.1311C101.471 26.4108 99.6064 28.2751 99.1851 30.3067C99.0062 31.1897 99.1505 32.142 99.8027 32.6557C100.541 33.2444 101.927 33.2502 103.017 33.1521C103.901 33.0713 104.616 32.6095 105.361 32.5345C105.926 32.4768 106.584 32.6038 107.213 32.6615C107.831 32.7134 108.547 32.6846 109.008 32.7827C109.562 32.9039 109.932 33.4118 110.861 33.2156C111.305 33.4811 111.386 33.8908 111.911 34.0813C112.269 34.2083 112.714 34.0813 113.083 34.266C113.678 34.5546 114.087 35.882 114.318 36.3669C115.64 39.1084 117.787 40.4185 120.869 41.619C121.943 42.0346 123.611 42.4097 125.007 42.7272C125.325 42.8022 126.162 42.8715 126.058 43.4082M112.771 50.1552C111.992 50.7266 110.63 50.3399 109.435 50.3399C108.939 50.3399 108.391 50.4034 107.894 50.4034C107.433 50.4034 106.838 50.5188 106.596 50.0917C106.423 49.5261 107.034 49.2318 107.398 48.9201C108.397 48.0659 109.355 46.5422 110.486 45.89C111.438 45.3417 111.935 46.7153 112.281 47.558C112.616 48.3776 112.991 49.1683 112.771 50.1552ZM112.217 53.8664C112.027 54.305 111.594 55.5921 110.855 55.6613C110.353 55.7075 109.943 55.1419 109.62 54.7956C108.812 53.9241 108.327 53.6413 107.462 52.7582C107.167 52.4523 106.607 51.7309 106.659 51.4596C106.786 50.8016 108.148 50.9863 109.008 51.0267C110.382 51.0845 111.86 50.8478 112.777 51.2749C112.777 52.3888 112.598 53.0237 112.223 53.8664M105.545 42.9292C106.377 42.606 107.398 43.0273 108.385 43.4832C109.193 43.8584 110.163 44.2566 110.18 44.9031C110.192 45.3417 109.539 45.8381 109.193 46.1382C108.27 46.9289 107.744 47.4657 106.971 48.3603C106.613 48.7758 106.209 49.2953 105.551 49.1625C105.338 48.2679 105.424 47.1136 105.424 46.0112C105.424 44.9088 105.326 43.7949 105.551 42.9234M108.2 57.8199C107.381 58.172 106.757 58.5298 105.667 58.4375C105.407 57.8084 105.303 56.7233 105.355 55.4709C105.401 54.5243 105.193 52.8448 105.545 52.3831L105.788 52.1984H105.909C107.04 53.0526 108.085 54.1088 109.182 55.2285C109.562 55.6152 110.059 56.0249 110.047 56.4636C110.03 57.2139 108.853 57.5371 108.195 57.8199M104.489 58.4375C103.45 58.3913 102.66 58.3278 101.771 57.9411C101.292 57.7333 100.022 57.0927 99.9816 56.579C99.947 56.1519 100.57 55.7768 100.911 55.4651C101.973 54.4955 102.792 53.0237 103.941 52.3773C104.98 51.7886 104.743 53.8433 104.743 54.6628C104.743 56.2039 105.014 57.4274 104.495 58.4317M99.2428 55.7825C98.4348 55.7825 98.1289 54.6167 97.823 53.8664C97.4825 53.041 97.0381 52.2272 97.2054 51.2749C97.9384 50.767 99.1793 51.0037 100.357 51.0267C101.528 51.0498 102.833 50.8363 103.629 51.2749C103.618 51.8521 103.144 52.2503 102.764 52.6312C101.996 53.3989 101.396 53.9991 100.541 54.8533C100.195 55.1996 99.6699 55.7825 99.2428 55.7825ZM104.553 49.2318C103.462 49.099 102.798 48.0313 102.019 47.2579C101.725 46.9578 101.292 46.5884 100.847 46.144C100.501 45.7977 99.9123 45.3071 99.9239 44.8453C99.9412 44.0085 102.4 42.883 103.629 42.808C104.01 42.7849 104.258 42.883 104.616 42.8715C104.749 43.8065 104.737 44.955 104.737 46.0862C104.737 47.2175 104.87 48.3891 104.553 49.2375M98.81 45.8323C99.5545 45.157 101.003 47.0674 101.592 47.685C101.973 48.089 102.388 48.4468 102.764 48.7989C103.179 49.1914 103.641 49.6127 103.629 50.161C103.3 50.5708 102.717 50.3688 102.209 50.3457C100.628 50.2764 98.6484 50.5766 97.2632 50.2245C96.9111 48.4584 97.9442 46.623 98.81 45.8381M116.419 12.4666C117.268 12.3512 118.266 12.4205 119.138 12.4666C119.357 14.2558 118.705 15.6987 118.768 17.5341C118.399 17.9612 117.412 17.9728 116.852 17.7188C116.494 17.3032 116.633 16.6684 116.604 16.1143C116.552 14.9138 116.234 13.6094 116.419 12.4666ZM117.654 9.93868C118.249 9.77707 118.774 10.5101 118.272 10.9256C117.648 11.4451 116.581 10.2215 117.654 9.93868ZM118.081 22.2322H117.279C117.187 21.6666 117.164 21.0317 117.094 20.4372C117.516 20.3564 117.833 20.3911 118.266 20.4372C118.387 20.9913 118.116 21.632 118.081 22.2322ZM134.023 43.0561C134.346 43.2639 133.942 43.6968 133.717 43.7949C133.134 44.0489 131.91 43.9161 130.687 43.9161C128.995 43.9161 127.46 44.1874 127.166 43.1139C129.209 43.3851 132.066 43.414 134.023 43.0504M35.4781 17.1647C34.4162 17.8573 33.2618 18.5095 32.0787 19.1444C31.311 19.5542 30.5319 20.0044 29.7296 20.3795C28.9043 20.772 27.9866 21.0144 27.1959 21.4299C26.8092 21.632 26.4975 22.0648 25.9608 21.7993C26.2205 20.8124 27.571 20.645 28.4945 20.2583C29.4757 19.8428 30.4511 19.4272 31.2129 18.8962C31.1206 18.296 30.5261 18.169 30.7166 17.4764C30.8089 17.1474 31.2764 16.9339 31.5823 16.9223C32.2749 16.8992 32.6904 17.5861 33.0021 17.9093C34.2719 17.4879 34.9645 16.4895 36.4016 16.2413C36.4131 16.778 35.8071 16.9512 35.4724 17.1705M33.0079 25.1353C32.9386 25.7644 33.1868 26.4282 32.8232 26.988C31.6862 27.0919 31.0859 26.6244 30.1683 26.1223C29.5738 25.7991 28.91 25.4008 28.5638 25.0141C28.1424 24.5466 27.6865 23.727 27.9462 23.0345C29.1294 22.4688 30.7223 23.3115 32.0209 23.2191C32.5808 23.1787 33.031 22.844 33.4408 23.2826C33.6832 23.9291 33.0829 24.4889 33.0079 25.1353ZM56.608 33.4753C56.8735 33.0655 57.2486 32.5172 57.6584 31.992C57.9643 31.5995 58.6338 30.9646 58.7088 30.5722C58.755 30.3298 58.6627 30.07 58.6454 29.7699C58.5992 28.7945 58.7492 27.7903 58.6454 26.7398L58.83 26.5551C59.4534 26.532 59.9093 26.6706 60.3133 26.8668C60.4288 28.0211 59.944 29.0312 60.1921 30.1393C60.2845 30.5722 60.5731 31.0685 60.7462 31.5591C61.2137 32.8693 61.2887 34.8951 61.7967 36.2572C61.9063 36.54 62.2526 36.8517 62.0448 37.1807C61.3003 37.6482 61.0694 36.7997 60.9367 36.3149C60.4807 34.6527 60.4057 32.3325 59.5169 31.184C58.7839 31.663 58.2356 32.4883 57.7277 33.2848C57.491 33.6542 57.2255 34.0871 56.9889 34.5199C56.5907 35.2299 56.1866 35.8186 56.1232 36.869C55.6268 36.869 55.09 36.9152 54.8246 36.6843C55.217 35.5069 55.9038 34.5834 56.6137 33.4695M148.913 13.3959C148.925 14.5156 149.219 15.3524 149.288 16.426C148.977 16.1836 148.798 15.8084 148.55 15.4967C148.14 14.9831 147.719 14.5329 147.747 13.5228C147.949 13.2574 148.607 13.1881 148.919 13.4016M148.053 18.7692C147.909 17.9439 147.921 16.9627 147.932 15.9931C148.694 16.2701 148.983 18.4345 148.053 18.7692ZM164.606 47.1944C164.381 44.3259 163.394 42.3578 162.136 40.6436C161.155 39.3046 159.943 38.2773 158.552 37.4288C158.107 37.1576 157.548 36.9383 157.132 36.5631C156.601 36.0898 156.405 35.1202 156.018 34.4622C155.666 33.862 155.175 33.2387 154.662 32.7308C153.675 31.7611 152.313 30.7107 150.339 30.9358C149.444 31.0397 148.492 31.8362 148.301 32.7885C148.088 33.8678 148.757 34.9124 150.091 34.5199C150.841 34.2949 150.858 33.2675 151.695 33.2213C152.076 33.204 152.37 33.4984 152.746 33.7177C153.594 34.2141 154.494 34.6931 154.662 35.6916C154.015 35.8878 153.438 35.5877 152.873 35.5069C151.008 35.2299 149.133 35.6743 147.805 36.1879C147.315 36.3784 146.807 36.6901 146.264 36.6208C146.962 34.2775 148.209 32.4768 148.117 29.3313C147.182 28.9446 145.941 29.1466 144.654 29.1466C142.79 29.1466 140.896 29.2101 139.096 29.1466C138.08 29.112 137.076 28.8984 136.25 29.3313C135.991 30.8492 136.291 32.7423 136.129 34.6469C136.06 35.4319 135.916 36.3091 135.881 37.1807C135.841 38.1618 135.881 39.0564 135.575 39.6509C135.102 40.5513 133.261 40.9841 131.679 41.0707C129.278 41.2035 126.629 40.8745 125.688 39.7721C125.117 39.1141 125.238 37.9021 125.192 36.8055C125.082 34.1102 125.03 31.663 124.638 29.2678C122.837 29.0658 120.223 29.1466 118.208 29.1466C117.556 29.1466 116.662 29.3255 116.477 28.6502C116.904 28.1827 117.62 28.3732 118.272 28.402C120.396 28.4944 122.872 28.4367 124.638 28.2174C124.938 27.1438 124.823 25.8625 124.823 24.5755C124.823 21.9725 124.938 19.5369 124.823 16.9166C124.776 15.9585 124.453 13.8807 125.007 13.4536C125.457 13.1131 126.981 13.2689 127.662 13.2689C128.603 13.2689 129.601 13.3266 130.444 13.3266C132.464 13.3266 134.455 13.1939 136.002 13.5113C136.181 15.7795 136.187 18.3595 136.187 20.922C136.187 22.1976 136.198 23.4673 136.123 24.6909C136.048 25.9491 135.91 27.2016 136.308 28.2751C138.04 28.5002 140.065 28.402 142.114 28.402C144.163 28.402 146.322 28.5175 148.169 28.2174C148.515 26.0819 148.273 23.2538 148.105 21.049C148.082 20.697 147.996 20.1833 148.048 19.9986C148.151 19.6003 148.671 19.5369 148.913 19.2541C149.19 18.9366 149.069 18.7057 149.346 18.4518C149.381 19.231 150.114 19.2021 150.27 19.9986C150.448 20.9047 149.918 22.2784 150.766 22.4053C152.013 22.5958 151.355 20.8124 151.505 19.9986C151.597 19.5369 152.151 19.2252 152.307 18.6365C152.445 18.1344 152.376 17.4418 152.434 16.7838C152.578 15.0408 153.109 12.6513 152.676 11.2835C152.313 11.1334 151.62 11.3123 151.257 11.1623C150.962 10.8044 151.291 10.083 150.766 10.0483C150.166 10.0137 150.627 10.9718 149.964 11.2835C149.473 11.5086 149.346 11.1623 148.786 11.4682C148.521 11.6124 148.682 12.1838 148.544 12.4551C148.434 12.3108 147.915 12.6052 147.742 12.3974C147.476 11.5201 148.186 11.1219 148.111 10.233C147.263 9.5289 146.056 9.82325 145.023 9.85788C143.846 9.89828 142.605 9.85788 141.376 9.85788C134.784 9.85788 127.887 9.78862 121.36 9.85788C120.702 9.86365 120.061 9.99062 119.628 9.85788C118.895 9.63278 118.705 8.72087 117.654 8.80745C116.696 8.88825 116.794 9.62701 115.986 9.85788C115.178 10.0945 111.594 9.40192 111.415 10.2907C111.334 10.7005 111.831 10.9545 111.911 11.0353C112.119 11.2488 112.35 11.4739 112.408 11.7741C112.5 12.2473 112.333 13.0092 112.287 13.6902C112.027 17.2859 111.854 19.9236 111.854 23.6347C111.854 24.8179 112.05 27.0861 111.236 27.2189C110.261 27.3747 110.232 26.2031 109.753 25.9203C109.309 25.6605 108.333 25.7587 107.467 25.7991C106.879 25.8279 105.511 26.0126 105.615 25.245C105.695 24.6332 107.115 24.8294 107.652 24.8756C108.42 24.9391 109.591 25.0776 110.001 24.8121C110.446 24.5293 110.434 23.4154 110.492 22.5266C110.555 21.6146 110.705 20.5815 110.619 19.8081C110.561 19.3349 110.272 18.7981 110.37 18.2613C110.422 17.9901 110.578 17.9324 110.676 17.765C111.49 16.4606 111.092 14.6887 110.798 13.442C110.653 12.8187 110.561 12.2069 110.365 11.6528C110.18 11.1161 109.793 10.6948 109.62 10.1695C109.534 9.89828 109.597 9.58084 109.499 9.3038C109.378 8.96905 108.945 8.74973 108.881 8.31686C109.089 7.88976 109.337 7.49729 109.251 6.77007C109.499 6.40069 110.07 6.16982 110.238 5.71964C110.59 4.79618 110.215 3.6938 109.932 2.68954C109.713 1.92769 109.476 1.13121 109.066 0.836859C108.062 0.12118 106.463 0.744513 105.297 1.02155C104.905 1.57562 105.24 1.90461 104.737 2.32016C104.224 2.75303 103.214 2.46445 103.069 3.12819C102.902 3.89581 103.947 4.27096 104.247 4.98087C104.541 5.69078 104.368 7.00093 104.616 7.45112C105.014 8.17834 106.763 7.93593 106.902 8.68624C106.959 8.98637 106.538 9.5289 106.342 9.98485C106.203 10.3138 106.099 10.7698 105.973 11.0353C105.73 11.5547 105.326 11.8606 105.17 12.2704C104.986 12.761 104.962 13.3035 104.737 14.0019C104.553 14.5733 104.201 15.2774 104.247 15.7334C104.328 16.576 105.476 16.8704 105.418 17.7707C105.343 18.9539 103.029 19.2656 101.65 19.5599C101.003 19.6985 100.097 19.8774 99.364 20.0563C98.6541 20.2237 97.6383 20.4661 97.2632 20.7951C96.94 21.0779 96.6687 21.7936 96.3974 22.3419C95.7856 23.5828 95.3297 24.46 94.6659 25.4932C94.3139 26.0472 93.8695 26.4859 93.6155 26.913C93.3385 27.3805 93.35 28.0442 92.6286 28.4598C91.9071 28.3039 91.405 27.6633 90.6547 27.3458C90.3084 27.2016 89.8813 27.242 89.5408 27.0399C89.0675 26.7571 88.9347 25.6432 88.2421 25.7413C87.463 25.851 87.7631 27.7268 87.9997 28.3386C88.2479 28.9907 88.7039 29.2736 89.2983 29.7584C89.6331 30.0296 90.1237 30.4741 90.4758 30.8665C91.2491 31.7438 91.8378 32.9328 92.5131 33.4637C93.4943 34.2429 94.9314 34.3641 96.3455 34.947C97.2285 35.3107 98.5329 35.7666 98.6945 36.5516C98.9369 37.752 97.9962 38.5889 97.4594 39.4547C97.0554 40.0953 96.4032 41.6421 95.7914 41.9249C95.3124 42.15 94.2966 42.1096 93.4424 42.1096C90.7355 42.1096 88.3114 41.9076 86.2163 41.6767C79.856 40.9899 74.3614 39.8241 68.3012 39.0795C65.6694 38.7621 62.8817 38.2715 60.2672 38.1561C59.9959 38.1445 59.3668 37.9656 59.2167 38.4042C59.2802 38.6293 59.5804 38.5601 59.7073 38.5889C61.1329 38.9064 62.6509 39.0218 64.1572 39.2065C68.4109 39.7202 72.8781 40.3954 76.7624 41.1227C77.3915 41.2439 78.0726 41.2958 78.6151 41.4343C78.7536 41.469 79.1519 41.4343 79.048 41.746C78.8921 42.0346 78.5689 41.8153 78.3669 41.8037C73.8478 41.671 69.6864 41.1573 65.704 40.6321C65.2942 40.3839 65.2654 39.9164 64.8383 39.7663C64.5497 39.6682 64.0995 39.6971 63.7244 39.6451C62.5296 39.4778 61.4273 39.345 60.3884 39.1545C56.1116 38.3581 51.4482 37.6597 46.7963 37.4865C46.1267 39.7606 46.2999 43.212 43.1486 42.8022C43.1717 42.2828 43.6911 42.0923 43.9508 41.7518C44.805 40.6205 45.186 39.218 45.3129 37.3653C43.9913 37.1114 42.1847 36.9498 40.7418 36.8748C40.257 36.8459 39.6221 36.9613 39.3797 36.4996C39.5529 36.0148 40.2109 36.136 40.6784 36.1302C42.3406 36.1129 43.9278 36.4188 45.3764 36.4419C45.7689 34.5603 45.7054 32.1305 45.2552 30.5087C45.0763 29.8796 44.7762 29.3832 44.7646 28.9042C45.5554 29.0081 46.4269 29.1293 47.2984 29.2158C48.1583 29.2966 49.1049 29.1524 49.7686 29.5217C49.5897 30.1451 48.5681 29.9315 48.0371 30.2028C48.3834 31.9054 49.48 33.1059 49.9533 34.7739C50.1149 35.3511 50.2881 36.3034 49.7051 36.3784C49.1511 36.4534 49.076 35.7089 48.9664 35.328C48.6489 34.2602 48.4065 33.4464 47.9794 32.6095C47.7832 32.2228 47.5466 31.7553 47.1137 31.7438C47.131 33.2964 47.056 35.0452 46.8655 36.5631C52.8622 37.1749 59.2629 37.7174 65.3346 38.0464C65.6809 37.7809 65.831 37.3249 66.0792 36.9325C66.8122 35.7551 67.499 34.5488 67.499 32.7308C67.499 31.9747 66.8757 30.249 67.6837 30.1335C68.2204 30.0585 68.6302 30.9704 68.9188 31.3052C69.3401 31.7958 69.7788 32.194 70.1539 32.5403C70.8812 33.2156 72.0528 34.4161 73.4264 34.2083C74.6212 34.0294 75.2156 32.4364 76.0814 31.5476C76.4912 31.132 77.2646 30.8434 77.3165 30.1912C77.3454 29.8161 77.1145 29.6141 77.0048 29.389C76.8836 29.1408 76.8201 28.8465 76.6932 28.5867C75.7986 26.6706 73.6227 25.0603 70.8869 25.1238C68.8149 25.1757 67.9146 26.6186 66.6217 27.594C66.4428 27.7325 66.2177 27.8711 66.0042 27.9634C64.29 28.7079 63.0953 27.2535 62.0506 26.7283C60.7404 26.0703 58.9455 25.7067 56.9254 25.8625C54.7322 26.0299 53.0527 27.2131 50.998 27.7787C48.8509 28.3674 45.792 28.3674 44.1413 27.4728C43.6911 27.2304 43.1428 26.6359 42.9697 26.4224C42.4098 25.7413 41.9827 24.9391 41.5499 24.2003C40.9034 23.0922 40.2051 21.7128 39.7549 20.4949C39.576 20.0044 39.5298 19.5195 39.3855 19.0116C39.2585 18.5615 39.0277 18.1286 38.8892 17.6553C38.7506 17.1474 38.7564 16.5703 38.5833 16.1085C38.3351 15.4679 37.8272 14.9138 37.2846 14.6252C36.9441 14.4463 36.3785 14.4232 36.0495 14.1924C35.6686 13.9269 35.2877 13.1015 35.0626 12.7725C34.7913 12.3801 34.6759 11.7971 33.4581 11.9068C33.181 12.3974 33.7409 12.9341 33.5793 13.5748C33.4119 14.2616 32.3095 14.1924 31.6631 14.5617C31.3341 14.7522 31.1552 15.1678 30.8609 15.5487C30.024 16.628 29.2217 17.511 28.0212 18.2036C27.3171 18.6134 26.4802 18.9366 25.6722 19.5022C24.4948 20.3276 23.1788 21.0606 24.1889 22.6535C24.6621 23.3981 25.222 23.7386 26.4744 23.577C27.3171 24.1368 27.2767 24.6851 27.8365 25.3085C28.4714 26.0184 29.695 26.786 30.6184 27.2246C31.2591 27.5305 32.2287 27.7672 32.4711 28.2751C32.7135 28.7772 32.5231 29.6025 32.4134 30.3124C32.1941 31.6803 32.0383 33.256 32.2287 34.5777C32.3268 35.2645 32.6039 36.0494 32.4769 36.6785C32.3326 37.4 31.363 37.6943 30.6877 38.0349C29.1294 38.8198 28.3098 39.5586 26.486 40.1992C25.7126 40.4705 24.6506 40.7417 24.3851 41.3131C24.287 41.5209 24.1658 42.5483 24.3274 43.0446C24.4486 43.4198 24.9046 43.8353 25.2509 44.1528C26.3417 45.157 27.4383 46.3633 27.7846 47.8581C27.8712 48.2275 27.9693 49.1914 28.0905 49.4049C28.5753 50.2476 29.0024 49.6935 29.5103 50.5188C29.7412 50.8882 29.822 51.3615 30.0644 51.8174C30.1856 52.0483 30.4049 52.7294 31.0513 52.6832C31.5246 52.6486 32.3326 51.4654 31.9748 50.5823C31.7901 50.1148 31.1033 50.1091 30.6762 49.7801C30.4511 49.6069 30.3241 49.2722 30.1221 48.9778C29.9316 48.7008 29.6834 48.4815 29.5045 48.2391C28.6965 47.154 28.1193 46.0632 27.4671 44.8396C27.1555 44.2566 26.5841 43.3967 26.7226 42.8022C26.8958 42.075 28.2175 42.0634 29.1351 41.9365C29.9085 41.8326 31.4092 41.5555 31.8536 41.3824C32.4884 41.1342 32.8347 40.5974 33.585 40.7013C34.4566 40.8225 35.4608 42.8657 35.7494 43.6045C36.3266 45.0704 36.3958 46.5768 36.6151 47.8697C37.0134 50.2303 37.4289 52.0483 37.9138 54.2358C38.0754 54.9745 38.4043 55.7825 38.2831 56.4636C38.0696 57.6583 35.8417 58.1662 36.0553 59.6726C36.188 60.6018 37.9138 60.9077 38.6525 60.3537C39.0738 60.0362 39.045 59.257 39.3336 58.3163C39.5067 57.7622 39.8761 57.3813 39.9511 56.9542C40.1358 55.9037 39.8761 54.5012 39.7029 53.2488C39.5298 51.9964 39.2874 50.7382 39.3913 49.5434C39.4663 48.6777 39.7895 48.0082 39.7607 47.1367C39.7318 46.2363 38.8026 43.4717 40.0088 43.1831C40.3667 43.0966 41.0073 43.4082 41.4921 43.5583C44.8801 44.5914 47.5754 43.0619 49.8956 41.8268C50.6171 41.4459 51.4078 41.0303 52.2446 40.5282C53.0065 40.0722 53.8838 39.3508 54.7784 39.3566C55.8346 39.3566 56.7234 40.0376 57.1851 40.8399C57.3467 41.1227 57.3814 41.469 57.5545 41.7691C57.9643 42.4674 59.0667 42.9176 59.0378 43.8699C59.0147 44.5856 58.3106 45.03 57.9297 45.4167C56.9196 46.4268 56.3194 47.0386 55.3325 48.1352C54.8188 48.7066 54.3455 49.151 54.3455 49.8032C54.3455 50.5823 54.8765 50.819 55.0266 51.4134C55.1189 51.777 55.0266 52.1753 55.1478 52.5851C55.2805 53.041 55.7596 53.7913 56.5099 53.7567C57.3006 53.7221 57.9759 52.7294 57.8085 51.7193C57.6007 50.4784 56.2905 50.7497 56.2617 49.8032C56.2501 49.4684 56.7869 48.8855 57.0639 48.6315C57.3871 48.3314 57.8777 47.9101 58.1144 47.7023C58.9224 47.0039 60.0075 46.5711 60.6481 46.219C61.1156 45.9593 61.8082 45.232 62.3796 45.2955C62.7547 45.3359 63.0953 45.9016 63.303 46.219C64.6363 48.216 65.0403 50.692 65.5309 53.445C65.7156 54.4724 66.1831 55.8056 65.9638 56.6598C65.7444 57.5198 64.492 58.0623 64.0476 58.8242C63.3838 59.9496 64.3246 61.0636 65.8368 60.7403C66.2119 60.6595 66.5813 60.2728 66.766 59.8746C66.9622 59.4533 66.9103 58.7665 67.1354 58.2066C67.3432 57.6987 67.9376 57.2832 68.0646 56.8503C68.2724 56.1058 67.978 55.2285 67.8164 54.38C67.5509 53.0179 67.1527 51.4942 67.2624 49.9936C67.3201 49.1741 67.5625 48.4295 67.4471 47.7081C67.2624 46.5191 66.1946 45.6995 65.9003 44.6203C65.7906 44.2162 65.756 43.7834 65.7156 43.3851C65.6752 43.01 65.5655 42.5367 65.7733 42.15C66.3562 41.9595 66.9796 42.1673 67.5625 42.2135C72.2894 42.5713 77.0048 42.7214 81.8357 42.9523C84.6291 43.085 87.4745 42.9119 90.2391 43.0792C92.9922 43.2408 95.6991 43.6045 98.3309 43.2004C96.3974 45.284 94.7756 47.4714 95.0584 51.6674C95.2777 54.963 97.1535 57.5256 99.3871 59.0204C101.788 60.6307 105.574 61.1559 108.714 59.8862C111.398 58.8011 113.493 56.6598 114.399 53.8952C115.172 51.5173 115.017 48.5738 114.087 46.6057C113.781 45.9535 113.256 45.4167 113.1 44.626C113.556 44.3028 114.145 44.5106 114.641 44.5625C115.19 44.6203 115.773 44.6664 116.309 44.7472C118.907 45.1397 121.181 46.2478 123.911 46.4152C124.499 46.4499 125.394 46.2998 125.763 46.4787C126.139 46.6519 126.219 47.4714 126.693 47.6503C127.166 47.835 127.957 47.6734 128.666 47.6503C129.411 47.6273 130.184 47.5638 130.767 47.5869C132.204 47.6503 133.555 47.8985 134.663 47.4657C134.9 47.1886 134.692 46.4672 134.975 46.2305C135.344 45.8958 135.962 46.1151 136.522 46.1093C137.48 46.0978 138.559 45.763 139.24 46.2305C138.824 49.428 139.534 51.8059 140.475 53.7683C142.397 57.768 145.854 60.775 151.349 60.9943C157.005 61.2194 161.016 58.1835 163.025 54.5705C164.139 52.5678 164.866 50.1148 164.629 47.2175" fill="#12100B"/>
        <path d="M184.547 86.6491C184.547 91.8666 184.293 96.4262 184.293 101.73C184.293 102.752 184.391 104.333 184.206 105.101C184.131 105.418 183.797 106.094 183.572 106.319L181.511 107.421C181.165 107.669 180.449 108.183 180.293 108.287C180.224 108.333 178.325 110.059 178.048 110.307C177.731 110.584 176.484 112.021 176.345 112.165L175.22 113.706L174.677 114.537L173.841 116.223C173.806 116.269 173.569 116.396 173.246 116.483C172.265 116.742 170.181 116.731 168.785 116.731C118.231 116.731 67.5161 116.413 16.8356 116.413C15.8833 116.413 13.5054 116.563 13.4823 116.182C13.136 115.045 10.7119 111.577 10.3945 111.242C10.0078 110.832 8.66879 109.753 8.45524 109.568C8.21861 109.355 7.58373 108.835 7.12777 108.599L6.21586 107.866C6.07734 107.767 4.81336 107.121 4.56518 106.994C4.04573 106.723 3.4224 106.642 3.01262 106.157C3.0357 98.3424 2.86256 89.5234 3.04148 81.8644C3.23194 81.7259 4.41512 81.218 4.42089 81.218L4.80181 81.0102L5.15388 80.8025L6.47558 80.2138C7.122 79.8617 8.66302 78.7478 9.09589 78.1822C9.59225 77.8763 10.8793 76.1563 11.0063 75.9485L11.7104 74.9501L12.0336 74.4191L13.061 72.9184L13.2053 72.6818L14.3538 70.4424C14.4404 70.3616 15.0002 70.2924 15.1965 70.3212C21.626 70.5059 124.903 70.3212 170.118 70.3212C170.961 70.3212 172.963 70.3328 173.535 70.4309L174.1 70.5232L174.764 72.5144C174.868 72.601 175.716 74.0785 175.901 74.3152C176.115 74.5864 176.998 75.8042 177.05 75.8562L178.55 77.2933C178.764 77.5704 180.478 78.7535 180.489 78.7593L181.84 79.6308L183.375 80.2772L184.178 80.6582C184.737 81.5355 184.524 85.0619 184.524 86.6549M186.832 83.7518L186.954 83.5036C186.965 83.3535 186.977 82.9495 186.988 82.482L186.954 82.2165C186.948 81.6105 187.023 80.9929 186.988 80.3523C186.948 79.6424 187.086 78.9267 186.884 78.2745C185.973 77.478 184.703 77.7666 183.762 77.2356C183.641 77.1664 182.983 76.8316 182.723 76.7162L181.892 76.1967C181.702 76.0697 180.622 75.1117 180.432 74.9443C180.253 74.7885 178.804 72.9184 178.77 72.8607C178.643 72.6645 178.377 72.2663 178.354 72.2374L177.621 71.4063L177.205 70.6791C177.096 70.4713 177.038 70.252 176.998 70.1596C176.911 69.9576 176.599 69.2823 176.582 69.2246C176.513 69.0284 176.403 68.4743 176.374 68.3935C176.288 68.128 176.19 67.8914 175.959 67.6663H15.1388C14.2672 67.6663 13.3438 67.5739 12.5358 67.6663C12.3972 67.6836 11.6758 67.5913 11.5026 67.8221C11.3468 68.0241 10.181 71.8796 10.1463 71.9373L9.73077 72.7684L9.62688 72.9762L9.31521 73.5995L7.85499 75.4753C7.78573 75.5676 6.75839 76.5142 6.50444 76.8316L5.46555 77.4549L3.07033 78.7016C2.83947 78.7882 2.09493 78.8921 2.02567 78.9151C1.40811 79.0767 0.917525 78.8055 0.149901 79.3307C-0.104049 79.8097 0.0402407 80.3927 0.0460123 80.889C0.0806419 85.3447 0.0460123 89.6215 0.0460123 94.0079C0.0460123 98.3943 0.167216 102.942 0.0460123 107.121C0.0286975 107.669 -0.0405618 108.16 0.0690987 108.766C0.530827 109.153 1.30422 109.239 1.82367 109.395C2.27962 109.539 4.28237 110.376 4.42089 110.451L5.8811 111.282C5.99654 111.369 7.17972 112.315 7.51447 112.558C8.33981 113.175 9.08435 113.874 9.70191 114.924C9.73077 114.97 11.3526 117.787 11.8374 119.253C66.5869 119.253 121.417 119.299 176.172 119.299C176.224 119.114 176.478 118.693 176.484 118.676C176.553 118.347 176.801 116.829 177.009 116.39L177.736 115.034C177.76 114.999 178.21 114.284 178.36 114.093C178.504 113.92 179.433 112.841 179.503 112.743L180.022 112.223C180.282 111.911 180.489 111.629 180.749 111.392C180.94 111.219 181.673 110.671 181.794 110.665L181.898 110.561C182.106 110.411 183.139 109.637 183.358 109.626L183.774 109.314L184.293 109.106C184.518 108.968 185.199 108.697 185.234 108.691C185.719 108.547 186.4 108.679 186.792 108.166C187.023 107.698 186.832 107.184 186.792 106.711C186.677 105.136 186.688 103.468 186.688 101.817C186.688 98.4751 186.792 95.1045 186.792 91.8205C186.792 90.6661 186.89 87.1166 186.896 87.0358C186.994 85.9623 186.913 84.8484 187 83.8095L186.844 83.7748L186.832 83.7518Z" fill="#12100B"/>
        <path d="M109.822 89.252V89.0442C109.637 88.8942 109.591 88.7152 109.406 88.4209L109.302 88.1092C109.268 87.9649 109.158 87.1396 109.204 86.7587C109.239 86.4239 109.458 85.9045 109.62 85.5062V85.2984C109.747 85.1946 109.874 84.779 110.035 84.5712L110.243 84.3635C110.388 84.1672 110.451 83.9421 110.555 83.844L110.867 83.6362L111.074 83.4285H111.282L111.594 83.1168L111.802 83.0129C111.888 82.9552 112.142 82.8859 112.425 82.8051L112.529 82.7012C112.765 82.6897 112.835 82.6781 113.048 82.5973C113.343 82.4819 113.949 82.2164 114.405 82.0779C114.687 81.9913 114.97 81.9394 115.236 81.8701H115.443L115.755 81.7662C115.871 82.0202 116.073 82.0548 116.067 82.2857C116.067 82.4242 115.836 82.5858 115.755 82.8109C115.628 83.1514 115.38 83.5093 115.236 83.8498C115.086 84.1903 114.941 84.5828 114.82 84.9926C114.774 85.1426 114.791 85.2292 114.716 85.512C114.693 85.6101 114.682 85.7544 114.612 86.0372C114.497 86.5336 114.416 87.9822 114.612 88.6402C114.664 88.8134 114.734 88.9576 114.82 89.1597L115.034 89.6791L115.241 89.8869V90.0947C115.316 90.1581 115.432 90.4121 115.553 90.6141C115.715 90.8796 115.98 91.1162 116.078 91.451C116.39 91.5895 116.604 91.8954 116.39 92.2821C116.032 92.5014 115.628 92.2532 115.247 92.1782C114.924 92.1147 114.647 92.0051 114.312 91.9704C114.012 91.9416 113.954 91.8839 113.689 91.7627C113.539 91.6934 113.302 91.6819 113.066 91.5549L112.858 91.3471L112.546 91.2432L112.333 91.0297L112.021 90.9258L111.813 90.718H111.605L111.501 90.5102L111.19 90.4063C111.022 90.2851 110.924 90.1062 110.774 89.9908L110.463 89.8869L110.047 89.4713L109.839 89.2635M114.301 93.8289L114.405 93.9328C114.93 94.1406 115.57 94.1405 116.171 94.2444C116.471 94.3022 116.811 94.4349 116.898 94.458H117.106C117.614 94.4926 117.868 94.5388 118.254 94.5619C118.514 94.5792 118.797 94.533 119.085 94.5619C119.42 94.5965 119.72 94.7235 120.02 94.7697C120.84 94.8966 121.902 94.8216 122.519 94.7697C122.693 94.7523 122.872 94.7927 123.039 94.7697C123.57 94.6946 124.141 94.4753 124.603 94.458L124.707 94.3541C124.961 94.2791 125.174 94.3195 125.33 94.2502L125.434 94.0424L125.85 93.9385C126.063 93.8462 126.381 93.6904 126.577 93.6269C126.762 93.5634 127.039 93.4364 127.096 93.4133L127.512 93.3094H127.824C128.897 93.3441 129.168 94.0828 130.634 94.0367C131.171 93.6153 131.061 92.8766 131.05 92.1609C131.033 91.3586 130.923 90.7411 130.842 89.9735C130.813 89.6849 130.888 89.3617 130.842 89.1423C130.784 88.8826 130.669 88.8364 130.53 88.6229C129.93 88.5017 129.838 88.8999 129.595 89.1423C129.053 89.8407 128.297 90.6314 127.304 91.2259L126.992 91.3298L126.785 91.5376L126.467 91.6414C126.254 91.728 126.04 91.8261 125.948 91.8492L125.63 91.9531H125.423L125.215 92.1609L124.799 92.2648C124.251 92.4379 123.454 92.6168 123.027 92.6803C122.404 92.7727 121.827 92.7554 121.567 92.6803C121.134 92.5476 120.892 92.663 120.736 92.4726H120.528L120.32 92.2648L120.113 92.057L119.905 91.8492C119.807 91.7107 119.789 91.4221 119.697 91.2259L119.489 91.0123L119.385 90.7007C119.183 90.187 119.033 89.5406 118.97 89.0327L118.866 88.721C118.635 87.4109 118.803 86.0026 119.074 84.9752C119.212 84.4558 119.374 83.9364 119.593 83.5208L119.801 83.313V83.0995L120.009 82.9956L120.113 82.6839L120.424 82.4761C120.834 82.0606 121.14 81.7374 121.567 81.645C122.219 81.5065 123.079 81.57 123.547 81.645V81.7489H123.858L123.962 81.8528H124.28L124.488 82.0606C124.655 82.1241 124.863 82.101 125.007 82.1645V82.2684H125.215L125.423 82.4761H125.526C125.717 82.4877 125.792 82.6781 125.942 82.6839L126.358 82.9956H126.565L126.773 83.2034L126.981 83.3072L127.293 83.515L127.396 83.6189C127.564 83.7286 127.702 83.7574 127.812 83.8267L128.124 84.0345L128.228 84.1384L128.539 84.2423L128.643 84.45L128.955 84.5539L129.266 84.8656L129.474 84.9695L129.786 85.183C130.115 85.2003 130.409 85.6852 130.825 85.4947C130.917 85.3158 131.056 85.1715 131.24 85.0791C131.177 84.3173 131.385 83.4919 131.344 82.6839C131.321 82.2453 131.079 81.3045 131.033 81.1256C130.946 80.7793 130.882 80.5196 130.715 80.3984L130.403 80.2945L130.3 80.1906L130.196 80.2945H129.78L129.572 80.5022H129.359C128.903 80.6177 128.58 81.0102 128.008 81.0217C127.639 81.0275 127.269 80.8601 126.86 80.71C126.56 80.5946 126.109 80.3406 125.925 80.2945L125.717 80.1906H125.509C125.019 80.0059 124.447 79.7808 124.049 79.6711C123.824 79.6076 123.576 79.6192 123.322 79.5672C122.872 79.4749 122.139 79.3191 121.861 79.2556H121.446C120.338 79.1748 118.37 79.0247 117.388 79.2556H116.973C116.269 79.3652 115.784 79.5384 115.201 79.6711C114.803 79.7635 114.087 79.8154 113.949 79.9828H113.741C113.302 80.1502 112.754 80.3118 112.39 80.3984C112.177 80.4503 112.073 80.5542 111.871 80.6061L111.767 80.71C111.588 80.7735 111.317 80.7447 111.144 80.8139V80.9178H110.936L110.728 81.1314C110.561 81.2064 110.376 81.241 110.209 81.3391C110.024 81.443 109.862 81.645 109.689 81.6508L109.585 81.7547C109.383 81.8874 109.204 81.9625 109.066 82.0664C108.898 82.1933 108.87 82.251 108.61 82.6031L108.437 82.8975L108.333 83.0014C107.946 83.3246 107.404 84.8425 107.398 84.9752L107.294 85.0791C107.219 85.2581 107.236 85.4889 107.19 85.7025C107 86.5451 107.173 88.1669 107.398 88.8249L107.502 89.2405L107.709 89.4482L107.813 89.656L107.917 89.7599C108.073 89.985 108.171 90.187 108.333 90.389C108.731 90.8738 109.164 91.3413 109.481 91.5318C109.764 91.7049 109.96 91.8896 110.209 92.057C111.38 92.8189 112.869 93.471 114.266 93.8231" fill="#12100B"/>
        <path d="M71.6948 87.9996L71.591 88.1035V88.519L71.4871 88.6229L71.3832 88.9346L71.2793 89.3501L71.0715 89.454C70.9907 89.6272 70.9965 89.6734 70.8637 89.8696L70.656 90.187C70.5405 90.3255 70.402 90.5102 70.2404 90.7065L70.0326 90.9143C69.871 91.122 69.8652 91.3067 69.721 91.4337H69.5132C69.3573 91.6299 69.1323 91.7915 68.786 91.9531C68.6532 92.0166 68.5551 92.1147 68.3704 92.1609H68.1626L67.9548 92.3745C67.7644 92.4264 67.5912 92.438 67.4354 92.4784L66.916 92.3745C66.789 92.1263 66.8582 91.9127 66.916 91.6472C66.9448 91.5145 67.0833 91.3009 67.1237 91.1278L67.2276 90.7122L67.3315 90.4006L67.4354 90.2967C67.5104 90.0485 67.4643 89.8176 67.5393 89.5695L67.6432 89.4656V89.3617L67.7471 89.05C67.7875 88.9057 67.874 88.4959 67.9548 88.115C68.1107 87.382 68.3415 86.7298 68.2665 85.7198C68.1626 84.3115 67.4181 83.365 67.1237 82.0779C67.3373 82.0491 67.3257 81.7951 67.5393 81.7663C67.7298 81.8875 67.874 81.7663 68.1626 81.8701L68.2665 81.974C68.4512 81.9856 68.9533 82.2453 69.2015 82.3896L69.3054 82.4935L69.6171 82.7013L69.8248 82.8051L69.9287 83.0129L70.3443 83.2207C70.4944 83.365 70.6213 83.567 70.7598 83.7401L70.9676 83.9479C71.0715 84.0807 71.1639 84.2654 71.2793 84.4674L71.3832 84.779L71.591 84.9868C71.9199 85.5986 71.8565 87.2204 71.6948 88.0054M65.6577 89.4598C65.6058 89.6849 65.4961 89.8984 65.45 90.0831C65.398 90.2909 65.3345 90.4814 65.2422 90.7122V90.92C65.0864 91.0412 65.0517 91.4972 64.9305 91.7511L64.8266 91.855C64.8266 91.907 64.2726 92.64 64.0994 92.79C63.8051 93.044 63.3376 93.2979 63.1644 93.3152C63.0201 93.3268 62.6796 93.1883 62.4372 93.1017C62.2236 93.0324 61.9581 92.9863 61.8139 92.8939L61.71 92.6861L61.2944 92.4784L61.1905 92.1667L60.9827 91.9589C60.7577 91.6357 60.5556 91.2432 60.3594 90.8161C60.2786 90.6488 60.2324 90.3833 60.1516 90.1928L60.0477 90.0889V89.8811L59.84 89.6734C59.7534 89.3963 59.7996 89.1077 59.7361 88.8422L59.6322 88.7384C59.6091 88.3574 59.4937 87.7976 59.5283 87.1742C59.5456 86.8626 59.5456 86.649 59.6322 86.2392L59.7361 86.0315C59.8284 85.4832 59.7938 85.0214 59.9439 84.5713L60.0477 84.4674C60.0477 84.3231 60.192 84.1211 60.2555 83.9479C60.4806 83.3592 60.5095 83.1514 60.775 82.7994C60.8846 82.6551 61.0982 82.3492 61.2944 82.176L61.5022 81.9683H61.71V81.8644C61.9235 81.7259 62.1832 81.6162 62.4372 81.5527L62.5411 81.4488C63.0144 81.3796 63.7704 81.4373 64.1052 81.6624L64.4169 81.7663V81.8701C64.6131 81.9856 65.0229 82.0837 65.0402 82.3896L65.248 82.5974V82.8051H65.3461C65.4788 83.0822 65.4557 83.3938 65.5539 83.7401L65.6577 83.844V84.1557C65.7732 84.2538 65.7097 84.3 65.7616 84.4674C66.1541 85.7602 65.9636 88.0919 65.6577 89.4656M56.7118 92.6861C56.5155 92.7958 56.5213 92.8766 56.2962 92.8939C56.0653 92.9112 56.0365 92.8131 55.8806 92.79C55.7248 92.7727 55.5632 92.7381 55.3612 92.6861C55.2227 92.6515 54.9168 92.5649 54.7379 92.4784L54.634 92.3745C54.3396 92.3572 53.8894 92.0109 53.5893 91.9589H53.3815L53.2777 91.7511H53.0699L52.966 91.5434H52.7582C52.5678 91.3991 52.36 91.0585 52.1349 90.8161L51.8232 90.5045C51.6385 90.2851 51.5 90.1178 51.3038 89.7772L51.1999 89.6734C51.1999 89.5233 51.0036 89.4483 50.9921 89.2578C50.9806 89.1077 50.7959 89.0327 50.7843 88.8422C50.7785 88.6749 50.7035 88.6633 50.6804 88.5306C50.5939 87.9534 50.7785 87.1569 50.8882 86.6548V86.447L50.9921 86.3431C51.0498 86.118 51.0325 85.8583 51.096 85.7198L51.1999 85.6159L51.6154 85.0965C51.9213 84.7386 52.2503 84.4154 52.6543 84.0576L52.966 83.844L53.1738 83.5324H53.3815C53.6066 83.2611 54.028 83.0533 54.4204 82.8051L54.7379 82.5974C54.8071 82.5281 55.0495 82.4819 55.2573 82.3896C55.6152 82.228 55.9268 82.1068 56.2962 81.974H56.504C56.7579 82.2049 56.706 82.4242 56.6079 82.7013L56.4001 82.8051V83.0129L56.1923 83.1168C56.1 83.3188 56.1115 83.44 55.9845 83.6363L55.8806 83.7401L55.6729 84.1557L55.569 84.4674L55.4651 84.5713C55.2804 85.0445 55.1592 85.6679 55.0495 86.2335C54.9341 86.8164 54.8071 87.4224 54.8418 88.0054C54.8822 88.6864 55.1361 89.3732 55.3612 89.985C55.442 90.2043 55.4766 90.4237 55.569 90.6084L55.7768 90.8161L55.8806 91.1278L56.1923 91.6472L56.4001 91.855L56.504 92.1667C56.5559 92.2648 56.8387 92.3052 56.7118 92.6919M75.2386 90.6026C75.4406 90.3486 75.6542 90.0312 75.7581 89.8754C75.9312 89.6099 76.0062 89.2982 76.0697 89.0442L76.1736 88.9404C76.3121 88.444 76.3179 87.6302 76.2775 86.9665C76.2429 86.447 76.1505 85.9622 76.0697 85.6159C75.9947 85.2927 75.9254 85.1484 75.8619 85.0965V84.8887L75.6542 84.6809C75.5503 84.4789 75.5503 84.3173 75.4464 84.1615H75.3425V83.9537L75.1347 83.7459C74.7365 83.3015 74.3209 82.9783 73.8823 82.6031L73.7784 82.3954L73.4667 82.2915L73.0512 81.8759L72.7395 81.772L72.5317 81.6681L72.1162 81.4546C71.9315 81.3738 71.8161 81.3045 71.5967 81.2468C71.3486 81.1833 71.1004 80.9871 70.9734 80.9351C70.7656 80.8486 70.5059 80.7793 70.3501 80.7274C69.9634 80.5888 69.34 80.3811 69.1034 80.3118L68.6878 80.2079C68.2723 80.104 67.926 80.0636 67.649 80.0001C66.9737 79.8385 66.2349 79.8616 65.4615 79.7924C64.8555 79.7404 64.2841 79.6308 63.6954 79.5846C63.3664 79.5615 63.0663 79.6019 62.7604 79.5846C61.8658 79.5384 60.7923 79.4288 59.8457 79.4807L59.7419 79.5846H59.5341C58.7722 79.55 58.2816 79.6654 57.7622 79.7924C56.833 80.029 55.8864 80.1502 55.0553 80.4157L54.9514 80.5196C54.7321 80.6062 54.507 80.6581 54.3281 80.7274C53.9876 80.8601 53.5489 81.0448 53.3931 81.1429C53.1507 81.2988 52.7813 81.4834 52.6659 81.5585C52.4408 81.7028 52.3773 81.7143 52.2503 81.8701H52.0425L51.7309 82.1818C51.2691 82.557 50.7439 83.1341 50.3803 83.4285V83.642L50.1725 83.7459L49.9648 84.0576V84.2654L49.757 84.4731L49.5492 84.7848C49.4107 84.9868 49.353 85.2119 49.2375 85.512C49.1683 85.6909 49.0355 85.9391 49.0298 86.0372L48.9259 86.1411C48.8566 86.372 48.8912 86.6779 48.822 86.9722L48.7181 87.0761C48.5738 87.636 48.4872 89.9273 48.822 90.1986L48.9259 90.5102L49.0298 90.7238V90.9316H49.1336V91.1393H49.2375V91.3471L49.4453 91.5607L49.6531 91.7684V91.9762L50.0686 92.2879C50.3053 92.5245 50.6631 92.8535 50.7959 93.0151H51.0036L51.2114 93.2229C51.5404 93.4307 51.7366 93.5115 52.0483 93.6385L52.1522 93.7423H52.2561L52.36 93.8462C52.7698 94.0021 53.4219 94.0713 53.6066 94.2618H54.0222V94.3657L54.4377 94.4696H54.7552L54.8591 94.5734C55.2804 94.6427 55.696 94.4984 56.0019 94.5734L56.1057 94.6773C56.5213 94.7235 57.0234 94.7351 57.4621 94.7812V94.8851H58.0854C58.4952 94.8967 58.8703 94.9486 59.0204 94.989C59.459 95.0929 59.6957 95.0698 60.0593 95.0929C61.8658 95.2083 64.2379 95.064 65.6808 94.989L65.7847 94.8851C66.1022 94.8447 66.4946 94.9313 66.8236 94.8851L66.9275 94.7812H67.2392C67.9837 94.6427 68.8437 94.533 69.4266 94.3657C69.7036 94.2849 69.8191 94.2098 69.9461 94.1579H70.0499L70.1538 94.054C70.4366 93.9559 70.7252 93.9386 70.9849 93.8462C71.1927 93.777 71.3543 93.6962 71.4005 93.6385H71.6083V93.5346L71.9199 93.4307L72.1277 93.3268C72.7106 92.9632 73.1493 92.5649 73.5879 92.1782C74.1997 91.6415 74.7538 91.2432 75.2559 90.6199" fill="#12100B"/>
        <path d="M86.597 87.6995C86.7644 87.5552 87.0472 87.8495 87.0876 87.8899C87.128 87.9361 87.3127 88.1496 87.5089 88.3517C87.6821 88.5248 88.138 88.8826 88.0341 89.0038C87.9302 89.1251 87.5435 89.0789 87.2607 89.0904C87.2319 89.0904 85.9044 89.177 85.6793 89.0038C85.4542 88.8307 86.3142 88.1554 86.5912 87.6937M89.6329 83.9421H89.7367L89.9445 83.7344H90.2562C91.0873 84.5366 91.953 85.4081 92.7553 86.3374C93.0439 86.6663 93.3613 86.9896 93.6903 87.3762C93.8404 87.5494 93.9558 87.7225 94.1059 87.8957C94.3483 88.1785 94.5618 88.4036 94.8331 88.7268L95.0409 88.8307V89.0385C95.2082 89.2232 95.3987 89.3675 95.5661 89.5637L95.7738 89.6618C95.8373 89.8061 95.8431 89.9158 95.9816 90.0774C96.1317 90.2563 96.3452 90.4121 96.5011 90.5968L96.7088 90.9085C96.8589 91.1105 97.159 91.3933 97.3322 91.7396L97.4303 91.8435C97.4418 92.0166 97.5919 92.0628 97.4303 92.3629C97.2514 92.4322 97.2918 92.5649 97.0147 92.5707C96.9282 92.5707 96.7723 92.4668 96.5992 92.4668C96.2356 92.4668 95.7969 92.5014 95.4506 92.4668L95.3467 92.3629C95.1447 92.3514 95.0582 92.3398 94.9312 92.259C94.7927 92.1667 94.5099 92.0109 94.3079 91.8435L94.1001 91.6357C93.6557 91.2779 93.217 90.8969 92.7438 90.4929C92.0223 89.8754 91.4047 89.1193 90.666 88.4094L90.2504 87.9938L89.731 87.6821C89.5232 87.4917 89.1884 87.1512 88.8999 86.851C88.5363 86.4701 88.1842 86.0834 88.1726 85.916C88.138 85.512 89.0326 84.4616 89.6329 83.9364M87.4454 90.9142L87.7571 90.8104C88.5132 90.77 89.2288 90.8565 89.4193 90.9142C89.5867 90.9662 89.6386 90.9027 89.731 91.0181H89.9388V91.122H90.1465L90.2504 91.3298L90.5621 91.4337C90.8045 91.6357 91.145 92.0628 91.1854 92.2706C90.8276 92.8477 90.0542 92.8304 90.2504 93.8289L90.4582 94.2445C90.6717 94.4926 90.816 94.5273 91.0815 94.5619C91.3297 94.5908 91.3355 94.6369 91.601 94.6658L91.9126 94.7697C92.2878 94.8158 92.7207 94.7408 93.1593 94.7697C93.3382 94.7754 93.5287 94.8562 93.6788 94.8678C93.9385 94.8909 94.1578 94.8678 94.406 94.8678C96.1086 94.914 98.1864 94.9948 99.7159 94.8678C100.004 94.8447 100.195 94.7754 100.443 94.7697C101.459 94.7235 102.527 94.8562 103.358 94.7697C103.664 94.735 104.16 94.5792 104.397 94.5619C105.239 94.4926 106.411 94.6138 106.896 94.5619C107.271 94.0598 107.738 93.8808 107.519 93.1017C107.45 92.8708 107.184 92.663 106.994 92.5765C106.694 92.4495 106.44 92.5361 106.059 92.4726C105.176 92.3283 104.454 92.259 104.287 92.057H104.079L103.871 91.8492C103.271 91.3991 102.717 90.7122 102.209 90.2851C102.042 90.1408 101.938 90.0023 101.794 89.8696C100.38 88.571 98.8905 87.0704 97.6323 85.8064C96.4895 84.6694 94.9485 82.9667 93.6788 81.7489L93.2632 81.3334L92.7438 81.0217C92.4436 80.7678 92.2128 80.4445 91.9126 80.1848C91.6356 79.954 91.4221 79.775 91.1854 79.6654L91.0815 79.5615C90.7295 79.4749 90.5852 79.6654 90.4582 79.7693C90.1812 79.9886 89.9618 80.2945 89.731 80.6004C89.2923 81.1949 88.9287 81.7547 88.4843 82.2626C88.2708 82.5108 87.9822 82.7243 87.7571 82.9898L87.6532 83.1976C87.4916 83.4573 87.3127 83.6132 87.1338 83.8209C86.9202 84.0633 86.6143 84.3058 86.4065 84.5482L86.0949 84.9637C85.8409 85.2812 85.6851 85.5582 85.4715 85.7948L85.056 86.2104L84.9521 86.4182C84.7847 86.6837 84.5827 86.8453 84.4326 87.0415C83.7689 87.8842 83.0705 88.7903 82.453 89.5406L82.2452 89.6387L82.1471 89.9562L81.9393 90.06L81.8354 90.3775C81.5411 90.718 81.0967 90.995 80.9004 91.2086L80.7965 91.5203L80.5888 91.6242L80.4849 91.9358L80.2771 92.0397L80.0693 92.2475C79.8731 92.3918 79.6826 92.513 79.5499 92.5591C79.1805 92.6919 78.3898 92.6515 77.6799 92.7669C77.5125 92.7958 77.322 92.7323 77.1604 92.7669L77.0565 92.8708L76.641 92.9747L76.5371 93.1825C76.4447 93.2921 76.3466 93.3556 76.3293 93.598C76.3062 93.9443 76.439 93.979 76.5371 94.1175L76.7449 94.3253L76.9526 94.533C77.2816 94.7235 77.8876 94.8043 78.309 94.8447C79.3883 94.9428 80.7965 94.8505 81.9509 94.8447C82.6319 94.8447 83.2668 94.9371 83.7227 94.7466L84.2422 94.331C84.6924 93.6846 84.3403 93.194 83.8266 92.8766C83.5438 92.6746 82.8628 92.8708 82.8916 92.3514C82.8224 92.109 83.1052 91.8377 83.3072 91.6242C83.4861 91.4337 83.7401 91.1855 84.0344 91.1047C84.3403 91.0239 84.854 91.1509 85.385 91.1047C85.7139 91.0759 86.0545 90.9373 86.4238 90.8969C86.7182 90.8681 87.2665 90.92 87.4627 90.8969" fill="#12100B"/>
        <path d="M27.3861 91.6474C27.213 91.4397 26.5377 91.3069 26.1394 91.128L25.9317 90.9202C25.7297 90.8105 25.5854 90.8336 25.3083 90.7124L25.2044 90.6085L24.8928 90.4008C24.6561 90.2565 24.229 89.8582 23.9578 89.5697L23.75 89.3561V89.1541H23.7269H23.6461V88.9463H23.623H23.5422V88.7385C23.3691 88.6 23.2825 88.0979 23.3344 87.5958C23.3691 87.261 23.4268 86.6088 23.5422 86.1413L23.6461 86.0374L23.8539 85.7258L23.9578 85.4141C24.0617 85.2698 24.3676 85.0851 24.5811 84.8947L24.8928 84.583C25.4526 84.1386 26.2606 83.7057 26.9763 83.3363L27.1841 83.2324C27.3111 83.1516 27.6747 83.0766 27.9113 82.9208C28.0094 82.8573 28.4943 82.6264 28.7424 82.6091C28.956 82.5918 29.0772 82.4648 29.2619 82.4013H29.3715H29.5331H29.5678L29.6717 82.2917H29.7929C30.1161 82.2917 30.1738 82.3436 30.4797 82.5052C30.6817 82.8746 30.22 82.99 30.0641 83.2324V83.4402L29.8564 83.5441L29.7525 83.9597L29.6486 84.0635C29.6428 84.2136 29.4523 84.2886 29.4408 84.4791L29.3369 84.6869C29.2503 84.8831 29.2215 85.0736 29.1291 85.3102C28.8867 85.922 28.8463 87.6304 28.9214 88.6404C28.9733 89.3215 29.158 89.9564 29.3369 90.5104L29.4408 91.0356L29.5447 91.1395C29.5562 91.3358 30.0064 91.7513 29.7525 92.0745C29.5562 92.0514 29.637 92.3227 29.3831 92.2881H29.2561L28.9444 92.1784L28.6328 92.0745L28.3211 91.9706C28.1999 91.9418 27.8421 91.7513 27.5939 91.659H27.4842H27.3803M28.2172 94.9776C28.4654 94.995 28.4712 95.07 28.7367 95.0815L28.8406 95.1854C29.1522 95.2605 29.4639 95.2316 29.7756 95.2893L29.8794 95.3932H30.1911C30.774 95.4971 31.4955 95.4394 32.1708 95.4971C32.644 95.5375 33.0654 95.7049 33.5213 95.7049C33.8734 95.7049 34.3005 95.6472 34.6641 95.601L35.1835 95.4971C35.8588 95.4567 36.3436 95.3874 36.9554 95.2893C38.1444 95.1046 39.166 94.9372 40.1818 94.5621C40.5107 94.4409 40.8051 94.2735 41.1168 94.1465C41.4804 93.9965 41.7863 93.8176 42.1556 93.8349C42.6982 93.8522 43.0098 94.1696 43.4023 94.3543L43.6101 94.5621L43.9218 94.666C44.1526 94.741 44.3777 94.7987 44.7529 94.7699C45.1338 94.4928 45.0761 93.9965 45.1684 93.5174C45.3531 92.5305 45.3762 91.3993 45.3762 90.2911C45.3762 90.0487 45.5032 89.7947 45.4801 89.5639C45.4512 89.2464 45.3704 89.1772 45.1684 88.9406C44.8452 88.6635 44.2103 89.0444 44.1238 89.1483H43.916L43.7082 89.3561C43.5177 89.4658 43.2984 89.5004 43.1888 89.5697L42.8771 89.8813L42.6693 89.9852L42.3577 90.193L42.2538 90.2969L41.9421 90.4008L41.5265 90.7124C41.313 90.8336 41.186 90.926 41.111 91.0241L40.6954 91.2319L40.4877 91.3358C40.1471 91.4858 39.7835 91.5955 39.6565 91.7513L39.241 91.9591L38.7215 92.1669C38.433 92.2765 38.1906 92.2592 38.0982 92.3804H37.8904C37.3537 92.5305 35.9858 92.5016 35.501 92.3804L35.1893 92.2765H35.0854L34.9815 92.1726L34.566 91.9649L34.2543 91.6532C34.0754 91.4916 33.6656 91.0876 33.631 91.0299L33.4232 90.6143L33.3193 90.4065C33.1866 90.0776 32.9673 89.6562 32.9038 89.3619C32.696 88.398 32.7018 87.7689 32.7999 86.8628C32.8345 86.5338 32.8403 86.2452 32.9038 85.9278C32.9673 85.5873 33.1462 85.1601 33.2154 84.9928C33.3193 84.7273 33.4117 84.4676 33.5271 84.3694V84.1617L33.7349 84.0578V83.85L34.0465 83.5383C34.3236 83.2382 34.6872 82.9381 34.8777 82.7072H35.0854L35.3971 82.3955C35.6972 82.2051 35.9973 82.0204 36.2282 81.98C36.586 81.9165 37.0247 81.9684 37.2729 81.98L37.3768 82.0839C37.8847 82.1358 38.4676 82.0954 38.6234 82.2917H38.8312C39.0621 82.3551 39.316 82.4244 39.5584 82.5052L39.8701 82.6091L39.974 82.713C40.1933 82.7996 40.4646 82.7534 40.5973 82.8169L40.8051 83.0247C41.036 83.1574 41.1745 83.2382 41.3245 83.3363L41.5323 83.4402L41.6362 83.5441L41.9479 83.648L42.1556 83.8558C42.3346 83.977 42.4269 84.0001 42.5712 84.0635L42.6751 84.2713L43.1945 84.583C43.3561 84.7215 43.4369 84.9755 43.6101 85.1024L43.9218 85.2063L44.0256 85.3102L44.3373 85.518L44.649 85.6219L44.8568 85.518C45.2896 85.4083 45.2204 85.0043 45.2723 84.583C45.33 84.127 45.2492 83.573 45.2723 83.1285C45.2954 82.6033 45.3993 82.0146 45.3762 81.4605C45.3473 80.8718 45.4859 80.1966 44.8568 80.11C44.6086 79.8387 44.2161 80.1677 44.1238 80.2139L43.8121 80.3178L43.7082 80.5256L43.3965 80.6294L43.2927 80.7333L42.981 80.8372H42.7732C42.3577 80.8661 41.9075 80.6294 41.4227 80.5256C40.984 80.4274 40.4934 80.3986 40.176 80.3178L40.0721 80.2139C39.6739 80.1388 39.2525 80.1562 38.9293 80.11L38.6177 80.0061C37.2036 79.7983 35.5414 79.6944 33.9369 79.7983L33.6252 79.9022C33.2962 79.9253 32.9961 79.8618 32.6844 79.9022L32.5806 80.0061C32.2747 80.0811 32.1708 80.0754 31.9572 80.11C31.3858 80.2023 30.7798 80.2139 30.1853 80.3235C29.9429 80.3639 29.7294 80.4621 29.4581 80.5313C28.904 80.6641 28.1191 80.843 27.7959 81.0508L27.1726 81.2585L26.5492 81.5702L26.4453 81.6741L25.822 81.8819L25.1987 82.1935C25.1987 82.1935 24.7427 82.511 24.5753 82.6091L23.952 82.9208L23.6403 83.1343L23.1209 83.5499L22.2898 84.2771C22.1224 84.4502 21.7069 84.9697 21.6664 85.0043L21.3548 85.5238C20.9681 86.0259 20.6564 86.4184 20.5179 86.8743C20.4313 87.1687 20.4486 87.3649 20.414 87.8151C20.3794 88.3172 20.3448 88.5769 20.414 88.854V89.2695C20.5583 90.1295 21.2971 90.9144 21.5568 91.457L21.8685 91.7686C22.1282 92.0284 22.359 92.1207 22.5957 92.2881L22.9073 92.5997C23.2306 92.8479 23.6519 93.0961 23.8423 93.3327C23.8654 93.3616 24.3387 93.5867 24.5696 93.6444C24.6504 93.6675 25.4642 94.0311 25.8162 94.1696C25.9836 94.2331 26.076 94.21 26.2318 94.2735C26.4453 94.3543 27.3861 94.7699 27.4842 94.7987L28.2114 95.0065L28.2172 94.9776Z" fill="#12100B"/>
        <path d="M158.812 89.6677C158.794 89.9216 158.719 90.2448 158.708 90.4988C158.679 91.1798 158.858 91.9128 158.5 92.4784C158.234 92.7324 157.675 92.6978 157.149 92.6862C156.532 92.819 156.405 92.4554 156.111 92.2707C155.833 91.0471 156.122 89.7427 156.007 88.3171C155.955 87.6592 155.776 87.3186 155.799 86.5452C155.81 86.0893 155.984 85.5987 156.007 85.085C156.047 84.2712 155.787 83.4921 155.799 82.6898C155.793 82.4878 155.833 82.28 156.318 82.2743C157.092 82.332 158.148 82.1069 158.61 82.482C158.967 83.0419 158.777 83.7749 158.817 84.4559C158.835 84.8022 158.921 85.1485 158.921 85.4948C158.921 85.8411 158.84 86.1816 158.817 86.5395C158.754 87.561 158.881 88.6346 158.817 89.6619M141.947 88.9405C141.918 89.281 141.768 89.6446 141.739 89.9793C141.676 90.747 141.924 91.6127 141.531 92.2649C141.093 92.5766 139.644 92.6343 139.344 92.161C139.159 91.6647 139.246 90.9952 139.24 90.4988C139.24 89.9216 139.194 89.3733 139.24 88.8366C139.263 88.496 139.413 88.1209 139.448 87.7977C139.534 86.9493 139.431 86.1297 139.552 85.2986C139.598 84.9869 139.731 84.681 139.76 84.3578C139.817 83.7749 139.661 83.1573 139.863 82.5917C140.221 82.1819 140.885 82.0838 141.635 82.0722C141.935 82.1473 141.999 82.2685 142.051 82.4878L142.062 82.609C142.097 83.0534 141.964 83.4747 141.947 83.9422C141.872 85.5468 142.097 87.3302 141.947 88.9347M166.095 82.5917C166.28 82.3204 166.696 81.9222 166.615 81.4431C166.551 81.0622 166.205 80.8718 165.784 80.7159L165.16 80.612C164.179 80.4331 161.576 80.4273 161.311 80.4043C159.839 80.3004 158.027 80.4043 156.416 80.4043C155.551 80.4043 154.662 80.3292 153.917 80.4043C153.542 80.4447 153.109 80.4966 152.878 80.612C152.567 80.7736 152.319 80.8198 152.255 81.2411C152.278 81.9049 152.798 82.078 153.19 82.1761C153.531 82.2627 153.808 82.4936 153.917 82.9034C153.842 83.9653 154.639 85.8238 153.71 86.4414C153.121 86.7357 152.624 86.3894 151.938 86.3375C151.303 86.2855 150.454 86.2971 149.652 86.3375C148.706 86.3779 147.58 86.6838 147.153 86.3375C146.87 86.1008 146.911 85.7834 146.841 85.2986C146.795 84.9638 146.732 84.3867 146.737 84.0461C146.737 83.8499 146.807 83.1804 146.841 83.0073C146.899 82.661 146.922 82.3551 147.153 82.1761C147.655 81.9164 148.775 82.2685 149.133 81.8645C149.825 81.599 149.473 80.4908 148.925 80.3061C148.053 80.1157 147.147 80.2023 146.212 80.2023C145.277 80.2023 143.257 80.2946 143.09 80.3061C142.582 80.3408 142.022 80.3869 141.526 80.41C139.344 80.5081 137.185 80.1907 135.177 80.6178C134.975 80.9468 134.865 80.8602 134.865 81.2469C134.865 81.5817 135.085 81.674 135.177 81.7664C135.35 81.9395 135.425 82.0549 135.696 82.078C136.002 82.1011 136.279 82.0607 136.32 82.078C136.418 82.1127 136.88 82.0434 137.047 82.078C137.422 82.1531 137.768 82.078 137.878 82.4936C138.011 82.8976 137.924 83.4401 137.878 84.0519L137.774 84.8888C137.595 86.0662 137.705 87.5437 137.566 88.7385C137.52 89.1251 137.387 89.4426 137.359 89.7773C137.318 90.216 137.266 91.278 137.255 91.3357C137.128 91.8378 137.209 92.2476 136.943 92.4842L136.527 92.692C136.302 92.7439 136.014 92.5593 135.904 92.7959C135.529 92.8825 135.344 93.148 135.275 93.4192C135.206 93.6905 135.2 93.6501 135.275 93.9444C135.304 94.0483 135.898 94.5216 136.418 94.5678C137.255 94.6428 138.045 94.5909 138.813 94.5678C139.332 94.5562 139.869 94.4639 140.273 94.4639C140.723 94.4639 141.243 94.5735 141.624 94.5678C141.935 94.5678 142.253 94.487 142.559 94.4639C144.417 94.3427 146.299 94.5678 147.973 94.4639C148.492 94.435 149.288 94.4293 149.392 94.0022C149.467 93.6559 149.161 93.2807 149.121 93.2172C148.908 92.8767 148.671 92.7901 148.706 92.8017C148.475 92.6631 148.18 92.7613 147.874 92.6978C147.569 92.6343 147.32 92.5766 147.147 92.3861C146.986 91.9128 147.049 91.2433 147.043 90.6142C147.043 89.9332 146.951 89.079 147.13 88.5768C147.17 88.4326 147.476 88.3748 147.667 88.4268C147.765 88.4556 149.41 88.4268 150.062 88.4268C150.408 88.4268 150.766 88.3287 151.101 88.3229C151.84 88.3171 152.555 88.5307 153.288 88.4268C153.513 88.496 153.721 88.496 153.808 88.9462C153.871 89.9851 154.044 91.3761 153.808 92.3803C153.681 92.5939 153.588 92.6112 153.392 92.692C153.173 92.7786 152.497 92.8825 152.457 92.8998C152.111 93.0614 152.042 93.5808 152.042 93.7367C152.042 94.2042 152.388 94.4062 152.561 94.5678C152.861 94.8564 154.212 94.8679 154.333 94.8794C156.474 95.0237 159.083 94.891 160.889 94.7756C161.484 94.7352 162.09 94.8506 162.759 94.8794C163.689 94.9198 164.756 94.9083 165.362 94.8794L165.778 94.7756L166.194 94.4581C166.228 94.435 166.401 94.083 166.401 93.8348C166.401 93.4077 166.049 93.096 165.882 93.0037C165.691 92.8998 165.437 92.8132 165.362 92.7959C164.728 92.6401 164.266 92.9864 163.902 92.5881C163.602 92.2072 163.712 91.7224 163.694 91.2376C163.614 89.3387 163.677 86.9954 163.591 85.4082C163.567 85.0677 163.585 84.7791 163.591 84.4732C163.596 83.8499 163.464 83.2381 163.902 82.811C164.456 82.5628 165.536 82.8456 166.084 82.6032" fill="#12100B"/>
        <path fill-rule="evenodd" clip-rule="evenodd" d="M137.283 128.522C137.866 128.776 138.466 128.88 138.524 129.607C138.293 129.821 138.062 130.034 137.826 130.242C137.485 130.554 137.023 130.813 136.729 131.154C136.492 131.425 136.302 131.685 136.037 131.927C135.713 132.222 135.177 132.487 135.084 132.978L135.234 133.341L135.956 134.299C136.083 134.455 136.7 135.425 136.804 135.661L137.104 136.071C137.139 136.256 137.699 136.989 137.768 137.168C137.785 137.272 139.228 138.201 139.557 139.263C139.523 139.476 139.494 139.69 139.459 139.898C139.292 139.944 139.251 139.979 139.009 139.99H138.062C138.005 139.95 137.416 139.84 137.214 139.719C137.012 139.598 136.908 139.309 136.764 139.124C135.915 138.039 135.032 136.937 134.178 135.852C133.93 135.54 133.37 134.351 132.908 134.299C132.071 134.478 131.639 135.321 131.587 136.037C131.592 137.024 131.483 138.126 131.685 138.992C131.748 139.28 131.679 139.609 131.535 139.719L130.784 140.036C130.184 140.227 129.855 139.909 129.313 139.898C129.151 139.667 129.151 139.309 129.163 138.899C129.359 138.617 129.209 138.264 129.261 137.941C129.382 137.191 129.451 136.285 129.261 135.483V133.659C129.174 133.307 129.365 132.833 129.261 132.383C129.139 131.887 129.186 130.796 129.313 130.288C129.417 129.838 129.266 129.457 129.365 129.059C129.907 128.718 131.373 128.291 131.685 129.105C131.852 129.33 131.604 129.63 131.587 129.971V132.02C131.65 132.077 131.587 132.533 132.083 132.568C132.331 132.331 132.626 132.216 132.931 132.02L133.48 131.61L134.472 130.38C134.703 130.086 135.529 129.544 135.621 129.48C135.829 129.324 136.06 129.226 136.267 129.076L136.614 128.712C136.827 128.649 137.041 128.585 137.26 128.528" fill="#12100B"/>
        <path fill-rule="evenodd" clip-rule="evenodd" d="M101.638 128.603C102.152 128.603 102.66 128.689 103.277 128.695C103.531 129.036 103.82 129.192 103.825 129.786C103.572 129.953 103.421 130.282 103.225 130.513C103.052 130.715 102.706 130.813 102.533 131.01C102.031 131.569 101.009 133.168 100.888 133.33C100.466 133.895 100.091 133.67 100.091 134.738C100.334 135.09 100.039 135.742 100.039 136.152C100.039 137.081 100.143 138.697 99.8431 139.43C99.6988 139.777 99.3525 139.921 99.0928 140.158C98.8965 140.163 98.6079 140.181 98.4925 140.111C97.9731 139.938 97.5979 139.269 97.5056 138.697C97.4709 138.478 97.696 138.166 97.6037 137.832C97.419 137.139 97.494 136.279 97.3093 135.69V134.917C97.217 134.628 96.5879 133.815 96.3513 133.641C96.207 133.543 95.0122 132.32 94.8102 132.048L93.8175 130.727C93.5693 130.155 93.2404 129.653 93.4193 128.909C94.0946 128.689 94.8679 128.643 95.5086 128.863L95.8607 129.319L96.155 129.642C96.3513 130.138 96.2762 130.028 96.3513 130.138C96.7264 130.686 97.1535 131.24 97.546 131.777C97.7653 132.077 97.823 132.574 98.3425 132.597C98.4867 132.395 98.8042 132.251 98.9427 132.054L100.189 130.733C100.547 130.167 100.726 129.567 101.13 129.047C101.274 128.868 101.494 128.822 101.632 128.591" fill="#12100B"/>
        <path fill-rule="evenodd" clip-rule="evenodd" d="M70.6331 129.013C71.2795 129.013 71.6085 128.886 72.1741 128.874C72.4107 129.168 72.6358 129.065 72.6243 129.647C72.9359 130.098 72.9302 130.75 73.1264 131.281C73.363 131.945 73.6401 132.724 73.8709 133.376C74.1364 134.126 74.223 134.865 74.5693 135.517H74.7194C74.8002 134.726 75.2446 134.299 75.6197 133.786C75.8333 133.491 76.1045 132.77 76.2142 132.424C76.2315 132.239 76.5086 131.506 76.5605 131.333C76.5951 131.015 76.624 130.692 76.6644 130.375C76.7971 130.011 77.0569 129.63 77.2589 129.33L77.559 128.736C77.8129 128.609 79.2501 128.822 79.5502 128.828C79.9196 129.405 80.0408 130.121 80.3005 130.825C80.7103 131.95 81.097 133.174 81.5472 134.288C81.7088 134.698 81.8704 135.921 82.3436 135.973C82.5514 135.425 82.9266 134.963 83.1401 134.473C83.2786 134.155 83.2209 133.716 83.3421 133.376C83.6134 132.597 83.8904 131.714 84.1906 130.969C84.2252 130.559 84.2598 130.15 84.2887 129.74L84.4907 129.561C84.6177 129.307 84.5657 129.163 84.7908 129.013C85.3564 128.632 86.4877 128.62 87.2322 128.787L87.5323 129.151C87.5727 130.484 86.453 131.206 86.0086 132.106C85.7374 132.672 85.2583 134.842 85.0621 135.113C84.6177 135.725 84.4734 136.579 84.1444 137.249C83.8673 137.826 83.8096 139.373 83.1978 139.569C82.9093 139.742 82.2282 139.575 81.8531 139.569C81.6337 139.251 81.5587 139.078 81.426 138.922L81.0508 138.38C80.8488 138.155 80.8373 137.808 80.6526 137.56C80.5718 137.503 79.6483 136.158 79.5156 135.702C79.5156 135.494 79.0307 133.826 78.8172 133.335C78.6902 133.041 78.7075 132.747 78.5228 132.516L78.3208 132.47C77.9919 133.087 77.8649 133.768 77.6225 134.478C77.282 135.471 76.8375 136.568 76.4797 137.572C76.2315 138.253 76.1103 138.859 75.8333 139.482C75.1118 139.759 74.2461 139.563 73.9229 139.165C73.6632 138.847 73.7209 138.767 73.5766 138.345C73.3803 137.797 73.0975 137.22 72.9302 136.573C72.7397 135.829 72.0009 133.768 71.9028 133.434C71.9028 133.312 70.2117 130.692 70.5061 129.515C70.5465 129.359 70.6273 129.203 70.6561 129.018" fill="#12100B"/>
        <path fill-rule="evenodd" clip-rule="evenodd" d="M48.2797 128.695C48.903 128.695 49.7861 128.649 50.219 128.874C50.5537 129.047 50.9693 129.711 51.2117 130.011L51.5464 130.386C51.6445 130.45 53.0182 131.881 53.2029 132.164L53.5376 132.62C53.6531 132.747 54.1783 133.278 54.2418 133.48L54.64 134.086C54.7901 134.259 54.8016 134.369 54.9401 134.559L55.1941 134.738C55.3903 134.992 55.3326 135.454 55.7886 135.483L55.8405 135.073C56.0771 133.168 55.6269 132.083 55.8059 129.844C55.8809 129.809 55.9444 129.053 56.2734 128.817C56.6889 128.811 57.4854 128.695 57.7336 128.84C58.0164 128.92 57.9991 129.128 58.2473 129.249C58.2588 129.515 58.305 129.63 58.2646 129.844C58.1549 130.444 58.2703 131.344 58.1376 131.754C57.9644 132.274 57.9875 133.393 57.9183 133.434V134.161C57.8836 134.19 58.0279 135.673 57.9702 136.071C57.8836 136.695 58.1376 138.553 58.0279 138.709L57.2315 139.529H55.8405V139.482C55.4192 139.332 55.0786 138.374 54.7439 138.074C53.9878 137.382 53.3645 136.423 52.7989 135.569C52.5565 135.188 52.1871 135.009 51.9158 134.652C51.6619 134.317 51.4945 133.815 51.2578 133.474C50.8769 132.926 50.496 132.406 50.1093 131.881C49.9419 131.65 49.9996 131.471 49.6129 131.425V131.518C49.5379 131.627 49.5148 131.945 49.5148 132.308C49.5148 132.47 49.5148 132.643 49.5264 132.81C49.5379 133.163 49.6533 133.486 49.6533 133.659C49.6533 134.017 49.6418 134.38 49.6418 134.738C49.6418 135.073 49.561 135.408 49.561 135.742C49.561 135.985 49.6706 136.233 49.6706 136.475C49.6706 136.799 49.561 137.122 49.561 137.451C49.561 137.78 49.6302 138.172 49.6302 138.496C49.6302 138.819 49.561 139.073 49.561 139.396L49.4571 139.442C49.2897 139.563 48.2451 139.656 48.0661 139.621C47.9449 139.442 47.6968 139.275 47.616 139.078C47.5986 138.167 47.5813 137.255 47.5698 136.348C47.5698 135.454 47.6794 134.594 47.4544 133.618C47.3274 133.064 47.5929 132.17 47.5871 131.483V130.842C47.5294 130.658 47.4948 130.063 47.6217 129.752C47.7833 129.336 48.0431 129.036 48.2739 128.707" fill="#12100B"/>
        <path fill-rule="evenodd" clip-rule="evenodd" d="M63.8745 128.667C64.2554 128.62 64.6364 128.568 65.0173 128.574C65.5425 128.574 66.0619 128.77 66.5872 128.776H66.9796C67.2394 128.776 67.5048 128.788 67.7646 128.788C68.0243 128.788 68.5437 128.88 68.5437 128.926C68.8612 129.094 68.815 129.469 68.7919 129.925C68.4802 130.306 68.7804 130.779 67.7934 130.86C67.3894 130.785 66.9161 130.79 66.2062 130.79C64.9827 130.79 63.9784 130.906 62.8241 130.923L62.7721 131.016C62.6682 131.148 62.8125 132.66 62.8241 133.203C63.0665 133.318 63.534 133.399 63.9207 133.393C64.4344 133.393 66.7776 133.122 66.9565 133.168C67.8223 133.382 69.0747 133.203 69.0978 134.155L68.9477 134.657C68.8554 134.819 68.359 135.021 68.1801 135.102C67.8858 135.235 67.2047 134.969 66.5121 135.16C66.0793 135.275 65.4155 135.16 64.9653 135.269C64.6594 135.338 64.0996 135.269 63.8687 135.223C63.4705 135.24 62.8876 135.061 62.674 135.569L62.6278 135.616C62.599 135.91 62.7029 136.204 62.6278 136.527C62.5874 136.706 62.3797 137.047 62.4778 137.295L62.674 137.48C63.003 137.705 63.5686 137.428 64.0707 137.526C64.7114 137.653 65.5771 137.474 66.1601 137.387C66.7545 137.295 68.7746 137.601 68.9477 138.392V139.436L68.7515 139.575C68.3821 139.575 68.007 139.575 67.6318 139.575C67.349 139.575 67.199 139.696 66.9161 139.696C66.7257 139.696 65.6637 139.696 65.3924 139.696C64.8326 139.696 64.2727 139.558 63.7129 139.558C63.3897 139.558 61.9179 139.656 61.4389 139.65C61.1907 139.65 60.8329 139.54 60.5847 139.54C60.4058 139.217 60.4115 138.421 60.4346 137.676C60.4577 137.214 60.3423 136.908 60.3423 136.614C60.3423 135.893 60.4808 135.044 60.4808 134.323V131.61C60.4808 131.154 60.3654 130.808 60.3654 130.346C60.3654 129.925 60.4808 129.4 60.4808 128.978C60.5154 128.944 60.9887 128.678 61.4216 128.678C61.9295 128.678 62.599 128.753 62.8645 128.753C63.1992 128.753 63.534 128.718 63.8745 128.672" fill="#12100B"/>
        <path d="M112.748 137.087C112.027 137.999 110.532 138.259 110.497 138.305C110.192 138.42 108.841 138.201 108.708 138.12C108.304 138.063 107.415 137.682 106.446 136.348C106.319 136.175 106.169 134.282 106.169 133.751C106.169 133.463 106.353 133.151 106.353 132.862C106.567 132.308 106.798 131.829 107.161 131.385C107.525 130.935 108.264 130.86 108.905 130.658C109.314 130.525 109.949 130.756 110.295 130.565L111.692 130.658L113.089 131.57C114.122 132.926 113.764 135.812 112.754 137.093M115.576 132.562C115.409 132.176 114.768 130.987 114.63 130.744C114.439 130.409 113.268 129.625 112.933 129.469C111.704 128.886 110.959 128.626 109.003 128.649C108.824 128.753 108.483 128.684 108.258 128.741C107.796 128.88 107.329 129.013 106.861 129.151C105.43 129.74 104.547 130.946 104.028 132.383C103.612 133.52 103.733 135.333 104.126 136.343C104.882 138.288 105.811 139.177 108.056 139.754C108.616 139.898 111.144 140.042 111.45 139.973C111.617 139.99 112.823 139.477 113.083 139.396L113.683 139.119C113.857 139.032 114.128 138.599 114.209 138.49C114.768 138.016 115.374 136.55 115.588 136.043C115.617 135.968 115.986 135.246 115.975 134.975C115.963 133.947 115.877 133.261 115.576 132.562Z" fill="#12100B"/>
        <path d="M122.196 133.018C121.729 133.018 120.09 133.134 119.807 132.972C119.617 132.747 119.836 132.551 119.761 132.245C119.663 131.852 119.645 131.385 119.859 131.062C120.505 130.923 121.181 130.883 121.804 130.744C122.093 130.681 122.387 130.773 122.595 130.652C123.905 130.652 124.557 131.05 125.186 131.656L124.488 132.932H123.945C123.766 132.978 122.398 133.168 122.202 133.024M127.224 138.934C127.091 138.622 126.623 138.599 126.427 138.345C125.838 137.572 125.359 136.735 124.782 135.979C124.632 135.777 124.569 135.552 124.384 135.39C124.407 134.859 125.198 134.888 125.579 134.657C126.335 134.201 126.502 133.584 126.871 132.747C126.935 132.603 126.825 131.293 126.675 130.929C126.202 129.821 125.55 129.342 124.234 129.019H123.639C123.305 128.949 121.429 129.019 121.198 128.972C120.546 128.84 119.605 128.926 118.86 128.926C118.607 128.926 118.174 128.88 118.012 128.972L117.862 129.019C117.7 129.792 117.816 130.842 117.816 131.702V138.801C117.816 139.032 117.764 139.419 117.862 139.575V139.667C117.949 139.684 117.989 139.886 118.11 139.713L118.214 139.938C118.987 139.938 119.368 139.869 119.801 139.621C119.871 139.344 120.026 138.167 119.951 137.843C119.836 137.347 119.709 136.672 119.853 136.158C119.934 135.869 119.755 135.506 119.853 135.338V135.246C120.142 135.188 121.66 135.113 121.896 135.246C122.15 135.344 121.971 135.39 122.098 135.61C122.208 135.806 123.287 137.422 123.443 137.612C123.599 137.803 124.482 139.765 125.29 140.025C125.579 140.163 127.073 139.783 127.333 139.661C127.333 139.39 127.362 139.078 127.235 138.934" fill="#12100B"/>
    </g>
    <defs>
        <clipPath id="clip0_225_752">
            <rect width="187" height="140.175" fill="white"/>
        </clipPath>
    </defs>
</svg>
