<svg width="187" height="48" viewBox="0 0 187 48" fill="none" xmlns="http://www.w3.org/2000/svg">
    <g clip-path="url(#clip0_235_1446)">
        <path fill-rule="evenodd" clip-rule="evenodd" d="M86.9945 41.8971V8.31626H81.3837V47.2974H103.69V41.8971H102.353H86.9945ZM155.977 20.7696H159.63V0H154.019V20.7696H155.988H155.977ZM160.872 39.6759C163.63 44.8657 168.431 47.7185 174.399 47.7185C182.053 47.7185 187 43.434 187 36.8021C187 30.1701 183.147 27.2963 177.368 24.454L176.863 24.2119L175.757 23.6645L174.157 22.875C169.336 20.5169 168.357 19.5274 168.357 17.001C168.357 14.4745 170.431 12.5375 173.399 12.5375C176.368 12.5375 178.358 13.5481 179.842 15.9272L180.747 17.3694L180.852 17.5378L181.031 17.4326L182.505 16.5799L183.768 15.843L185.326 14.9377L185.516 14.8324L185.4 14.6535L184.442 13.1165C181.905 9.03209 178.4 7.13724 173.399 7.13724C167.262 7.13724 162.799 11.2848 162.799 17.001C162.799 22.7171 166.652 25.2962 171.694 27.77L174.968 29.349C179.863 31.6965 181.442 33.5072 181.442 36.7915C181.442 40.2654 178.873 42.255 174.399 42.255C170.61 42.255 167.536 40.4023 165.767 37.0337L164.925 35.4441L164.83 35.2546L164.641 35.3599L163.073 36.2336L161.651 37.0231L160.146 37.8548L159.967 37.9495L160.062 38.1285L160.872 39.6549V39.6759ZM109.185 47.2974H112.838V7.56885H107.227V47.2974H109.196H109.185ZM37.0759 27.3805C37.0759 16.1272 46.2028 7.00039 57.456 7.00039C68.7093 7.00039 77.8361 16.1272 77.8361 27.3805C77.8361 38.6338 68.7093 47.7606 57.456 47.7606C46.2028 47.7606 37.0759 38.6338 37.0759 27.3805ZM42.6552 27.3805C42.6552 19.2011 49.2871 12.5797 57.456 12.5797C65.6249 12.5797 72.2569 19.2116 72.2569 27.3805C72.2569 35.5494 65.6249 42.1813 57.456 42.1813C49.2871 42.1813 42.6552 35.5494 42.6552 27.3805ZM5.67416 27.57C5.60047 19.1169 11.685 12.6849 19.8434 12.6112C24.3068 12.5691 28.2649 14.3903 30.9914 17.7273L32.0651 19.0432L32.1914 19.2011L32.3493 19.0748L33.6968 18.0431L34.9495 17.0852L36.4022 15.9693L36.5812 15.8325L36.4443 15.664L35.2653 14.2534C31.3914 9.61107 25.8964 7.08461 19.7907 7.13724C8.46379 7.26357 -0.041952 16.0535 0.000155656 27.6121C0.158059 39.1706 8.82171 47.8132 20.1487 47.7079C26.2543 47.6553 31.7072 45.0341 35.4969 40.3286L36.6443 38.8969L36.7812 38.7285L36.6022 38.6022L35.1284 37.5179L33.8547 36.581L32.4862 35.5704L32.3283 35.4546L32.202 35.6125L31.1493 36.9494C28.4754 40.3391 24.5489 42.2234 20.096 42.255C11.9377 42.3287 5.74785 36.0231 5.67416 27.57ZM144.808 36.0441L123.628 7.90571L123.302 7.46358L123.06 7.29515H119.544V8.63206V45.3289V47.2869H124.997V18.8326L146.577 47.4027L146.829 47.5816H147.651H147.861H150.261V46.2342V9.53738V7.56885H144.808V36.0547V36.0441Z" fill="#1D1D1B"/>
    </g>
    <defs>
        <clipPath id="clip0_235_1446">
            <rect width="187" height="47.7606" fill="white"/>
        </clipPath>
    </defs>
</svg>
