<svg width="187" height="19 0" viewBox="0 0 187 187" fill="none" xmlns="http://www.w3.org/2000/svg">
    <g clip-path="url(#clip0_235_1448)">
        <path fill-rule="evenodd" clip-rule="evenodd" d="M0 0H187V187H0V0Z" fill="white"/>
        <path fill-rule="evenodd" clip-rule="evenodd" d="M8.69245 89.9106L14.1833 95.3432C15.5124 96.7305 15.5124 98.9036 14.1833 100.291C12.796 101.62 10.5648 101.62 9.23571 100.291L3.74484 94.8C2.41578 93.4709 2.41578 91.2396 3.74484 89.9106C5.13211 88.5233 7.36338 88.5233 8.69245 89.9106Z" fill="#1D1D1B"/>
        <path fill-rule="evenodd" clip-rule="evenodd" d="M14.2502 84.352L19.741 89.7846C21.0701 91.1719 21.0701 93.345 19.741 94.7322C18.3538 96.0613 16.1807 96.0613 14.7934 94.7322L9.36076 89.2414C7.9735 87.9123 7.9735 85.681 9.36076 84.352C10.6898 82.9647 12.9211 82.9647 14.2502 84.352Z" fill="#1D1D1B"/>
        <path fill-rule="evenodd" clip-rule="evenodd" d="M30.4327 90.0271L35.9235 95.5179C37.2526 96.847 37.2526 99.0783 35.9235 100.407C34.5363 101.795 32.305 101.795 30.9759 100.407L25.4851 94.9747C24.156 93.5874 24.156 91.4143 25.4851 90.0271C26.8723 88.698 29.1036 88.698 30.4327 90.0271Z" fill="#1D1D1B"/>
        <path fill-rule="evenodd" clip-rule="evenodd" d="M20.2846 84.2937L25.7173 78.8611C27.1045 77.532 29.2776 77.532 30.6649 78.8611C31.9939 80.1901 31.9939 82.4214 30.6649 83.8087L25.174 89.2413C23.8449 90.6286 21.6137 90.6286 20.2846 89.2413C18.8973 87.9123 18.8973 85.681 20.2846 84.2937Z" fill="#1D1D1B"/>
        <path fill-rule="evenodd" clip-rule="evenodd" d="M35.9826 84.4685L41.4735 89.9011C42.8025 91.2884 42.8025 93.5197 41.4735 94.8487C40.0862 96.236 37.9131 96.236 36.5259 94.8487L31.0932 89.4161C29.7059 88.0288 29.7059 85.7975 31.0932 84.4685C32.4222 83.1394 34.6535 83.1394 35.9826 84.4685Z" fill="#1D1D1B"/>
        <path fill-rule="evenodd" clip-rule="evenodd" d="M14.6687 78.7348L20.1595 73.3022C21.4886 71.9149 23.7199 71.9149 25.1071 73.3022C26.4362 74.6312 26.4362 76.8625 25.1071 78.1916L19.6163 83.6824C18.2872 85.0115 16.0559 85.0115 14.6687 83.6824C13.3396 82.2952 13.3396 80.1221 14.6687 78.7348Z" fill="#1D1D1B"/>
        <path fill-rule="evenodd" clip-rule="evenodd" d="M20.226 106.267L25.6587 100.776C27.0459 99.447 29.219 99.447 30.6063 100.776C31.9353 102.163 31.9353 104.336 30.6063 105.724L25.1154 111.156C23.7863 112.544 21.5551 112.544 20.226 111.156C18.8387 109.827 18.8387 107.596 20.226 106.267Z" fill="#1D1D1B"/>
        <path fill-rule="evenodd" clip-rule="evenodd" d="M14.6674 100.708L20.1001 95.2175C21.4873 93.8884 23.6604 93.8884 25.0477 95.2175C26.3767 96.6048 26.3767 98.7778 25.0477 100.165L19.5568 105.598C18.2277 106.985 15.9965 106.985 14.6674 105.598C13.2801 104.269 13.2801 102.037 14.6674 100.708Z" fill="#1D1D1B"/>
        <path fill-rule="evenodd" clip-rule="evenodd" d="M181.655 111.098C181.597 110.981 181.471 110.913 181.354 110.913C181.655 110.855 181.898 110.797 182.082 110.613C182.266 110.428 182.325 110.186 182.325 109.953C182.325 109.769 182.325 109.594 182.208 109.468C182.092 109.284 181.966 109.167 181.781 109.109C181.597 109.051 181.296 109.051 180.879 109.051H179.734V112.427H180.278V110.981H180.637C180.821 110.981 180.937 111.04 181.063 111.098C181.18 111.214 181.364 111.457 181.607 111.884L181.907 112.427H182.567L182.14 111.767C181.956 111.466 181.781 111.224 181.655 111.107V111.098ZM180.928 110.487H180.268V109.458H180.928C181.17 109.458 181.354 109.516 181.471 109.516C181.529 109.575 181.655 109.633 181.655 109.701C181.713 109.759 181.772 109.885 181.772 110.001C181.772 110.118 181.713 110.244 181.587 110.36C181.471 110.419 181.228 110.477 180.928 110.477V110.487Z" fill="#1D1D1B"/>
        <path fill-rule="evenodd" clip-rule="evenodd" d="M183.828 109.1C183.528 108.557 183.169 108.198 182.684 107.955C182.14 107.654 181.655 107.528 181.112 107.528C180.569 107.528 180.084 107.645 179.54 107.955C179.055 108.198 178.696 108.557 178.396 109.1C178.095 109.585 177.969 110.128 177.969 110.672C177.969 111.215 178.085 111.758 178.396 112.243C178.638 112.728 179.055 113.145 179.54 113.388C180.025 113.689 180.569 113.815 181.112 113.815C181.655 113.815 182.198 113.689 182.684 113.388C183.169 113.145 183.586 112.728 183.828 112.243C184.129 111.758 184.255 111.215 184.255 110.672C184.255 110.128 184.139 109.585 183.828 109.1ZM183.401 111.942C183.159 112.369 182.858 112.728 182.431 112.971C182.004 113.155 181.587 113.271 181.102 113.271C180.675 113.271 180.2 113.155 179.773 112.971C179.414 112.728 179.046 112.369 178.803 111.942C178.619 111.583 178.502 111.098 178.502 110.672C178.502 110.186 178.619 109.769 178.803 109.342C179.046 108.916 179.405 108.615 179.831 108.372C180.258 108.13 180.675 108.013 181.102 108.013C181.529 108.013 181.946 108.13 182.373 108.372C182.8 108.615 183.159 108.916 183.401 109.342C183.644 109.769 183.702 110.186 183.702 110.672C183.702 111.098 183.644 111.574 183.401 111.942Z" fill="#1D1D1B"/>
        <path fill-rule="evenodd" clip-rule="evenodd" d="M68.5785 80.5492C68.3359 78.4925 68.2777 76.5038 68.2777 74.515C64.9017 73.9718 63.5047 72.7009 59.3429 72.7009C51.9215 72.7009 45.4023 77.406 45.4023 85.4386C45.4023 94.4898 51.3783 98.962 59.5273 98.962C62.7869 98.962 65.6875 98.2344 67.7345 97.3322C67.9188 95.3435 68.1613 93.4129 68.6367 91.4727L67.6084 91.3563C66.7061 94.9166 64.1644 97.3322 60.3034 97.3322C53.4834 97.3322 50.3985 91.2399 50.3985 85.2639C50.3985 78.9291 53.4737 74.2725 59.3915 74.2725C64.8241 74.2725 66.4539 77.1732 67.4822 80.6753L68.5688 80.5589L68.5785 80.5492ZM77.3968 82.9648C80.899 82.9648 81.8012 88.3392 81.8012 90.9294C81.8012 94.189 81.0736 97.6329 77.6976 97.6329C74.3216 97.6329 73.2932 93.4032 73.2932 90.3862C73.2932 87.3691 73.594 82.9648 77.3968 82.9648ZM68.8792 90.2697C68.8792 95.2756 72.3813 98.962 77.5133 98.962C82.3445 98.962 86.1473 94.9748 86.1473 90.0854C86.1473 85.196 82.7034 81.6939 77.5133 81.6939C72.3231 81.6939 68.8792 85.4386 68.8792 90.2697ZM88.0778 96.1875V75.7859C88.0778 75.0001 87.9614 74.6411 87.1077 74.3404C86.7488 74.1561 86.3219 73.9815 85.963 73.8553V73.0113C87.5346 72.5845 89.9502 71.6823 91.6964 70.8965L92.1232 71.1972V96.1875C92.1232 97.2158 92.9672 97.3322 93.9956 97.3322H94.3545V98.4187C92.9672 98.3023 91.6382 98.2344 90.2509 98.2344C88.7375 98.2344 87.2921 98.2926 85.963 98.4187V97.3322C87.1077 97.3322 88.0778 97.3322 88.0778 96.1875ZM95.6836 94.7323C95.6836 97.1479 96.8865 98.962 100.088 98.962C102.145 98.962 104.192 97.3904 105.763 96.0613V98.6613L106.122 98.962C107.868 98.2344 109.983 97.9337 111.855 97.5747V96.7307H110.769C109.983 96.7307 109.799 96.43 109.799 95.4599V85.1378C109.799 83.9931 109.799 82.9065 109.983 81.8782L109.624 81.6939C107.936 82.3536 104.919 82.5961 103.105 82.7222V83.5662L104.919 84.1677C105.647 84.4102 105.763 84.5266 105.763 85.3124V94.548C104.919 95.2076 103.706 96.0613 102.387 96.0613C100.699 96.0613 99.729 95.2173 99.729 93.1025V85.1378C99.729 83.9931 99.8454 82.9065 99.9133 81.8782L99.5543 81.6939C97.8081 82.2372 95.509 82.5961 93.3941 82.7222V83.5662L94.9075 83.9931C95.5672 84.1774 95.6933 84.4199 95.6933 84.9632V94.742L95.6836 94.7323ZM112.651 98.4187C113.98 98.3023 115.425 98.2344 116.881 98.2344C118.336 98.2344 119.597 98.2926 121.042 98.4187V97.3322H120.616C119.772 97.3322 118.801 97.274 118.801 96.1875V85.6811C119.587 85.0214 120.975 84.352 122.061 84.352C123.875 84.352 124.836 85.2542 124.836 87.3109V96.1875C124.836 97.1576 124.05 97.3322 123.089 97.3322H122.663V98.4187C124.108 98.3023 125.495 98.2344 126.95 98.2344C128.28 98.2344 129.667 98.2926 130.996 98.4187V97.3322H130.511C129.541 97.3322 128.881 97.1479 128.881 96.1875V85.4386C129.725 84.9535 131.054 84.352 132.141 84.352C133.955 84.352 134.915 85.2542 134.915 87.3109V96.2457C134.915 97.1479 134.188 97.3322 133.285 97.3322H132.742V98.4187C134.188 98.3023 135.575 98.2344 137.03 98.2344C138.359 98.2344 139.688 98.2926 141.075 98.4187V97.3322H140.59C139.62 97.3322 138.961 97.1479 138.961 96.2457V86.3408C138.961 83.1976 137.03 81.6939 134.43 81.6939C132.558 81.6939 130.443 83.2073 128.638 84.352C127.911 82.4797 126.349 81.6939 124.351 81.6939C122.352 81.6939 120.305 83.2655 118.801 84.2938V82.0043L118.375 81.7036C117.589 82.0043 116.745 82.4894 115.901 82.7901C114.931 83.0909 113.728 83.5177 112.641 83.8185V84.6625C113.068 84.7789 113.427 84.905 113.912 85.0214C114.698 85.2639 114.756 85.4483 114.756 86.0497V96.2554C114.756 97.3419 113.912 97.3419 112.884 97.3419H112.641V98.4284L112.651 98.4187ZM141.813 95.5763V74.874C141.027 74.515 140.183 74.2725 139.397 73.9718V73.3703C141.454 72.7106 143.501 71.9248 145.431 70.8965L145.858 71.139V83.9931C147.604 82.664 149.001 81.7036 151.291 81.7036C155.753 81.7036 158.111 85.2639 158.111 89.6101C158.111 95.1591 154.007 98.962 149.059 98.962C146.945 98.962 144.956 98.3605 143.869 97.5747C143.384 97.8755 142.725 98.4187 142.298 98.962L141.696 98.6031C141.813 97.5747 141.813 96.6143 141.813 95.586V95.5763ZM145.848 85.1378V95.0427C146.275 95.8867 147.779 97.6426 149.593 97.6426C152.979 97.6426 153.697 94.1405 153.697 91.366C153.697 88.1646 152.183 84.1192 148.807 84.1192C147.604 84.1192 146.692 84.6043 145.848 85.1475V85.1378ZM167.705 84.2938C166.56 84.8371 165.716 85.8654 165.716 87.3109C165.716 87.8542 166.017 88.0967 166.376 88.0967C166.919 88.0967 168.85 87.6698 168.976 86.7094C169.092 84.6528 169.636 84.1095 171.751 84.1095C173.322 84.1095 174.583 84.9535 174.583 87.0684V89.0571L170.121 90.6287C167.521 91.5309 165.231 92.3749 165.231 95.2173C165.231 96.0614 165.474 96.7307 165.833 97.3322H165.775C164.872 97.3322 164.028 97.3322 164.028 96.43V82.0043L163.669 81.7036C162.884 82.0043 161.981 82.4894 161.137 82.7901C160.235 83.0909 159.023 83.5177 157.878 83.8185V84.6625C158.305 84.7789 158.722 84.905 159.149 85.0214C159.935 85.2639 159.993 85.4483 159.993 86.0497V96.2554C159.993 97.3419 159.207 97.3419 158.12 97.3419H157.878V98.4284C159.265 98.312 160.711 98.2441 162.224 98.2441C163.553 98.2441 164.94 98.3023 166.328 98.4284V97.8852C167.055 98.6128 168.084 98.9717 169.17 98.9717C171.46 98.9717 173.089 97.6426 174.719 96.0711C174.836 97.7591 175.689 98.9717 177.435 98.9717C179.182 98.9717 180.152 98.0016 181.238 96.6822L180.753 96.0225C180.511 96.2651 180.026 96.5076 179.725 96.5076C178.697 96.5076 178.638 95.3629 178.638 93.8495V86.4863C178.638 83.3431 176.95 81.7133 173.749 81.7133C170.528 82.4215 167.715 84.3132 167.715 84.3132L167.705 84.2938ZM164.203 74.4568C164.203 73.2539 163.233 72.2255 162.03 72.2255C160.827 72.2255 159.799 73.2539 159.799 74.4568C159.799 75.6598 160.827 76.6299 162.03 76.6299C163.233 76.6299 164.203 75.6598 164.203 74.4568ZM174.583 94.5577C174.156 95.1009 173.138 96.4882 171.44 96.4882C170.053 96.4882 169.267 95.7024 169.267 94.1308C169.267 91.5988 172.585 90.9294 174.583 90.2697V94.5577Z" fill="#1D1D1B"/>
        <path fill-rule="evenodd" clip-rule="evenodd" d="M81.4416 106.266C81.4416 105.665 81.9849 105.296 82.5282 105.296C83.6147 105.296 83.9154 106.024 84.0415 106.926L84.4684 106.868C84.4102 106.266 84.4684 105.723 84.5266 105.122C83.8669 104.879 83.3236 104.695 82.5961 104.695C81.0827 104.695 79.9379 105.597 79.9379 107.052C79.9379 109.584 83.2557 109.342 83.2557 110.913C83.2557 111.641 82.6543 112 81.9849 112C81.0148 112 80.4715 111.156 80.4133 110.253L79.9282 110.37L79.9864 111.214L79.8021 110.971C79.5014 111.214 79.2589 111.272 78.832 111.272C78.3469 111.272 77.9298 111.088 77.9298 110.37V105.907H79.9185V104.937H77.9298V103.249L77.7455 103.133C77.144 103.919 76.3 104.704 75.5142 105.248C75.3978 104.889 74.9709 104.704 74.5441 104.704C73.7001 104.704 72.9725 105.49 72.6718 105.975H72.6135V104.831L72.4292 104.714C71.527 105.141 70.6151 105.558 69.7711 105.684V106.111C69.9554 106.111 70.0718 106.169 70.2562 106.227C70.683 106.286 70.7994 106.412 70.7994 106.955V111.486C70.7994 111.844 70.4405 111.912 69.8972 111.912H69.7129V112.397C70.4405 112.397 71.1002 112.339 71.7695 112.339C72.5553 112.339 73.3411 112.397 74.1269 112.397V111.912H73.8844C73.0986 111.912 72.6135 111.912 72.6135 111.486V107.198C72.6135 106.354 73.1568 106.053 73.5158 106.053C74.059 106.053 74.059 106.713 74.7187 106.713C75.1455 106.713 75.5045 106.412 75.6209 105.927H76.106V110.942C76.106 111.844 76.5328 112.63 77.7358 112.63C78.7059 112.63 79.3656 112.087 79.967 111.301L80.0252 112.203C80.6267 112.388 81.2282 112.63 82.014 112.63C83.3431 112.63 84.7885 111.971 84.7885 110.215C84.7885 107.683 81.4028 108.1 81.4028 106.295L81.4416 106.266Z" fill="#1D1D1B"/>
        <path fill-rule="evenodd" clip-rule="evenodd" d="M65.9876 104.695C63.6981 104.695 62.0586 106.442 62.0586 108.682C62.0586 110.923 63.6302 112.602 65.9876 112.602C68.2188 112.602 69.9748 110.788 69.9748 108.556C69.9748 106.325 68.345 104.695 65.9876 104.695ZM66.104 112C64.4742 112 64.0473 110.07 64.0473 108.682C64.0473 107.295 64.1637 105.306 65.9197 105.306C67.5495 105.306 67.9084 107.78 67.9084 108.925C67.9084 110.438 67.6077 112 66.0943 112H66.104Z" fill="#1D1D1B"/>
        <path fill-rule="evenodd" clip-rule="evenodd" d="M48.8447 103.308C48.8447 101.979 49.5723 101.193 50.9013 101.193C51.9878 101.193 52.7154 102.222 52.8318 103.308L53.2587 103.192C53.2005 102.406 53.1423 101.62 53.1423 100.834C52.599 100.776 51.2118 100.592 50.7267 100.592C48.6118 100.592 47.1082 101.863 47.1082 104.036C47.1082 108.023 51.9393 107.111 51.9393 110.012C51.9393 111.156 51.0371 111.884 49.9506 111.884C48.379 111.884 47.5932 110.681 47.3507 109.284L46.9238 109.342C46.982 110.186 47.1082 111.03 47.1664 111.874C48.0104 112.301 48.9126 112.602 49.8245 112.602C51.9393 112.602 53.8117 111.399 53.8117 109.158C53.8117 105.171 48.8641 106.015 48.8641 103.298L48.8447 103.308Z" fill="#1D1D1B"/>
        <path fill-rule="evenodd" clip-rule="evenodd" d="M97.0702 105.481V104.938C96.6434 104.996 96.2262 104.996 95.7994 104.996C95.3143 104.996 94.8293 104.996 94.3539 104.938V105.481H94.5382C94.9651 105.481 95.2658 105.481 95.2658 105.908C95.2658 106.092 95.2076 106.334 95.1494 106.509L93.8786 109.885L92.4331 106.267C92.3167 106.024 92.2488 105.908 92.2488 105.665C92.2488 105.481 92.6756 105.481 92.9084 105.481H93.0928V104.938C92.4913 104.996 91.8898 104.996 91.3466 104.996C90.619 104.996 89.9011 104.996 89.2317 104.938V105.481H89.416C89.7167 105.481 90.0757 105.481 90.2018 105.782L90.6869 106.81L89.2996 110.011L87.728 106.082C87.6698 105.898 87.6116 105.782 87.6116 105.597C87.6698 105.413 88.0384 105.481 88.2131 105.481H88.3974V104.938C87.7959 104.996 87.1944 104.996 86.6415 104.996C85.9818 104.996 85.3706 104.996 84.7109 104.938V105.481H84.8274C85.487 105.481 85.5549 105.665 85.7975 106.267L88.3295 112.601H88.8145L90.9876 107.654L92.9763 112.601H93.4614L95.877 106.567C96.1195 106.082 96.3038 105.481 96.9635 105.481H97.0799H97.0702Z" fill="#1D1D1B"/>
        <path fill-rule="evenodd" clip-rule="evenodd" d="M58.9834 104.696C58.0133 104.696 57.1111 105.122 56.4514 105.782V104.696L56.2671 104.579C55.4231 105.064 54.5209 105.365 53.609 105.666V105.966C53.7933 106.025 53.9679 106.025 54.1523 106.083C54.3948 106.141 54.5791 106.199 54.5791 106.51V115.26C54.5791 115.619 54.1523 115.619 53.7933 115.619H53.5508V116.104C54.2784 116.104 54.9963 116.046 55.7238 116.046C56.4514 116.046 57.1693 116.104 57.9551 116.104V115.619H57.5962C56.9365 115.619 56.4514 115.619 56.4514 115.076V112.243C56.8104 112.359 57.3536 112.486 57.8969 112.486C60.0118 112.486 61.8841 110.555 61.8841 108.023C61.8841 106.277 60.8558 104.705 58.9834 104.705V104.696ZM58.0812 111.758C57.2372 111.758 56.6358 110.914 56.4514 110.671V106.267C56.8104 106.025 57.2954 105.84 57.7805 105.84C59.4103 105.84 60.07 107.586 60.07 108.983C60.07 110.254 59.6431 111.758 58.0812 111.758Z" fill="#1D1D1B"/>
        <path fill-rule="evenodd" clip-rule="evenodd" d="M123.088 101.319C125.562 101.319 126.348 102.649 126.775 104.278L127.318 104.22C127.202 103.25 127.134 102.348 127.134 101.446C125.62 101.203 124.961 100.602 123.03 100.602C119.654 100.602 116.695 102.775 116.695 106.461C116.695 110.565 119.412 112.621 123.156 112.621C124.67 112.621 125.931 112.321 126.901 111.894C127.017 110.992 127.143 110.08 127.328 109.236L126.843 109.119C126.416 110.807 125.271 111.894 123.525 111.894C120.382 111.894 118.994 109.119 118.994 106.345C118.994 103.57 120.44 101.339 123.098 101.339L123.088 101.319Z" fill="#1D1D1B"/>
        <path fill-rule="evenodd" clip-rule="evenodd" d="M177.542 104.996C177.057 104.996 176.514 104.996 176.029 104.937V105.481H176.213C176.64 105.481 176.999 105.481 176.999 105.84C176.999 106.082 176.941 106.383 176.815 106.742L175.486 110.06L174.04 106.257C173.924 106.072 173.856 105.83 173.856 105.714C173.856 105.471 174.283 105.471 174.583 105.471H174.7V104.928C174.098 104.986 173.497 104.986 172.886 104.986C172.226 104.986 171.615 104.986 170.955 104.928V105.471H171.198C171.557 105.471 171.741 105.714 172.042 106.315L174.515 112.475L173.671 114.532C173.429 114.348 173.186 114.289 172.827 114.289C172.284 114.289 171.925 114.716 171.925 115.133C171.925 115.735 172.352 116.103 172.895 116.103C173.497 116.103 173.924 115.618 174.166 115.017L177.484 106.926C177.969 105.723 178.144 105.481 178.454 105.481H178.755V104.937C178.396 104.996 177.969 104.996 177.552 104.996H177.542Z" fill="#1D1D1B"/>
        <path fill-rule="evenodd" clip-rule="evenodd" d="M131.365 104.695C129.075 104.695 127.445 106.442 127.445 108.682C127.445 110.923 129.075 112.602 131.365 112.602C133.654 112.602 135.352 110.788 135.352 108.556C135.352 106.325 133.78 104.695 131.365 104.695ZM131.481 112C129.851 112 129.424 110.07 129.424 108.682C129.424 107.295 129.609 105.306 131.297 105.306C132.985 105.306 133.285 107.78 133.285 108.925C133.285 110.438 132.985 112 131.471 112H131.481Z" fill="#1D1D1B"/>
        <path fill-rule="evenodd" clip-rule="evenodd" d="M148.205 111.884H148.02C147.535 111.884 147.235 111.826 147.235 111.399V106.868C147.235 105.423 146.391 104.695 145.178 104.695C144.334 104.695 143.364 105.423 142.52 105.898C142.219 105.112 141.492 104.695 140.589 104.695C139.687 104.695 138.717 105.481 138.057 105.898V104.87L137.873 104.686C137.514 104.87 137.087 105.044 136.728 105.171C136.301 105.355 135.7 105.53 135.215 105.656V106.083C135.399 106.141 135.574 106.199 135.816 106.267C136.175 106.325 136.175 106.451 136.175 106.694V111.399C136.175 111.884 135.816 111.884 135.331 111.884H135.215V112.369C135.816 112.311 136.486 112.311 137.145 112.311C137.805 112.311 138.416 112.311 139.076 112.369V111.884H138.833C138.474 111.884 138.048 111.826 138.048 111.341V106.568C138.407 106.267 139.018 105.908 139.493 105.908C140.337 105.908 140.764 106.335 140.764 107.295V111.341C140.764 111.826 140.463 111.884 139.978 111.884H139.794V112.369C140.453 112.311 141.123 112.311 141.783 112.311C142.384 112.311 142.985 112.311 143.597 112.369V111.884H143.412C142.927 111.884 142.627 111.826 142.627 111.341V106.451C142.985 106.209 143.655 105.908 144.14 105.908C144.926 105.908 145.411 106.335 145.411 107.295V111.399C145.411 111.826 145.052 111.884 144.625 111.884H144.382V112.369C145.042 112.311 145.712 112.311 146.371 112.311C146.973 112.311 147.574 112.311 148.185 112.369V111.884H148.205Z" fill="#1D1D1B"/>
        <path fill-rule="evenodd" clip-rule="evenodd" d="M153.095 104.696C152.125 104.696 151.222 105.122 150.563 105.782V104.696L150.378 104.579C149.534 105.064 148.632 105.365 147.72 105.666V105.966C147.905 106.025 148.079 106.025 148.264 106.083C148.506 106.141 148.69 106.199 148.69 106.51V115.26C148.69 115.619 148.331 115.619 147.905 115.619H147.662V116.104C148.39 116.104 149.108 116.046 149.835 116.046C150.621 116.046 151.349 116.104 152.066 116.104V115.619H151.766C151.038 115.619 150.563 115.619 150.563 115.076V112.243C150.922 112.359 151.465 112.486 152.008 112.486C154.123 112.486 155.995 110.555 155.995 108.023C155.995 106.277 154.967 104.705 153.095 104.705V104.696ZM152.251 111.758C151.349 111.758 150.737 110.914 150.563 110.671V106.267C150.922 106.025 151.407 105.84 151.892 105.84C153.522 105.84 154.191 107.586 154.191 108.983C154.191 110.254 153.764 111.758 152.26 111.758H152.251Z" fill="#1D1D1B"/>
        <path fill-rule="evenodd" clip-rule="evenodd" d="M114.639 104.695C113.795 104.695 113.067 105.481 112.766 105.966H112.708V104.821L112.524 104.705C111.622 105.132 110.71 105.549 109.866 105.675V106.102C110.05 106.102 110.166 106.16 110.351 106.218C110.778 106.277 110.894 106.403 110.894 106.946V111.476C110.894 111.777 110.593 111.835 110.166 111.903C110.283 111.787 110.351 111.661 110.467 111.603L110.225 111.302C110.108 111.418 109.924 111.486 109.74 111.486C109.313 111.486 109.254 111.001 109.254 110.283V106.965C109.254 105.52 108.469 104.734 107.023 104.734C106.722 104.734 106.422 104.792 106.053 104.977C105.393 105.336 104.782 105.636 104.239 105.947C103.754 106.189 103.337 106.674 103.337 107.334C103.337 107.577 103.453 107.693 103.637 107.693C103.938 107.693 104.782 107.509 104.84 107.033C104.899 106.131 105.141 105.889 106.111 105.889C106.839 105.889 107.382 106.248 107.382 107.218V108.12L105.393 108.847C104.19 109.274 103.162 109.691 103.162 110.962C103.162 112.049 103.948 112.65 104.908 112.65C105.995 112.65 106.722 112.049 107.44 111.321C107.499 112.107 107.925 112.65 108.711 112.65C109.138 112.65 109.497 112.534 109.798 112.291V112.408C110.457 112.408 111.185 112.35 111.854 112.35C112.64 112.35 113.426 112.408 114.212 112.408V111.923H113.911C113.183 111.923 112.708 111.923 112.708 111.496V107.208C112.708 106.364 113.251 106.063 113.61 106.063C114.154 106.063 114.154 106.723 114.755 106.723C115.298 106.723 115.725 106.364 115.725 105.695C115.725 105.025 115.182 104.724 114.639 104.724V104.695ZM107.402 110.613C107.217 110.856 106.742 111.457 106.014 111.457C105.355 111.457 104.986 111.098 104.986 110.429C104.986 109.284 106.499 108.915 107.402 108.682V110.613Z" fill="#1D1D1B"/>
        <path fill-rule="evenodd" clip-rule="evenodd" d="M102.93 110.254C102.387 110.856 101.727 111.098 100.941 111.098C99.1856 111.098 98.4095 109.468 98.4095 107.78H102.872L103.056 107.596C103.056 105.966 102.154 104.695 100.456 104.695C98.2252 104.695 96.8379 106.752 96.8379 108.799C96.8379 110.671 97.9244 112.602 100.039 112.602C101.427 112.602 102.513 111.7 103.182 110.545L102.94 110.244L102.93 110.254ZM100.156 105.297C100.941 105.297 101.359 106.024 101.359 106.684C101.359 107.286 101.174 107.286 100.33 107.286H98.458C98.6423 106.257 99.1856 105.297 100.146 105.297H100.156Z" fill="#1D1D1B"/>
        <path fill-rule="evenodd" clip-rule="evenodd" d="M170.478 111.399V106.868C170.478 105.297 169.634 104.695 168.421 104.695C167.393 104.695 166.549 105.423 165.821 105.898V104.87L165.637 104.686C165.278 104.87 164.909 105.044 164.55 105.171C164.065 105.355 163.522 105.53 163.037 105.656V106.083C163.221 106.141 163.396 106.199 163.58 106.267C163.939 106.325 164.007 106.451 164.007 106.694V111.399C164.007 111.826 163.706 111.884 163.28 111.884C163.396 111.767 163.464 111.699 163.58 111.583L163.338 111.282C163.221 111.399 163.037 111.467 162.853 111.467C162.426 111.467 162.368 110.982 162.368 110.264V106.946C162.368 105.5 161.582 104.715 160.136 104.715C159.836 104.715 159.535 104.773 159.166 104.957C158.507 105.316 157.895 105.617 157.352 105.927C156.867 106.17 156.45 106.655 156.45 107.315C156.45 107.557 156.634 107.674 156.809 107.674C157.051 107.674 157.895 107.489 157.954 107.014C158.012 106.112 158.254 105.869 159.225 105.869C159.952 105.869 160.495 106.228 160.495 107.198V108.1L158.507 108.828C157.304 109.255 156.275 109.672 156.275 110.943C156.275 112.029 157.061 112.631 158.09 112.631C159.118 112.631 159.845 112.029 160.563 111.302C160.622 112.088 161.048 112.631 161.834 112.631C162.319 112.631 162.678 112.446 163.037 112.146V112.388C163.639 112.33 164.308 112.33 164.968 112.33C165.627 112.33 166.239 112.33 166.898 112.388V111.903H166.597C166.239 111.903 165.812 111.903 165.812 111.476V106.529C166.171 106.286 166.782 105.927 167.325 105.927C168.111 105.927 168.596 106.354 168.596 107.315V111.476C168.596 111.903 168.111 111.903 167.81 111.903H167.626V112.388C168.285 112.33 168.955 112.33 169.615 112.33C170.216 112.33 170.827 112.33 171.429 112.388V111.903H171.244C170.885 111.903 170.459 111.903 170.459 111.418L170.478 111.399ZM160.525 110.613C160.34 110.855 159.923 111.457 159.137 111.457C158.478 111.457 158.109 111.098 158.109 110.429C158.109 109.284 159.622 108.915 160.525 108.682V110.613Z" fill="#1D1D1B"/>
    </g>
    <defs>
        <clipPath id="clip0_235_1448">
            <rect width="187" height="187" fill="white"/>
        </clipPath>
    </defs>
</svg>
