<svg width="187" height="28" viewBox="0 0 187 28" fill="none" xmlns="http://www.w3.org/2000/svg">
    <g clip-path="url(#clip0_225_775)">
        <path d="M24.1517 14.9402C24.2051 14.9402 24.2457 14.9224 24.2788 14.8843C24.3118 14.8487 24.327 14.7928 24.327 14.7217V14.2568C24.327 14.112 24.3448 14.0028 24.3804 13.924C24.4159 13.8478 24.4896 13.8072 24.6014 13.8072C24.6573 13.8072 24.6979 13.8224 24.7259 13.8529C24.7513 13.8834 24.7665 13.9215 24.7741 13.9697C24.7792 14.018 24.7818 14.0841 24.7818 14.1704V14.7192C24.7818 14.7903 24.797 14.8462 24.83 14.8818C24.863 14.9173 24.9037 14.9351 24.957 14.9351C25.0104 14.9351 25.0536 14.9173 25.0866 14.8818C25.1196 14.8462 25.1349 14.7903 25.1349 14.7192V14.2619C25.1349 14.1146 25.1476 14.0129 25.173 13.9545C25.1958 13.9088 25.2263 13.8732 25.267 13.8453C25.3076 13.8173 25.3508 13.8046 25.3965 13.8046C25.4524 13.8046 25.4956 13.8199 25.521 13.8503C25.549 13.8808 25.5667 13.9189 25.5718 13.9621C25.5769 14.0053 25.582 14.0663 25.582 14.14V14.7192C25.582 14.7903 25.5972 14.8462 25.6303 14.8818C25.6633 14.9173 25.7065 14.9376 25.7598 14.9376C25.8132 14.9376 25.8564 14.9199 25.8894 14.8843C25.9224 14.8487 25.9402 14.7928 25.9402 14.7217V14.051C25.9402 13.9189 25.9249 13.8199 25.8945 13.7564C25.8614 13.6878 25.8106 13.637 25.742 13.5988C25.6734 13.5633 25.5921 13.543 25.4982 13.543C25.4169 13.543 25.3432 13.5582 25.2771 13.5938C25.2111 13.6268 25.1476 13.6776 25.0917 13.7487C25.051 13.6801 25.0002 13.6293 24.9393 13.5938C24.8783 13.5582 24.8021 13.543 24.7157 13.543C24.6293 13.543 24.5582 13.5582 24.4896 13.5938C24.421 13.6268 24.3575 13.6776 24.2991 13.7487V13.7157C24.2991 13.6598 24.2838 13.6166 24.2508 13.5861C24.2203 13.5557 24.1797 13.5404 24.134 13.5404C24.0882 13.5404 24.045 13.5557 24.0171 13.5912C23.9866 13.6243 23.9714 13.6751 23.9714 13.7386V14.7192C23.9714 14.7903 23.9866 14.8462 24.0222 14.8818C24.0552 14.9173 24.0984 14.9376 24.1492 14.9376M23.1406 13.1568C23.1279 13.1797 23.1203 13.2076 23.1152 13.2381C23.1127 13.2711 23.1102 13.3143 23.1102 13.3677V13.576H23.0721C23.0187 13.576 22.9806 13.5861 22.9527 13.609C22.9247 13.6319 22.912 13.6598 22.912 13.6979C22.912 13.736 22.9247 13.7614 22.9501 13.7868C22.9755 13.8097 23.0136 13.8224 23.0619 13.8224H23.1076V14.4804C23.1076 14.5871 23.1152 14.6709 23.133 14.7344C23.1508 14.7979 23.1864 14.8487 23.2423 14.8843C23.2982 14.9199 23.3794 14.9376 23.4861 14.9376C23.5979 14.9376 23.6868 14.9224 23.7478 14.8945C23.8088 14.8665 23.8393 14.8233 23.8393 14.7674C23.8393 14.7344 23.8291 14.709 23.8062 14.6861C23.7834 14.6658 23.758 14.6531 23.73 14.6531C23.7097 14.6531 23.6843 14.6582 23.6487 14.6633C23.6157 14.6709 23.5878 14.6734 23.5674 14.6734C23.5319 14.6734 23.5039 14.6658 23.4887 14.648C23.4734 14.6303 23.4633 14.6074 23.4582 14.5769C23.4531 14.549 23.4531 14.5083 23.4531 14.4524V13.8199H23.5166C23.5852 13.8199 23.636 13.8097 23.6741 13.7919C23.7097 13.7741 23.73 13.7411 23.73 13.6954C23.73 13.6598 23.7173 13.6293 23.6919 13.6065C23.6665 13.5836 23.6284 13.5734 23.5801 13.5734H23.4557V13.3372C23.4557 13.2788 23.4531 13.2356 23.4455 13.2051C23.4404 13.1721 23.4252 13.1467 23.3998 13.1238C23.3642 13.0908 23.3236 13.073 23.2804 13.073C23.2499 13.073 23.2219 13.0806 23.1965 13.0958C23.1711 13.1111 23.1508 13.1289 23.1381 13.1517M13.8351 15.1409C14.173 15.1561 14.9707 15.0494 15.146 15.0215C15.4533 14.9758 15.8547 14.9427 15.9462 14.9148C16.1774 14.8487 16.058 14.6099 16.0173 14.427C15.9767 14.2441 15.7963 14.0358 15.5804 14.0917C15.3644 14.1476 15.1561 14.173 14.8741 14.2289C14.5896 14.2848 14.173 14.3432 14.173 14.3432C14.173 14.3432 13.8275 14.4194 13.7436 14.6176C13.6624 14.8081 13.4972 15.1282 13.8326 15.1409M9.69423 6.31801C9.69423 6.31801 9.73741 6.31293 9.74249 6.27229C9.75266 6.23672 9.71709 6.19607 9.72471 6.19607C9.62564 6.14527 9.49607 6.01062 9.49607 5.7515C9.49607 5.55589 9.57737 5.38314 9.70185 5.2739L9.81363 5.22055C9.81363 5.22055 9.94827 5.14942 9.99654 5.25104C10.0194 5.30185 10.0473 5.41109 10.0499 5.49746C10.0499 5.58383 10.0245 5.73372 10.0677 5.70831C10.1363 5.67021 10.1515 5.594 10.1617 5.53811C10.1667 5.5127 10.1921 5.39838 10.1871 5.28915C10.1871 5.26374 10.1998 5.23834 10.2252 5.23834C10.2531 5.23834 10.2658 5.24596 10.276 5.25358C10.2938 5.26882 10.3268 5.30185 10.3471 5.31963C10.4055 5.41363 10.436 5.54319 10.4208 5.7134C10.4055 5.82771 10.3344 5.87852 10.4157 5.93187C10.5021 5.94203 10.5656 5.77691 10.5732 5.74388C10.5935 5.65751 10.6037 5.47206 10.6037 5.37806C10.6037 4.85982 10.2455 4.43811 9.80346 4.43811C9.36143 4.43811 9.00323 4.85982 9.00323 5.37806C9.00323 5.89631 9.25219 6.31801 9.69169 6.31801M10.8831 17.4501C11.1245 17.5009 11.348 17.5898 11.348 17.5898C12.3972 17.7855 14.3 17.9201 15.6159 17.8642C15.8852 17.854 15.8979 17.9353 16.3044 17.8921C16.7083 17.849 16.7667 17.567 16.7388 17.1986C16.7109 16.8303 16.0732 16.9293 16.0732 16.9293C13.0806 17.0691 11.1905 16.5838 11.1905 16.5838C10.7053 16.4568 10.5021 16.7109 10.4767 17.0081C10.4513 17.3053 10.6824 17.4044 10.8806 17.4476M12.852 16.3095C13.6065 16.3527 15.6286 16.3247 15.8319 16.3374C16.0326 16.3527 16.6016 16.4365 16.6804 16.1824C16.7617 15.9284 16.8557 15.4762 16.2891 15.461C15.7226 15.4483 15.3441 15.5753 14.3483 15.56C13.3499 15.5448 12.8774 15.4356 12.8774 15.4356C12.8774 15.4356 12.3998 15.3619 12.2194 15.6261C12.0619 15.8573 12.0975 16.2663 12.852 16.3095ZM3.1679 20.6663C3.38637 20.7628 3.62263 20.6358 3.74203 20.2852C3.84873 19.9677 4.15358 19.3986 4.30601 19.2487C4.53972 19.0176 4.54988 19.0328 4.6515 18.9845C4.78868 18.9185 5.00716 18.982 4.84965 19.2259C4.73279 19.4088 4.6261 19.5917 4.48129 19.8483C4.3746 20.0337 4.27552 20.1557 4.21201 20.3589C4.1485 20.5672 4.07737 20.9203 4.06721 21.1947C4.05958 21.4462 4.42286 21.7028 4.67945 21.5097C4.84457 21.3852 5.01478 21.0499 5.16467 20.7374C5.29931 20.4605 5.40855 20.2115 5.48984 20.0032C5.63464 19.6425 5.7261 19.4545 5.8582 19.3478C6.04873 19.1903 6.04619 19.137 6.24688 19.0861C6.44503 19.0353 6.39423 19.3376 6.39423 19.3376C6.34596 19.4697 6.19353 19.6704 6.11732 19.8C6.02079 19.9626 5.91917 20.1531 5.82517 20.5062C5.73372 20.8594 5.62448 21.4665 5.79469 21.6393C6.01824 21.8628 6.40693 21.5859 6.47806 21.4233C6.74734 20.7908 6.74988 20.4605 6.81594 20.209C6.8642 20.0286 7.01663 19.6882 7.09792 19.5739C7.14619 19.5053 7.32402 19.1903 7.45612 19.1446C7.62633 19.0861 7.73811 19.0633 7.93626 19.1141C8.06836 19.1471 8.06328 19.2157 8.25889 19.2487C8.69584 19.3249 8.97275 19.0023 9.07945 18.7051C9.23949 18.2554 9.40716 18.1233 9.52402 18.0014C9.76536 17.7448 9.98637 17.3815 9.82887 17.1961C9.67136 17.0081 9.36397 17.5441 9.04388 17.6889C8.92194 17.7448 8.73903 17.8845 8.13695 17.849C7.42818 17.7499 6.44503 17.5543 5.56351 17.5924C4.37206 17.6432 3.50069 18.667 3.35589 18.9312C3.19584 19.2182 3.08152 19.3783 2.94434 20.049C2.89099 20.3132 3.01039 20.6028 3.17044 20.6739M10.6545 19.0531C10.7485 19.0531 11.0051 19.0963 11.0051 19.0963C12.4074 19.5764 15.7099 19.4342 15.7099 19.4342C15.7099 19.4342 15.9843 19.4062 16.1291 19.3808C16.7286 19.2818 17.0055 18.8473 16.8963 18.5781C16.7871 18.3088 16.0986 18.5298 16.0986 18.5298C12.2423 18.7432 10.9111 18.1767 10.9111 18.1767C10.9111 18.1767 10.4843 18.042 10.403 18.0573C10.3217 18.07 9.91778 18.0649 9.90508 18.545C9.89238 19.0252 10.558 19.0531 10.652 19.0531M13.0603 4.26536C12.5852 4.26536 12.1991 4.71755 12.1991 5.27644C12.1991 5.83534 12.4658 6.29007 12.9409 6.29007C12.946 6.29007 12.9866 6.28753 12.9917 6.23926C13.0018 6.20115 12.9663 6.15797 12.9714 6.15797C12.8647 6.10462 12.7249 5.95728 12.7249 5.67783C12.7249 5.46697 12.8139 5.28152 12.9485 5.16212L13.0704 5.1037C13.0704 5.1037 13.2178 5.02748 13.2661 5.13926C13.2915 5.19261 13.3219 5.30947 13.3245 5.40346C13.3245 5.49746 13.2965 5.65751 13.3448 5.6321C13.4185 5.58891 13.4363 5.50762 13.4464 5.44919C13.4515 5.42379 13.4794 5.29931 13.4744 5.17991C13.4744 5.15196 13.4896 5.12656 13.515 5.12402C13.5455 5.12402 13.5582 5.13164 13.5709 5.13926C13.5912 5.1545 13.6268 5.19007 13.6471 5.21039C13.7106 5.31201 13.7436 5.45173 13.7259 5.63464C13.7106 5.75658 13.6344 5.81247 13.7208 5.86836C13.8122 5.87852 13.8808 5.70069 13.891 5.66767C13.9139 5.57621 13.924 5.37552 13.924 5.2739C13.924 4.71501 13.5379 4.26282 13.0603 4.26282M179.877 5.09607C179.816 5.09607 179.727 5.10624 179.618 5.13164C179.506 5.1545 179.419 5.16721 179.353 5.16721C179.234 5.16721 179.15 5.13672 179.097 5.07829C179.043 5.01986 179.01 4.94365 178.998 4.85219C178.988 4.7582 178.98 4.6261 178.98 4.45081V2.41085H179.188C179.407 2.41085 179.577 2.38037 179.694 2.32194C179.811 2.26351 179.872 2.15935 179.872 2.00693C179.872 1.89007 179.831 1.79353 179.747 1.71986C179.666 1.64619 179.544 1.60808 179.389 1.60808H178.982V0.851039C178.982 0.663049 178.972 0.520785 178.952 0.419169C178.932 0.317552 178.886 0.231178 178.81 0.160046C178.698 0.0533487 178.571 0 178.431 0C178.332 0 178.241 0.0228637 178.159 0.0711316C178.081 0.1194 178.017 0.18037 177.974 0.256582C177.931 0.330254 177.905 0.416628 177.895 0.518245C177.885 0.619861 177.882 0.759584 177.882 0.939954V1.60808H177.761C177.593 1.60808 177.466 1.64619 177.377 1.71986C177.288 1.79607 177.245 1.89007 177.245 2.00693C177.245 2.12379 177.285 2.22032 177.372 2.29654C177.456 2.37275 177.578 2.41085 177.738 2.41085H177.885V4.53464C177.885 4.8776 177.913 5.15196 177.969 5.35774C178.022 5.56351 178.139 5.72356 178.317 5.84042C178.495 5.95728 178.756 6.01316 179.099 6.01316C179.465 6.01316 179.745 5.96744 179.94 5.87344C180.136 5.77945 180.232 5.6448 180.232 5.46697C180.232 5.36282 180.197 5.2739 180.126 5.20277C180.055 5.13164 179.973 5.09607 179.884 5.09607M166.961 10.7002C163.311 9.87968 161.611 9.69169 161.611 8.18268C161.611 7.1157 162.554 6.6127 164.505 6.6127C166.456 6.6127 168.407 7.5552 169.669 8.62217L169.674 8.61709C170.269 9.17598 171.061 9.52148 171.935 9.52148C173.772 9.52148 175.258 8.03279 175.258 6.19607C175.258 5.21801 174.824 4.34157 174.148 3.73441C171.948 1.49885 168.818 0.0711316 164.444 0.0711316C158.718 0.0711316 154.061 2.52517 154.061 8.5612C154.061 14.1628 158.151 16.1774 161.802 17.1224C166.146 18.2554 167.843 18.2554 167.843 19.7009C167.843 20.834 166.964 21.337 164.195 21.337C162.028 21.337 160.003 20.5418 158.319 19.1979L158.397 19.2716C158.397 19.2716 158.392 19.2665 158.387 19.264C157.036 18.0319 154.945 18.0852 153.667 19.4139C152.628 20.4986 152.466 22.0864 153.134 23.3439C153.154 23.3845 153.182 23.4303 153.207 23.476C153.268 23.5801 153.329 23.6792 153.403 23.7783C153.454 23.8494 153.515 23.9129 153.573 23.979C153.639 24.0501 153.69 24.1339 153.764 24.2025C153.817 24.2533 153.881 24.2889 153.936 24.3397C156.271 26.4356 159.64 28.0055 164.759 28.0055C173.19 28.0055 175.769 23.9815 175.769 19.0709C175.769 13.4083 170.861 11.5792 166.961 10.7002ZM137.177 7.49423C139.187 7.49423 141.13 8.55104 142.195 10.0321C142.22 10.0727 142.251 10.1083 142.276 10.149C142.319 10.2074 142.367 10.2658 142.403 10.3268C143.119 11.2083 144.209 11.7723 145.436 11.7723C147.585 11.7723 149.331 10.0296 149.331 7.87783C149.331 6.86928 148.945 5.95219 148.312 5.2612C145.632 1.96374 142.444 0.0711316 137.175 0.0711316C128.807 0.0711316 122.512 5.8582 122.512 13.9723C122.512 22.0864 128.804 28.0055 137.175 28.0055C142.527 28.0055 145.673 26.1206 148.317 23.161H148.312C148.906 22.4852 149.267 21.6037 149.267 20.6383C149.267 18.5298 147.56 16.8252 145.454 16.8252C144.301 16.8252 143.272 17.3383 142.571 18.1462C141.318 19.3986 139.87 20.646 137.175 20.646C133.339 20.646 131.197 17.8744 131.197 13.9723C131.197 10.0702 133.339 7.49423 137.175 7.49423M13.9189 0.0990762C6.24434 0.0990762 0 6.34342 0 14.018C0 21.6926 6.24434 27.937 13.9189 27.937C21.5935 27.937 27.8379 21.6926 27.8379 14.018C27.8379 6.34342 21.5935 0.0990762 13.9189 0.0990762ZM26.6947 17.2139C26.6286 16.4619 25.9046 16.1926 25.1069 15.936C24.1898 15.6413 23.0111 15.903 23.0111 15.903C23.0111 15.903 22.8409 15.4965 22.3226 15.2171C21.9924 15.0367 21.3319 14.8741 20.7831 14.8589C20.5189 14.8513 19.5333 15.0367 19.142 15.1815C19.0836 15.2018 18.8677 15.2501 18.9083 15.0291C18.9413 14.8589 19.3478 14.5947 19.6527 14.5159C20.3208 14.3406 21.1109 14.2568 21.4741 14.4194C22.094 14.6988 21.7028 13.6446 21.9111 13.1009C22.1194 12.5573 21.342 12.3947 21.0804 12.2855C20.8212 12.1762 20.7171 11.8485 20.8721 11.6859C21.027 11.5233 21.182 11.2515 21.1312 10.8704C21.0804 10.4894 20.5088 10.4894 20.2497 10.3801C19.9905 10.2709 20.0947 9.94573 20.4046 9.72725C20.7146 9.50878 20.9762 8.85589 20.8721 8.53072C20.7679 8.20554 20.4046 8.31224 20.1455 8.31224C19.8864 8.31224 19.7314 8.203 19.6273 7.98707C19.5231 7.76859 19.7822 7.65935 19.8864 7.39007C19.9905 7.11825 19.8762 6.88199 19.4723 6.84642C19.2132 6.82356 18.954 6.73718 18.954 6.46536C18.954 6.19353 19.4723 5.81247 19.3173 5.43141C19.1624 5.05035 18.6949 5.26882 18.4866 5.26882C18.2783 5.26882 18.3316 5.10624 18.4358 4.34411C18.54 3.58199 18.136 3.62263 17.6533 3.71917C17.2977 3.7903 17.0335 4.18152 16.6702 4.12818C16.3069 4.07229 15.5321 2.92402 15.1688 2.65219C14.8055 2.38037 14.3178 1.66651 13.5099 2.40577C13.3829 2.52263 13.1212 2.82494 12.9231 2.98499C12.857 3.02055 12.7885 3.0612 12.7173 3.10693C12.3667 3.33303 11.9628 3.42194 11.7443 3.42194C11.2769 3.42194 10.9365 2.2127 10.3649 2.106C9.7933 1.99677 9.4097 2.53534 8.94226 3.56166C8.80254 3.86905 8.65012 4.23487 8.74665 4.58799C8.86351 5.01986 9.08453 4.21201 9.70439 4.21201C9.99146 4.21201 10.215 4.28568 10.3801 4.39746C10.7129 4.62102 10.8831 4.98938 10.8527 5.30693C10.8171 5.64734 10.8146 5.98014 10.3852 6.3358C9.91778 6.61524 9.41478 6.52125 9.20901 6.41201C9.10231 6.35866 9.05912 6.33834 8.96513 6.2291C8.93464 6.19353 8.86859 6.11986 8.82794 6.00554C8.79746 5.91409 8.74157 5.86328 8.67806 5.94203C8.60947 6.02841 8.58915 6.15797 8.58915 6.15543C8.5231 6.48822 8.21825 7.33672 7.95912 7.71778C7.7 8.09885 6.92263 8.47737 6.61016 8.74919C6.30023 9.02102 5.68799 9.56721 5.46952 10.2709C5.25104 10.9746 5.00208 11.4166 4.74296 11.63C4.48637 11.846 3.2873 12.4836 2.97991 12.9612C2.7843 13.2661 2.90878 13.1797 2.77159 13.5328C2.47182 14.2975 3.4448 14.7293 3.75727 14.8919C4.06721 15.0545 4.68453 15.3314 4.97159 15.8243C5.06813 15.9919 5.41617 16.3069 6.3485 16.0885C7.28083 15.87 7.57806 14.9199 7.57806 14.9199C7.62887 14.7573 7.69746 14.5642 7.90323 14.5642C8.10901 14.5642 8.26651 14.6734 8.52564 14.6734C8.78476 14.6734 8.96767 14.2619 8.95243 13.8808C8.94226 13.6522 8.88637 13.7335 8.85335 13.543C8.83811 13.4464 9.02864 13.449 9.07182 13.5099C9.11755 13.5709 9.08707 13.6039 9.71963 13.858C10.4691 14.1628 10.873 12.7529 11.0279 12.3718C11.1829 11.9908 11.1727 11.249 11.1727 10.9771C11.1727 10.7053 11.2236 10.6494 11.4319 10.5427C11.6376 10.4335 11.7952 10.7053 12.6767 10.7053C13.5582 10.7053 13.2457 9.67136 13.2991 9.12771C13.3346 8.76952 13.2686 8.57898 13.0273 8.49007C12.9206 8.44942 12.7224 8.2843 12.8113 8.1776C13.012 7.94134 13.1441 8.26651 13.3524 8.31986C13.5607 8.37575 13.6751 8.41386 14.0129 8.24365C14.2771 8.11155 14.5413 7.52725 14.6734 7.37737C14.8436 7.18176 15.0621 7.98707 14.8538 8.31224C14.6455 8.63995 14.1146 8.84319 13.9062 9.33349C13.7005 9.82125 13.7411 10.8323 13.7284 11.0711C13.7132 11.3582 13.2686 11.3963 13.1238 11.3861C12.5344 11.3455 12.2143 11.0864 11.9018 11.0864C11.5894 11.0864 11.5182 11.8561 11.5182 12.0721C11.5182 12.288 11.6326 12.5344 11.4243 12.8062C11.2159 13.0781 10.9594 13.2965 10.8552 13.6243C10.751 13.9494 10.7307 14.1831 10.4208 14.4016C10.1109 14.6176 9.70185 14.2594 9.49099 14.2314C9.20647 14.1933 9.0515 14.7624 8.93464 15.0875C8.86097 15.2908 8.35035 15.7582 7.88291 15.9208C7.09284 16.1977 7.12079 16.439 7.09284 16.5889C7.03949 16.8607 7.21986 17.1935 7.97437 17.3002C8.28684 17.346 9.07182 16.9852 9.22679 16.7388C9.5545 16.218 9.66628 16.3171 9.9254 16.2079C10.1845 16.0986 10.5681 16.0199 10.8069 15.9055C12.3413 15.1739 13.3626 14.4372 13.6751 14.1679C13.9875 13.8961 14.0841 13.5912 14.0333 13.3727C13.9824 13.1543 14.112 13.0577 14.267 13.167C14.4219 13.2762 15.2806 13.421 16.2155 12.6614C17.1478 11.8993 17.1402 9.99908 17.1402 9.72725C17.1402 9.45543 17.2443 9.23695 17.5543 9.56467C17.8642 9.89238 17.7245 11.5538 17.1275 12.6055C16.8531 13.0882 16.5178 13.2635 16.3095 13.7513C16.1012 14.2416 17.036 15.1104 17.1402 15.3822C17.2443 15.654 17.191 16.3069 17.1402 17.0132C17.0868 17.7194 17.1885 17.8972 17.5492 18.0624C17.9125 18.2249 17.8896 18.0039 18.2046 17.7931C18.6009 17.5289 19.4012 17.4069 19.7187 17.4146C21.2607 17.4552 21.6672 17.882 21.5986 18.1005C21.5199 18.3545 20.7704 17.9074 19.5256 17.9607C18.2808 18.0166 17.3485 19.2081 17.1656 19.4621C16.9471 19.7644 16.7972 20.0769 16.6855 20.7323C16.627 21.0677 16.6855 21.2557 16.8531 21.3293C17.0818 21.4284 17.5035 21.1464 17.6279 20.7806C17.7397 20.4478 18.0293 20.0134 18.1894 19.8534C18.4307 19.612 18.5882 19.4545 18.6949 19.4062C18.9159 19.3072 18.8956 19.551 18.7279 19.8915C18.6314 20.0871 18.5831 20.2166 18.4968 20.5139C18.4282 20.7908 18.4053 20.8898 18.3774 21.0346C18.3443 21.2074 18.3088 21.2887 18.3393 21.5732C18.3647 21.8171 18.479 22.0635 18.7178 22.0279C18.9312 21.9949 19.2208 21.6113 19.3554 21.3547C19.4266 21.2201 19.4443 20.9788 19.5587 20.585C19.6806 20.1633 19.6577 20.1277 19.7289 19.9296C19.8381 19.6222 19.9397 19.4621 20.148 19.4088C20.3538 19.3529 20.3487 19.7898 20.3487 19.7898C20.3487 19.9092 20.3233 19.9651 20.2014 20.3868C20.1379 20.6104 20.0236 21.1464 19.9905 21.4691C19.9524 21.8476 20.1125 22.0432 20.4122 21.9543C20.9788 21.7841 21.0169 21.2125 21.1109 20.8568C21.149 20.7095 21.2099 20.3208 21.2582 20.1912C21.3293 19.9982 21.3598 19.8483 21.464 19.6501C21.5681 19.4494 21.6824 19.3249 21.9848 19.3885C22.2871 19.452 23.1584 19.7898 24.4185 19.5409C25.1501 19.3961 25.9148 18.9769 26.3467 18.3672C24.5455 23.4988 19.6552 27.1875 13.9189 27.1875C6.65843 27.1875 0.749423 21.2785 0.749423 14.018C0.749423 6.75751 6.65843 0.848499 13.9189 0.848499C21.1794 0.848499 27.0885 6.75751 27.0885 14.018C27.0885 15.1206 26.9513 16.1926 26.6947 17.2164M14.0891 5.91155C13.9774 6.14527 13.8199 6.36628 13.6217 6.42725C13.4312 6.48568 13.0781 6.55935 12.7758 6.50601C12.5065 6.45774 12.3769 6.34342 12.1889 6.1351C11.8866 5.79977 11.8841 4.67945 12.448 4.25012C12.5293 4.18661 12.8189 4.04688 12.8647 4.03672C13.1009 4.02148 13.4236 4.06467 13.6598 4.23741C13.9266 4.43049 13.9139 4.48891 14.0714 4.73533C14.2289 5.10624 14.2238 5.62956 14.0866 5.91155M6.31039 13.9113C6.25704 13.9494 6.21132 14.2492 6.20624 14.3305C6.19861 14.4118 6.07159 14.6887 5.82771 14.6734C5.7515 14.6684 5.66767 14.6988 5.61686 14.4423C5.56859 14.1831 6.10716 13.8402 6.10716 13.8402C6.23418 13.7919 6.36374 13.8732 6.30785 13.9113M3.82587 12.9688C3.84873 13.106 3.61247 13.5404 3.54642 13.4947C3.54642 13.4947 3.13487 13.5861 3.21363 13.3397C3.28984 13.0933 3.43972 13.0222 3.5134 13.0095C3.58707 12.9968 3.65058 12.9866 3.70393 12.9536C3.75727 12.9206 3.803 12.8316 3.82587 12.9688ZM186.858 2.2C186.749 1.97898 186.583 1.81132 186.365 1.69446C186.144 1.57506 185.885 1.51663 185.582 1.51663C185.323 1.51663 185.087 1.57252 184.874 1.67921C184.66 1.78845 184.46 1.95612 184.272 2.17968C184.142 1.95612 183.977 1.79099 183.776 1.68176C183.576 1.57252 183.337 1.51663 183.06 1.51663C182.783 1.51663 182.549 1.56998 182.331 1.67667C182.112 1.78337 181.909 1.95104 181.716 2.17968V2.07552C181.716 1.89769 181.665 1.76051 181.564 1.65889C181.462 1.55982 181.332 1.50901 181.182 1.50901C181.033 1.50901 180.895 1.56236 180.801 1.67159C180.702 1.78083 180.657 1.93834 180.657 2.14665V5.31709C180.657 5.54827 180.71 5.72102 180.817 5.83788C180.926 5.95473 181.063 6.01316 181.233 6.01316C181.403 6.01316 181.543 5.95473 181.647 5.83533C181.752 5.71848 181.805 5.54319 181.805 5.31201V3.81062C181.805 3.34573 181.861 2.98753 181.975 2.73857C182.089 2.48961 182.326 2.36513 182.684 2.36513C182.864 2.36513 182.996 2.41594 183.08 2.51501C183.164 2.61409 183.215 2.74111 183.233 2.89607C183.25 3.05104 183.261 3.26697 183.261 3.54642V5.31455C183.261 5.54827 183.311 5.72356 183.415 5.84042C183.52 5.95728 183.659 6.0157 183.827 6.0157C183.995 6.0157 184.142 5.95728 184.249 5.84042C184.355 5.72356 184.409 5.54827 184.409 5.31455V3.83857C184.409 3.36605 184.449 3.03326 184.531 2.84527C184.604 2.69792 184.706 2.58106 184.838 2.49469C184.97 2.40831 185.11 2.36513 185.255 2.36513C185.435 2.36513 185.57 2.4134 185.661 2.51247C185.75 2.61155 185.806 2.73095 185.826 2.87575C185.847 3.02055 185.857 3.21109 185.857 3.44988V5.31709C185.857 5.54827 185.91 5.72356 186.017 5.84042C186.124 5.95982 186.261 6.01825 186.428 6.01825C186.604 6.01825 186.741 5.95982 186.848 5.84296C186.952 5.7261 187.008 5.55081 187.008 5.31963V3.15266C187.008 2.72079 186.959 2.40577 186.865 2.20508M48.0545 7.49423C50.0614 7.49423 52.0023 8.55104 53.0693 10.0321C53.0947 10.0702 53.1226 10.1058 53.148 10.1439C53.1887 10.2049 53.2395 10.2607 53.2776 10.3242C53.9915 11.2058 55.0838 11.7697 56.3083 11.7697C58.46 11.7697 60.2028 10.027 60.2028 7.87529C60.2028 6.86928 59.8141 5.95473 59.1891 5.26374C56.5141 1.96374 53.3208 0.0711316 48.0545 0.0711316C39.6838 0.0711316 33.3887 5.8582 33.3887 13.9723C33.3887 22.0864 39.6838 28.0055 48.0545 28.0055C53.4046 28.0055 56.5497 26.1206 59.1917 23.161H59.1866C59.7811 22.4852 60.1418 21.6037 60.1418 20.6383C60.1418 18.5298 58.4397 16.8252 56.3312 16.8252C55.1753 16.8252 54.1464 17.3383 53.4478 18.1462C52.1928 19.3986 50.7473 20.646 48.0545 20.646C44.2134 20.646 42.0744 17.8744 42.0744 13.9723C42.0744 10.0702 44.2134 7.49423 48.0545 7.49423ZM84.2808 1.79353C82.9751 1.10254 82.0427 0.962818 80.0993 1.1254C76.5961 1.42009 73.8778 3.87922 73.3799 4.49654V4.67691C73.3799 4.61848 73.3697 4.56513 73.3672 4.51178H73.3621V4.494C73.1919 2.24319 71.3247 0.475058 69.0307 0.475058C66.7367 0.475058 64.745 2.36259 64.6841 4.71501V23.7046C64.7603 26.0418 66.6758 27.909 69.0282 27.909C71.3806 27.909 73.3418 26.0037 73.3774 23.6309V18.4663C73.3774 11.4243 77.4497 9.64596 79.731 9.60023C80.333 9.58499 81.8827 10.1794 83.0945 9.95843C85.4621 9.52402 87.027 7.25543 86.5926 4.89538C86.3386 3.50323 85.4469 2.39561 84.2783 1.80115M103.281 0.0711316C94.9709 0.0711316 88.4878 5.92171 88.4878 14.0993C88.4878 22.2769 94.9709 28.0055 103.281 28.0055C111.59 28.0055 118.007 22.2159 118.007 14.0993C118.007 5.98268 111.585 0.0711316 103.281 0.0711316ZM103.281 20.834C99.5055 20.834 97.176 18.0649 97.176 14.0993C97.176 10.1337 99.5055 7.36721 103.281 7.36721C107.056 7.36721 109.322 10.0727 109.322 14.0993C109.322 18.1259 107.056 20.834 103.281 20.834Z" fill="#8FC045"/>
    </g>
    <defs>
        <clipPath id="clip0_225_775">
            <rect width="187" height="28.0055" fill="white"/>
        </clipPath>
    </defs>
</svg>
