<svg width="145" height="100" viewBox="0 0 145 144" fill="none" xmlns="http://www.w3.org/2000/svg">
    <g clip-path="url(#clip0_229_1190)">
        <path d="M72.4891 0C112.525 0 145 32.2291 145 71.9891C145 111.749 112.525 144 72.4891 144C32.4529 144 0 111.749 0 71.9891C0 32.2291 32.4529 0 72.4891 0ZM72.4891 7.79141C54.6345 7.79141 38.4846 14.9751 26.7709 26.608C15.0573 38.2408 7.82366 54.2794 7.82366 72.0109C7.82366 89.7423 15.0573 105.803 26.7709 117.414C38.4627 129.047 54.6345 136.23 72.4891 136.23C90.3436 136.23 106.515 129.047 118.207 117.414C129.921 105.803 137.154 89.7423 137.154 72.0109C137.154 54.2794 129.921 38.2191 118.207 26.608C106.515 14.9968 90.3436 7.79141 72.4891 7.79141Z" fill="#0081C7"/>
        <path d="M116.918 77.8707H127.758V86.9209H106.035V55.9506H116.918V77.8707ZM81.4275 76.1561L63.5292 90.1329L47.1607 77.3498C44.8005 82.9709 39.1185 86.8992 32.5187 86.8992H18.5322V55.9289H32.5187C39.8615 55.9289 45.1502 60.5516 47.1389 65.4999L63.5074 52.7168L69.5827 57.4481L54.591 69.1677L57.4539 71.4032L72.4456 59.6835L78.5209 64.4148L63.5292 76.1344L66.4139 78.3915L81.4275 66.6936V55.9506H92.3107V77.8707H103.15V86.9426H81.4275V76.1778V76.1561ZM38.2007 71.4249C38.2007 67.2145 35.4034 64.8271 31.4478 64.8271H29.0221V78.0009H31.3823C35.0537 78.0009 38.2007 76.0042 38.2007 71.4032" fill="#0081C7"/>
    </g>
    <defs>
        <clipPath id="clip0_229_1190">
            <rect width="145" height="144" fill="white"/>
        </clipPath>
    </defs>
</svg>
