<svg width="187" height="43" viewBox="0 0 187 43" fill="none" xmlns="http://www.w3.org/2000/svg">
    <g clip-path="url(#clip0_236_1503)">
        <path d="M29.373 33.5152H33.3599V8.87997H29.373V8.37695H40.9362V8.87997H36.9493V33.5152H40.9362V34.0213H29.373V33.5152Z" fill="#231F20"/>
        <path d="M79.591 20.1074H74.1852C77.1349 16.015 79.5537 12.6709 79.591 12.6399V20.1074ZM83.0904 33.518V5.87402L79.591 10.6464L79.4916 10.8079C79.4916 10.8079 65.37 30.7484 64.2988 32.186C62.6407 34.4433 61.5508 36.561 58.0546 38.9674C56.235 40.2156 53.3598 40.6285 51.9128 40.4857C50.8548 40.3981 49.8117 40.179 48.8078 39.8337C47.9415 39.5449 47.4354 39.4735 47.0007 40.1969C46.566 40.9204 47.1466 41.2806 47.5068 41.5694C48.0098 42.0041 51.0496 43.0132 54.875 41.8581C59.1755 40.5602 62.1004 37.1571 63.7616 34.6979C64.6776 33.3442 69.36 26.8143 73.3965 21.2066H79.5941V33.5149H75.778V34.0148L86.894 33.7664L83.0935 33.518H83.0904Z" fill="#231F20"/>
        <path d="M45.7373 8.37632H56.8129V8.87933H53.0155V29.5992C53.0993 29.5277 67.1123 10.0996 68.7673 7.65285C70.4222 5.20609 73.3316 1.82162 77.6073 0.529927C81.414 -0.615827 84.4352 0.387096 84.9382 0.818694C85.2984 1.10436 85.8697 1.46454 85.4412 2.1849C85.0127 2.90527 84.5066 2.83385 83.6434 2.54509C82.6445 2.20138 81.6067 1.98339 80.5539 1.89614C79.1163 1.75331 76.2535 2.16317 74.4463 3.40828C70.9687 5.79915 69.8851 7.90746 68.2332 10.1524C67.1651 11.5838 53.0155 31.4187 53.0155 31.4187V31.5833L49.5347 36.3277V8.87933H45.7373" fill="#231F20"/>
        <path d="M7.57626 33.5147C7.98301 33.5613 8.45498 33.5985 8.99525 33.6234C9.53553 33.6482 10.1255 33.6575 10.7713 33.6575C11.5802 33.6583 12.3886 33.6168 13.1932 33.5333C13.9793 33.4532 14.7516 33.2716 15.491 32.9931C16.2327 32.7095 16.9237 32.3079 17.5372 31.8038C18.2217 31.2317 18.7998 30.5432 19.2449 29.77C19.9863 28.537 20.5251 27.1931 20.8409 25.7894C21.1526 24.3271 21.3036 22.835 21.2911 21.3399C21.3076 19.6029 21.1274 17.8696 20.754 16.1731C20.4481 14.7419 19.8428 13.3917 18.9779 12.2111C18.1205 11.0951 16.9887 10.22 15.6928 9.67122C14.3266 9.07092 12.6385 8.77077 10.6285 8.77077C10.0292 8.77077 9.48584 8.78629 8.99525 8.80803C8.50466 8.82976 8.02959 8.85771 7.57626 8.87944V33.5147ZM0 33.5147H3.98374V8.87944H0V8.37643H6.6789C7.35028 8.37633 8.02142 8.35148 8.69096 8.30191C9.0263 8.30191 9.35854 8.2957 9.69699 8.28328C10.0354 8.27086 10.3677 8.26465 10.703 8.26465C11.4203 8.26465 12.0609 8.27603 12.625 8.2988C13.187 8.32364 13.7149 8.36711 14.2055 8.423C14.6777 8.48016 15.1463 8.56413 15.609 8.67451C16.053 8.78319 16.5249 8.92291 17.0279 9.09058C18.3877 9.51775 19.6669 10.1684 20.813 11.0157C21.8448 11.7838 22.7321 12.729 23.4336 13.8071C24.1199 14.8701 24.6295 16.0371 24.9426 17.263C25.2697 18.5455 25.4325 19.8643 25.427 21.1878C25.4462 22.6314 25.2526 24.0699 24.8526 25.4572C24.5003 26.6482 23.9673 27.7781 23.2721 28.8075C22.6184 29.7611 21.825 30.6111 20.9185 31.3288C20.0373 32.028 19.0647 32.6036 18.0278 33.0396C17.5005 33.2867 16.9544 33.4912 16.3945 33.6513C15.8763 33.798 15.3481 33.907 14.8141 33.9773C14.2738 34.0488 13.6838 34.0953 13.0349 34.1202C12.3859 34.145 11.6469 34.1543 10.8086 34.1543C10.0194 34.1525 9.23034 34.1277 8.44256 34.0798C8.0358 34.055 7.63215 34.0394 7.23781 34.027C6.84347 34.0146 6.46466 34.0084 6.10758 34.0084H0V33.5054V33.5147Z" fill="#231F20"/>
        <path d="M97.5167 20.0078H100.82C101.44 20.0156 102.058 19.9298 102.652 19.7532C103.195 19.5899 103.685 19.2857 104.071 18.8714C104.506 18.3802 104.82 17.7944 104.987 17.1605C105.225 16.2688 105.334 15.3476 105.31 14.425C105.349 13.4 105.184 12.3775 104.826 11.4162C104.565 10.7448 104.131 10.1544 103.568 9.70535C103.06 9.32384 102.47 9.0646 101.845 8.94773C101.223 8.82841 100.591 8.76811 99.9572 8.76764C99.5256 8.76764 99.0909 8.77385 98.6469 8.78627C98.2686 8.79228 97.8911 8.82235 97.5167 8.87631V20.0078ZM89.9404 33.5147H93.9242V8.87942H89.9404V8.3764H96.7622C97.3384 8.37629 97.9144 8.35143 98.4886 8.30188C98.7742 8.30188 99.063 8.29567 99.3518 8.28325C99.6405 8.27083 99.9262 8.26462 100.212 8.26462C101.461 8.25404 102.709 8.33186 103.947 8.4975C105.055 8.66911 106.097 9.13565 106.962 9.84818C107.735 10.4144 108.347 11.172 108.738 12.0465C109.066 12.7714 109.243 13.5552 109.26 14.3505C109.244 14.8189 109.177 15.2843 109.061 15.7384C108.898 16.3682 108.604 16.9565 108.198 17.4648C107.67 18.1268 107.017 18.6786 106.276 19.0887C105.241 19.6404 104.106 19.9773 102.938 20.0792V20.1507C103.32 20.1972 103.839 20.2873 104.5 20.4208C105.194 20.5651 105.869 20.7891 106.512 21.0884C107.2 21.4043 107.835 21.8231 108.397 22.3304C108.985 22.868 109.408 23.5614 109.617 24.33C109.772 24.8653 109.875 25.4143 109.924 25.9695C109.983 26.5812 110.033 27.2115 110.067 27.8604C110.101 28.5094 110.139 29.1335 110.176 29.7328C110.198 30.2415 110.263 30.7473 110.371 31.2449C110.506 31.8423 110.737 32.4139 111.055 32.9371C111.214 33.1884 111.438 33.3916 111.704 33.525C111.97 33.6585 112.267 33.7171 112.564 33.6948C112.895 33.6915 113.222 33.6306 113.532 33.5147C113.872 33.3918 114.18 33.1945 114.433 32.9371L114.756 33.3346C114.638 33.4308 114.498 33.5333 114.343 33.642C114.157 33.7663 113.958 33.8694 113.75 33.9494C113.465 34.0546 113.171 34.1325 112.871 34.1822C112.45 34.2472 112.024 34.2773 111.598 34.2723C110.787 34.295 109.978 34.173 109.21 33.9121C108.617 33.6998 108.09 33.3333 107.686 32.8502C107.282 32.3416 106.994 31.7515 106.841 31.1207C106.645 30.3354 106.52 29.5342 106.465 28.7267L106.211 25.4509C106.175 24.4738 105.93 23.5157 105.493 22.6409C105.178 22.0426 104.716 21.5349 104.149 21.166C103.663 20.8654 103.117 20.6746 102.55 20.6071C102.074 20.552 101.595 20.522 101.115 20.517H97.5229V33.5209H101.51V34.0239H89.9466V33.5209L89.9404 33.5147Z" fill="#231F20"/>
        <path d="M115.867 33.5147H119.851V8.87948H115.867V8.37646H136.407V14.6082H136.013C135.739 13.7617 135.403 12.9366 135.007 12.1398C134.676 11.4738 134.24 10.8657 133.715 10.3388C133.206 9.84337 132.593 9.46784 131.92 9.23966C131.108 8.98098 130.258 8.85926 129.405 8.87948H123.444V20.011H125.779C126.455 20.0243 127.13 19.9513 127.788 19.7936C128.325 19.6574 128.816 19.3773 129.207 18.9832C129.646 18.5147 129.988 17.9639 130.213 17.3624C130.541 16.4999 130.811 15.616 131.02 14.7169H131.414V25.9167H131.02C130.852 25.2243 130.681 24.5505 130.498 23.9016C130.335 23.2914 130.081 22.7094 129.744 22.1752C129.421 21.6708 128.977 21.2555 128.452 20.9673C127.8 20.6427 127.077 20.4879 126.35 20.5171H123.441V33.5209H130.228C131.382 33.5639 132.524 33.2693 133.513 32.6733C134.348 32.144 135.074 31.4588 135.649 30.655C136.18 29.9131 136.592 29.0928 136.87 28.2238C137.095 27.5422 137.263 26.8433 137.373 26.1341H137.767V34.0208H115.864V33.5178L115.867 33.5147Z" fill="#231F20"/>
        <path d="M142.763 26.2771H143.157C143.366 27.4071 143.71 28.508 144.182 29.556C144.54 30.3484 145.005 31.0881 145.563 31.7543C146.011 32.2849 146.545 32.7354 147.144 33.0864C147.668 33.3876 148.23 33.6174 148.814 33.7695C149.343 33.9097 149.886 33.995 150.432 34.0241C150.948 34.0459 151.432 34.0583 151.885 34.0583C152.957 34.0965 154.024 33.8994 155.012 33.4807C155.76 33.1478 156.423 32.6487 156.95 32.0214C157.414 31.4614 157.756 30.8112 157.956 30.1118C158.136 29.4974 158.233 28.8612 158.241 28.2208C158.262 27.4735 158.102 26.7321 157.775 26.0597C157.48 25.4796 157.077 24.9603 156.589 24.529C156.118 24.1164 155.593 23.7705 155.028 23.5012C154.513 23.2546 153.979 23.0501 153.432 22.8895L149.302 21.6289C147.364 21.0286 145.898 20.2357 144.902 19.2504C143.906 18.2651 143.41 16.9455 143.412 15.2915C143.403 14.2605 143.598 13.2379 143.986 12.2827C144.352 11.381 144.902 10.5655 145.601 9.88877C146.32 9.20062 147.168 8.66232 148.097 8.30521C149.787 7.68922 151.618 7.5654 153.376 7.94813C153.873 8.07054 154.36 8.23252 154.832 8.43252C155.239 8.61261 155.605 8.77407 155.925 8.92001C156.236 9.06141 156.574 9.13548 156.915 9.13736C157.132 9.15804 157.35 9.11486 157.543 9.01316C157.724 8.82813 157.875 8.61535 157.99 8.38284H158.493V14.9003H158.061C157.918 14.0395 157.671 13.1991 157.325 12.3976C156.995 11.6211 156.539 10.9037 155.978 10.2738C155.418 9.65458 154.74 9.15319 153.984 8.79891C153.134 8.41129 152.208 8.22026 151.274 8.24001C150.633 8.24938 149.994 8.32745 149.37 8.47288C148.681 8.62732 148.024 8.90162 147.43 9.28329C146.828 9.67187 146.319 10.1881 145.939 10.7954C145.519 11.5156 145.313 12.3408 145.346 13.1739C145.325 13.8581 145.487 14.5354 145.815 15.1363C146.119 15.6699 146.529 16.1359 147.02 16.5056C147.528 16.8875 148.083 17.2026 148.672 17.4433C149.283 17.6948 149.898 17.9184 150.519 18.1078L154.866 19.4771C155.323 19.6199 155.894 19.8124 156.589 20.0515C157.315 20.3094 157.998 20.6736 158.617 21.1321C159.304 21.6459 159.878 22.296 160.303 23.0416C160.804 23.9685 161.047 25.0131 161.005 26.0659C161.008 27.1709 160.795 28.2659 160.377 29.289C159.963 30.3032 159.346 31.2223 158.564 31.9903C157.738 32.7953 156.762 33.4313 155.692 33.8627C154.482 34.3468 153.188 34.5853 151.885 34.5644C151.382 34.5644 150.941 34.5582 150.556 34.5458C150.196 34.5348 149.836 34.5047 149.479 34.4557C149.144 34.406 148.808 34.3532 148.473 34.2943C148.097 34.2255 147.726 34.1353 147.361 34.0241C146.883 33.8782 146.368 33.7105 145.815 33.5211C145.356 33.3464 144.871 33.2489 144.38 33.2323C144.249 33.2165 144.117 33.2277 143.99 33.265C143.863 33.3024 143.746 33.3653 143.645 33.4497C143.497 33.6199 143.381 33.8156 143.303 34.0272H142.766V26.2833L142.763 26.2771Z" fill="#231F20"/>
        <path d="M165.098 33.5147H169.081V8.87948H165.098V8.37646H185.637V14.6082H185.243C184.969 13.7617 184.633 12.9366 184.237 12.1398C183.907 11.4732 183.471 10.8649 182.945 10.3388C182.436 9.84266 181.821 9.46706 181.148 9.23966C180.336 8.98072 179.487 8.85899 178.636 8.87948H172.674V20.011H175.009C175.686 20.0241 176.362 19.9511 177.021 19.7936C177.558 19.656 178.048 19.376 178.44 18.9832C178.879 18.5147 179.221 17.9639 179.446 17.3624C179.775 16.4999 180.044 15.616 180.253 14.7169H180.651V25.9167H180.253C180.086 25.2243 179.915 24.5505 179.732 23.9016C179.568 23.2914 179.314 22.7094 178.977 22.1752C178.655 21.6701 178.211 21.2546 177.685 20.9673C177.034 20.6427 176.311 20.4879 175.583 20.5171H172.674V33.5209H179.461C180.616 33.5639 181.757 33.2693 182.747 32.6733C183.582 32.1449 184.308 31.4595 184.883 30.655C185.414 29.9131 185.825 29.0928 186.103 28.2238C186.329 27.5426 186.498 26.8436 186.606 26.1341H187V34.0208H165.098V33.5178V33.5147Z" fill="#231F20"/>
    </g>
    <defs>
        <clipPath id="clip0_236_1503">
            <rect width="187" height="42.3935" fill="white"/>
        </clipPath>
    </defs>
</svg>
