<svg width="187" height="62" viewBox="0 0 187 62" fill="none" xmlns="http://www.w3.org/2000/svg">
    <path d="M58.1271 56.0934C56.4856 58.0719 54.421 59.0395 52.0704 59.0395C47.6825 59.0395 44.376 55.3922 44.376 51.114C44.376 46.8359 47.7726 43.2473 52.133 43.2473C54.5659 43.2473 56.6306 44.2933 58.135 46.3893V37.8408H60.0586V58.6713H58.135V56.0934H58.1271ZM46.3505 51.1689C46.3505 54.4206 48.897 57.2844 52.2623 57.2844C55.3456 57.2844 58.229 54.9651 58.229 51.2276C58.229 47.7448 55.6511 45.1121 52.2897 45.1121C48.9284 45.1121 46.3505 47.9407 46.3505 51.1689Z" fill="#020202"/>
    <path d="M79.3808 51.1966C79.3808 55.4708 76.0743 59.0673 71.5415 59.0673C67.0087 59.0673 63.7021 55.4747 63.7021 51.1966C63.7021 46.9185 67.044 43.2437 71.5415 43.2437C76.039 43.2437 79.3808 46.895 79.3808 51.1966ZM65.6806 51.224C65.6806 54.5031 68.1448 57.1907 71.5376 57.1907C74.9303 57.1907 77.3945 54.5031 77.3945 51.224C77.3945 47.9449 74.7344 45.1085 71.5376 45.1085C68.3407 45.1085 65.6806 47.8822 65.6806 51.224Z" fill="#020202"/>
    <path d="M84.2188 45.8215C85.355 44.18 86.5656 43.2437 88.0974 43.2437C88.9749 43.2437 89.4294 43.5296 89.8251 43.753L88.8065 45.3945C88.5793 45.2809 88.2149 45.1085 87.7879 45.1085C86.3736 45.1085 85.1003 46.3269 84.5362 48.3876C84.2776 49.3474 84.2228 50.9067 84.2228 52.9439V58.6598H82.1816V43.6315H84.2228V45.8098L84.2188 45.8215Z" fill="#020202"/>
    <path d="M92.6225 51.3141C92.7048 54.7695 95.0593 57.2808 98.2836 57.2808C101.508 57.2808 102.922 55.4982 104.027 53.6883L105.641 54.5384C104.117 57.5394 101.762 59.0359 98.4834 59.0359C93.504 59.0359 90.644 55.2122 90.644 51.1966C90.644 47.177 93.6724 43.2437 98.3658 43.2437C102.64 43.2437 106.088 46.3269 106.15 51.3063H92.6186L92.6225 51.3141ZM104.031 49.6138C103.236 46.4993 101.002 45.1163 98.3972 45.1163C95.7919 45.1163 93.6959 46.558 92.8184 49.6138H104.023H104.031Z" fill="#020202"/>
    <path d="M121.892 58.6677H119.968V50.9733C119.968 49.8097 119.854 48.8499 119.827 48.1721C119.745 46.5306 118.413 45.1163 116.43 45.1163C115.098 45.1163 113.77 45.7627 112.92 46.8714C111.847 48.2583 111.647 50.0409 111.647 52.3053V58.6716H109.723V43.6432H111.647V46.2211C112.979 44.2975 114.648 43.2476 116.799 43.2476C119.09 43.2476 120.732 44.4385 121.555 46.8675C122.887 44.466 124.861 43.2476 127.071 43.2476C130.185 43.2476 132.195 45.4846 132.195 49.7588V58.6716H130.272V50.4601C130.272 49.3592 130.13 48.4816 130.103 47.9135C130.021 46.5815 128.744 45.1124 126.706 45.1124C124.842 45.1124 123.196 46.2485 122.432 48.1682C121.95 49.3866 121.895 50.7147 121.895 52.1016V58.6677H121.892Z" fill="#020202"/>
    <path d="M147.22 43.6431H149.261V51.4276C149.261 56.4892 146.969 59.0397 142.667 59.0397C138.366 59.0397 136.046 56.4931 136.046 51.4276V43.6431H138.088V50.977C138.088 52.5637 138.088 53.8644 138.511 54.7733C139.22 56.2973 140.775 57.1748 142.667 57.1748C144.054 57.1748 145.273 56.6655 146.064 55.8428C147.255 54.5695 147.228 53.1278 147.228 50.977V43.6431H147.22Z" fill="#020202"/>
    <path d="M153.304 55.5296C154.264 56.603 155.318 57.2024 156.446 57.2024C157.915 57.2024 159.22 56.129 159.22 54.7108C159.22 53.8332 158.71 53.0105 157.974 52.6148C154.518 50.6912 152.767 49.8724 152.767 47.2397C152.767 44.8656 154.605 43.2476 156.896 43.2476C158.538 43.2476 159.784 44.0429 161.053 45.2887L159.807 46.5619C158.902 45.6844 157.997 45.1202 156.779 45.1202C155.56 45.1202 154.514 45.9978 154.514 47.1339C154.514 47.8979 154.996 48.748 155.678 49.1476C159.133 51.1613 161.053 51.9214 161.053 54.6363C161.053 56.983 159.243 59.079 156.528 59.079C154.855 59.079 153.159 58.3151 152.085 56.9282L153.304 55.5413V55.5296Z" fill="#020202"/>
    <path d="M166.773 39.032C166.773 39.9095 166.037 40.6461 165.159 40.6461C164.281 40.6461 163.572 39.9095 163.572 39.032C163.572 38.1544 164.309 37.4453 165.159 37.4453C166.009 37.4453 166.773 38.1544 166.773 39.032ZM164.227 43.6431H166.15V58.6714H164.227V43.6431Z" fill="#020202"/>
    <path d="M184.747 55.6393C183.278 57.8763 180.728 59.0359 177.699 59.0359C172.747 59.0359 169.433 55.4708 169.433 51.2789C169.433 46.8636 172.889 43.2437 177.837 43.2437C180.724 43.2437 183.353 44.4346 184.743 46.7539L183.184 47.7138C181.852 45.9586 180.015 45.1085 177.75 45.1085C173.927 45.1085 171.412 47.9096 171.412 51.1378C171.412 54.3699 173.903 57.2808 177.778 57.2808C179.956 57.2808 181.77 56.4032 183.18 54.6481L184.747 55.6393Z" fill="#020202"/>
    <path d="M71.9608 13.2536C71.9334 13.2262 71.8864 13.2262 71.8589 13.2536L70.4133 14.6992C67.1381 7.31437 59.7493 2.1665 51.1539 2.1665C39.5183 2.1665 30.1001 11.5964 30.1001 23.2281C30.1001 31.8235 35.248 39.2163 42.6289 42.4875L41.4066 43.7099C41.3792 43.7373 41.3792 43.7843 41.4066 43.8117C41.4223 43.8274 41.4379 43.8352 41.4575 43.8352C41.4771 43.8352 41.4928 43.8313 41.5085 43.8117L50.6877 34.6325C50.719 34.6051 50.719 34.5581 50.6877 34.5307C50.6602 34.5033 50.6132 34.5033 50.5858 34.5307L49.0814 36.0351C42.8914 35.0478 38.1784 29.6884 38.1784 23.2281C38.1784 16.0548 43.9845 10.2487 51.1539 10.2487C57.6102 10.2487 62.9736 14.9696 63.9608 21.1556L62.9344 22.1821C62.907 22.2095 62.907 22.2565 62.9344 22.2839C62.9501 22.2996 62.9657 22.3035 62.9853 22.3035C63.0049 22.3035 63.0206 22.2996 63.0363 22.2839L71.9608 13.3555C71.9882 13.3281 71.9882 13.281 71.9608 13.2536Z" fill="#020202"/>
    <path d="M23.3537 34.5893C25.3204 33.6255 26.8169 32.364 27.8473 30.8048C28.8816 29.2416 29.3948 27.5217 29.3948 25.6334C29.3948 22.5893 28.2156 19.9566 25.8532 17.7431C23.4908 15.5296 20.5682 14.417 17.0775 14.417C13.1637 14.417 9.91987 15.7451 7.3381 18.4052C5.48894 20.3131 4.36064 22.8361 3.95712 25.9781H11.7338C12.0785 24.8616 12.7289 23.9488 13.6691 23.2475C14.6133 22.5462 15.6632 22.1936 16.8229 22.1936C18.1314 22.1936 19.1931 22.5737 20.0001 23.3376C20.8111 24.0976 21.2146 25.0575 21.2146 26.2132C21.2146 27.0986 20.9521 27.937 20.4193 28.7284C19.8904 29.5198 19.15 30.1387 18.1941 30.5932C17.2381 31.0477 15.7886 31.3493 13.8454 31.506V38.4404C17.007 38.4795 19.4203 39.1612 21.101 40.4932C22.7817 41.8253 23.6162 43.4511 23.6162 45.3786C23.6162 47.1338 22.9933 48.6147 21.7513 49.8291C20.5094 51.0436 18.9423 51.6509 17.054 51.6509C15.1657 51.6509 13.7475 51.1142 12.5604 50.0485C11.3773 48.979 10.6094 47.3453 10.2607 45.1514H2.25684C2.50757 49.4491 3.93361 52.8458 6.53105 55.3414C9.13241 57.8369 12.4938 59.0828 16.6191 59.0828C20.9717 59.0828 24.5564 57.7586 27.3693 55.1102C30.1823 52.4618 31.5887 49.2297 31.5887 45.4139C31.5887 42.8125 30.86 40.5559 29.4065 38.6363C27.9492 36.7048 25.9315 35.3611 23.3537 34.5893Z" fill="#020202"/>
    <path d="M54.0957 33.183C54.0957 32.9597 54.1388 32.7482 54.2211 32.5444C54.3033 32.3407 54.4209 32.1683 54.5737 32.0195C54.7225 31.8706 54.8988 31.7531 55.0986 31.6669C55.2984 31.5807 55.51 31.5415 55.7372 31.5415C55.9605 31.5415 56.1721 31.5846 56.3758 31.6669C56.5756 31.7531 56.7519 31.8667 56.9008 32.0195C57.0497 32.1683 57.1672 32.3446 57.2534 32.5444C57.3396 32.7442 57.3787 32.9597 57.3787 33.183C57.3787 33.4063 57.3356 33.6179 57.2534 33.8216C57.1711 34.0253 57.0536 34.1977 56.9008 34.3466C56.7519 34.4955 56.5756 34.613 56.3758 34.6992C56.176 34.7854 55.9605 34.8245 55.7372 34.8245C55.5139 34.8245 55.3024 34.7814 55.0986 34.6992C54.8988 34.613 54.7225 34.4994 54.5737 34.3466C54.4248 34.1977 54.3073 34.0214 54.2211 33.8216C54.1388 33.6218 54.0957 33.4063 54.0957 33.183Z" fill="#020202"/>
    <path d="M61.7744 29.4575L57.9233 23.9648H61.2025L63.1613 26.8522L65.1084 23.9648H68.3875L64.5208 29.4575V34.527H61.7744V29.4575Z" fill="#020202"/>
    <path d="M72.0974 23.9648V34.527H69.3511V23.9648H72.0974Z" fill="#020202"/>
    <path d="M77.0574 23.9648V32.2038H80.3482V34.5309H74.311V23.9648H77.0574Z" fill="#020202"/>
</svg>
