<svg width="187" height="120" viewBox="0 0 187 187" fill="none" xmlns="http://www.w3.org/2000/svg">
    <g clip-path="url(#clip0_236_1479)">
        <path d="M0 0H187V187H0V0Z" fill="#0A2240"/>
        <path d="M45.46 146.8C45.46 153.125 40.6037 158.005 34.3025 158.005C28.0013 158.005 23.0977 153.196 23.0977 146.8C23.0977 140.404 28.0723 135.666 34.2314 135.666C37.3584 135.666 40.1063 137.064 41.9303 139.267V128.63H45.4836V146.8H45.46ZM34.3025 138.888C30.1569 138.888 26.7694 142.37 26.7694 146.8C26.7694 151.23 30.1333 154.783 34.3025 154.783C38.4717 154.783 41.8356 151.23 41.8356 146.8C41.8356 142.37 38.4244 138.888 34.3025 138.888Z" fill="white"/>
        <path d="M75.5676 157.507H72.0143V154.19C70.285 156.512 67.466 158.028 64.3154 158.028C58.18 158.028 53.1816 153.219 53.1816 146.847C53.1816 140.475 58.2037 135.642 64.3865 135.642C70.5693 135.642 75.5439 140.569 75.5439 146.847V157.483L75.5676 157.507ZM64.4102 138.887C60.2646 138.887 56.8771 142.393 56.8771 146.871C56.8771 151.348 60.2409 154.783 64.4102 154.783C68.5794 154.783 71.9432 151.277 71.9432 146.871C71.9432 142.464 68.4847 138.887 64.4102 138.887Z" fill="white"/>
        <path d="M115.413 157.507H111.741V143.744C111.741 140.972 109.846 138.911 106.885 138.911C103.924 138.911 102.029 140.972 102.029 143.744V157.507H98.3569V143.744C98.3569 140.972 96.4618 138.911 93.5007 138.911C90.5395 138.911 88.6444 140.972 88.6444 143.744V157.507H84.9727V143.862C84.9727 139.219 88.4786 135.666 93.5007 135.666C96.5328 135.666 98.878 137.04 100.157 139.172C101.507 137.016 103.829 135.666 106.861 135.666C111.931 135.666 115.389 139.219 115.389 143.862V157.507H115.413Z" fill="white"/>
        <path d="M146.304 157.507H142.751V154.19C141.021 156.512 138.202 158.028 135.052 158.028C128.916 158.028 123.918 153.219 123.918 146.847C123.918 140.475 128.94 135.642 135.123 135.642C141.306 135.642 146.28 140.569 146.28 146.847V157.483L146.304 157.507ZM135.146 138.887C131.001 138.887 127.613 142.393 127.613 146.871C127.613 151.348 131.001 154.783 135.146 154.783C139.292 154.783 142.68 151.277 142.68 146.871C142.68 142.464 139.221 138.887 135.146 138.887Z" fill="white"/>
        <path d="M163.904 157.507C158.716 158.099 155.115 155.162 155.115 149.737V128.63H158.74V136.211H163.809V139.551H158.74V149.737C158.74 153.504 161.132 154.451 163.88 154.285V157.507H163.904Z" fill="white"/>
        <path fill-rule="evenodd" clip-rule="evenodd" d="M40.8405 56.4741C40.8405 49.1069 40.8405 39.3471 40.9352 36.1017C40.9352 35.0357 41.2432 34.5619 42.1908 34.1829C43.0199 33.8039 46.9048 33.5196 48.9895 33.5196C61.4498 33.5196 73.389 34.8699 83.2199 44.3217C87.5076 48.4436 93.264 56.2846 93.264 68.4133C93.264 77.2019 90.3266 86.3932 84.8781 91.2731C78.6953 96.911 69.6935 100.156 59.9574 100.156C47.5918 100.156 43.5173 98.1429 42.1671 96.3425C41.338 95.2765 41.1248 91.4626 41.0063 89.07C40.8879 87.2697 40.7931 78.4574 40.7931 68.3186V56.4504L40.8405 56.4741ZM32.0519 74.8567C32.0519 84.048 32.0519 91.6047 31.5308 95.6082C31.1044 98.3798 30.5832 100.488 28.4986 100.867C27.551 101.057 23.7134 101.246 22.7659 101.246V102.596C25.9165 102.596 35.9369 102.312 36.458 102.312C37.5004 102.312 50.6951 103.473 59.6968 103.473C77.4872 103.473 86.9154 96.7689 91.4162 92.4812C97.2911 86.8433 102.716 77.5572 102.716 65.4996C102.716 54.1289 97.7885 46.1932 92.5533 41.1948C80.093 29.4214 60.9287 30.2979 50.5766 30.2979C44.2991 30.2979 37.6899 30.5822 36.4344 30.5822C35.9132 30.5822 27.4563 30.2979 22.7422 30.2979V31.6245C23.6897 31.6245 26.485 31.7193 27.3378 31.9088C30.7964 32.5721 31.6255 34.1118 31.8387 37.3572C32.0519 40.4131 32.0519 43.0899 32.0519 58.0139V74.8567Z" fill="white"/>
        <path d="M139.528 103.923C145.19 103.923 150.828 102.762 155.329 99.8959C162.554 95.2055 164.236 87.9331 164.236 84.0244C164.236 76.3729 161.299 70.427 148.957 61.5436L146.019 59.4353C136.188 52.0681 133.251 48.8227 133.251 43.3506C133.251 36.3624 138.913 32.2642 146.138 32.2642C155.779 32.2642 158.598 36.2913 159.214 37.3336C159.854 38.3759 160.469 40.958 160.564 42.1188H162.104C162.104 35.6043 162.554 31.5062 162.554 31.0324C162.554 31.0324 159.83 30.2743 157.84 29.8953C155.211 29.3268 152.178 28.9478 148.104 28.9478C134.814 28.9478 126.429 35.936 126.429 46.1696C126.429 52.684 128.94 58.6062 140.05 66.921L144.764 70.4507C153.766 77.2494 156.798 81.0633 156.798 87.6725C156.798 93.8079 151.87 100.393 141.826 100.393C134.814 100.393 127.897 97.7166 126.334 90.6336C126.026 89.2833 126.05 87.4593 126.05 86.6065L124.51 86.5591C124.415 88.0989 123.775 100.678 123.775 100.678C128.063 102.81 134.625 103.923 139.552 103.923H139.528Z" fill="white"/>
        <path d="M114.039 49.2018H110.889L108.662 29.4927H116.266L114.039 49.2018Z" fill="white"/>
        <path d="M164.236 115.91H22.7422V117.355H164.236V115.91Z" fill="white"/>
    </g>
    <defs>
        <clipPath id="clip0_236_1479">
            <rect width="187" height="187" fill="white"/>
        </clipPath>
    </defs>
</svg>
