<svg width="187" height="72" viewBox="0 0 187 72" fill="none" xmlns="http://www.w3.org/2000/svg">
    <g clip-path="url(#clip0_223_535)">
        <path d="M22.9241 15.4985C10.4183 15.4985 0 20.7968 0 36.8041C0 49.4817 7.00936 57.4622 23.2412 57.4622C42.3535 57.4622 43.5822 44.8705 43.5822 44.8705H34.3201C34.3201 44.8705 32.3382 51.6486 22.6797 51.6486C14.8181 51.6486 9.15643 46.3371 9.15643 38.8917H44.5534V34.221C44.5534 26.8549 39.8761 15.4985 22.9241 15.4985ZM22.6004 21.4707C30.0854 21.4707 35.1922 26.0555 35.1922 32.9328H9.36123C9.36123 25.6327 16.0205 21.4707 22.6004 21.4707Z" fill="#E0262C"/>
        <path d="M44.5468 0V49.4289C44.5468 52.2366 44.3486 56.174 44.3486 56.174H53.1814C53.1814 56.174 53.4985 53.3465 53.4985 50.7568C53.4985 50.7568 57.8653 57.5878 69.7303 57.5878C82.223 57.5878 90.7122 48.9136 90.7122 36.4804C90.7122 24.9192 82.9166 15.6175 69.7501 15.6175C57.416 15.6175 53.5843 22.2767 53.5843 22.2767V0H44.5468ZM67.4643 21.7284C75.9469 21.7284 81.3443 28.0242 81.3443 36.4804C81.3443 45.5443 75.1145 51.4703 67.5238 51.4703C58.4665 51.4703 53.5777 44.3948 53.5777 36.5597C53.5777 29.253 57.9644 21.7284 67.4577 21.7284H67.4643Z" fill="#385FAA"/>
        <path d="M112.665 15.4985C93.8504 15.4985 92.648 25.7979 92.648 27.4429H102.009C102.009 27.4429 102.498 21.4311 112.018 21.4311C118.201 21.4311 122.991 24.2652 122.991 29.7022V31.6379H112.018C97.4442 31.6379 89.7412 35.899 89.7412 44.5534C89.7412 53.2077 96.8563 57.7 106.475 57.7C119.582 57.7 123.81 50.4595 123.81 50.4595C123.81 53.3398 124.028 56.1806 124.028 56.1806H132.352C132.352 56.1806 132.029 52.6594 132.029 50.4066V30.9442C132.029 18.1807 121.736 15.4985 112.659 15.4985H112.665ZM122.991 37.4515V40.0346C122.991 43.4039 120.917 51.7807 108.675 51.7807C101.976 51.7807 99.1024 48.4379 99.1024 44.56C99.1024 37.5044 108.774 37.4581 122.991 37.4581V37.4515Z" fill="#F4B100"/>
        <path d="M126.994 17.1105H137.531L152.647 47.3941L167.729 17.1105H177.269L149.799 71.0251H139.791L147.718 55.9956L127.001 17.1105H126.994Z" fill="#8CB625"/>
        <path d="M180.764 11.3563V12.2878H181.55V12.9088H180.764V14.3556C180.764 14.752 180.869 14.9568 181.186 14.9568C181.325 14.9568 181.437 14.937 181.51 14.9172L181.523 15.5514C181.404 15.5976 181.186 15.6306 180.922 15.6306C180.618 15.6306 180.367 15.5316 180.209 15.3598C180.037 15.1748 179.951 14.8775 179.951 14.4481V12.9088H179.482V12.2878H179.951V11.5479L180.757 11.3563H180.764ZM182.171 13.2656C182.171 12.889 182.164 12.5719 182.144 12.2878H182.858L182.891 12.7701H182.911C183.069 12.5124 183.366 12.2152 183.921 12.2152C184.351 12.2152 184.688 12.4596 184.826 12.8163H184.84C184.952 12.638 185.091 12.4992 185.243 12.4067C185.421 12.2812 185.632 12.2085 185.903 12.2085C186.445 12.2085 187 12.5785 187 13.6289V15.558H186.194V13.7478C186.194 13.2061 186.002 12.8824 185.606 12.8824C185.322 12.8824 185.117 13.0872 185.031 13.3184C185.011 13.3977 184.992 13.5034 184.992 13.5959V15.558H184.186V13.6619C184.186 13.2061 184.007 12.8824 183.624 12.8824C183.314 12.8824 183.109 13.1268 183.03 13.3514C182.997 13.4307 182.983 13.5232 182.983 13.6223V15.558H182.177V13.259L182.171 13.2656Z" fill="#13110C"/>
    </g>
    <defs>
        <clipPath id="clip0_223_535">
            <rect width="187" height="71.0251" fill="white"/>
        </clipPath>
    </defs>
</svg>
