<svg width="187" height="49" viewBox="0 0 187 49" fill="none" xmlns="http://www.w3.org/2000/svg">
    <g clip-path="url(#clip0_231_1231)">
        <path fill-rule="evenodd" clip-rule="evenodd" d="M11.5104 18.0088C14.464 18.0088 17.1621 19.0146 19.2003 20.7335C21.2386 22.4524 22.6222 24.8951 22.9521 27.7582C23.1012 28.9769 23.0852 30.1317 22.9521 31.345H8.06729V27.7582H19.1471C18.3489 24.2937 15.2463 21.7127 11.5424 21.7127C7.23178 21.7127 3.73541 25.2091 3.73541 29.5197C3.73541 33.8303 7.23178 37.3266 11.5424 37.3266C14.315 37.3266 17.1728 36.2304 19.0566 34.5806L21.8878 36.9488C19.3387 39.7374 15.4113 41.0359 11.5158 41.0359C5.15631 41.0359 0.00488281 35.8791 0.00488281 29.525C0.00488281 23.1709 5.16163 18.0141 11.5158 18.0141L11.5104 18.0088Z" fill="#009FE3"/>
        <path fill-rule="evenodd" clip-rule="evenodd" d="M61.9929 18.0088C64.9464 18.0088 67.6445 19.0146 69.6828 20.7335C71.721 22.4524 73.1046 24.8951 73.4346 27.7582C73.5836 28.9769 73.5676 30.1317 73.4346 31.345H58.5497V27.7582H69.6295C68.8313 24.2937 65.7287 21.7127 62.0248 21.7127C57.7142 21.7127 54.2178 25.2091 54.2178 29.5197C54.2178 33.8303 57.7142 37.3266 62.0248 37.3266C64.7974 37.3266 67.6552 36.2304 69.5391 34.5806L72.3702 36.9488C69.8211 39.7374 65.8937 41.0359 61.9982 41.0359C55.6387 41.0359 50.4873 35.8791 50.4873 29.525C50.4873 23.1709 55.6441 18.0141 61.9982 18.0141L61.9929 18.0088Z" fill="#009FE3"/>
        <path fill-rule="evenodd" clip-rule="evenodd" d="M111.948 18.0088C114.901 18.0088 117.6 19.0146 119.638 20.7335C121.676 22.4524 123.06 24.8951 123.39 27.7582C123.539 28.9769 123.523 30.1317 123.39 31.345H108.505V27.7582H119.585C118.786 24.2937 115.684 21.7127 111.98 21.7127C107.669 21.7127 104.173 25.2091 104.173 29.5197C104.173 33.8303 107.669 37.3266 111.98 37.3266C114.752 37.3266 117.61 36.2304 119.494 34.5806L122.325 36.9488C119.776 39.7374 115.849 41.0359 111.953 41.0359C105.594 41.0359 100.442 35.8791 100.442 29.525C100.442 23.1709 105.599 18.0141 111.953 18.0141L111.948 18.0088Z" fill="#009FE3"/>
        <path fill-rule="evenodd" clip-rule="evenodd" d="M36.9591 18.0088C43.3186 18.0088 48.47 23.1655 48.47 29.5197C48.47 35.8738 43.3133 41.0306 36.9591 41.0306C30.605 41.0306 25.4482 35.8738 25.4482 29.5197V29.5037V13.2192H29.1575V21.0581V29.5037V29.5197C29.1575 33.8303 32.6539 37.3266 36.9644 37.3266C41.275 37.3266 44.7714 33.8303 44.7714 29.5197C44.7714 25.2091 41.275 21.7127 36.9644 21.7127C35.4105 21.7127 33.963 22.1651 32.7496 22.9473L30.7167 19.8448C32.5155 18.6793 34.6655 18.0035 36.9698 18.0035L36.9591 18.0088Z" fill="#009FE3"/>
        <path fill-rule="evenodd" clip-rule="evenodd" d="M87.0158 18.0088C93.3752 18.0088 98.5266 23.1655 98.5266 29.5197C98.5266 35.8738 93.3699 41.0306 87.0158 41.0306C80.6616 41.0306 75.5049 35.8738 75.5049 29.5197V29.5037V13.2192H79.2141V21.0581V29.5037V29.5197C79.2141 33.8303 82.7105 37.3266 87.0211 37.3266C91.3317 37.3266 94.8281 33.8303 94.8281 29.5197C94.8281 25.2091 91.3317 21.7127 87.0211 21.7127C85.4671 21.7127 84.0196 22.1651 82.8063 22.9473L80.7734 19.8448C82.5721 18.6793 84.7221 18.0035 87.0264 18.0035L87.0158 18.0088Z" fill="#009FE3"/>
        <path fill-rule="evenodd" clip-rule="evenodd" d="M125.699 40.5087H129.408V31.1904H129.792C136.513 32.3665 138.402 35.9693 138.69 40.5087H142.42C142.33 34.5857 139.286 30.4454 133.762 28.3539L141.973 18.5141H137.066L129.414 27.6834V13.2402H125.705V40.5087H125.699Z" fill="#009FE3"/>
        <path fill-rule="evenodd" clip-rule="evenodd" d="M158.545 20.4195C156.538 22.9314 155.352 26.0286 155.352 29.3866C155.352 37.747 162.706 44.5216 171.775 44.5216C176.724 44.5216 181.157 42.5046 184.169 39.3169L187 42.3344C183.216 46.1128 177.793 48.4756 171.775 48.4756C160.328 48.4756 151.052 39.9289 151.052 29.3813C151.052 24.5332 153.01 20.1108 156.24 16.7422L158.539 20.4142L158.545 20.4195Z" fill="#EF7D00"/>
        <path fill-rule="evenodd" clip-rule="evenodd" d="M169.657 0C175.867 0 180.902 5.00242 180.902 11.1703C180.902 13.3469 180.274 15.3798 179.188 17.0987L174.558 16.061C175.819 14.8104 176.602 13.0808 176.602 11.1703C176.602 7.35994 173.494 4.26802 169.657 4.26802C165.82 4.26802 162.712 7.35994 162.712 11.1703C162.712 12.9105 163.361 14.5017 164.431 15.715C163.356 16.4867 161.674 17.7 160.945 18.2375C159.365 16.3111 158.412 13.8524 158.412 11.1756C158.412 5.00242 163.446 0.00532172 169.657 0.00532172V0Z" fill="#EF7D00"/>
        <path fill-rule="evenodd" clip-rule="evenodd" d="M162.536 27.8592C156.81 39.9768 172.36 45.5539 181.215 37.8321C188.043 31.8824 187.314 23.2932 184.924 19.4402C182.535 15.5873 180.348 14.6294 180.348 14.6294L174.552 16.0609C174.552 16.0609 182.87 18.9985 182.333 27.0503C181.795 35.1021 174.43 38.5612 169.012 37.2946C164.148 35.8311 164.372 31.1693 167.23 28.0029C166.618 27.3909 166.24 26.5447 166.24 25.6134C166.24 23.7455 167.756 22.2288 169.624 22.2288C171.492 22.2288 173.009 23.7455 173.009 25.6134C173.009 26.4383 172.711 27.194 172.221 27.7847C172.221 27.7847 173.786 28.849 174.558 31.1853C176.096 29.8229 177.064 27.8326 177.064 25.6188C177.064 21.5104 173.733 18.179 169.624 18.179C164.563 18.179 160.982 23.0218 162.531 27.8645L162.536 27.8592Z" fill="#EF7D00"/>
    </g>
    <defs>
        <clipPath id="clip0_231_1231">
            <rect width="187" height="48.4809" fill="white"/>
        </clipPath>
    </defs>
</svg>
