<svg width="143" height="100" viewBox="0 0 143 142" fill="none" xmlns="http://www.w3.org/2000/svg">
    <g clip-path="url(#clip0_225_807)">
        <path fill-rule="evenodd" clip-rule="evenodd" d="M0 0H143V142H0V0Z" fill="white"/>
        <path fill-rule="evenodd" clip-rule="evenodd" d="M30.8538 59.9574C30.8538 59.9574 30.8538 59.9279 28.7173 60.1415C28.109 60.2005 27.4784 60.3478 26.9072 60.4878C26.3359 60.6277 25.824 60.7824 25.2825 60.9961C24.7113 61.2171 24.7187 61.2392 23.7023 61.8064C23.5095 61.9095 23.3166 62.0348 23.1237 62.1968C23.0124 62.2926 22.545 62.7051 22.1519 63.1619C21.9887 63.3534 21.8329 63.567 21.6845 63.8101C21.551 64.0311 21.4323 64.2669 21.3358 64.5247C21.2468 64.7531 21.1578 64.9814 21.1281 65.2393C21.091 65.5634 21.1281 65.9096 21.1281 66.2559C21.1874 66.5456 21.2715 66.8673 21.3803 67.2209C21.4248 67.3167 21.4768 67.4051 21.5213 67.5229C21.5213 67.5671 21.5213 67.6187 21.499 67.685C21.4768 67.685 21.4545 67.7071 21.4026 67.7292C21.0094 67.7292 20.6162 67.7292 20.2156 67.7513C19.5974 67.8152 18.9693 67.8986 18.3313 68.0018C17.5103 68.2326 16.944 68.402 16.6325 68.5101C16.3209 68.6181 16.1206 68.7016 16.0316 68.7605C15.312 69.151 15.1933 69.2467 15.1042 69.2688C14.4291 69.7329 14.4069 69.7771 14.2437 69.8655C14.0582 70.0276 13.8728 70.1897 13.665 70.3517C13.4128 70.6022 13.1532 70.86 12.9009 71.1105C12.9009 71.1326 12.9009 71.1547 12.8787 71.2063C12.7377 71.3684 12.5968 71.5304 12.441 71.7146C12.164 72.1615 11.9093 72.5986 11.6769 73.0259C11.5878 73.2763 11.4914 73.5342 11.3727 73.7846C11.2639 74.2021 11.1798 74.5778 11.1205 74.9117C11.1205 75.2359 11.1205 75.5821 11.0982 75.9283C11.0339 76.0658 10.9573 76.1886 10.8682 76.2967C7.96759 77.4017 7.70794 77.4753 6.06102 78.072C4.71579 78.5189 3.5313 78.8946 2.50754 79.1991C2.41109 79.2654 2.32207 79.3391 2.22563 79.4054C2.20337 79.4717 2.15886 79.5675 2.10693 79.6559V80.1642C2.17123 80.3508 2.22563 80.4809 2.27014 80.5546C2.48775 80.6626 2.65096 80.7314 2.75977 80.7609H3.15295C3.27165 80.7388 3.38292 80.7167 3.50162 80.6946C6.63967 79.678 7.09962 79.4938 8.10112 79.1697C9.23616 78.735 10.3786 78.293 11.5359 77.8584H11.8401C12.1517 78.1334 12.3371 78.3102 12.3965 78.3888C12.441 78.4109 12.4855 78.433 12.5597 78.4846C12.6042 78.5288 12.6561 78.6024 12.7229 78.6687C12.7451 78.6687 12.7674 78.6687 12.8193 78.6908C12.8861 78.735 12.9603 78.8087 13.027 78.875C13.3757 79.0592 13.7244 79.2433 14.0953 79.4275C14.4662 79.5233 14.8372 79.6338 15.2304 79.7516C15.5716 79.8155 16.0118 79.8769 16.5509 79.9358H18.0123C18.5366 79.8769 19.1177 79.7934 19.7557 79.6853C20.3343 79.5233 20.9204 79.3612 21.499 79.177C21.9367 79.015 22.3818 78.8529 22.8195 78.6687C23.2572 78.4846 23.7023 78.2783 24.14 78.072C24.8151 77.7037 25.5125 77.3354 26.2098 76.967C26.2741 76.967 26.3359 76.9891 26.3953 77.0333C26.5486 77.3083 26.65 77.5072 26.6994 77.63C26.8849 77.8584 27.0704 78.0941 27.2558 78.3446C27.3523 78.4404 27.4635 78.5288 27.5822 78.6245C27.8295 78.762 28.0298 78.8627 28.1831 78.9266C28.3018 78.9487 28.4131 78.9708 28.5541 78.9929C28.9547 78.9929 29.38 78.9708 29.8301 78.9266C30.2455 78.8087 30.6684 78.6982 31.1061 78.5803C31.7539 78.32 32.1249 78.1825 32.2188 78.1678C32.7307 77.9173 33.2649 77.6595 33.799 77.409C34.0809 77.2249 34.2664 77.1586 34.934 76.7608C35.075 76.6945 35.2159 76.6208 35.3495 76.5545C35.4138 76.5545 35.4978 76.5864 35.6017 76.6503C35.7426 76.8344 35.8836 77.0186 36.0171 77.2028C36.1853 77.3697 36.3089 77.5072 36.3881 77.6153C36.5513 77.7111 36.7367 77.7995 36.9222 77.9173C37.2338 78.0254 37.5206 78.1089 37.7828 78.1678C38.3713 78.1825 38.8288 78.1825 39.1552 78.1678C39.4371 78.1236 39.7338 78.0499 40.038 77.9836C40.7798 77.7675 41.361 77.5834 41.7813 77.4311H42.13C42.2487 77.5932 42.36 77.7553 42.501 77.9173C42.6419 78.0573 42.7829 78.1973 42.9164 78.3299C43.0796 78.3962 43.2428 78.4919 43.406 78.5803C43.6088 78.6442 43.7794 78.6835 43.9179 78.6982C44.4075 78.6982 44.8897 78.6982 45.4016 78.6761C45.9753 78.5533 46.455 78.4379 46.8408 78.3299C47.0708 78.2636 47.3082 78.1678 47.5381 78.0794C48.5619 77.5711 48.6732 77.4827 49.2296 77.1807C49.3681 77.1807 49.4694 77.1954 49.5337 77.2249C49.7217 77.4409 49.8305 77.5858 49.8602 77.6595C50.1074 77.905 50.2929 78.0745 50.4165 78.1678C50.513 78.1899 50.7652 78.3741 51.1361 78.5361C51.3216 78.5803 51.5071 78.6245 51.6925 78.6761H52.3899C52.6668 78.6122 52.9759 78.5288 53.3172 78.4256C53.7673 78.1653 54.1555 77.9198 54.4819 77.689C54.6451 77.549 54.8306 77.3869 55.0161 77.2249H55.2015C55.246 77.247 55.298 77.2691 55.3647 77.3133C55.4834 77.4753 55.617 77.6374 55.7579 77.7995C56.0843 78.0892 56.3316 78.2979 56.4998 78.4256C56.752 78.4919 57.0116 78.5877 57.2639 78.6761C57.6348 78.6761 58.028 78.6761 58.4286 78.6982C58.6363 78.6761 58.844 78.654 59.0592 78.6319C59.8653 78.4011 60.5083 78.2022 60.988 78.0352H61.1957C61.4034 78.1752 61.4999 78.1973 61.7966 78.3814C62.0266 78.4477 62.264 78.5435 62.5162 78.6319C62.7981 78.654 63.0726 78.6982 63.3545 78.7498C63.6958 78.7498 64.084 78.7277 64.5192 78.6835C64.8901 78.5656 65.2611 78.4551 65.632 78.3372C66.3071 77.991 66.767 77.689 66.8635 77.6669C67.1157 77.4827 67.3754 77.2985 67.6276 77.1144C67.6498 77.0702 67.6944 77.0186 67.7463 76.9744C67.7685 76.9744 67.8131 76.9523 67.865 76.9302C67.9095 76.886 67.9614 76.8344 68.0059 76.7681C68.0504 76.746 68.1024 76.7239 68.1691 76.6724C68.3546 76.4661 69.2152 75.6558 70.0757 74.757C70.1697 74.6342 70.3799 74.4182 70.7063 74.1088C70.7285 74.0646 70.7508 74.013 70.8027 73.9467C70.9214 73.8288 71.0327 73.7183 71.1737 73.6005C71.2182 73.5342 71.2701 73.4605 71.3146 73.3942C73.7627 70.752 75.1945 69.2148 75.6099 68.7827C75.6545 68.7606 75.7064 68.7384 75.7732 68.6869C76.285 68.1786 76.515 67.9944 76.656 67.8323C76.7005 67.8102 76.745 67.7881 76.8192 67.7366C76.9428 67.5991 77.2297 67.3461 77.6797 66.9778C77.6797 66.9778 77.7242 66.9778 77.7762 66.9557C77.7984 66.9336 77.8207 66.8894 77.8726 66.8378C78.7554 66.2117 78.8444 66.1896 79.1041 66.0054C79.5838 65.7599 79.9795 65.5757 80.2911 65.4529C80.7708 65.4382 81.0576 65.4382 81.1516 65.4529C81.248 65.5192 81.3371 65.5929 81.4558 65.6592C81.5003 65.7549 81.5745 65.8433 81.6412 65.9391V66.2411C81.619 66.3074 81.5745 66.3811 81.5225 66.4474C81.0107 66.8599 80.9216 66.9778 80.7584 67.0662C80.7139 67.1104 80.662 67.162 80.6175 67.2283C80.5952 67.2283 80.5507 67.2504 80.4988 67.2725C79.8979 67.825 79.2673 68.3775 78.6441 68.9594C77.0195 70.5728 76.7895 70.8527 76.5744 71.0369C76.3666 71.3168 75.9735 71.7514 75.8103 71.8914C75.8103 71.9135 75.788 71.9577 75.7657 72.0093C75.699 72.0535 75.6248 72.1271 75.558 72.1934C75.4913 72.3334 75.3726 72.4218 75.2761 72.5839C75.197 72.6477 74.9571 72.9325 74.5565 73.4384C74.5565 73.4384 74.5565 73.4826 74.5343 73.5342C74.4675 73.6005 74.3933 73.6962 74.3043 73.7846C74.0521 74.153 73.7924 74.5434 73.5179 74.9412C73.2879 75.3537 73.0506 75.7957 72.8206 76.2304C72.7761 76.3482 72.7241 76.4808 72.6574 76.6208C72.5906 76.9228 72.4942 77.2175 72.4051 77.5416V78.212C72.4274 78.3299 72.4719 78.4404 72.5238 78.5582C72.6475 78.7105 72.7563 78.8185 72.8502 78.8824C72.9912 78.9045 73.1544 78.9487 73.3176 79.0002H73.8072C73.9482 78.9781 74.1114 78.956 74.2746 78.9339C74.9225 78.7031 75.3627 78.5337 75.5951 78.4256C75.966 78.1973 76.0625 78.1752 76.6411 77.7774C76.7376 77.6816 76.8266 77.6595 76.8711 77.5932C76.9675 77.549 77.0566 77.4753 77.153 77.409C77.7119 76.9179 78.0284 76.6478 78.1026 76.5987C78.429 76.2525 78.7554 75.9062 79.1041 75.56C79.5195 75.0517 79.9424 74.5434 80.3801 74.0351C80.4246 73.9172 80.6323 73.6889 80.751 73.4826C80.7955 73.4163 80.8697 73.3426 80.9365 73.2763C80.9365 73.2542 80.9365 73.2321 80.9587 73.1805C81.0032 73.1142 81.0774 73.0406 81.1442 72.9743C81.9602 71.7514 81.9825 71.663 82.3757 71.0589C82.3979 71.0589 82.4424 71.0369 82.4944 71.0148C82.5611 71.0148 82.6353 71.0148 82.7021 71.0369C82.7243 71.0811 82.7689 71.1326 82.8208 71.1768C82.9172 71.221 83.0062 71.2652 83.1249 71.3389C83.2436 71.361 83.3772 71.3831 83.5181 71.4273H84.5419C84.9796 71.3831 85.4247 71.3389 85.8921 71.2652C86.2185 71.221 86.5672 71.1473 86.9158 71.081C87.0345 71.081 87.1681 71.1032 87.309 71.1253C87.45 71.221 87.5909 71.3094 87.7244 71.4273C87.8209 71.5673 87.9099 71.7072 88.0063 71.8619C88.0509 72.0682 88.1028 72.2745 88.1696 72.5102V73.5931C88.1473 73.6594 88.1028 73.7552 88.0509 73.8436C87.9717 73.9221 87.8778 73.9909 87.769 74.0498C86.6858 74.2659 85.6497 74.4894 84.6606 74.7202C83.8396 74.951 83.0879 75.1745 82.4053 75.3906C81.8712 75.6189 81.3371 75.8547 80.7807 76.083C79.9424 76.5177 79.8089 76.6355 79.5937 76.7534C79.4256 76.8909 79.2623 77.053 79.1041 77.2396C79.0596 77.3354 78.9854 77.4238 78.9186 77.5416C78.8741 77.7258 78.8222 77.91 78.7554 78.0941V79.015C78.8222 79.2212 78.8964 79.4275 78.9631 79.6632C79.1041 79.8695 79.245 80.0758 79.4008 80.3115C79.4973 80.4073 79.5863 80.4957 79.6827 80.6135C79.7619 80.643 79.9325 80.7658 80.1946 80.9819C80.4023 81.0703 80.7287 81.2839 81.4929 81.6301C81.886 81.748 82.2792 81.8585 82.7021 81.9764C83.0879 82.0206 83.4514 82.0427 83.7926 82.0427C84.0448 82.0206 84.3045 81.9985 84.5567 81.9764C85.0513 81.8536 85.4692 81.7382 85.8105 81.6301C86.0924 81.4902 86.3223 81.4239 86.6488 81.2397C86.6933 81.2176 86.7675 81.1955 86.8342 81.1734C87.3585 80.8345 87.7541 80.5644 88.0212 80.3631C88.0657 80.2968 88.2067 80.2231 88.763 79.7148C88.9658 79.4692 89.129 79.2924 89.2527 79.1844C89.3194 79.0444 89.5346 78.8161 89.95 78.2194C90.0687 78.0131 90.2022 77.7847 90.3432 77.549C90.5064 77.1365 90.6696 76.7166 90.8551 76.2819C90.9639 75.7761 91.048 75.4298 91.1073 75.2432C91.1073 75.2432 91.1518 75.199 91.1741 75.1769C91.451 75.1131 91.8294 75.0517 92.3091 74.9928C92.7023 74.9928 93.1251 74.9707 93.5406 74.9486C94.0846 74.978 94.4555 75.0075 94.6534 75.037C94.6979 75.0591 94.7498 75.0812 94.8166 75.1327C94.8166 75.199 94.8166 75.2948 94.8388 75.3832C94.7721 75.5674 94.6756 75.7515 94.5866 75.9357C94.5644 76.0536 94.5421 76.1862 94.4902 76.3261V76.9007C94.5545 77.161 94.6163 77.3697 94.6756 77.5269C94.7943 77.7111 94.8833 77.8068 94.9279 77.9173C95.0367 78.0254 95.1999 78.1481 95.4175 78.2857C95.6029 78.352 95.7884 78.4477 95.9961 78.5361C96.1371 78.5582 96.278 78.5803 96.4338 78.6245H96.9902C97.3166 78.5803 97.6431 78.5067 97.962 78.4404C98.1253 78.3962 98.2885 78.3446 98.4739 78.2783C99.4977 77.77 99.609 77.6816 99.7054 77.6595C99.9131 77.4753 100.032 77.4311 100.774 76.805C100.774 76.7829 100.796 76.7608 100.818 76.7387C100.885 76.7166 100.959 76.6945 101.026 76.6429C101.07 76.6429 101.145 76.6429 101.211 76.665C101.234 76.6871 101.278 76.7313 101.33 76.7829C101.397 76.9449 101.493 77.107 101.582 77.2912C101.706 77.4287 101.807 77.5588 101.886 77.6816C102.05 77.7774 102.094 77.8437 102.517 78.072C102.613 78.0941 102.703 78.1162 102.821 78.1678C102.962 78.1678 103.125 78.1678 103.289 78.1899C103.474 78.1678 103.659 78.1457 103.845 78.1236C104.008 78.0794 104.171 78.0057 104.357 77.9394C104.565 77.8216 104.795 77.7111 105.032 77.5711C105.24 77.4311 105.47 77.2691 105.707 77.107C105.848 76.9891 106.011 76.8565 106.174 76.7166C106.241 76.7166 106.315 76.7166 106.404 76.7387C106.449 76.7829 106.501 76.8344 106.545 76.9007C106.709 77.247 106.894 77.4974 106.916 77.5932C107.057 77.7332 107.198 77.8731 107.354 78.0278C107.421 78.072 107.495 78.1236 107.584 78.1678C107.925 78.2758 108.197 78.3446 108.4 78.3741H108.771C109.112 78.3102 109.414 78.2415 109.676 78.1678C109.928 78.0499 110.188 77.9173 110.44 77.7774C110.626 77.6374 110.811 77.4974 111.019 77.3648C111.301 77.1144 111.575 76.8565 111.879 76.6061C111.946 76.6061 112.042 76.6061 112.131 76.6282C112.225 76.8442 112.334 77.0505 112.458 77.247C112.554 77.3869 112.666 77.5269 112.784 77.6595C112.807 77.6595 112.851 77.6595 112.903 77.6816C112.97 77.7258 113.044 77.7995 113.111 77.8658C113.318 77.9615 113.526 78.0499 113.764 78.1678C113.994 78.212 114.231 78.2636 114.483 78.3299C114.795 78.3593 115.151 78.3741 115.551 78.3741C116.031 78.3102 116.526 78.2267 117.035 78.1236C117.198 78.0794 117.362 78.0057 117.547 77.9394C117.666 77.9394 117.777 77.9394 117.896 77.9173C118.084 77.9615 118.331 78.045 118.638 78.1678C118.964 78.212 119.29 78.2636 119.639 78.3299H120.826C121.108 78.2857 121.405 78.2341 121.709 78.1678C121.939 78.1015 122.198 78.0057 122.451 77.9173C122.755 77.7553 123.052 77.5932 123.356 77.4311C123.541 77.2912 123.727 77.1512 123.934 77.0186C124.261 76.6945 124.609 76.3703 124.958 76.0536C125.374 75.5232 125.796 74.9707 126.212 74.4182C126.523 73.9418 126.734 73.6029 126.842 73.4016C126.909 73.3574 126.983 73.3132 127.05 73.2616C127.129 73.2616 127.322 73.3156 127.629 73.4237C127.861 73.5759 128 73.6839 128.044 73.7478C128.059 73.8067 128.067 74.0056 128.067 74.3445C128.022 74.5115 127.829 74.9878 127.488 75.7736C127.466 75.8915 127.443 76.002 127.391 76.1199V76.444C127.414 76.5398 127.436 76.6282 127.488 76.746C127.555 76.8639 127.629 76.9744 127.696 77.0923C128.022 77.4753 128.269 77.7528 128.437 77.9247C128.578 78.0205 128.742 78.131 128.905 78.2488C129.024 78.293 129.135 78.3446 129.253 78.3888H129.973C130.764 78.158 131.306 77.9885 131.598 77.8805C131.85 77.7626 132.11 77.6521 132.362 77.5343C133.148 77.1438 133.942 76.7239 134.728 76.3114C136.865 75.1327 137.236 74.9044 137.421 74.8381C137.842 74.6072 138.292 74.3764 138.772 74.1456C138.957 74.0793 139.142 74.0056 139.328 73.9393H139.766C139.832 74.0056 139.907 74.0793 139.996 74.1677V74.676C139.951 74.8602 139.899 75.0443 139.855 75.2285C139.855 75.2727 139.855 75.3169 139.877 75.3685C139.899 75.3685 139.944 75.3685 139.996 75.3906C140.062 75.3464 140.137 75.2727 140.226 75.2064C140.349 75.0198 140.527 74.6883 140.76 74.2119C140.804 74.0277 140.856 73.8215 140.923 73.6152V72.8564C140.878 72.6944 140.804 72.5323 140.737 72.3481C140.671 72.2524 140.596 72.164 140.53 72.0682C140.463 72.0019 140.366 71.9282 140.277 71.8619C140.159 71.8398 140.025 71.7956 139.884 71.7441H139.165C138.957 71.7883 138.727 71.8325 138.49 71.9061C138.26 71.9724 138.022 72.0682 137.792 72.1566C136.862 72.6182 136.368 72.8564 136.309 72.8712C135.337 73.4237 135.077 73.6078 134.402 73.9762C133.581 74.4673 132.97 74.8528 132.57 75.1327C132.132 75.3832 131.665 75.641 131.197 75.8915C131.012 75.9578 130.826 76.0536 130.619 76.142C130.455 76.1641 130.292 76.2083 130.107 76.2598H129.617C129.55 76.2377 129.476 76.2156 129.387 76.1641C129.365 76.142 129.32 76.0978 129.268 76.0462C129.246 75.9799 129.224 75.9062 129.172 75.8178V75.6116C129.216 75.4495 129.268 75.2874 129.335 75.1254C129.38 75.0296 129.454 74.9412 129.521 74.8454C129.738 74.3396 129.909 73.9025 130.032 73.5342V72.8859C129.966 72.7459 129.891 72.6059 129.825 72.4733C129.706 72.3776 129.595 72.2671 129.454 72.1492C129.313 72.0829 129.172 72.0093 129.038 71.943C128.776 71.8644 128.576 71.7956 128.437 71.7367C128.299 71.6434 128.198 71.5894 128.133 71.5746C127.926 71.3905 127.807 71.3463 127.762 71.2726C127.555 71.1547 127.347 71.0221 127.11 70.8822C127.013 70.8601 126.902 70.8379 126.783 70.7864H126.434C126.338 70.8085 126.249 70.8306 126.13 70.8822C125.928 71.0197 125.749 71.1645 125.596 71.3168C125.5 71.5009 125.411 71.6851 125.292 71.8693C125.262 72.0068 125.247 72.2057 125.247 72.466C125.344 72.7165 125.433 72.8343 125.477 72.9743V73.2763C125.215 73.7527 125.015 74.0916 124.877 74.2929C124.506 74.7104 124.15 75.0787 123.808 75.3979C123.601 75.56 123.393 75.7221 123.155 75.8841C123.059 75.9062 122.807 76.0904 122.184 76.4145C121.892 76.5373 121.558 76.6527 121.182 76.7608C121.019 76.7829 120.856 76.805 120.67 76.8565H120.299C120.299 76.8565 120.233 76.8344 120.181 76.8123C120.181 76.7681 120.203 76.6945 120.225 76.6282C120.344 76.5619 120.388 76.4882 120.529 76.4219C120.885 76.1125 121.264 75.7663 121.664 75.3832C121.761 75.2211 121.872 75.1327 121.968 74.9707C121.991 74.9486 122.035 74.9265 122.087 74.8749C122.228 74.6686 122.369 74.4403 122.525 74.2045C122.644 73.8804 122.777 73.5563 122.918 73.2395V72.5691C122.794 72.2303 122.678 71.9454 122.569 71.7146C122.428 71.5304 122.265 71.3242 122.102 71.1179C121.949 70.9951 121.81 70.9018 121.687 70.838C121.59 70.8159 121.501 70.7937 121.405 70.7716C121.152 70.7716 120.893 70.7716 120.641 70.7937C120.411 70.8379 120.151 70.9116 119.899 70.9779C119.622 71.086 119.313 71.2235 118.971 71.3905C118.6 71.6188 118.556 71.6925 118.296 71.8546C118.089 72.0608 117.948 72.1566 117.51 72.6354C117.391 72.7975 117.258 72.9596 117.117 73.1437C117.094 73.2321 116.909 73.49 116.649 73.9983C116.583 74.2487 116.486 74.5066 116.397 74.757C116.375 74.9191 116.353 75.0812 116.33 75.2653C116.33 75.5453 116.33 75.8178 116.353 76.1199C116.397 76.2598 116.449 76.3998 116.494 76.5324V76.7829C116.449 76.8271 116.397 76.9007 116.353 76.967C116.256 77.0112 116.167 77.0628 116.048 77.107C115.846 77.1365 115.529 77.1512 115.099 77.1512C114.958 77.1291 114.817 77.107 114.683 77.0628C114.436 76.94 114.243 76.8246 114.105 76.7166C114.026 76.5643 113.956 76.4489 113.897 76.3703C113.875 76.2746 113.853 76.1862 113.801 76.0683C113.786 75.5281 113.786 75.1204 113.801 74.8454C113.867 74.595 113.942 74.315 114.031 74.0351V73.8288C114.008 73.7846 113.986 73.711 113.934 73.6447C113.84 73.5808 113.623 73.4875 113.281 73.3647C112.99 73.35 112.772 73.35 112.629 73.3647C112.584 73.3868 112.532 73.4089 112.465 73.4531C112.399 73.5194 112.324 73.5931 112.258 73.6815C112.094 74.0277 112.005 74.1456 111.931 74.3298C111.62 74.7619 111.442 75.0222 111.397 75.1106C111.278 75.2064 111.189 75.3611 110.611 75.8915C110.492 75.9578 110.381 76.0315 110.24 76.1199C110.054 76.1862 109.869 76.2819 109.661 76.3703C109.52 76.3924 109.357 76.4145 109.194 76.4366H108.756C108.66 76.4145 108.571 76.3924 108.452 76.3703C108.343 76.3065 108.212 76.2058 108.059 76.0683C108.014 75.9725 107.962 75.862 107.918 75.7442V75.0959C107.985 74.8454 108.081 74.5876 108.17 74.3371C108.294 74.121 108.395 73.9148 108.474 73.7183C108.474 73.5808 108.459 73.4801 108.43 73.4163C108.363 73.3721 108.266 73.3205 108.177 73.2763C108.059 73.2542 107.925 73.2321 107.784 73.1805H107.272C107.206 73.2026 107.109 73.2248 107.02 73.2763C106.924 73.3426 106.835 73.4163 106.738 73.5047C106.62 73.711 106.508 73.9172 106.367 74.1309C106.075 74.4992 105.712 74.9142 105.277 75.3758C105.114 75.4937 105.069 75.56 104.765 75.7663C104.503 75.9038 104.248 76.0192 104.001 76.1125H103.348C103.251 76.0904 103.14 76.0683 103.021 76.0167C102.903 75.9504 102.792 75.8768 102.673 75.8105C102.576 75.6926 102.487 75.5821 102.391 75.4421V74.978C102.594 74.6097 102.811 74.2414 103.044 73.873C103.066 73.7552 103.111 73.6447 103.162 73.5047V73.0406C103.14 72.9227 103.096 72.8122 103.044 72.6944C102.836 72.4881 102.628 72.2818 102.413 72.0682C102.317 72.024 102.205 71.9724 102.087 71.9061C101.857 71.8398 101.597 71.7662 101.345 71.6999H100.373C100.091 71.7441 99.7944 71.7883 99.4903 71.8619C99.238 71.9282 98.9784 72.024 98.7262 72.1124C98.3775 72.2745 98.0288 72.4365 97.6579 72.6207C97.1905 72.9227 96.7083 73.2174 96.2187 73.5194C96.1742 73.5194 96.1 73.5415 96.0332 73.5636C94.4308 73.5636 92.8062 73.5636 91.1815 73.5857C91.137 73.5636 91.0851 73.5415 91.0405 73.5194C90.9762 73.3819 90.8922 73.1216 90.7883 72.7386C90.6696 72.4881 90.5583 72.2082 90.4396 71.9282C90.2764 71.6778 90.091 71.4641 90.0687 71.3757C89.6187 70.9435 89.3714 70.6906 89.3269 70.617C89.3269 70.5531 89.3417 70.4991 89.3714 70.4549C89.7868 70.2486 90.6028 69.9245 91.2779 69.5782C91.3966 69.4825 91.5821 69.4162 91.8343 69.232C91.9431 69.1878 92.2522 68.9963 92.7616 68.6574C92.8284 68.6132 92.9026 68.5395 92.9694 68.4732C92.9916 68.4732 93.0139 68.4732 93.0658 68.4511C93.5554 68.0386 94.0376 67.6187 94.5273 67.2062C94.8314 66.8599 95.1578 66.5137 95.4768 66.1675C95.6944 65.8581 95.8255 65.6886 95.87 65.6592C95.9887 65.4529 96.1222 65.2245 96.2632 64.9888C96.4041 64.6868 96.5451 64.3921 96.7009 64.068C96.7677 63.7659 96.8418 63.4713 96.9086 63.1692V62.3589C96.8641 62.1526 96.7899 61.9464 96.7232 61.7327C96.6341 61.5707 96.5377 61.4086 96.4412 61.2244C96.0852 60.9347 95.8057 60.726 95.6029 60.5983C95.326 60.4902 95.0713 60.4067 94.8388 60.3478C94.6311 60.3257 94.4234 60.3036 94.186 60.2815C93.6271 60.311 93.1771 60.3503 92.8358 60.3994C92.4426 60.5172 92.0198 60.6277 91.6044 60.7456C91.2112 60.8856 90.818 61.0255 90.3951 61.1581C89.406 61.6198 88.4688 62.0741 87.5835 62.521C87.1681 62.7493 86.7229 62.9851 86.2852 63.2355C84.7669 64.1736 83.9533 64.6647 83.8445 64.7089H83.4959C83.4291 64.6868 83.3549 64.6426 83.2881 64.591C83.1472 64.451 82.984 64.3111 82.8208 64.1564C82.6353 64.0901 82.4276 63.9943 82.2199 63.9059C82.0023 63.8617 81.6536 63.8224 81.1739 63.788C80.8697 63.8322 80.5433 63.8838 80.2243 63.9501C80.0166 64.0164 79.7866 64.1122 79.5492 64.2006C79.114 64.4314 78.5477 64.7629 77.8504 65.1951C77.8058 65.2614 77.3385 65.5855 77.2717 65.6813C77.2495 65.6813 77.2049 65.7034 77.153 65.7255C77.1085 65.7697 77.0566 65.8433 76.9898 65.9096C76.9675 65.9096 76.9453 65.9096 76.8934 65.9317C76.7747 66.0717 76.3147 66.44 75.9215 66.8305C75.7138 66.9925 74.2746 68.4217 73.8518 68.8858C73.7331 69.0036 73.6218 69.1142 73.4808 69.232C73.4586 69.2762 73.4363 69.3278 73.3844 69.3941C73.2434 69.5119 73.1025 69.6446 72.9689 69.7845C72.9689 69.8066 72.9467 69.8508 72.9244 69.9024C72.7835 70.0423 72.6425 70.1823 72.4867 70.3149C72.4867 70.337 72.4867 70.3591 72.4645 70.4107C72.2963 70.5629 72.0639 70.8011 71.7671 71.1253C71.7449 71.1695 71.7226 71.221 71.6707 71.2873C71.5743 71.3831 71.463 71.4715 71.3443 71.5894C71.0624 71.9135 70.7879 72.2376 70.506 72.5544C70.4095 72.6502 70.3205 72.7386 70.2018 72.8343C70.1796 72.8785 70.1573 72.9301 70.1054 72.9964C69.5712 73.571 69.1781 73.9393 68.5994 74.5876C68.5549 74.6097 68.5104 74.6318 68.4362 74.676C68.3175 74.7939 68.2062 74.9044 68.0875 75.0443C68.043 75.0664 67.9911 75.0885 67.9243 75.1401C67.8798 75.2064 67.8056 75.2801 67.7389 75.3464C67.3531 75.6361 67.1429 75.8055 67.1083 75.8547C67.1083 75.8547 67.0638 75.8547 67.0118 75.8768C66.8734 75.9995 66.5865 76.1984 66.1513 76.4735C65.9436 76.5913 65.7359 76.7018 65.5207 76.8197C65.3353 76.886 65.1275 76.9818 64.9198 77.0702C64.7344 77.0923 64.5489 77.1365 64.3634 77.188H63.6438C63.5053 77.1438 63.3891 77.0898 63.2952 77.026C63.2655 76.9474 63.2506 76.8541 63.2506 76.746C63.3471 76.6576 63.4584 76.5619 63.5771 76.444C63.9035 76.2156 64.2299 75.9799 64.5489 75.7515C64.8976 75.4274 65.2462 75.0812 65.6172 74.7349C65.6172 74.7128 65.6394 74.6686 65.6617 74.6171C65.7062 74.595 65.7581 74.5508 65.8026 74.4992C65.8471 74.3813 66.0549 74.1088 66.359 73.5342C66.3813 73.4384 66.4035 73.35 66.4258 73.2321V72.5176C66.4035 72.3997 66.3813 72.2892 66.359 72.1713C66.3145 72.0314 66.2403 71.8693 66.1735 71.7072C66.0351 71.4764 65.8966 71.2775 65.7581 71.1105C65.6394 70.9926 65.5059 70.8821 65.3649 70.7643C65.2462 70.7201 65.1127 70.6464 64.9717 70.5801C64.8308 70.558 64.6898 70.5359 64.5563 70.4843H64.1631C63.9777 70.5065 63.7922 70.5285 63.6067 70.5801C63.4435 70.6243 63.2581 70.6759 63.0726 70.7422C62.8426 70.86 62.6052 70.9706 62.3753 71.0884C62.212 71.2063 62.0488 71.3168 61.8634 71.4347C61.6557 71.6409 61.537 71.7146 61.077 72.2155C60.7852 72.5986 60.6146 72.8073 60.5651 72.8417C60.4266 73.102 60.3253 73.2714 60.261 73.35C60.0434 73.8902 59.9049 74.2585 59.8455 74.455C59.8233 74.6392 59.801 74.8233 59.7491 75.0075C59.7491 75.2236 59.7639 75.4618 59.7936 75.7221C59.89 75.9725 59.9791 76.2525 60.0978 76.5324C60.0978 76.6282 60.0978 76.7387 60.0755 76.8565C59.9964 76.9351 59.8727 77.0186 59.7046 77.107C59.4523 77.1512 59.1704 77.2028 58.8885 77.2691C58.5473 77.2691 58.2753 77.2543 58.0725 77.2249C57.9315 77.1807 57.7906 77.1291 57.6571 77.0628C57.5384 76.9965 57.4271 76.9007 57.2861 76.8123C57.2218 76.7043 57.1526 76.5422 57.0784 76.3261C57.0784 76.1641 57.0561 76.002 57.0339 75.8399C57.0561 75.7 57.0784 75.56 57.1303 75.4274C57.254 75.1966 57.3925 74.9731 57.5458 74.757C57.9662 74.4034 58.2134 74.18 58.2876 74.0867C58.3519 74.0719 58.4137 74.0326 58.4731 73.9688C58.5176 73.873 58.5621 73.7846 58.614 73.6889V73.4826C58.5695 73.3647 58.5176 73.2542 58.4508 73.1364C58.2827 72.9841 58.0898 72.8392 57.8722 72.7017C57.8054 72.6796 57.709 72.6575 57.62 72.6133H57.3677C57.301 72.6354 57.2045 72.6575 57.1155 72.7017C56.9078 72.8859 56.6778 73.0922 56.4404 73.2984C56.4404 73.3205 56.4404 73.3426 56.4182 73.3942C56.1659 73.6741 56.0917 73.8067 56.025 73.8583C55.795 74.2487 55.5576 74.6686 55.3276 75.0812C55.2609 75.1254 55.1422 75.3316 54.7267 75.8399C54.4151 76.1149 54.106 76.3679 53.7994 76.5987C53.5521 76.7067 53.3271 76.7902 53.1243 76.8492C52.6891 76.8639 52.3874 76.8639 52.2193 76.8492C52.0511 76.7853 51.9126 76.7239 51.8038 76.665C51.6357 76.498 51.512 76.39 51.4329 76.3409C51.3884 76.2451 51.3364 76.1346 51.2697 76.0167V75.7147C51.2919 75.6484 51.3142 75.5747 51.3661 75.4863C51.9003 75.0517 52.3157 74.6318 52.5753 74.4255C52.924 74.0572 53.2727 73.6889 53.6436 73.2984C53.7401 73.1364 53.8513 73.048 53.9255 72.908C54.0665 72.7901 54.1778 72.606 54.2742 72.5397C54.4597 72.2597 54.6674 72.0314 55.3647 71.0663C55.9087 70.2216 56.2648 69.6446 56.433 69.3352C56.433 69.291 56.433 69.2394 56.4552 69.1952C56.4998 69.0994 56.5739 68.9889 56.6407 68.871C56.7372 68.569 56.8262 68.2522 56.9449 67.9281C56.9597 67.5892 56.9597 67.3363 56.9449 67.1693C56.9152 67.0613 56.8534 66.9385 56.7594 66.801C56.6654 66.7077 56.5641 66.6316 56.4552 66.5726C56.3662 66.5505 56.2698 66.5284 56.1511 66.4769H55.7579C55.5947 66.499 55.4315 66.5211 55.246 66.5726C55.1051 66.6168 54.9419 66.661 54.7787 66.7347C54.0591 67.0809 53.9404 67.1693 53.8513 67.1988C53.5472 67.4272 53.4359 67.4787 53.384 67.545C53.3172 67.5892 53.2208 67.6408 53.1317 67.7071C52.4839 68.2915 51.9893 68.7532 51.648 69.092C51.3958 69.3941 51.1361 69.7182 50.8617 70.035C50.8171 70.1528 50.4685 70.6096 50.0011 71.3757C49.6524 72.0903 49.4892 72.5323 49.3038 72.8712C49.2815 72.8712 49.2593 72.8933 49.2073 72.9154C48.7919 72.9154 48.1836 72.8712 46.6999 72.8712C46.1261 72.935 45.545 73.0185 44.9565 73.1216C44.7043 73.1879 44.4224 73.2837 44.1404 73.3721C43.955 73.4384 43.7695 73.5342 43.5841 73.6226C43.2725 73.8239 43.0326 73.9933 42.8645 74.1309C42.7235 74.2708 42.5826 74.4329 42.4268 74.595C42.3031 74.7816 42.1721 75.0198 42.0336 75.3095C41.9891 75.4716 41.9371 75.6337 41.8704 75.8178C41.8259 75.9136 41.7517 76.002 41.6849 76.1199C41.5662 76.1641 41.4549 76.2377 41.3362 76.304C41.084 76.3703 40.8244 76.4661 40.5721 76.5545C40.3199 76.5766 40.038 76.6208 39.7561 76.6724H39.0365C38.8955 76.6503 38.7546 76.6282 38.621 76.6061C38.5024 76.5619 38.3688 76.4882 38.2279 76.4219C38.1314 76.3556 38.0201 76.2819 37.9014 76.1935C37.8347 76.0757 37.7382 75.9652 37.6492 75.8252C37.6492 75.6852 37.6492 75.5453 37.627 75.3906C37.6492 75.3243 37.6937 75.2285 37.7457 75.1401C38.3762 74.7055 38.4207 74.6318 38.6952 74.4476C38.9994 74.1972 39.1626 74.1014 39.2516 73.9835C39.578 73.7232 39.8946 73.4458 40.2012 73.1511C40.2457 73.129 40.2976 73.1069 40.3422 73.0848C40.4608 72.9448 40.5944 72.8049 40.7353 72.6723C40.7798 72.6502 40.8318 72.628 40.8985 72.5765C41.4327 72.024 41.9891 71.4494 42.5455 70.8674C42.8867 70.4696 43.0796 70.2535 43.1241 70.2191C43.1909 70.0792 43.406 69.8508 43.4505 69.733C43.4802 69.7182 43.636 69.5021 43.9179 69.0847C44.0143 68.8563 44.1034 68.6206 44.2221 68.3701C44.2369 68.0607 44.2369 67.8225 44.2221 67.6555C44.1627 67.4886 44.1009 67.3584 44.0366 67.2651C43.9401 67.1988 43.8511 67.1251 43.7324 67.0367C43.6657 67.0146 43.5692 66.9925 43.4802 66.9483H42.6196C42.2932 67.0146 41.9668 67.1104 41.6478 67.1988C41.2769 67.3609 40.906 67.5229 40.535 67.7071C40.1418 67.9576 39.719 68.2375 39.3036 68.5174C39.0736 68.7237 38.9326 68.7974 38.8362 68.9079C38.7917 68.93 38.7397 68.9521 38.673 68.9963C38.4875 69.2026 37.6492 69.9908 37.0706 70.6096C37.0038 70.7274 36.8628 70.8379 36.7887 70.9779C36.7442 71.0074 36.5191 71.307 36.1136 71.8767C36.0987 71.9405 35.9281 72.2474 35.6017 72.7975C35.5572 72.9497 35.4484 73.2027 35.2753 73.5563C35.2308 73.6005 35.1566 73.652 35.0898 73.7183H34.9044C34.5334 73.6005 34.1625 73.49 33.7693 73.3721C33.3019 73.2763 32.842 73.1879 32.3524 73.0701C31.2198 73.0553 30.515 73.0553 30.2381 73.0701C29.6644 73.1928 29.1921 73.3082 28.8211 73.4163C28.6802 73.4605 28.5392 73.5121 28.4057 73.5784C28.198 73.6962 27.9903 73.8067 27.7529 73.9246C27.6441 74.0179 27.56 74.0719 27.5006 74.0867C27.2484 74.315 26.9888 74.5729 26.7143 74.8233C26.5288 75.0738 26.3211 75.3316 26.1134 75.5821C25.9947 75.6484 25.8834 75.7442 25.7647 75.8326C25.1638 76.1567 24.5332 76.4808 23.9101 76.7976C23.6801 76.8639 23.3537 77.0481 22.9086 77.2101C22.7997 77.274 22.2656 77.4729 21.3061 77.8068C21.002 77.8731 20.7052 77.9689 20.4011 78.0573C19.9856 78.1236 19.5628 78.1973 19.1251 78.2636H17.8491C17.5449 78.2194 17.2482 78.1678 16.9218 78.1015C16.6696 77.9836 16.3876 77.8731 16.1057 77.7553C15.903 77.6177 15.6928 77.4483 15.4752 77.247C15.4603 77.1684 15.3911 77.0309 15.2674 76.8344C15.2674 76.7387 15.2452 76.6503 15.2229 76.5545C15.2526 76.4612 15.2996 76.3777 15.3639 76.304C15.4307 76.2598 15.5048 76.2083 15.5939 76.142C17.2853 75.3832 17.7304 75.2211 17.8936 75.1254C18.7097 74.8012 19.0806 74.6171 19.3106 74.5508C20.3566 74.0646 20.7943 73.9025 20.9575 73.8141C21.002 73.8141 21.0539 73.8141 21.0984 73.792C21.6326 73.5636 22.1667 73.3058 22.7008 73.0553C22.7453 73.0553 22.7973 73.0553 22.8418 73.0332C24.7162 72.1885 25.7622 71.7048 25.9798 71.582C26.4472 71.3757 26.9072 71.1474 27.3968 70.9116C30.4606 69.3425 30.6684 69.2026 31.3434 68.8858C32.9706 67.9772 33.8682 67.4861 34.0364 67.4124C35.2011 66.6758 35.4756 66.4695 35.8243 66.2559C36.848 65.4971 36.8925 65.4234 37.0557 65.335C37.1002 65.2908 37.1522 65.2172 37.2189 65.1509C37.2412 65.1509 37.2635 65.1509 37.3154 65.1288C37.6418 64.8046 37.9756 64.4437 38.3169 64.0459C38.4356 63.8396 38.5469 63.6333 38.6656 63.3976C38.6878 63.3018 38.7101 63.2134 38.7323 63.0956V62.5873C38.7101 62.521 38.6878 62.4252 38.6656 62.3368C38.5988 62.2189 38.5023 62.0863 38.4133 61.9464C38.2056 61.7622 38.0201 61.5265 37.7828 61.3497C37.5528 61.1729 37.2635 61.0255 36.9667 60.8856C36.7664 60.7898 36.6106 60.6867 35.572 60.3773C35.2085 60.2668 34.8376 60.1784 34.4592 60.1268C33.1907 59.9279 33.1832 59.9426 32.5082 59.9205C31.974 59.8984 31.4399 59.8984 30.8835 59.8984L30.8538 59.9574ZM32.293 61.4749C32.293 61.4749 32.293 61.4749 30.8093 61.6591C30.4087 61.7106 29.9933 61.8064 29.5778 61.9095C29.1995 62.0053 28.8286 62.1158 28.465 62.2558C28.1757 62.3663 28.1757 62.3663 27.7455 62.5578C27.2929 62.7567 26.8552 63.0072 26.4249 63.2724C26.2098 63.405 25.9873 63.5228 25.7944 63.6849C25.238 64.1711 24.8003 64.6573 24.7038 64.7678C24.5926 64.893 24.4961 65.0551 24.3997 65.2319C24.3032 65.4087 24.2365 65.6002 24.1475 65.7844C24.1252 65.8728 24.1029 65.9686 24.0807 66.0864V66.9631C24.1029 67.0809 24.1252 67.1914 24.1475 67.3093C24.2142 67.4714 24.3107 67.6334 24.3997 67.8176C24.5184 67.9576 24.6519 68.0975 24.7929 68.2522C25.0105 68.4045 25.2726 68.5666 25.5792 68.7384C25.9724 68.8784 26.3953 69.0184 26.8107 69.151H27.5748C27.738 69.1068 27.9012 69.0552 28.0867 68.9889C28.334 68.8661 28.5343 68.7826 28.6876 68.7384C30.3865 67.8839 30.5942 67.7439 30.9428 67.5819C31.0615 67.4861 31.4102 67.3314 31.5215 67.2356C31.707 67.1693 32.3375 66.7715 32.7307 66.5653C32.8494 66.4695 32.9384 66.4474 33.658 65.9686C33.9622 65.8065 34.8376 65.2319 35.0305 65.0919C35.0972 65.0404 35.2308 64.9741 36.1655 64.1269C36.3213 63.9869 36.4622 63.7954 36.5809 63.5965C36.6477 63.4934 36.7071 63.3534 36.7442 63.2061C36.7812 63.0293 36.759 62.8377 36.7442 62.6536C36.7442 62.5799 36.7071 62.5062 36.6477 62.4473C36.5884 62.3884 36.618 62.3736 36.529 62.2852C36.3732 62.1305 36.3139 62.0716 35.9949 61.9169C35.7946 61.8211 35.5646 61.7254 35.3198 61.6664C35.0008 61.5854 34.6521 61.5265 34.296 61.5044C33.6209 61.4602 32.9459 61.4823 32.2782 61.4823L32.293 61.4749ZM92.1088 61.9832C92.1088 61.9832 92.1088 62.0053 91.4115 62.1674C90.996 62.3294 90.5732 62.4915 90.1355 62.6757C88.7853 63.3681 88.7408 63.4123 88.3921 63.5744C88.2734 63.6702 88.088 63.7365 87.8357 63.9206C86.7897 64.5173 86.6488 64.6352 86.0701 64.9814C85.7882 65.1877 85.6992 65.2098 85.536 65.3498C85.1873 65.556 85.1428 65.6297 84.49 66.0422C84.4232 66.138 84.26 66.2264 84.1635 66.3443H84.0968C84.0968 66.3443 84.0745 66.4106 84.0523 66.4621C84.03 66.4621 84.0078 66.4621 83.9855 66.4842C83.941 66.58 83.8891 66.6905 83.8445 66.8084C83.8 67.1104 83.7481 67.4051 83.6813 67.7071C83.5132 68.2621 83.3426 68.7532 83.1695 69.1805V69.4309C83.1991 69.4604 83.2535 69.4751 83.3327 69.4751C83.4514 69.4088 83.5626 69.3351 83.6813 69.2688C83.9632 69.1804 84.2377 69.0847 84.5196 68.9889C85.1873 68.9742 85.6522 68.9742 85.9143 68.9889C86.2407 69.0552 86.5672 69.151 86.8862 69.2394C87.0939 69.3351 87.3016 69.4235 87.539 69.5414H88.1399C88.2066 69.5193 88.3031 69.4972 88.3921 69.4751C88.5331 69.4088 88.6963 69.313 88.8595 69.2246C89.2082 68.9963 89.5568 68.7384 89.9278 68.488C90.4619 68.0239 90.6251 67.9355 90.7438 67.7955C90.9293 67.6334 91.1147 67.4493 91.3224 67.2651C91.367 67.243 91.4189 67.2209 91.4857 67.1693C91.6934 66.8894 92.1607 66.4106 92.5762 65.9023C92.6726 65.7181 92.8062 65.556 93.3403 64.591C93.4071 64.3626 93.5035 64.1269 93.5925 63.8764C93.6148 63.7586 93.637 63.626 93.6593 63.486V62.6536C93.637 62.5873 93.6148 62.5136 93.5925 62.4473C93.4961 62.3515 93.4071 62.2631 93.2884 62.1453C93.1697 62.1232 93.0361 62.079 92.8952 62.0274C92.6429 62.0274 92.3833 62.0053 92.1088 61.9832ZM59.0147 67.0588C59.0147 67.0588 59.0147 67.0809 58.666 67.2209C58.6215 67.2651 58.5695 67.3167 58.5028 67.3609V67.6629C58.9528 68.1098 59.2941 68.4634 59.5265 68.7237C59.6897 68.9742 59.8529 69.232 60.0162 69.5046C60.0162 69.5267 60.0162 69.5709 60.0384 69.6225C60.0607 69.6446 60.1052 69.6887 60.1571 69.7403H60.5503C60.5948 69.7182 60.669 69.674 60.7358 69.6225C60.7803 69.5267 60.8322 69.4383 60.899 69.3204V69.0405C60.8544 68.8563 60.8025 68.6721 60.7358 68.488C60.6171 68.2817 60.5058 68.0754 60.3871 67.8692C60.2684 67.7071 60.1349 67.545 59.9939 67.383C59.8257 67.2602 59.67 67.1669 59.5265 67.103C59.3633 67.103 59.2001 67.0809 59.0147 67.0588ZM54.5116 68.1196C54.4226 68.2154 54.2297 68.2817 54.0739 68.3996C54.0294 68.4659 53.9329 68.4953 53.703 68.7458C53.6807 68.7458 53.6585 68.7458 53.6065 68.7679C53.3444 69.0773 53.1738 69.2615 53.0946 69.3204C53.0279 69.4604 52.9092 69.5488 52.8127 69.7108C52.7905 69.7108 52.7682 69.733 52.7237 69.7551C52.2118 70.5359 52.0931 70.7717 52.0041 70.8601C51.8187 71.2726 51.6109 71.6925 51.4032 72.1271C51.3364 72.4513 51.24 72.7754 51.151 73.0922V73.6005C51.151 73.6005 51.1955 73.6447 51.2178 73.6962H51.381C51.4477 73.652 51.5219 73.6005 51.6109 73.5563C51.6109 73.5342 51.6109 73.5121 51.6332 73.49C51.6777 73.4679 51.7519 73.4237 51.8187 73.3721C52.1896 73.0038 52.469 72.7115 52.657 72.4955C52.7534 72.3334 52.8647 72.245 52.9611 72.0829C53.1021 71.943 53.1911 71.7809 53.3988 71.5525C53.9107 70.8379 53.9329 70.7717 54.1184 70.5359C54.2124 70.3689 54.3138 70.2142 54.4226 70.0718C54.5858 69.7698 54.749 69.4751 54.9122 69.151C54.9567 69.011 55.0012 68.8489 55.0754 68.6869V68.2743C55.0754 68.2743 55.0531 68.208 55.0309 68.1565C54.8677 68.1565 54.7045 68.1344 54.519 68.1123L54.5116 68.1196ZM41.9297 68.208C41.9297 68.208 41.9297 68.2301 41.6997 68.2522C41.4698 68.3701 41.2324 68.4806 40.9801 68.5985C40.8169 68.7385 40.7279 68.7605 40.0306 69.2688C39.9119 69.4088 39.6596 69.6151 39.5409 69.7551C39.4742 69.7772 39.3777 69.9171 39.1478 70.1234C38.856 70.477 38.6928 70.6931 38.6581 70.7716C38.6581 70.7716 38.6136 70.7937 38.5617 70.8158C38.2501 71.3217 38.0647 71.6065 38.0053 71.6704C37.9113 71.8717 37.7951 72.0878 37.6566 72.3187C37.5899 72.547 37.5379 72.5986 37.4044 72.989V73.5194C37.4044 73.5194 37.4489 73.5636 37.4712 73.6152C37.5379 73.6152 37.6121 73.6152 37.7011 73.5931C38.1388 73.269 38.2353 73.1585 38.3985 73.0627C38.5617 72.9227 38.7249 72.7607 38.8881 72.5986C38.9326 72.5765 38.9846 72.5544 39.0513 72.5102C39.4 72.164 39.4223 72.0976 39.5632 72.0019C39.9119 71.6556 39.9341 71.5894 40.0751 71.4936C40.1938 71.3757 40.3051 71.2652 40.4238 71.1474C40.4238 71.1253 40.4238 71.1031 40.446 71.0516C40.587 70.9337 40.676 70.8011 40.7502 70.7716C41.3807 70.0129 41.4698 69.8508 41.6107 69.7108C41.8728 69.313 42.0657 68.9914 42.1894 68.7458C42.2042 68.5297 42.2042 68.3922 42.1894 68.3333C42.1597 68.3038 42.0756 68.2645 41.9371 68.2154L41.9297 68.208ZM81.3297 68.5322C81.1219 68.6942 80.892 68.8784 80.6546 69.0626C80.6546 69.0847 80.6546 69.1068 80.6323 69.1289C80.3801 69.313 80.2614 69.453 80.1427 69.4972C79.9127 69.7477 79.4231 70.1676 79.3266 70.2781C79.0447 70.5065 78.837 70.7422 78.6961 70.8306C78.5996 70.9706 77.8133 71.7514 77.6723 71.8472C77.5759 71.9872 77.4646 72.0755 76.7895 72.8417C76.6485 72.9596 76.5595 73.1216 76.2999 73.35C76.2702 73.4286 76.2158 73.5047 76.1367 73.5784C76.1367 73.5784 76.0922 73.5784 76.0699 73.6005C76.0699 73.6226 76.0699 73.6668 76.0476 73.7183C75.9685 73.7969 75.9067 73.8436 75.8622 73.8583C75.6545 74.1824 75.558 74.2487 75.5358 74.3445C75.2835 74.6244 75.2093 74.757 75.0684 74.897C75.0684 74.9412 75.0461 74.9928 75.0239 75.037C74.8829 75.2432 74.742 75.4495 74.5862 75.6852C74.5194 75.8915 74.423 76.0315 74.3785 76.1935V76.5619C74.3785 76.5619 74.423 76.6061 74.4452 76.6576C74.737 76.6429 74.9299 76.6208 75.0239 76.5913C75.38 76.3605 75.882 75.9995 76.5299 75.5084C77.4127 74.6318 77.5536 74.5434 77.6426 74.4034C77.7836 74.2635 77.9468 74.1235 78.11 73.9688C79.0373 72.8638 79.1115 72.8122 79.2005 72.6575C79.2945 72.5642 79.5121 72.2867 79.8534 71.8251C80.1798 71.2947 80.5284 70.7422 80.8771 70.1897C81.0403 69.8655 81.2035 69.5193 81.3667 69.1731C81.389 69.0552 81.4335 68.9447 81.4854 68.8268V68.5985C81.4409 68.5985 81.3964 68.5764 81.3222 68.5543L81.3297 68.5322ZM21.907 68.9963C21.907 68.9963 20.8388 69.2026 20.2082 69.3646C19.904 69.4825 19.6073 69.593 19.3031 69.7108C19.0954 69.8066 18.8654 69.9171 18.628 70.035C18.2349 70.2854 17.8417 70.5433 17.4411 70.7937C17.1147 71.0737 16.7882 71.3684 16.4693 71.6704C16.3283 71.8325 16.1873 71.9945 16.0538 72.1566C15.9302 72.3579 15.8214 72.5028 15.7274 72.5912C15.6829 72.7312 15.5642 72.8933 15.2155 73.6962C15.171 73.927 15.1487 74.1431 15.1487 74.3445C15.1784 74.4034 15.2254 74.4574 15.2897 74.5066C15.4133 74.5066 15.5518 74.4918 15.7051 74.4624C15.7497 74.4182 16.0316 74.3445 16.677 74.094C16.7215 74.0498 19.229 73.0332 19.2809 72.989C19.6073 72.8491 19.7482 72.827 20.9278 72.3187C21.0688 72.2303 22.8566 71.4641 23.1089 71.3242C23.1756 71.3021 23.2721 71.28 23.3611 71.2579C23.6875 71.0737 24.0807 70.9116 24.1252 70.8674C24.5406 70.7053 24.8893 70.5212 25.097 70.4549C25.1638 70.4107 25.2602 70.337 25.3493 70.2707C25.3641 70.0546 25.3641 69.9171 25.3493 69.8582C25.1638 69.7403 24.9783 69.6298 24.7929 69.5119C24.5307 69.4039 24.2216 69.2959 23.8655 69.1878C23.6133 69.1436 23.3537 69.0921 23.1014 69.0479C22.7083 69.0479 22.3151 69.0257 21.8922 69.0036L21.907 68.9963ZM120.433 72.0829C120.433 72.0829 120.433 72.105 119.713 72.3629C119.135 72.7975 119.112 72.8491 118.949 72.9596C118.702 73.2493 118.516 73.4949 118.393 73.6962C118.348 73.8141 118.296 73.9246 118.23 74.0425C118.185 74.2266 118.133 74.4108 118.089 74.6171V75.1475C118.111 75.2432 118.133 75.3316 118.185 75.4495C118.252 75.5674 118.326 75.6779 118.415 75.8178C118.511 75.8178 118.6 75.8178 118.697 75.7957C118.86 75.6558 119.023 75.5158 119.209 75.3832C119.646 74.9191 119.787 74.8307 119.884 74.6907C119.951 74.6244 120.025 74.5508 120.114 74.4845C120.277 74.2782 120.44 74.0498 120.626 73.8141C120.692 73.652 120.789 73.49 120.878 73.3058C120.9 73.21 120.922 73.1216 120.945 73.0038V72.4733C120.922 72.407 120.9 72.3334 120.856 72.245C120.777 72.2008 120.638 72.1468 120.44 72.0829H120.433ZM63.7996 72.2229C63.7996 72.2229 63.5177 72.3408 63.0133 72.6133C62.8723 72.7312 62.7313 72.8417 62.5978 72.9596C62.4346 73.1658 62.2491 73.3721 62.0637 73.6078C61.9672 73.8141 61.8782 73.9099 61.8114 74.1161C61.7818 74.1456 61.7199 74.3298 61.626 74.6686V75.4053C61.6705 75.5232 61.7447 75.6558 61.8114 75.7957L61.9079 75.8915C62.0711 75.8915 62.2343 75.8915 62.3975 75.8694C62.583 75.7515 62.7907 75.641 62.9984 75.5011C63.8367 74.8749 63.9999 74.7865 64.2521 74.5802C64.3708 74.4624 64.4821 74.3519 64.6008 74.234C64.7418 74.0277 64.8827 73.8215 65.0385 73.6078C65.0608 73.5415 65.083 73.4679 65.135 73.3795C65.1498 73.0897 65.1498 72.8736 65.135 72.7312C64.9965 72.5446 64.8877 72.4218 64.8085 72.3629C64.7121 72.3408 64.6231 72.3187 64.5266 72.2671C64.2967 72.2671 64.0593 72.245 63.807 72.2229H63.7996ZM99.7202 73.1879C99.7202 73.1879 99.7202 73.21 99.0674 73.3721C98.3478 73.7183 98.1401 73.8583 98.0437 73.8804C97.6876 74.1554 97.3537 74.4403 97.0421 74.7349C96.9457 74.897 96.8567 74.9633 96.8122 75.0812C96.7899 75.0812 96.7677 75.1033 96.7157 75.1254C96.6712 75.2629 96.5871 75.447 96.4635 75.6779V76.304C96.5303 76.3998 96.6044 76.5103 96.6935 76.6282C96.7602 76.6503 96.8344 76.6724 96.9234 76.6945H97.784C97.9027 76.6724 98.014 76.6503 98.1327 76.6282C98.3849 76.5103 98.6446 76.3998 98.8968 76.2819C98.9932 76.1862 99.2009 76.0978 99.7351 75.7073C99.7351 75.6852 99.7351 75.6631 99.7573 75.641C99.876 75.5526 99.9873 75.4569 100.128 75.339C100.247 75.1769 100.432 74.9928 100.781 74.5287C100.848 74.3445 100.944 74.1382 101.033 73.932V73.7036C100.989 73.5808 100.927 73.4654 100.848 73.3574C100.759 73.3353 100.64 73.2911 100.521 73.2395C100.269 73.2395 99.9873 73.2174 99.7054 73.1953L99.7202 73.1879ZM47.7533 73.9541C47.7533 73.9541 47.7533 73.9762 46.596 74.1382C46.4105 74.1824 46.2251 74.2561 46.0396 74.3224C45.8096 74.4403 45.5722 74.5508 45.32 74.6907C45.1568 74.8307 44.9936 74.9707 44.8304 75.1254C44.7339 75.2874 44.6449 75.4495 44.5262 75.6337C44.4965 75.7564 44.4817 75.9553 44.4817 76.2304C44.504 76.3261 44.5262 76.4145 44.5707 76.5324C44.7117 76.7387 44.7339 76.8344 44.823 76.9228C44.9862 76.9891 45.1494 77.0849 45.3126 77.1733C45.4535 77.1954 45.5945 77.2175 45.7503 77.2691H46.3809C46.6331 77.2249 46.915 77.1733 47.1969 77.107C47.4491 76.9891 47.731 76.8786 48.0129 76.7608C48.1984 76.6208 48.3839 76.4808 48.5916 76.3482C48.6707 76.2402 48.7325 76.1714 48.777 76.142C48.8216 76.0241 48.8735 75.9136 48.918 75.7736C48.9477 75.0664 48.9551 74.5139 48.9403 74.1161C48.8611 74.0523 48.777 74.0056 48.688 73.9762C48.3839 73.9762 48.0871 73.9762 47.7607 73.9541H47.7533ZM31.3138 74.3445C31.3138 74.3445 31.3138 74.3666 31.0096 74.3887C30.7574 74.455 30.4977 74.5508 30.2455 74.6392C30.0131 74.8061 29.8573 74.9068 29.7781 74.9412C29.61 75.1082 29.4542 75.285 29.3108 75.4716C29.2885 75.5379 29.244 75.6337 29.1921 75.7221C29.1921 75.9283 29.1921 76.1346 29.2143 76.3409C29.338 76.5275 29.4616 76.6895 29.5853 76.8271C29.7534 76.9351 29.9092 77.0186 30.0526 77.0775C30.1713 77.0996 30.2826 77.1217 30.4013 77.1438H31.3509C31.6278 77.0996 31.9147 77.0309 32.2114 76.9376C32.2559 76.8934 32.4191 76.8713 32.7678 76.6871C32.8346 76.665 32.9088 76.6429 32.9755 76.6208C34.0438 76.0241 34.1402 75.9283 34.4592 75.7442C34.6126 75.6214 34.7288 75.506 34.8079 75.3979C34.8079 75.2113 34.7931 75.0812 34.7634 75.0075C34.5334 74.9117 34.296 74.8233 34.0438 74.7055C33.6432 74.5974 33.1165 74.482 32.4636 74.3592C32.0927 74.3592 31.6995 74.3592 31.2989 74.3371L31.3138 74.3445ZM87.0197 75.8178C87.0197 75.8178 86.5523 75.9062 84.349 76.4145C83.8149 76.5766 83.2585 76.7387 82.7021 76.9228C82.1581 77.1536 81.7871 77.3231 81.5893 77.4311C81.4484 77.5269 81.3074 77.6153 81.1739 77.7111C81.1071 77.7774 81.0329 77.8731 80.9661 77.9615C80.9439 78.0057 80.9216 78.0794 80.8994 78.1457C80.8994 78.352 80.8994 78.5803 80.9216 78.8161C80.9859 79.0469 81.07 79.2851 81.1739 79.5306C81.2184 79.6264 81.2926 79.7148 81.3593 79.8327C81.4978 79.9702 81.6066 80.093 81.6857 80.201C81.7649 80.2157 81.9429 80.2992 82.2199 80.4515C82.524 80.4515 82.8208 80.4515 83.1249 80.4736C83.2214 80.4515 83.3104 80.4294 83.4291 80.4073C83.5701 80.341 83.7333 80.2673 83.8965 80.201C84.7125 79.6043 84.757 79.5306 84.898 79.4643C85.128 79.2139 85.3876 78.956 85.6398 78.6835C86.0108 78.1531 86.3817 77.6227 86.7749 77.0923C86.8416 76.9081 86.9381 76.7902 87.2645 76.1272V75.8989C87.1977 75.8768 87.1235 75.8547 87.0345 75.8326L87.0197 75.8178Z" fill="#1D1D1B"/>
    </g>
    <defs>
        <clipPath id="clip0_225_807">
            <rect width="143" height="142" fill="white"/>
        </clipPath>
    </defs>
</svg>
