<svg width="187" height="105" viewBox="0 0 187 105" fill="none" xmlns="http://www.w3.org/2000/svg">
    <g clip-path="url(#clip0_236_1518)">
        <path fill-rule="evenodd" clip-rule="evenodd" d="M20.8565 94.0894H14.6297C13.7733 95.4212 13.1526 96.4701 12.7676 97.2284C12.3944 97.9905 12.1547 98.6426 12.0565 99.1848L12.0133 99.3694C11.8326 99.393 11.699 99.4087 11.6126 99.4166C11.534 99.4166 11.4633 99.4166 11.3926 99.4166C10.8936 99.4166 10.5322 99.3144 10.3083 99.118C10.0844 98.9098 10.0097 98.6112 10.0804 98.2183C10.1511 97.8294 11.204 96.1362 13.2351 93.1466C15.2701 90.153 17.0772 87.3716 18.6565 84.8023C18.5661 84.6255 18.4601 84.4566 18.3461 84.2955C18.2361 84.1266 18.1183 83.9576 17.9886 83.7887C18.3383 83.4351 18.6408 83.1798 18.9001 83.0187C19.1672 82.8576 19.4186 82.7751 19.6583 82.7751C19.9883 82.7751 20.2672 82.9912 20.4951 83.4233C20.7308 83.8437 20.9665 84.5626 21.1944 85.5841C21.3947 86.468 21.6658 87.6976 22.0076 89.2769C23.1626 94.6394 24.0858 97.7194 24.7772 98.5169C24.4276 98.8391 24.1172 99.0708 23.8461 99.2083C23.5751 99.3458 23.3079 99.4166 23.0369 99.4166C22.2629 99.4166 21.6265 98.0966 21.1236 95.4566C21.0058 94.8751 20.9194 94.4194 20.8565 94.0894ZM19.2379 86.6683L18.4483 87.9569C17.1911 90.0273 16.2679 91.5437 15.6747 92.5101H20.5186C20.3222 91.4612 20.114 90.4516 19.8979 89.4851C19.6819 88.5108 19.4619 87.5719 19.2379 86.6683ZM27.5233 97.5505C27.7708 97.6958 28.0183 97.8059 28.2579 97.8726C28.4976 97.9434 28.7372 97.9787 28.9769 97.9787C29.5269 97.9787 29.9983 97.8491 30.3833 97.5858C30.7683 97.3187 31.0001 96.9691 31.0786 96.5409C31.1415 96.203 31.1061 95.8887 30.9726 95.5941C30.8429 95.3033 30.5601 94.9498 30.1319 94.5373C30.0572 94.4744 29.959 94.3841 29.8372 94.2623C28.7333 93.1858 28.2579 92.2351 28.4111 91.4062C28.4701 91.0683 28.5997 90.7305 28.7922 90.3966C28.9808 90.0587 29.2322 89.7366 29.5426 89.4262C30.1279 88.8526 30.7722 88.4166 31.4715 88.118C32.1786 87.8076 32.9094 87.6544 33.6597 87.6544C34.029 87.6544 34.2961 87.7291 34.4611 87.8744C34.6301 88.0119 34.689 88.2162 34.6379 88.4833C34.6144 88.613 34.5515 88.7741 34.4494 88.9548C34.3472 89.1316 34.1901 89.3594 33.9819 89.6344C33.7894 89.5519 33.6047 89.4891 33.4279 89.4498C33.2511 89.4066 33.0744 89.383 32.8976 89.383C32.2611 89.383 31.7151 89.5401 31.2594 89.8544C30.8115 90.1608 30.5444 90.5576 30.454 91.0487C30.3558 91.5869 30.7565 92.3137 31.6601 93.2251C31.884 93.4569 32.0569 93.6376 32.1708 93.7673C32.5479 94.1641 32.8111 94.5608 32.9565 94.9498C33.1019 95.3348 33.1372 95.7316 33.0626 96.1362C32.8858 97.0948 32.3122 97.9237 31.334 98.623C30.9647 98.8823 30.5797 99.0944 30.179 99.2555C30.0258 99.4126 29.8922 99.558 29.7783 99.6916C29.5897 99.9312 29.4836 100.124 29.4561 100.269C29.4208 100.465 29.5701 100.611 29.9079 100.705C29.9511 100.721 29.9826 100.733 30.0022 100.74C30.4265 100.854 30.7015 101.008 30.8272 101.2C30.9647 101.385 31.0001 101.652 30.9333 102.005C30.8115 102.689 30.4383 103.263 29.8176 103.73C29.1929 104.198 28.4897 104.433 27.7079 104.433C27.4408 104.433 27.2444 104.382 27.1265 104.284C27.0165 104.174 26.9811 104.013 27.0165 103.801C27.0283 103.746 27.0479 103.679 27.0794 103.593C27.1186 103.51 27.1736 103.38 27.2522 103.212C27.3544 103.243 27.4447 103.267 27.5272 103.282C27.6176 103.298 27.7001 103.306 27.7747 103.306C28.1754 103.306 28.5172 103.208 28.8079 103.019C29.1026 102.827 29.2754 102.591 29.3265 102.316C29.3619 102.123 29.3344 101.982 29.2519 101.892C29.1694 101.797 28.9494 101.723 28.5919 101.66C28.1911 101.581 27.9436 101.491 27.8494 101.385C27.7551 101.275 27.7236 101.114 27.7629 100.902C27.8061 100.678 27.9594 100.41 28.2226 100.096C28.3404 99.9548 28.4936 99.8016 28.6744 99.6287C28.474 99.6484 28.2697 99.6562 28.0615 99.6562C27.6372 99.6562 27.3269 99.5737 27.1265 99.4048C26.9379 99.2358 26.8672 98.9962 26.9222 98.6898C26.9497 98.5444 27.0086 98.3833 27.1029 98.2066C27.1972 98.0298 27.3386 97.8137 27.5233 97.5505ZM38.4997 98.898C38.1461 99.0669 37.8279 99.1926 37.5451 99.2791C37.2622 99.3537 36.9911 99.393 36.7279 99.393C36.3979 99.393 36.1819 99.2869 36.0758 99.0708C35.9776 98.8469 35.9776 98.4619 36.0797 97.908C36.1111 97.7233 36.3704 96.5841 36.8497 94.4901C37.3369 92.3962 37.7572 90.3966 38.1029 88.4833C38.4486 86.5976 38.6411 85.3012 38.6844 84.5941C38.7276 83.8908 38.6804 83.3487 38.5429 82.9716C38.9044 82.8026 39.2265 82.6808 39.5094 82.6062C39.8001 82.5198 40.0554 82.4766 40.2794 82.4766C40.6408 82.4766 40.8647 82.5826 40.959 82.7869C41.0611 82.9873 41.0572 83.388 40.9472 83.9851C40.9236 84.1226 40.8333 84.5116 40.6801 85.148C40.0083 87.9019 39.4386 90.5655 38.9711 93.1466C40.8294 91.8344 42.2672 90.7462 43.2926 89.8898C44.314 89.0294 45.0133 88.3223 45.3904 87.7723C45.8854 87.9648 46.2233 88.1494 46.404 88.3341C46.5847 88.5187 46.6554 88.7348 46.6083 88.9783C46.5494 89.3083 45.4061 90.2316 43.1826 91.7519C42.1926 92.4276 41.4029 92.9737 40.8136 93.3862C40.9354 93.5237 41.1083 93.7201 41.3401 93.9716C43.8308 96.8198 45.3315 98.2419 45.8461 98.2419H45.8894C45.7361 98.7016 45.5397 99.0551 45.2961 99.3026C45.0526 99.5383 44.7736 99.6562 44.4594 99.6562C43.9447 99.6562 43.0058 98.8037 41.6347 97.0908C40.5426 95.7276 39.6076 94.6237 38.8297 93.7909L38.7354 94.3055C38.5115 95.5508 38.3779 96.533 38.3386 97.2519C38.3072 97.9748 38.3622 98.5209 38.4997 98.898ZM51.2204 98.8744C50.8669 99.0512 50.5369 99.1808 50.2304 99.2673C49.9201 99.3498 49.6333 99.393 49.3661 99.393C48.989 99.393 48.7494 99.2948 48.6511 99.0944C48.5569 98.8862 48.5647 98.4776 48.6786 97.8609C48.7415 97.5112 48.9183 96.7176 49.2129 95.4919C49.5036 94.2662 49.7315 93.2094 49.8926 92.3294C50.0654 91.3669 50.1636 90.5891 50.1794 89.9919C50.1951 89.3948 50.1401 88.8841 50.0104 88.4598C50.3247 88.2908 50.639 88.1651 50.9533 88.0826C51.2676 87.9884 51.5701 87.9451 51.8647 87.9451C52.2183 87.9451 52.4422 88.0316 52.5404 88.2083C52.6386 88.3773 52.6465 88.6955 52.564 89.163C52.5404 89.2848 52.3833 89.9566 52.0926 91.1783C51.8019 92.3962 51.5544 93.5551 51.3579 94.6512C51.1694 95.6805 51.0633 96.533 51.0397 97.2048C51.024 97.8805 51.0869 98.4383 51.2204 98.8744ZM58.5354 90.5576C58.3665 91.3983 58.1779 92.3098 57.9697 93.2841C57.7733 94.2505 57.6633 94.7926 57.6397 94.9183C57.459 95.9123 57.3569 96.7216 57.3372 97.3462C57.3136 97.9669 57.3647 98.4855 57.4904 98.898C57.1369 99.0669 56.8186 99.1926 56.5358 99.2791C56.2529 99.3537 55.9819 99.393 55.7186 99.393C55.3651 99.393 55.1451 99.2948 55.0508 99.0944C54.9565 98.8941 54.9644 98.4776 55.0822 97.8412C55.1058 97.6998 55.2747 96.9926 55.5851 95.7119C55.9033 94.4233 56.1665 93.2055 56.3747 92.0623C56.5711 90.9819 56.6811 90.1451 56.7047 89.5559C56.7283 88.9626 56.6851 88.4362 56.579 87.9648C56.7597 87.9137 56.9326 87.8705 57.1094 87.8391C57.2901 87.8076 57.4629 87.7958 57.624 87.7958C58.0286 87.7958 58.3311 87.9098 58.5276 88.1376C58.724 88.3616 58.8026 88.6798 58.7554 89.0962C59.4076 88.6798 60.0754 88.3616 60.759 88.1376C61.4465 87.9098 62.1026 87.7958 62.7311 87.7958C63.5011 87.7958 64.1572 87.9648 64.6994 88.2987C65.2533 88.6287 65.6383 89.0923 65.8544 89.6816C65.9997 90.0862 66.0704 90.5616 66.0665 91.1076C66.0665 91.6458 65.9683 92.4669 65.7679 93.5708C65.7444 93.6848 65.6894 93.9598 65.5951 94.388C65.5086 94.8162 65.4379 95.1894 65.379 95.5037C65.2376 96.2934 65.1629 96.973 65.159 97.5387C65.1629 98.1083 65.2376 98.5523 65.3869 98.8744C64.994 99.0512 64.6561 99.1808 64.3733 99.2673C64.0983 99.3498 63.8508 99.393 63.6347 99.393C63.2772 99.393 63.0415 99.3026 62.9276 99.118C62.8254 98.9255 62.8215 98.568 62.9158 98.0455C62.9708 97.7312 63.1201 97.0555 63.3519 96.0223C63.5954 94.9773 63.784 94.0933 63.9176 93.3626C64.169 91.9758 64.1415 90.9701 63.8311 90.3494C63.5247 89.7208 62.904 89.4066 61.969 89.4066C61.4936 89.4066 60.9594 89.5048 60.3701 89.7051C59.7847 89.8976 59.1719 90.1805 58.5354 90.5576ZM81.6079 92.4669C80.6061 89.8819 79.734 87.9294 78.9915 86.6094C78.2529 85.2894 77.6479 84.6098 77.1765 84.5705C77.479 83.9341 77.7933 83.4548 78.1311 83.1326C78.4651 82.8026 78.8147 82.6376 79.1761 82.6376C79.3726 82.6376 79.5454 82.6926 79.6869 82.7987C79.8283 82.9087 79.9658 83.0973 80.1033 83.3644C80.1583 83.4705 80.3036 83.828 80.5394 84.433C81.3801 86.6448 82.2522 88.723 83.1558 90.6716C85.124 88.4244 86.5186 86.7469 87.3397 85.643C88.1647 84.5312 88.6204 83.7337 88.7069 83.2505C88.7186 83.1798 88.7226 83.1169 88.7186 83.0658C88.7226 83.003 88.7147 82.948 88.699 82.9048C88.974 82.8341 89.2294 82.783 89.4651 82.7555C89.7086 82.7241 89.9286 82.7083 90.129 82.7083C90.4276 82.7083 90.6436 82.7791 90.7772 82.9283C90.9226 83.0658 90.9697 83.2662 90.9226 83.5373C90.8479 83.9341 89.6379 85.4741 87.2847 88.1494C85.8429 89.7916 84.6761 91.1351 83.7804 92.1801C83.7451 92.3608 83.694 92.6359 83.6194 92.9934C83.5486 93.3469 83.4976 93.6062 83.4661 93.7673C83.2226 95.0991 83.0851 96.1716 83.0458 96.9769C83.0065 97.7744 83.0615 98.3912 83.2147 98.8273C82.8101 99.0198 82.4447 99.1612 82.1108 99.2555C81.7808 99.3458 81.4704 99.393 81.1758 99.393C80.7869 99.393 80.5315 99.2909 80.4176 99.0826C80.3036 98.8666 80.2958 98.4933 80.394 97.9551C80.4136 97.8491 80.559 97.193 80.8301 95.9869C81.1129 94.773 81.3722 93.6023 81.6079 92.4669ZM92.934 99.6798C91.1544 99.6798 89.8029 99.1337 88.8836 98.0337C87.9644 96.9376 87.6579 95.5312 87.9722 93.8105C88.3061 91.9876 89.1704 90.5066 90.5769 89.3712C91.9794 88.228 93.6372 87.6544 95.5465 87.6544C97.2751 87.6544 98.5951 88.1966 99.5104 89.2769C100.434 90.3612 100.744 91.7284 100.442 93.3862C100.32 94.0541 100.092 94.7141 99.7619 95.3662C99.4358 96.0183 99.0508 96.5723 98.6029 97.0358C97.7622 97.9158 96.8665 98.5798 95.9197 99.0237C94.9808 99.4637 93.9829 99.6798 92.934 99.6798ZM93.374 98.0219C94.6154 98.0219 95.7076 97.6094 96.6504 96.7805C97.5972 95.9437 98.1904 94.8751 98.4301 93.5708C98.6619 92.298 98.4576 91.2608 97.8211 90.4633C97.1926 89.658 96.2576 89.2573 95.0161 89.2573C93.7472 89.2573 92.6472 89.6737 91.7161 90.5105C90.789 91.3394 90.1997 92.4394 89.9522 93.8105C89.7283 95.0323 89.9404 96.0419 90.5847 96.8394C91.2329 97.6291 92.1601 98.0219 93.374 98.0219ZM105.407 98.8744C105.054 99.0512 104.724 99.1808 104.425 99.2673C104.134 99.3498 103.867 99.393 103.62 99.393C103.254 99.393 103.019 99.2909 102.917 99.0826C102.818 98.8666 102.822 98.4698 102.928 97.8844C103.062 97.1576 103.357 95.7708 103.812 93.7319C104.268 91.6851 104.618 89.9958 104.857 88.668C105.156 87.0258 105.333 85.7844 105.388 84.9398C105.443 84.0873 105.391 83.4391 105.234 82.9951C105.572 82.8183 105.894 82.6887 106.193 82.6062C106.492 82.5198 106.767 82.4766 107.022 82.4766C107.403 82.4766 107.647 82.5748 107.753 82.7673C107.855 82.9558 107.851 83.3487 107.745 83.938C107.654 84.4291 107.379 85.7176 106.916 87.8037C106.452 89.8937 106.075 91.7283 105.784 93.3155C105.474 95.0205 105.293 96.2619 105.246 97.0437C105.203 97.8294 105.254 98.4383 105.407 98.8744ZM117.959 90.1058C117.692 89.9212 117.425 89.7916 117.154 89.7169C116.886 89.6305 116.58 89.5873 116.234 89.5873C115.068 89.5873 114.023 90.0076 113.095 90.8444C112.168 91.6812 111.587 92.738 111.355 94.0187C111.143 95.1776 111.32 96.0969 111.878 96.7805C112.443 97.4562 113.315 97.7941 114.49 97.7941C114.997 97.7941 115.468 97.7233 115.908 97.5858C116.348 97.4483 116.773 97.2323 117.185 96.9416C117.291 97.1341 117.362 97.3187 117.397 97.4955C117.44 97.6723 117.448 97.8412 117.421 98.0023C117.33 98.4855 116.981 98.8666 116.372 99.1494C115.759 99.4362 114.973 99.5776 114.015 99.5776C112.333 99.5776 111.056 99.0983 110.18 98.1398C109.304 97.1733 109.006 95.9162 109.289 94.3762C109.63 92.5023 110.554 90.9308 112.058 89.658C113.563 88.3851 115.225 87.7487 117.044 87.7487C117.708 87.7487 118.187 87.843 118.474 88.0355C118.768 88.228 118.882 88.5187 118.808 88.9116C118.772 89.108 118.686 89.3044 118.552 89.4969C118.419 89.6816 118.222 89.8858 117.959 90.1058ZM127.529 97.7233C126.893 98.3598 126.248 98.8273 125.592 99.1298C124.94 99.4283 124.241 99.5776 123.486 99.5776C122.221 99.5776 121.322 99.1966 120.784 98.4384C120.257 97.6723 120.124 96.5644 120.387 95.1226C120.442 94.8162 120.564 94.2544 120.752 93.4333C120.941 92.6044 121.082 91.9287 121.177 91.4062C121.302 90.7108 121.369 90.1255 121.369 89.658C121.369 89.1826 121.306 88.7701 121.18 88.4166C121.558 88.2476 121.876 88.1258 122.143 88.0473C122.422 87.9648 122.646 87.9216 122.823 87.9216C123.184 87.9216 123.412 88.0119 123.51 88.1966C123.616 88.3733 123.624 88.7033 123.538 89.1866C123.467 89.5716 123.302 90.3062 123.043 91.3944C122.783 92.4787 122.591 93.3666 122.465 94.0658C122.198 95.5312 122.19 96.5487 122.438 97.1144C122.689 97.6762 123.251 97.9551 124.115 97.9551C124.751 97.9551 125.368 97.8019 125.961 97.4955C126.563 97.1891 127.179 96.7058 127.812 96.0458C127.934 95.5548 128.048 95.0401 128.161 94.5019C128.275 93.9598 128.393 93.3626 128.511 92.7183C128.7 91.6773 128.806 90.8051 128.825 90.1058C128.853 89.4026 128.794 88.8448 128.645 88.4401C129.022 88.2633 129.352 88.1298 129.635 88.0473C129.918 87.9648 130.173 87.9216 130.397 87.9216C130.731 87.9216 130.947 88.0276 131.037 88.2437C131.131 88.4558 131.112 88.9233 130.982 89.6344C130.919 89.9723 130.762 90.7187 130.507 91.8658C130.259 93.0091 130.063 93.9873 129.914 94.8005C129.705 95.9358 129.595 96.8158 129.572 97.4366C129.56 98.0494 129.635 98.5287 129.796 98.8744C129.375 99.0591 129.034 99.1926 128.766 99.2791C128.499 99.3537 128.271 99.393 128.091 99.393C127.761 99.393 127.553 99.283 127.47 99.0591C127.391 98.8273 127.411 98.3833 127.529 97.7233ZM136.125 98.8744C135.771 99.0512 135.445 99.1808 135.146 99.2673C134.852 99.3498 134.585 99.393 134.341 99.393C133.972 99.393 133.736 99.2909 133.638 99.0826C133.536 98.8666 133.54 98.4698 133.646 97.8844C133.779 97.1576 134.074 95.7708 134.53 93.7319C134.985 91.6851 135.335 89.9958 135.579 88.668C135.877 87.0258 136.054 85.7844 136.105 84.9398C136.16 84.0873 136.109 83.4391 135.956 82.9951C136.294 82.8183 136.612 82.6887 136.91 82.6062C137.209 82.5198 137.488 82.4766 137.739 82.4766C138.124 82.4766 138.368 82.5748 138.47 82.7673C138.572 82.9558 138.572 83.3487 138.462 83.938C138.376 84.4291 138.097 85.7176 137.633 87.8037C137.17 89.8937 136.793 91.7283 136.502 93.3155C136.195 95.0205 136.015 96.2619 135.964 97.0437C135.92 97.8294 135.975 98.4383 136.125 98.8744ZM147.671 97.7233C147.034 98.3598 146.39 98.8273 145.734 99.1298C145.082 99.4283 144.379 99.5776 143.628 99.5776C142.363 99.5776 141.464 99.1966 140.925 98.4384C140.395 97.6723 140.265 96.5644 140.529 95.1226C140.584 94.8162 140.705 94.2544 140.894 93.4333C141.083 92.6044 141.224 91.9287 141.318 91.4062C141.444 90.7108 141.511 90.1255 141.511 89.658C141.511 89.1826 141.448 88.7701 141.322 88.4166C141.699 88.2476 142.018 88.1258 142.285 88.0473C142.564 87.9648 142.788 87.9216 142.964 87.9216C143.326 87.9216 143.554 88.0119 143.652 88.1966C143.758 88.3733 143.766 88.7033 143.679 89.1866C143.609 89.5716 143.444 90.3062 143.184 91.3944C142.925 92.4787 142.733 93.3666 142.607 94.0658C142.34 95.5312 142.332 96.5487 142.579 97.1144C142.831 97.6762 143.393 97.9551 144.257 97.9551C144.893 97.9551 145.51 97.8019 146.103 97.4955C146.704 97.1891 147.321 96.7058 147.954 96.0458C148.075 95.5548 148.189 95.0401 148.303 94.5019C148.417 93.9598 148.535 93.3626 148.653 92.7183C148.842 91.6773 148.944 90.8051 148.963 90.1058C148.995 89.4026 148.936 88.8448 148.786 88.4401C149.164 88.2633 149.494 88.1298 149.776 88.0473C150.059 87.9648 150.315 87.9216 150.539 87.9216C150.873 87.9216 151.089 88.0276 151.179 88.2437C151.273 88.4558 151.254 88.9233 151.124 89.6344C151.061 89.9723 150.904 90.7187 150.649 91.8658C150.401 93.0091 150.205 93.9873 150.055 94.8005C149.847 95.9358 149.733 96.8158 149.714 97.4366C149.702 98.0494 149.776 98.5287 149.938 98.8744C149.517 99.0591 149.175 99.1926 148.908 99.2791C148.641 99.3537 148.413 99.393 148.229 99.393C147.903 99.393 147.694 99.283 147.612 99.0591C147.533 98.8273 147.553 98.3833 147.671 97.7233ZM155.999 95.0323C155.324 94.6551 154.848 94.1916 154.573 93.6376C154.306 93.0798 154.239 92.4355 154.373 91.7048C154.585 90.5341 155.182 89.5676 156.164 88.8055C157.158 88.0394 158.321 87.6544 159.653 87.6544C160.038 87.6544 160.419 87.7133 160.796 87.8273C161.173 87.9451 161.554 88.1141 161.935 88.3341C162.839 88.1062 163.511 87.898 163.959 87.7133C164.406 87.5208 164.709 87.3283 164.858 87.1398C164.98 87.3008 165.063 87.4698 165.098 87.6426C165.145 87.8194 165.149 88.0041 165.114 88.1966C165.043 88.5894 164.839 88.8919 164.501 89.1041C164.171 89.3123 163.64 89.4655 162.91 89.5676C163.122 89.9094 163.263 90.2551 163.33 90.6008C163.397 90.9466 163.397 91.308 163.33 91.6851C163.134 92.7498 162.556 93.6416 161.598 94.3644C160.639 95.0794 159.535 95.433 158.286 95.433C158.133 95.433 157.968 95.4291 157.791 95.4212C157.626 95.4094 157.457 95.3898 157.284 95.3662C157.111 95.5116 156.974 95.6569 156.871 95.8023C156.769 95.9398 156.706 96.0773 156.683 96.2187C156.585 96.7451 157.245 97.1733 158.659 97.4955C158.989 97.5701 159.248 97.6291 159.433 97.6683C160.812 98.0062 161.715 98.3951 162.14 98.8391C162.568 99.2791 162.709 99.9037 162.56 100.717C162.348 101.884 161.649 102.846 160.458 103.604C159.276 104.363 157.861 104.744 156.211 104.744C154.675 104.744 153.52 104.429 152.746 103.801C151.973 103.164 151.682 102.308 151.878 101.235C152.016 100.481 152.354 99.8212 152.896 99.2555C153.446 98.678 154.184 98.2066 155.108 97.8412C154.954 97.6723 154.844 97.4994 154.778 97.3226C154.719 97.1458 154.707 96.9573 154.742 96.7569C154.789 96.5055 154.915 96.2344 155.119 95.9516C155.331 95.6687 155.626 95.3623 155.999 95.0323ZM158.455 93.9951C159.236 93.9951 159.924 93.7712 160.513 93.3155C161.11 92.8558 161.472 92.2823 161.598 91.5908C161.727 90.8719 161.586 90.2905 161.177 89.8544C160.773 89.4105 160.175 89.1866 159.378 89.1866C158.557 89.1866 157.854 89.4066 157.264 89.8426C156.691 90.2708 156.337 90.8405 156.208 91.5437C156.078 92.2587 156.219 92.8441 156.636 93.3076C157.06 93.7673 157.665 93.9951 158.455 93.9951ZM156.113 98.6701C156.117 98.6701 156.117 98.6701 156.121 98.6662H156.098C156.101 98.6701 156.105 98.6701 156.113 98.6701ZM154.51 99.613C154.129 99.9783 153.894 100.403 153.807 100.878C153.681 101.581 153.886 102.155 154.428 102.591C154.97 103.023 155.76 103.235 156.797 103.235C157.803 103.235 158.651 103.043 159.339 102.662C160.034 102.269 160.435 101.77 160.545 101.165C160.71 100.253 159.299 99.4362 156.306 98.7133C156.223 98.6937 156.156 98.678 156.113 98.6701C155.434 98.9216 154.899 99.2358 154.51 99.613ZM159.995 86.1733C159.134 86.1733 158.4 85.9023 157.795 85.368C157.194 84.8219 156.95 84.2483 157.056 83.6512C157.08 83.5216 157.135 83.4155 157.221 83.3291C157.311 83.2466 157.414 83.2033 157.52 83.2033C157.543 83.2033 157.834 83.3998 158.392 83.7887C158.958 84.1816 159.598 84.378 160.321 84.378C160.741 84.378 161.138 84.3269 161.511 84.2287C161.88 84.1187 162.254 83.9498 162.627 83.7219C162.705 83.6748 162.804 83.6041 162.929 83.5137C163.204 83.3055 163.413 83.2033 163.55 83.2033C163.656 83.2033 163.735 83.2466 163.778 83.3291C163.833 83.4076 163.849 83.5137 163.825 83.6512C163.715 84.2562 163.263 84.8298 162.478 85.368C161.688 85.9023 160.859 86.1733 159.995 86.1733ZM173.544 97.7233C172.904 98.3598 172.26 98.8273 171.608 99.1298C170.955 99.4283 170.252 99.5776 169.502 99.5776C168.237 99.5776 167.333 99.1966 166.795 98.4384C166.269 97.6723 166.135 96.5644 166.398 95.1226C166.453 94.8162 166.575 94.2544 166.764 93.4333C166.952 92.6044 167.094 91.9287 167.192 91.4062C167.318 90.7108 167.38 90.1255 167.38 89.658C167.384 89.1826 167.321 88.7701 167.192 88.4166C167.569 88.2476 167.891 88.1258 168.158 88.0473C168.433 87.9648 168.661 87.9216 168.838 87.9216C169.199 87.9216 169.427 88.0119 169.521 88.1966C169.628 88.3733 169.639 88.7033 169.549 89.1866C169.482 89.5716 169.317 90.3062 169.058 91.3944C168.799 92.4787 168.606 93.3666 168.48 94.0658C168.213 95.5312 168.201 96.5487 168.453 97.1144C168.704 97.6762 169.262 97.9551 170.13 97.9551C170.767 97.9551 171.38 97.8019 171.973 97.4955C172.574 97.1891 173.191 96.7058 173.827 96.0458C173.945 95.5548 174.063 95.0401 174.177 94.5019C174.291 93.9598 174.405 93.3626 174.523 92.7183C174.711 91.6773 174.817 90.8051 174.837 90.1058C174.864 89.4026 174.805 88.8448 174.656 88.4401C175.033 88.2633 175.367 88.1298 175.65 88.0473C175.933 87.9648 176.184 87.9216 176.408 87.9216C176.746 87.9216 176.962 88.0276 177.053 88.2437C177.143 88.4558 177.123 88.9233 176.994 89.6344C176.935 89.9723 176.774 90.7187 176.518 91.8658C176.271 93.0091 176.074 93.9873 175.929 94.8005C175.721 95.9358 175.607 96.8158 175.587 97.4366C175.575 98.0494 175.646 98.5287 175.807 98.8744C175.391 99.0591 175.049 99.1926 174.778 99.2791C174.511 99.3537 174.287 99.393 174.102 99.393C173.772 99.393 173.568 99.283 173.485 99.0591C173.403 98.8273 173.423 98.3833 173.544 97.7233Z" fill="#002857"/>
        <path d="M11.0391 69.4333C10.6737 69.449 10.4183 69.6258 10.2848 69.9598C10.1198 70.384 10.4066 70.6198 10.6894 70.8476C10.9094 70.8476 11.1294 70.8476 11.3494 70.8476C11.3573 70.714 11.4948 70.6983 11.5616 70.6237C11.7658 70.4037 11.8837 70.164 11.7501 69.8615C11.6126 69.5551 11.3691 69.4215 11.0391 69.4333Z" fill="#002857"/>
        <path d="M72.1153 55.5414C71.7578 55.5885 71.636 55.6946 71.6439 56.0835C71.691 58.7982 71.7107 61.5128 71.7303 64.2235C71.7421 65.2568 71.4867 65.5121 70.4614 65.5082C66.0967 65.4885 61.7321 65.465 57.3675 65.4414C52.3585 65.4139 47.3535 65.3628 42.3446 65.351C37.9485 65.3432 33.5525 65.3471 29.1564 65.3943C21.8689 65.4768 14.5853 65.351 7.30175 65.2332C7.03853 65.2293 6.74782 65.2685 6.56317 65.025C6.42567 64.8521 6.26067 64.8325 6.06817 64.8364C5.67532 64.8482 5.27853 64.8639 4.8896 64.8325C4.49282 64.7971 4.48889 64.9739 4.57925 65.2685C4.87782 66.2232 5.85603 66.9343 6.95603 66.9578C8.4646 66.9893 9.96925 67.0246 11.4778 67.0364C20.6314 67.1071 29.785 67.0639 38.9385 67.005C42.1875 67.005 45.4403 67.0128 48.6892 67.001C56.02 66.9775 63.3507 66.9421 70.6853 66.9068C72.3314 66.8989 73.2742 65.9403 73.2585 64.2943C73.235 61.6739 73.2035 59.0575 73.176 56.4371C73.1682 55.3921 73.176 55.4078 72.1153 55.5414Z" fill="#002857"/>
        <path d="M6.55183 20.3146C6.56754 19.3913 6.6029 18.4642 6.63433 17.541C6.69326 15.836 6.74826 14.1271 6.89362 12.4221C6.92504 12.0331 6.99969 11.6717 7.1529 11.2946C7.4554 10.556 7.28254 9.78205 7.09004 9.03562C7.03504 8.82348 6.98004 8.70955 7.30219 8.70562C9.2154 8.66241 11.1286 8.56027 13.0418 8.54062C18.0979 8.48955 23.15 8.4542 28.2061 8.35991C31.844 8.2892 35.4858 8.23813 39.1275 8.1242C39.4733 8.11241 39.8072 8.0692 40.1411 7.96313C41.7518 7.44063 43.3665 6.93777 44.9772 6.4192C45.1304 6.36813 45.319 6.37598 45.4211 6.20312C42.2429 6.28955 39.0765 6.37205 35.9061 6.46241C33.2858 6.53705 30.6654 6.60384 28.045 6.6942C23.2483 6.8592 18.4475 7.03598 13.6508 7.2167C11.6904 7.28741 9.73004 7.36598 7.76969 7.4642C7.41612 7.48384 7.18433 7.50741 7.16076 7.04384C7.14504 6.72955 6.90933 6.49777 6.56754 6.4742C6.24933 6.45455 6.15897 6.72562 6.06862 6.95741C5.98612 7.15777 5.91933 7.36991 5.87219 7.58205C5.60112 8.77634 5.48719 9.9942 5.41647 11.216C5.32219 12.7796 5.23969 14.3471 5.17683 15.9106C5.10219 17.6628 5.05504 19.4188 4.99219 21.2378C5.45576 21.061 5.84469 20.896 6.24147 20.7585C6.4654 20.6799 6.5479 20.5581 6.55183 20.3146Z" fill="#002857"/>
        <path fill-rule="evenodd" clip-rule="evenodd" d="M97.8394 64.7702C98.0554 65.4145 98.0162 65.4617 97.3287 65.4617C96.2954 65.4617 96.2954 65.4616 95.9694 64.4874C95.274 62.4052 94.5708 60.3309 93.8912 58.2488C93.7772 57.8992 93.6122 57.8009 93.2587 57.8049C91.2629 57.8206 89.2712 57.8206 87.2754 57.8049C86.914 57.8009 86.7569 57.9149 86.6469 58.2606C85.9319 60.4959 85.1854 62.7234 84.4744 64.9588C84.3487 65.3634 84.1679 65.5363 83.7515 65.4656C83.614 65.442 83.4687 65.4617 83.3272 65.4617C82.6044 65.4617 82.5729 65.4184 82.789 64.7545C84.384 59.9067 85.979 55.0588 87.574 50.2109C87.6015 50.1206 87.6447 50.0381 87.6801 49.9517C88.234 48.2388 88.784 46.5259 89.3458 44.8209C89.4165 44.6127 89.3772 44.2749 89.6601 44.2434C90.0922 44.1924 90.5362 44.1806 90.9683 44.2631C91.0154 44.2749 91.0547 44.3849 91.0783 44.4556C91.6794 46.2824 92.3433 48.0934 92.8776 49.9399C93.6908 52.1595 94.3862 54.4184 95.1365 56.6616C96.0401 59.3645 96.9397 62.0674 97.8394 64.7702ZM92.8776 54.992C92.3394 53.3106 91.7933 51.6292 91.2512 49.9517C90.929 49.0284 90.6108 48.1092 90.269 47.127C89.9351 48.1131 89.6247 49.0363 89.3144 49.9595C88.7133 51.8374 88.1162 53.7113 87.5151 55.5892C87.3304 56.1706 87.3304 56.1706 87.9669 56.1706C89.3144 56.1706 90.6619 56.1745 92.0094 56.1627C92.4101 56.1627 92.9601 56.3474 93.1644 56.0724C93.3372 55.8406 92.9954 55.3613 92.8776 54.992Z" fill="#002857"/>
        <path fill-rule="evenodd" clip-rule="evenodd" d="M146.837 64.7744C147.053 65.4186 147.018 65.4619 146.322 65.4619C145.293 65.4619 145.293 65.4619 144.967 64.4797C144.272 62.4015 143.568 60.3272 142.889 58.2451C142.783 57.9308 142.653 57.8011 142.299 57.8011C140.292 57.8208 138.281 57.8208 136.273 57.8051C135.908 57.8011 135.754 57.9229 135.644 58.2608C134.929 60.5001 134.187 62.7236 133.472 64.9629C133.354 65.3283 133.209 65.4854 132.796 65.4736C131.496 65.4422 131.512 65.6033 131.94 64.3069C133.488 59.6122 135.028 54.9097 136.572 50.2111C136.599 50.1208 136.642 50.0383 136.678 49.9519C137.224 48.2586 137.766 46.5654 138.324 44.8801C138.398 44.6561 138.363 44.2947 138.642 44.2515C139.07 44.1886 139.514 44.2358 139.95 44.2515C139.993 44.2554 140.048 44.3654 140.072 44.4322C140.665 46.2433 141.258 48.0504 141.848 49.8576C142.519 51.8454 143.191 53.8294 143.855 55.8211C144.853 58.8029 145.843 61.7886 146.837 64.7744ZM141.875 54.9922C141.337 53.3108 140.791 51.6294 140.249 49.9519C139.931 49.0286 139.608 48.1094 139.267 47.1272C138.933 48.1133 138.622 49.0365 138.312 49.9597C137.711 51.8376 137.114 53.7115 136.513 55.5894C136.328 56.1708 136.328 56.1708 136.964 56.1708C138.312 56.1708 139.659 56.1747 141.007 56.1629C141.408 56.1629 141.958 56.3476 142.162 56.0726C142.339 55.8408 141.993 55.3615 141.875 54.9922Z" fill="#002857"/>
        <path d="M98.6095 5.5C94.453 5.51179 90.2927 5.51179 86.1323 5.5C85.7277 5.5 85.5745 5.62964 85.5823 6.04607C85.602 7.11071 85.5862 8.17536 85.5902 9.24393C85.5941 12.2689 85.602 15.2939 85.6098 18.3189C85.6098 20.075 85.6059 21.835 85.6059 23.5911C85.6059 25.0329 85.6059 26.4786 85.6059 27.9204C85.602 29.5664 85.598 31.2125 85.5941 32.8586C85.5902 33.4714 85.602 33.4832 86.2305 33.4832C90.0609 33.4832 93.8912 33.4832 97.7177 33.4832C99.0809 33.4832 99.0809 33.4832 99.0809 32.12C99.077 31.4954 99.0652 31.4836 98.4484 31.4836C95.0462 31.4836 91.6402 31.4757 88.2341 31.4914C87.8727 31.4914 87.747 31.405 87.7548 31.0239C87.7784 29.9593 87.7548 28.8907 87.747 27.8261C87.747 26.4157 87.747 25.0014 87.747 23.5911C87.7548 22.2121 87.7745 20.8332 87.7548 19.4543C87.7509 19.0732 87.8373 18.9514 88.242 18.9554C90.3123 18.975 92.3827 18.9436 94.4491 18.9789C94.9795 18.9868 95.2387 18.8375 95.282 18.3189C95.3841 18.04 95.4902 17.7611 95.5845 17.4782C95.777 16.9046 95.7102 16.8104 95.113 16.8104C92.8227 16.8064 90.5323 16.7986 88.242 16.8182C87.8412 16.8221 87.7509 16.7004 87.7548 16.3193C87.7705 13.5614 87.7745 10.7996 87.7548 8.04179C87.7509 7.63321 87.8805 7.55857 88.2577 7.55857C91.3495 7.57429 94.4412 7.56643 97.533 7.56643C97.9259 7.56643 98.3187 7.5625 98.7077 7.56643C99.018 7.57036 99.1752 7.43679 99.1673 7.11464C99.1595 6.77286 99.1477 6.42714 99.1712 6.08143C99.2027 5.66107 99.0495 5.5 98.6095 5.5Z" fill="#002857"/>
        <path d="M181.476 55.1093C180.011 54.2686 178.396 53.7893 176.813 53.2393C175.631 52.8268 174.436 52.43 173.395 51.7032C172.421 51.0236 171.954 50.1161 172.099 48.9179C172.126 48.7018 172.17 48.4897 172.205 48.2736C172.806 46.8082 173.992 46.1129 175.466 45.8025C177.1 45.4607 178.707 45.5982 180.294 46.0972C180.62 46.2032 180.946 46.5725 181.276 46.3565C181.567 46.164 181.52 45.7004 181.681 45.3782C181.846 45.0443 181.728 44.895 181.398 44.7615C178.958 43.7675 176.471 43.7047 173.996 44.5297C172.276 45.1032 171.022 46.2425 170.531 48.0693C170.382 48.5565 170.343 49.0515 170.37 49.5582C170.453 51.2515 171.36 52.4182 172.751 53.2707C174.303 54.2254 176.051 54.7047 177.744 55.3215C178.836 55.7143 179.921 56.1229 180.891 56.7829C182.132 57.6275 182.702 58.7865 182.549 60.2832C182.4 61.8036 181.696 62.9743 180.266 63.595C178.522 64.3572 176.711 64.4829 174.892 63.9054C173.289 63.3986 172.134 62.3732 171.631 60.7232C171.372 59.8707 171.396 59.8629 170.496 59.8432C169.824 59.8275 169.757 59.9022 169.875 60.5622C170.221 62.499 171.301 63.9211 173.018 64.8404C175.132 65.9718 177.387 65.9875 179.665 65.4965C183.405 64.695 184.69 61.7093 184.23 58.6647C183.983 56.999 182.883 55.9186 181.476 55.1093Z" fill="#002857"/>
        <path d="M165.459 47.7943C165.471 46.7336 165.498 45.6729 165.482 44.6122C165.471 44.0857 165.015 44.235 164.728 44.2547C164.406 44.2743 163.864 44.0111 163.84 44.6122C163.797 45.669 163.844 46.7336 163.856 47.7943C163.848 47.9829 163.832 48.1675 163.832 48.3561C163.832 52.7797 163.832 57.2032 163.829 61.6268C163.829 61.7879 163.872 61.9607 163.785 62.1257C163.64 62.0825 163.605 61.9529 163.542 61.8547C162.202 59.8079 160.866 57.7572 159.527 55.7143C158.101 53.5379 156.667 51.3693 155.237 49.1968C154.207 47.6057 153.178 46.0147 152.153 44.4236C152.078 44.3057 151.976 44.2507 151.842 44.2507C151.497 44.2507 151.151 44.2468 150.805 44.2507C150.581 44.2547 150.448 44.3647 150.452 44.5965C150.46 46.4154 150.467 48.2304 150.479 50.0493C150.467 50.2379 150.452 50.4225 150.452 50.6111C150.452 55.2232 150.448 59.8315 150.448 64.4397C150.448 65.5554 150.346 65.4611 151.45 65.4611C152.117 65.4611 152.121 65.4611 152.121 64.7697C152.121 61.1947 152.121 57.6197 152.117 54.0447C152.117 52.7129 152.11 51.3772 152.102 50.0454C152.102 49.2165 152.102 48.3875 152.102 47.5586C152.137 47.5547 152.169 47.5507 152.2 47.5468C152.644 48.195 153.088 48.8432 153.532 49.4915C153.591 49.6015 153.646 49.7115 153.716 49.8175C156.965 54.8029 160.226 59.7843 163.455 64.7854C163.797 65.3157 164.155 65.524 164.771 65.4729C165.479 65.4179 165.482 65.4611 165.482 64.7657C165.482 59.2815 165.482 53.7932 165.479 48.309C165.479 48.1361 165.467 47.9672 165.459 47.7943Z" fill="#002857"/>
        <path d="M119.42 21.6616C119.42 23.1977 119.42 24.6159 119.42 26.0381C119.314 26.2109 119.365 26.4034 119.365 26.5881C119.349 27.4013 119.392 28.2184 119.239 29.0238C119.019 30.167 118.591 31.1727 117.522 31.8052C117.22 31.982 116.701 31.9584 116.646 32.3199C116.595 32.6341 116.874 32.9877 116.952 33.3374C117.047 33.7459 117.251 33.8009 117.632 33.7066C119.372 33.2784 120.512 32.2059 121.121 30.5363C121.651 29.0749 121.639 27.5584 121.588 26.0381C121.588 23.5906 121.588 21.1431 121.588 18.6956C121.592 15.3406 121.6 11.9816 121.604 8.62664C121.608 7.73093 121.6 6.83914 121.608 5.94343C121.612 5.62522 121.482 5.48379 121.16 5.49557C120.783 5.50736 120.406 5.49557 120.032 5.4995C119.424 5.4995 119.4 5.52307 119.4 6.13593C119.4 9.57343 119.388 13.007 119.408 16.4406C119.412 17.1909 119.341 17.9099 119.027 18.5934C118.288 19.9409 117.153 20.7895 115.703 21.2531C114.446 21.6577 113.165 21.7599 111.849 21.6341C109.641 21.422 107.728 20.6991 106.518 18.6916C106.039 17.7056 105.85 16.6566 105.854 15.5645C105.862 12.3981 105.85 9.23557 105.862 6.06914C105.866 5.64879 105.74 5.46022 105.3 5.49164C104.927 5.51914 104.546 5.51129 104.173 5.49164C103.804 5.47593 103.674 5.62914 103.678 5.99057C103.69 9.34557 103.678 12.6966 103.701 16.0477C103.709 17.022 103.89 17.9766 104.271 18.8841C104.833 20.5145 105.882 21.7638 107.394 22.5495C110.569 24.2074 113.857 24.2113 117.18 23.0131C117.974 22.7302 118.681 22.2745 119.42 21.6616Z" fill="#002857"/>
        <path d="M158.589 33.5537C162.128 32.9015 164.509 30.6269 164.8 26.9772C164.902 25.4412 164.851 23.9051 164.839 22.3651C164.839 20.9862 164.839 19.6072 164.839 18.2244C164.839 17.034 164.839 15.8397 164.839 14.6494C164.843 14.2408 164.855 13.8362 164.855 13.4276C164.859 10.9565 164.851 8.48153 164.862 6.00653C164.866 5.58224 164.713 5.40545 164.285 5.42903C163.912 5.4526 163.535 5.44081 163.157 5.43295C162.824 5.42903 162.678 5.57831 162.678 5.91224C162.69 8.79581 162.694 11.6755 162.698 14.5551C162.698 15.7769 162.698 17.0026 162.698 18.2244C162.698 19.5758 162.698 20.9233 162.698 22.2708C162.69 23.8422 162.678 25.4097 162.67 26.9772C162.643 27.0637 162.604 27.1501 162.588 27.2405C162.344 28.6783 161.617 29.8215 160.396 30.6072C158.608 31.7583 156.64 31.943 154.601 31.5187C153.112 31.2122 151.839 30.513 150.94 29.2362C150.284 28.3051 150.06 27.2444 150.024 26.1287C150.024 23.8697 150.024 21.6108 150.024 19.3519C150.028 17.313 150.04 15.274 150.044 13.2351C150.048 10.819 150.04 8.40688 150.048 5.99081C150.052 5.5901 149.906 5.40938 149.498 5.43295C149.152 5.44867 148.806 5.4526 148.465 5.42903C148.005 5.3976 147.86 5.59403 147.867 6.03795C147.887 7.49545 147.871 8.95688 147.875 10.4144C147.879 13.3962 147.887 16.374 147.895 19.3558C147.895 21.6147 147.895 23.8737 147.895 26.1326C147.856 26.5569 147.907 26.9733 147.97 27.3937C148.315 29.8058 149.506 31.6405 151.71 32.7365C153.898 33.8208 156.22 33.9897 158.589 33.5537Z" fill="#002857"/>
        <path d="M111.877 63.8944C109.099 63.9141 106.322 63.8944 103.544 63.9141C103.14 63.9141 103.014 63.8276 103.018 63.4033C103.041 60.9401 103.034 58.4808 103.03 56.0176C103.026 53.6841 103.018 51.3466 103.014 49.013C103.018 47.7244 103.026 46.4398 103.03 45.1551C103.03 44.9823 103.026 44.8094 103.03 44.6366C103.041 44.3183 102.825 44.2398 102.594 44.3026C102.185 44.4126 101.446 43.9648 101.403 44.6012C101.297 46.0626 101.305 47.5437 101.399 49.0169C101.388 49.2173 101.364 49.4216 101.364 49.6219C101.364 53.8412 101.364 58.0566 101.364 62.2758C101.364 63.1362 101.384 64.0005 101.364 64.8608C101.352 65.3323 101.529 65.4698 102 65.4658C105.171 65.4462 108.341 65.458 111.511 65.458C112.588 65.458 112.427 65.5405 112.466 64.4876C112.482 64.0319 112.333 63.8905 111.877 63.8944Z" fill="#002857"/>
        <path fill-rule="evenodd" clip-rule="evenodd" d="M75.141 50.2263C75.7657 50.8235 75.636 51.7349 74.8739 52.1592C74.1785 52.5442 73.3967 52.5717 72.6385 52.6424C70.3599 52.8506 68.0774 53.051 65.7871 53.0863C64.4907 53.106 63.5556 52.5678 62.8485 51.5463C62.1571 50.5524 61.7406 49.4328 61.4814 48.2542C61.3517 47.7631 61.0885 47.7474 60.6603 47.9438C59.9178 48.2856 59.2657 48.7846 58.531 49.1381C57.4035 49.7156 56.2681 50.2853 55.1485 50.8785C53.2156 51.896 51.3771 53.0706 49.5346 54.2374C48.8431 54.6774 48.3128 55.3099 47.6999 55.8481C47.1264 56.351 46.4939 56.6928 45.6924 56.5592C44.3489 56.3392 43.6574 55.3531 43.9246 54.0135C43.7478 53.931 43.5985 54.0488 43.4532 54.1038C36.8846 56.4413 30.1549 58.1817 23.3231 59.5528C19.591 60.2992 15.8431 60.9828 12.0678 61.4935C9.43958 61.8471 6.79958 62.1063 4.13993 61.9924C2.68636 61.9296 1.37422 61.5799 0.57279 60.201C0.384219 59.8749 0.305647 59.5096 0.136719 59.1756C0.136719 58.7985 0.136719 58.4213 0.136719 58.0442C0.62779 56.5985 1.76315 55.6635 2.86708 54.7324C5.04743 52.8938 7.56958 51.5424 9.92279 49.9435C11.6474 48.8356 13.2896 47.6021 14.9317 46.3724C15.6821 45.8067 16.4246 45.2331 17.171 44.6674C18.6403 43.4456 20.0781 42.1806 21.4728 40.8763C21.9678 40.4128 22.451 39.9492 22.8596 39.411C22.8635 39.3953 22.8635 39.3756 22.8714 39.3638C23.771 37.8828 23.3506 36.9006 21.8381 35.9892C20.2471 35.0346 18.4635 34.5788 16.6799 34.1388C13.4153 33.3335 10.0839 32.8188 6.78779 32.1549C5.54636 31.9035 4.30886 31.6324 3.09886 31.2435C1.73958 30.8074 0.643504 30.0806 0.136719 28.6742C0.136719 28.4856 0.136719 28.2971 0.136719 28.1085C0.168147 28.1163 0.199576 28.1124 0.227076 28.1046C0.223147 27.6763 0.466719 27.3738 0.729933 27.0831C1.40172 26.3367 2.23065 25.7985 3.10279 25.331C4.01029 24.8399 4.92172 24.3528 5.91172 24.0346C7.216 23.3903 8.59886 22.9385 9.95029 22.4081C13.2778 21.1078 16.6131 19.8231 19.9446 18.5306C20.0624 18.4874 20.1842 18.4599 20.3021 18.4246C22.2781 17.6742 24.2621 16.9317 26.2342 16.1656C31.7421 14.0324 37.2342 11.8481 42.8756 10.0763C47.1067 8.74456 51.3417 7.42456 55.5649 6.07313C56.7121 5.70777 57.8278 5.23241 58.9592 4.81991C59.5328 4.60777 60.1182 4.42706 60.7467 4.46634C62.4478 4.57241 63.371 6.27741 62.5146 7.75063C62.3221 8.08063 62.0942 8.38706 61.7681 8.58348C60.4914 9.35741 59.1635 10.041 57.7139 10.4142C56.386 10.7521 55.8007 10.3867 55.3882 9.10206C55.2978 8.8192 55.1446 8.93313 54.9914 8.95277C53.1214 9.20813 51.3142 9.73063 49.4835 10.1706C41.5753 12.076 33.9578 14.8928 26.3089 17.6035C25.2167 17.9924 24.1246 18.3853 23.0364 18.7781C21.3981 19.3988 19.7599 20.0156 18.1296 20.6481C15.4464 21.6931 12.7474 22.6871 10.131 23.8892C8.87386 24.6199 7.61672 25.3506 6.35565 26.0813C5.566 26.5371 4.86672 27.1146 4.136 27.6528C3.90815 27.8217 3.76279 28.0613 3.60565 28.2931C3.24029 28.9021 3.24029 28.9531 3.87279 29.3381C5.0435 30.0453 6.35958 30.3635 7.67565 30.6463C10.8656 31.3221 14.0871 31.766 17.3281 32.0842C19.261 32.2728 21.1978 32.4221 23.0835 32.9131C24.3956 33.2588 25.5546 33.9149 26.5564 34.8185C27.786 35.9263 27.9628 37.1796 27.1496 38.6213C26.9492 38.9749 26.7371 39.3206 26.4267 39.5956C25.6056 40.6131 24.5724 41.3988 23.5667 42.216C22.4274 43.1392 21.3039 44.0821 20.0742 44.8835C19.4024 45.5317 18.5774 45.9717 17.831 46.5217C16.0789 47.826 14.2678 49.0438 12.4764 50.2971C10.2803 52.2221 8.10779 54.1706 6.05708 56.2449C5.3735 56.9363 4.70958 57.6474 4.15565 58.4567C3.916 58.8063 3.96708 58.9949 4.37172 59.1442C5.17315 59.4467 6.006 59.5881 6.85065 59.6392C8.73636 59.7413 10.6181 59.6471 12.4921 59.431C15.2146 59.1128 17.9371 58.7671 20.6478 58.3428C26.6153 57.4156 32.5042 56.1546 38.2831 54.371C41.1706 53.4792 43.956 52.3674 46.6746 51.071C47.2167 50.8117 47.6135 50.3442 48.0967 49.9946C48.576 49.6449 49.0474 49.2796 49.5189 48.9181C52.0332 46.9971 54.5553 45.0878 57.321 43.5242C58.8964 42.6324 60.3853 41.5678 62.1178 40.9746C64.0899 40.3028 66.2781 41.6699 66.6003 43.7246C66.7614 44.2667 66.8635 44.8206 66.8164 45.3863C66.7692 45.9049 66.5649 46.3763 66.1524 46.6906C65.8264 46.9342 65.7831 47.1856 65.9049 47.5353C65.9835 47.771 66.0307 48.0146 66.0935 48.2542C66.341 48.6981 66.5531 49.1499 66.9185 49.5231C67.9596 50.5956 69.2246 50.4896 70.521 50.2853C71.7114 50.0967 72.8821 49.7706 74.1078 49.8453C74.4928 49.8728 74.8582 49.9513 75.141 50.2263ZM61.3753 43.9406C61.1592 43.9328 60.9392 43.9249 60.7232 43.9131C60.1574 44.0271 59.5878 44.1174 59.0417 44.3296C57.3406 45.0053 55.8281 45.9953 54.3864 47.1071C53.5614 47.7474 52.8149 48.4899 51.9585 49.0988C51.1021 49.8963 50.2024 50.6467 49.4167 51.5149C49.0946 51.8724 48.741 52.2103 48.5564 52.6699C48.5681 52.6817 48.5799 52.6935 48.5917 52.7053C48.7135 52.6738 48.8432 52.6581 48.9532 52.6071C50.336 51.9353 51.7071 51.2438 52.8699 50.2106C53.3846 49.7549 53.9306 49.3306 54.4649 48.8906C55.2821 48.1599 56.0599 47.3899 56.9203 46.7103C58.2953 45.6221 59.7842 44.6949 61.3753 43.9406Z" fill="#002857"/>
        <path d="M143.447 32.8937C143.427 32.6462 143.447 32.3947 143.447 32.1433C143.443 31.5226 143.404 31.4833 142.771 31.4833C139.023 31.4833 135.271 31.4715 131.524 31.4951C131.033 31.4951 130.915 31.3497 130.93 30.8822C130.962 29.8647 130.93 28.8472 130.926 27.8297C130.926 26.4783 130.926 25.1308 130.926 23.7794C130.926 22.1176 130.926 20.4558 130.926 18.7901C130.934 18.6015 130.942 18.4169 130.942 18.2283C130.946 14.229 130.946 10.2258 130.946 6.22651C130.946 6.13222 130.942 6.03794 130.95 5.94365C130.97 5.62544 130.824 5.48401 130.502 5.4958C130.156 5.50758 129.811 5.4958 129.465 5.4958C128.785 5.49972 128.77 5.51151 128.77 6.17544C128.77 9.7858 128.77 13.3922 128.77 16.9987C128.77 17.5958 128.785 18.1929 128.789 18.7862C128.746 20.4519 128.754 22.1137 128.789 23.7754C128.746 25.1269 128.758 26.4744 128.789 27.8258C128.781 29.5151 128.785 31.2083 128.758 32.9015C128.754 33.3651 128.943 33.4869 129.379 33.4869C133.865 33.4751 138.351 33.4751 142.838 33.4869C143.278 33.4869 143.486 33.3533 143.447 32.8937Z" fill="#002857"/>
        <path d="M186.701 32.8937C186.677 32.6462 186.697 32.3947 186.697 32.1433C186.693 31.5226 186.654 31.4833 186.021 31.4833C182.273 31.4833 178.526 31.4715 174.774 31.4951C174.283 31.4951 174.169 31.3497 174.181 30.8822C174.212 29.8647 174.181 28.8472 174.177 27.8297C174.177 26.384 174.177 24.9422 174.177 23.4965C174.177 21.7719 174.177 20.0472 174.177 18.3187C174.184 18.1497 174.192 17.9769 174.192 17.804C174.196 14.2722 174.196 10.7444 174.196 7.21651C174.196 6.79222 174.188 6.36794 174.2 5.94365C174.208 5.62544 174.074 5.48401 173.752 5.4958C173.407 5.50758 173.061 5.4958 172.715 5.4958C172.036 5.49972 172.02 5.51151 172.02 6.17544C172.02 9.06294 172.016 11.9504 172.02 14.834C172.024 15.9969 172.036 17.1558 172.043 18.3187C172 20.0433 172.008 21.7679 172.043 23.4926C171.996 24.9383 172.008 26.3801 172.039 27.8258C172.032 29.5151 172.036 31.2083 172.012 32.9015C172.004 33.3651 172.193 33.4869 172.629 33.4869C177.115 33.4751 181.602 33.4751 186.088 33.4869C186.528 33.4869 186.736 33.3533 186.701 32.8937Z" fill="#002857"/>
        <path d="M65.98 6.74916C65.8739 7.19701 66.0939 7.22059 66.4514 7.2088C67.7047 7.16559 68.9618 7.14202 70.215 7.11844C70.7139 7.10666 70.9968 7.37773 71.0164 7.87666C71.04 8.56809 71.0636 9.25559 71.0714 9.94701C71.1186 13.2706 71.1579 16.5942 71.1972 19.9177C71.1539 22.1138 71.2718 24.3099 71.2954 26.5059C71.2718 27.8849 71.3268 29.2599 71.3543 30.6349C71.4172 33.7149 71.4447 36.7988 71.4839 39.8788C71.5075 42.1181 71.5311 44.3613 71.5547 46.6006C71.5625 47.2017 71.5586 47.2017 72.1361 47.1309C72.3207 47.1113 72.5093 47.0681 72.6939 47.0681C72.9925 47.0681 73.0868 46.9502 73.0789 46.6438C73.0318 44.3574 72.9964 42.0709 72.9611 39.7845C73.02 37.172 72.8747 34.5595 72.8629 31.947C72.855 30.132 72.7922 28.3209 72.7529 26.5059C72.7214 24.3531 72.69 22.2002 72.6586 20.0474C72.6547 20.0042 72.6232 19.9609 72.6075 19.9177C72.6114 19.7449 72.6154 19.5759 72.6154 19.4031C72.5407 15.4195 72.4622 11.4399 72.3875 7.4563C72.3639 6.21094 71.755 5.61773 70.5175 5.6413C69.1229 5.66487 67.7243 5.71201 66.3297 5.71594C65.9407 5.71987 65.87 5.84951 65.9525 6.18737C65.9957 6.36809 66.0232 6.57237 65.98 6.74916Z" fill="#002857"/>
        <path d="M155.131 10.4577C155.131 11.9505 155.135 13.4394 155.127 14.9284C155.123 15.1994 155.17 15.3291 155.485 15.3134C155.968 15.2898 156.455 15.2977 156.942 15.3094C157.194 15.3173 157.304 15.2662 157.304 14.9794C157.296 11.9505 157.296 8.92551 157.3 5.89658C157.3 5.55086 157.131 5.42515 156.805 5.43301C156.443 5.44086 156.078 5.45265 155.72 5.42908C155.265 5.39765 155.115 5.59015 155.123 6.03801C155.143 7.51122 155.131 8.98444 155.131 10.4577Z" fill="#002857"/>
        <path d="M126.983 44.2899C126.727 44.286 126.606 44.396 126.61 44.6553C126.621 46.1678 126.629 47.6842 126.641 49.2007C126.629 50.4539 126.61 51.7071 126.617 52.9603C126.621 53.4317 126.507 53.8599 126.291 54.2646C125.824 55.1328 125.101 55.7064 124.197 56.0678C122.972 56.5589 121.699 56.6257 120.406 56.4292C117.762 56.0285 116.415 54.461 116.407 51.7857C116.403 50.8899 116.395 49.9982 116.391 49.1064C116.395 47.6292 116.399 46.156 116.411 44.6828C116.411 44.4392 116.332 44.2507 116.069 44.3017C115.625 44.3842 115.103 44.0307 114.745 44.5492C114.73 44.5689 114.737 44.6082 114.737 44.6396C114.749 46.1285 114.757 47.6174 114.769 49.1064C114.726 50.4067 114.651 51.7149 114.836 53.0035C115.162 55.3135 116.419 56.9164 118.658 57.6746C120.461 58.2874 122.288 58.3032 124.123 57.816C125.007 57.5803 125.808 57.1796 126.637 56.5353C126.515 58.5467 126.794 60.4403 126.449 62.3182C126.303 63.0999 125.93 63.7599 125.203 64.1646C124.488 64.5692 124.488 64.5692 124.795 65.351C124.806 65.3824 124.818 65.4099 124.826 65.4414C124.877 65.6182 124.971 65.6889 125.172 65.6417C125.989 65.4532 126.708 65.1035 127.246 64.4396C127.949 63.5753 128.256 62.546 128.267 61.4696C128.299 57.3799 128.275 53.2903 128.275 49.1967C128.283 47.9632 128.307 46.7257 128.287 45.4921C128.267 44.0621 128.594 44.3214 126.983 44.2899Z" fill="#002857"/>
        <path d="M16.7898 68.2269C16.3655 68.2347 15.9766 68.5962 15.9766 68.9851C15.9805 69.3701 16.3105 69.6608 16.7308 69.653C17.1708 69.6451 17.548 69.2955 17.5441 68.9026C17.5401 68.5255 17.1983 68.2151 16.7898 68.2269Z" fill="#002857"/>
        <path d="M74.0951 1.82997C74.4879 1.86926 74.8768 1.55104 74.9201 1.16212C74.9633 0.784972 74.6293 0.403901 74.2208 0.364615C73.8279 0.325329 73.439 0.643544 73.3997 1.03247C73.3604 1.41747 73.6865 1.79069 74.0951 1.82997Z" fill="#002857"/>
        <path d="M2.56878 7.97104C2.99306 7.96711 3.33092 7.64104 3.32699 7.24818C3.31913 6.84747 2.98128 6.53711 2.55306 6.53711C2.11306 6.54104 1.81056 6.83568 1.81449 7.25997C1.81842 7.68425 2.13271 7.97497 2.56878 7.97104Z" fill="#002857"/>
        <path d="M77.8288 4.56087C77.3967 4.54909 77.051 4.85944 77.0431 5.26409C77.0352 5.6648 77.381 5.9948 77.8052 5.9948C78.2335 5.99087 78.536 5.71587 78.5517 5.3073C78.5674 4.87516 78.2727 4.56873 77.8288 4.56087Z" fill="#002857"/>
        <path d="M62.0123 1.80338C62.3698 1.81909 62.358 1.52445 62.417 1.33195C62.4248 0.891948 62.0909 0.550163 61.6784 0.542306C61.2659 0.53052 60.9162 0.852663 60.9084 1.25338C60.9005 1.63445 61.1441 1.76016 62.0123 1.80338Z" fill="#002857"/>
        <path d="M51.0702 3.80276C51.2902 3.8224 51.4356 3.68883 51.4513 3.47669C51.4709 3.25276 51.3099 3.15061 51.0938 3.11133C50.8934 3.13883 50.7441 3.23704 50.7441 3.4649C50.7481 3.66526 50.8816 3.78311 51.0702 3.80276Z" fill="#002857"/>
        <path d="M3.92468 69.7393C3.7204 69.7746 3.55932 69.8728 3.55147 70.0928C3.53968 70.2971 3.68111 70.4189 3.87361 70.4189C4.09754 70.4189 4.27825 70.3089 4.27432 70.0575C4.2704 69.8532 4.11718 69.7668 3.92468 69.7393Z" fill="#002857"/>
        <path d="M76.198 13.1445C75.9858 13.176 75.8365 13.286 75.8483 13.506C75.8601 13.7181 76.0054 13.8438 76.2294 13.8281C76.4179 13.8085 76.5515 13.7024 76.5515 13.4981C76.5515 13.2702 76.414 13.1642 76.198 13.1445Z" fill="#002857"/>
        <path d="M67.5828 4.07326C67.7674 4.05362 67.8931 3.93184 67.8892 3.72755C67.8814 3.49969 67.7321 3.41326 67.5317 3.38184C67.3196 3.42898 67.1703 3.53505 67.1939 3.75898C67.2135 3.97898 67.3706 4.09291 67.5828 4.07326Z" fill="#002857"/>
        <path d="M69.9247 0.722545C70.125 0.702902 70.2429 0.581116 70.2311 0.384688C70.2233 0.160759 70.074 0.0625446 69.85 0.0546875C69.6497 0.0900446 69.5043 0.207902 69.5279 0.423973C69.5515 0.636116 69.7047 0.746116 69.9247 0.722545Z" fill="#002857"/>
        <path d="M7.21233 67.9405C6.99626 67.9366 6.8509 68.0623 6.83911 68.2744C6.8234 68.4827 6.9609 68.5769 7.14554 68.5966C7.36947 68.5966 7.53054 68.4944 7.55411 68.2862C7.57769 68.0623 7.42447 67.9405 7.21233 67.9405Z" fill="#002857"/>
        <path d="M2.06084 9.8564C2.2612 9.84854 2.39477 9.75819 2.40655 9.54997C2.41834 9.32212 2.29655 9.19247 2.0687 9.19247C1.84477 9.18854 1.71905 9.31426 1.72691 9.54212C1.73477 9.75033 1.86441 9.84462 2.06084 9.8564Z" fill="#002857"/>
        <path d="M4.61541 43.8193C4.61148 45.7443 4.60756 47.6654 4.5997 49.5904C4.59577 49.8929 4.72148 49.8497 4.9022 49.7279C5.18898 49.5393 5.48363 49.3586 5.76648 49.1661C6.01398 49.0011 6.43041 48.8518 6.45791 48.6515C6.5247 48.1486 6.90184 47.7793 6.94898 47.3079C7.06684 46.1097 7.05506 44.9115 6.74077 43.7329C6.45791 43.1633 6.54041 42.5504 6.54041 41.9454C6.54434 41.2226 6.54434 40.5036 6.54434 39.7847C6.70541 38.2761 6.80756 36.7676 6.63077 35.2511C6.61113 35.0743 6.55613 35.039 6.4422 35.0115C5.98256 34.9093 5.52684 34.8151 5.0672 34.7168C4.86684 34.6736 4.74506 34.709 4.74113 34.9604C4.70577 36.5672 4.63113 38.1779 4.67434 39.7847C4.66648 41.1008 4.65863 42.4168 4.65077 43.7329C4.63898 43.7643 4.61934 43.7918 4.61541 43.8193Z" fill="#002857"/>
    </g>
    <defs>
        <clipPath id="clip0_236_1518">
            <rect width="187" height="104.893" fill="white"/>
        </clipPath>
    </defs>
</svg>
