<svg width="187" height="24" viewBox="0 0 187 24" fill="none" xmlns="http://www.w3.org/2000/svg">
    <g clip-path="url(#clip0_236_1553)">
        <path d="M5.40753 4.52655V10.6886H16.2226V15.0063H5.40753V23.5158H0V0.166992H17.6478V4.52655H5.40753Z" fill="#DA977F"/>
        <path d="M21.3359 0.166992H26.7435V23.5158H21.3359V0.166992Z" fill="#DA977F"/>
        <path d="M54.6204 0.166992L44.476 23.5158H39.1523L29.0918 0.166992H34.9185L42.0028 16.8507L49.2128 0.166992H54.6204Z" fill="#DA977F"/>
        <path d="M74.6159 19.1981V23.5158H56.5488V0.166992H74.1967V4.52655H61.9144V9.59873H72.7714V13.7906H61.9144V19.1981H74.6159Z" fill="#DA977F"/>
        <path d="M81.4898 22.8036C80.1274 22.342 78.8925 21.5666 77.8848 20.54L78.6393 19.2405C79.5728 20.1877 80.7034 20.9176 81.9509 21.3784C83.3518 21.9339 84.8454 22.2184 86.3524 22.2168C88.5741 22.2168 90.2508 21.7557 91.3826 20.9173C91.9204 20.5503 92.3588 20.0557 92.6588 19.4778C92.9587 18.8999 93.1107 18.2567 93.1013 17.6057C93.1279 17.152 93.0597 16.6977 92.9009 16.2719C92.7421 15.8461 92.4963 15.458 92.1791 15.1325C91.5607 14.4797 90.8006 13.9777 89.9574 13.6653C88.7741 13.2673 87.5708 12.9315 86.3524 12.6593C84.9539 12.3418 83.5809 11.9214 82.2443 11.4017C81.2161 11.0319 80.3046 10.3954 79.6034 9.55728C78.8489 8.7189 78.5135 7.62901 78.5135 6.20377C78.5024 5.1066 78.808 4.02951 79.3938 3.10177C80.0664 2.08521 81.0309 1.29606 82.1605 0.838155C83.6222 0.240041 85.1929 -0.0455401 86.7716 -0.000222021C88.065 0.00690466 89.3504 0.204651 90.5862 0.586642C91.734 0.918705 92.8231 1.42786 93.8139 2.09572L93.1851 3.47904C92.2428 2.81596 91.1935 2.31969 90.0831 2.01188C89.0102 1.68149 87.8942 1.51198 86.7716 1.50886C84.6337 1.50886 82.9989 1.92805 81.8671 2.80834C81.344 3.19651 80.9197 3.70235 80.6284 4.28494C80.3371 4.86753 80.187 5.5105 80.1903 6.16185C80.1588 7.08827 80.4897 7.99048 81.1125 8.67698C81.7334 9.31693 82.4937 9.8047 83.3342 10.1022C84.5266 10.5391 85.7445 10.9031 86.9812 11.1921C88.3727 11.5181 89.7443 11.924 91.0892 12.4078C92.0911 12.8048 92.9826 13.4375 93.6882 14.2522C94.4427 15.0486 94.7781 16.1385 94.7781 17.5219C94.7945 18.6258 94.4727 19.7082 93.8558 20.6239C93.1621 21.6279 92.184 22.4016 91.0473 22.8456C89.5755 23.4595 87.9878 23.7456 86.3943 23.6839C84.7195 23.6917 83.0574 23.3933 81.4898 22.8036Z" fill="#DA977F"/>
        <path d="M104.253 22.1752C102.457 21.1816 100.964 19.7181 99.9355 17.9414C98.854 16.1011 98.3026 13.9974 98.3426 11.8632C98.296 9.72814 98.8478 7.62269 99.9355 5.78493C100.952 3.99882 102.447 2.53238 104.253 1.55112C106.148 0.49538 108.288 -0.0397583 110.457 0.000123741C112.046 -0.00920248 113.624 0.275021 115.11 0.838501C116.489 1.35257 117.735 2.16902 118.757 3.22788L117.709 4.35968C115.823 2.47334 113.433 1.55112 110.499 1.55112C108.639 1.53666 106.806 1.99844 105.175 2.89252C103.584 3.78061 102.264 5.08424 101.356 6.66421C100.448 8.24417 99.9857 10.0411 100.019 11.8632C99.9946 13.7032 100.473 15.515 101.403 17.103C102.294 18.6582 103.601 19.9352 105.175 20.7919C106.806 21.686 108.639 22.1477 110.499 22.1333C113.391 22.1333 115.781 21.2111 117.709 19.3247L118.757 20.4146C117.748 21.499 116.499 22.3317 115.11 22.8459C113.63 23.4293 112.048 23.7142 110.457 23.6843C108.294 23.7177 106.159 23.1983 104.253 22.1752Z" fill="#DA977F"/>
        <path d="M138.29 16.9345H124.75L121.774 23.5158H119.93L130.661 0.166992H132.38L143.111 23.5158H141.266L138.29 16.9345ZM137.661 15.5093L131.499 2.05334L125.379 15.5093H137.661Z" fill="#DA977F"/>
        <path d="M163.568 23.5158L157.993 15.7189C157.244 15.8342 156.487 15.8902 155.729 15.8866H149.064V23.5158H147.346V0.166992H155.729C158.664 0.166992 160.969 0.879613 162.646 2.26293C164.323 3.64626 165.161 5.57452 165.161 8.04774C165.223 9.71486 164.721 11.3541 163.736 12.7007C162.708 14.0044 161.279 14.9326 159.67 15.3416L165.538 23.5158H163.568ZM155.729 14.3775C158.245 14.3775 160.131 13.8325 161.43 12.7426C162.73 11.6528 163.401 10.0598 163.401 8.04774C163.401 6.03563 162.772 4.44271 161.43 3.35282C160.089 2.26293 158.245 1.71799 155.729 1.71799H149.064V14.3775H155.729Z" fill="#DA977F"/>
        <path d="M173.083 1.71799V11.6947H185.533V13.2038H173.083V23.5158H171.406V0.166992H187V1.71799H173.083Z" fill="#DA977F"/>
    </g>
    <defs>
        <clipPath id="clip0_236_1553">
            <rect width="187" height="23.6842" fill="white"/>
        </clipPath>
    </defs>
</svg>
