<svg width="187" height="156" viewBox="0 0 187 156" fill="none" xmlns="http://www.w3.org/2000/svg">
    <path fill-rule="evenodd" clip-rule="evenodd" d="M0 0H187V155.658H0V0Z" fill="white"/>
    <path fill-rule="evenodd" clip-rule="evenodd" d="M181.389 2.28882H5.59497V153.369H181.389V2.28882Z" fill="#072F5E"/>
    <path fill-rule="evenodd" clip-rule="evenodd" d="M127.109 37.1128H130.067C133.025 37.1128 134.292 39.3989 134.292 40.9825V67.3639C134.292 69.2988 133.024 71.0568 130.279 71.0568H127.108L127.109 37.1128ZM130.067 36.2342H118.024V37.1136H121.192V96.3844H118.024V97.4398H131.757V96.3844H127.109V72.2883H130.912C136.828 72.2883 140.21 69.6501 140.21 66.3085V42.5653C140.21 39.2237 137.25 36.2342 130.067 36.2342ZM62.4535 36.9376C62.4535 37.817 61.82 37.817 61.1855 37.4649C59.284 36.2342 56.9596 35.53 54.6351 35.53C51.2552 35.53 46.1833 36.9376 46.1833 43.0934V88.4697C46.1833 96.3844 50.8322 97.7911 55.2696 97.968C58.6496 97.968 60.3405 96.3844 61.819 95.8563C62.664 95.681 63.2975 96.21 63.2975 97.4398H64.777V68.5954H67.7349V67.54H55.4801V68.5954H59.0725V93.3933C59.0725 95.3281 57.3816 96.9117 55.2696 96.9117C53.3681 96.9117 51.6772 95.3281 51.6772 93.3933V41.3338C51.6772 39.9271 52.1002 36.5855 54.6351 36.5855C59.707 36.5855 62.4535 48.8972 62.4535 55.4043H63.9329V36.0574H62.4535V36.9376ZM86.9631 71.2328L90.5545 44.6754L94.1469 71.2328H86.9631ZM94.3594 72.2883L97.5279 96.3836H94.3594V97.439H106.613V96.3836H103.233L95.2044 36.2342H90.1325L82.5256 93.042C82.1027 94.9769 81.8921 96.3844 78.3007 96.3844V97.4398H87.386V96.3844C84.8501 96.3844 83.7936 94.9777 84.0051 93.5709L86.7525 72.2891L94.3594 72.2883ZM47.0293 107.113H50.8322V110.806H51.0437L54.4236 107.113H59.0725L54.6351 111.334L59.9185 117.665H55.0581L52.1002 113.62L50.8322 114.5V117.665H47.0293V107.113ZM76.8212 107.113H80.8357V117.665H76.8212V107.113ZM99.0073 107.113H105.345C109.57 107.113 111.051 109.752 111.051 112.39C111.051 115.555 108.938 117.665 104.713 117.665H99.0073V107.113ZM103.023 114.852H104.5C106.825 114.852 107.248 113.268 107.248 112.39C107.248 111.686 106.825 109.926 104.077 109.926H103.022L103.023 114.852ZM132.179 114.149V114.852C132.602 115.378 133.447 115.555 134.082 115.555C134.714 115.555 135.559 115.378 135.559 114.5C135.559 113.972 135.136 113.972 133.024 113.444C130.911 112.916 128.799 112.389 128.799 110.454C128.799 107.992 131.124 106.937 133.66 106.937C136.405 106.937 138.942 107.816 138.942 110.28H135.35C135.35 109.926 135.137 109.752 134.927 109.576C134.504 109.399 134.082 109.223 133.659 109.223C133.236 109.223 132.391 109.399 132.391 109.926C132.391 110.631 134.291 110.806 135.981 111.334C137.671 111.686 139.574 112.39 139.574 114.323C139.574 116.962 136.403 117.84 133.658 117.84C132.39 117.84 128.375 117.489 128.163 114.148H132.179V114.149Z" fill="white"/>
</svg>
