<svg width="187" height="32" viewBox="0 0 187 32" fill="none" xmlns="http://www.w3.org/2000/svg">
    <g clip-path="url(#clip0_227_1094)">
        <path d="M7.60469 13.9211H14.3782V23.6036C14.3782 28.4656 11.8849 31.2913 7.18913 31.2913C2.49335 31.2913 0 28.4656 0 23.6036V7.68778C0 2.78422 2.49335 0 7.18913 0C11.8434 0 14.3782 2.78422 14.3782 7.68778V10.6798H9.8071V7.35534C9.8071 5.19445 8.89288 4.36333 7.31377 4.36333C5.73466 4.36333 4.82043 5.19445 4.82043 7.35534V23.8944C4.82043 26.0553 5.73466 26.928 7.31377 26.928C8.85132 26.928 9.8071 26.0969 9.8071 23.8944V18.2844H7.64623V13.9211H7.60469Z" fill="#231F20"/>
        <path d="M21.3175 20.9024L15.292 0.415527H20.2787L23.9355 14.3366L27.5509 0.415527H32.2466L26.138 20.9024V31.0835H21.3591L21.3175 20.9024Z" fill="#231F20"/>
        <path d="M44.2563 22.1491L47.5808 0.415527H54.2296V30.9589H49.6585V9.05908L46.3341 30.9589H41.763L38.2308 9.34997V30.9589H34.0752V0.415527H40.7241L44.2563 22.1491Z" fill="#231F20"/>
        <path d="M64.2029 0C68.8571 0 71.2673 2.78422 71.2673 7.68778V8.60201H66.6962V7.35534C66.6962 5.19445 65.8651 4.36333 64.286 4.36333C62.7484 4.36333 61.9173 5.19445 61.9173 7.35534C61.9173 13.7133 71.2673 14.8353 71.2673 23.562C71.2673 28.424 68.774 31.2498 64.0782 31.2498C59.424 31.2498 56.9307 28.424 56.9307 23.562V21.692H61.5018V23.8944C61.5018 26.0553 62.4576 26.928 63.9951 26.928C65.5742 26.928 66.4884 26.0969 66.4884 23.8944C66.4884 17.578 57.1384 16.4144 57.1384 7.68778C57.1384 2.82578 59.5071 0 64.2029 0Z" fill="#231F20"/>
        <path d="M78.8306 30.9589H74.0518V0.415527H78.8306V13.5055H84.3576V0.415527H89.2611V30.9589H84.3576V17.8689H78.8306V30.9589Z" fill="#231F20"/>
        <path d="M108.252 30.9589H103.348L102.517 25.432H96.6163L95.7852 30.9589H91.4219L96.3255 0.415527H103.39L108.252 30.9589ZM97.3227 21.318H102.019L99.733 5.81775L97.3227 21.318Z" fill="#231F20"/>
        <path d="M120.511 30.9589C120.221 30.1278 120.096 29.7122 120.096 27.2189V22.44C120.096 19.6558 119.14 18.5753 116.979 18.5753H115.317V31.042H110.538V0.415527H117.81C122.797 0.415527 124.999 2.70108 124.999 7.47997V9.84864C124.999 12.9653 123.961 15.0431 121.883 16.082C124.251 17.1209 125.083 19.4064 125.083 22.6478V27.302C125.083 28.7564 125.083 29.8784 125.623 31.042H120.511V30.9589ZM115.317 4.77886V14.1289H117.187C118.932 14.1289 120.096 13.2977 120.096 10.9291V7.89553C120.096 5.69308 119.348 4.77886 117.603 4.77886H115.317Z" fill="#231F20"/>
        <path d="M134.35 18.8246L132.895 21.6504V30.9589H128.116V0.415527H132.895V13.7133L139.212 0.415527H143.99L137.342 14.0457L143.99 30.9589H139.004L134.35 18.8246Z" fill="#231F20"/>
        <path d="M147.106 0.540039C160.404 0.540039 173.702 0.540039 187 0.540039C187 0.540039 168.715 20.9023 159.49 30.9587C159.49 30.9587 160.196 29.4212 160.654 28.7978C160.238 28.7978 159.822 27.1356 159.282 26.3045C158.784 26.6369 158.243 26.8447 157.703 27.0109C157.204 27.3434 156.872 27.2187 156.581 26.5954C156.373 26.0552 156.166 25.4318 155.833 24.9332C155.334 25.1409 154.088 25.8889 153.88 25.8889L147.439 23.1878C147.522 23.1878 150.68 23.1047 152.01 23.1878L154.088 24.9747C154.628 24.476 155.002 23.6449 155.459 23.1878H156.581C156.997 23.6034 157.412 24.3514 157.828 24.85C158.326 24.3514 158.95 23.728 159.407 23.3125H160.238C160.654 23.728 161.152 24.3514 161.609 24.7669C161.609 24.7669 161.692 24.7669 161.817 24.8916C161.817 24.8916 162.648 23.9774 162.981 23.5618H163.895C163.895 23.5618 175.655 5.90072 175.738 5.69294C166.222 3.86449 147.106 0.540039 147.106 0.540039Z" fill="#231F20"/>
        <path d="M158.742 11.0119L152.176 7.35498C155.999 8.2692 159.988 9.22498 163.811 10.0561L158.742 11.0119Z" fill="#231F20"/>
    </g>
    <defs>
        <clipPath id="clip0_227_1094">
            <rect width="187" height="31.2498" fill="white"/>
        </clipPath>
    </defs>
</svg>
