<svg width="187" height="19" viewBox="0 0 187 19" fill="none" xmlns="http://www.w3.org/2000/svg">
    <g clip-path="url(#clip0_237_1596)">
        <path d="M52.9737 13.3258L45.9543 0L38.4414 13.929V18.5355H39.7027L45.8995 6.30645L52.864 18.8645H53.0833L60.0479 6.30645L66.2446 18.5355H67.5059V13.929L59.993 0L52.9737 13.3258Z" fill="#A6C6E8"/>
        <path d="M15.4097 0.493466C15.4097 0.493466 14.971 0.548305 14.7516 0.548305C14.5323 0.548305 14.3129 0.548305 14.0935 0.493466C13.8742 0.438628 13.3806 0.438628 13.1613 0.383789V8.06121C12.1194 8.06121 11.4065 8.11605 10.4194 8.11605C9.70645 8.11605 8.99355 8.11605 8.22581 8.11605C7.45806 8.11605 6.74516 8.11605 6.03226 8.11605C5.1 8.11605 4.33226 8.06121 3.29032 8.06121V0.383789C3.01613 0.438628 2.52258 0.438628 2.30323 0.493466C2.08387 0.493466 1.86452 0.548305 1.59032 0.548305C1.37097 0.548305 0.932258 0.493466 0.932258 0.493466C0.932258 0.493466 0.219355 0.438628 0 0.383789V18.4806C0.43871 18.4257 1.37097 18.4257 1.86452 18.4257C2.19355 18.4257 2.79677 18.4257 3.23548 18.4806V9.37734C4.27742 9.37734 4.99032 9.3225 5.97742 9.3225C6.69032 9.3225 7.40322 9.3225 8.17097 9.3225C8.93871 9.3225 9.65161 9.3225 10.3645 9.3225C11.2968 9.3225 12.0645 9.3225 13.1065 9.37734V18.4806C13.5452 18.4257 14.2032 18.4257 14.4774 18.4257C14.971 18.4257 15.9032 18.4257 16.3419 18.4806V0.383789C16.0677 0.438628 15.4097 0.493466 15.4097 0.493466Z" fill="#202950"/>
        <path d="M22.3203 0.383789V18.4806H32.7945C32.7945 18.4806 32.4655 18.0419 32.7945 16.8902C32.7945 16.8902 28.3526 17.4386 25.7203 17.0548V9.54185C25.7203 9.54185 28.2429 9.43218 31.9719 9.81605C31.9719 9.81605 31.6429 9.10314 31.9719 8.11605C31.9719 8.11605 27.201 8.49992 25.7203 8.3354V1.86443C25.7203 1.86443 28.9558 1.64508 32.5752 2.08379C32.5752 2.08379 32.1913 1.26121 32.5752 0.383789H22.3203Z" fill="#202950"/>
        <path d="M84.2324 18.5354V0.383789H85.2744H86.4808L97.7227 13.1064V0.383789C97.7227 0.383789 99.0937 0.712821 100.355 0.383789V18.4806H99.3131H98.326L86.8098 5.53863V18.4806C86.8647 18.5354 85.384 18.3709 84.2324 18.5354Z" fill="#202950"/>
        <path d="M170.877 18.5354V0.383789H171.919H173.125L184.367 13.1064V0.383789C184.367 0.383789 185.738 0.712821 187 0.383789V18.4806H185.958H184.97L173.454 5.53863V18.4806C173.509 18.5354 171.974 18.3709 170.877 18.5354Z" fill="#202950"/>
        <path d="M77.3234 9.37734V18.4806C76.8847 18.4257 76.2266 18.4257 75.9524 18.4257C75.4589 18.4257 74.5266 18.4257 74.0879 18.4806V0.383789C74.3072 0.438628 75.0201 0.493466 75.0201 0.493466C75.0201 0.493466 75.4589 0.548305 75.6782 0.548305C75.8976 0.548305 76.1169 0.548305 76.3363 0.493466C76.5556 0.438628 77.0492 0.438628 77.2685 0.383789V8.06121L77.3234 9.37734Z" fill="#202950"/>
        <path d="M142.306 0.383789H127.773C127.883 0.76766 127.938 1.09669 127.938 1.31605C127.938 1.59024 127.883 1.91927 127.773 2.30314C128.157 2.24831 128.596 2.19347 129.09 2.13863C129.583 2.08379 130.077 2.08379 130.625 2.02895C131.173 1.97411 131.667 1.97411 132.215 1.97411C132.599 1.97411 132.983 1.97411 133.367 1.97411V18.4806C133.806 18.4257 134.738 18.4257 135.232 18.4257C135.561 18.4257 136.164 18.4257 136.602 18.4806V9.37734V8.06121V1.97411C136.986 1.97411 137.37 1.97411 137.754 1.97411C138.302 1.97411 138.796 2.02895 139.344 2.02895C139.893 2.08379 140.386 2.08379 140.88 2.13863C141.373 2.19347 141.812 2.24831 142.196 2.30314C142.086 1.91927 142.032 1.59024 142.032 1.37089C142.141 1.15153 142.196 0.822499 142.306 0.383789Z" fill="#202950"/>
        <path d="M123.278 1.80975C123.278 1.80975 118.836 -1.3709 111.872 0.767811C111.872 0.767811 105.675 2.46781 105.51 9.48717C105.51 9.48717 104.852 18.8646 115.272 18.8646C115.272 18.8646 118.946 19.0291 123.059 17.6581V10.1452C123.059 10.1452 121.468 10.5839 119.823 10.1452V16.8904C119.823 16.8904 119.165 17.8226 116.149 17.8775C116.149 17.8775 109.239 17.713 109.13 9.48717C109.13 9.48717 108.636 2.0291 115.875 1.42588C115.875 1.42588 119.11 1.20652 121.413 4.0033H122.455L123.278 1.80975Z" fill="#202950"/>
        <path d="M161.501 13.1065C161.172 14.1484 160.678 14.971 160.075 15.629C159.472 16.2871 158.759 16.7806 157.936 17.1097C157.113 17.4387 156.236 17.6032 155.304 17.6032C154.372 17.6032 153.494 17.4387 152.672 17.1097C151.849 16.7806 151.136 16.2871 150.533 15.629C149.93 14.971 149.436 14.0935 149.107 13.1065C148.778 12.0645 148.613 10.8581 148.613 9.43226C148.613 8.00645 148.778 6.8 149.107 5.75806C149.436 4.71613 149.93 3.89355 150.533 3.23548C151.136 2.57742 151.849 2.08387 152.672 1.75484C153.494 1.42581 154.372 1.26129 155.304 1.26129C156.236 1.26129 157.113 1.42581 157.936 1.75484C158.759 2.08387 159.472 2.57742 160.075 3.23548C160.678 3.89355 161.172 4.77097 161.501 5.75806C161.83 6.8 161.994 8.00645 161.994 9.43226C162.049 10.8581 161.83 12.0645 161.501 13.1065ZM164.955 5.48387C164.462 4.33226 163.749 3.29032 162.817 2.52258C161.884 1.7 160.788 1.09677 159.526 0.658065C158.265 0.219355 156.839 0 155.359 0C153.823 0 152.452 0.219355 151.191 0.658065C149.93 1.09677 148.833 1.7 147.901 2.52258C146.968 3.34516 146.255 4.33226 145.762 5.48387C145.268 6.63548 144.994 8.00645 144.994 9.4871C144.994 10.9677 145.268 12.3387 145.762 13.4903C146.255 14.6419 146.968 15.6839 147.901 16.4516C148.833 17.2742 149.93 17.8774 151.191 18.2613C152.452 18.6452 153.878 18.8645 155.359 18.8645C156.894 18.8645 158.265 18.6452 159.581 18.2613C160.843 17.8774 161.939 17.2742 162.872 16.4516C163.804 15.629 164.517 14.6419 165.01 13.4903C165.504 12.3387 165.778 10.9677 165.778 9.4871C165.723 8.00645 165.449 6.63548 164.955 5.48387Z" fill="#202950"/>
    </g>
    <defs>
        <clipPath id="clip0_237_1596">
            <rect width="187" height="18.8645" fill="white"/>
        </clipPath>
    </defs>
</svg>
