<svg width="187" height="100" viewBox="0 0 187 187" fill="none" xmlns="http://www.w3.org/2000/svg">
    <g clip-path="url(#clip0_225_838)">
        <path fill-rule="evenodd" clip-rule="evenodd" d="M0 0H187V187H0V0Z" fill="white"/>
        <path fill-rule="evenodd" clip-rule="evenodd" d="M126.523 42.986C132.392 40.0465 135.409 40.5025 135.477 43.4419C135.555 47.2836 134.953 52.3961 134.575 56.0826C132.315 76.1058 128.706 92.4426 128.405 113.067C138.116 87.9219 146.168 70.615 156.636 49.1559C159.944 42.3069 162.126 43.5875 164.843 42.3069C175.456 37.563 175.834 40.5025 174.398 46.3717C169.276 67.6755 156.18 135.041 154.152 145.353C153.551 148.36 150.242 147.157 149.486 145.954C145.576 140.764 141.356 140.687 141.812 137.146C144.218 119.984 152.804 76.5521 154.986 66.3173C143.617 89.5032 131.878 118.636 125.854 135.041C124.573 138.504 122.245 138.281 120.809 135.72C118.704 132.033 114.785 130.229 114.183 126.009C112.078 112.534 116.521 86.7868 117.123 70.4597C111.03 88.2226 100.64 122.846 96.1196 138.426C94.2375 144.897 87.99 143.772 89.6489 137.602C96.5755 111.331 111.399 65.0368 117.802 48.3992C119.305 44.4121 123.293 44.6352 126.533 42.9763L126.523 42.986Z" fill="#E1081E"/>
        <path fill-rule="evenodd" clip-rule="evenodd" d="M89.0376 39.7555C87.0003 39.2995 81.1311 42.4621 77.5223 42.9957C76.3969 43.2964 75.3395 44.4218 74.9612 45.324C69.2375 58.4982 64.1249 70.9933 59.7594 82.2855C54.0357 83.3429 47.4098 84.6235 40.0369 86.2048C45.3823 72.6522 50.7276 59.187 55.9177 46.3135C58.4789 39.8428 51.7074 39.2413 49.0687 45.712C45.683 54.0647 39.2802 69.8001 32.2081 88.0868C27.0179 89.3673 21.3718 90.7934 15.6481 92.5299C11.4281 93.6553 11.2826 94.7903 13.087 97.3514C14.1445 98.7096 16.0944 98.5544 17.0742 99.6118C19.5577 102.173 21.0614 105.258 25.5045 105.704C21.4397 116.24 17.5302 127.008 14.0668 137.32C11.8065 143.869 18.2092 145.227 20.6151 138.3C24.5247 127.231 28.6671 116.016 32.9647 104.656C36.5057 103.9 45.0039 102.095 52.9104 100.291C46.6628 117.607 42.598 130.626 40.9391 137.02C40.6384 138.223 41.2399 138.824 41.463 139.425C43.5002 142.433 45.6054 142.588 48.312 146.43C48.9911 147.487 51.4746 148.011 52.3768 145.45C58.1684 127.833 64.0473 111.428 69.6158 96.6723C71.9538 96.0709 76.1641 95.091 78.7252 91.327C83.246 84.5556 84.5265 85.904 85.7295 83.8765C87.0876 81.2377 86.1078 78.9095 81.2863 79.4333C81.2863 79.4333 79.4819 79.5885 76.0186 79.9572C81.4416 66.1815 86.2533 54.511 89.5711 45.5568C90.6965 42.4718 90.8517 40.2114 89.0473 39.7652L89.0376 39.7555Z" fill="#E1081E"/>
        <path fill-rule="evenodd" clip-rule="evenodd" d="M83.7405 125.291C84.5263 124.301 85.2345 123.273 85.8748 122.322C88.7269 118.102 85.9524 115.619 83.0129 118.102C82.5958 118.49 82.1592 118.907 81.7227 119.344C81.2473 117.85 80.7429 116.269 80.2869 114.823C81.6354 113.174 82.945 111.486 84.0607 109.749C88.7754 102.435 79.5496 98.2341 75.5527 102.978C73.4476 105.461 73.9714 107.945 74.5729 110.128C74.7475 110.787 75.0192 111.719 75.3587 112.854C74.2334 114.037 72.8849 115.483 71.1096 117.578C66.5209 122.846 67.7918 129.637 72.6133 131.131C75.5236 132.033 78.2594 130.723 80.6362 128.618C80.7526 128.919 80.8593 129.2 80.966 129.472C82.2465 132.635 86.2337 131.655 84.6524 127.813C84.4002 127.163 84.0801 126.3 83.7211 125.281L83.7405 125.291ZM77.2116 118.665C77.5997 119.897 78.0265 121.187 78.4437 122.419C77.9198 122.856 77.3863 123.302 76.8527 123.612C74.9901 124.689 73.6125 123.535 76.0281 120.304C76.4258 119.742 76.8236 119.208 77.2213 118.675L77.2116 118.665ZM78.7153 109.439C78.5795 109.09 78.5019 108.75 78.4243 108.469C77.0758 103.424 82.8577 104.773 79.928 108.091C79.5108 108.556 79.1325 109.022 78.7153 109.429V109.439Z" fill="#E1081E"/>
    </g>
    <defs>
        <clipPath id="clip0_225_838">
            <rect width="187" height="187" fill="white"/>
        </clipPath>
    </defs>
</svg>
