<svg width="187" height="34" viewBox="0 0 187 34" fill="none" xmlns="http://www.w3.org/2000/svg">
    <g clip-path="url(#clip0_237_1608)">
        <path d="M22.0931 6.5024C23.8869 6.5024 25.3443 5.04496 25.3443 3.24719C25.3443 1.45343 23.8869 0 22.0931 0C20.2953 0 18.8379 1.45343 18.8379 3.24719C18.8379 5.04496 20.2953 6.5024 22.0931 6.5024Z" fill="black"/>
        <path d="M16.3648 19.4111C16.1485 19.7435 15.6641 20.4802 15.3438 21.0287L22.0904 27.7794L28.841 21.0287C28.5247 20.4802 28.0362 19.7435 27.824 19.4111L22.0944 25.1368L16.3648 19.4111Z" fill="black"/>
        <path d="M17.4453 17.8457L22.0939 22.4982L26.7385 17.8577L22.0939 11.2832L17.4453 17.8457Z" fill="black"/>
        <path d="M22.0904 30.4183L14.4349 22.7588C14.1426 23.5956 13.9824 24.4925 13.9824 25.4334C13.9824 29.9138 17.582 33.5414 22.0624 33.5414C26.5388 33.5414 30.2024 29.9098 30.2024 25.4334C30.2024 24.4965 30.0422 23.5956 29.7499 22.7588L22.0904 30.4183Z" fill="black"/>
        <path d="M40.3634 2.31838C33.5327 -2.08195 28.3956 5.66568 23.3066 9.42537C23.3066 9.42537 25.1605 12.6365 27.1424 14.8187C29.1244 17.0048 30.786 17.8897 33.5487 17.8417C36.3114 17.7936 38.7819 16.0639 39.8589 14.5504C40.936 13.0329 41.4165 11.5194 41.4165 9.42137H27.2826C29.4367 7.7277 31.775 5.17319 34.2294 4.02806C36.2434 3.10315 38.7138 3.96801 40.2273 5.8899C40.964 6.89889 41.4165 8.18816 41.4165 9.42137C42.5095 9.42137 43.5626 9.41737 44.1752 9.41737C44.3113 6.48648 42.7017 4.01205 40.3634 2.31838Z" fill="black"/>
        <path d="M17.0408 14.8187C19.0227 12.6326 20.8766 9.42542 20.8766 9.42542C15.7875 5.66172 10.6505 -2.08591 3.81977 2.31843C1.48147 4.01209 -0.128111 6.48653 0.0080233 9.42141C0.62463 9.42141 1.67767 9.42542 2.76674 9.42542C2.76674 8.19221 3.21918 6.90294 3.95591 5.89394C5.4694 3.96805 7.93983 3.1032 9.95381 4.03211C12.4042 5.18124 14.7465 7.73175 16.9006 9.42542H2.76674C2.76674 11.5195 3.24721 13.037 4.32427 14.5545C5.40133 16.072 7.87176 17.8017 10.6345 17.8457C13.3972 17.8897 15.0588 17.0009 17.0408 14.8187Z" fill="black"/>
        <path d="M184.438 1.31738C183.024 1.31738 181.875 2.46251 181.875 3.8799C181.875 5.29329 183.02 6.44243 184.438 6.44243C185.851 6.44243 187 5.2973 187 3.8799C187 2.46251 185.851 1.31738 184.438 1.31738ZM184.438 6.08207C183.22 6.08207 182.235 5.0971 182.235 3.8799C182.235 2.66271 183.22 1.67774 184.438 1.67774C185.655 1.67774 186.64 2.66271 186.64 3.8799C186.64 5.0931 185.655 6.08207 184.438 6.08207ZM185.519 3.25129C185.519 2.99904 185.398 2.79484 185.206 2.66271C185.014 2.53458 184.754 2.47052 184.434 2.47052H183.525V5.25326H183.977V4.05608H184.321L185.074 5.25326H185.571L184.786 4.01604C185.126 3.95598 185.519 3.73576 185.519 3.25129ZM184.309 3.72775H183.977V2.78683H184.309C184.534 2.78683 184.706 2.79484 184.85 2.88693C184.994 2.97501 185.054 3.09113 185.054 3.25929C185.054 3.42746 184.994 3.53957 184.85 3.63566C184.702 3.71975 184.53 3.72775 184.309 3.72775Z" fill="black"/>
        <path d="M148.014 14.9108V29.6372C148.014 31.0987 146.828 32.1157 145.371 32.1157H143.93C142.468 32.1157 141.287 31.0947 141.287 29.6372V16.6845C141.287 15.7996 140.542 15.6235 140.01 15.6235H139.709C139.193 15.6235 138.444 15.7996 138.444 16.6925V29.6413C138.444 31.1027 137.259 32.1197 135.802 32.1197H134.36C134.336 32.1197 134.312 32.1197 134.288 32.1197C132.859 32.0877 131.714 31.0787 131.714 29.6413V16.6885C131.714 15.8036 130.953 15.6275 130.436 15.6275H130.124C129.587 15.6275 128.855 15.8036 128.855 16.6885V29.6413C128.855 31.1027 127.67 32.1197 126.212 32.1197H124.771C123.309 32.1197 122.128 31.0987 122.128 29.6413V14.9148C122.128 11.8678 123.461 9.41735 128.074 9.41735H142.456C146.648 9.41335 148.014 11.8638 148.014 14.9108ZM165.911 23.7154H156.622C156.622 23.7154 156.622 24.9526 156.622 25.1248C156.622 25.5412 156.826 26.1939 157.547 26.1939C157.943 26.1979 168.906 26.2179 168.906 26.2179C170.368 26.2179 171.385 27.2549 171.385 28.5362V29.8014C171.385 31.0827 170.364 32.1197 168.906 32.1197H155.393C152.874 32.1197 149.895 30.9505 149.895 26.9066V14.6305C149.895 10.6746 152.806 9.41735 155.393 9.41735H165.915C168.434 9.41735 171.413 10.5865 171.413 14.6305V18.5063C171.409 22.5463 168.43 23.7154 165.911 23.7154ZM165.054 16.6965V16.4363C165.054 15.9718 164.846 15.3152 163.889 15.3152H157.787C156.83 15.3152 156.622 15.9718 156.622 16.4363V17.8176H163.909C164.858 17.8056 165.054 17.157 165.054 16.6965ZM177.375 1.31738H175.933C174.472 1.31738 173.29 2.33839 173.29 3.79582V29.6372C173.29 31.0987 174.476 32.1157 175.933 32.1157H177.375C178.836 32.1157 180.017 31.0947 180.017 29.6372V3.79582C180.017 2.33438 178.832 1.31738 177.375 1.31738ZM89.8204 9.41335H88.379C86.9175 9.41335 85.7364 10.4344 85.7364 11.8918V24.7404C85.7364 25.6854 84.9876 25.9056 84.4591 25.9056H79.3581C78.8296 25.9056 78.0808 25.6934 78.0808 24.7404V11.8918C78.0808 10.4303 76.8957 9.41335 75.4382 9.41335H73.9968C72.5354 9.41335 71.3542 10.4344 71.3542 11.8918V26.6183C71.3542 29.1368 72.6875 32.1157 77.3 32.1157H86.5211C91.1337 32.1157 92.467 29.1368 92.467 26.6183V11.8918C92.463 10.4344 91.2818 9.41335 89.8204 9.41335ZM114.669 9.41335H100.287C95.6741 9.41335 94.3408 11.8638 94.3408 14.9108V29.6372C94.3408 31.0987 95.526 32.1157 96.9834 32.1157H98.4248C99.8863 32.1157 101.067 31.0947 101.067 29.6372V16.6845C101.067 15.7996 101.8 15.6235 102.337 15.6235H102.649C103.161 15.6235 103.926 15.7996 103.926 16.6845V29.6372C103.926 31.0747 105.071 32.0837 106.501 32.1157C106.525 32.1157 106.549 32.1157 106.573 32.1157H108.014C109.476 32.1157 110.657 31.0947 110.657 29.6372V16.6885C110.657 15.7956 111.406 15.6195 111.922 15.6195H112.222C112.755 15.6195 113.5 15.7956 113.5 16.6805V29.6332C113.5 31.0947 114.685 32.1117 116.142 32.1117H117.584C119.045 32.1117 120.226 31.0907 120.226 29.6332V14.9068C120.238 11.8638 118.873 9.41335 114.669 9.41335ZM63.5185 9.41335H54.6778V3.79582C54.6778 2.33438 53.4926 1.31738 52.0352 1.31738H50.5938C49.1323 1.31738 47.9512 2.33839 47.9512 3.79582V29.6372C47.9512 31.0987 49.1363 32.1157 50.5938 32.1157H52.0352C53.4966 32.1157 54.6778 31.0947 54.6778 29.6372V15.7276H61.4565C61.985 15.7276 62.7337 15.9238 62.7337 16.8927V29.6332C62.7337 31.0947 63.9189 32.1117 65.3763 32.1117H66.8177C68.2792 32.1117 69.4603 31.0907 69.4603 29.6332V14.9068C69.4683 12.3963 68.131 9.41335 63.5185 9.41335Z" fill="black"/>
    </g>
    <defs>
        <clipPath id="clip0_237_1608">
            <rect width="187" height="33.541" fill="white"/>
        </clipPath>
    </defs>
</svg>
