<svg width="187" height="41" viewBox="0 0 187 41" fill="none" xmlns="http://www.w3.org/2000/svg">
    <g clip-path="url(#clip0_215_60)">
        <mask id="mask0_215_60" style="mask-type:luminance" maskUnits="userSpaceOnUse" x="0" y="0" width="187" height="41">
            <path d="M0.516571 0H186.483V40.111H0.516571V0Z" fill="white"/>
        </mask>
        <g mask="url(#mask0_215_60)">
            <path fill-rule="evenodd" clip-rule="evenodd" d="M82.8441 19.0409V1.41847C82.8441 0.716964 82.5486 0.330566 82.0124 0.330566C81.4762 0.330566 81.1807 0.716964 81.1807 1.41951V39.022C81.1807 39.7245 81.4762 40.112 82.0124 40.112C82.5476 40.112 82.8441 39.7245 82.8441 39.022V19.0409Z" fill="#69756B"/>
            <path fill-rule="evenodd" clip-rule="evenodd" d="M101.102 14.8411V17.3516C101.102 18.9674 100.73 19.8436 98.7711 19.8436H97.4466V12.3481H98.7711C100.72 12.3481 101.102 13.2614 101.102 14.8411ZM104.723 30.7877L101.295 21.9667C103.697 21.2817 104.034 19.3476 104.034 17.3506V14.84C104.034 11.3046 102.51 9.86334 98.7711 9.86334H95.3555C94.809 9.86334 94.4836 10.1712 94.4836 10.6878V31.0357C94.4836 31.5626 94.8173 31.8901 95.3545 31.8901H96.5746C97.1119 31.8901 97.4466 31.5626 97.4466 31.0357V22.3283H98.2969L101.782 31.3022C101.864 31.5698 102.08 31.8911 102.645 31.8911H104.03C104.314 31.8735 104.542 31.7496 104.677 31.5419C104.745 31.4293 104.784 31.3018 104.792 31.1704C104.8 31.039 104.777 30.9077 104.723 30.7877ZM115.561 12.3491C116.099 12.3491 116.434 12.0206 116.434 11.4936V10.6878C116.434 10.1712 116.107 9.86334 115.561 9.86334H108.659C108.112 9.86334 107.786 10.1712 107.786 10.6878V31.0357C107.786 31.5626 108.121 31.8901 108.659 31.8901H115.561C116.099 31.8901 116.434 31.5626 116.434 31.0357V30.2298C116.434 29.7132 116.107 29.4064 115.561 29.4064H110.754V22.1196H114.4C114.94 22.1196 115.273 21.791 115.273 21.2641V20.4583C115.273 19.9417 114.947 19.6338 114.4 19.6338H110.754V12.3481H115.561V12.3491ZM133.62 9.86334C133.851 9.86334 134.046 9.93876 134.18 10.0824C134.338 10.2497 134.412 10.506 134.39 10.82L132.222 31.0574C132.147 31.6132 131.849 31.8911 131.333 31.8911H128.835C128.297 31.8911 127.981 31.5915 127.945 31.0501L126.922 18.5025L126.745 15.4144L126.566 18.4984L125.541 31.0543C125.506 31.5915 125.19 31.8911 124.653 31.8911H122.154C121.617 31.8911 121.301 31.5915 121.264 31.0501L119.099 10.8273C119.077 10.5142 119.152 10.259 119.315 10.0855C119.387 10.0121 119.473 9.95441 119.568 9.91616C119.663 9.87791 119.765 9.85992 119.867 9.86334H121.071C121.547 9.86334 121.864 10.1609 121.899 10.6413L123.194 23.9069L123.428 27.4279L123.641 23.9131L124.815 10.6403C124.853 10.1547 125.175 9.8623 125.675 9.8623H127.811C128.294 9.8623 128.599 10.1361 128.67 10.6289L129.845 23.908L130.045 27.5044L130.263 23.9131L131.588 10.6372C131.624 10.1619 131.942 9.86334 132.417 9.86334H133.62ZM142.798 24.7149H139.594L140.631 17.9715L141.212 13.1911L141.791 17.9767L142.798 24.7149ZM146.687 30.9179L143.505 10.6909C143.43 10.1413 143.127 9.86437 142.604 9.86437H139.85C139.313 9.86437 138.992 10.1495 138.917 10.6878L135.736 30.92C135.694 31.2061 135.759 31.4624 135.919 31.6432C136.064 31.8054 136.27 31.8911 136.516 31.8911H137.801C138.272 31.8911 138.597 31.606 138.672 31.1266L139.26 27.2006H143.163L143.779 31.1204C143.82 31.5822 144.157 31.8911 144.621 31.8911H145.906C146.158 31.8911 146.364 31.8085 146.507 31.6483C146.666 31.4727 146.728 31.2196 146.687 30.9179ZM155.978 17.3506V14.84C155.978 13.2614 155.595 12.3491 153.646 12.3491H152.322V19.8436H153.646C155.606 19.8436 155.978 18.9674 155.978 17.3506ZM156.17 21.9667L159.599 30.7877C159.652 30.9079 159.676 31.0393 159.668 31.1706C159.659 31.302 159.619 31.4293 159.551 31.5419C159.418 31.7506 159.189 31.8746 158.905 31.8911H157.52C156.956 31.8911 156.739 31.5708 156.657 31.3022L153.173 22.3293H152.322V31.0367C152.322 31.5636 151.989 31.8911 151.451 31.8911H150.231C149.694 31.8911 149.359 31.5636 149.359 31.0367V10.6878C149.359 10.1712 149.685 9.86334 150.231 9.86334H153.646C157.385 9.86334 158.911 11.3046 158.911 14.8411V17.3516C158.911 19.3476 158.573 21.2817 156.17 21.9667ZM166.842 29.4054H165.552V12.3491H166.842C168.743 12.3491 169.114 13.2634 169.114 14.8421V26.8845C169.114 28.4817 168.743 29.4085 166.842 29.4085V29.4054ZM166.842 9.86334H163.512C162.979 9.86334 162.662 10.1712 162.662 10.6878V31.0357C162.662 31.5626 162.989 31.8901 163.512 31.8901H166.842C170.488 31.8901 171.974 30.4395 171.974 26.8824V14.8411C171.974 11.3046 170.488 9.86334 166.842 9.86334ZM184.114 18.1265H182.879C182.351 18.1265 182.048 17.8269 182.048 17.2999V14.4588C182.048 13.1591 181.724 12.3512 180.108 12.3512C178.51 12.3512 178.197 13.124 178.197 14.4588C178.197 16.3371 178.403 17.0964 179.769 18.5118L182.902 21.7724C184.257 23.1176 184.946 24.3946 184.946 27.6252C184.946 30.889 183.543 32.2197 180.108 32.2197C176.692 32.2197 175.3 30.889 175.3 27.6252V24.781C175.3 24.2458 175.611 23.9266 176.131 23.9266H177.366C177.887 23.9266 178.197 24.2468 178.197 24.782V27.6252C178.197 28.9601 178.51 29.7318 180.108 29.7318C181.724 29.7318 182.048 28.926 182.048 27.6242C182.048 25.7728 181.841 25.0155 180.476 23.5701L177.343 20.3095C175.99 18.9953 175.3 17.7266 175.3 14.4588C175.3 11.1951 176.692 9.86334 180.108 9.86334C183.543 9.86334 184.946 11.1961 184.946 14.4578V17.302C184.946 17.8248 184.642 18.1265 184.114 18.1265Z" fill="#4F6157"/>
            <path fill-rule="evenodd" clip-rule="evenodd" d="M59.6943 28.1286C60.3524 28.5367 61.2606 28.7795 62.1367 28.7795C64.6937 28.7795 66.2207 27.0593 66.2207 24.1799C66.2207 21.3026 64.7061 19.5142 62.271 19.5142C61.2688 19.5142 60.401 19.7973 59.6943 20.3552V28.1286ZM59.6943 17.3291C60.5777 16.7144 61.7234 16.4013 63.1078 16.4013C67.3779 16.4013 70.1384 19.3634 70.1384 23.9485C70.1384 28.8466 67.072 31.8913 62.1367 31.8913C60.308 31.8913 58.4287 31.4543 57.2313 30.7518C55.8758 29.9614 55.8758 28.9747 55.8758 28.018V10.4473C55.8758 9.73751 56.2085 8.89136 57.7851 8.89136C59.3637 8.89136 59.6943 9.73751 59.6943 10.4473V17.3291ZM5.92924 11.903C5.92924 13.15 5.00147 14.055 3.7214 14.055C2.4434 14.055 1.5146 13.149 1.5146 11.903C1.5146 10.656 2.4434 9.75197 3.7214 9.75197C5.00251 9.75197 5.92924 10.656 5.92924 11.903ZM1.81318 18.0254C1.81318 17.3146 2.14378 16.4685 3.7214 16.4685C5.29902 16.4685 5.63169 17.3146 5.63169 18.0244V30.2362C5.63169 30.946 5.29902 31.7921 3.72243 31.7921C2.14378 31.7921 1.81318 30.946 1.81318 30.2362V18.0244V18.0254ZM24.5425 9.7499C23.2541 9.7499 22.6001 10.2737 22.6001 11.3069V18.7187H12.8947V11.3079C12.8947 10.5981 12.5641 9.75197 10.9865 9.75197C9.69817 9.75197 9.04419 10.2747 9.04419 11.3079V30.2352C9.04419 31.2683 9.69714 31.7921 10.9865 31.7921C12.5641 31.7921 12.8947 30.946 12.8947 30.2362V22.1291H22.6012V30.2362C22.6012 31.2683 23.2541 31.7921 24.5435 31.7921C26.1211 31.7921 26.4527 30.946 26.4527 30.2362V11.3079C26.4527 10.5981 26.1221 9.75197 24.5435 9.75197V9.75094L24.5425 9.7499ZM38.8361 22.5579C38.7999 20.5473 37.6944 19.3499 35.8585 19.3499C34.0877 19.3499 32.9843 20.4585 32.662 22.5589L38.8361 22.5579ZM39.2886 27.9664C39.799 27.6771 40.1637 27.4891 40.578 27.4891C41.6865 27.4891 42.1866 28.4768 42.1866 29.1783C42.1866 29.7455 41.8312 30.2383 41.0997 30.6867C39.8186 31.4863 38.2245 31.8924 36.3596 31.8924C31.6856 31.8924 28.8941 29.0099 28.8941 24.1809C28.8941 19.3954 31.6547 16.3042 35.9257 16.3042C39.8269 16.3042 42.5544 19.0389 42.5544 22.9566C42.5544 25.1903 41.5388 25.3732 40.3114 25.3732H32.6971C33.068 27.5459 34.3563 28.6483 36.528 28.6483C37.5612 28.6483 38.5168 28.4106 39.2886 27.9664ZM52.6968 16.4024C50.9115 16.4024 49.463 17.2413 48.5797 18.7765V18.0306C48.5983 17.5657 48.4764 17.1979 48.2181 16.9324C47.9195 16.6255 47.4443 16.4695 46.8058 16.4695C45.5825 16.4695 44.9637 16.9923 44.9637 18.0254V30.2373C44.9637 30.947 45.2943 31.7932 46.8719 31.7932C48.4495 31.7932 48.7801 30.947 48.7801 30.2373V21.8202C49.4951 20.4874 50.5406 19.944 52.4995 19.8779C53.8054 19.8438 54.3385 19.3344 54.3385 18.1225C54.3385 16.9158 53.8477 16.4003 52.6958 16.4003L52.6968 16.4024ZM68.6827 10.4473C68.6827 10.5713 68.6114 10.6229 68.4482 10.6229H68.1899V10.2716H68.443C68.6135 10.2716 68.6827 10.3212 68.6827 10.4473ZM69.1776 11.5486L68.7726 10.9525C68.8778 10.9173 68.9689 10.8489 69.032 10.7577C69.0951 10.6664 69.127 10.5571 69.1228 10.4462C69.1228 10.097 68.8718 9.88835 68.4523 9.88835H67.8417C67.7498 9.88835 67.7312 9.94207 67.7312 9.98856V11.5899C67.7312 11.6561 67.7673 11.6891 67.8417 11.6891H68.0794C68.1517 11.6891 68.1889 11.6561 68.1889 11.5889V11.0062H68.3139L68.7199 11.6158C68.7623 11.6705 68.7995 11.6891 68.8594 11.6891H69.0825C69.1311 11.6891 69.1652 11.6757 69.1828 11.6478C69.1993 11.6209 69.1983 11.5868 69.1776 11.5486ZM66.9615 10.7882C66.9615 11.5806 67.6155 12.2243 68.4203 12.2243C68.8028 12.2254 69.1702 12.0749 69.4421 11.8058C69.7139 11.5366 69.8681 11.1708 69.8708 10.7882C69.8681 10.4053 69.7137 10.0391 69.4414 9.76994C69.1691 9.50074 68.8011 9.35049 68.4182 9.35214C67.6165 9.35214 66.9615 9.99683 66.9615 10.7882ZM66.6268 10.7882C66.6268 9.81293 67.4326 9.0174 68.4182 9.0174C69.407 9.0174 70.2107 9.81293 70.2107 10.7882C70.2107 11.7656 69.408 12.559 68.4193 12.559C67.9469 12.5615 67.4928 12.3764 67.1567 12.0444C66.8206 11.7124 66.63 11.2606 66.6268 10.7882Z" fill="#458500"/>
        </g>
    </g>
    <defs>
        <clipPath id="clip0_215_60">
            <rect width="187" height="40.2928" fill="white"/>
        </clipPath>
    </defs>
</svg>
