<svg width="187" height="101" viewBox="0 0 187 101" fill="none" xmlns="http://www.w3.org/2000/svg">
    <g clip-path="url(#clip0_242_1951)">
        <path d="M-0.0292969 0H187V100.318H-0.0292969V0Z" fill="#144385"/>
        <path d="M14.0356 41.5996H19.3778V57.6417H14.0356V41.5996Z" fill="white"/>
        <path fill-rule="evenodd" clip-rule="evenodd" d="M24.4493 41.5996H27.7608L24.2896 47.8096L29.8606 57.6417H23.9614L19.3779 50.037L24.4493 41.5996Z" fill="white"/>
        <path d="M63.6606 41.5996H68.9999V57.6417H63.6606V41.5996Z" fill="white"/>
        <path fill-rule="evenodd" clip-rule="evenodd" d="M74.0724 41.5996H77.3829L73.9136 47.8096L79.4837 57.6417H73.5834L69 50.037L74.0724 41.5996Z" fill="white"/>
        <path fill-rule="evenodd" clip-rule="evenodd" d="M34.3544 46.5278C34.3544 44.915 35.414 43.6069 36.7279 43.6069C38.0427 43.6069 39.1063 44.915 39.1063 46.5278L39.1102 52.7134C39.1102 54.3273 38.0427 55.6353 36.7279 55.6353C35.414 55.6353 34.3514 54.3273 34.3514 52.7134L34.3544 46.5278ZM28.6431 49.6211C28.6431 45.1906 32.2633 41.5996 36.7308 41.5996C41.1993 41.5996 44.8195 45.1906 44.8195 49.6211C44.8195 54.0526 41.2003 57.6417 36.7308 57.6417C32.2633 57.6417 28.6431 54.0526 28.6431 49.6211Z" fill="white"/>
        <path d="M82.9451 47.8066V57.6427H79.9492V43.9215C79.9492 42.6388 81.4238 41.5996 83.2422 41.5996C84.7109 41.5996 85.9556 42.2775 86.3793 43.2135L88.6476 48.5507L90.8955 43.2514C91.3231 42.2755 92.5181 41.5996 93.9294 41.5996C95.6796 41.5996 97.0987 42.6388 97.0987 43.9215V57.6417H91.4838V47.6761L87.6756 57.6417H87.0484L82.9451 47.8066Z" fill="white"/>
        <path fill-rule="evenodd" clip-rule="evenodd" d="M106.077 52.3268L104.139 46.3817L102.206 52.3268H106.077ZM98.0493 57.6417L102.729 43.2466C102.959 42.3106 104.086 41.6006 105.441 41.6006C106.807 41.6006 107.942 42.3233 108.156 43.2719L113.108 57.6417H107.81L106.831 54.6448H101.455L100.478 57.6417H98.0493Z" fill="white"/>
        <path d="M120.634 55.05H126.869V57.6427H114.684C114.348 57.6427 114.075 57.2891 114.075 56.8537C114.075 56.7116 114.103 56.5752 114.155 56.4593L119.812 44.3238H114.061V41.6016H123.717C124.975 41.6016 125.998 42.3505 125.998 43.2777C125.998 43.5018 125.937 43.717 125.829 43.9108L120.634 55.05Z" fill="white"/>
        <path d="M46.1938 41.5996H51.7444H54.5056C58.3635 41.5996 59.9695 44.5059 59.9695 46.1986V46.4032L59.9802 46.7879C59.9802 48.9364 58.8748 50.1938 57.1139 50.6701L61.7937 57.6417H55.5555L51.912 49.701L52.5314 49.6952C52.6785 49.6776 52.993 49.6075 52.993 49.6075C54.0469 49.325 54.7023 48.2644 54.7023 46.9807L54.6965 46.7518V46.6272C54.6965 45.6367 53.9466 44.1202 51.7435 44.0598V57.6427H46.1929V41.5996H46.1938Z" fill="white"/>
        <path fill-rule="evenodd" clip-rule="evenodd" d="M135.267 49.621C135.267 39.7129 143.299 31.6797 153.208 31.6797C163.117 31.6797 171.151 39.7129 171.151 49.621C171.151 59.5291 163.117 67.5613 153.208 67.5613C143.299 67.5613 135.267 59.53 135.267 49.621ZM133.265 49.621C133.265 38.6065 142.194 29.6782 153.208 29.6782C164.225 29.6782 173.153 38.6065 173.153 49.621C173.153 60.6345 164.225 69.5638 153.208 69.5638C142.193 69.5638 133.265 60.6345 133.265 49.621Z" fill="white"/>
        <path d="M146.678 42.892L149.052 43.936C148.455 44.8428 148.093 46.0242 148.093 47.3176C148.093 50.1713 149.848 52.4825 152.012 52.4825L152.147 52.4806V52.7523V63.7074H143.917C143.917 63.7074 144.154 61.4994 144.229 60.7621C144.229 60.7621 144.676 58.5532 144.711 56.4056C144.739 54.6418 144.618 54.5239 143.502 54.1207C140.237 52.9383 137.839 49.7973 137.839 46.0826C137.839 41.3677 141.663 37.5449 146.377 37.5449C149.452 37.5449 151.48 39.5513 153.207 39.5678C154.937 39.5513 156.965 37.5449 160.038 37.5449C164.754 37.5449 168.577 41.3667 168.577 46.0826C168.577 49.7973 166.181 52.9383 162.914 54.1207C161.799 54.5239 161.678 54.6418 161.706 56.4056C161.74 58.5532 162.185 60.7621 162.185 60.7621C162.26 61.4994 162.499 63.7074 162.499 63.7074H154.27V52.7523V52.4806L154.402 52.4825C156.567 52.4825 158.321 50.1703 158.321 47.3176C158.321 46.0242 157.959 44.8428 157.363 43.936L159.736 42.892C160.486 44.1308 160.935 45.7009 160.935 47.4072C160.935 50.7947 159.155 53.6376 156.772 54.4343L156.776 54.56L156.772 61.2063H159.587C159.587 61.2063 159.289 58.7285 159.253 56.4475C159.215 54.1665 159.557 52.6919 162.112 51.7667C164.434 50.9271 166.124 48.6938 166.124 46.0826C166.124 42.7498 163.422 40.048 160.088 40.048C159.288 40.048 158.685 40.2311 157.824 40.4882C156.646 40.8427 155.801 41.5002 154.955 41.7953C154.109 42.0914 153.206 42.0709 153.206 42.0709C153.206 42.0709 152.305 42.0914 151.457 41.7953C150.612 41.5002 149.768 40.8427 148.59 40.4882C147.729 40.2301 147.127 40.048 146.325 40.048C142.991 40.048 140.29 42.7498 140.29 46.0826C140.29 48.6938 141.98 50.9271 144.301 51.7667C146.857 52.6919 147.199 54.1665 147.161 56.4475C147.123 58.7285 146.828 61.2063 146.828 61.2063H149.643L149.638 54.56L149.643 54.4343C147.26 53.6376 145.479 50.7947 145.479 47.4072C145.48 45.7009 145.928 44.1308 146.678 42.892Z" fill="white"/>
    </g>
    <defs>
        <clipPath id="clip0_242_1951">
            <rect width="187" height="100.318" fill="white"/>
        </clipPath>
    </defs>
</svg>
