<svg width="187" height="39" viewBox="0 0 187 39" fill="none" xmlns="http://www.w3.org/2000/svg">
    <g clip-path="url(#clip0_237_1631)">
        <path fill-rule="evenodd" clip-rule="evenodd" d="M187 12.4594V37.1596H177.382V12.4594C177.382 11.9129 176.945 11.585 176.508 11.585H160.879C160.333 11.585 160.005 12.0222 160.005 12.4594V37.1596H150.387V12.4594C150.387 7.10403 154.759 2.62303 160.223 2.62303H177.273C182.628 2.62303 187 7.10403 187 12.4594ZM147.327 19.5634C147.327 24.1537 143.501 27.979 138.911 27.979C137.709 27.979 136.616 27.7604 135.632 27.3232C136.07 28.3068 136.288 29.3998 136.288 30.4927C136.288 35.083 132.572 38.9082 127.982 38.9082H127.873C123.282 38.9082 119.457 35.083 119.457 30.4927C119.457 29.3998 119.676 28.3068 120.004 27.3232C119.02 27.7604 118.036 27.979 116.834 27.979C113.774 27.979 111.041 26.3396 109.621 23.8258C108.856 22.5143 108.418 21.0935 108.418 19.4541C108.418 17.924 108.856 16.3939 109.621 15.1917C111.041 12.7873 113.774 11.1479 116.834 11.1479C117.927 11.1479 119.02 11.3665 120.004 11.8036C119.566 10.82 119.348 9.72706 119.348 8.52484C119.348 3.93454 123.173 0.109293 127.763 0.109293H127.873C132.463 0.109293 136.179 3.93454 136.179 8.52484C136.179 9.72706 135.96 10.82 135.523 11.8036C136.507 11.3665 137.709 11.1479 138.911 11.1479C143.611 11.1479 147.327 14.8638 147.327 19.5634ZM130.496 19.4541C130.496 18.2519 130.714 17.159 131.151 16.1753C130.168 16.6125 129.075 16.8311 127.873 16.8311H127.763C126.67 16.8311 125.577 16.6125 124.594 16.1753C125.031 17.159 125.25 18.3612 125.25 19.4541C125.25 20.547 125.031 21.64 124.594 22.6236C125.577 22.1864 126.67 21.9679 127.763 21.9679H127.873C128.966 21.9679 130.058 22.1864 131.042 22.6236C130.714 21.7493 130.496 20.6563 130.496 19.4541ZM110.386 11.4757V2.84161H74.5377V11.4757H87.7621V37.2688H97.7078V11.4757H110.386ZM0 37.2688H10.0549V2.73232L0 2.84161V37.2688ZM22.405 19.6727L40.6569 5.02747L43.3892 2.84161H29.2905L15.301 14.2081C14.5359 14.8638 13.8802 15.4103 13.2244 16.2846C12.4594 17.2683 12.0222 18.3612 11.9129 19.3448C11.8036 20.6563 12.1315 21.9679 12.8966 23.1701C13.5523 24.263 14.2081 24.8095 15.1917 25.5745L29.1812 37.2688H44.1543L40.6569 34.4272L22.405 19.6727ZM75.1935 15.8475C75.7399 16.9404 75.9585 18.1426 75.9585 19.4541C75.9585 20.7656 75.6306 21.9679 75.1935 23.0608C73.8819 25.9024 70.931 27.8697 67.543 27.8697C66.3407 27.8697 65.2478 27.6511 64.2642 27.2139C64.7013 28.1975 64.9199 29.2905 64.9199 30.3834C64.9199 34.9737 61.204 38.7989 56.5044 38.7989H56.3951C51.8048 38.7989 47.9795 34.9737 47.9795 30.3834C47.9795 29.2905 48.1981 28.1975 48.6353 27.2139C47.6517 27.6511 46.5587 27.8697 45.4658 27.8697C43.6078 27.8697 41.8591 27.2139 40.5476 26.2303C38.4711 24.7002 37.0503 22.1864 37.0503 19.4541C37.0503 16.7218 38.4711 14.2081 40.5476 12.678C41.9684 11.6943 43.7171 11.0386 45.4658 11.0386C46.5587 11.0386 47.6517 11.2572 48.6353 11.6943C48.1981 10.7107 47.9795 9.50847 47.9795 8.41555C47.9795 3.82525 51.8048 0 56.3951 0H56.5044C61.0947 0 64.9199 3.82525 64.9199 8.41555C64.9199 9.61777 64.7013 10.7107 64.2642 11.6943C65.2478 11.2572 66.45 11.0386 67.6522 11.0386C70.931 11.0386 73.8819 13.0058 75.1935 15.8475ZM59.2367 19.4541C59.2367 18.2519 59.4553 17.159 59.8925 16.1753C58.9088 16.6125 57.8159 16.8311 56.6137 16.8311H56.5044C55.4115 16.8311 54.3185 16.6125 53.3349 16.1753C53.7721 17.159 53.9906 18.3612 53.9906 19.4541C53.9906 20.547 53.7721 21.64 53.3349 22.6236C54.3185 22.1864 55.3022 21.9679 56.5044 21.9679H56.6137C57.7066 21.9679 58.7995 22.1864 59.7832 22.6236C59.4553 21.64 59.2367 20.6563 59.2367 19.4541Z" fill="#231F20"/>
    </g>
    <defs>
        <clipPath id="clip0_237_1631">
            <rect width="187" height="38.9082" fill="white"/>
        </clipPath>
    </defs>
</svg>
