<svg width="187" height="150" viewBox="0 0 187 165" fill="none" xmlns="http://www.w3.org/2000/svg">
    <g clip-path="url(#clip0_210_61)">
        <path d="M1.14355 0.426758V163.215H185.637V0.426758H1.14355Z" fill="white"/>
        <path d="M1.14355 0.426758V163.215H185.637V0.426758H1.14355ZM173.366 68.0837C173.059 73.1672 171.234 79.4731 169.628 83.7029C163.141 100.719 155.621 111.255 138.205 111.255C133.081 111.255 123.978 110.052 120.635 102L119.844 100.079L118.414 101.67C112.961 107.762 104.869 111.274 96.2048 111.313C89.5639 111.332 84.2205 109.373 80.7681 105.628L79.8225 104.599L78.811 105.589C75.1167 109.179 68.6958 111.255 61.1753 111.255C55.2821 111.255 50.1805 109.489 46.8161 106.268L45.8925 105.395L44.9469 106.249C41.2087 109.567 35.3375 111.255 27.9709 111.099C19.0211 110.905 13.5457 106.501 13.3918 99.3026C13.1279 88.2043 25.3102 64.8241 30.3458 57.7033C33.6223 52.9497 38.1301 50.6602 44.1113 50.6602C48.2014 50.6602 50.9721 51.4169 52.6433 52.9691C54.1606 54.3855 54.4465 55.569 54.5784 58.4212L54.7543 62.1271L56.9753 58.9839C62.3188 51.3781 71.1806 50.3303 79.9764 50.3303C86.0896 50.3303 91.4111 52.3094 93.5441 55.375L94.3357 56.5004L95.4792 55.6467C100.009 52.2512 106.386 50.3885 113.467 50.3885C121.185 50.3885 126.792 52.0766 130.135 55.4138C130.904 56.1705 131.41 56.6944 132.092 57.9944L132.95 59.5854L134.247 58.2466C139.151 53.1437 145.835 50.5438 154.126 50.5438C160.7 50.5438 165.692 52.096 168.947 55.1228C173.037 58.9257 173.63 64.3002 173.388 68.1225L173.366 68.0837Z" fill="#FFFF00"/>
        <path d="M1.14355 0.426758V163.215H185.637V0.426758H1.14355ZM178.556 74.3314C177.72 80.2492 173.191 91.2311 170.772 95.6161C164.307 107.374 155.665 116.416 138.997 116.416C130.091 116.416 122.79 113.913 118.502 109.101C112.235 113.952 104.473 116.474 96.1388 116.474C89.6959 116.474 84.0226 114.844 79.6906 111.798C74.8968 114.766 68.4539 116.435 61.2853 116.435C55.3041 116.435 49.9386 114.98 45.7166 112.302C41.0548 115.038 34.9636 116.377 27.795 116.241C15.8766 115.989 7.65249 109.314 7.4106 99.6324C7.10275 86.7685 19.373 63.2137 25.1563 55.0646C29.4882 48.7781 36.0851 45.4021 44.1993 45.4021C52.9952 45.4021 56.1836 47.614 57.7449 50.4467C64.5177 45.3633 73.5115 45.0722 79.9105 45.0722C86.9692 45.0722 91.4111 46.7408 95.1933 49.3796C100.405 46.6244 106.364 45.1886 113.489 45.1886C122.592 45.1886 129.343 47.0513 134.071 51.1646C139.568 47.1289 146.451 45.2856 154.17 45.2856C164.351 45.2856 171.058 48.5259 175.016 53.3571C180.557 60.1675 179.568 67.036 178.556 74.2926V74.3314Z" fill="#FF0000"/>
        <path d="M0 0V165H187V0H0ZM184.427 2.27011V162.73H2.57279V2.27011H184.427Z" fill="black"/>
        <path d="M177.654 48.8364V47.711H178.512C179.15 47.711 179.458 47.9051 179.458 48.2737C179.458 48.5648 179.26 48.8364 178.6 48.8364H177.632H177.654ZM180.755 51.1647L180.205 50.3498C179.743 49.6319 179.612 49.5155 179.216 49.3991C180.007 49.2827 180.469 48.8364 180.469 48.2349C180.469 47.5752 180.007 47.0902 178.996 47.0902H176.687V51.1841H177.654V49.5155H177.83C178.248 49.5155 178.402 49.5543 178.6 49.7289C178.776 49.8841 179.062 50.2528 179.238 50.5438L179.612 51.2035H180.777L180.755 51.1647ZM178.468 45.926C180.469 45.926 182.074 47.3424 182.074 49.108C182.074 50.8737 180.447 52.2901 178.468 52.2901C176.489 52.2901 174.884 50.8543 174.884 49.108C174.884 47.3618 176.489 45.926 178.468 45.926ZM178.468 45.1499C176.005 45.1499 174.004 46.9155 174.004 49.108C174.004 51.3005 176.005 53.0662 178.468 53.0662C180.931 53.0662 182.954 51.3005 182.954 49.108C182.954 46.9155 180.953 45.1499 178.468 45.1499Z" fill="black"/>
        <path d="M154.081 49.3797C144.428 49.3797 137.743 52.7557 133.213 57.49C132.444 56.0736 131.872 55.4527 131.058 54.6378C127.364 50.9513 121.405 49.2245 113.423 49.2245C105.44 49.2245 99.1293 51.3782 94.5994 54.7542C92.2465 51.3976 86.6612 49.1663 79.9323 49.1663C71.1365 49.1663 61.527 50.2722 55.8317 58.3631C55.6997 55.4527 55.3919 53.9005 53.5448 52.1737C51.2798 50.0588 47.6295 49.5155 44.0672 49.5155C37.5803 49.5155 32.7206 52.0184 29.2022 57.1019C24.1006 64.2809 11.7644 87.8939 12.0503 99.3221C12.2262 106.714 17.8556 112.031 27.9048 112.244C35.7551 112.399 41.9122 110.556 45.8264 107.064C49.3447 110.44 54.7102 112.419 61.1312 112.419C68.2778 112.419 75.4684 110.517 79.7124 106.385C83.2968 110.265 88.9261 112.516 96.1607 112.496C105.616 112.458 113.95 108.5 119.36 102.426C122.35 109.586 129.893 112.419 138.161 112.419C156.258 112.419 164.197 101.437 170.816 84.091C172.311 80.1717 174.29 73.6524 174.62 68.1808C175.17 59.0616 170.794 49.4185 154.059 49.4185L154.081 49.3797ZM33.7321 93.0162C43.0777 91.5804 45.4526 94.5684 45.1447 97.343C44.2651 105.609 35.6452 107.471 28.1907 107.316C22.7812 107.2 17.8995 105.007 17.7676 99.4579C17.5257 89.7566 28.7624 67.2883 34.0399 59.8377C36.4808 56.3064 39.4494 54.5602 44.1992 54.5602C48.6851 54.5602 49.8065 56.5975 49.7406 59.0228C49.5646 65.5227 37.6462 85.294 33.7321 93.0356V93.0162ZM64.2097 85.391C63.594 86.8656 62.4066 89.97 61.461 93.249C64.5396 92.57 66.8265 92.1043 70.7846 92.1819C75.2705 92.2789 78.1512 93.9281 78.1512 97.2072C78.1512 105.162 68.1899 107.491 61.2851 107.491C53.6987 107.491 47.0358 103.688 47.0358 96.3535C47.0358 87.7581 52.3133 74.7583 57.261 66.0854C63.3302 55.4333 69.5532 54.0169 80.2402 54.0169C84.946 54.0169 90.3554 55.7826 90.3554 59.7019C90.3554 65.1346 85.1439 67.2107 79.9763 67.4629C77.7773 67.5794 74.369 67.6764 72.3459 67.56C72.3459 67.56 70.6307 69.8689 68.8056 73.9822C78.3711 72.7987 82.4392 74.7001 80.8119 79.5896C78.6349 86.1865 72.148 86.6133 64.2097 85.3716V85.391ZM111.268 64.8436C108.673 64.8436 106.98 66.2988 105.726 67.851C102.956 71.2853 96.9523 85.0611 96.0068 90.7073C95.3691 94.5878 97.2602 95.3833 99.3272 95.3833C102.648 95.3833 106.386 92.2789 107.661 87.1566C107.661 87.1566 101.328 87.0208 103.087 82.0731C104.781 77.2613 107.991 76.2329 113.335 76.0389C123.846 75.6509 122.79 82.5194 121.955 86.1477C119.228 98.0027 109.662 107.51 96.1387 107.51C86.8811 107.51 81.1418 102.989 81.1418 94.6654C81.1418 88.7282 84.4842 79.415 87.123 73.9628C92.7523 62.36 98.6455 54.2303 113.708 54.2303C122.724 54.2303 129.849 57.0825 128.815 64.5525C128.046 70.0241 124.945 73.2449 119.294 73.633C117.711 73.7494 111.268 73.5942 113.401 68.2196C114.148 66.3376 114.456 64.8436 111.29 64.8436H111.268ZM168.089 74.6419C166.506 81.6269 162.921 89.8924 159.029 96.0624C152.696 106.113 145 107.51 138.293 107.452C131.586 107.374 124 105.182 123.956 96.043C123.912 89.4849 127.122 80.2105 129.849 74.1374C134.599 63.1362 139.458 54.1527 154.785 54.308C172.685 54.502 169.474 68.5301 168.089 74.6419ZM155.335 67.7734C155.137 71.9838 148.144 88.8446 145.659 92.5699C144.582 94.1804 143.372 95.5192 141.174 95.5192C139.26 95.5192 138.403 94.3162 138.359 92.958C138.227 89.1551 146.121 70.0823 148.848 66.9779C150.057 65.3481 151.399 65.0764 152.916 65.0958C155.159 65.1152 155.401 66.551 155.335 67.7734Z" fill="black"/>
    </g>
    <defs>
        <clipPath id="clip0_210_61">
            <rect width="187" height="165" fill="white"/>
        </clipPath>
    </defs>
</svg>
