<svg width="187" height="54" viewBox="0 0 187 54" fill="none" xmlns="http://www.w3.org/2000/svg">
    <g clip-path="url(#clip0_258_2)">
        <mask id="mask0_258_2" style="mask-type:luminance" maskUnits="userSpaceOnUse" x="0" y="0" width="187" height="54">
            <path d="M0 0H187V53.0496H0V0Z" fill="white"/>
        </mask>
        <g mask="url(#mask0_258_2)">
            <path d="M184.348 29.9731C182.913 28.9561 181.29 28.2348 179.573 27.8511H179.308C177.584 27.3206 176.655 26.9227 175.86 26.3922C175.197 25.7291 174.931 25.066 174.799 23.7397C174.799 23.3418 174.799 22.8113 175.064 22.4135C175.196 21.883 175.462 21.4851 175.86 21.0872L177.186 20.1589L179.043 19.8936C179.706 19.8936 180.369 19.8936 180.767 20.1589C181.297 20.2915 181.695 20.5567 182.093 20.9546C182.358 21.2199 182.623 21.6177 182.756 22.1482C183.021 22.6787 183.021 23.2092 183.154 23.8723V24.9333H186.337V23.7397C186.337 21.7504 185.541 19.8936 184.215 18.7C182.889 17.3738 181.165 16.7106 179.043 16.7106C177.215 16.6893 175.435 17.2982 174.003 18.4348C173.225 19.106 172.607 19.9426 172.194 20.8834C171.781 21.8242 171.583 22.8454 171.616 23.8723C171.616 26.127 172.411 27.8511 173.87 28.9121C175.197 29.973 177.053 30.5035 178.777 31.034C180.634 31.4319 181.96 32.095 182.756 32.7582C183.419 33.5539 183.684 34.4823 183.817 35.8085V36.0738C183.817 36.6043 183.684 37.2674 183.419 37.7979C183.207 38.3548 182.888 38.8642 182.478 39.2967C182.068 39.7292 181.577 40.0762 181.032 40.3177L179.043 40.7156C177.584 40.7156 176.39 40.1851 175.462 39.3894C174.533 38.461 174.136 37.2674 174.136 35.6759V34.6149H170.82V35.9411C170.784 37.8982 171.495 39.7953 172.809 41.2461C174.496 42.9387 176.786 43.8927 179.175 43.8986C181.353 43.8051 183.404 42.8511 184.878 41.2461C185.608 40.4944 186.173 39.5993 186.538 38.6176C186.903 37.6359 187.061 36.589 187 35.5433C186.867 33.0234 185.939 31.1667 184.348 29.9731ZM170.422 3.97872H166.311L169.626 6.49858L168.3 10.4773L171.748 7.95745L175.197 10.6099L173.87 6.49858L177.318 3.97872H173.075L171.748 0L170.422 3.97872ZM157.823 38.0631L149.467 16.7106H145.887L146.815 18.9652L151.589 30.9014L155.966 42.3071L151.324 53.0496H154.905L169.494 19.0979L170.422 16.7106H166.841L157.823 37.9305V38.0631ZM125.993 22.8113C127.187 21.7504 128.248 21.0872 129.309 20.5567C130.837 19.9725 132.477 19.7406 134.108 19.8784C135.738 20.0162 137.316 20.52 138.725 21.3525C140.582 22.5461 141.908 24.2702 142.704 26.2596L142.969 27.0553H146.417L145.887 25.5965C144.826 22.5461 142.969 20.2915 140.316 18.7C138.194 17.3738 135.675 16.7106 133.287 16.7106C131.488 16.6823 129.702 17.0205 128.037 17.7045C126.373 18.3885 124.865 19.404 123.606 20.6894C121.086 23.0766 119.76 26.5248 119.76 30.3709C119.76 33.8191 121.086 37.1348 123.208 39.6546C124.504 41.0551 126.088 42.1593 127.85 42.8918C129.613 43.6242 131.513 43.9676 133.42 43.8986C136.205 43.8986 138.857 42.9702 141.112 41.5113C143.234 39.9199 144.958 37.7979 145.887 35.278L146.417 33.6865H142.836L142.704 34.4823C142.069 36.1355 140.962 37.5654 139.521 38.5936C137.527 40.0593 135.083 40.782 132.613 40.6367C130.143 40.4914 127.801 39.4872 125.993 37.7979C125.021 36.8596 124.254 35.7308 123.738 34.4823C123.177 33.1379 122.887 31.6953 122.887 30.2383C122.887 28.7813 123.177 27.3387 123.738 25.9943C124.269 24.6681 125.065 23.6071 125.86 22.8113H125.993ZM113.394 31.9624L112.863 33.8191C112.183 35.8464 110.885 37.6091 109.15 38.8589C107.448 40.076 105.406 40.7258 103.314 40.7156C100.264 40.7156 97.6114 39.522 95.622 37.4C93.8775 35.3552 92.9414 32.7428 92.9903 30.0554C93.0392 27.368 94.0696 24.7914 95.8873 22.8113C96.8503 21.8675 97.9907 21.1238 99.2426 20.623C100.495 20.1222 101.833 19.8743 103.182 19.8936C105.304 19.8936 107.293 20.4241 109.017 21.6177C110.115 22.3406 111.056 23.2766 111.785 24.3701C112.514 25.4637 113.016 26.6925 113.261 27.9837L113.526 29.9731L113.394 31.9624ZM113.394 16.7106V21.0872C112.12 19.6755 110.566 18.5453 108.83 17.7688C107.094 16.9923 105.216 16.5867 103.314 16.578C101.405 16.5343 99.5096 16.9162 97.7661 17.6962C96.0227 18.4762 94.4748 19.6345 93.2348 21.0872C91.0141 23.6446 89.7913 26.9177 89.7913 30.3046C89.7913 33.6916 91.0141 36.9646 93.2348 39.522C94.473 40.9331 96.0051 42.0561 97.7234 42.8121C99.4417 43.5682 101.305 43.939 103.182 43.8986C105.834 43.8986 108.221 43.2355 110.343 41.9092C111.537 41.2461 112.465 40.4504 113.394 39.2567V43.8986H116.577V16.7106H113.394ZM83.5532 19.3631C82.6512 18.4743 81.5645 17.795 80.3703 17.3738C77.7041 16.4188 74.7816 16.466 72.1476 17.5064C70.3469 18.2734 68.8209 19.5681 67.771 21.2199L66.9752 19.8936C66.0399 18.8261 64.8554 18.0061 63.527 17.5064C60.8057 16.4006 57.7603 16.4006 55.0391 17.5064C53.9845 18.0307 53.0393 18.7508 52.254 19.6284V16.7106H48.9384V43.766H52.254V28.6468C52.254 27.0553 52.3866 25.9943 52.7845 24.8007C53.3543 22.9267 54.6413 21.3537 56.3653 20.4241C57.2937 20.0262 58.222 19.761 59.1504 19.8936C60.4766 19.8936 61.5376 20.1589 62.466 20.5567C63.3944 20.9546 64.0575 21.6177 64.7206 22.2809L65.7816 24.4028C66.0469 25.4638 66.1795 26.5248 66.1795 28.1163V43.766H69.3625V28.7794C69.3625 27.1879 69.3625 25.8617 69.7603 24.8007C69.893 24.005 70.2908 23.2092 71.0866 22.1482C71.6171 21.4851 72.4128 20.822 73.4738 20.4241C75.4632 19.6284 77.7178 19.761 79.1766 20.4241C79.9724 20.5567 80.6355 21.0872 81.2986 21.6177C81.9829 22.3776 82.4822 23.2854 82.7575 24.2702C83.1554 25.5965 83.4206 27.0553 83.4206 28.7794V43.8986H86.6036V28.7794C86.6036 26.7901 86.3383 24.8007 85.8078 23.3418C85.41 21.7504 84.4816 20.4241 83.5532 19.3631Z" fill="black"/>
            <path d="M22.944 0L17.639 16.7106H0L14.1908 27.0553L8.88582 43.766L22.944 33.4213L37.0021 43.8986L31.6972 27.0553L45.7553 16.7106H28.2489L22.944 0Z" fill="#E11A2B"/>
        </g>
    </g>
    <defs>
        <clipPath id="clip0_258_2">
            <rect width="187" height="53.0496" fill="white"/>
        </clipPath>
    </defs>
</svg>
