<svg width="187" height="26" viewBox="0 0 187 26" fill="none" xmlns="http://www.w3.org/2000/svg">
    <g clip-path="url(#clip0_242_1975)">
        <mask id="mask0_242_1975" style="mask-type:luminance" maskUnits="userSpaceOnUse" x="0" y="0" width="187" height="26">
            <path d="M187 0H0V25.1829H187V0Z" fill="white"/>
        </mask>
        <g mask="url(#mask0_242_1975)">
            <path d="M71.1009 8.13598L71.8835 3.83105H68.2134L67.4316 8.13598H71.1009Z" fill="#DF0000"/>
            <path d="M95.9391 14.6621C97.6126 15.4683 99.8315 15.6498 101.117 14.1758C100.885 14.3305 100.216 14.7564 99.2485 14.835C97.7446 14.9568 96.3288 14.1082 95.3443 13.0263C93.1584 10.6228 92.1621 6.59127 93.0932 2.36963C91.8753 3.24256 90.8539 4.30327 90.0454 5.48734L90.0462 5.49049C90.5051 9.45519 92.5267 13.0341 95.9391 14.6621Z" fill="#DF0000"/>
            <path d="M99.2979 11.3636C99.4629 11.1389 99.9461 10.5095 100.828 10.1057C102.199 9.4763 103.82 9.7898 105.114 10.4702C107.99 11.9812 110.305 15.4281 110.875 19.7134C111.72 18.4767 112.317 17.1315 112.672 15.7424C110.886 12.1721 107.761 9.49908 103.996 9.13608C102.149 8.95065 100.003 9.53915 99.2979 11.3636Z" fill="#DF0000"/>
            <path d="M99.9552 14.2346C99.6786 14.204 98.8921 14.1003 98.1009 13.5385C96.8705 12.6648 96.3315 11.1051 96.2725 9.64368C96.1429 6.39789 97.9713 2.66968 101.397 0.0343943C99.9379 -0.0732486 98.4678 0.0721086 97.0575 0.465751C94.8606 3.79718 94.1087 7.83889 95.6762 11.2787C96.4399 12.972 98.0223 14.5371 99.9552 14.2346Z" fill="#DF0000"/>
            <path d="M100.936 7.67158C99.4017 8.71815 98.1351 10.5489 98.7684 12.3992C98.7503 12.1211 98.7157 11.3283 99.1314 10.4522C99.778 9.08822 101.221 8.28679 102.65 7.97565C105.823 7.28422 109.812 8.43686 113.002 11.3526C112.857 9.90615 112.464 8.48479 111.829 7.15615C108.165 5.569 104.053 5.52972 100.936 7.67158Z" fill="#DF0000"/>
            <path d="M97.6494 8.51781C97.1466 10.3061 97.3524 12.5226 99.0276 13.533C98.8351 13.3319 98.2992 12.7465 98.0541 11.8076C97.673 10.3477 98.2623 8.80538 99.1572 7.64881C101.144 5.07952 104.94 3.39809 109.258 3.58117C108.218 2.56681 107.003 1.72924 105.662 1.12109C101.836 2.26117 98.6607 4.87366 97.6494 8.51781Z" fill="#DF0000"/>
            <path d="M156.184 8.57621L155.979 9.70371C154.903 8.90621 153.564 8.45128 152.086 8.46621C148.502 8.50235 145.115 11.1895 143.667 14.6639L146.23 0.55957H141.885L130.39 15.8189L133.162 0.55957H129.395L108.6 24.6527H113.824L128.125 8.08278L125.088 24.6527H128.532L141.005 8.10007L137.998 24.6527H141.852L142.935 18.6954C143.101 22.3207 145.533 25.1218 149.068 25.0849C150.588 25.0691 152.08 24.5891 153.42 23.7876L153.262 24.6535H156.933L159.854 8.57699H156.184V8.57621ZM155.213 16.8844C154.639 19.6241 152.236 21.4965 149.773 21.4965C147.568 21.4965 145.999 19.3829 146.474 17.0164C147.023 14.2797 149.188 12.2211 151.779 12.2211C154.285 12.2211 155.761 14.2656 155.213 16.8844Z" fill="#DF0000"/>
            <path d="M100.37 10.9114C100.64 10.8454 101.415 10.6741 102.35 10.931C103.806 11.3309 104.846 12.6124 105.401 13.9654C106.633 16.9716 106.19 21.1005 103.872 24.7486C105.262 24.3589 106.595 23.7279 107.802 22.8621C108.728 18.9791 108.052 14.9224 105.402 12.2251C104.105 10.8956 102.082 9.96615 100.37 10.9114Z" fill="#DF0000"/>
            <path d="M183.554 8.5762L184.417 3.82812H180.746L179.883 8.5762H174.136L170.416 13.164L172.112 3.82812H168.441L167.61 8.40178H167.175C166.283 8.40178 165.141 8.74828 164.077 9.37449L164.223 8.5762H160.552L157.63 24.6551H161.301L162.977 15.4292C163.559 12.8442 165.087 11.8998 166.785 11.8998H166.975L164.658 24.6527H168.329L169.544 17.9647L173.56 24.6527H180.633L182.93 12.0161H186.376L187 8.5762H183.554ZM177.199 23.3492L172.668 15.8118L177.759 9.56228L177.314 12.0161H179.259L177.199 23.3492Z" fill="#DF0000"/>
            <path d="M63.8597 3.83522L62.7723 9.81999C61.6786 8.94785 60.2879 8.45049 58.7479 8.46621C54.9796 8.50471 51.4297 11.5085 50.1498 15.276C50.1757 11.3537 47.5004 8.46621 43.7391 8.46621C40.216 8.46621 36.7251 10.9499 35.1489 14.2184L37.631 0.560356H33.2852L21.7902 15.8197L24.5614 0.55957H20.7947L0 24.6535H5.22343L19.525 8.08357L16.4882 24.6535H19.9328L32.4052 8.10085L29.3983 24.6535H33.253L34.3051 18.8651C34.6319 22.3906 37.1336 25.0864 40.8108 25.0864C44.4235 25.0864 47.7298 22.6193 49.2635 19.2164H45.3876C44.44 20.6361 42.9723 21.5059 41.2948 21.5059C39.7344 21.5059 38.0466 20.4051 37.8997 18.3426H45.8739H49.6414C49.6587 22.1384 52.1219 25.1234 55.7488 25.0849C57.3281 25.0684 58.8783 24.5474 60.2556 23.6784L60.0789 24.6535H63.7489L67.5321 3.83522H63.8597ZM38.9471 14.7315C39.9331 13.219 41.4763 12.2298 43.1569 12.2298C44.9106 12.2298 46.0358 13.2324 46.3666 14.7315H38.9471ZM61.8271 16.8938C61.2535 19.6336 58.9553 21.5059 56.4929 21.5059C54.6291 21.5059 52.5329 19.9369 53.1591 17.0258C53.746 14.297 55.9641 12.2306 58.3943 12.2306C60.8999 12.2298 62.3755 14.2742 61.8271 16.8938Z" fill="#DF0000"/>
            <path d="M104.491 15.4942C104.352 13.6423 103.401 11.6301 101.481 11.2529C101.731 11.3763 102.434 11.7432 102.986 12.5415C103.844 13.7829 103.817 15.4337 103.372 16.8268C102.383 19.9217 99.3891 22.8014 95.2656 24.1049C96.6186 24.7169 98.051 25.0736 99.4943 25.1829C102.699 22.8037 104.788 19.2633 104.491 15.4942Z" fill="#DF0000"/>
            <path d="M101.693 17.4136C102.777 15.9058 103.341 13.7522 102.113 12.2295C102.225 12.4841 102.529 13.2179 102.438 14.1836C102.296 15.6858 101.215 16.9328 99.9783 17.7146C97.2314 19.4502 93.0868 19.7307 89.0898 18.0799C89.7106 19.3724 90.5615 20.5746 91.6371 21.6243C95.6215 21.8608 99.4974 20.4913 101.693 17.4136Z" fill="#DF0000"/>
            <path d="M82.3814 9.70368C81.3057 8.90618 79.9669 8.45125 78.489 8.46618C74.6185 8.50546 70.9775 11.6342 69.7613 15.5093L71.0215 8.57618H67.3515L64.4302 24.6527H68.1002L69.3425 17.8177C69.1232 21.8595 71.6556 25.1241 75.471 25.0848C76.9914 25.0691 78.4835 24.589 79.8231 23.7876L79.666 24.6535H83.336L86.2573 8.57696H82.5872L82.3814 9.70368ZM81.6153 16.8843C81.0417 19.6241 78.639 21.4965 76.1758 21.4965C73.9703 21.4965 72.4012 19.3829 72.8766 17.0163C73.4258 14.2797 75.5905 12.2211 78.1817 12.2211C80.6874 12.2211 82.163 14.2655 81.6153 16.8843Z" fill="#DF0000"/>
            <path d="M98.3147 17.0853C100.115 16.6272 101.931 15.3402 101.969 13.3846C101.891 13.6517 101.652 14.4084 100.962 15.0904C99.8877 16.1503 98.2581 16.4104 96.8084 16.2147C93.5886 15.7787 90.2328 13.3296 88.2332 9.49609C87.8702 10.9245 87.7641 12.3993 87.9071 13.849C90.8064 16.5895 94.6556 18.0313 98.3147 17.0853Z" fill="#DF0000"/>
        </g>
    </g>
    <defs>
        <clipPath id="clip0_242_1975">
            <rect width="187" height="25.9286" fill="white"/>
        </clipPath>
    </defs>
</svg>
