<svg width="187" height="124" viewBox="0 0 187 124" fill="none" xmlns="http://www.w3.org/2000/svg">
    <g clip-path="url(#clip0_225_873)">
        <path fill-rule="evenodd" clip-rule="evenodd" d="M95.1326 106.697H84.3398V112.284H94.2754V114.443H84.3398V120.529H95.2689V122.718H81.9046V104.538H95.1326V106.697ZM100.942 104.538V120.529H110.184V122.718H98.5613V104.538H100.942ZM122.111 104.538V113.336L130.881 104.538H134.287L126.732 111.926L134.481 122.718H131.353L124.936 113.586L122.111 116.356V122.718H119.621V104.538H122.111ZM136.223 107.355C134.976 109.101 134.341 111.174 134.341 113.609C134.341 116.044 134.98 118.148 136.223 119.894C137.797 122.107 140.096 123.213 143.198 123.213C146.299 123.213 148.59 122.107 150.114 119.894C151.415 118.148 152.05 116.075 152.05 113.609C152.05 111.143 151.415 109.101 150.114 107.355C148.59 105.142 146.295 104.036 143.198 104.036C140.1 104.036 137.797 105.142 136.223 107.355ZM143.198 106.194C145.134 106.194 146.654 106.942 147.819 108.353C148.952 109.709 149.506 111.454 149.506 113.609C149.506 115.764 148.952 117.595 147.819 118.923C146.654 120.361 145.134 121.055 143.198 121.055C141.261 121.055 139.683 120.365 138.573 118.923C137.439 117.595 136.886 115.799 136.886 113.609C136.886 111.419 137.439 109.709 138.573 108.353C139.738 106.942 141.257 106.194 143.198 106.194ZM155.288 104.538V122.718H157.723V114.914H163.677C165.835 114.914 166.938 115.962 166.938 118.148C166.938 120.334 167.078 121.881 167.327 122.715H170.371V122.298C169.763 121.967 169.482 121.355 169.482 120.501L169.291 117.205C169.26 116.071 169.015 115.183 168.57 114.688C168.321 114.357 167.826 114.026 167.133 113.745C168.793 112.779 169.622 111.314 169.622 109.428C169.622 106.136 167.631 104.534 163.677 104.534H155.292L155.288 104.538ZM157.723 106.611H163.809C166.022 106.611 167.129 107.632 167.129 109.654C167.129 111.782 165.882 112.837 163.451 112.837H157.719V106.615L157.723 106.611ZM179.722 106.194C176.901 106.194 175.518 107.246 175.518 109.377C175.518 110.57 176.262 111.318 177.703 111.649L182.905 112.837C185.617 113.531 187 115.136 187 117.681C187 119.672 186.225 121.086 184.619 122.052C183.373 122.855 181.795 123.217 179.913 123.217C177.563 123.217 175.705 122.609 174.407 121.472C173.16 120.365 172.58 118.842 172.58 116.851H174.875C174.875 118.37 175.428 119.481 176.48 120.225C177.364 120.809 178.471 121.082 179.854 121.082C183.037 121.082 184.615 120.085 184.615 118.012C184.615 117.069 184.339 116.379 183.813 115.962C183.314 115.545 182.289 115.132 180.77 114.828L177.033 113.94C174.462 113.332 173.156 111.918 173.156 109.65C173.156 108.131 173.682 106.829 174.653 105.832C175.786 104.616 177.364 104.036 179.441 104.036C183.922 104.036 186.275 105.972 186.552 109.845H184.226C184.199 108.598 183.645 107.632 182.675 106.966C181.872 106.471 180.879 106.19 179.714 106.19M15.0242 107.441L9.90445 122.718H7.46925L2.40793 107.441H2.29883L2.40793 122.718H0V104.538H3.51448L8.66152 119.894H8.77451L13.9216 104.538H17.436V122.718H15.0281L15.0866 107.441H15.0281H15.0242ZM31.6264 108.049C30.4926 109.323 29.9393 111.119 29.9393 113.445C29.9393 118.507 31.9031 121.055 35.9163 121.055C38.7372 121.055 40.4828 119.395 41.1451 116.021H43.5258C43.0816 118.923 41.7802 121 39.649 122.189C38.4606 122.882 37.0774 123.213 35.5539 123.213C33.2824 123.213 31.4004 122.465 29.9354 121C28.221 119.282 27.3911 116.792 27.3911 113.527C27.3911 110.706 28.1353 108.407 29.6588 106.693C31.1823 104.893 33.2551 104.036 35.8306 104.036C38.0437 104.036 39.8399 104.671 41.227 105.918C42.4153 106.97 43.1089 108.325 43.3583 109.985H40.9542C40.4555 107.441 38.7411 106.194 35.8345 106.194C34.1201 106.194 32.733 106.802 31.6264 108.049ZM48.9767 104.538V112.062H58.4682V104.538H60.8761V122.718H58.4682V114.221H48.9767V122.718H46.487V104.538H48.9767ZM70.0597 104.538L63.171 122.718H65.7153L67.5973 117.462H74.9029L76.7302 122.718H79.3603L72.83 104.538H70.0636H70.0597ZM71.3066 107.246L74.0184 115.269H68.4038L71.252 107.246H71.3066ZM21.5272 104.538H23.9896V122.718H21.5272V104.538Z" fill="#231F20"/>
        <path d="M93.5004 0C68.1899 0 47.6719 20.518 47.6719 45.8246C47.6719 71.1312 68.1899 91.6531 93.5004 91.6531C118.811 91.6531 139.325 71.1351 139.325 45.8246C139.325 20.5141 118.807 0 93.5004 0ZM130.535 45.8246C130.535 51.7081 129.152 57.2681 126.701 62.2164L112.316 43.6816L126.561 29.164C129.097 34.1785 130.535 39.836 130.535 45.8285M93.5004 8.7901C107.071 8.7901 118.955 16.1308 125.403 27.0444H116.399L102.746 39.7581V27.0444H91.1353L81.5621 50.4301L72.4603 27.0444H61.6012C68.0535 16.1308 79.9373 8.7901 93.5082 8.7901M60.8414 28.3769V63.2723C58.0517 58.0669 56.4659 52.1289 56.4659 45.8246C56.4659 39.5204 58.0517 33.5785 60.8414 28.3769ZM93.5004 82.863C79.9724 82.863 68.1198 75.5691 61.6558 64.7101H69.0003L69.1562 45.8753L77.319 64.7101H85.322L93.4965 45.8753V64.7101H102.267L102.583 51.8405L105.408 49.4872L117.806 64.7101H125.337C118.873 75.5691 107.025 82.863 93.4965 82.863" fill="#231F20"/>
    </g>
    <defs>
        <clipPath id="clip0_225_873">
            <rect width="187" height="123.213" fill="white"/>
        </clipPath>
    </defs>
</svg>
