<svg width="187" height="57" viewBox="0 0 187 57" fill="none" xmlns="http://www.w3.org/2000/svg">
    <g clip-path="url(#clip0_233_1375)">
        <path d="M46.5165 20.8504C48.8072 18.6064 51.8927 17.3442 55.1185 17.3909C58.3442 17.3442 61.4297 18.6064 63.7205 20.8504C66.245 23.1412 67.6942 26.3669 67.7877 29.7797C67.741 33.1457 66.2917 36.3714 63.7205 38.6154C61.4297 40.9062 58.3442 42.1217 55.1185 42.0749C48.2462 42.1684 42.5895 36.6987 42.4492 29.8264V29.7797C42.496 26.3669 43.992 23.1412 46.5165 20.8504ZM59.9337 26.6007C59.9337 20.8504 59.2792 18.1857 55.1185 18.1857C50.9577 18.1857 50.3032 20.8972 50.3032 26.6007V32.7717C50.3032 38.5219 50.9577 41.1867 55.1185 41.1867C59.2325 41.1867 59.9337 38.4752 59.9337 32.7717V26.6007Z" fill="#010101"/>
        <path d="M165.729 20.8504C168.019 18.6064 171.105 17.3442 174.331 17.3909C177.556 17.3442 180.642 18.6064 182.933 20.8504C185.457 23.1412 186.906 26.3669 187 29.7797C186.953 33.1457 185.504 36.3714 182.933 38.6154C180.642 40.9062 177.556 42.1217 174.331 42.0749C167.599 42.3554 161.942 37.0727 161.661 30.3874C161.521 26.7877 163.017 23.2814 165.729 20.8504ZM179.239 26.6007C179.239 20.8504 178.585 18.1857 174.424 18.1857C170.263 18.1857 169.609 20.8972 169.609 26.6007V32.7717C169.609 38.5219 170.263 41.1867 174.424 41.1867C178.585 41.1867 179.239 38.4752 179.239 32.7717V26.6007Z" fill="#010101"/>
        <path d="M30.9951 17.3909C27.4421 17.3442 24.2164 19.3544 22.6269 22.5334C22.0191 19.4012 19.2609 17.3909 15.2871 17.3909C11.6406 17.3909 8.78888 19.1674 6.87213 22.5334V17.3909H-0.046875V41.4204H7.19938V26.3202C7.19938 21.8322 9.81738 19.0739 12.9496 19.0739C15.1469 19.0739 15.6611 20.4297 15.6611 23.1412V41.3737H22.8139V26.3202C22.8139 21.8322 25.4319 19.0739 28.5641 19.0739C30.7614 19.0739 31.2756 20.4297 31.2756 23.1412V41.3737H38.5219V24.3099C38.6154 20.0089 35.6701 17.3909 30.9951 17.3909Z" fill="#010101"/>
        <path d="M85.0852 17.3911C82.5607 17.3911 80.1765 19.1676 78.8207 22.2064V17.3911H71.668V41.4206H78.9142V26.1801C78.9142 22.3934 80.6907 19.5884 83.2152 19.0274C82.6542 19.8689 82.327 20.8039 82.2802 21.8324C82.2802 23.8894 83.9632 25.5256 86.0202 25.4789C88.0772 25.4789 89.7135 23.7959 89.6667 21.7389C89.62 18.9806 88.0305 17.3911 85.0852 17.3911Z" fill="#010101"/>
        <path d="M146.982 17.3911C143.756 17.3911 141.325 18.9806 139.735 21.9259V17.3911H132.816V56.6144H140.063V37.8676C141.231 40.3921 143.756 42.0284 146.561 41.9816C153.246 41.9816 158.295 36.8391 158.295 29.9201C158.295 23.0011 153.153 17.3911 146.982 17.3911ZM145.813 40.9064C142.961 40.9064 140.063 37.9611 140.063 34.2211V26.4139C140.063 21.1779 142.26 18.4664 145.719 18.4664C149.506 18.4664 150.441 21.8324 150.441 29.1721C150.441 36.9794 149.787 40.9064 145.813 40.9064Z" fill="#010101"/>
        <path d="M108.6 17.391C105 17.3442 101.634 19.3077 99.9981 22.5335V0H93.0791V41.4205H100.325V26.3202C100.325 21.8322 103.037 19.074 106.122 19.074C108.413 19.074 108.927 20.4298 108.927 23.1413V41.4673H116.174V24.31C116.22 20.009 113.415 17.391 108.6 17.391Z" fill="#010101"/>
        <path d="M120.942 17.3911V17.9989V40.5791V41.3271H128.189V40.5791V34.6886V17.3911H120.942Z" fill="#010101"/>
        <path d="M128.188 7.01259C128.188 9.06959 126.505 10.7058 124.495 10.7058C122.438 10.7058 120.802 9.02284 120.802 7.01259C120.802 4.95559 122.485 3.31934 124.495 3.31934C126.552 3.31934 128.188 4.95559 128.188 6.96584V7.01259Z" fill="#010101"/>
    </g>
    <defs>
        <clipPath id="clip0_233_1375">
            <rect width="187" height="56.6143" fill="white"/>
        </clipPath>
    </defs>
</svg>
