<svg width="187" height="65" viewBox="0 0 187 65" fill="none" xmlns="http://www.w3.org/2000/svg">
    <g clip-path="url(#clip0_232_1285)">
        <path d="M7.57316 33.3893C7.79676 33.0644 7.97396 32.7902 8.16804 32.5328C9.75861 30.3896 11.9483 29.4065 14.5556 29.2884C15.9901 29.1956 17.433 29.3812 18.8 29.8327C21.382 30.7313 22.7701 32.6383 23.2933 35.2288C23.4789 36.1865 23.5759 37.1611 23.5759 38.1399C23.6055 42.418 23.5759 46.6961 23.5759 50.9742C23.5844 51.2274 23.5675 51.4805 23.5295 51.7294C23.327 52.8686 22.8249 53.4803 21.6858 53.5605C20.2556 53.6533 18.8169 53.6449 17.3866 53.5267C16.3867 53.4466 15.8129 52.7335 15.7074 51.7125C15.6653 51.337 15.6442 50.9573 15.6442 50.5776V39.8233C15.6484 39.2411 15.5724 38.6631 15.4205 38.102C15.1885 37.2117 14.3953 36.5831 13.4756 36.5578C10.826 36.3089 8.73339 37.9248 8.15538 40.7304C8.00772 41.473 7.93599 42.2239 7.93599 42.9834C7.91068 45.5528 7.93599 48.1306 7.93599 50.7042C7.93599 51.0037 7.91912 51.3033 7.88536 51.6028C7.75457 52.8095 7.15547 53.5056 5.93195 53.5984C4.62406 53.6913 3.31194 53.6913 2.00404 53.5984C0.734111 53.5098 0.0970376 52.7209 0.00843806 51.4214V50.9953C0 44.8144 0 38.6293 0 32.4485C0 32.1658 0.0253142 31.8831 0.0759425 31.6046C0.194075 30.5963 1.05476 29.8369 2.07154 29.8411C3.18959 29.8031 4.31185 29.8031 5.43411 29.8411C6.5184 29.7947 7.43393 30.6301 7.48456 31.7143C7.54784 32.2417 7.5394 32.7775 7.56894 33.3935L7.57316 33.3893Z" fill="#231F20"/>
        <path d="M56.2868 13.7835C70.3489 13.8046 81.7276 25.217 81.7065 39.2791C81.7065 41.2367 81.4744 43.1859 81.0272 45.0929C81.8415 41.7177 81.9723 38.2116 81.4069 34.7858C80.2931 27.9214 76.8462 22.3987 71.2728 18.2261C70.9522 18.0025 70.7243 17.6734 70.6357 17.2937C68.7119 10.1003 61.4298 5.34542 54.1647 6.67019C48.2243 7.7587 44.3428 11.3027 42.4569 17.0321C42.3556 17.3739 42.1404 17.6734 41.8493 17.8759C34.7023 23.078 31.1035 30.1364 30.8672 38.3424V38.6673C31.1583 24.8373 42.4569 13.7793 56.2911 13.7835H56.2868Z" fill="#231F20"/>
        <path d="M58.8128 64.5133H58.914C59.7536 64.4289 60.5848 64.2981 61.4117 64.1294C75.1657 61.3068 84.0257 47.865 81.2032 34.111C78.3806 20.3569 64.9388 11.497 51.189 14.3195C39.5698 16.7033 31.1444 26.8078 30.8828 38.6675C30.8997 40.8319 31.1528 42.9878 31.6338 45.0973C34.3298 56.3368 44.2403 64.3572 55.7962 64.6525H56.9691C57.5977 64.6188 58.2137 64.5724 58.8212 64.5133H58.8128Z" fill="#DE2727"/>
        <path d="M57.2482 12.8428H55.375V64.6314H57.2482V12.8428Z" fill="#231F20"/>
        <path d="M48.4931 0C49.7504 0.0548474 50.7334 1.11804 50.6912 2.37531C50.7925 3.59461 49.8854 4.66625 48.6661 4.7675C47.4468 4.86876 46.3752 3.96167 46.2739 2.74237C46.2655 2.62002 46.2655 2.49766 46.2739 2.37953C46.2275 1.11382 47.219 0.0506283 48.4889 0.00421903C48.4889 0.00421903 48.4931 0.00421903 48.4973 0.00421903L48.4931 0Z" fill="#231F20"/>
        <path d="M64.1169 0C65.3784 0.0337522 66.3741 1.08007 66.3446 2.34156C66.429 3.55664 65.5092 4.6114 64.2899 4.69156C63.0748 4.77172 62.0201 3.85619 61.9399 2.63689C61.9315 2.53986 61.9315 2.4386 61.9399 2.34156C61.902 1.09695 62.8723 0.0548474 64.1169 0Z" fill="#231F20"/>
        <path d="M37.2623 31.9466C37.2285 31.0775 37.7137 30.2717 38.4985 29.9004L44.1435 26.6391C45.8522 25.7868 46.6412 25.8206 47.139 25.8206C47.8521 25.8121 48.5566 25.9978 49.1726 26.3606C49.7084 26.6053 50.0628 27.1243 50.0924 27.7149V53.2443C50.0755 53.8645 49.6789 54.4087 49.0924 54.6197C47.5905 55.2652 45.8902 55.2652 44.3882 54.6197C43.8018 54.4129 43.4052 53.8687 43.3883 53.2443V36.596C43.3883 35.4779 42.5065 34.5666 41.3927 34.5244C41.0552 34.727 38.2158 34.0857 37.8234 33.5963C37.4479 33.1322 37.2496 32.5457 37.2581 31.9508L37.2623 31.9466Z" fill="#231F20"/>
        <path d="M60.6353 31.9466C60.6016 31.0775 61.0868 30.2717 61.8715 29.9004L67.5166 26.6391C69.2211 25.7868 70.01 25.8206 70.5121 25.8206C71.2251 25.8121 71.9297 25.9978 72.5457 26.3606C73.0815 26.6053 73.4359 27.1243 73.4654 27.7149V53.2443C73.4485 53.8645 73.0519 54.4087 72.4655 54.6197C70.9635 55.2652 69.2632 55.2652 67.7613 54.6197C67.1748 54.4129 66.7782 53.8687 66.7614 53.2443V36.596C66.7614 35.4779 65.8796 34.5666 64.7658 34.5244C64.4282 34.727 61.5888 34.0857 61.1965 33.5963C60.821 33.1322 60.6227 32.5457 60.6311 31.9508L60.6353 31.9466Z" fill="#231F20"/>
        <path d="M89.7095 51.2698C89.7095 49.9577 90.7727 48.8945 92.0848 48.8945C93.3969 48.8945 94.4601 49.9577 94.4601 51.2698C94.4601 52.582 93.3969 53.6452 92.0848 53.6452C91.4562 53.6452 90.8529 53.3962 90.4056 52.9532C89.95 52.5145 89.6968 51.9027 89.7053 51.2698H89.7095Z" fill="#231F20"/>
        <path d="M109.619 25.618C111.049 25.5927 112.467 25.829 113.813 26.3142C114.935 26.7192 116.007 27.255 117.007 27.9132C117.779 28.411 118.471 29.0186 119.07 29.7147C119.445 30.086 119.698 30.5585 119.804 31.0775C119.808 31.4994 119.627 31.9044 119.306 32.1786C118.99 32.474 118.576 32.6427 118.142 32.6427C117.665 32.6596 117.205 32.4782 116.863 32.1449C115.88 31.2842 114.762 30.5881 113.551 30.0818C112.286 29.5544 110.927 29.2886 109.56 29.297C108.172 29.2886 106.801 29.5671 105.527 30.1113C103.021 31.1745 101.029 33.1743 99.9829 35.6804C99.4386 36.9672 99.1601 38.3469 99.1686 39.7434C99.1601 41.1272 99.4344 42.5026 99.9829 43.7767C101.042 46.2744 103.033 48.2616 105.527 49.3206C106.801 49.8648 108.172 50.1433 109.56 50.1348C110.931 50.1433 112.29 49.8775 113.551 49.3501C114.762 48.8227 115.863 48.0759 116.808 47.1478C117.146 46.8144 117.61 46.633 118.087 46.6499C118.551 46.6499 118.998 46.8313 119.336 47.1478C119.694 47.46 119.897 47.9198 119.884 48.3966C119.795 48.9029 119.563 49.3754 119.217 49.7593C118.66 50.4639 117.985 51.063 117.222 51.5313C116.197 52.1684 115.095 52.6747 113.944 53.0291C112.505 53.4763 111.007 53.6915 109.501 53.6704C105.822 53.6999 102.274 52.2823 99.6327 49.7214C98.3501 48.4641 97.3333 46.9621 96.6372 45.3083C95.8904 43.5489 95.5149 41.6504 95.536 39.7391C95.5107 36.0517 96.962 32.5077 99.5694 29.9004C100.865 28.6304 102.392 27.6136 104.063 26.9049C105.822 26.1286 107.708 25.694 109.628 25.618H109.619Z" fill="#231F20"/>
        <path d="M135.979 25.5591C137.802 25.5591 139.607 25.943 141.27 26.694C144.62 28.1749 147.29 30.8582 148.759 34.2123C150.261 37.6635 150.269 41.5787 148.788 45.0383C148.071 46.6922 147.058 48.1984 145.793 49.481C143.168 52.1432 139.578 53.6283 135.84 53.603C132.161 53.6325 128.617 52.2149 125.972 49.654C124.693 48.3967 123.672 46.8947 122.976 45.2409C122.229 43.4815 121.854 41.583 121.871 39.6717C121.845 35.9843 123.297 32.4403 125.904 29.833C127.199 28.563 128.722 27.5462 130.397 26.8374C132.161 26.0654 134.055 25.6308 135.979 25.5591ZM135.861 29.217C134.473 29.2085 133.102 29.487 131.828 30.0313C130.591 30.5586 129.469 31.3181 128.516 32.2673C127.566 33.2251 126.811 34.3558 126.292 35.6004C125.748 36.8872 125.47 38.2668 125.478 39.6633C125.47 41.0514 125.748 42.4225 126.292 43.6967C127.351 46.1944 129.338 48.1815 131.836 49.2405C133.11 49.7847 134.481 50.0632 135.869 50.0548C137.266 50.0632 138.646 49.7847 139.932 49.2405C141.177 48.7173 142.308 47.9579 143.261 47.0044C144.21 46.0551 144.97 44.9329 145.497 43.6967C146.041 42.4225 146.32 41.0514 146.312 39.6633C146.32 38.2668 146.041 36.883 145.497 35.6004C144.447 33.0774 142.438 31.0734 139.915 30.0228C138.629 29.4786 137.249 29.2043 135.853 29.2085H135.857L135.861 29.217Z" fill="#231F20"/>
        <path d="M152.636 27.2421C152.586 26.2507 153.349 25.3984 154.341 25.3478C155.336 25.2972 156.184 26.0566 156.235 27.0523C156.235 27.1156 156.235 27.1789 156.235 27.2421V27.8792C156.994 27.1493 157.868 26.5376 158.817 26.0777C159.83 25.5461 160.956 25.2676 162.095 25.2634C163.635 25.2423 165.154 25.6094 166.508 26.3351C167.799 27.0312 168.913 28.0142 169.757 29.2124C170.635 28.0227 171.765 27.0396 173.065 26.3351C174.419 25.6094 175.938 25.2381 177.478 25.2634C178.756 25.255 180.026 25.5166 181.203 26.0228C183.477 26.9848 185.287 28.799 186.245 31.073C186.751 32.2459 187.009 33.5116 187 34.7858V51.8517C187 52.8432 186.194 53.649 185.203 53.649C184.211 53.649 183.401 52.8432 183.401 51.8517V34.7858C183.406 33.9968 183.249 33.2163 182.937 32.4948C182.33 31.073 181.195 29.9381 179.773 29.3306C177.566 28.3813 175.005 28.8876 173.33 30.6089C172.803 31.1574 172.381 31.7945 172.082 32.4948C171.769 33.2205 171.613 34.001 171.618 34.7858V51.8517C171.668 52.8432 170.909 53.6955 169.913 53.7461C168.922 53.7967 168.074 53.0331 168.019 52.0416C168.019 51.9783 168.019 51.915 168.019 51.8517V34.7858C167.985 33.1868 167.331 31.6679 166.192 30.5456C165.116 29.4487 163.635 28.8412 162.099 28.8623C160.564 28.8243 159.083 29.4234 158.007 30.5161C156.927 31.5835 156.294 33.0307 156.252 34.5495V51.8475C156.307 52.8432 155.543 53.687 154.547 53.7419C153.556 53.7925 152.708 53.0331 152.653 52.0374C152.653 51.9741 152.653 51.9108 152.653 51.8475L152.645 27.2379L152.636 27.2421Z" fill="#231F20"/>
    </g>
    <defs>
        <clipPath id="clip0_232_1285">
            <rect width="187" height="64.6524" fill="white"/>
        </clipPath>
    </defs>
</svg>
