<svg width="187" height="25" viewBox="0 0 187 25" fill="none" xmlns="http://www.w3.org/2000/svg">
    <path d="M56.5124 12.3123H52.4545V4.56203H56.5124C58.475 4.56203 60.0383 6.29172 60.0383 8.42045C60.0383 10.5825 58.475 12.3123 56.5124 12.3123ZM59.4395 15.1395L59.506 15.1063C59.872 14.9396 60.2379 14.707 60.5373 14.4742C62.3667 13.1103 63.4641 10.8819 63.4641 8.45369C63.4641 4.46228 60.5041 1.20257 56.8785 1.20257H49.0284V23.4884H52.4213V15.6719H52.4878C52.4878 15.6719 54.3172 15.6719 55.6809 15.6719H55.7142L55.7474 15.7052L60.903 23.4884H64.9609L59.4395 15.1395ZM74.6404 20.3283H72.5781V4.46228H74.6404C78.2992 4.46228 81.06 8.0214 81.06 12.412C81.06 16.7694 78.2992 20.3283 74.6404 20.3283ZM74.7401 1.23581H69.2187V23.5216H74.7401C80.1286 23.5216 84.3862 18.5323 84.3862 12.3788C84.3862 6.25847 80.0953 1.23581 74.7401 1.23581ZM128.558 12.3123H124.501V4.56203H128.558C130.521 4.56203 132.084 6.29172 132.084 8.42045C132.084 10.5825 130.521 12.3123 128.558 12.3123ZM131.485 15.1395L131.552 15.1063C131.918 14.9396 132.284 14.707 132.583 14.4742C134.413 13.1103 135.51 10.8819 135.51 8.45369C135.51 4.46228 132.55 1.20257 128.924 1.20257H121.074V23.4884H124.467V15.6719H124.534C124.534 15.6719 126.363 15.6719 127.727 15.6719H127.76L127.793 15.7052L132.949 23.4884H137.04L131.485 15.1395ZM116.617 1.23581H102.381V4.36247H107.736V23.5216H111.262V4.36247H116.617V1.23581ZM16.7309 24.12V1.23581H13.3382V15.4388L0 0.770205V23.5216H3.39272V9.55145L3.5258 9.68444L16.7309 24.12ZM150.944 20.7274C146.354 20.7274 142.628 17.0021 142.628 12.412C142.628 7.82176 146.354 4.09642 150.944 4.09642C155.534 4.09642 159.259 7.82176 159.259 12.412C159.259 16.9689 155.534 20.7274 150.944 20.7274ZM150.944 0.670475C144.491 0.670475 139.236 5.92592 139.236 12.3788C139.236 18.8314 144.491 24.0867 150.944 24.0867C157.397 24.0867 162.652 18.8314 162.652 12.3788C162.652 5.92592 157.397 0.670475 150.944 0.670475ZM32.8963 20.7274C28.3061 20.7274 24.5808 17.0021 24.5808 12.412C24.5808 7.82176 28.3061 4.09642 32.8963 4.09642C37.4865 4.09642 41.212 7.82176 41.212 12.412C41.2452 16.9689 37.4865 20.7274 32.8963 20.7274ZM32.8963 0.670475C26.4434 0.670475 21.188 5.92592 21.188 12.3788C21.188 18.8314 26.4434 24.0867 32.8963 24.0867C39.3492 24.0867 44.6046 18.8314 44.6046 12.3788C44.6379 5.92592 39.3824 0.670475 32.8963 0.670475ZM99.4873 17.6342C99.4207 16.4698 98.8886 14.1418 95.8618 11.7134L93.2007 9.38499C92.0696 8.48693 91.5375 7.52239 91.5043 6.39145C91.5043 5.09421 92.369 4.19615 93.6665 4.12967C93.6998 4.12967 95.3293 3.92994 96.3272 5.32717L96.3604 5.39366L99.0548 3.56427L99.0215 3.49778C98.5559 2.76582 96.4604 0.770205 93.6331 0.903179C92.0364 0.969666 90.6063 1.60169 89.6084 2.5996C88.5772 3.664 88.0782 5.06097 88.1781 6.69076C88.2781 8.5869 89.3755 10.3497 91.6707 12.2124L94.1652 14.4077C95.5624 15.5385 96.1612 16.5031 96.2277 17.6342C96.2942 18.4658 95.9948 19.2641 95.4625 19.8625C94.9969 20.3949 94.4646 20.6276 93.733 20.6941H93.5666C91.471 20.6941 90.6063 19.1972 90.1073 18.2992L89.9741 18.0664L87.0805 19.4636C87.3464 20.1954 88.9099 23.8873 93.5001 23.8873H93.5666C95.2296 23.7875 96.7598 23.1223 97.8574 21.9914C98.9883 20.8607 99.5871 19.2974 99.4873 17.6342ZM177.021 14.3412L187 0.803447V23.5549H183.607V11.3142L176.988 20.1289L170.436 11.3142V23.5549H167.043V0.770205L177.021 14.3412Z" fill="#231F20"/>
</svg>
