<svg width="187" height="36" viewBox="0 0 187 36" fill="none" xmlns="http://www.w3.org/2000/svg">
    <g clip-path="url(#clip0_238_1699)">
        <path fill-rule="evenodd" clip-rule="evenodd" d="M170.787 13.3818C173.018 11.752 175.505 10.6368 178.336 10.6368C183.912 10.6368 186.314 13.9823 186.314 19.3864V34.5694H178.508V21.5309C178.508 19.3864 178.25 17.3277 175.677 17.3277C174.133 17.3277 172.503 18.0139 171.302 18.8717V34.4836H163.496V11.1515H170.187L170.787 13.3818ZM147.198 28.8222C150.629 28.8222 151.573 25.7341 151.573 22.8176C151.573 19.9011 150.629 16.8988 147.198 16.8988C143.767 16.8988 142.823 19.9868 142.823 22.8176C142.823 25.7341 143.767 28.8222 147.198 28.8222ZM147.198 35.0841C139.992 35.0841 134.931 30.0231 134.931 22.8176C134.931 15.6121 140.078 10.6368 147.198 10.6368C154.403 10.6368 159.464 15.6121 159.464 22.8176C159.464 30.0231 154.318 35.0841 147.198 35.0841ZM127.04 8.92125C124.466 8.92125 122.408 7.03411 122.408 4.46071C122.408 1.9731 124.552 0.0859375 127.04 0.0859375C129.527 0.0859375 131.672 1.88732 131.672 4.46071C131.672 7.03411 129.527 8.92125 127.04 8.92125ZM123.094 34.5694V11.1515H130.9V34.5694H123.094ZM99.3328 32.5107L101.735 26.8492L101.992 27.0208C103.793 28.2217 106.281 28.9937 108.425 28.9937C109.283 28.9937 111.599 28.9937 111.599 27.707C111.599 24.9621 100.791 25.9914 100.791 18.1855C100.791 16.8988 101.134 15.6121 101.735 14.5827C103.536 11.6662 107.139 10.6368 110.313 10.6368C112.8 10.6368 115.374 10.98 117.775 11.8378L117.947 11.9235V18.5286L117.604 18.357C115.374 17.4992 113.058 16.813 110.656 16.813C109.884 16.813 108.34 16.813 108.34 17.9281C108.34 20.1584 119.148 19.3864 119.148 27.5355C119.148 33.2827 113.915 35.1699 109.026 35.1699C105.766 35.1699 102.164 34.3979 99.4186 32.6823L99.3328 32.5107ZM88.0099 24.3616L85.7796 24.4474C84.9218 24.4474 83.8925 24.619 83.2062 25.0479C82.52 25.4768 82.2627 25.9914 82.2627 26.8492C82.2627 28.4791 83.4636 28.9937 84.9218 28.9937C85.8654 28.9937 87.1521 28.7364 88.0099 28.3075V24.3616ZM88.8677 32.768C87.0663 34.3121 85.0076 35.0841 82.52 35.0841C77.9737 35.0841 74.4567 31.996 74.4567 27.3639C74.4567 24.3616 75.8292 22.3029 78.4026 20.9304C80.2897 19.9868 82.52 19.558 84.5787 19.4722L88.0099 19.3006C88.0099 17.0703 86.1227 16.5557 84.2356 16.5557C82.3484 16.5557 80.2039 17.0703 78.5741 17.9281L78.3168 18.0139L75.8292 12.9529L76.0007 12.8671C79.003 11.3231 82.1769 10.6368 85.5223 10.6368C91.6984 10.6368 95.7301 13.0387 95.7301 19.5579V29.8515C95.7301 31.224 95.7301 33.0254 96.0732 34.3121L96.159 34.6552H89.6397L88.8677 32.768ZM63.82 35.0841C60.1315 35.0841 56.5287 33.8832 54.1269 30.9667C52.2397 28.7364 51.4677 25.9057 51.4677 22.9891C51.4677 15.6979 57.2149 10.5511 64.3347 10.5511C66.6507 10.5511 69.0526 10.98 71.0255 12.2667L71.1113 12.3524V19.0433L70.6824 18.7859C68.9668 17.4992 67.337 16.813 65.1925 16.813C61.5897 16.813 59.4452 19.3864 59.4452 22.9034C59.4452 26.4203 61.3324 28.7364 64.9351 28.7364C66.8223 28.7364 68.3663 28.1359 70.0819 27.1924L70.3393 27.0208L72.5695 32.4249L72.398 32.5107C69.9961 34.3121 66.6507 35.0841 63.82 35.0841ZM40.831 35.0841C37.1425 35.0841 33.5397 33.8832 31.1379 30.9667C29.2507 28.7364 28.4787 25.9057 28.4787 22.9891C28.4787 15.6979 34.226 10.5511 41.3457 10.5511C43.6617 10.5511 46.0636 10.98 48.0365 12.2667L48.1223 12.3524V19.0433L47.6934 18.7859C45.9778 17.4992 44.348 16.813 42.2035 16.813C38.6007 16.813 36.4562 19.3864 36.4562 22.9034C36.4562 26.4203 38.3434 28.7364 41.9461 28.7364C43.8333 28.7364 45.3773 28.1359 47.0929 27.1924L47.3503 27.0208L49.5805 32.4249L49.409 32.5107C46.9214 34.3121 43.6617 35.0841 40.831 35.0841ZM13.0383 28.8222C16.4695 28.8222 17.4131 25.7341 17.4131 22.8176C17.4131 19.9011 16.4695 16.8988 13.0383 16.8988C9.60715 16.8988 8.66357 19.9868 8.66357 22.8176C8.66357 25.7341 9.60715 28.8222 13.0383 28.8222ZM13.0383 35.0841C5.83283 35.0841 0.686035 30.0231 0.686035 22.8176C0.686035 15.6121 5.83283 10.6368 12.9526 10.6368C20.0723 10.6368 25.2191 15.6121 25.2191 22.8176C25.3049 30.0231 20.2438 35.0841 13.0383 35.0841Z" fill="black"/>
    </g>
    <defs>
        <clipPath id="clip0_238_1699">
            <rect width="187" height="35.1697" fill="white"/>
        </clipPath>
    </defs>
</svg>
