<svg width="187" height="41" viewBox="0 0 187 41" fill="none" xmlns="http://www.w3.org/2000/svg">
    <g clip-path="url(#clip0_216_113)">
        <mask id="mask0_216_113" style="mask-type:luminance" maskUnits="userSpaceOnUse" x="-1" y="0" width="133" height="41">
            <path d="M-0.0078125 0.281108V40.8123H122.692L131.269 0.281108H-0.0078125Z" fill="white"/>
        </mask>
        <g mask="url(#mask0_216_113)">
            <path d="M179.065 33.6564H178.65C178.65 33.6564 177.959 34.9014 176.022 34.9014C175.33 34.9014 174.5 34.6247 173.947 34.0714V30.8898C173.947 27.0165 171.319 25.7715 169.244 24.8032C167.307 23.8349 165.647 23.1432 165.647 20.5149C165.647 18.8549 164.955 17.61 164.817 17.3333L164.264 16.0883C163.987 15.2583 163.849 14.4283 163.849 13.5983C163.849 12.7684 164.125 11.6617 164.679 10.555C165.37 8.89507 166.615 7.51175 167.169 7.51175C167.584 7.51175 167.86 7.92675 168.414 8.75673C168.967 9.72506 169.797 10.97 171.457 10.97C173.532 10.97 174.777 8.34174 174.777 5.9901C174.777 4.60679 174.362 3.22347 173.532 2.39348C172.564 1.28683 171.042 0.733501 169.105 0.733501C164.955 0.733501 162.742 2.94681 161.774 4.05346C160.944 3.7768 159.422 3.22347 157.486 3.22347C155.411 3.22347 153.889 3.63846 153.197 4.05346C152.367 2.94681 150.016 0.733501 145.866 0.733501C143.929 0.733501 142.407 1.28683 141.439 2.39348C140.609 3.3618 140.194 4.60679 140.194 5.9901V6.12843C139.917 5.9901 139.502 5.9901 139.226 5.9901C138.119 5.9901 136.874 7.92675 136.321 8.75673C135.767 9.58672 134.661 11.6617 134.661 13.7367C134.661 17.3333 136.321 19.2699 137.566 20.6533C138.257 21.4832 138.811 22.0366 138.811 22.7282C138.811 23.1432 137.842 23.6965 137.012 24.1115C135.214 25.0799 132.724 26.4632 132.724 29.5065V32.4114C132.724 33.9331 131.479 35.0397 130.096 35.0397C128.989 35.0397 128.298 34.0714 128.298 34.0714L128.021 33.6564L127.606 33.7948C126.638 33.9331 124.701 34.7631 124.701 36.6997C124.701 39.0514 127.744 40.573 130.511 40.573C132.586 40.573 133.969 40.0197 134.661 39.743C135.076 40.0197 135.906 40.2963 136.874 40.2963H170.489C171.457 40.2963 172.287 39.8813 172.702 39.743C173.394 40.0197 174.639 40.573 176.852 40.573C179.895 40.573 182.524 38.913 182.524 36.838C182.247 34.6247 180.172 33.7948 179.065 33.6564Z" fill="white"/>
            <path d="M179.065 33.6564H178.65C178.65 33.6564 177.959 34.9014 176.022 34.9014C175.33 34.9014 174.5 34.6247 173.947 34.0714V30.8898C173.947 27.0165 171.319 25.7715 169.244 24.8032C167.307 23.8349 165.647 23.1432 165.647 20.5149C165.647 18.8549 164.955 17.61 164.817 17.3333L164.264 16.0883C163.987 15.2583 163.849 14.4283 163.849 13.5983C163.849 12.7684 164.125 11.6617 164.679 10.555C165.37 8.89507 166.615 7.51175 167.169 7.51175C167.584 7.51175 167.86 7.92675 168.414 8.75673C168.967 9.72506 169.797 10.97 171.457 10.97C173.532 10.97 174.777 8.34174 174.777 5.9901C174.777 4.60679 174.362 3.22347 173.532 2.39348C172.564 1.28683 171.042 0.733501 169.105 0.733501C164.955 0.733501 162.742 2.94681 161.774 4.05346C160.944 3.7768 159.422 3.22347 157.486 3.22347C155.411 3.22347 153.889 3.63846 153.197 4.05346C152.367 2.94681 150.016 0.733501 145.866 0.733501C143.929 0.733501 142.407 1.28683 141.439 2.39348C140.609 3.3618 140.194 4.60679 140.194 5.9901V6.12843C139.917 5.9901 139.502 5.9901 139.226 5.9901C138.119 5.9901 136.874 7.92675 136.321 8.75673C135.767 9.58672 134.661 11.6617 134.661 13.7367C134.661 17.3333 136.321 19.2699 137.566 20.6533C138.257 21.4832 138.811 22.0366 138.811 22.7282C138.811 23.1432 137.842 23.6965 137.012 24.1115C135.214 25.0799 132.724 26.4632 132.724 29.5065V32.4114C132.724 33.9331 131.479 35.0397 130.096 35.0397C128.989 35.0397 128.298 34.0714 128.298 34.0714L128.021 33.6564L127.606 33.7948C126.638 33.9331 124.701 34.7631 124.701 36.6997C124.701 39.0514 127.744 40.573 130.511 40.573C132.586 40.573 133.969 40.0197 134.661 39.743C135.076 40.0197 135.906 40.2963 136.874 40.2963H170.489C171.457 40.2963 172.287 39.8813 172.702 39.743C173.394 40.0197 174.639 40.573 176.852 40.573C179.895 40.573 182.524 38.913 182.524 36.838C182.247 34.6247 180.172 33.7948 179.065 33.6564Z" stroke="white" stroke-width="4.41995" stroke-miterlimit="10"/>
            <path d="M145.918 16.8949C145.918 17.0332 145.918 17.3099 145.642 17.4482C145.365 17.5865 145.227 17.7249 144.95 17.7249C144.397 17.7249 143.982 17.3099 143.982 16.7565V16.2032C144.535 16.0649 144.95 15.5116 144.95 14.8199C144.95 14.8199 144.397 14.5432 143.567 14.5432C142.737 14.5432 142.183 14.8199 142.183 14.8199C142.183 15.3732 142.598 15.9266 143.152 16.2032V16.7565C143.152 17.3099 142.737 17.7249 142.183 17.7249C141.907 17.7249 141.63 17.5865 141.492 17.4482C141.353 17.3099 141.215 17.0332 141.215 16.7565H140.385C140.385 17.3099 140.523 17.7249 140.938 18.0015C141.215 18.4165 141.768 18.6932 142.183 18.6932C142.737 18.6932 143.29 18.4165 143.567 18.0015C143.982 18.4165 144.397 18.6932 144.95 18.6932C145.503 18.6932 145.918 18.5549 146.195 18.1399C146.61 17.7249 146.887 17.3099 146.887 16.8949H145.918ZM146.472 12.4683C145.918 12.4683 145.365 12.8833 145.365 13.5749C145.365 14.1282 145.918 14.5432 146.472 14.5432C147.025 14.5432 147.578 14.1282 147.578 13.5749C147.578 12.8833 147.025 12.4683 146.472 12.4683ZM141.768 13.5749C141.768 13.0216 141.353 12.4683 140.662 12.4683C140.108 12.4683 139.555 12.8833 139.555 13.5749C139.693 14.1282 140.108 14.5432 140.8 14.5432C141.353 14.5432 141.768 14.1282 141.768 13.5749ZM147.716 15.7882C147.716 16.0649 147.993 16.2032 148.131 16.2032H148.27L150.621 15.7882V15.9266L149.93 17.0332L148.131 16.7565C147.855 16.7565 147.716 16.8949 147.578 17.1715C147.44 17.4482 147.716 17.5865 147.993 17.7249L149.515 18.0015C149.376 18.4165 149.1 19.3848 149.1 20.3532C149.1 21.1832 149.376 21.8748 149.791 22.5665C150.206 23.3965 150.76 24.3648 150.76 25.8864C150.76 26.7164 150.206 28.3764 149.791 30.0364C148.685 33.7713 148.27 35.4313 149.376 35.8463C150.621 36.3996 149.93 38.6129 149.93 38.7513H146.887C147.025 37.9213 147.302 36.123 145.918 35.1546H145.642L146.887 30.313C147.025 29.898 146.748 29.6214 146.472 29.483C146.057 29.3447 145.78 29.6214 145.642 29.898L144.812 33.0797L143.982 29.898C143.843 29.6214 143.567 29.3447 143.152 29.483C143.013 29.6214 142.737 29.898 142.875 30.313L143.843 34.1863C143.843 34.3247 144.12 35.5696 145.088 36.123C146.057 36.8146 145.503 38.7513 145.503 38.7513H142.322C142.46 38.0596 142.598 36.538 141.907 35.5696C141.63 35.293 141.353 35.0163 140.938 34.878L139.693 29.898C139.555 29.6214 139.278 29.3447 138.863 29.483C138.587 29.6214 138.31 29.898 138.448 30.313L139.555 34.7396C138.587 34.6013 138.448 34.1863 138.31 34.1863V33.7713C138.448 33.4947 138.31 33.0797 137.895 32.9413C137.618 32.803 137.203 32.9413 137.065 33.3563C136.927 33.4947 136.788 34.1863 137.065 34.7396C137.48 35.5696 138.448 35.9846 140.108 36.123C140.385 36.123 140.523 36.2613 140.662 36.3996C141.077 36.953 140.938 38.3363 140.8 38.8896H136.373C135.405 38.8896 134.713 38.3363 134.713 38.3363L134.298 38.0596L133.883 38.3363C133.883 38.3363 132.5 39.1663 130.148 39.1663C128.073 39.1663 125.86 37.9213 125.86 36.8146C125.86 35.9846 126.69 35.708 127.105 35.5696C127.52 36.123 128.488 36.8146 129.872 36.8146C132.223 36.8146 134.022 34.878 134.022 32.6647V29.483C134.022 27.4081 135.82 26.4398 137.48 25.4714C138.863 24.7798 140.108 23.9498 140.108 22.7048C140.108 21.4598 139.278 20.4915 138.448 19.5232C138.033 19.1082 137.618 18.6932 137.342 18.1399L139.002 17.8632C139.278 17.8632 139.417 17.5865 139.417 17.3099C139.417 17.0332 139.14 16.8949 138.863 16.8949L136.788 17.3099C136.512 16.8949 136.373 16.4799 136.235 15.9266L138.863 16.3416H139.002C139.278 16.3416 139.417 16.2032 139.417 15.9266C139.417 15.6499 139.278 15.5116 139.002 15.3732L135.958 14.9582C135.82 14.5432 135.82 13.9899 135.82 13.5749C135.82 11.085 138.172 7.76499 139.002 7.35C139.832 7.21167 140.938 9.00998 141.63 10.5316L141.907 11.2233L142.598 11.085C143.29 10.9466 143.982 10.9466 144.535 11.085L145.227 11.3616L145.503 10.67C146.057 9.00998 147.163 7.21167 147.855 7.21167C148.546 7.62666 151.036 10.9466 151.036 13.4366C151.036 13.8516 151.036 14.4049 150.898 14.8199L148.131 15.3732C147.855 15.3732 147.716 15.5116 147.716 15.7882Z" fill="#27ADEA"/>
            <path d="M147.668 15.8794C147.668 16.1561 147.945 16.2944 148.083 16.2944H148.221L150.573 15.8794V16.0178L150.02 17.1244L148.221 16.8478C147.945 16.8478 147.806 16.9861 147.668 17.2628C147.668 17.5394 147.806 17.6777 148.083 17.8161L149.605 18.0927C149.328 18.6461 149.051 19.6144 149.051 20.5827C149.051 21.4127 149.328 22.1044 149.743 22.796C150.296 23.4877 150.711 24.3177 150.711 25.9776C150.711 26.8076 150.158 28.4676 149.743 30.1276C148.636 33.8625 148.221 35.5225 149.328 35.9375C150.573 36.4908 149.881 38.7041 149.881 38.8425H146.838C146.976 38.0125 147.253 36.2142 145.87 35.2459L145.731 35.1075L146.976 30.2659C147.115 29.9893 146.838 29.5743 146.561 29.4359C146.285 29.2976 145.87 29.5743 145.731 29.8509L144.901 33.0326L144.071 29.8509C143.933 29.5743 143.656 29.2976 143.241 29.4359C142.965 29.5743 142.688 29.8509 142.826 30.2659L143.795 34.1392C143.795 34.2775 144.071 35.5225 145.04 36.0758C146.008 36.7675 145.455 38.7041 145.455 38.7041H142.411C142.55 38.0125 142.688 36.4908 141.996 35.5225C141.72 35.2459 141.443 34.9692 141.028 34.8309L139.783 29.8509C139.645 29.5743 139.368 29.2976 138.953 29.4359C138.676 29.5743 138.4 29.8509 138.538 30.2659L139.645 34.6925C138.676 34.5542 138.538 34.1392 138.4 34.1392V33.7242C138.538 33.4475 138.4 33.0326 137.985 32.8942C137.708 32.7559 137.293 32.8942 137.155 33.3092C137.016 33.4475 136.878 34.1392 137.155 34.6925C137.57 35.5225 138.538 35.9375 140.198 36.0758C140.475 36.0758 140.613 36.2142 140.751 36.3525C141.166 36.9058 141.028 38.2892 140.89 38.8425H136.463C135.495 38.8425 134.803 38.2892 134.803 38.2892L134.388 38.0125L133.973 38.2892C133.973 38.2892 132.59 39.1191 130.238 39.1191C128.163 39.1191 125.95 37.8742 125.95 36.7675C125.95 35.9375 126.78 35.6609 127.195 35.5225C127.61 36.0758 128.578 36.7675 129.962 36.7675C132.313 36.7675 134.112 34.8309 134.112 32.6176V29.4359C134.112 27.361 135.91 26.3926 137.57 25.4243C138.953 24.7327 140.198 23.9027 140.198 22.6577C140.198 21.4127 139.368 20.4444 138.538 19.4761C138.123 19.0611 137.708 18.6461 137.431 18.0927L139.091 17.8161C139.368 17.8161 139.506 17.5394 139.506 17.2628C139.506 16.9861 139.23 16.8478 138.953 16.8478L136.878 17.2628C136.74 16.7094 136.601 16.2944 136.325 15.7411L139.091 16.1561H139.23C139.506 16.1561 139.645 16.0178 139.645 15.7411C139.645 15.4644 139.506 15.3261 139.23 15.1878L136.186 14.7728C136.048 14.3578 136.048 13.8045 136.048 13.3895C136.048 10.8995 138.4 7.57954 139.23 7.16455C139.921 7.30288 141.028 8.96286 141.581 10.4845L141.858 11.1762L142.55 11.0378C143.241 10.8995 143.933 10.8995 144.486 11.0378L145.178 11.1762L145.455 10.4845C146.008 8.96286 147.115 7.30288 147.806 7.16455C148.498 7.57954 150.988 10.8995 150.988 13.3895C150.988 13.8045 150.988 14.3578 150.85 14.7728L148.083 15.3261C147.806 15.3261 147.668 15.6028 147.668 15.8794Z" stroke="#27ADEA" stroke-width="8.8584" stroke-miterlimit="10"/>
            <path d="M145.918 16.8949C145.918 17.0332 145.918 17.3099 145.642 17.4482C145.365 17.5865 145.227 17.7249 144.95 17.7249C144.397 17.7249 143.982 17.3099 143.982 16.7565V16.2032C144.535 16.0649 144.95 15.5115 144.95 14.8199C144.95 14.8199 144.397 14.5432 143.567 14.5432C142.737 14.5432 142.183 14.8199 142.183 14.8199C142.183 15.3732 142.598 15.9265 143.152 16.2032V16.7565C143.152 17.3099 142.737 17.7249 142.183 17.7249C141.907 17.7249 141.63 17.5865 141.492 17.4482C141.353 17.3099 141.215 17.0332 141.215 16.7565H140.385C140.385 17.3099 140.523 17.7249 140.938 18.0015C141.215 18.4165 141.768 18.6932 142.183 18.6932C142.737 18.6932 143.29 18.4165 143.567 18.0015C143.982 18.4165 144.397 18.6932 144.95 18.6932C145.503 18.6932 145.918 18.5548 146.195 18.1398C146.61 17.7249 146.887 17.3099 146.887 16.8949H145.918ZM146.472 12.4683C145.918 12.4683 145.365 12.8832 145.365 13.5749C145.365 14.1282 145.918 14.5432 146.472 14.5432C147.025 14.5432 147.578 14.1282 147.578 13.5749C147.578 12.8832 147.025 12.4683 146.472 12.4683ZM141.768 13.5749C141.768 13.0216 141.353 12.4683 140.662 12.4683C140.108 12.4683 139.555 12.8832 139.555 13.5749C139.693 14.1282 140.108 14.5432 140.8 14.5432C141.353 14.5432 141.768 14.1282 141.768 13.5749ZM159.198 13.5749C159.198 13.0216 159.613 12.4683 160.305 12.4683C160.858 12.4683 161.411 12.8832 161.411 13.5749C161.411 14.1282 160.858 14.5432 160.305 14.5432C159.751 14.5432 159.198 14.1282 159.198 13.5749ZM153.526 13.5749C153.526 13.0216 153.941 12.4683 154.633 12.4683C155.186 12.4683 155.74 12.8832 155.74 13.5749C155.601 14.1282 155.186 14.5432 154.633 14.5432C153.941 14.5432 153.526 14.1282 153.526 13.5749ZM173.308 5.69C173.308 7.62665 172.34 9.28663 171.51 9.28663C170.68 9.28663 170.403 8.7333 169.85 7.76498C169.296 6.93499 168.743 5.82834 167.36 5.82834C165.285 5.82834 163.625 9.56329 163.486 9.83995C163.071 10.8083 162.518 12.1916 162.518 13.4366C162.518 14.5432 162.656 15.5115 163.071 16.4799L163.763 17.8632C163.763 17.8632 164.455 18.9698 164.455 20.3532C164.316 21.8748 162.933 23.1198 161.411 23.1198C159.475 23.1198 158.091 21.7365 158.091 20.0765V18.9698C159.336 18.6932 160.166 17.5865 160.166 16.3415C160.166 16.3415 159.06 15.7882 157.4 15.7882C155.878 15.7882 154.633 16.3415 154.633 16.3415C154.633 17.5865 155.463 18.6932 156.708 18.9698V20.0765C156.708 21.7365 155.325 23.2581 153.526 23.2581C151.866 23.2581 150.621 22.0131 150.345 20.4915C150.345 19.1082 151.036 18.0015 151.036 18.0015L151.728 16.6182C152.143 15.6499 152.281 14.5432 152.281 13.5749C152.281 11.4999 151.036 9.42496 150.621 8.59497C150.068 7.76498 148.823 5.82834 147.717 5.82834H147.578C146.333 5.82834 145.642 6.79666 145.227 7.76498C144.95 8.04164 144.812 8.45664 144.673 8.7333C144.258 9.00996 143.982 9.28663 143.428 9.28663C142.598 9.28663 141.63 7.62665 141.63 5.82834C141.63 5.13668 141.768 4.03003 142.598 3.20004C143.29 2.37005 144.397 1.95505 145.918 1.95505C150.345 1.95505 152.281 4.86001 152.281 4.99835L152.558 5.69L153.25 5.27501C153.25 5.27501 154.91 4.44502 157.4 4.44502C160.028 4.44502 161.55 5.27501 161.55 5.27501L162.241 5.69L162.656 4.99835C162.656 4.99835 164.593 1.95505 169.02 1.95505C170.541 1.95505 171.648 2.37005 172.34 3.06171C173.031 3.89169 173.308 4.99835 173.308 5.69ZM182.299 36.8146C182.299 38.8896 179.809 40.5496 176.628 40.5496C174.415 40.5496 173.031 39.9962 172.478 39.7196C172.063 39.9962 171.233 40.2729 170.265 40.2729H136.65C135.682 40.2729 134.852 39.9962 134.437 39.7196C133.745 39.9962 132.362 40.5496 130.287 40.5496C127.52 40.5496 124.477 38.8896 124.477 36.6763C124.477 34.7396 126.413 33.9096 127.382 33.7713L127.797 33.633L128.073 34.048C128.073 34.048 128.765 35.0163 129.872 35.0163C131.393 35.0163 132.5 33.7713 132.5 32.388V29.2064C132.5 26.1631 134.99 24.7798 136.788 23.8114C137.757 23.3964 138.725 22.8431 138.725 22.4281C138.725 21.7365 138.172 21.1831 137.48 20.3532C136.235 18.9698 134.575 17.0332 134.575 13.4366C134.575 11.3616 135.682 9.28663 136.235 8.45664C136.788 7.62665 138.033 5.69 139.14 5.69C139.555 5.69 139.832 5.82834 140.108 5.82834V5.69C140.108 4.30669 140.523 2.92338 141.353 2.09339C142.322 0.986733 143.843 0.433406 145.78 0.433406C149.93 0.433406 152.143 2.64671 153.111 3.75336C153.941 3.4767 155.463 3.0617 157.4 2.92337C159.475 2.92337 160.996 3.33837 161.688 3.75336C162.518 2.64671 164.87 0.433406 169.02 0.433406C170.956 0.433406 172.478 0.986733 173.446 2.09339C174.276 3.06171 174.691 4.30669 174.691 5.69C174.691 8.17997 173.308 10.6699 171.371 10.6699C169.711 10.6699 168.881 9.42496 168.328 8.45664C167.775 7.62665 167.498 7.21165 167.083 7.21165C166.53 7.21165 165.423 8.59497 164.593 10.2549C164.04 11.3616 163.763 12.4683 163.763 13.2982C163.763 14.1282 163.901 14.9582 164.178 15.7882L165.008 17.1715C165.146 17.4482 165.838 18.6932 165.838 20.3532C165.838 22.8431 167.36 23.6731 169.435 24.6414C171.51 25.6098 174 26.8547 174.138 30.728V33.9096C174.691 34.463 175.521 34.7396 176.213 34.7396C178.011 34.7396 178.841 33.4947 178.841 33.4947H179.256C180.224 33.7713 182.299 34.6013 182.299 36.8146ZM176.766 39.0279C174.138 39.0279 173.031 38.1979 173.031 38.1979L172.616 37.7829L172.201 38.1979C172.201 38.1979 171.51 38.7512 170.541 38.7512H165.008C165.008 38.7512 163.901 37.3679 164.455 36.3996C165.146 35.0163 166.53 34.7396 168.328 34.7396C169.158 34.7396 169.573 34.3246 169.711 34.048C170.126 33.218 169.435 31.8347 169.158 31.558C168.743 31.143 168.328 31.143 168.051 31.2813C167.775 31.4197 167.636 31.8347 167.913 32.1113C168.19 32.5263 168.466 33.0797 168.466 33.3563H168.19C167.775 33.3563 167.083 33.3563 166.53 33.4947L166.115 31.973C165.976 31.6963 165.7 31.4197 165.285 31.558C165.008 31.6963 164.731 31.973 164.87 32.388L165.285 33.9096C164.455 34.1863 163.763 34.878 163.21 35.8463C162.656 36.9529 163.071 38.0596 163.486 38.7512H158.368C158.23 37.6446 158.091 35.9846 158.921 35.5696C159.198 35.4313 159.475 35.4313 159.613 35.293C160.166 35.1546 160.72 35.0163 160.996 34.463C161.273 33.9096 161.273 33.218 160.858 32.2497L160.443 29.898C160.305 29.6214 160.028 29.3447 159.613 29.483C159.336 29.6214 159.06 29.898 159.198 30.313L159.751 32.803C160.028 33.7713 160.028 34.048 160.028 34.048C160.028 34.048 159.613 34.1863 159.475 34.1863C159.198 34.1863 158.921 34.3246 158.506 34.463C158.091 34.6013 157.676 35.0163 157.538 35.293C157.261 34.878 156.985 34.6013 156.57 34.463C156.155 34.3246 155.878 34.1863 155.601 34.1863C155.463 34.1863 155.048 34.048 155.048 34.048C155.048 34.048 154.91 33.7713 155.325 32.803L155.878 30.313C155.878 29.898 155.601 29.6214 155.325 29.483C155.048 29.3447 154.633 29.6214 154.495 29.898L153.941 32.388C153.526 33.4946 153.526 34.1863 153.803 34.7396C154.08 35.293 154.633 35.4313 155.186 35.5696C155.463 35.5696 155.74 35.708 155.878 35.8463C156.57 36.1229 156.57 37.7829 156.431 39.0279H151.313C151.59 37.7829 151.728 35.8463 150.068 34.878C150.068 34.1863 150.621 32.1113 151.036 30.728C151.728 28.653 152.143 26.9931 152.143 25.8864C152.143 25.1948 152.005 24.5031 151.866 24.0881C152.558 24.3648 153.111 24.3648 153.665 24.3648C154.08 24.3648 154.495 24.3648 154.91 24.2264C155.601 24.9181 156.431 25.1948 157.4 25.1948C158.368 25.1948 159.198 24.7798 159.89 24.2264C160.305 24.3648 160.72 24.3648 161.135 24.3648C162.656 24.3648 163.901 23.6731 164.731 22.5665C165.561 24.3648 167.221 25.1948 168.743 25.8864C170.818 26.8547 172.478 27.6847 172.478 30.5897V34.463L172.616 34.7396C173.585 35.708 174.829 36.2613 175.936 36.2613C177.458 36.2613 178.564 35.5696 179.118 35.1546C179.671 35.293 180.639 35.708 180.639 36.6763C180.778 37.9213 178.841 39.0279 176.766 39.0279ZM156.155 23.6731C156.57 23.9498 156.985 24.0881 157.4 24.0881C157.815 24.0881 158.23 23.9498 158.645 23.6731C158.23 23.2581 157.815 22.8431 157.538 22.2898C157.123 22.8431 156.708 23.2581 156.155 23.6731ZM147.717 15.7882C147.717 16.0649 147.993 16.2032 148.132 16.2032H148.27L150.621 15.7882V15.9265L149.93 17.0332L148.132 16.7565C147.855 16.7565 147.717 16.8949 147.578 17.1715C147.44 17.4482 147.717 17.5865 147.993 17.7249L149.515 18.0015C149.376 18.4165 149.1 19.3848 149.1 20.3532C149.1 21.1831 149.376 21.8748 149.791 22.5665C150.206 23.3964 150.76 24.3648 150.76 25.8864C150.76 26.7164 150.206 28.3764 149.791 30.0364C148.685 33.7713 148.27 35.4313 149.376 35.8463C150.621 36.3996 149.93 38.6129 149.93 38.7512H146.887C147.025 37.9213 147.302 36.1229 145.918 35.1546H145.642L146.887 30.313C147.025 29.898 146.748 29.6214 146.472 29.483C146.057 29.3447 145.78 29.6214 145.642 29.898L144.812 33.0797L143.982 29.898C143.843 29.6214 143.567 29.3447 143.152 29.483C143.013 29.6214 142.737 29.898 142.875 30.313L143.843 34.1863C143.843 34.3246 144.12 35.5696 145.088 36.123C146.057 36.8146 145.503 38.7512 145.503 38.7512H142.322C142.46 38.0596 142.598 36.5379 141.907 35.5696C141.63 35.293 141.353 35.0163 140.938 34.878L139.693 29.898C139.555 29.6214 139.278 29.3447 138.863 29.483C138.587 29.6214 138.31 29.898 138.448 30.313L139.555 34.7396C138.587 34.6013 138.448 34.1863 138.31 34.1863V33.7713C138.448 33.4946 138.31 33.0797 137.895 32.9413C137.618 32.803 137.203 32.9413 137.065 33.3563C136.927 33.4947 136.788 34.1863 137.065 34.7396C137.48 35.5696 138.448 35.9846 140.108 36.123C140.385 36.123 140.523 36.2613 140.662 36.3996C141.077 36.9529 140.938 38.3363 140.8 38.8896H136.373C135.405 38.8896 134.713 38.3363 134.713 38.3363L134.298 38.0596L133.883 38.3363C133.883 38.3363 132.5 39.1662 130.148 39.1662C128.073 39.1662 125.86 37.9213 125.86 36.8146C125.86 35.9846 126.69 35.708 127.105 35.5696C127.52 36.1229 128.488 36.8146 129.872 36.8146C132.223 36.8146 134.022 34.878 134.022 32.6647V29.483C134.022 27.4081 135.82 26.4397 137.48 25.4714C138.863 24.7798 140.108 23.9498 140.108 22.7048C140.108 21.4598 139.278 20.4915 138.448 19.5232C138.033 19.1082 137.618 18.6932 137.342 18.1398L139.002 17.8632C139.278 17.8632 139.417 17.5865 139.417 17.3099C139.417 17.0332 139.14 16.8949 138.863 16.8949L136.788 17.3099C136.512 16.8949 136.373 16.4799 136.235 15.9265L138.863 16.3415H139.002C139.278 16.3415 139.417 16.2032 139.417 15.9265C139.417 15.6499 139.278 15.5115 139.002 15.3732L135.958 14.9582C135.82 14.5432 135.82 13.9899 135.82 13.5749C135.82 11.0849 138.172 7.76498 139.002 7.34998C139.832 7.21165 140.938 9.00996 141.63 10.5316L141.907 11.2233L142.598 11.0849C143.29 10.9466 143.982 10.9466 144.535 11.0849L145.227 11.3616L145.503 10.6699C146.057 9.00996 147.163 7.21165 147.855 7.21165C148.547 7.62665 151.036 10.9466 151.036 13.4366C151.036 13.8516 151.036 14.4049 150.898 14.8199L148.132 15.3732C147.855 15.3732 147.717 15.5115 147.717 15.7882Z" fill="#231F20"/>
            <path d="M117.23 19.3017C117.23 15.4284 114.463 12.1084 110.59 12.1084C106.44 12.1084 103.95 15.2901 103.95 19.025V19.1633C103.95 22.8983 106.716 26.2182 110.59 26.2182C114.878 26.2182 117.23 23.0366 117.23 19.3017ZM96.8948 19.3017C96.8948 11.8318 102.843 5.88351 110.728 5.88351C118.613 5.88351 124.423 11.6934 124.423 19.025V19.1633C124.423 26.4949 118.475 32.4432 110.59 32.4432C102.705 32.4432 96.8948 26.4949 96.8948 19.3017ZM71.5802 19.3017C71.5802 11.9701 77.1134 5.88351 84.9983 5.88351C87.4883 5.88351 89.4249 6.2985 91.0849 7.12849C94.1282 8.51181 96.0649 11.5551 93.4366 14.0451C92.3299 15.1517 91.2232 15.1517 91.2232 15.1517C90.2549 13.7684 89.0099 11.9701 84.9983 11.9701C81.4017 11.9701 78.7734 15.4284 78.7734 19.1633C78.7734 23.0366 81.2634 26.2182 85.275 26.2182C87.6266 26.2182 90.6699 25.2499 92.4682 23.0366L96.0649 27.6016C93.5749 30.3682 89.9783 32.4432 84.9983 32.4432C77.2518 32.4432 71.5802 26.4949 71.5802 19.3017ZM56.502 22.4833V12.5234H53.4587V6.2985H56.502V0.48858H63.6953V6.2985H69.0902V12.5234H63.6953V22.2066C63.6953 23.8666 64.9402 25.6649 66.8769 25.6649C68.2602 25.6649 68.5369 25.6649 69.5052 25.5266V31.7515C68.2602 32.0282 67.5686 32.0282 66.3236 32.0282C61.482 32.0282 56.502 29.3999 56.502 22.4833ZM44.7438 15.5667C44.4672 13.3534 43.0839 11.4168 40.4556 11.4168C38.1039 11.4168 35.614 13.2151 35.3373 15.5667H44.7438ZM27.8674 19.3017C27.8674 11.9701 32.9857 5.88351 40.4556 5.88351C49.0321 5.88351 51.5221 12.5234 51.5221 16.6734C51.5221 20.4083 46.8188 20.685 45.4355 20.685H35.0606C35.7523 24.0049 38.1039 26.3566 41.2856 26.3566C43.7755 26.3566 46.6805 25.1116 48.6171 23.175L51.6604 28.1549C48.8938 30.9215 45.4355 32.4432 41.1472 32.4432C33.4007 32.4432 27.8674 27.0482 27.8674 19.3017ZM18.0458 19.44C18.0458 15.1517 15.8325 12.1084 12.3743 12.1084C8.91597 12.1084 6.70266 15.1517 6.70266 19.44C6.70266 23.7283 9.33096 26.4949 12.3743 26.4949C15.4176 26.3566 18.0458 23.5899 18.0458 19.44ZM25.1008 19.025C25.1008 25.5266 21.6425 32.3048 13.7576 32.3048C9.88429 32.3048 8.6393 31.1982 6.97932 29.6765V35.9015C6.97932 41.0197 0.0627441 40.4664 0.0627441 40.4664V6.2985H6.42599V9.20347C8.2243 6.85183 10.9909 5.88351 14.7259 5.88351C21.2275 5.88351 25.1008 12.5234 25.1008 19.025Z" fill="#EA2229"/>
        </g>
        <path d="M186.303 34.0027C185.608 33.3071 184.912 32.9593 184.216 33.3071C182.825 33.6549 181.434 34.6983 179.695 34.0027C176.565 32.9593 178.999 28.4379 176.913 26.3511C175.174 24.6121 172.391 26.0033 170.652 23.9165C169.261 22.8731 169.261 21.1341 169.609 19.3951C169.609 17.3083 167.87 16.6127 167.522 14.8737C167.174 11.7435 168.218 8.96113 170.305 7.22213C171.348 8.26553 172.044 9.65673 172.739 10.7001H176.565C177.956 8.61333 178.999 6.17873 178.304 3.39634C177.956 2.70074 177.261 1.65735 176.565 1.30955C174.478 -0.42945 171.348 -0.429453 168.913 0.613945C167.522 1.30954 166.131 2.35294 164.74 3.39634C162.305 2.70074 159.175 2.70074 156.74 3.39634C155.001 1.30954 152.567 0.266148 150.132 0.266148C147.698 0.266148 145.263 1.30954 144.22 3.39634C143.872 4.09194 144.22 4.78754 143.524 5.13534C140.046 6.87433 138.307 10.7001 138.655 14.8737H137.611C136.916 14.8737 136.568 14.8737 136.568 15.2215C136.568 15.5693 136.916 15.9171 136.916 15.9171H138.307V16.2649V16.9605H136.568C136.22 16.9605 136.22 17.3083 136.22 17.6561C136.22 18.0039 136.568 18.3517 136.568 18.3517H138.655C139.003 19.0473 139.698 19.3951 140.394 20.0907C141.089 20.7863 141.785 21.1341 142.481 21.8297C142.481 22.1775 142.481 22.8731 142.133 23.2209C140.394 23.9165 138.655 24.2643 137.264 25.6555C135.872 26.6989 135.525 28.4379 135.525 29.8291V33.6549C135.525 33.6549 135.525 34.0027 135.177 34.0027L134.829 34.3505H129.264V32.6115C129.264 31.2203 128.221 30.1769 126.83 30.1769C125.438 30.1769 124.395 31.2203 124.395 32.6115V34.6983C124.395 35.0461 124.395 36.7851 125.786 38.1763C127.177 39.5675 128.569 39.5675 128.916 39.5675H134.829C135.525 39.5675 135.872 39.2197 136.568 38.8719C136.916 39.2197 137.264 39.5675 137.959 39.5675H144.22C145.263 39.5675 145.959 39.5675 146.654 38.8719C147.002 39.2197 147.35 39.5675 148.045 39.9153C148.741 40.2631 149.437 39.9153 150.132 39.5675C150.48 39.5675 150.48 38.8719 150.828 38.8719C151.176 39.5675 151.871 39.9153 152.915 39.9153C153.958 39.9153 154.654 39.2197 155.001 38.8719C155.349 39.2197 156.045 39.5675 156.393 39.9153C157.784 40.2631 159.175 39.9153 160.218 38.8719C160.566 39.2197 160.914 39.5675 161.61 39.5675C163.001 39.9153 164.392 39.5675 165.435 38.5241C165.783 39.2197 166.131 39.5675 166.827 39.5675H175.174C175.869 39.5675 176.565 39.2197 177.261 38.5241C178.652 39.5675 180.738 39.9153 182.477 39.9153C184.216 39.5675 186.651 38.5241 186.999 36.4373C187.347 35.3939 186.999 34.3505 186.303 34.0027Z" fill="#231F20"/>
        <path d="M151.317 13.4134C151.317 14.109 150.969 14.4568 150.273 14.4568C149.578 14.4568 149.23 14.109 149.23 13.4134C149.23 12.7178 149.578 12.37 150.273 12.37C150.969 12.37 151.317 12.7178 151.317 13.4134ZM145.752 13.4134C145.752 14.109 145.404 14.4568 144.709 14.4568C144.013 14.4568 143.665 14.109 143.665 13.4134C143.665 12.7178 144.013 12.37 144.709 12.37C145.056 12.37 145.752 12.7178 145.752 13.4134ZM147.839 18.6304C147.839 18.9782 147.491 18.9782 147.491 18.9782C147.143 19.326 146.795 18.9782 146.795 18.6304H147.839ZM150.621 16.5436C150.621 17.587 149.925 18.2826 148.882 18.2826C148.186 18.2826 147.839 17.9348 147.491 17.587C147.143 17.9348 146.795 18.2826 146.1 18.2826C145.056 18.2826 144.361 17.587 144.361 16.5436H145.404C145.404 16.8914 145.752 17.587 146.448 17.587C146.795 17.587 147.491 17.2392 147.491 16.5436V16.1958C147.143 15.848 146.795 15.5002 146.795 15.1524H149.23C149.23 15.848 148.882 16.1958 148.534 16.1958V16.5436C148.534 16.8914 148.882 17.587 149.578 17.587C149.925 17.587 150.621 17.2392 150.621 16.5436ZM140.883 30.8034C140.187 30.8034 139.839 30.4556 139.839 29.76C139.839 29.0644 140.187 28.7166 140.883 28.7166C140.883 28.7166 141.578 28.7166 142.274 29.0644C144.013 29.4122 143.317 32.1946 143.665 33.9336C144.361 33.9336 145.056 33.9336 145.752 34.2814V29.76C145.404 29.0644 146.1 28.7166 146.795 28.7166C147.491 28.7166 147.839 29.0644 147.839 29.76V36.716C147.839 37.4116 148.186 37.7594 148.882 37.7594C149.578 37.7594 149.925 37.4116 149.925 36.716V29.76C149.925 29.0644 150.273 28.7166 150.969 28.7166C151.664 28.7166 152.012 29.0644 152.012 29.76V36.716C152.012 37.4116 152.36 37.7594 153.056 37.7594C153.751 37.7594 154.099 37.4116 154.099 36.716V29.76C154.099 28.3688 154.795 27.6732 155.142 26.6298C155.49 25.5864 155.142 24.1952 154.795 23.8474C152.36 22.1084 151.664 21.065 152.36 18.9782C152.36 18.6304 152.708 18.2826 152.708 17.9348H152.012C151.664 17.9348 151.317 17.587 151.317 17.2392C151.317 16.8914 151.664 16.5436 152.012 16.5436H153.751C153.751 16.1958 154.099 15.848 154.099 15.5002H152.012C151.664 15.5002 151.317 15.1524 151.317 15.1524C151.317 14.8046 151.664 14.8046 152.012 14.8046H154.447C154.795 12.0222 153.751 9.23984 151.664 7.50084C149.925 8.54424 149.23 10.2832 148.882 10.9788C147.839 10.631 146.448 10.631 145.404 10.9788C145.056 9.58764 144.013 8.19644 142.622 7.50084C140.535 9.23984 139.492 12.0222 139.839 14.8046H141.926C142.622 14.8046 142.97 15.1524 142.97 15.1524C142.97 15.5002 142.622 15.5002 142.274 15.5002H140.535C140.535 15.848 140.883 16.1958 140.883 16.5436H142.274C142.622 16.5436 142.97 16.8914 142.97 17.2392C142.97 17.587 142.274 17.9348 142.274 17.9348H141.578C142.274 18.6304 143.317 19.326 144.013 20.0216C145.056 20.7172 145.056 21.7606 144.709 22.804C144.013 24.543 142.274 24.8908 140.883 25.2386C136.361 26.9776 138.796 32.1946 138.1 36.0204V36.716C138.1 37.4116 138.448 37.7594 139.144 37.7594H144.709C145.404 37.7594 145.752 37.4116 145.752 36.716C145.752 36.0204 145.404 35.6726 144.709 35.6726H142.622C141.926 35.6726 141.578 35.3248 141.578 34.6292C141.578 34.6292 141.578 31.8468 141.231 31.1512C141.231 30.8034 140.883 30.8034 140.883 30.8034ZM128.362 35.6726C128.71 36.0204 129.405 36.0204 129.405 36.0204H135.318C135.666 36.0204 136.361 36.3682 136.361 37.0638C136.361 37.4116 136.014 38.1072 135.318 38.1072H129.405C129.405 38.1072 128.362 38.1072 127.319 37.4116C126.275 36.0204 126.275 34.6292 126.275 34.6292V32.5424C126.275 32.1946 126.623 31.499 127.319 31.499C127.666 31.499 128.362 31.8468 128.362 32.5424V34.6292C128.014 34.6292 128.014 35.3248 128.362 35.6726Z" fill="#009DDC"/>
        <path d="M176.019 36.4519C176.019 36.7997 175.672 37.8431 174.976 37.8431H167.325C166.629 37.8431 166.281 37.4953 166.281 36.7997C166.281 36.1041 166.629 35.7563 167.325 35.7563H170.802C171.498 35.4085 171.498 35.0607 171.846 34.3651V28.8003C171.846 27.7569 172.889 26.7135 173.933 26.7135C174.976 26.7135 176.019 27.7569 176.019 28.8003V36.4519ZM155.847 36.4519V30.5393C156.543 28.4525 158.282 26.7135 157.238 24.2789C157.586 24.2789 157.934 24.2789 158.282 23.9311C158.977 24.9745 160.369 25.6701 161.76 25.3223C162.803 24.9745 163.499 24.6267 164.194 23.9311C165.586 24.2789 167.325 23.9311 168.368 22.8878C168.716 24.2789 169.759 25.3223 170.802 25.6701C170.455 26.0179 170.107 26.3657 170.107 26.7135C169.411 28.8003 170.107 32.6261 169.411 33.3217C168.716 34.0173 166.281 33.6695 166.281 33.6695V29.4959C166.281 28.8003 165.933 28.4525 165.238 28.4525C164.542 28.4525 164.194 28.8003 164.194 29.4959V36.1041C164.194 37.1475 163.499 37.8431 162.803 37.8431C161.76 37.8431 161.064 37.1475 161.064 36.4519V29.8437C161.064 29.1481 160.716 28.8003 160.021 28.8003C159.325 28.8003 158.977 29.1481 158.977 29.8437V36.4519C158.977 37.4953 158.282 38.1909 157.586 38.1909C156.543 37.8431 155.847 37.1475 155.847 36.4519ZM164.89 13.1494C164.89 13.845 164.542 14.1928 163.847 14.1928C163.151 14.1928 162.803 13.845 162.803 13.1494C162.803 12.4538 163.151 12.106 163.847 12.106C164.194 12.106 164.89 12.8016 164.89 13.1494ZM159.325 13.1494C159.325 13.845 158.977 14.1928 158.282 14.1928C157.586 14.1928 156.891 13.845 156.891 13.1494C156.891 12.4538 157.238 12.106 157.934 12.106C158.63 12.106 159.325 12.8016 159.325 13.1494ZM175.324 3.41099C174.628 2.71539 173.933 2.3676 172.889 2.0198C169.759 1.672 166.977 3.06319 165.238 5.49779C162.455 4.10659 158.63 4.10659 155.847 5.49779C154.108 2.7154 151.326 1.3242 148.196 2.0198C147.152 2.7154 146.109 3.41099 145.761 4.45439C145.065 5.84559 145.761 7.58458 146.804 8.97578H148.196C148.891 7.58458 149.935 5.49779 151.674 5.14999C155.152 7.23678 156.891 11.0626 156.543 14.8884C156.543 16.9752 154.108 18.0186 154.456 20.4532C154.456 21.1488 155.152 21.8444 155.499 22.1922C156.543 22.8878 157.934 22.54 158.977 21.8444C160.021 21.1488 160.369 19.4098 160.021 18.3664H158.977C158.282 18.3664 157.934 18.0186 157.934 17.323C157.934 16.6274 158.282 16.2796 158.977 16.2796H162.803C163.499 16.2796 163.847 16.6274 163.847 17.323C163.847 18.0186 163.499 18.3664 162.803 18.3664H161.76C161.412 19.7576 161.76 20.801 162.803 21.8444C163.499 22.54 164.89 22.8878 165.933 22.54C166.629 22.1922 166.977 21.8444 167.325 21.1488C167.672 20.4532 167.672 19.7576 167.325 19.062C166.281 17.6708 165.238 16.6274 165.238 14.8884C165.238 10.367 166.977 6.88898 170.455 4.80219C171.846 5.49779 173.237 7.23678 173.933 8.62798H175.324L176.019 6.88899C176.367 6.19339 176.367 4.45439 175.324 3.41099ZM161.064 23.5833C161.76 23.5833 162.455 23.5833 163.151 22.8878C161.76 23.2355 161.064 22.1922 161.064 22.1922C161.064 22.1922 160.369 23.2355 158.977 22.8878C159.673 23.5833 160.369 23.5833 161.064 23.5833ZM178.106 34.7129V36.7997C179.15 38.1909 181.584 38.1909 183.323 37.4953C184.019 37.1475 185.41 36.4519 185.062 35.4085C184.367 34.0173 183.323 35.7563 181.932 36.1041C180.889 36.1041 179.15 35.7563 178.106 34.7129Z" fill="#EE2A24"/>
    </g>
    <defs>
        <clipPath id="clip0_216_113">
            <rect width="187" height="40.766" fill="white"/>
        </clipPath>
    </defs>
</svg>
