<svg width="187" height="43" viewBox="0 0 187 43" fill="none" xmlns="http://www.w3.org/2000/svg">
    <path d="M14.2372 7.85057C15.6052 9.29814 16.2892 11.4218 16.2892 14.2215C16.2892 17.1723 15.6211 19.4312 14.2849 20.9742C12.9487 22.5252 11.2227 23.2967 9.11497 23.2967C7.77079 23.2967 6.65727 22.9626 5.76645 22.2945C5.28127 21.9287 4.80405 21.3878 4.34273 20.6799V29.429H0V6.04507H4.19957V8.52663C4.67679 7.79489 5.17787 7.22222 5.71872 6.80067C6.69703 6.05302 7.86623 5.6792 9.21836 5.6792C11.1988 5.6792 12.8691 6.40299 14.2372 7.85057ZM10.8727 11.0082C10.2762 10.014 9.31381 9.51289 7.96963 9.51289C6.36298 9.51289 5.25741 10.2685 4.66088 11.7718C4.35069 12.5751 4.19161 13.5852 4.19161 14.818C4.19161 16.7667 4.71656 18.1347 5.75849 18.9301C6.37888 19.3914 7.11858 19.6221 7.96963 19.6221C9.20246 19.6221 10.141 19.1528 10.7932 18.2063C11.4375 17.2598 11.7636 16.0031 11.7636 14.4362C11.7636 13.1477 11.4693 12.0024 10.8727 11.0082Z" fill="black"/>
    <path d="M23.8929 4.04845H19.4468V0H23.8929V4.04845ZM19.4468 6.05278H23.8929V22.8272H19.4468V6.05278Z" fill="black"/>
    <path d="M39.0687 6.38668C40.2379 6.91163 41.2082 7.73881 41.9639 8.86824C42.6479 9.86246 43.1012 11.0237 43.3001 12.3361C43.4194 13.1076 43.4671 14.2131 43.4432 15.6687H31.2263C31.29 17.3549 31.8785 18.532 32.9841 19.2081C33.6522 19.6296 34.4555 19.8364 35.402 19.8364C36.4042 19.8364 37.2155 19.5819 37.8359 19.0649C38.1779 18.7865 38.4801 18.4048 38.7426 17.9116H43.2205C43.1012 18.9058 42.5604 19.916 41.598 20.942C40.0947 22.5725 37.9949 23.3917 35.2827 23.3917C33.0477 23.3917 31.0832 22.6998 29.3731 21.3238C27.6631 19.9478 26.812 17.7128 26.812 14.6108C26.812 11.7077 27.5835 9.47273 29.1265 7.92175C30.6696 6.37077 32.666 5.59131 35.1237 5.59131C36.5871 5.59926 37.8995 5.86174 39.0687 6.38668ZM32.5069 10.1806C31.8865 10.8169 31.4968 11.6839 31.3377 12.7735H38.8937C38.8142 11.6123 38.4245 10.7294 37.7245 10.1249C37.0246 9.52045 36.1576 9.21821 35.1237 9.21821C34.0022 9.21821 33.1273 9.53636 32.5069 10.1806Z" fill="black"/>
    <path d="M54.992 5.6549C55.0477 5.66286 55.175 5.67081 55.3659 5.67876V10.1726C55.0875 10.1408 54.8409 10.1249 54.6262 10.109C54.4114 10.101 54.2364 10.0931 54.1012 10.0931C52.3355 10.0931 51.1504 10.6657 50.5459 11.819C50.2039 12.4633 50.0369 13.4575 50.0369 14.8017V22.827H45.6226V6.05259H49.8062V8.97956C50.4823 7.85808 51.0709 7.09453 51.5719 6.68889C52.3912 5.99691 53.457 5.6549 54.7773 5.6549C54.8648 5.64695 54.9364 5.6549 54.992 5.6549Z" fill="black"/>
    <path d="M67.2567 5.6549C67.3124 5.66286 67.4396 5.67081 67.6305 5.67876V10.1726C67.3521 10.1408 67.1056 10.1249 66.8908 10.109C66.6761 10.101 66.5011 10.0931 66.3659 10.0931C64.6002 10.0931 63.415 10.6657 62.8106 11.819C62.4686 12.4633 62.3015 13.4575 62.3015 14.8017V22.827H57.8872V6.05259H62.0709V8.97956C62.7469 7.85808 63.3355 7.09453 63.8366 6.68889C64.6558 5.99691 65.7216 5.6549 67.0419 5.6549C67.1294 5.64695 67.201 5.6549 67.2567 5.6549Z" fill="black"/>
    <path d="M81.1358 6.38668C82.305 6.91163 83.2754 7.73881 84.031 8.86824C84.715 9.86246 85.1684 11.0237 85.3672 12.3361C85.4865 13.1076 85.5343 14.2131 85.5104 15.6687H73.2935C73.3651 17.3549 73.9457 18.532 75.0512 19.2081C75.7194 19.6296 76.5227 19.8364 77.4692 19.8364C78.4713 19.8364 79.2826 19.5819 79.903 19.0649C80.245 18.7865 80.5473 18.4048 80.8097 17.9116H85.2877C85.1684 18.9058 84.6275 19.916 83.6651 20.942C82.1619 22.5725 80.0621 23.3917 77.3499 23.3917C75.1149 23.3917 73.1503 22.6998 71.4403 21.3238C69.7302 19.9478 68.8792 17.7128 68.8792 14.6108C68.8792 11.7077 69.6507 9.47273 71.1937 7.92175C72.7367 6.37077 74.7331 5.59131 77.1908 5.59131C78.6463 5.59926 79.9666 5.86174 81.1358 6.38668ZM74.574 10.1806C73.9536 10.8169 73.5639 11.6839 73.4048 12.7735H80.9609C80.8813 11.6123 80.4916 10.7294 79.7917 10.1249C79.0917 9.52045 78.2248 9.21821 77.1908 9.21821C76.0614 9.21821 75.1944 9.53636 74.574 10.1806Z" fill="black"/>
    <path d="M106.524 12.0658C106.445 11.4374 106.23 10.8727 105.888 10.3716C105.395 9.69556 104.631 9.35355 103.589 9.35355C102.11 9.35355 101.092 10.0853 100.551 11.5567C100.265 12.3362 100.121 13.3702 100.121 14.6587C100.121 15.8836 100.265 16.8778 100.551 17.6254C101.076 19.0173 102.062 19.7173 103.51 19.7173C104.536 19.7173 105.267 19.4389 105.697 18.8821C106.126 18.3254 106.389 17.6095 106.484 16.7267H110.962C110.859 18.0629 110.374 19.3275 109.515 20.5126C108.139 22.4295 106.103 23.3919 103.398 23.3919C100.694 23.3919 98.7136 22.5885 97.4331 20.9898C96.1605 19.3911 95.5242 17.3152 95.5242 14.7621C95.5242 11.8828 96.2321 9.64784 97.6319 8.04118C99.0397 6.44249 100.98 5.63916 103.454 5.63916C105.562 5.63916 107.28 6.10843 108.624 7.05492C109.96 8.00142 110.756 9.66374 111.002 12.0578H106.524V12.0658Z" fill="black"/>
    <path d="M120.666 12.6225C121.485 12.5191 122.066 12.3919 122.416 12.2407C123.044 11.9703 123.362 11.5567 123.362 10.992C123.362 10.308 123.124 9.83077 122.639 9.5683C122.153 9.30583 121.445 9.17061 120.507 9.17061C119.457 9.17061 118.717 9.42513 118.28 9.94212C117.97 10.3239 117.763 10.8329 117.659 11.4772H113.428C113.524 10.0137 113.937 8.80474 114.661 7.85825C115.83 6.37886 117.827 5.63916 120.658 5.63916C122.503 5.63916 124.142 6.00503 125.573 6.72882C127.005 7.46056 127.721 8.83656 127.721 10.8568V18.556C127.721 19.0889 127.729 19.7332 127.753 20.4967C127.785 21.0694 127.872 21.4591 128.015 21.6659C128.158 21.8727 128.373 22.0397 128.659 22.1749V22.8192H123.887C123.752 22.4772 123.665 22.159 123.609 21.8648C123.561 21.5705 123.513 21.2285 123.482 20.8467C122.877 21.5068 122.169 22.0636 121.374 22.5249C120.427 23.0658 119.354 23.3441 118.153 23.3441C116.625 23.3441 115.361 22.9067 114.367 22.0397C113.372 21.1728 112.871 19.9479 112.871 18.3572C112.871 16.2971 113.675 14.8018 115.273 13.8792C116.148 13.3781 117.445 13.0202 119.147 12.8055L120.666 12.6225ZM123.346 14.6666C123.068 14.8416 122.782 14.9848 122.495 15.0882C122.209 15.1916 121.819 15.295 121.318 15.3904L120.324 15.5734C119.385 15.7404 118.717 15.9392 118.304 16.1699C117.612 16.5676 117.27 17.188 117.27 18.0311C117.27 18.7787 117.484 19.3196 117.906 19.6536C118.328 19.9877 118.845 20.1547 119.449 20.1547C120.411 20.1547 121.286 19.8763 122.098 19.3196C122.909 18.7708 123.323 17.7527 123.354 16.2892V14.6666H123.346Z" fill="black"/>
    <path d="M140.868 5.6549C140.924 5.66286 141.051 5.67081 141.242 5.67876V10.1726C140.964 10.1408 140.717 10.1249 140.503 10.109C140.288 10.101 140.113 10.0931 139.978 10.0931C138.212 10.0931 137.027 10.6657 136.422 11.819C136.08 12.4633 135.913 13.4575 135.913 14.8017V22.827H131.491V6.05259H135.683V8.97956C136.359 7.85808 136.947 7.09453 137.456 6.68889C138.275 5.99691 139.341 5.6549 140.654 5.6549C140.741 5.64695 140.813 5.6549 140.868 5.6549Z" fill="black"/>
    <path d="M152.711 6.31522C153.499 6.76063 154.143 7.38102 154.636 8.16844V0.166992H159.082V22.8272H154.819V20.5047C154.191 21.4989 153.483 22.2227 152.68 22.676C151.884 23.1294 150.882 23.3521 149.697 23.3521C147.74 23.3521 146.086 22.5567 144.75 20.9739C143.413 19.3911 142.745 17.355 142.745 14.8734C142.745 12.0101 143.406 9.75918 144.726 8.11276C146.046 6.47429 147.804 5.64711 150.015 5.64711C151.017 5.64711 151.924 5.86981 152.711 6.31522ZM153.793 18.2697C154.437 17.347 154.763 16.154 154.763 14.6825C154.763 12.6305 154.246 11.167 153.212 10.2841C152.576 9.75123 151.836 9.4808 150.993 9.4808C149.713 9.4808 148.766 9.96598 148.17 10.9363C147.565 11.9067 147.271 13.1077 147.271 14.5473C147.271 16.0983 147.573 17.3391 148.186 18.2617C148.798 19.1923 149.721 19.6536 150.962 19.6536C152.202 19.6536 153.141 19.1923 153.793 18.2697Z" fill="black"/>
    <path d="M167.577 4.04845H163.131V0H167.577V4.04845ZM163.131 6.05278H167.577V22.8272H163.131V6.05278Z" fill="black"/>
    <path d="M185.354 7.00706C186.451 7.91378 187 9.42499 187 11.5248V22.8191H182.506V12.6224C182.506 11.7395 182.387 11.0635 182.156 10.5942C181.727 9.73519 180.915 9.29773 179.714 9.29773C178.235 9.29773 177.225 9.92608 176.676 11.1907C176.39 11.8588 176.247 12.7099 176.247 13.7439V22.827H171.864V6.07647H176.111V8.52622C176.676 7.66722 177.201 7.03887 177.702 6.66505C178.601 5.98898 179.738 5.64697 181.122 5.64697C182.848 5.64697 184.256 6.10033 185.354 7.00706Z" fill="black"/>
    <path d="M81.0089 37.9072C80.4362 38.3844 79.617 38.623 78.5512 38.623H76.515V42.1385H74.4868V32.3555H78.6864C79.6567 32.3555 80.4282 32.61 81.0009 33.1111C81.5736 33.6122 81.8679 34.3996 81.8679 35.4574C81.8679 36.6107 81.5815 37.4299 81.0089 37.9072ZM79.4499 34.3757C79.1875 34.161 78.8296 34.0496 78.3603 34.0496H76.515V36.9289H78.3603C78.8296 36.9289 79.1875 36.8096 79.4499 36.5789C79.7124 36.3482 79.8397 35.9744 79.8397 35.4654C79.8397 34.9563 79.7045 34.5984 79.4499 34.3757Z" fill="black"/>
    <path d="M85.3039 32.3555H87.6185L91.0783 42.1385H88.8593L88.215 40.1263H84.612L83.9518 42.1385H81.8123L85.3039 32.3555ZM85.1687 38.4401H87.6741L86.4413 34.5905L85.1687 38.4401Z" fill="black"/>
    <path d="M98.5945 32.61C98.9524 32.7611 99.2626 32.9918 99.5091 33.294C99.7159 33.5406 99.883 33.819 100.002 34.1212C100.122 34.4234 100.185 34.7654 100.185 35.1472C100.185 35.6085 100.066 36.0699 99.8352 36.5153C99.5966 36.9607 99.2148 37.2788 98.674 37.4697C99.1274 37.6526 99.4455 37.9072 99.6364 38.2412C99.8273 38.5753 99.9148 39.0843 99.9148 39.7683V40.4285C99.9148 40.8739 99.9307 41.1761 99.9705 41.3352C100.026 41.5897 100.153 41.7727 100.344 41.892V42.1385H98.0854C98.0218 41.9238 97.982 41.7488 97.9502 41.6136C97.8945 41.3432 97.8707 41.0568 97.8627 40.7705L97.8468 39.8638C97.8389 39.2434 97.7275 38.8218 97.5207 38.615C97.3139 38.4083 96.9242 38.3049 96.3595 38.3049H94.3631V42.1385H92.3667V32.3555H97.0435C97.7195 32.3714 98.2365 32.4509 98.5945 32.61ZM94.371 34.0576V36.6902H96.5742C97.0117 36.6902 97.3378 36.6346 97.5605 36.5312C97.9502 36.3482 98.1411 35.9744 98.1411 35.4256C98.1411 34.8291 97.9502 34.4314 97.5764 34.2325C97.3696 34.1212 97.0514 34.0576 96.6299 34.0576H94.371Z" fill="black"/>
    <path d="M104.011 42.1385H101.983V32.3555H104.011V42.1385Z" fill="black"/>
    <path d="M107.392 39.1163C107.455 39.5617 107.583 39.8958 107.765 40.1185C108.107 40.5241 108.688 40.723 109.507 40.723C110 40.723 110.398 40.6673 110.708 40.5639C111.289 40.3571 111.583 39.9833 111.583 39.4265C111.583 39.1004 111.44 38.8539 111.154 38.6789C110.867 38.5039 110.414 38.3528 109.794 38.2176L108.736 37.9869C107.694 37.7562 106.978 37.5097 106.588 37.2393C105.928 36.7859 105.602 36.078 105.602 35.1236C105.602 34.2487 105.928 33.5169 106.572 32.9363C107.217 32.3557 108.163 32.0693 109.412 32.0693C110.454 32.0693 111.345 32.3398 112.084 32.8886C112.824 33.4374 113.206 34.2248 113.246 35.2667H111.281C111.241 34.6782 110.979 34.2566 110.494 34.01C110.167 33.843 109.762 33.7635 109.277 33.7635C108.736 33.7635 108.306 33.8669 107.98 34.0816C107.654 34.2964 107.495 34.5907 107.495 34.9724C107.495 35.3224 107.654 35.5849 107.972 35.7519C108.179 35.8633 108.609 35.9985 109.269 36.1575L110.987 36.5632C111.742 36.7382 112.307 36.9768 112.681 37.2711C113.261 37.7324 113.556 38.4005 113.556 39.2675C113.556 40.1583 113.214 40.9059 112.522 41.4945C111.83 42.0831 110.851 42.3774 109.595 42.3774C108.306 42.3774 107.296 42.0831 106.556 41.5025C105.817 40.9218 105.451 40.1185 105.451 39.1004H107.392V39.1163Z" fill="black"/>
</svg>
