<svg width="187" height="120" viewBox="0 0 187 187" fill="none" xmlns="http://www.w3.org/2000/svg">
    <g clip-path="url(#clip0_234_1385)">
        <mask id="mask0_234_1385" style="mask-type:luminance" maskUnits="userSpaceOnUse" x="0" y="0" width="187" height="187">
            <path d="M187 0H0V187H187V0Z" fill="white"/>
        </mask>
        <g mask="url(#mask0_234_1385)">
            <path d="M75.3244 97.3599H86.4696L80.8671 82.0372L75.3244 97.3599ZM88.5378 103.015H73.3758L71.6106 107.757C70.9411 109.582 70.3315 110.858 69.8453 111.527C69.3591 112.137 68.5662 112.499 67.4105 112.499C66.498 112.499 65.6453 112.133 64.9122 111.467C64.1829 110.798 63.8164 110.009 63.8164 109.096C63.8164 108.064 64.1193 107.211 64.9122 105.266L74.4118 81.1283L75.3842 78.6338C75.7507 77.6614 76.1771 76.8086 76.6035 76.2028C77.516 74.9274 78.8587 74.0747 80.9269 74.0747C82.9951 74.0747 84.3976 74.9873 85.2503 76.2028C85.6767 76.8086 86.0432 77.4781 86.3462 78.2074C86.6491 78.9367 87.0156 79.9091 87.5018 81.0648L97.2445 105.079C97.9738 106.904 98.4002 108.24 98.4002 109.092C98.4002 109.945 98.0337 110.734 97.3044 111.463C96.5751 112.193 95.7223 112.559 94.6864 112.559C93.4671 112.559 92.678 112.073 92.0684 111.404C91.7654 111.037 91.4587 110.491 91.1558 109.702C90.8529 108.913 90.5462 108.303 90.3031 107.697L88.5378 103.015Z" fill="#FFC629"/>
            <path d="M110.521 103.987L118.985 78.8767C119.411 77.5378 119.778 76.6252 119.961 76.139C120.387 75.1068 121.36 74.1344 123.129 74.1344C125.137 74.1344 126.659 75.8361 126.659 77.4779C126.659 78.6336 126.113 79.9725 125.687 81.2479L116.673 105.569C115.275 109.279 114.542 112.563 110.342 112.623C106.201 112.623 105.285 109.219 103.946 105.569L95.1161 81.4311C94.6897 80.2156 94.0801 78.6934 94.0801 77.5378C94.0801 76.6851 94.4466 75.8959 95.1161 75.1666C95.7855 74.4373 96.6981 74.0708 97.7341 74.0708C99.0131 74.0708 99.9257 74.4972 100.475 75.2863C101.025 76.0754 101.571 77.2909 102.121 79.0562L110.525 103.983L110.521 103.987Z" fill="#FFC629"/>
            <path d="M136.885 82.5868V108.243C136.885 111.101 135.482 112.499 133.414 112.499C131.346 112.499 129.943 111.101 129.943 108.243V78.8767C129.943 77.2348 130.37 76.139 131.222 75.593C132.075 74.9833 133.231 74.7402 134.633 74.7402H136.948C138.347 74.7402 139.383 74.8599 139.993 75.1068C140.599 75.3499 141.089 75.8361 141.391 76.5055C141.698 77.175 142.001 78.2072 142.427 79.7294L147.847 100.097L153.266 79.7294C153.692 78.211 153.999 77.175 154.302 76.5055C154.605 75.8361 155.031 75.4097 155.704 75.1068C156.314 74.8637 157.41 74.7402 158.749 74.7402H161.064C162.526 74.7402 163.682 75.0432 164.475 75.593C165.327 76.139 165.754 77.2348 165.754 78.8767V108.303C165.754 111.16 164.351 112.559 162.223 112.559C160.215 112.559 158.812 111.16 158.812 108.303V82.583L152.843 106.295C152.477 107.817 152.114 108.969 151.867 109.698C151.624 110.427 151.198 111.097 150.528 111.643C149.859 112.252 148.946 112.555 147.787 112.555C144.073 112.555 143.463 109.272 142.734 106.295L136.889 82.583L136.885 82.5868Z" fill="#FFC629"/>
            <path d="M182.498 112.563C182.254 112.806 181.948 112.929 181.525 112.929C181.159 112.929 180.856 112.806 180.613 112.563C180.37 112.32 180.246 112.017 180.246 111.65C180.246 111.284 180.366 110.981 180.613 110.738C180.856 110.495 181.159 110.371 181.525 110.371C181.952 110.371 182.254 110.495 182.498 110.738C182.741 110.981 182.864 111.284 182.864 111.65C182.864 111.953 182.741 112.26 182.498 112.563Z" fill="#00A6CE"/>
            <path d="M182.864 104.047C182.864 105.505 182.437 106.661 181.585 107.514C180.732 108.363 179.576 108.729 178.114 108.729C175.189 108.729 173.121 106.904 173.121 103.927C173.121 101.436 174.827 99.7943 175.922 99.7943C176.225 99.7943 176.472 99.914 176.652 100.097C176.835 100.281 176.955 100.583 176.955 100.886C176.955 101.253 176.771 101.496 176.285 101.799C175.432 102.405 174.946 102.955 174.946 103.927C174.946 104.656 175.253 105.202 175.799 105.629C176.345 106.055 177.078 106.298 178.054 106.298C179.879 106.298 181.099 105.386 181.099 103.927C181.099 102.955 180.672 102.285 179.76 101.799C179.214 101.496 178.907 101.189 178.907 100.703C178.907 100.4 179.03 100.157 179.214 99.9738C179.457 99.7906 179.7 99.6709 179.943 99.6709C181.099 99.6709 182.864 101.189 182.864 104.047Z" fill="#00A6CE"/>
            <path d="M175.739 92.3743C175.193 92.8006 174.946 93.3467 174.946 94.076C174.946 95.4747 176.106 96.4471 178.054 96.4471C180.003 96.4471 181.158 95.5346 181.158 94.076C181.158 93.3467 180.915 92.8006 180.365 92.3743C179.816 91.9479 179.086 91.7048 178.114 91.7048C177.018 91.7647 176.225 91.9479 175.739 92.3743ZM182.864 94.1396C182.864 96.9969 180.855 98.8819 177.994 98.8819C175.133 98.8819 173.121 96.9969 173.121 94.1396C173.121 91.2822 175.129 89.3972 177.994 89.3374C180.855 89.3374 182.864 91.2224 182.864 94.1396Z" fill="#00A6CE"/>
            <path d="M181.342 80.2154C182.378 80.2154 182.864 80.7016 182.864 81.4309C182.864 82.1602 182.378 82.6464 181.342 82.6464H177.505C176.895 82.6464 176.409 82.6464 176.106 82.7063C175.437 82.7661 174.947 83.1326 174.947 83.9218C174.947 84.7109 175.19 85.1971 175.74 85.5038C176.289 85.7469 177.019 85.8703 178.055 85.8703H181.282C182.255 85.8703 182.804 86.3565 182.804 87.0858C182.804 87.8151 182.318 88.3013 181.282 88.3013H174.401C173.488 88.3013 173.002 87.8151 173.002 87.1456C173.002 86.4762 173.488 85.99 174.221 85.99H174.464C173.488 85.1373 173.002 84.2284 173.002 83.0728C173.002 81.8573 173.488 81.0046 174.464 80.4585C173.488 79.6694 173.002 78.7568 173.002 77.6012C173.002 76.3258 173.548 75.2898 174.524 74.8635C174.95 74.6802 175.62 74.5605 176.592 74.5605H181.282C182.318 74.5605 182.804 75.0467 182.804 75.776C182.804 76.5053 182.318 76.9915 181.282 76.9915H177.266C176.779 76.9915 176.353 76.9915 176.046 77.0514C175.437 77.1112 174.95 77.4777 174.95 78.2669C174.95 78.8765 175.317 79.5422 175.986 79.8489C176.353 80.0322 177.082 80.092 178.118 80.092H181.346V80.2117L181.342 80.2154Z" fill="#00A6CE"/>
            <path d="M42.4375 111.71C40.9751 111.651 39.5764 111.407 38.2973 110.921C36.8985 110.375 35.6793 109.646 34.6433 108.61C33.6073 107.578 32.7546 106.362 32.145 104.78C31.5354 103.262 31.2324 101.556 31.2324 99.7349V76.2066C31.2324 75.5969 31.4157 75.0509 31.7785 74.6881C32.145 74.3216 32.691 74.1421 33.3006 74.1421H35.9186C36.5283 74.1421 37.0743 74.3253 37.4408 74.6881C37.8073 75.0546 37.9906 75.6007 37.9906 76.2066V82.8338H41.8278C42.4375 82.8338 42.9835 83.0171 43.35 83.3799C43.7165 83.7464 43.8998 84.2924 43.8998 84.8983V87.0862C43.8998 87.6921 43.7165 88.2419 43.35 88.6047C42.9835 88.9712 42.4375 89.1507 41.8278 89.1507H37.9906V99.4881C37.9906 101.556 38.417 103.075 39.2697 104.23C40.1224 105.326 41.2781 105.872 42.6806 105.872H42.804C43.35 105.872 43.7764 106.056 44.1429 106.358C44.4458 106.661 44.6291 107.148 44.6291 107.697V109.945C44.6291 110.491 44.4458 110.918 44.1429 111.284C43.84 111.587 43.35 111.77 42.804 111.77H42.4375V111.71Z" fill="#00A6CE"/>
            <path d="M57.2363 111.71C55.7739 111.651 54.3752 111.407 53.0961 110.921C51.6973 110.375 50.4781 109.646 49.4421 108.61C48.4061 107.578 47.5534 106.362 46.9438 104.78C46.3342 103.262 46.0312 101.556 46.0312 99.7349V76.2066C46.0312 75.5969 46.2145 75.0509 46.5773 74.6881C46.9438 74.3216 47.4898 74.1421 48.0995 74.1421H50.7175C51.3271 74.1421 51.8731 74.3253 52.2396 74.6881C52.6062 75.0546 52.7894 75.6007 52.7894 76.2066V82.8338H56.5668C57.1764 82.8338 57.7225 83.0171 58.089 83.3799C58.4555 83.7427 58.6388 84.2924 58.6388 84.8983V87.0862C58.6388 87.6921 58.4555 88.2419 58.089 88.6047C57.7225 88.9712 57.1764 89.1507 56.5668 89.1507H52.7894V99.4881C52.7894 101.556 53.2158 103.075 54.0685 104.23C54.9212 105.326 56.0769 105.872 57.4794 105.872H57.6028C58.1489 105.872 58.5752 106.056 58.9417 106.358C59.3083 106.661 59.4279 107.148 59.4279 107.697V109.945C59.4279 110.491 59.2447 110.918 58.9417 111.284C58.6388 111.587 58.1489 111.77 57.6028 111.77H57.2363V111.71Z" fill="#00A6CE"/>
            <path d="M28.2522 81.6742C27.766 80.4587 27.1564 79.3629 26.487 78.4503C25.7577 77.5378 24.9648 76.8085 24.0522 76.139C23.1397 75.4696 22.0438 74.9834 20.8844 74.6168C19.6652 74.2503 18.4497 74.0708 17.1706 74.0708H6.20868C5.59906 74.0708 5.05302 74.2541 4.6865 74.6168C4.31998 74.9834 4.13672 75.5294 4.13672 76.139V109.578C4.13672 110.188 4.31998 110.734 4.6865 111.101C5.05302 111.467 5.59906 111.647 6.20868 111.647H8.9501C9.55972 111.647 10.0459 111.463 10.4723 111.101C10.8388 110.734 11.0221 110.188 11.0221 109.578V97.4795H17.1108C18.8761 97.4795 20.5815 97.1129 22.2271 96.4472C23.8727 95.7778 25.2715 94.7455 26.3074 93.4066C27.3434 92.0677 28.0727 90.7923 28.4392 89.4534C28.8058 88.1781 28.989 86.9588 28.989 85.8069C28.989 84.3483 28.7459 82.8897 28.2597 81.6705M22.5899 86.1136C22.5899 88.7877 20.3982 90.9793 17.7167 90.9793H10.9585V81.3114H17.7167C20.3945 81.3114 22.5899 83.4395 22.5899 86.1136Z" fill="#00A6CE"/>
        </g>
    </g>
    <defs>
        <clipPath id="clip0_234_1385">
            <rect width="187" height="187" fill="white"/>
        </clipPath>
    </defs>
</svg>
