<svg width="187" height="63" viewBox="0 0 187 63" fill="none" xmlns="http://www.w3.org/2000/svg">
    <g clip-path="url(#clip0_229_1228)">
        <path d="M186.879 14.7806C184.336 0.176711 140.469 -4.37768 88.8992 4.60071C67.2356 8.37275 47.6862 13.9423 32.449 20.2011C34.7867 20.257 36.5191 20.7879 37.5808 21.8403C38.4004 22.6692 38.8195 23.7962 38.8195 25.2119V26.6555H33.7622V25.3795C33.7622 24.3178 33.1196 23.6565 31.9926 23.6565C31.0426 23.6565 30.4559 24.0849 30.2696 24.9325C30.2137 25.1653 30.2044 25.5751 30.2882 25.9383C30.8284 28.155 38.3352 29.5241 39.1548 33.6035C39.2573 34.1251 39.4063 35.252 39.1828 36.8633C38.7171 40.151 35.8205 41.427 32.1416 41.427C27.0005 41.427 24.9142 38.9961 24.9142 35.6339V34.0506H30.3441V36.0251C30.3441 37.1334 31.1544 37.7481 32.2534 37.7481C33.2965 37.7481 33.9019 37.329 34.1161 36.4721C34.2186 36.0809 34.2558 35.4942 34.0789 35.0471C33.073 32.5324 26.0598 31.3496 25.2029 27.2888C25.0074 26.3761 24.998 25.5937 25.1564 24.6158C25.2402 24.0849 25.4079 23.6285 25.6034 23.2094C8.6898 31.1074 -1.19201 39.7971 0.111904 47.3039C2.65454 61.9078 46.522 66.4621 98.1011 57.4744C120.771 53.5255 141.149 47.6206 156.666 40.9986C156.442 41.0079 156.228 41.0358 155.995 41.0358C152.465 41.0358 149.317 39.7133 148.982 36.1089C148.926 35.4476 148.917 35.1775 148.907 34.805V26.5158C148.907 26.1619 148.954 25.5285 148.991 25.2026C149.41 21.7192 152.167 20.2756 155.986 20.2756C158.938 20.2756 162.57 21.1232 162.971 25.2026C163.027 25.7148 163.017 26.2643 163.017 26.4413V27.2236H157.904V26.0594C157.904 26.0594 157.904 25.5937 157.839 25.3236C157.755 24.9045 157.401 23.9452 155.948 23.9452C154.495 23.9452 154.141 24.9138 154.048 25.3236C153.992 25.5565 153.974 25.8825 153.974 26.2457V35.2613C153.974 35.578 153.983 35.8202 154.02 35.9971C154.048 36.1368 154.3 37.3848 155.976 37.3848C157.653 37.3848 157.895 36.1461 157.914 35.9971C157.96 35.755 157.96 35.4662 157.96 35.2613V32.4672H155.948V29.4589H163.055V34.805C163.055 35.1682 163.055 35.4383 162.989 36.1089C162.906 37.0589 162.608 37.8598 162.142 38.5397C178.599 30.7256 188.174 22.1756 186.888 14.7806H186.879ZM53.1533 40.654L50.5641 23.0697H50.471L47.8166 40.654H42.3587L46.0283 20.7972H54.9229L58.5645 40.654H53.144H53.1533ZM79.3806 40.654L79.2595 23.4143H79.1757L75.9625 40.654H70.8493L67.6547 23.4143H67.5616L67.4498 40.654H62.3738L62.8116 20.7972H70.9704L73.3453 35.5501H73.4571L75.8414 20.7972H83.9909L84.4286 40.654H79.3713H79.3806ZM103.261 36.8074C102.711 40.654 98.9486 41.3245 96.2849 41.3245C91.8609 41.3245 89.132 39.4339 89.132 35.5873V34.0226H94.4874V35.9785C94.4874 37.0402 95.2418 37.6922 96.3967 37.6922C97.4305 37.6922 98.0266 37.2824 98.2408 36.4255C98.3339 36.0251 98.3805 35.4476 98.2036 35.0192C97.2163 32.5511 90.259 31.3403 89.4114 27.3354C89.2159 26.4227 89.2065 25.6589 89.3649 24.681C89.9516 21.0487 93.4349 20.2943 96.2477 20.2943C98.7531 20.2943 100.579 20.8438 101.678 21.9335C102.497 22.7531 102.907 23.8707 102.907 25.2678V26.7021H97.8962V25.4354C97.8962 24.355 97.2256 23.731 96.1452 23.731C95.1859 23.731 94.6085 24.1594 94.4222 24.9977C94.3849 25.1746 94.3477 25.5844 94.4501 25.9942C94.9903 28.1922 102.432 29.5427 103.242 33.5849C103.345 34.1064 103.494 35.2148 103.261 36.8074ZM121.814 35.0099C121.814 35.3824 121.786 36.1275 121.767 36.3138C121.46 39.5829 119.122 41.25 114.828 41.25C110.535 41.25 108.178 39.5829 107.88 36.3138C107.862 36.1275 107.825 35.3824 107.834 35.0099V20.7972H112.956V35.4569C112.956 35.7829 112.966 36.0251 113.003 36.1927C113.068 36.5187 113.394 37.5804 114.838 37.5804C116.281 37.5804 116.607 36.5187 116.673 36.202C116.701 36.0344 116.719 35.7736 116.719 35.4569V20.7972H121.823C121.823 20.7972 121.823 35.0099 121.823 35.0006L121.814 35.0099ZM143.887 40.4584H136.753L131.966 24.7276H131.882L132.152 40.4584H127.178V20.8065H134.611L139.035 35.9133H139.137L138.876 20.8065H143.878V40.4584H143.887Z" fill="#164194"/>
    </g>
    <defs>
        <clipPath id="clip0_229_1228">
            <rect width="187" height="62.085" fill="white"/>
        </clipPath>
    </defs>
</svg>
