<svg width="187" height="24" viewBox="0 0 187 24" fill="none" xmlns="http://www.w3.org/2000/svg">
    <g clip-path="url(#clip0_229_1132)">
        <path d="M27.1153 7.10414C27.1153 7.10414 25.0088 0 12.9999 0C0.99104 0 0.877456 7.19707 0.877456 8.03346C0.877456 8.86985 1.16658 14.4664 10.8831 15.4267C16.4487 15.974 17.2748 16.3044 17.3574 17.1718C17.3884 17.5745 16.5623 18.4728 14.5178 18.4832C12.4836 18.4832 10.2636 18.225 9.60275 16.4077C7.78541 16.4077 -0.000236131 16.4077 -0.000236131 16.4077C-0.000236131 16.4077 -0.433919 23.6874 12.4836 23.6874C24.5648 23.6874 27.1153 19.5777 27.1153 15.8191C27.1153 15.8191 27.7452 10.3258 18.2041 8.75627C13.1135 7.91988 8.84896 8.06444 9.06581 6.13352C9.28265 4.2026 15.4575 5.12159 15.8292 7.09382C20.9611 7.09382 27.1153 7.09382 27.1153 7.09382" fill="#E41B13"/>
        <path d="M183.365 7.10414C183.365 7.10414 181.269 0 169.26 0C157.251 0 157.138 7.19707 157.138 8.03346C157.138 8.86985 157.427 14.4664 167.143 15.4164C172.709 15.9637 173.535 16.2838 173.628 17.1615C173.659 17.5642 172.823 18.4728 170.788 18.4728C168.754 18.4728 166.534 18.2147 165.873 16.3973C164.056 16.3973 156.27 16.3973 156.27 16.3973C156.27 16.3973 155.837 23.677 168.754 23.677C180.835 23.677 183.386 19.5674 183.386 15.8191C183.386 15.8191 184.016 10.3258 174.475 8.75627C169.374 7.91988 165.13 8.06444 165.336 6.13352C165.553 4.20259 171.728 5.12159 172.089 7.09381C177.221 7.09381 183.386 7.09381 183.386 7.09381" fill="#E41B13"/>
        <path d="M45.0618 7.44475H55.6354C55.6354 7.44475 54.1898 0.0205078 42.026 0.0205078C30.8639 0.0205078 28.6748 7.38279 28.6748 12.2979C28.6748 17.2129 33.1872 23.6872 42.026 23.6872C54.2621 23.6872 55.6458 16.0152 55.6354 16.0048C51.4122 16.0048 44.9689 16.0048 44.9689 16.0048C44.9689 16.0048 45.0825 18.008 42.026 18.008C38.9696 18.008 38.0609 14.2288 38.0609 11.8229C38.0609 9.4273 39.0832 5.52415 42.026 5.52415C44.9689 5.52415 45.0618 7.44475 45.0618 7.44475Z" fill="#E41B13"/>
        <path d="M73.3234 0.227051L73.3337 7.18663H66.8697V0.227051H57.876V23.1503H66.8697V12.6386H73.3234V23.1503H82.3274V0.227051H73.3234Z" fill="#E41B13"/>
        <path d="M107.027 6.42267V0.206543H93.9649H93.9546H84.8369V23.1504H85.3325H107.027V16.9446H93.9546L93.9649 14.7349H104.673V8.91118L93.9546 8.92151V6.42267H107.027Z" fill="#E41B13"/>
        <path d="M132.51 6.42267V0.206543H119.438H110.32V23.1504H110.816H132.51V16.9446H119.438V14.7349H130.156V8.92151H119.438V6.42267H132.51Z" fill="#E41B13"/>
        <path d="M144.189 0.206615L135.071 0.196289V23.1505H135.567H154.298V16.9447H144.189V0.206615Z" fill="#E41B13"/>
        <path d="M184.099 20.8168C184.181 20.6309 184.284 20.476 184.429 20.3418C184.563 20.2076 184.728 20.1043 184.904 20.032C185.09 19.9598 185.286 19.9185 185.482 19.9185C185.689 19.9185 185.885 19.9494 186.071 20.032C186.246 20.1043 186.412 20.2179 186.546 20.3418C186.68 20.476 186.794 20.6309 186.866 20.8168C186.948 21.0027 186.99 21.1989 186.99 21.4054C186.99 21.6222 186.948 21.8184 186.866 22.0043C186.783 22.1901 186.68 22.345 186.546 22.4793C186.412 22.6135 186.246 22.7167 186.071 22.7994C185.885 22.8716 185.699 22.9129 185.493 22.9129C185.286 22.9129 185.09 22.8716 184.904 22.7994C184.728 22.7271 184.563 22.6238 184.429 22.4896C184.295 22.3553 184.181 22.1901 184.099 22.0146C184.016 21.8287 183.975 21.6325 183.975 21.4157C183.975 21.1989 184.016 21.013 184.099 20.8271M184.346 21.9113C184.408 22.0662 184.491 22.2005 184.604 22.314C184.718 22.4276 184.842 22.5206 184.997 22.5825C185.152 22.6445 185.307 22.6858 185.482 22.6858C185.658 22.6858 185.823 22.6548 185.967 22.5825C186.122 22.5206 186.246 22.4276 186.36 22.314C186.473 22.1901 186.556 22.0662 186.618 21.9113C186.68 21.7564 186.711 21.5809 186.711 21.4054C186.711 21.2298 186.68 21.0543 186.618 20.8994C186.556 20.7445 186.473 20.6103 186.36 20.4967C186.246 20.3831 186.112 20.2902 185.967 20.2282C185.813 20.1663 185.658 20.125 185.482 20.125C185.307 20.125 185.141 20.1559 184.987 20.2179C184.832 20.2799 184.708 20.3728 184.584 20.4864C184.481 20.6 184.388 20.7342 184.326 20.8891C184.264 21.044 184.222 21.2092 184.233 21.3847C184.233 21.5706 184.264 21.7358 184.326 21.8907M185.585 20.538C185.792 20.538 185.947 20.5793 186.04 20.6619C186.143 20.7445 186.195 20.8684 186.195 21.0336C186.195 21.1885 186.153 21.3021 186.071 21.3744C185.978 21.4467 185.875 21.488 185.74 21.4983L186.236 22.2727H185.947L185.472 21.519H185.183V22.2727H184.914V20.538H185.596H185.585ZM185.462 21.3124C185.523 21.3124 185.585 21.3124 185.637 21.3124C185.689 21.3124 185.74 21.2918 185.782 21.2815C185.823 21.2608 185.864 21.2402 185.885 21.1989C185.916 21.1576 185.926 21.1059 185.926 21.044C185.926 20.982 185.926 20.9407 185.895 20.9097C185.875 20.8788 185.844 20.8478 185.802 20.8271C185.771 20.8168 185.72 20.7961 185.678 20.7858C185.637 20.7858 185.585 20.7858 185.544 20.7755H185.183V21.3331H185.472L185.462 21.3124Z" fill="#E41B13"/>
    </g>
    <defs>
        <clipPath id="clip0_229_1132">
            <rect width="187" height="23.6874" fill="white"/>
        </clipPath>
    </defs>
</svg>
