<svg width="187" height="71" viewBox="0 0 187 71" fill="none" xmlns="http://www.w3.org/2000/svg">
    <g clip-path="url(#clip0_225_934)">
        <path d="M36.5389 61.6428C37.5424 59.4307 36.1649 58.5743 32.896 58.5743L27.4309 58.5789C26.2425 58.576 25.9921 58.4814 26.2568 57.9087L26.6497 57.0569C26.8897 56.5043 27.2397 56.3975 28.4302 56.3963L35.5896 56.3933C37.0679 56.3916 37.692 56.5866 38.4908 56.8942L39.201 53.8732L24.9201 53.8753C22.1962 53.8737 20.0808 55.1087 18.9991 57.4914L17.4632 60.8914C16.279 63.427 17.1295 64.1818 20.1913 64.1826L26.4716 64.1843C27.673 64.183 27.8701 64.3024 27.6154 64.8537L27.1368 65.898C26.8872 66.4636 26.577 66.5569 25.3823 66.5586H17.9427C16.4105 66.5577 15.8054 66.2749 15.1831 65.9917L14.417 69.0892L28.3126 69.0858C32.0093 69.0833 33.7385 67.7453 34.8315 65.3609L36.5389 61.6423M73.8153 62.4614C75.595 62.4601 76.3766 62.6795 77.1137 62.8698L78.6383 59.5501C77.7243 59.7282 76.7502 59.9467 74.9785 59.9451L69.482 59.9446L71.1225 56.3895L77.3839 56.3858C79.1955 56.3891 79.9763 56.5925 80.7133 56.7896L81.4256 53.8665L63.9413 53.8648C64.0586 54.4657 64.0308 55.0297 63.3765 56.4732L58.8133 66.459C58.3969 67.3595 58.0405 67.9142 57.6758 68.3554C57.2097 67.5478 56.866 66.6271 56.6403 65.9639L54.1837 58.3562L59.2827 55.368C60.7367 54.5048 61.5347 54.2477 62.6214 53.8648L55.5788 53.8682C55.5221 54.0632 55.4792 54.2481 55.3927 54.4372C55.1607 54.9461 54.7855 55.315 53.5651 56.0866L46.1788 60.696L48.1035 56.4757C48.7632 55.028 49.2805 54.4679 49.9323 53.8657L40.9596 53.8716C41.0803 54.47 41.0668 55.0305 40.4028 56.4757L35.8396 66.4653C35.1811 67.9096 34.6735 68.471 34.0163 69.0862L42.9704 69.087C42.8771 68.4718 42.878 67.9058 43.5314 66.4636L44.5841 64.1818L47.1189 62.6324L48.6838 69.0824L74.7701 69.0761L76.809 66.1459C75.9303 66.3316 74.9512 66.548 73.1636 66.5493H66.4631L68.3423 62.4618L73.8149 62.4605M96.8819 65.3819C96.8819 65.3819 94.4463 65.9518 91.3866 65.9509C91.3866 65.9509 88.3992 65.9589 87.7807 65.9501C86.999 65.9459 86.7599 65.7311 87.0562 64.9836C87.3504 64.2351 90.326 57.8397 90.326 57.8397C90.4306 57.609 90.8033 56.9774 91.7627 56.9774L97.4206 56.9791C98.828 56.9753 100.091 57.4514 100.091 57.4514L100.99 53.9514L100.945 53.9552L100.971 53.861L88.8468 53.8627C85.5501 53.8627 83.1826 55.049 81.679 58.3356L78.8164 64.6058C77.3124 67.8722 78.6109 69.0765 81.8828 69.0765L94.3303 69.0715L96.8823 65.3819M118.902 66.4468L123.472 56.4593C124.125 55.0175 124.645 54.4552 125.286 53.8543L116.326 53.8585C116.435 54.4565 116.43 55.0175 115.764 56.461L114.182 59.9404L108.43 59.9396L110.027 56.4639C110.696 55.015 111.199 54.4544 111.859 53.8573L102.891 53.8623C103.002 54.459 102.991 55.0171 102.315 56.4652L97.7597 66.4548C97.092 67.8907 96.5819 68.4634 95.9187 69.0719L104.888 69.0686C104.785 68.4613 104.789 67.8928 105.465 66.4518L107.294 62.4559L113.029 62.453L111.205 66.4506C110.543 67.8902 110.03 68.458 109.377 69.069L118.331 69.0677C118.224 68.4588 118.237 67.8894 118.903 66.4459M135.069 66.5375L128.389 66.5363L130.25 62.4513L135.742 62.45C137.501 62.4471 138.301 62.6652 139.029 62.8547L140.552 59.5379C139.634 59.719 138.664 59.9358 136.906 59.9346L131.4 59.9337L133.036 56.3736L139.31 56.3723C141.122 56.374 141.897 56.5807 142.636 56.7745L143.338 53.8518L125.863 53.856C125.966 54.4557 125.954 55.0167 125.287 56.4639L120.733 66.4464C120.063 67.8898 119.544 68.458 118.903 69.0665L136.69 69.0631L138.726 66.1333C137.863 66.3249 136.865 66.5413 135.069 66.5375ZM157.726 57.2195L156.889 59.0777C156.553 59.8139 156.215 59.9312 155.218 59.932L150.869 59.9333L152.52 56.374L156.852 56.3706C157.838 56.3685 158.074 56.4803 157.725 57.2195H157.726ZM159.946 62.4454C161.634 62.3597 163.137 62.2374 164.165 60.006L165.438 57.2044C166.603 54.6544 165.269 53.848 161.739 53.848L145.141 53.851C145.436 54.4531 145.427 55.0104 144.759 56.4601L140.199 66.4468C139.539 67.8886 139.034 68.4538 138.362 69.0648L147.328 69.0627C147.224 68.4538 147.231 67.8852 147.892 66.4447L149.712 62.4496L152.086 62.4458L152.719 69.0614L161.332 69.0627C160.919 68.4849 160.91 67.6961 160.734 66.7262L159.946 62.4454M174.239 57.0291C174.498 56.4761 174.831 56.3656 176.039 56.3626L183.192 56.3647C184.68 56.3668 185.28 56.561 186.089 56.8661L187.082 53.8388L172.507 53.8472C169.791 53.8463 167.688 55.0797 166.594 57.4632L165.061 60.8633C163.883 63.401 164.735 64.1561 167.791 64.1561L174.072 64.1545C175.264 64.1532 175.479 64.2713 175.216 64.8276L174.737 65.8702C174.489 66.435 174.187 66.5304 172.967 66.5321L165.534 66.5338C164.031 66.5338 163.395 66.248 162.769 65.9652L162.025 69.0602L175.903 69.0581C179.606 69.056 181.339 67.7125 182.436 65.3277L184.137 61.6133C185.151 59.4017 183.776 58.5457 180.491 58.5474L175.028 58.5482C173.824 58.5474 173.581 58.4566 173.849 57.8801L174.238 57.0295M184.534 68.7122H184.9C185.185 68.7122 185.315 68.6303 185.315 68.4664C185.315 68.2966 185.193 68.221 184.934 68.221H184.534V68.7122ZM184.981 67.9772C185.39 67.9772 185.61 68.1403 185.61 68.4433C185.61 68.5908 185.567 68.6706 185.431 68.7878L185.438 68.8681L185.512 68.9568C185.527 68.974 185.536 69.0059 185.551 69.0614C185.567 69.1012 185.576 69.1434 185.578 69.1862L185.593 69.3009L185.602 69.4064L185.61 69.4732C185.61 69.5048 185.61 69.5123 185.642 69.6111H185.349C185.315 69.5363 185.308 69.5203 185.298 69.3413C185.276 68.9988 185.225 68.9408 184.9 68.9408H184.541V69.6031H184.231V67.9772H184.981M183.594 68.811C183.594 69.53 184.183 70.1174 184.909 70.1174C185.255 70.1157 185.586 69.9774 185.83 69.7327C186.074 69.488 186.212 69.1567 186.213 68.811C186.213 68.0831 185.632 67.5032 184.909 67.5032C184.183 67.5032 183.594 68.0831 183.594 68.811ZM186.505 68.811C186.505 69.6846 185.789 70.3944 184.909 70.3944C184.019 70.3944 183.302 69.6846 183.302 68.811C183.302 67.9289 184.019 67.2162 184.909 67.2162C185.332 67.2163 185.738 67.3843 186.037 67.6833C186.336 67.9823 186.505 68.3879 186.505 68.811Z" fill="#062849"/>
        <path d="M92.5456 16.3627L90.9038 19.3093H85.7989C88.3971 21.2608 89.0972 24.2331 89.0989 25.9778C89.1035 28.05 88.4097 30.3545 87.0549 32.8397C82.1719 41.7695 77.0615 44.8535 66.013 45.5292L65.9659 45.5326C60.753 45.7717 52.9369 45.7717 44.9635 45.7717C36.9902 45.7717 25.0957 45.7553 22.4159 45.6217C17.1577 45.362 12.8651 44.6409 10.8341 41.2992C8.7288 37.8366 10.2975 33.7953 11.1749 32.0925C11.6716 31.1289 13.4076 27.9974 13.4076 27.9974H21.1259C17.3438 25.6358 15.6125 20.501 18.3801 15.0512C21.5721 8.76333 25.0083 4.46275 33.1997 2.92809C38.1332 1.97292 49.5818 1.9767 54.4703 1.9767L80.4145 2.07041C83.9679 2.10739 91.2563 2.24144 93.8651 7.49635C95.475 10.7388 93.921 13.9703 92.5456 16.3627ZM102.246 5.46582C99.7814 1.80273 94.6379 0.0865279 86.4927 0.0865279C78.0848 0.0865279 58.6254 0.000802055 53.136 0.000802055C47.4239 0.000802055 35.1038 -0.0714765 28.5269 1.10683C18.6024 2.88354 13.2706 8.45782 10.6837 13.9989C8.87294 17.8767 7.33954 24.2364 11.3678 28.0642H4.569C4.569 28.0642 2.65656 30.8121 1.61272 32.7951C-0.405201 36.6318 -0.90737 41.1526 2.33172 44.0341C4.71019 46.1482 9.48437 47.7152 16.047 47.7152L64.3964 47.7207C82.0895 47.7207 88.5963 43.9517 94.6055 34.2546C96.2763 31.5593 99.7814 24.0175 93.0591 19.5572H99.3221L101.512 15.7113C104.019 11.341 104.297 8.51245 102.247 5.46624" fill="#B2B1B1"/>
        <path d="M36.5436 30.4608L36.2809 31.0865C34.8265 34.4681 38.922 34.4408 41.8703 34.458L57.2724 34.3277C60.4052 34.2193 63.2585 34.2403 64.689 31.1197C66.0391 28.1622 62.7488 27.8895 59.737 27.8895C59.737 27.8895 42.2116 27.9891 34.8122 27.5046C26.0804 27.0129 24.8243 23.7818 27.9563 16.9342C30.4394 11.5116 33.3721 7.78971 41.2972 6.30715C46.6344 5.2713 56.9846 5.21457 62.25 5.21457L71.9118 5.32341C77.4962 5.37762 83.7621 5.43225 85.061 9.76098C85.5909 11.8924 84.3685 14.4141 83.3856 16.7178H69.7775C70.8234 13.9758 69.0463 13.3732 66.0194 13.2665C61.6793 13.1825 53.6392 13.2199 48.6166 13.4829C46.1045 13.5951 43.3046 14.0305 42.3032 16.2215C40.6714 19.7817 45.7742 19.393 48.8591 19.5031L67.1237 19.6716C77.7235 19.6716 83.1936 21.3138 78.856 30.7911C74.7458 39.7701 69.0727 41.4165 58.2398 42.0687C50.6635 42.4872 38.3186 42.5923 31.7887 42.2914C23.2342 41.8977 18.0297 40.9761 21.8395 32.6527L22.843 30.4608H36.5436Z" fill="#062849"/>
    </g>
    <defs>
        <clipPath id="clip0_225_934">
            <rect width="187" height="70.5978" fill="white"/>
        </clipPath>
    </defs>
</svg>
