<svg width="187" height="54" viewBox="0 0 187 54" fill="none" xmlns="http://www.w3.org/2000/svg">
    <mask id="mask0_220_247" style="mask-type:luminance" maskUnits="userSpaceOnUse" x="0" y="0" width="29" height="37">
        <path d="M28.2668 0.255432H0.255371V36.2701H28.2668V0.255432Z" fill="white"/>
    </mask>
    <g mask="url(#mask0_220_247)">
        <mask id="mask1_220_247" style="mask-type:luminance" maskUnits="userSpaceOnUse" x="0" y="0" width="29" height="37">
            <path d="M28.3445 0H0V36.2701H28.3445V0Z" fill="white"/>
        </mask>
        <g mask="url(#mask1_220_247)">
            <mask id="mask2_220_247" style="mask-type:luminance" maskUnits="userSpaceOnUse" x="0" y="0" width="29" height="37">
                <path d="M28.3445 0H0V36.2701H28.3445V0Z" fill="white"/>
            </mask>
            <g mask="url(#mask2_220_247)">
                <mask id="mask3_220_247" style="mask-type:luminance" maskUnits="userSpaceOnUse" x="0" y="0" width="29" height="37">
                    <path d="M28.3445 0H0V36.2701H28.3445V0Z" fill="white"/>
                </mask>
                <g mask="url(#mask3_220_247)">
                    <mask id="mask4_220_247" style="mask-type:luminance" maskUnits="userSpaceOnUse" x="0" y="0" width="29" height="37">
                        <path d="M28.3445 0H0V36.2701H28.3445V0Z" fill="white"/>
                    </mask>
                    <g mask="url(#mask4_220_247)">
                        <path d="M5.64193 21.5983C5.64193 22.7778 5.84226 23.7819 6.24543 24.6158C6.63357 25.4397 7.1945 26.1208 7.92571 26.6642C8.6444 27.1951 9.46827 27.5832 10.4048 27.8286C11.3364 28.0715 12.3505 28.1942 13.4424 28.1942C14.6193 28.1942 15.626 28.059 16.4599 27.7861C17.2937 27.5131 17.9674 27.1625 18.4857 26.7293C19.0016 26.2986 19.3772 25.8028 19.6076 25.2418C19.8355 24.6984 19.9506 24.13 19.9506 23.539C19.9506 22.3621 19.6852 21.4906 19.1543 20.9322C18.6209 20.3713 18.04 19.9781 17.4089 19.7452C16.3171 19.3446 15.045 18.9614 13.5951 18.6033C11.8021 18.1551 10.0142 17.6893 8.22871 17.201C6.90652 16.858 5.8072 16.4022 4.93075 15.8438C4.05429 15.2853 3.35814 14.6593 2.83978 13.9707C2.32393 13.2795 1.95582 12.5483 1.74046 11.772C1.5251 10.9957 1.41492 10.2069 1.41742 9.40059C1.41742 7.85052 1.74046 6.50579 2.38653 5.37141C3.02759 4.23703 3.88151 3.29547 4.95078 2.54923C6.01504 1.80299 7.22205 1.24958 8.57178 0.888978C9.91401 0.530885 11.2763 0.350586 12.6661 0.350586C14.2762 0.350586 15.7912 0.55843 17.2136 0.976624C18.636 1.39231 19.8855 2.01835 20.9623 2.84973C22.0466 3.68612 22.9005 4.71282 23.5266 5.93234C24.1576 7.15436 24.4756 8.56921 24.4756 10.1769H19.0867C18.944 8.19359 18.2679 6.79377 17.0609 5.97491C15.8539 5.15605 14.3163 4.74537 12.4482 4.74537C11.8172 4.74537 11.1686 4.81048 10.51 4.9407C9.87394 5.06089 9.27044 5.27625 8.69949 5.58677C8.14858 5.88977 7.69783 6.29794 7.34224 6.8138C6.98165 7.33216 6.80385 7.97823 6.80385 8.75452C6.80385 9.84633 7.14191 10.7002 7.81553 11.3188C8.49165 11.9373 9.37311 12.4031 10.4649 12.7211C10.5801 12.7486 11.0334 12.8713 11.8222 13.0867C12.6135 13.3021 13.4949 13.5399 14.4716 13.7979C15.4482 14.0558 16.4048 14.3087 17.3388 14.5516C18.0099 14.7244 18.676 14.9047 19.3421 15.09C20.3488 15.4055 21.2228 15.8363 21.9715 16.3822C22.6977 16.9055 23.3237 17.5316 23.8471 18.2578C24.3454 18.9514 24.7185 19.7052 24.9665 20.5215C25.2119 21.3254 25.3321 22.1317 25.3321 22.9355C25.3321 24.6584 24.979 26.1333 24.2753 27.3554C23.5842 28.5699 22.6551 29.569 21.4957 30.3503C20.3488 31.1266 19.0416 31.695 17.5742 32.0531C16.1018 32.4137 14.6068 32.594 13.0918 32.5915C11.3389 32.5915 9.68613 32.3762 8.13606 31.9455C6.58599 31.5147 5.23375 30.8537 4.08434 29.9622C2.93494 29.0732 2.01591 27.9313 1.32727 26.5365C0.636128 25.1417 0.278034 23.499 0.250488 21.6008H5.63692" fill="#242B2D"/>
                    </g>
                </g>
                <mask id="mask5_220_247" style="mask-type:luminance" maskUnits="userSpaceOnUse" x="0" y="0" width="29" height="37">
                    <path d="M28.3445 0H0V36.2701H28.3445V0Z" fill="white"/>
                </mask>
                <g mask="url(#mask5_220_247)">
                    <mask id="mask6_220_247" style="mask-type:luminance" maskUnits="userSpaceOnUse" x="0" y="0" width="29" height="37">
                        <path d="M28.3445 0H0V36.2701H28.3445V0Z" fill="white"/>
                    </mask>
                    <g mask="url(#mask6_220_247)">
                        <path d="M5.64193 21.5983C5.64193 22.7778 5.84226 23.7819 6.24543 24.6158C6.63357 25.4397 7.1945 26.1208 7.92571 26.6642C8.6444 27.1951 9.46827 27.5832 10.4048 27.8286C11.3364 28.0715 12.3505 28.1942 13.4424 28.1942C14.6193 28.1942 15.626 28.059 16.4599 27.7861C17.2937 27.5131 17.9674 27.1625 18.4857 26.7293C19.0016 26.2986 19.3772 25.8028 19.6076 25.2418C19.8355 24.6984 19.9506 24.13 19.9506 23.539C19.9506 22.3621 19.6852 21.4906 19.1543 20.9322C18.6209 20.3713 18.04 19.9781 17.4089 19.7452C16.3171 19.3446 15.045 18.9614 13.5951 18.6033C11.8021 18.1551 10.0142 17.6893 8.22871 17.201C6.90652 16.858 5.8072 16.4022 4.93075 15.8438C4.05429 15.2853 3.35814 14.6593 2.83978 13.9707C2.32393 13.2795 1.95582 12.5483 1.74046 11.772C1.5251 10.9957 1.41492 10.2069 1.41742 9.40059C1.41742 7.85052 1.74046 6.50579 2.38653 5.37141C3.02759 4.23703 3.88151 3.29547 4.95078 2.54923C6.01504 1.80299 7.22205 1.24958 8.57178 0.888978C9.91401 0.530885 11.2763 0.350586 12.6661 0.350586C14.2762 0.350586 15.7912 0.55843 17.2136 0.976624C18.636 1.39231 19.8855 2.01835 20.9623 2.84973C22.0466 3.68612 22.9005 4.71282 23.5266 5.93234C24.1576 7.15436 24.4756 8.56921 24.4756 10.1769H19.0867C18.944 8.19359 18.2679 6.79377 17.0609 5.97491C15.8539 5.15605 14.3163 4.74537 12.4482 4.74537C11.8172 4.74537 11.1686 4.81048 10.51 4.9407C9.87394 5.06089 9.27044 5.27625 8.69949 5.58677C8.14858 5.88977 7.69783 6.29794 7.34224 6.8138C6.98165 7.33216 6.80385 7.97823 6.80385 8.75452C6.80385 9.84633 7.14191 10.7002 7.81553 11.3188C8.49165 11.9373 9.37311 12.4031 10.4649 12.7211C10.5801 12.7486 11.0334 12.8713 11.8222 13.0867C12.6135 13.3021 13.4949 13.5399 14.4716 13.7979C15.4482 14.0558 16.4048 14.3087 17.3388 14.5516C18.0099 14.7244 18.676 14.9047 19.3421 15.09C20.3488 15.4055 21.2228 15.8363 21.9715 16.3822C22.6977 16.9055 23.3237 17.5316 23.8471 18.2578C24.3454 18.9514 24.7185 19.7052 24.9665 20.5215C25.2119 21.3254 25.3321 22.1317 25.3321 22.9355C25.3321 24.6584 24.979 26.1333 24.2753 27.3554C23.5842 28.5699 22.6551 29.569 21.4957 30.3503C20.3488 31.1266 19.0416 31.695 17.5742 32.0531C16.1018 32.4137 14.6068 32.594 13.0918 32.5915C11.3389 32.5915 9.68613 32.3762 8.13606 31.9455C6.58599 31.5147 5.23375 30.8537 4.08434 29.9622C2.93494 29.0732 2.01591 27.9313 1.32727 26.5365C0.636128 25.1417 0.278034 23.499 0.250488 21.6008H5.63692" fill="#242B2D"/>
                    </g>
                </g>
            </g>
        </g>
    </g>
    <mask id="mask7_220_247" style="mask-type:luminance" maskUnits="userSpaceOnUse" x="0" y="0" width="187" height="53">
        <path d="M187 0.255432H0.255371V52.9453H187V0.255432Z" fill="white"/>
    </mask>
    <g mask="url(#mask7_220_247)">
        <path d="M49.1338 45.4253C49.3818 45.1574 49.6697 44.937 49.9978 44.7642C50.3133 44.6014 50.6764 44.5188 51.0896 44.5188C51.4226 44.5188 51.7131 44.5739 51.9685 44.6841C52.2215 44.7943 52.4318 44.9495 52.6046 45.1524C52.7749 45.3552 52.9026 45.5981 52.9902 45.8811C53.0779 46.164 53.123 46.4771 53.123 46.8226V50.6915H52.0487V46.8226C52.0487 46.3644 51.9435 46.0063 51.7332 45.7534C51.5228 45.4979 51.2048 45.3702 50.7766 45.3702C50.461 45.3702 50.1656 45.4478 49.8926 45.5981C49.6196 45.7508 49.3667 45.9562 49.1338 46.2141V50.689H48.0596V41.8544H49.1338V45.4228M45.3275 50.7867C44.8467 50.7867 44.4786 50.6515 44.2207 50.3835C43.9628 50.1181 43.8326 49.7299 43.8326 49.2266V45.5079H43.1013C43.0412 45.5079 42.9862 45.4904 42.9386 45.4504C42.8935 45.4128 42.871 45.3527 42.871 45.2751V44.8468L43.8676 44.7216L44.113 42.8435C44.123 42.7834 44.1506 42.7359 44.1932 42.6958C44.2407 42.6557 44.2958 42.6357 44.3584 42.6382H44.8968V44.7292H46.6547V45.5029H44.8968V49.149C44.8968 49.4069 44.9594 49.5947 45.0846 49.7199C45.2073 49.8426 45.3676 49.9052 45.5629 49.9052C45.6756 49.9052 45.7733 49.8927 45.8534 49.8602C45.936 49.8301 46.0087 49.7976 46.0663 49.7625C46.1264 49.7249 46.1764 49.6924 46.219 49.6623C46.2516 49.6348 46.2891 49.6198 46.3292 49.6173C46.3843 49.6173 46.4344 49.6498 46.4794 49.7199L46.79 50.2283C46.6072 50.4011 46.3843 50.5363 46.1239 50.6339C45.8659 50.7316 45.5955 50.7792 45.3225 50.7792M36.2049 50.6915V45.528L35.5338 45.4504C35.4587 45.4328 35.3886 45.4028 35.326 45.3577C35.2734 45.3151 35.2458 45.255 35.2458 45.1749V44.7367H36.2049V44.1482C36.2049 43.8001 36.2525 43.4921 36.3527 43.2217C36.4528 42.9512 36.5906 42.7258 36.7734 42.538C36.9562 42.3527 37.174 42.21 37.4294 42.1148C37.7074 42.0147 37.9954 41.9671 38.2934 41.9696C38.5638 41.9696 38.8167 42.0096 39.0421 42.0898L39.0196 42.6232C39.0121 42.7183 38.9595 42.7709 38.8618 42.7784C38.7291 42.7884 38.5989 42.7909 38.4687 42.7909C38.2859 42.7909 38.1181 42.8135 37.9678 42.8636C37.8201 42.9086 37.6899 42.9863 37.5797 43.0964C37.462 43.2192 37.3794 43.3594 37.3318 43.5247C37.2742 43.6999 37.2441 43.9178 37.2441 44.1782V44.7342H38.9945V45.5079H37.2792V50.689H36.2074M31.4019 44.5213C31.8452 44.5213 32.2458 44.5939 32.6014 44.7417C32.957 44.8894 33.26 45.0998 33.5129 45.3727C33.7659 45.6432 33.9562 45.9737 34.0914 46.3594C34.2266 46.745 34.2917 47.1757 34.2917 47.6515C34.2917 48.1273 34.2241 48.563 34.0914 48.9461C33.9687 49.3143 33.7759 49.6423 33.5129 49.9303C33.255 50.2082 32.952 50.4161 32.6014 50.5563C32.2458 50.7016 31.8452 50.7767 31.4019 50.7767C30.9587 50.7767 30.5505 50.7041 30.1924 50.5563C29.8419 50.4161 29.5364 50.2082 29.2784 49.9303C29.018 49.6423 28.8227 49.3143 28.7 48.9461C28.5647 48.563 28.4996 48.1298 28.4996 47.6515C28.4996 47.1732 28.5672 46.745 28.7 46.3594C28.8327 45.9737 29.0255 45.6432 29.2784 45.3727C29.5364 45.0948 29.8419 44.8869 30.1924 44.7417C30.5505 44.5939 30.9537 44.5213 31.4019 44.5213ZM31.4019 49.9428C32.0004 49.9428 32.4487 49.7425 32.7467 49.3393C33.0422 48.9361 33.1899 48.3752 33.1899 47.6565C33.1899 46.9378 33.0422 46.3694 32.7467 45.9637C32.4512 45.5605 32.0029 45.3602 31.4019 45.3602C31.0989 45.3602 30.8335 45.4128 30.6081 45.5155C30.3828 45.6181 30.1949 45.7684 30.0447 45.9637C29.8844 46.1816 29.7717 46.4245 29.7091 46.6874C29.6315 47.0054 29.594 47.3285 29.599 47.6565C29.599 48.3752 29.7492 48.9361 30.0472 49.3393C30.3452 49.7425 30.7984 49.9428 31.4045 49.9428M22.7351 50.7867C22.2543 50.7867 21.8862 50.6515 21.6282 50.3835C21.3703 50.1181 21.2401 49.7299 21.2401 49.2266V45.5079H20.5089C20.4488 45.5079 20.3937 45.4904 20.3486 45.4504C20.3036 45.4128 20.281 45.3527 20.281 45.2751V44.8468L21.2777 44.7216L21.5231 42.8435C21.5431 42.7008 21.6257 42.6332 21.7685 42.6407H22.3069V44.7317H24.0648V45.5054H22.3069V49.1515C22.3069 49.4094 22.3695 49.5972 22.4922 49.7224C22.6174 49.8451 22.7777 49.9077 22.973 49.9077C23.0857 49.9077 23.1808 49.8952 23.2635 49.8627C23.3461 49.8326 23.4162 49.8001 23.4763 49.765C23.5364 49.7274 23.5865 49.6949 23.6291 49.6648C23.6616 49.6373 23.6967 49.6223 23.7392 49.6198C23.7943 49.6198 23.8444 49.6523 23.8895 49.7224L24.2 50.2308C24.0172 50.4036 23.7943 50.5388 23.5339 50.6364C23.2735 50.7341 23.0055 50.7817 22.7301 50.7817M17.2184 45.8335C17.4113 45.4178 17.6466 45.0923 17.9271 44.8594C18.2076 44.624 18.5481 44.5088 18.9538 44.5088C19.0815 44.5088 19.2042 44.5213 19.3219 44.5489C19.4396 44.5764 19.5448 44.6215 19.6374 44.6816L19.5598 45.4804C19.5348 45.5806 19.4747 45.6306 19.3795 45.6306C19.3244 45.6306 19.2418 45.6181 19.1341 45.5931C19.0139 45.568 18.8912 45.5555 18.7685 45.558C18.5757 45.558 18.4054 45.5856 18.2552 45.6407C18.1049 45.6983 17.9722 45.7809 17.852 45.8911C17.7268 46.0113 17.6191 46.1465 17.534 46.2968C17.4413 46.4595 17.3537 46.6448 17.2785 46.8527V50.6915H16.2043V44.6165H16.8153C16.9305 44.6165 17.0106 44.639 17.0557 44.6816C17.0982 44.7266 17.1283 44.8018 17.1458 44.9095L17.2184 45.8335ZM9.78862 45.4729C10.1041 45.1624 10.4647 44.9195 10.8729 44.7492C11.2886 44.5814 11.7168 44.5038 12.1626 44.5088C12.5031 44.5088 12.8036 44.5639 13.0691 44.6766C13.332 44.7893 13.5549 44.9445 13.7352 45.1448C13.9155 45.3427 14.0507 45.5856 14.1433 45.8685C14.236 46.1515 14.2811 46.4645 14.2811 46.8026V50.689H13.8078C13.7226 50.694 13.6425 50.6765 13.5674 50.639C13.5098 50.6039 13.4672 50.5388 13.4347 50.4386L13.3145 49.8627C13.1667 50.0029 13.0115 50.1331 12.8462 50.2558C12.5407 50.4862 12.2026 50.6415 11.8295 50.7241C11.6217 50.7667 11.4088 50.7867 11.196 50.7842C10.9606 50.7842 10.7377 50.7516 10.5298 50.6865C10.3295 50.6239 10.1467 50.5263 9.98645 50.391C9.82618 50.2508 9.70598 50.083 9.62084 49.8902C9.53069 49.6874 9.48562 49.4495 9.48562 49.174C9.48562 48.9336 9.55323 48.7032 9.68345 48.4829C9.81617 48.26 10.029 48.0622 10.3245 47.8919C10.62 47.7191 11.0056 47.5789 11.4814 47.4687C11.9572 47.3585 12.5407 47.2934 13.2318 47.2809V46.8051C13.2318 46.3343 13.1292 45.9762 12.9263 45.7333C12.7235 45.4929 12.423 45.3702 12.0323 45.3702C11.7694 45.3702 11.5465 45.4028 11.3687 45.4704C11.1909 45.538 11.0382 45.6106 10.908 45.6908C10.7928 45.7634 10.6826 45.836 10.5724 45.9111C10.4898 45.9737 10.3971 46.0063 10.292 46.0113C10.2243 46.0113 10.1617 45.9937 10.1066 45.9537C10.0541 45.9136 10.009 45.8685 9.97643 45.8135L9.78361 45.4704L9.78862 45.4729ZM13.2368 47.957C12.746 47.972 12.3253 48.0096 11.9798 48.0722C11.6342 48.1348 11.3512 48.2149 11.1359 48.3176C10.918 48.4153 10.7602 48.5355 10.6601 48.6707C10.5624 48.8059 10.5123 48.9587 10.5123 49.1264C10.5123 49.2942 10.5399 49.4244 10.5899 49.5421C10.6425 49.6573 10.7127 49.7525 10.8028 49.8251C10.893 49.9002 10.9981 49.9528 11.1208 49.9879C11.241 50.0204 11.3737 50.038 11.514 50.038C11.7018 50.038 11.8746 50.0179 12.0298 49.9829C12.1851 49.9453 12.3303 49.8902 12.4706 49.8176C12.6083 49.745 12.7385 49.6598 12.8662 49.5597C12.9939 49.4595 13.1141 49.3468 13.2343 49.2166V47.957H13.2368ZM3.94143 45.558C4.18934 45.2475 4.48483 44.9946 4.8279 44.7968C5.16345 44.6039 5.54659 44.5088 5.97981 44.5088C6.33039 44.5088 6.64841 44.5764 6.93389 44.7091C7.21686 44.8443 7.45976 45.0397 7.65759 45.3026C7.85792 45.563 8.01067 45.8886 8.12086 46.2767C8.22853 46.6649 8.28363 47.1106 8.28363 47.6139C8.28363 48.0622 8.22353 48.4779 8.10333 48.8635C7.99565 49.2316 7.82286 49.5647 7.58497 49.8652C7.35959 50.1481 7.08414 50.371 6.7586 50.5313C6.41052 50.699 6.04491 50.7792 5.65928 50.7742C5.28616 50.7742 4.96813 50.7091 4.70269 50.5864C4.43224 50.4587 4.19685 50.2834 3.99902 50.0605V52.7474H2.92725V44.6165H3.56831C3.71856 44.6165 3.81372 44.6891 3.84877 44.8368L3.94644 45.5555L3.94143 45.558ZM3.99652 49.2291C4.19184 49.492 4.4047 49.6799 4.63758 49.7875C4.88549 49.9002 5.14592 49.9528 5.41637 49.9478C5.98481 49.9478 6.42054 49.7475 6.72354 49.3443C7.02654 48.9386 7.17929 48.3652 7.17929 47.6164C7.17929 47.2208 7.14674 46.8802 7.07412 46.5973C7.004 46.3143 6.90384 46.0814 6.77112 45.9011C6.64591 45.7233 6.48565 45.5906 6.28531 45.5029C6.07747 45.4153 5.8571 45.3727 5.63173 45.3752C5.28365 45.3752 4.97815 45.4554 4.71771 45.6156C4.45478 45.7759 4.21438 46.0013 3.99401 46.2942V49.2316L3.99652 49.2291ZM170.235 21.9839C170.235 22.8454 170.355 23.6793 170.6 24.4856C170.843 25.2894 171.211 25.9931 171.7 26.5966C172.188 27.2001 172.806 27.6834 173.553 28.0415C174.299 28.4021 175.19 28.5799 176.225 28.5799C177.659 28.5799 178.816 28.2719 179.693 27.6533C180.569 27.0373 181.223 26.1108 181.654 24.8737H186.311C186.051 26.0807 185.605 27.1575 184.974 28.1066C184.358 29.0406 183.594 29.8395 182.69 30.4981C181.776 31.1592 180.777 31.6475 179.695 31.9655C178.563 32.3011 177.406 32.4638 176.227 32.4613C174.474 32.4613 172.922 32.1733 171.572 31.5999C170.222 31.0264 169.08 30.2201 168.146 29.1859C167.212 28.1492 166.508 26.9146 166.035 25.4772C165.559 24.0424 165.324 22.4597 165.324 20.7369C165.324 19.1568 165.574 17.6543 166.078 16.2319C166.581 14.8096 167.297 13.56 168.234 12.4832C169.18 11.3914 170.31 10.5375 171.617 9.91895C172.939 9.2879 174.434 8.96988 176.099 8.96988C177.852 8.96988 179.425 9.33548 180.82 10.0692C182.212 10.8004 183.369 11.772 184.29 12.979C185.209 14.186 185.878 15.5708 186.294 17.1384C186.709 18.7035 186.817 20.3212 186.617 21.9865H170.24L170.235 21.9839ZM181.699 18.7536C181.644 17.9823 181.478 17.2361 181.205 16.5124C180.93 15.7937 180.557 15.1702 180.083 14.6368C179.595 14.0934 179.019 13.6602 178.361 13.3421C177.684 13.0116 176.931 12.8463 176.097 12.8463C175.263 12.8463 174.452 12.9966 173.748 13.2996C173.057 13.5875 172.453 14.0057 171.937 14.5491C171.419 15.1 171.018 15.7261 170.73 16.4247C170.422 17.1685 170.255 17.9448 170.235 18.7511H181.699V18.7536ZM152.435 9.57338H157.048V13.883H157.133C157.276 13.2795 157.556 12.691 157.974 12.1151C158.407 11.5241 158.911 10.9982 159.482 10.5425C160.078 10.0642 160.731 9.68356 161.443 9.40059C162.146 9.11512 162.882 8.97238 163.641 8.96988C164.215 8.96988 164.61 8.9849 164.826 9.01245C165.041 9.03999 165.264 9.07004 165.494 9.09759V13.8379C165.144 13.7804 164.791 13.7303 164.437 13.6877C164.087 13.6451 163.734 13.6226 163.383 13.6226C162.549 13.6226 161.768 13.7879 161.034 14.1184C160.283 14.4615 159.642 14.9498 159.116 15.5833C158.57 16.2294 158.14 17.0282 157.824 17.9773C157.506 18.9264 157.348 20.0157 157.348 21.2527V31.8553H152.435V9.57338ZM137.523 32.4588C135.742 32.4588 134.155 32.1633 132.762 31.5748C131.368 30.9864 130.191 30.175 129.229 29.1408C128.265 28.1066 127.534 26.8695 127.03 25.4322C126.527 23.9973 126.274 22.4147 126.274 20.6918C126.274 18.969 126.527 17.4314 127.03 15.994C127.534 14.5591 128.265 13.3221 129.229 12.2879C130.191 11.2537 131.368 10.4423 132.762 9.85384C134.155 9.26537 135.742 8.96988 137.523 8.96988C139.303 8.96988 140.893 9.26537 142.286 9.85384C143.681 10.4448 144.86 11.2562 145.822 12.2879C146.783 13.3221 147.517 14.5591 148.02 15.994C148.524 17.4314 148.774 18.9965 148.774 20.6918C148.774 22.3871 148.524 23.9973 148.02 25.4322C147.517 26.8695 146.786 28.1041 145.822 29.1408C144.86 30.175 143.681 30.9864 142.286 31.5748C140.893 32.1633 139.306 32.4588 137.523 32.4588ZM137.523 28.5799C138.615 28.5799 139.564 28.352 140.368 27.8912C141.166 27.4405 141.828 26.837 142.351 26.0807C142.882 25.3095 143.262 24.4681 143.493 23.5591C143.736 22.6275 143.858 21.6709 143.858 20.6943C143.858 19.7177 143.736 18.7987 143.493 17.8496C143.247 16.903 142.867 16.0591 142.351 15.3279C141.825 14.5842 141.164 13.9857 140.368 13.54C139.564 13.0817 138.615 12.8488 137.523 12.8488C136.431 12.8488 135.484 13.0792 134.681 13.54C133.884 13.9882 133.226 14.5842 132.697 15.3279C132.182 16.0591 131.798 16.903 131.555 17.8496C131.313 18.7811 131.19 19.7302 131.19 20.6943C131.19 21.6709 131.313 22.6275 131.555 23.5591C131.786 24.4681 132.166 25.3095 132.697 26.0807C133.221 26.837 133.882 27.4405 134.681 27.8912C135.484 28.352 136.431 28.5799 137.523 28.5799ZM111.147 9.57338H114.853V2.8923H119.766V9.57338H124.206V13.2369H119.766V25.1317C119.766 25.6475 119.788 26.0958 119.831 26.4689C119.874 26.842 119.974 27.1575 120.132 27.4155C120.289 27.6759 120.527 27.8687 120.843 27.9989C121.158 28.1291 121.589 28.1917 122.135 28.1917C122.483 28.1917 122.826 28.1842 123.169 28.1717C123.52 28.1567 123.865 28.1041 124.203 28.019V31.8127C123.657 31.8703 123.127 31.9279 122.611 31.9855C122.092 32.0431 121.559 32.0707 121.016 32.0707C119.721 32.0707 118.682 31.948 117.89 31.7051C117.099 31.4622 116.483 31.1016 116.037 30.6283C115.592 30.1525 115.289 29.5565 115.133 28.8403C114.975 28.1216 114.88 27.3028 114.853 26.3837V13.2395H111.147V9.57588M90.1143 21.5983C90.1143 22.7778 90.3146 23.7819 90.7178 24.6158C91.1059 25.4397 91.6643 26.1208 92.3981 26.6642C93.1168 27.1951 93.9431 27.5832 94.8747 27.8286C95.8087 28.0715 96.8204 28.1942 97.9147 28.1942C99.0942 28.1942 100.098 28.059 100.932 27.7861C101.766 27.5131 102.44 27.16 102.958 26.7293C103.476 26.2986 103.847 25.8028 104.077 25.2419C104.305 24.6985 104.42 24.13 104.423 23.539C104.423 22.3621 104.158 21.4906 103.624 20.9322C103.093 20.3713 102.512 19.9781 101.879 19.7452C100.787 19.3446 99.5149 18.9614 98.065 18.6033C96.272 18.1551 94.4815 17.6868 92.6986 17.201C91.3789 16.858 90.2795 16.4022 89.4031 15.8438C88.5266 15.2853 87.8305 14.6593 87.3121 13.9682C86.7963 13.2795 86.4282 12.5458 86.2128 11.7695C85.9975 10.9957 85.8873 10.2044 85.8873 9.39809C85.8873 7.84802 86.2128 6.50329 86.8589 5.36891C87.4999 4.23453 88.3539 3.29297 89.4231 2.54673C90.4874 1.80049 91.6944 1.24707 93.0441 0.886476C94.3864 0.528382 95.7511 0.348083 97.1384 0.348083C98.7461 0.348083 100.264 0.555928 101.686 0.971617C103.108 1.38731 104.358 2.01334 105.435 2.84723C106.519 3.68361 107.373 4.71032 107.999 5.92984C108.63 7.15186 108.945 8.56671 108.945 10.1744H103.559C103.414 8.19109 102.74 6.79126 101.533 5.97241C100.326 5.15355 98.7887 4.74537 96.9206 4.74537C96.287 4.74537 95.6409 4.81048 94.9823 4.93819C94.3463 5.05839 93.7428 5.27375 93.1718 5.58426C92.6234 5.88727 92.1702 6.29544 91.8146 6.8113C91.454 7.32715 91.2762 7.97573 91.2762 8.74951C91.2762 9.84132 91.6143 10.6977 92.2879 11.3138C92.964 11.9323 93.8455 12.3981 94.9373 12.7161C95.0525 12.7436 95.5032 12.8663 96.2945 13.0817C97.0858 13.2996 97.9673 13.5349 98.9464 13.7929C99.923 14.0508 100.877 14.3037 101.811 14.5466C102.743 14.792 103.414 14.9698 103.814 15.085C104.821 15.403 105.698 15.8338 106.444 16.3797C107.17 16.903 107.796 17.5291 108.319 18.2553C108.815 18.9489 109.191 19.7027 109.439 20.519C109.684 21.3229 109.807 22.1292 109.807 22.933C109.807 24.6559 109.454 26.1308 108.75 27.3503C108.057 28.5649 107.13 29.564 105.971 30.3453C104.821 31.1216 103.514 31.69 102.049 32.0481C100.577 32.4087 99.0816 32.589 97.5666 32.5865C95.8137 32.5865 94.161 32.3712 92.6109 31.9405C91.0608 31.5097 89.7086 30.8486 88.5617 29.9572C87.4123 29.0657 86.4933 27.9238 85.8021 26.5315C85.111 25.1392 84.7529 23.494 84.7253 21.5958H90.1118M61.582 9.57338H66.2372V12.8488L66.3248 12.9365C67.0711 11.7019 68.0477 10.7328 69.2547 10.0266C70.4617 9.32296 71.7989 8.96988 73.2638 8.96988C75.7054 8.96988 77.6311 9.60092 79.0384 10.8655C80.4458 12.1301 81.1494 14.0258 81.1494 16.555V31.8553H76.2363V17.8471C76.1787 16.0942 75.8056 14.8221 75.1169 14.0308C74.4283 13.242 73.349 12.8463 71.8841 12.8463C71.0502 12.8463 70.3039 12.9966 69.6428 13.2996C68.9918 13.5925 68.4308 14.0082 67.9626 14.5491C67.5018 15.08 67.1437 15.706 66.8833 16.4247C66.6203 17.1635 66.4926 17.9247 66.4951 18.7085V31.8528H61.582V9.57338ZM51.7582 5.73702H56.6713V1.0818H51.7582V5.73702ZM51.7582 31.8553H56.6713V9.57338H51.7582V31.8553ZM29.043 1.0818H33.9562V18.5808L42.8359 9.57338H48.8709L40.3368 17.762L49.6898 31.8553H43.6998L36.891 21.0374L33.9587 23.8821V31.8553H29.0455V1.0818" fill="#242B2D"/>
    </g>
    <mask id="mask8_220_247" style="mask-type:luminance" maskUnits="userSpaceOnUse" x="43" y="42" width="128" height="11">
        <path d="M170.327 42.9387H43.6074V52.9427H170.327V42.9387Z" fill="white"/>
    </mask>
    <g mask="url(#mask8_220_247)">
        <mask id="mask9_220_247" style="mask-type:luminance" maskUnits="userSpaceOnUse" x="43" y="42" width="128" height="12">
            <path d="M170.378 42.6707H43.585V53.0329H170.378V42.6707Z" fill="white"/>
        </mask>
        <g mask="url(#mask9_220_247)">
            <mask id="mask10_220_247" style="mask-type:luminance" maskUnits="userSpaceOnUse" x="43" y="42" width="128" height="12">
                <path d="M170.378 42.6707H43.585V53.0329H170.378V42.6707Z" fill="white"/>
            </mask>
            <g mask="url(#mask10_220_247)">
                <mask id="mask11_220_247" style="mask-type:luminance" maskUnits="userSpaceOnUse" x="43" y="42" width="128" height="12">
                    <path d="M170.378 42.6707H43.585V53.0329H170.378V42.6707Z" fill="white"/>
                </mask>
                <g mask="url(#mask11_220_247)">
                    <mask id="mask12_220_247" style="mask-type:luminance" maskUnits="userSpaceOnUse" x="43" y="42" width="128" height="12">
                        <path d="M170.378 42.6707H43.585V53.0329H170.378V42.6707Z" fill="white"/>
                    </mask>
                    <g mask="url(#mask12_220_247)">
                        <path d="M159.655 44.6841V45.0897C159.655 45.225 159.562 45.3126 159.374 45.3477L158.601 45.4403C158.753 45.7108 158.829 46.0113 158.829 46.3418C158.829 46.6473 158.766 46.9228 158.638 47.1732C158.508 47.4236 158.333 47.6365 158.11 47.8117C157.887 47.987 157.617 48.1248 157.304 48.2199C156.991 48.3151 156.65 48.3627 156.282 48.3627C155.964 48.3627 155.666 48.3276 155.383 48.2575C155.255 48.3251 155.147 48.4127 155.052 48.5204C154.98 48.6006 154.942 48.6932 154.94 48.8009C154.94 48.9486 155.005 49.0613 155.137 49.1364C155.268 49.2116 155.443 49.2667 155.656 49.2992C155.871 49.3318 156.117 49.3518 156.392 49.3618C156.668 49.3718 156.948 49.3844 157.238 49.4019C157.526 49.4219 157.809 49.452 158.085 49.497C158.36 49.5446 158.606 49.6172 158.821 49.7199C159.036 49.8226 159.209 49.9628 159.342 50.1456C159.475 50.3259 159.542 50.5613 159.542 50.8493C159.542 51.1172 159.47 51.3752 159.324 51.6281C159.179 51.876 158.969 52.1014 158.696 52.2967C158.42 52.492 158.087 52.6473 157.692 52.765C157.296 52.8827 156.848 52.9428 156.352 52.9428C155.856 52.9428 155.42 52.8977 155.047 52.8075C154.677 52.7149 154.369 52.5947 154.121 52.4444C153.873 52.2892 153.69 52.1139 153.567 51.9161C153.447 51.7257 153.385 51.5154 153.382 51.29C153.382 50.982 153.487 50.7191 153.698 50.5062C153.908 50.2934 154.196 50.1231 154.564 49.9954C154.376 49.9227 154.218 49.8151 154.083 49.6648C153.963 49.5271 153.905 49.3418 153.905 49.1064C153.905 49.0162 153.925 48.9236 153.958 48.8259C153.993 48.7308 154.048 48.6331 154.123 48.5354C154.196 48.4403 154.286 48.3476 154.394 48.26C154.501 48.1723 154.629 48.0972 154.769 48.0321C154.446 47.8718 154.186 47.644 153.986 47.3435C153.798 47.058 153.703 46.7249 153.703 46.3468C153.703 46.0438 153.768 45.7659 153.893 45.5154C154.021 45.265 154.198 45.0547 154.426 44.8794C154.654 44.7041 154.927 44.5714 155.245 44.4762C155.583 44.3786 155.929 44.331 156.282 44.3335C156.577 44.3335 156.853 44.3635 157.108 44.4236C157.364 44.4837 157.597 44.5714 157.807 44.6866H159.652L159.655 44.6841ZM158.44 51.0271C158.445 50.8843 158.4 50.7591 158.3 50.659C158.193 50.5538 158.065 50.4812 157.92 50.4361C157.739 50.3785 157.554 50.3409 157.366 50.3209C157.156 50.2984 156.933 50.2808 156.698 50.2683C156.462 50.2558 156.222 50.2433 155.981 50.2333C155.738 50.2207 155.508 50.2007 155.283 50.1732C155.035 50.2783 154.827 50.4136 154.669 50.5763C154.509 50.7316 154.429 50.9219 154.429 51.1473C154.429 51.2875 154.469 51.4177 154.549 51.5404C154.627 51.6606 154.747 51.7658 154.907 51.8534C155.067 51.9411 155.27 52.0137 155.516 52.0638C155.759 52.1139 156.046 52.1414 156.377 52.1414C156.708 52.1414 156.988 52.1139 157.241 52.0613C157.469 52.0162 157.687 51.9411 157.892 51.8309C158.067 51.7307 158.205 51.6156 158.298 51.4803C158.39 51.3451 158.438 51.1923 158.438 51.0296L158.44 51.0271ZM156.284 47.634C156.527 47.634 156.74 47.6039 156.923 47.5413C157.106 47.4787 157.261 47.3936 157.386 47.2809C157.511 47.1707 157.607 47.038 157.667 46.8827C157.729 46.7274 157.759 46.5597 157.759 46.3744C157.759 45.9912 157.632 45.6882 157.379 45.4603C157.126 45.2325 156.76 45.1198 156.282 45.1198C155.804 45.1198 155.43 45.2325 155.175 45.4603C154.922 45.6882 154.797 45.9912 154.797 46.3744C154.797 46.5597 154.829 46.7274 154.895 46.8827C154.957 47.038 155.055 47.1707 155.18 47.2809C155.305 47.3936 155.46 47.4787 155.643 47.5413C155.826 47.6014 156.039 47.634 156.282 47.634M60.1901 49.75C60.0423 49.9152 59.8645 50.0555 59.6592 50.1782C59.4539 50.3009 59.231 50.3985 58.9981 50.4787C58.5198 50.6339 58.0265 50.7141 57.5232 50.7141C57.0524 50.7141 56.6192 50.6414 56.2235 50.4937C55.8354 50.3535 55.4923 50.1381 55.1968 49.8501C54.8938 49.5521 54.6684 49.2041 54.5207 48.8034C54.3604 48.3877 54.2803 47.9119 54.2803 47.371C54.2803 46.9353 54.3529 46.5271 54.4981 46.149C54.6384 45.7759 54.8487 45.4478 55.1267 45.1624C55.4147 44.8744 55.7477 44.6565 56.1258 44.5088C56.519 44.3485 56.9647 44.2709 57.4555 44.2709C57.8637 44.2709 58.2393 44.3335 58.5874 44.4587C58.9355 44.5839 59.2335 44.7667 59.4864 45.0021C59.7418 45.2375 59.9372 45.5305 60.0824 45.8785C60.2251 46.2266 60.2977 46.6223 60.2977 47.0655C60.2977 47.2383 60.2777 47.3535 60.2377 47.4111C60.1976 47.4687 60.1225 47.4987 60.0098 47.4987H55.4622C55.4748 47.8944 55.5349 48.2375 55.64 48.5304C55.7452 48.8209 55.8904 49.0663 56.0783 49.2616C56.2661 49.457 56.4914 49.6047 56.7494 49.6999C57.0098 49.7975 57.3003 49.8451 57.6233 49.8451C57.9238 49.8451 58.1817 49.8126 58.3996 49.75C58.7352 49.6548 59.0532 49.5171 59.3537 49.3368C59.4589 49.2717 59.549 49.2416 59.6241 49.2416C59.7243 49.2416 59.7994 49.2767 59.852 49.3468L60.1876 49.75H60.1901ZM59.221 46.8176C59.221 46.5622 59.1809 46.3293 59.1033 46.1164C59.0281 45.9086 58.913 45.7258 58.7602 45.5655C58.61 45.4103 58.4272 45.2926 58.2118 45.2074C57.9764 45.1198 57.731 45.0797 57.4806 45.0822C56.9071 45.0822 56.4539 45.2375 56.1208 45.543C55.7878 45.8485 55.5799 46.2742 55.4998 46.8176H59.221Z" fill="#242B2D"/>
                    </g>
                </g>
                <mask id="mask13_220_247" style="mask-type:luminance" maskUnits="userSpaceOnUse" x="43" y="42" width="128" height="12">
                    <path d="M170.378 42.6707H43.585V53.0329H170.378V42.6707Z" fill="white"/>
                </mask>
                <g mask="url(#mask13_220_247)">
                    <mask id="mask14_220_247" style="mask-type:luminance" maskUnits="userSpaceOnUse" x="43" y="42" width="128" height="12">
                        <path d="M170.378 42.6707H43.585V53.0329H170.378V42.6707Z" fill="white"/>
                    </mask>
                    <g mask="url(#mask14_220_247)">
                        <path d="M159.655 44.6841V45.0897C159.655 45.225 159.562 45.3126 159.374 45.3477L158.601 45.4403C158.753 45.7108 158.829 46.0113 158.829 46.3418C158.829 46.6473 158.766 46.9228 158.638 47.1732C158.508 47.4236 158.333 47.6365 158.11 47.8117C157.887 47.987 157.617 48.1248 157.304 48.2199C156.991 48.3151 156.65 48.3627 156.282 48.3627C155.964 48.3627 155.666 48.3276 155.383 48.2575C155.255 48.3251 155.147 48.4127 155.052 48.5204C154.98 48.6006 154.942 48.6932 154.94 48.8009C154.94 48.9486 155.005 49.0613 155.137 49.1364C155.268 49.2116 155.443 49.2667 155.656 49.2992C155.871 49.3318 156.117 49.3518 156.392 49.3618C156.668 49.3718 156.948 49.3844 157.238 49.4019C157.526 49.4219 157.809 49.452 158.085 49.497C158.36 49.5446 158.606 49.6172 158.821 49.7199C159.036 49.8226 159.209 49.9628 159.342 50.1456C159.475 50.3259 159.542 50.5613 159.542 50.8493C159.542 51.1172 159.47 51.3752 159.324 51.6281C159.179 51.876 158.969 52.1014 158.696 52.2967C158.42 52.492 158.087 52.6473 157.692 52.765C157.296 52.8827 156.848 52.9428 156.352 52.9428C155.856 52.9428 155.42 52.8977 155.047 52.8075C154.677 52.7149 154.369 52.5947 154.121 52.4444C153.873 52.2892 153.69 52.1139 153.567 51.9161C153.447 51.7257 153.385 51.5154 153.382 51.29C153.382 50.982 153.487 50.7191 153.698 50.5062C153.908 50.2934 154.196 50.1231 154.564 49.9954C154.376 49.9227 154.218 49.8151 154.083 49.6648C153.963 49.5271 153.905 49.3418 153.905 49.1064C153.905 49.0162 153.925 48.9236 153.958 48.8259C153.993 48.7308 154.048 48.6331 154.123 48.5354C154.196 48.4403 154.286 48.3476 154.394 48.26C154.501 48.1723 154.629 48.0972 154.769 48.0321C154.446 47.8718 154.186 47.644 153.986 47.3435C153.798 47.058 153.703 46.7249 153.703 46.3468C153.703 46.0438 153.768 45.7659 153.893 45.5154C154.021 45.265 154.198 45.0547 154.426 44.8794C154.654 44.7041 154.927 44.5714 155.245 44.4762C155.583 44.3786 155.929 44.331 156.282 44.3335C156.577 44.3335 156.853 44.3635 157.108 44.4236C157.364 44.4837 157.597 44.5714 157.807 44.6866H159.652L159.655 44.6841ZM158.44 51.0271C158.445 50.8843 158.4 50.7591 158.3 50.659C158.193 50.5538 158.065 50.4812 157.92 50.4361C157.739 50.3785 157.554 50.3409 157.366 50.3209C157.156 50.2984 156.933 50.2808 156.698 50.2683C156.462 50.2558 156.222 50.2433 155.981 50.2333C155.738 50.2207 155.508 50.2007 155.283 50.1732C155.035 50.2783 154.827 50.4136 154.669 50.5763C154.509 50.7316 154.429 50.9219 154.429 51.1473C154.429 51.2875 154.469 51.4177 154.549 51.5404C154.627 51.6606 154.747 51.7658 154.907 51.8534C155.067 51.9411 155.27 52.0137 155.516 52.0638C155.759 52.1139 156.046 52.1414 156.377 52.1414C156.708 52.1414 156.988 52.1139 157.241 52.0613C157.469 52.0162 157.687 51.9411 157.892 51.8309C158.067 51.7307 158.205 51.6156 158.298 51.4803C158.39 51.3451 158.438 51.1923 158.438 51.0296L158.44 51.0271ZM156.284 47.634C156.527 47.634 156.74 47.6039 156.923 47.5413C157.106 47.4787 157.261 47.3936 157.386 47.2809C157.511 47.1707 157.607 47.038 157.667 46.8827C157.729 46.7274 157.759 46.5597 157.759 46.3744C157.759 45.9912 157.632 45.6882 157.379 45.4603C157.126 45.2325 156.76 45.1198 156.282 45.1198C155.804 45.1198 155.43 45.2325 155.175 45.4603C154.922 45.6882 154.797 45.9912 154.797 46.3744C154.797 46.5597 154.829 46.7274 154.895 46.8827C154.957 47.038 155.055 47.1707 155.18 47.2809C155.305 47.3936 155.46 47.4787 155.643 47.5413C155.826 47.6014 156.039 47.634 156.282 47.634M60.1901 49.75C60.0423 49.9152 59.8645 50.0555 59.6592 50.1782C59.4539 50.3009 59.231 50.3985 58.9981 50.4787C58.5198 50.6339 58.0265 50.7141 57.5232 50.7141C57.0524 50.7141 56.6192 50.6414 56.2235 50.4937C55.8354 50.3535 55.4923 50.1381 55.1968 49.8501C54.8938 49.5521 54.6684 49.2041 54.5207 48.8034C54.3604 48.3877 54.2803 47.9119 54.2803 47.371C54.2803 46.9353 54.3529 46.5271 54.4981 46.149C54.6384 45.7759 54.8487 45.4478 55.1267 45.1624C55.4147 44.8744 55.7477 44.6565 56.1258 44.5088C56.519 44.3485 56.9647 44.2709 57.4555 44.2709C57.8637 44.2709 58.2393 44.3335 58.5874 44.4587C58.9355 44.5839 59.2335 44.7667 59.4864 45.0021C59.7418 45.2375 59.9372 45.5305 60.0824 45.8785C60.2251 46.2266 60.2977 46.6223 60.2977 47.0655C60.2977 47.2383 60.2777 47.3535 60.2377 47.4111C60.1976 47.4687 60.1225 47.4987 60.0098 47.4987H55.4622C55.4748 47.8944 55.5349 48.2375 55.64 48.5304C55.7452 48.8209 55.8904 49.0663 56.0783 49.2616C56.2661 49.457 56.4914 49.6047 56.7494 49.6999C57.0098 49.7975 57.3003 49.8451 57.6233 49.8451C57.9238 49.8451 58.1817 49.8126 58.3996 49.75C58.7352 49.6548 59.0532 49.5171 59.3537 49.3368C59.4589 49.2717 59.549 49.2416 59.6241 49.2416C59.7243 49.2416 59.7994 49.2767 59.852 49.3468L60.1876 49.75H60.1901ZM59.221 46.8176C59.221 46.5622 59.1809 46.3293 59.1033 46.1164C59.0281 45.9086 58.913 45.7258 58.7602 45.5655C58.61 45.4103 58.4272 45.2926 58.2118 45.2074C57.9764 45.1198 57.731 45.0797 57.4806 45.0822C56.9071 45.0822 56.4539 45.2375 56.1208 45.543C55.7878 45.8485 55.5799 46.2742 55.4998 46.8176H59.221Z" fill="#242B2D"/>
                    </g>
                </g>
            </g>
        </g>
    </g>
    <mask id="mask15_220_247" style="mask-type:luminance" maskUnits="userSpaceOnUse" x="0" y="0" width="187" height="53">
        <path d="M187 0.255432H0.255371V52.9453H187V0.255432Z" fill="white"/>
    </mask>
    <g mask="url(#mask15_220_247)">
        <path d="M180.517 45.6206C180.764 45.3101 181.06 45.0572 181.403 44.8594C181.739 44.6666 182.122 44.5714 182.555 44.5714C182.905 44.5714 183.224 44.639 183.509 44.7717C183.792 44.907 184.035 45.1023 184.233 45.3652C184.433 45.6257 184.588 45.9512 184.696 46.3393C184.804 46.7275 184.859 47.1732 184.859 47.6766C184.859 48.1248 184.799 48.5405 184.678 48.9261C184.571 49.2942 184.398 49.6273 184.16 49.9278C183.932 50.2108 183.657 50.4336 183.331 50.5939C182.983 50.7617 182.617 50.8418 182.232 50.8368C181.859 50.8368 181.541 50.7717 181.275 50.649C181.005 50.5213 180.769 50.346 180.572 50.1231V52.8101H179.497V44.6766H180.138C180.291 44.6766 180.384 44.7492 180.419 44.8969L180.517 45.6156V45.6206ZM180.569 49.2892C180.764 49.5522 180.977 49.7375 181.21 49.8452C181.443 49.9528 181.701 50.0079 181.989 50.0079C182.557 50.0079 182.993 49.8051 183.296 49.4019C183.599 48.9987 183.752 48.4228 183.752 47.6766C183.752 47.2809 183.717 46.9403 183.647 46.6574C183.577 46.3719 183.474 46.1415 183.344 45.9587C183.218 45.7809 183.056 45.6482 182.858 45.5606C182.65 45.4729 182.43 45.4303 182.204 45.4328C181.856 45.4328 181.551 45.513 181.29 45.6732C181.027 45.8335 180.787 46.0589 180.567 46.3519V49.2892H180.569ZM177.504 44.6791V50.7542H176.868C176.715 50.7542 176.62 50.6815 176.58 50.5338L176.497 49.8777C176.234 50.1707 175.936 50.4061 175.608 50.5839C175.28 50.7617 174.905 50.8493 174.482 50.8493C174.151 50.8493 173.858 50.7967 173.603 50.684C173.355 50.5789 173.142 50.4236 172.964 50.2208C172.784 50.0054 172.656 49.7625 172.576 49.4946C172.486 49.1866 172.443 48.8735 172.448 48.553V44.6791H173.515V48.553C173.515 49.0113 173.62 49.3694 173.83 49.6198C174.041 49.8727 174.361 49.9979 174.792 49.9979C175.108 49.9979 175.403 49.9228 175.676 49.7725C175.951 49.6223 176.204 49.4169 176.435 49.1515V44.6791H177.502M167.971 44.5839C168.414 44.5839 168.815 44.6566 169.17 44.8043C169.526 44.952 169.831 45.1624 170.082 45.4353C170.335 45.7058 170.527 46.0363 170.66 46.422C170.795 46.8076 170.861 47.2383 170.861 47.7141C170.861 48.1899 170.793 48.6256 170.66 49.0088C170.537 49.3769 170.345 49.7049 170.082 49.9929C169.824 50.2709 169.521 50.4787 169.17 50.6214C168.815 50.7667 168.416 50.8393 167.971 50.8393C167.525 50.8393 167.119 50.7667 166.764 50.6214C166.411 50.4812 166.108 50.2709 165.85 49.9929C165.589 49.7049 165.394 49.3769 165.271 49.0088C165.136 48.6256 165.071 48.1924 165.071 47.7141C165.071 47.2358 165.139 46.8076 165.271 46.422C165.406 46.0363 165.597 45.7058 165.85 45.4353C166.108 45.1574 166.413 44.947 166.764 44.8043C167.122 44.6566 167.522 44.5839 167.971 44.5839ZM167.971 50.0054C168.569 50.0054 169.017 49.8051 169.313 49.4019C169.608 48.9987 169.756 48.4403 169.756 47.7191C169.756 46.9979 169.608 46.432 169.313 46.0288C169.017 45.6257 168.569 45.4228 167.971 45.4228C167.668 45.4228 167.4 45.4754 167.177 45.5781C166.952 45.6807 166.764 45.831 166.613 46.0288C166.453 46.2467 166.341 46.4871 166.278 46.7525C166.2 47.0706 166.163 47.3936 166.168 47.7216C166.168 48.4403 166.315 49.0013 166.613 49.4044C166.911 49.8076 167.365 50.0079 167.973 50.0079M162.003 45.8961C162.196 45.4804 162.432 45.1549 162.712 44.922C162.992 44.6866 163.333 44.5714 163.739 44.5714C163.866 44.5714 163.989 44.5864 164.107 44.614C164.225 44.6415 164.33 44.6866 164.422 44.7467L164.345 45.5455C164.32 45.6457 164.262 45.6958 164.164 45.6958C164.109 45.6958 164.027 45.6833 163.916 45.6582C163.796 45.6332 163.676 45.6206 163.553 45.6232C163.361 45.6232 163.19 45.6507 163.04 45.7083C162.89 45.7634 162.757 45.846 162.639 45.9562C162.512 46.0764 162.406 46.2116 162.321 46.3644C162.219 46.5422 162.134 46.7275 162.066 46.9203V50.7592H160.994V44.6841H161.605C161.72 44.6841 161.8 44.7066 161.846 44.7492C161.888 44.7943 161.918 44.8694 161.936 44.9771L162.008 45.9011" fill="#242B2D"/>
        <path d="M123.354 49.0889H120.743L120.189 50.8168H118.739L121.216 43.7325H122.911L125.388 50.8168H123.918L123.354 49.0889ZM123.004 47.9946L122.365 45.9988L122.057 44.9245H122.037L121.749 45.9762L121.091 47.9946H123.004ZM119.253 44.9245H116.981V50.8193H115.562V44.9245H113.28V43.7325H119.25V44.9245H119.253ZM112.118 50.8168H110.496L108.122 46.6524L107.536 45.4604H107.526L107.568 46.715V50.8168H106.294V43.7325H107.906L110.28 47.8869L110.866 49.0889H110.886L110.846 47.8343V43.7325H112.121V50.8193L112.118 50.8168ZM103.249 49.0889H100.637L100.083 50.8168H98.6334L101.113 43.7325H102.808L105.287 50.8193H103.817L103.254 49.0889H103.249ZM102.898 47.9946L102.262 45.9988L101.954 44.9245H101.934L101.646 45.9762L100.987 47.9946H102.901H102.898ZM95.2003 44.9245V46.7175H98.0875V47.9195H95.2003V50.8193H93.7804V43.7325H98.8588V44.9245H95.1977H95.2003ZM89.1853 47.5764L88.2187 48.7258V50.8193H86.8013V43.7325H88.2187V47.0931L91.0058 43.7325H92.651L90.2145 46.6198L92.7337 50.8193H91.1085L89.1853 47.5764ZM83.8464 44.0656C84.3372 44.3586 84.7129 44.7792 84.9758 45.3252C85.2412 45.8736 85.3715 46.5221 85.3715 47.2734C85.3715 48.0246 85.2387 48.6732 84.9758 49.2216C84.7129 49.77 84.3372 50.1907 83.8464 50.4837C83.3581 50.7767 82.7797 50.9244 82.1136 50.9244C81.4475 50.9244 80.869 50.7767 80.3757 50.4837C79.8824 50.1882 79.5042 49.77 79.2388 49.2216C78.9759 48.6757 78.8431 48.0246 78.8431 47.2734C78.8431 46.5221 78.9759 45.8711 79.2388 45.3252C79.5017 44.7792 79.8824 44.3586 80.3732 44.0631C80.8665 43.7701 81.4449 43.6223 82.1111 43.6223C82.7772 43.6223 83.3531 43.7701 83.8439 44.0631M80.7813 45.4654C80.4708 45.8836 80.3131 46.4871 80.3131 47.2759C80.3131 48.0647 80.4683 48.6657 80.7813 49.0839C81.0944 49.5021 81.5376 49.7124 82.1136 49.7124C82.6895 49.7124 83.1227 49.5046 83.4358 49.0839C83.7488 48.6657 83.904 48.0622 83.904 47.2759C83.904 46.4896 83.7488 45.8861 83.4358 45.4654C83.1252 45.0472 82.6845 44.8368 82.1136 44.8368C81.5426 44.8368 81.0944 45.0447 80.7813 45.4654ZM76.2288 44.0656C76.7171 44.3586 77.0952 44.7792 77.3582 45.3277C77.6236 45.8736 77.7538 46.5246 77.7538 47.2759C77.7538 48.0271 77.6211 48.6757 77.3582 49.2241C77.0952 49.7725 76.7196 50.1932 76.2288 50.4862C75.738 50.7792 75.162 50.9269 74.4959 50.9269C73.8298 50.9269 73.2539 50.7792 72.758 50.4862C72.2647 50.1907 71.8866 49.7725 71.6237 49.2241C71.3582 48.6757 71.228 48.0271 71.228 47.2759C71.228 46.5246 71.3607 45.8736 71.6237 45.3277C71.8866 44.7792 72.2672 44.3611 72.758 44.0656C73.2514 43.7726 73.8298 43.6248 74.4959 43.6248C75.162 43.6248 75.738 43.7726 76.2288 44.0656ZM73.1662 45.4654C72.8532 45.8836 72.698 46.4871 72.698 47.2759C72.698 48.0647 72.8532 48.6657 73.1662 49.0839C73.4792 49.5021 73.9225 49.7124 74.4984 49.7124C75.0744 49.7124 75.5076 49.5046 75.8181 49.0839C76.1286 48.6657 76.2864 48.0622 76.2864 47.2759C76.2864 46.4896 76.1311 45.8861 75.8181 45.4654C75.5051 45.0472 75.0669 44.8368 74.4984 44.8368C73.93 44.8368 73.4792 45.0447 73.1662 45.4654ZM65.6162 43.6048V50.9395H70.284V49.7049H66.9409V43.6023H65.6162V43.6048Z" fill="#1D1D1B"/>
    </g>
    <mask id="mask16_220_247" style="mask-type:luminance" maskUnits="userSpaceOnUse" x="124" y="42" width="9" height="11">
        <path d="M132.324 42.2726H124.99V52.2767H132.324V42.2726Z" fill="white"/>
    </mask>
    <g mask="url(#mask16_220_247)">
        <mask id="mask17_220_247" style="mask-type:luminance" maskUnits="userSpaceOnUse" x="124" y="42" width="9" height="11">
            <path d="M132.585 42.0598H124.965V52.4219H132.585V42.0598Z" fill="white"/>
        </mask>
        <g mask="url(#mask17_220_247)">
            <mask id="mask18_220_247" style="mask-type:luminance" maskUnits="userSpaceOnUse" x="124" y="42" width="9" height="11">
                <path d="M132.585 42.0623H124.965V52.4244H132.585V42.0623Z" fill="white"/>
            </mask>
            <g mask="url(#mask18_220_247)">
                <mask id="mask19_220_247" style="mask-type:luminance" maskUnits="userSpaceOnUse" x="124" y="42" width="9" height="11">
                    <path d="M132.585 42.0598H124.965V52.4219H132.585V42.0598Z" fill="white"/>
                </mask>
                <g mask="url(#mask19_220_247)">
                    <mask id="mask20_220_247" style="mask-type:luminance" maskUnits="userSpaceOnUse" x="124" y="42" width="9" height="11">
                        <path d="M132.585 42.0623H124.965V52.4244H132.585V42.0623Z" fill="white"/>
                    </mask>
                    <g mask="url(#mask20_220_247)">
                        <path d="M130.446 43.9529C130.9 44.1708 131.295 44.5164 131.638 44.9896L130.662 45.9888C130.484 45.6031 130.248 45.3152 129.953 45.1249C129.657 44.937 129.284 44.8419 128.834 44.8419C128.423 44.8419 128.105 44.922 127.882 45.0823C127.659 45.2451 127.546 45.4579 127.546 45.7233C127.546 45.9663 127.659 46.1591 127.887 46.3043C128.112 46.4471 128.521 46.5723 129.109 46.6799C129.725 46.8026 130.216 46.9529 130.581 47.1307C130.945 47.311 131.21 47.5339 131.378 47.8018C131.546 48.0697 131.628 48.4053 131.628 48.806C131.628 49.2417 131.511 49.6198 131.273 49.9378C131.037 50.2584 130.707 50.5013 130.286 50.6741C129.863 50.8468 129.382 50.932 128.841 50.932C128.095 50.932 127.481 50.8243 127.006 50.6039C126.522 50.3861 126.139 50.053 125.849 49.6098L126.693 48.5581C126.945 48.9938 127.236 49.2968 127.564 49.4646C127.895 49.6323 128.303 49.7175 128.789 49.7175C129.227 49.7175 129.562 49.6448 129.793 49.5021C130.021 49.3569 130.136 49.154 130.136 48.8911C130.136 48.6958 130.028 48.5355 129.81 48.4078C129.595 48.2801 129.209 48.1574 128.656 48.0422C128.017 47.907 127.509 47.7467 127.128 47.5589C126.75 47.3711 126.472 47.1432 126.302 46.8728C126.129 46.5998 126.044 46.2642 126.044 45.8636C126.044 45.4404 126.154 45.0597 126.375 44.7217C126.595 44.3811 126.913 44.1132 127.334 43.9204C127.757 43.7275 128.253 43.6324 128.821 43.6324C129.452 43.6324 129.993 43.7426 130.444 43.9604" fill="#1D1D1B"/>
                    </g>
                </g>
                <mask id="mask21_220_247" style="mask-type:luminance" maskUnits="userSpaceOnUse" x="124" y="42" width="9" height="11">
                    <path d="M132.585 42.0598H124.965V52.4219H132.585V42.0598Z" fill="white"/>
                </mask>
                <g mask="url(#mask21_220_247)">
                    <mask id="mask22_220_247" style="mask-type:luminance" maskUnits="userSpaceOnUse" x="124" y="42" width="9" height="11">
                        <path d="M132.585 42.0623H124.965V52.4244H132.585V42.0623Z" fill="white"/>
                    </mask>
                    <g mask="url(#mask22_220_247)">
                        <path d="M130.446 43.9529C130.9 44.1708 131.295 44.5164 131.638 44.9896L130.662 45.9888C130.484 45.6031 130.248 45.3152 129.953 45.1249C129.657 44.937 129.284 44.8419 128.834 44.8419C128.423 44.8419 128.105 44.922 127.882 45.0823C127.659 45.2451 127.546 45.4579 127.546 45.7233C127.546 45.9663 127.659 46.1591 127.887 46.3043C128.112 46.4471 128.521 46.5723 129.109 46.6799C129.725 46.8026 130.216 46.9529 130.581 47.1307C130.945 47.311 131.21 47.5339 131.378 47.8018C131.546 48.0697 131.628 48.4053 131.628 48.806C131.628 49.2417 131.511 49.6198 131.273 49.9378C131.037 50.2584 130.707 50.5013 130.286 50.6741C129.863 50.8468 129.382 50.932 128.841 50.932C128.095 50.932 127.481 50.8243 127.006 50.6039C126.522 50.3861 126.139 50.053 125.849 49.6098L126.693 48.5581C126.945 48.9938 127.236 49.2968 127.564 49.4646C127.895 49.6323 128.303 49.7175 128.789 49.7175C129.227 49.7175 129.562 49.6448 129.793 49.5021C130.021 49.3569 130.136 49.154 130.136 48.8911C130.136 48.6958 130.028 48.5355 129.81 48.4078C129.595 48.2801 129.209 48.1574 128.656 48.0422C128.017 47.907 127.509 47.7467 127.128 47.5589C126.75 47.3711 126.472 47.1432 126.302 46.8728C126.129 46.5998 126.044 46.2642 126.044 45.8636C126.044 45.4404 126.154 45.0597 126.375 44.7217C126.595 44.3811 126.913 44.1132 127.334 43.9204C127.757 43.7275 128.253 43.6324 128.821 43.6324C129.452 43.6324 129.993 43.7426 130.444 43.9604" fill="#1D1D1B"/>
                    </g>
                </g>
            </g>
        </g>
    </g>
    <path d="M138.126 44.9245H135.853V50.8167H134.435V44.9245H132.151V43.7325H138.126V44.9245Z" fill="#1D1D1B"/>
    <mask id="mask23_220_247" style="mask-type:luminance" maskUnits="userSpaceOnUse" x="138" y="42" width="12" height="11">
        <path d="M149.653 42.2726H138.314V52.2767H149.653V42.2726Z" fill="white"/>
    </mask>
    <g mask="url(#mask23_220_247)">
        <mask id="mask24_220_247" style="mask-type:luminance" maskUnits="userSpaceOnUse" x="138" y="42" width="12" height="11">
            <path d="M149.653 42.0598H138.072V52.4219H149.653V42.0598Z" fill="white"/>
        </mask>
        <g mask="url(#mask24_220_247)">
            <mask id="mask25_220_247" style="mask-type:luminance" maskUnits="userSpaceOnUse" x="138" y="42" width="12" height="11">
                <path d="M149.656 42.0623H138.072V52.4244H149.656V42.0623Z" fill="white"/>
            </mask>
            <g mask="url(#mask25_220_247)">
                <mask id="mask26_220_247" style="mask-type:luminance" maskUnits="userSpaceOnUse" x="138" y="42" width="12" height="11">
                    <path d="M149.653 42.0598H138.072V52.4219H149.653V42.0598Z" fill="white"/>
                </mask>
                <g mask="url(#mask26_220_247)">
                    <mask id="mask27_220_247" style="mask-type:luminance" maskUnits="userSpaceOnUse" x="138" y="42" width="12" height="11">
                        <path d="M149.656 42.0623H138.072V52.4244H149.656V42.0623Z" fill="white"/>
                    </mask>
                    <g mask="url(#mask27_220_247)">
                        <path d="M147.224 50.4036C146.716 50.7517 146.112 50.9245 145.406 50.9245C144.74 50.9245 144.162 50.7767 143.668 50.4837C143.175 50.1883 142.797 49.7701 142.534 49.2217C142.271 48.6757 142.138 48.0247 142.138 47.2734C142.138 46.5222 142.271 45.8711 142.534 45.3252C142.797 44.7768 143.175 44.3561 143.666 44.0656C144.154 43.7701 144.73 43.6249 145.389 43.6249C146.092 43.6249 146.691 43.7776 147.184 44.0856C147.673 44.3937 148.011 44.8519 148.196 45.4604L146.911 46.0289C146.801 45.6082 146.631 45.3027 146.398 45.1173C146.165 44.9295 145.85 44.8369 145.451 44.8369C144.875 44.8369 144.425 45.0472 144.099 45.4704C143.774 45.8911 143.611 46.4921 143.611 47.2734C143.611 48.0547 143.769 48.6557 144.084 49.0764C144.4 49.4996 144.845 49.71 145.419 49.71C146.248 49.71 146.769 49.2918 146.981 48.4554L148.286 48.8636C148.088 49.5447 147.735 50.058 147.227 50.4036M139.286 50.8168H140.706V43.7301H139.289V50.8168H139.286Z" fill="#1D1D1B"/>
                    </g>
                </g>
                <mask id="mask28_220_247" style="mask-type:luminance" maskUnits="userSpaceOnUse" x="138" y="42" width="12" height="11">
                    <path d="M149.653 42.0598H138.072V52.4219H149.653V42.0598Z" fill="white"/>
                </mask>
                <g mask="url(#mask28_220_247)">
                    <mask id="mask29_220_247" style="mask-type:luminance" maskUnits="userSpaceOnUse" x="138" y="42" width="12" height="11">
                        <path d="M149.656 42.0623H138.072V52.4244H149.656V42.0623Z" fill="white"/>
                    </mask>
                    <g mask="url(#mask29_220_247)">
                        <path d="M147.224 50.4036C146.716 50.7517 146.112 50.9245 145.406 50.9245C144.74 50.9245 144.162 50.7767 143.668 50.4837C143.175 50.1883 142.797 49.7701 142.534 49.2217C142.271 48.6757 142.138 48.0247 142.138 47.2734C142.138 46.5222 142.271 45.8711 142.534 45.3252C142.797 44.7768 143.175 44.3561 143.666 44.0656C144.154 43.7701 144.73 43.6249 145.389 43.6249C146.092 43.6249 146.691 43.7776 147.184 44.0856C147.673 44.3937 148.011 44.8519 148.196 45.4604L146.911 46.0289C146.801 45.6082 146.631 45.3027 146.398 45.1173C146.165 44.9295 145.85 44.8369 145.451 44.8369C144.875 44.8369 144.425 45.0472 144.099 45.4704C143.774 45.8911 143.611 46.4921 143.611 47.2734C143.611 48.0547 143.769 48.6557 144.084 49.0764C144.4 49.4996 144.845 49.71 145.419 49.71C146.248 49.71 146.769 49.2918 146.981 48.4554L148.286 48.8636C148.088 49.5447 147.735 50.058 147.227 50.4036M139.286 50.8168H140.706V43.7301H139.289V50.8168H139.286Z" fill="#1D1D1B"/>
                    </g>
                </g>
            </g>
        </g>
    </g>
</svg>
