<svg width="187" height="44" viewBox="0 0 187 44" fill="none" xmlns="http://www.w3.org/2000/svg">
    <g clip-path="url(#clip0_239_1754)">
        <path d="M94.4858 14.3921C94.4365 14.7371 94.4365 15.4764 94.8801 15.575C95.5209 15.7229 96.3095 15.0821 96.1616 13.702C96.1616 13.5542 96.1123 13.357 96.063 13.2091C95.8166 12.5684 95.4223 12.1248 94.8801 11.8784C94.2887 11.6319 93.7465 11.5333 93.155 11.5826C95.1759 11.6812 94.5844 13.9485 94.4858 14.3921Z" fill="#E15829"/>
        <path d="M65.0605 20.9968C63.6805 16.2651 59.7374 17.0537 59.7374 17.0537C59.3924 17.3001 59.0966 17.5959 58.8995 17.8916C58.6038 18.2859 58.4066 18.7295 58.308 19.1731C58.2094 19.6167 58.1602 20.0603 58.1602 20.5039C58.1602 20.6024 58.1602 20.6517 58.2094 20.701C58.1602 23.0176 59.7867 22.0318 59.7867 22.0318C61.0682 20.6024 62.6947 20.2574 62.6947 20.2574C63.3354 20.2081 63.9269 20.2574 64.3705 20.4546C64.2719 20.4546 64.6662 20.6024 65.0605 20.9968Z" fill="#E15829"/>
        <path d="M20.6026 21.0954C19.0747 20.4547 17.4482 19.9125 15.7231 19.5675C13.9487 19.2225 12.3222 18.7789 10.8435 18.286C9.31561 17.7931 8.13269 17.1524 7.14692 16.3637C6.16115 15.5751 5.66827 14.3922 5.66827 12.815C5.66827 12.0264 6.06258 11.3363 6.85119 10.7449C7.68909 10.1534 8.67486 9.61123 10.0056 9.16764C11.2871 8.72404 12.7658 8.32974 14.4416 8.08329C16.1174 7.78756 17.7932 7.59041 19.469 7.44255C20.9477 7.34397 22.3277 7.24539 23.6585 7.24539C24.9893 7.24539 26.2708 7.24539 27.4044 7.34397C28.5381 7.44255 29.5238 7.54112 30.3617 7.68899C31.1996 7.83685 31.7418 8.03401 32.0375 8.32974C32.1361 8.32974 32.1854 8.23116 32.2347 7.98472C32.284 7.78757 32.3333 7.49183 32.3826 7.14682C32.4318 6.8018 32.4811 6.45678 32.4811 6.11176C32.4811 5.76674 32.4811 5.5203 32.4811 5.27386C32.4811 4.38667 32.1854 3.64734 31.6432 3.15446C31.0518 2.66158 30.3124 2.31656 29.376 2.07012C28.4395 1.82367 27.3551 1.7251 26.2708 1.7251C25.1372 1.7251 24.0035 1.77439 22.8206 1.87296C22.3277 1.92225 21.4898 1.97154 20.2083 2.16869C18.9268 2.31656 17.5468 2.563 15.9695 2.90802C14.3923 3.25304 12.7658 3.69663 11.0407 4.18952C9.31561 4.6824 7.73838 5.42172 6.35831 6.21034C4.92894 7.04824 3.74602 7.98472 2.85883 9.11835C1.92236 10.252 1.47876 11.5335 1.47876 13.0121V13.505C1.62662 15.5258 2.1688 17.1524 3.20385 18.3846C4.18962 19.6661 5.37254 20.7011 6.75261 21.5883C8.13269 22.4262 9.61134 23.1655 11.1393 23.7077C12.6672 24.2992 14.1459 24.792 15.5259 25.3835C16.6103 25.8271 17.5468 26.32 18.3354 26.8622C18.3354 26.8622 26.7637 32.1853 23.3628 36.6213C23.6092 36.2762 23.8557 35.9805 24.1021 35.5862C25.3343 33.8118 25.8765 31.5446 25.8765 28.9323C25.8765 26.8129 25.3836 25.1864 24.3978 24.0034C23.3135 22.7219 22.1306 21.7855 20.6026 21.0954Z" fill="#E15829"/>
        <path d="M20.0111 29.2278C20.0604 29.425 20.0604 29.6221 20.0604 29.8193C20.0604 30.6572 19.8632 31.4458 19.4196 32.2837C18.976 33.1216 18.3846 33.8116 17.6945 34.5509C17.0045 35.241 16.1666 35.8324 15.2794 36.276C14.3922 36.7196 13.505 37.0154 12.5685 37.1139C11.1885 37.2125 9.95625 37.1139 8.92119 36.7196C7.88614 36.3253 7.04823 35.7832 6.40749 35.0438C5.71745 34.3045 5.22457 33.4666 4.92884 32.4315C4.58382 31.3965 4.43595 30.4107 4.43595 29.3264C4.43595 29.2278 4.43595 29.1785 4.48524 29.0799C4.53453 28.9814 4.53453 28.9814 4.53453 28.9321C4.53453 28.8335 4.48524 28.8335 4.43595 28.8335C3.30232 28.9321 2.21798 29.5235 1.33079 30.6079C0.443595 31.6429 0 33.0723 0 34.896C0 36.3253 0.345018 37.6068 0.936479 38.6912C1.52794 39.7755 2.41513 40.712 3.45018 41.402C4.53453 42.1414 5.71745 42.6835 7.04823 42.9793C8.37902 43.3243 9.75909 43.4228 11.1392 43.3243C11.9771 43.2257 13.16 42.9793 14.7865 42.4371C16.413 41.8949 17.9902 41.1063 19.6168 39.9727C20.6518 39.2826 21.539 38.4447 22.3769 37.5082C22.7219 37.1632 25.1863 33.9595 20.0111 29.2278Z" fill="#E15829"/>
        <path d="M35.0933 19.6168C34.3047 20.2082 33.5654 20.8983 32.8754 21.6376C32.8261 20.8983 32.6782 20.3561 32.3825 20.0111C32.0868 19.6661 31.7417 19.3703 31.2489 19.1732C30.8053 19.0253 30.3124 18.9267 29.7702 18.8774C29.228 18.8774 28.6859 18.8774 28.193 18.976L26.665 19.0746C27.1086 19.5675 27.3551 20.4054 27.5029 21.6869C27.6015 22.9684 27.6015 24.3484 27.5522 25.8271C27.4537 27.355 27.4044 28.7844 27.2072 30.1645C27.0593 31.5445 26.9115 32.6289 26.8622 33.4175C26.8622 34.4033 27.2072 35.1426 27.8972 35.6848C28.5873 36.2269 29.1787 36.4734 29.7702 36.4241C30.5095 36.3255 30.9531 36.3255 31.1503 36.2269C31.3474 36.1284 31.4953 36.1284 31.5939 36.0791C31.2489 35.7341 31.0024 35.1426 31.0024 34.3047C30.9531 33.4668 31.0024 32.6289 31.101 31.7417C31.1996 30.8545 31.3474 29.9673 31.5446 29.1294C31.7417 28.2915 31.8896 27.6508 31.9882 27.2072C32.1853 26.5171 32.4811 25.9257 32.8754 25.2849C33.2697 24.6935 33.7133 24.2006 34.2554 23.8063C34.7483 23.412 35.2412 23.067 35.6848 22.8698C36.1284 22.6234 36.3748 22.5248 36.5227 22.5741C36.9663 18.286 35.1919 19.5675 35.0933 19.6168Z" fill="#E15829"/>
        <path d="M51.8515 21.4402C51.95 21.6374 51.95 21.8838 51.95 22.1303C51.95 22.1796 51.95 22.2289 51.95 22.2289C51.95 22.3274 51.95 22.3767 51.95 22.4753C51.95 23.116 51.8022 23.7075 51.5064 24.1511C51.2107 24.5947 50.8657 24.989 50.3728 25.4326C49.9292 25.7776 49.4363 26.1226 48.8942 26.3691C48.5491 26.5169 48.1548 26.7141 47.8098 26.8127C47.9084 27.0098 49.2392 30.115 52.295 28.6856C52.3936 28.6363 52.4922 28.5871 52.5908 28.5378C53.7244 27.9463 54.6116 27.207 55.3016 26.4184C55.9424 25.5805 56.386 24.8411 56.6817 24.0032C56.9774 23.1653 57.076 22.5246 57.076 21.9824C57.076 19.8137 56.4846 18.3351 55.3016 17.5958C54.168 16.8071 52.5415 16.5114 50.5207 16.7086C49.2885 16.8071 48.2041 17.1522 47.1691 17.7929C46.824 17.9901 46.4297 18.2365 46.0847 18.5322C50.0771 16.1171 51.4571 19.7151 51.8515 21.4402Z" fill="#E15829"/>
        <path d="M58.5545 25.5806C58.4066 25.6792 57.963 26.32 57.963 26.32C57.963 26.665 57.8644 26.665 57.618 27.2072C57.4208 27.6508 57.0758 28.0943 56.7308 28.5379C56.6322 28.6365 56.4844 28.8337 56.3858 28.9322C55.7943 29.5237 55.1536 30.0166 54.365 30.4602C53.5763 30.9038 52.6891 31.1995 51.6541 31.2981C51.5555 31.2981 51.3584 31.2981 51.0626 31.2981C50.7669 31.2981 50.4712 31.2488 50.1262 31.1995C49.8797 31.1502 49.6333 31.0516 49.3868 30.9038C49.3868 30.9038 49.3868 30.9038 49.3375 30.9038C49.239 30.8545 49.1897 30.8052 49.1404 30.7559C47.7603 29.6716 47.4153 27.01 47.4153 27.01C47.4153 26.8621 47.4153 26.7143 47.366 26.5664C47.3167 26.5171 47.3167 26.2707 47.3167 26.1228C47.3167 24.102 47.5632 22.6726 48.1546 21.7361C48.6968 20.7997 49.3868 20.3068 50.1754 20.2082C50.3233 20.2082 50.5205 20.2082 50.6683 20.2575C49.3868 17.0538 45.5916 19.2224 45.3452 19.3703C45.0987 19.6168 44.8523 19.8632 44.6551 20.1589C43.9158 21.0954 43.3244 22.1797 42.8808 23.3627C42.4372 24.5456 42.2893 25.8764 42.2893 27.3057C42.2893 29.573 42.8808 31.3474 44.113 32.5796C45.3452 33.8118 47.1196 34.3047 49.4361 34.1075C50.6683 34.0089 51.802 33.7625 52.8863 33.5161C53.9706 33.171 54.9071 32.7275 55.745 32.136C56.09 31.8403 56.4844 31.4952 56.8294 31.1009C57.1744 30.6573 57.5194 30.2137 57.8151 29.6223C58.3573 28.5872 58.653 27.3057 58.7516 25.7285C58.7516 25.6299 58.8502 25.5314 58.8502 25.4821C58.8009 25.4328 58.6038 25.5314 58.5545 25.5806Z" fill="#E15829"/>
        <path d="M58.8503 25.3833C58.8996 25.3833 58.8996 25.334 58.9489 25.334C58.8996 25.334 58.8996 25.334 58.8503 25.3833Z" fill="#E15829"/>
        <path d="M100.45 19.6166C99.9567 19.2223 99.6117 18.9265 99.6117 18.9265C99.0202 18.5815 98.4287 18.2365 97.8373 17.9901C97.2458 17.7436 96.3586 17.2507 95.2743 16.4621C95.2743 16.4621 94.2885 15.9199 93.7956 15.1806C93.4506 14.737 93.2042 14.2934 93.0563 13.8006C93.0563 13.6527 93.2042 13.5541 93.5492 13.5541C93.7464 13.5541 93.9435 13.5541 94.0914 13.6034C94.1407 11.8783 92.5634 11.7304 92.5141 11.6812C91.6762 11.8783 91.0848 12.2726 90.6905 12.9626C90.1483 13.8006 89.9511 14.737 90.0497 15.6735C90.0497 15.7721 90.099 16.0185 90.1483 16.3143C90.1976 16.6593 90.2962 17.0536 90.5426 17.5465C90.7398 18.0393 91.1341 18.5322 91.5777 19.0744C92.0213 19.6166 92.662 20.0602 93.4999 20.4545C93.4999 20.4545 95.8165 21.1938 97.1472 22.5739C97.6401 23.1653 97.9359 23.8554 98.0344 24.5454C98.133 25.2354 98.133 25.8269 97.8866 26.4677C97.6894 27.0591 97.2951 27.552 96.7529 27.9956C96.2108 28.3899 95.5207 28.5871 94.7321 28.5871C94.4857 28.6363 94.2392 28.5378 93.8942 28.4392C93.5985 28.3406 93.3028 28.1435 93.0563 27.9463C92.7606 27.7492 92.5634 27.4534 92.4156 27.0591C92.2677 26.7141 92.1691 26.2705 92.2677 25.7776C92.2677 25.5805 92.317 25.3833 92.4156 25.1369C92.5141 24.8904 92.7606 24.5947 93.1056 24.299C93.4506 24.0032 93.9435 23.7075 94.5842 23.4118C95.0771 23.1653 95.7179 22.9682 96.4572 22.771C95.8657 22.1796 94.8307 21.4402 92.8592 20.7502C91.3312 21.4895 90.1976 22.426 89.6061 23.6089C88.9161 24.9397 88.7189 26.2212 89.0147 27.4041C89.3104 28.5871 90.0497 29.5728 91.2819 30.3614C92.5141 31.15 94.0914 31.3472 96.0629 31.0022C96.9501 30.8543 97.8373 30.5586 98.7245 30.2136C99.5624 29.8686 100.302 29.425 100.992 28.9321C101.682 28.3899 102.224 27.7984 102.618 27.1084C103.013 26.4184 103.21 25.5805 103.21 24.6933C103.21 23.8061 102.963 22.8696 102.47 21.9824C102.372 21.736 102.175 21.5388 102.076 21.3417L100.45 19.6166Z" fill="#E15829"/>
        <path d="M122.284 24.0527C121.2 22.3769 119.82 21.0954 118.243 20.2575C116.715 19.4196 114.99 18.8281 113.166 18.5324C111.342 18.2367 109.469 18.1381 107.498 18.2367C105.576 18.3353 103.703 18.4338 101.928 18.5817C101.534 18.631 101.09 18.6803 100.745 18.6803C102.027 19.7646 102.766 21.194 103.111 21.8347C105.428 21.9333 107.646 22.229 109.814 22.9191C112.131 23.6091 114.25 24.447 116.074 25.3342C118.193 26.4185 120.214 27.6015 122.087 28.8337C122.432 27.9958 122.679 27.2072 122.777 26.3693C122.827 25.5313 122.679 24.7427 122.284 24.0527Z" fill="#E15829"/>
        <path d="M140.965 17.3985C141.063 18.335 140.915 19.3207 140.62 20.3065C140.275 21.6373 139.387 22.9188 138.057 24.1017C138.007 24.1017 138.007 24.151 138.007 24.2003C138.007 24.2496 138.106 24.2989 138.352 24.3974C138.599 24.496 138.895 24.5946 139.24 24.6932C139.585 24.7918 139.979 24.7918 140.373 24.841C140.767 24.8903 141.162 24.841 141.458 24.7425C142.394 24.4467 143.133 23.9046 143.676 23.0667C144.218 22.2288 144.563 21.2923 144.809 20.2572C145.056 19.2222 145.154 18.1871 145.154 17.1028C145.154 16.0184 145.056 15.1312 144.908 14.3919C144.76 13.6526 144.464 12.864 144.021 12.1247C143.577 11.2867 142.936 10.5967 142.148 10.0545C141.31 9.46308 140.373 9.06877 139.19 8.87162C138.352 8.72375 137.416 8.77304 136.332 8.9702C140.521 8.23087 140.965 17.3985 140.965 17.3985Z" fill="#00B3E3"/>
        <path d="M145.499 35.2411C145.401 35.2904 145.203 35.389 144.908 35.6847C144.612 35.9312 144.267 36.2762 143.774 36.6212C143.281 36.9662 142.739 37.3605 142.049 37.7056C141.408 38.0506 140.62 38.3956 139.782 38.642C138.5 39.0363 137.268 39.1842 135.986 39.0363C134.705 38.9378 133.571 38.5435 132.487 37.9027C131.403 37.262 130.466 36.3748 129.678 35.1919C128.889 34.0089 128.298 32.5303 127.903 30.8052C127.558 29.0308 127.46 27.2564 127.657 25.4328C127.903 23.6091 128.347 21.884 129.086 20.3561C129.825 18.7788 130.762 17.3988 131.896 16.2651C133.029 15.1315 134.36 14.2936 135.888 13.8007C136.775 13.505 137.514 13.4557 138.106 13.505C138.697 13.6036 139.19 13.8007 139.535 14.0964C139.634 14.195 139.683 14.2443 139.782 14.3429C138.599 8.3297 135.149 9.31547 135.149 9.31547C133.128 9.95622 131.255 11.0406 129.727 12.5192C128.199 14.0472 126.917 15.7722 125.981 17.7931C125.044 19.7646 124.453 21.884 124.108 24.1513C123.812 26.4185 123.911 28.5872 124.354 30.7066C124.699 32.481 125.389 34.1568 126.326 35.6354C127.213 37.1634 128.347 38.3463 129.678 39.3321C130.959 40.3178 132.438 40.9586 134.064 41.3036C135.691 41.6486 137.367 41.55 139.141 40.9586C139.93 40.7121 140.669 40.3671 141.507 40.0221C142.345 39.6278 143.035 39.1842 143.725 38.6913C144.366 38.1984 144.858 37.6563 145.253 37.1634C145.598 36.6212 145.746 36.079 145.647 35.5862C145.598 35.3397 145.598 35.2411 145.499 35.2411Z" fill="#00B3E3"/>
        <path d="M160.779 19.5673C159.99 18.8772 159.004 18.6308 157.871 18.8279C157.673 18.8772 157.427 18.9265 157.23 19.0744C159.349 18.5815 160.039 21.7852 160.039 21.7852C160.187 22.3274 160.286 23.0174 160.286 23.9539C160.286 25.1368 160.138 25.9747 159.891 26.6155C159.645 27.2069 159.3 27.6998 159.004 28.1434C158.659 28.5377 158.363 28.7842 158.018 28.932C157.673 29.0306 157.526 29.0799 157.476 29.1292L157.23 29.1785C156.688 29.2771 156.293 29.1785 155.948 28.932C155.603 28.6856 155.357 28.3406 155.209 27.9956C155.061 27.6505 154.913 27.2562 154.864 26.9112C154.815 26.5662 154.765 26.3198 154.765 26.2212C154.716 25.5311 154.815 24.8411 155.012 24.1018C155.209 23.4117 155.554 22.8203 155.998 22.2781C155.998 22.4753 156.096 22.771 156.145 23.116C156.244 23.461 156.392 23.7568 156.589 24.1018C156.688 24.2004 156.737 24.2989 156.836 24.3975C157.131 24.6439 157.427 24.7425 157.92 24.4961C159.152 23.7075 158.511 22.7217 158.511 22.7217C158.363 22.426 158.216 22.1302 158.216 21.8345C158.166 21.2431 158.363 20.8487 158.856 20.7502C158.955 20.7502 159.004 20.7502 159.103 20.7995C158.117 19.0251 156.836 19.4687 156.786 19.4687C156.589 19.6658 156.441 19.9123 156.244 20.3066C156.096 20.0601 155.85 19.8137 155.505 19.6165C155.16 19.4194 154.864 19.3208 154.519 19.3701C154.174 19.4194 153.829 19.7151 153.435 20.208C153.09 20.7009 152.695 21.2923 152.4 21.9824C152.055 22.6724 151.808 23.461 151.66 24.2989C151.463 25.1368 151.414 25.9254 151.463 26.7141C151.512 27.4534 151.66 28.1434 151.907 28.7842C152.153 29.4249 152.498 30.0164 152.991 30.46C153.435 30.9036 153.977 31.2979 154.568 31.5443C155.16 31.7908 155.85 31.84 156.589 31.7415C156.786 31.6922 157.181 31.6429 157.871 31.4457C158.462 31.2979 159.152 30.9036 159.793 30.3614C160.434 29.7699 161.025 28.9813 161.469 27.897C161.962 26.8126 162.109 25.2847 162.06 23.4117C162.011 21.3909 161.567 20.208 160.779 19.5673Z" fill="#00B3E3"/>
        <path d="M173.889 28.1929C173.791 27.6507 173.791 27.0099 173.791 26.2706C173.791 25.5313 173.84 24.7427 173.889 23.9048C173.939 23.0669 173.988 22.2783 174.086 21.5882C174.185 20.8489 174.185 20.2574 174.234 19.7153C174.284 19.1731 174.284 18.8774 174.234 18.6802C174.185 18.0395 173.988 17.5466 173.643 17.2508C173.298 16.9551 172.904 16.8072 172.46 16.758C172.016 16.7087 171.523 16.7087 171.031 16.8072C170.538 16.9058 170.143 16.9551 169.798 17.0044C170.045 17.5959 170.242 18.4338 170.39 19.4688C171.08 23.1654 170.932 27.7986 170.932 27.7986C170.981 28.2914 171.08 28.735 171.277 29.1293C171.474 29.5236 172.066 29.6715 172.903 29.5236C173.446 29.4251 173.741 29.3758 173.889 29.3265C173.988 29.2772 174.136 29.2279 174.234 29.1786C174.136 29.08 173.988 28.735 173.889 28.1929Z" fill="#00B3E3"/>
        <path d="M170.439 26.5662C170.439 25.9747 170.439 25.2847 170.39 24.5454C170.242 25.1368 170.045 25.7283 169.798 26.2704C169.355 27.1576 168.615 27.6998 167.58 27.8477C167.334 27.897 167.087 27.8477 166.94 27.7491C166.742 27.6505 166.595 27.2562 166.595 26.5662C166.545 25.9747 166.545 25.1368 166.595 24.2496C166.644 23.3131 166.693 22.426 166.841 21.5388C166.94 20.5037 167.038 19.4194 167.186 18.2857C167.137 17.6943 166.94 17.2014 166.595 16.9549C166.25 16.7085 165.806 16.5606 165.412 16.4621C164.968 16.4128 164.524 16.4128 164.032 16.5114C163.539 16.6099 163.194 16.6592 162.849 16.7085C163.095 17.3 163.243 18.0393 163.292 18.9758C163.342 19.9122 163.391 20.898 163.391 21.9331C163.391 22.9681 163.489 23.9539 163.539 25.0382C163.637 26.0733 163.785 27.0098 164.032 27.7491C164.327 28.5377 164.672 29.1292 165.264 29.5728C165.806 29.9671 166.545 30.1642 167.531 29.9671C168.122 29.8685 168.763 29.6221 169.355 29.2277C169.798 28.932 170.193 28.6363 170.587 28.1927C170.488 27.8477 170.439 27.3055 170.439 26.5662Z" fill="#00B3E3"/>
        <path d="M89.6063 31.6922C88.3741 31.3472 87.2404 31.0021 86.2054 30.6078C84.7267 30.0164 83.5438 29.4249 82.7059 28.8335C81.868 28.242 81.4244 27.9463 81.4244 27.7984C81.4244 27.7984 79.7979 26.4676 77.3827 27.4534C79.7979 17.8914 79.8472 5.27362 79.8472 5.27362C79.8965 5.17505 79.8965 4.97789 79.8965 4.78074C79.8965 3.6964 79.6993 2.85849 79.305 2.21775C78.9107 1.577 78.3192 1.08411 77.6292 0.689807C76.9392 0.344788 76.1505 0.0983466 75.3126 0.0983466C74.4747 -0.000230113 73.5875 -0.000230113 72.7496 0.0983466C73.1932 1.87273 73.489 3.6964 73.6368 5.47078C73.7847 7.24516 73.8833 9.11812 73.8833 10.9911C73.8833 14.1948 73.6861 17.3986 73.2918 20.553C72.9468 23.6582 72.7004 26.6648 72.7004 29.5235C72.4539 29.7206 72.2568 29.8685 72.1089 29.9178C71.8625 30.0164 71.6653 30.0657 71.5174 30.115C70.9753 30.1642 70.6795 29.6714 70.5317 28.6856C70.4331 27.6998 70.3838 26.4183 70.3838 24.7918C70.3838 23.9539 70.3838 23.2146 70.4331 22.5245C70.4824 21.8345 70.4824 21.3416 70.4824 21.1445C70.4824 19.863 70.1374 18.8772 69.5459 18.1872C68.9544 17.4971 68.1658 17.0043 67.2786 16.6592C66.3914 16.3142 65.5043 16.1664 64.5678 16.1171C63.6806 16.1171 62.892 16.1171 62.3005 16.1663C61.6105 16.2156 61.019 16.3635 60.5261 16.5114C65.8 15.3777 66.145 22.9681 66.145 22.9681C66.3914 24.3975 66.49 27.6505 66.49 27.6505C66.145 28.242 65.6521 28.6856 65.0607 28.9813C64.4692 29.3263 63.927 29.5235 63.5327 29.5728C63.0891 29.6221 62.6948 29.4742 62.4484 29.2771C62.1526 29.0306 62.0048 28.6856 62.0048 28.1927C62.0048 27.8477 62.1034 27.4534 62.3498 27.0098C62.547 26.5662 62.8427 26.1719 63.1877 25.7283C63.5327 25.334 63.9763 24.989 64.3706 24.6932C64.8142 24.3975 65.2085 24.2496 65.6521 24.2004C65.3071 22.426 63.1877 22.6724 62.6948 22.771C62.1034 22.8696 61.6105 23.116 61.0683 23.3625C60.1318 23.806 59.3432 24.3482 58.7025 24.9397C58.0617 25.5311 57.5195 26.2212 57.1745 27.0098C56.9281 27.4534 56.8295 27.897 56.6816 28.3406C57.0267 27.897 57.3717 27.4534 57.5688 27.0098C57.8646 26.4183 57.9138 26.4183 57.9138 26.1226C57.9138 26.1226 58.3574 25.4818 58.5053 25.3833C58.6039 25.334 58.7518 25.2354 58.8503 25.1861C58.7518 25.2354 58.7517 25.2847 58.7517 25.4326C58.6532 26.9605 58.3574 28.242 57.8153 29.3263C57.5195 29.8685 57.2238 30.3614 56.8295 30.805C57.0267 31.3472 57.421 31.7908 57.9138 32.0865C58.7518 32.6779 59.8361 32.9244 61.019 32.8258C62.1526 32.7272 63.2863 32.2836 64.4199 31.5443C65.5043 30.805 66.3914 29.9178 66.9829 28.8827C67.3279 30.2628 67.8701 31.15 68.5108 31.5936C69.1023 31.9386 69.7431 32.1358 70.2852 32.0865C70.8767 32.0372 71.4189 31.8893 71.8132 31.6922C72.2075 31.4457 72.6018 31.1993 72.8975 30.9036C73.0947 31.84 73.5383 32.6287 74.2283 33.1708C75.2141 34.0087 76.397 34.3045 77.7278 34.2059C78.3192 34.1566 78.615 34.0087 78.7628 33.6637C78.4671 33.5159 78.2207 33.3187 78.0235 33.0723C77.8263 32.8751 77.6785 32.4808 77.5306 32.0372C77.3827 31.5936 77.3335 30.9529 77.3335 30.2135C77.3335 29.4249 77.4813 29.0306 77.8263 29.0306C78.4178 29.2278 79.3543 29.7699 80.5865 30.7064C81.8187 31.6429 83.1002 32.5794 84.5296 33.6144C85.3675 34.2059 86.1561 34.6988 86.994 35.2409C92.3171 38.494 95.6194 32.4808 95.6194 32.4808C92.5143 32.8258 89.6063 31.6922 89.6063 31.6922ZM58.9489 25.334C59.0475 25.334 58.9982 25.334 58.9489 25.334Z" fill="#E15829"/>
        <path d="M87.9305 13.9484C87.5855 13.702 87.2405 13.5541 86.7969 13.4062C86.6983 13.8006 86.5997 14.1949 86.5012 14.5399C86.0576 16.1171 85.5647 17.4972 85.0718 18.6308C84.9732 18.828 84.9239 18.9758 84.8254 19.2223C83.5931 21.8838 82.5088 23.0668 82.5088 23.0668C82.1638 23.5596 81.7202 24.0032 81.2273 24.4468C80.4387 25.1862 79.6994 25.8269 78.96 26.3691C78.8615 26.4677 78.7629 26.4677 78.6643 26.5662C79.5022 26.517 80.6851 26.6648 81.8188 27.6506C82.8045 27.3056 83.6424 26.8127 84.4803 26.0734C85.4168 25.2355 86.2547 24.299 86.8955 23.3132C87.5855 22.2782 88.1277 21.2431 88.4727 20.1588C88.8177 19.0744 89.0641 18.0886 89.0641 17.2015C89.1627 15.6242 88.7684 14.5399 87.9305 13.9484Z" fill="#E15829"/>
        <path d="M41.5995 21.6373C41.7473 20.7009 41.7473 19.9615 41.5995 19.4194C41.4516 18.8772 41.2545 18.4829 41.008 18.1872C40.7616 17.8914 40.4658 17.7436 40.1701 17.6943C39.8251 17.5957 39.5787 17.5957 39.3322 17.5957C38.1 17.6943 36.9664 18.1872 35.882 18.9265C35.8327 18.9758 35.7834 18.9758 35.7834 19.0251C38.0507 17.4971 36.6214 23.9539 36.6214 23.9539C36.5228 24.4961 36.5228 25.2847 36.4735 26.4183C36.4242 27.5027 36.4242 29.0799 36.4735 31.0514C36.5228 32.2836 36.6213 33.4173 36.8185 34.5016C36.8185 34.5509 36.8185 34.5509 36.8185 34.6002C36.8185 34.6988 36.8678 34.7973 36.8678 34.8959C36.8678 34.9452 36.9171 34.9945 36.9171 34.9945C37.5085 36.4731 39.8744 35.9803 39.8744 35.9803C41.8952 35.5367 41.5009 34.2059 41.4023 33.9594C41.1066 32.5301 41.008 31.1007 41.008 29.6221C41.008 28.0941 41.1066 26.6155 41.2545 25.1861C41.4023 23.806 41.5009 22.6231 41.5995 21.6373Z" fill="#E15829"/>
        <path d="M143.232 31.7413C143.232 31.7413 142.542 32.8256 143.232 32.8256C143.676 32.7763 144.76 32.8256 146.337 29.7204C146.239 28.6361 146.239 27.1082 146.189 25.8267C145.549 27.9461 144.612 30.4105 143.232 31.7413Z" fill="#00B3E3"/>
        <path d="M151.315 32.0371C151.217 31.9385 151.118 31.8892 151.02 31.7413C150.675 31.1006 150.428 30.3612 150.329 29.5726C150.231 28.784 150.231 28.2911 150.182 28.1433C150.132 27.5518 150.132 26.6646 150.132 25.6789C150.132 24.6438 150.182 23.5595 150.231 22.3765C150.28 21.1936 150.329 20.0107 150.477 18.7785C150.576 17.5956 150.625 16.5112 150.724 15.5255C150.822 14.5397 150.822 13.7511 150.872 13.061C150.921 12.4203 150.97 12.026 150.921 11.9767C150.872 11.1881 150.675 10.5966 150.329 10.153C149.984 9.70943 149.541 9.31512 149.048 9.11797C148.506 8.92081 147.964 8.77295 147.323 8.77295C146.682 8.77295 146.041 8.82224 145.45 8.87153C146.14 10.0544 146.534 11.4345 146.731 13.0117C146.879 14.5397 146.978 16.1662 146.929 17.842C146.929 19.0249 146.879 20.2078 146.83 21.3908C146.83 21.3908 147.076 18.7785 146.83 21.4893C146.83 21.5386 146.83 21.5879 146.83 21.6372C146.83 21.8837 146.83 22.1301 146.781 22.3765C146.781 22.5737 146.781 22.8201 146.731 23.0173C146.731 23.313 146.682 23.6087 146.682 23.9045C146.633 25.9253 146.731 27.8968 146.781 28.1926V28.2418C146.83 28.784 146.879 29.3262 147.076 29.8684C147.224 30.4598 147.471 30.9527 147.816 31.3963C148.161 31.8399 148.506 32.2342 148.999 32.4806C149.492 32.7271 150.083 32.8257 150.724 32.6778C151.069 32.6285 151.315 32.4806 151.365 32.2835C151.512 32.1849 151.463 32.0863 151.315 32.0371Z" fill="#00B3E3"/>
        <path d="M186.803 28.9318C186.704 28.8333 186.655 28.784 186.606 28.6854C186.261 28.0939 186.014 27.4039 185.965 26.6646C185.866 25.9252 185.817 25.5309 185.817 25.3831C185.768 24.7916 185.768 24.0523 185.768 23.0665C185.768 22.0808 185.817 21.0457 185.866 19.8628C185.916 18.8277 185.965 17.842 186.014 16.8069C186.014 16.659 186.014 16.4619 186.064 16.314C186.162 15.0325 186.162 13.8003 186.211 12.6667C186.261 11.5823 186.31 10.6459 186.31 9.95582C186.359 9.21649 186.359 8.87147 186.359 8.77289C186.31 8.3293 186.261 7.93499 186.113 7.58997C186.014 7.24496 185.866 6.99851 185.768 6.75207C185.62 6.45634 185.423 6.25919 185.275 6.11132C184.634 5.71702 184.043 5.47058 183.501 5.372C183.451 5.372 183.451 5.372 183.402 5.372C182.86 5.32271 182.12 5.372 181.233 5.51986C181.332 5.61844 181.381 5.81559 181.48 5.96346C181.628 6.30848 181.775 6.70278 181.825 7.19567C181.874 7.39282 181.923 7.58997 181.923 7.83642C182.022 8.42788 182.12 9.06863 182.17 9.70937C182.219 10.2515 182.268 10.7937 182.318 11.2866C182.416 12.3709 182.465 13.4553 182.515 14.4411C182.564 15.4268 182.564 16.2154 182.613 16.7576C182.416 16.7576 182.268 16.7576 182.022 16.8069C181.825 16.8069 181.628 16.8562 181.43 16.9055C179.557 17.2012 178.128 17.9898 177.044 19.3699C175.959 20.7007 175.516 22.3765 175.713 24.3973C175.812 25.9252 176.304 27.1082 177.241 27.8475C178.128 28.5868 179.41 28.8825 180.888 28.6361C181.283 28.5868 181.628 28.4882 181.973 28.3897C182.318 28.2911 182.515 28.0446 182.367 27.3546C182.268 26.7631 181.874 26.7631 181.677 26.8124C181.628 26.8124 181.578 26.8617 181.529 26.8617C181.332 26.911 181.036 26.9603 180.74 27.0096C180.198 27.1082 179.705 26.9603 179.262 26.6646C178.818 26.3688 178.522 25.6788 178.424 24.5452C178.375 24.2001 178.424 23.8058 178.424 23.3622C178.473 22.8694 178.572 22.4258 178.769 21.9329C178.966 21.4893 179.262 21.0457 179.656 20.7007C180.05 20.3557 180.642 20.1092 181.332 20.0106C181.43 20.0106 181.677 20.0106 181.923 20.0106C182.219 20.0599 182.416 20.2571 182.515 20.6514C182.515 21.8836 182.564 22.8694 182.564 23.6087C182.564 24.348 182.564 24.8902 182.564 25.1859C182.564 25.2845 182.564 25.4324 182.564 25.5309C182.564 26.6153 183.156 27.8968 183.156 27.8968C183.451 28.3897 183.846 28.8333 184.388 29.1783C184.93 29.5233 185.472 29.6712 186.162 29.5726C186.556 29.474 186.754 29.3754 186.754 29.129C186.951 29.129 186.901 29.0304 186.803 28.9318Z" fill="#00B3E3"/>
    </g>
    <defs>
        <clipPath id="clip0_239_1754">
            <rect width="187" height="43.3737" fill="white"/>
        </clipPath>
    </defs>
</svg>
