<svg width="187" height="37" viewBox="0 0 187 37" fill="none" xmlns="http://www.w3.org/2000/svg">
    <g clip-path="url(#clip0_239_1800)">
        <path fill-rule="evenodd" clip-rule="evenodd" d="M184.276 15.2709C184.628 15.265 184.978 15.3284 185.305 15.4576C185.632 15.5868 185.931 15.7792 186.184 16.0239C186.437 16.2685 186.639 16.5606 186.779 16.8834C186.919 17.2062 186.994 17.5535 187 17.9053C186.988 18.6241 186.698 19.3102 186.189 19.8186C185.681 20.3269 184.995 20.6175 184.276 20.6291C183.554 20.6291 182.861 20.3421 182.35 19.8313C181.839 19.3205 181.552 18.6277 181.552 17.9053C181.558 17.5535 181.633 17.2062 181.773 16.8834C181.913 16.5606 182.116 16.2685 182.369 16.0239C182.622 15.7792 182.92 15.5868 183.248 15.4576C183.575 15.3284 183.924 15.265 184.276 15.2709ZM183.651 18.0839V19.5128H183.294V16.2086H184.589C185.125 16.2086 185.616 16.4318 185.616 17.1016C185.632 17.2651 185.599 17.4299 185.519 17.5736C185.439 17.7173 185.317 17.8331 185.169 17.9053C185.287 17.9456 185.387 18.0255 185.452 18.1314C185.517 18.2373 185.544 18.3626 185.526 18.4858V19.1109C185.526 19.3342 185.571 19.3788 185.705 19.4235V19.5128H185.169C185.133 19.2464 185.118 18.9777 185.125 18.709C185.125 18.4411 185.08 18.0839 184.544 18.0839H183.651ZM183.651 16.6104H184.633C184.857 16.6104 185.169 16.6551 185.169 17.1462C185.176 17.2242 185.166 17.3027 185.139 17.3762C185.112 17.4497 185.07 17.5165 185.014 17.5718C184.959 17.6271 184.892 17.6697 184.819 17.6964C184.745 17.7232 184.667 17.7335 184.589 17.7267H183.651V16.6104ZM184.276 15.5834C184.742 15.5922 185.195 15.7385 185.579 16.0038C185.962 16.2691 186.258 16.6417 186.431 17.0749C186.603 17.508 186.643 17.9823 186.547 18.4384C186.451 18.8945 186.222 19.312 185.889 19.6385C185.557 19.965 185.135 20.186 184.677 20.2738C184.219 20.3615 183.746 20.3121 183.316 20.1318C182.886 19.9514 182.519 19.6481 182.261 19.26C182.003 18.8718 181.865 18.4161 181.865 17.95C181.865 17.6354 181.928 17.324 182.049 17.0339C182.171 16.7438 182.349 16.4809 182.574 16.2606C182.798 16.0403 183.065 15.8669 183.357 15.7506C183.649 15.6343 183.962 15.5775 184.276 15.5834Z" fill="black"/>
        <path d="M14.3777 10.9397L11.1182 14.1546C9.8233 12.8597 8.61772 12.1899 7.54608 12.1899C7.05295 12.1672 6.56617 12.3085 6.16189 12.5918C6.01408 12.6974 5.89556 12.8389 5.81745 13.0029C5.73935 13.167 5.70422 13.3482 5.71538 13.5295C5.71937 13.813 5.83112 14.0844 6.02794 14.2886C6.49201 14.6874 7.02046 15.0044 7.59074 15.2262L9.46609 16.2086C11.4754 17.1909 12.8596 18.2179 13.6187 19.2449C14.3783 20.2949 14.7706 21.5661 14.735 22.8616C14.7561 23.7284 14.5871 24.5893 14.24 25.3839C13.8929 26.1784 13.376 26.8873 12.7256 27.4607C11.3415 28.711 9.5554 29.3361 7.27818 29.3361C5.86627 29.3756 4.46593 29.0711 3.19795 28.4488C1.92998 27.8265 0.832435 26.9051 0 25.764L3.2149 22.2812C3.81318 22.9915 4.54037 23.5824 5.35817 24.0226C6.02283 24.4127 6.77563 24.6278 7.54608 24.6477C8.13849 24.6931 8.72681 24.5182 9.19819 24.1565C9.39013 24.0405 9.54866 23.8766 9.65824 23.681C9.76782 23.4853 9.8247 23.2645 9.8233 23.0402C9.8233 22.2365 9.06423 21.4328 7.54608 20.6737L5.80468 19.7807C2.45583 18.0839 0.759074 15.9853 0.759074 13.4402C0.749852 12.6466 0.912722 11.8605 1.23647 11.1359C1.56022 10.4113 2.03715 9.76552 2.63443 9.24295C3.97803 8.06764 5.71721 7.44536 7.50143 7.50155C8.83553 7.47767 10.1548 7.78447 11.3415 8.39457C12.5366 8.997 13.5759 9.86816 14.3777 10.9397Z" fill="black"/>
        <path d="M72.0227 8.03741H76.4878V10.6272C76.9025 9.67833 77.5854 8.8713 78.4525 8.30532C79.2116 7.77543 80.1166 7.49456 81.0423 7.50159C81.7875 7.51968 82.5195 7.70267 83.1856 8.03741L81.5335 12.5025C81.0775 12.2558 80.5762 12.1039 80.06 12.056C79.2562 12.056 78.5865 12.5472 78.006 13.5742C77.4255 14.6012 77.2023 16.4765 77.2023 19.3789V28.8003H72.0227V8.03741Z" fill="black"/>
        <path d="M88.3204 0H93.5447V8.03725H96.6256V12.5024H93.5447V28.8001H88.3204V12.5024H85.6414V8.03725H88.3204V0Z" fill="black"/>
        <path d="M162.933 0H168.112V16.5657L175.792 8.03725H182.356L173.381 17.9945L183.428 28.8001H176.953L168.112 19.2447V28.8001H162.933V0Z" fill="black"/>
        <path d="M24.9601 8.03726V10.3145C25.8498 9.43207 26.8942 8.72071 28.041 8.21587C29.1518 7.72685 30.355 7.48317 31.5685 7.50145C32.869 7.48885 34.1569 7.75767 35.3438 8.28946C36.5307 8.82126 37.5886 9.60344 38.4448 10.5824C40.3648 12.6364 41.3025 15.2261 41.3025 18.441C41.3025 21.6559 40.3202 24.1564 38.3555 26.2104C36.3909 28.2643 34.1136 29.336 31.4346 29.336C30.2745 29.3393 29.1238 29.1274 28.041 28.7109C26.9125 28.1734 25.8734 27.4656 24.9601 26.6122V36.3909H19.8252V8.03726H24.9601ZM30.4522 12.3238C29.6967 12.2969 28.9441 12.4303 28.2438 12.715C27.5435 12.9998 26.9114 13.4295 26.3889 13.9759C25.2727 15.0922 24.7368 16.5657 24.7368 18.3964C24.6998 19.2133 24.8269 20.0293 25.1107 20.7963C25.3944 21.5632 25.8291 22.2655 26.3889 22.8615C26.9091 23.4138 27.5398 23.8503 28.2399 24.1426C28.94 24.435 29.6938 24.5766 30.4522 24.5583C31.2082 24.5761 31.959 24.4297 32.6528 24.129C33.3467 23.8284 33.9669 23.3807 34.4708 22.8169C35.5738 21.6133 36.1662 20.0283 36.123 18.3964C36.1565 17.5971 36.0317 16.799 35.7558 16.0481C35.48 15.2971 35.0585 14.6081 34.5155 14.0205C34.0026 13.459 33.3732 13.0162 32.6714 12.7232C31.9695 12.4301 31.2122 12.2938 30.4522 12.3238Z" fill="black"/>
        <path d="M101.403 0H106.583V10.1359C107.486 9.29353 108.529 8.61375 109.664 8.12655C110.657 7.72257 111.717 7.51045 112.789 7.50143C113.75 7.48002 114.705 7.65512 115.596 8.016C116.487 8.37687 117.294 8.91591 117.969 9.60005C119.175 10.8503 119.8 12.681 119.8 15.0475V28.8001H114.665V19.6913C114.665 17.2801 114.575 15.6726 114.352 14.8243C114.186 14.0636 113.759 13.3846 113.147 12.9043C112.554 12.4667 111.829 12.246 111.093 12.2791C110.089 12.2733 109.119 12.6392 108.369 13.3061C107.566 14.0752 107.021 15.0732 106.806 16.1638C106.614 17.5841 106.539 19.0178 106.583 20.4503V28.8001H101.403V0Z" fill="black"/>
        <path d="M137.794 8.03719H143.018V10.1805C143.965 9.30602 145.052 8.59663 146.233 8.08184C147.165 7.68804 148.169 7.49045 149.18 7.50137C150.151 7.48227 151.116 7.66262 152.015 8.03127C152.913 8.39992 153.727 8.94904 154.404 9.64464C155.61 10.8949 156.235 12.6809 156.235 15.0921V28.8001H151.056V19.6912C151.102 18.0479 150.998 16.4037 150.743 14.7795C150.582 14.0291 150.153 13.3627 149.537 12.9042C148.966 12.4594 148.252 12.2372 147.528 12.2791C146.525 12.2733 145.554 12.6391 144.804 13.3061C143.993 14.1044 143.447 15.1334 143.242 16.253C143.052 17.6436 142.977 19.0474 143.018 20.4503V28.8001H137.794V8.03719Z" fill="black"/>
        <path d="M126.23 8.03725H131.454V28.8001H126.23V8.03725ZM123.774 0C123.774 1.34232 124.304 2.63033 125.249 3.58366C126.194 4.537 127.477 5.07848 128.819 5.09026C129.491 5.09615 130.158 4.96884 130.781 4.71568C131.404 4.46251 131.97 4.0885 132.448 3.61523C132.925 3.14197 133.304 2.57883 133.562 1.95833C133.821 1.33782 133.954 0.672236 133.954 0L123.774 0Z" fill="black"/>
        <path d="M67.7362 18.5302C67.7362 17.0467 67.444 15.5777 66.8763 14.2071C66.3085 12.8365 65.4764 11.5912 64.4274 10.5422C63.3784 9.49315 62.1331 8.66103 60.7625 8.09332C59.3919 7.5256 57.9229 7.2334 56.4394 7.2334C54.9559 7.2334 53.4869 7.5256 52.1163 8.09332C50.7457 8.66103 49.5003 9.49315 48.4513 10.5422C47.4023 11.5912 46.5702 12.8365 46.0025 14.2071C45.4348 15.5777 45.1426 17.0467 45.1426 18.5302C45.1547 21.5243 46.3411 24.3942 48.4468 26.5228V35.2745L61.2171 28.7107C63.1598 27.81 64.8052 26.3736 65.9599 24.5703C67.1147 22.767 67.7309 20.6716 67.7362 18.5302ZM56.4394 24.2009C55.3178 24.2009 54.2214 23.8683 53.2889 23.2452C52.3563 22.6221 51.6295 21.7365 51.2003 20.7003C50.7711 19.6641 50.6588 18.5239 50.8776 17.4239C51.0964 16.3239 51.6365 15.3135 52.4296 14.5204C53.2226 13.7273 54.2331 13.1872 55.3331 12.9684C56.4331 12.7496 57.5733 12.8619 58.6095 13.2911C59.6457 13.7203 60.5313 14.4472 61.1544 15.3797C61.7775 16.3123 62.1101 17.4086 62.1101 18.5302C62.1101 19.2749 61.9634 20.0123 61.6784 20.7003C61.3935 21.3883 60.9758 22.0134 60.4492 22.54C59.9226 23.0666 59.2975 23.4843 58.6095 23.7693C57.9215 24.0542 57.1841 24.2009 56.4394 24.2009Z" fill="#E52713"/>
    </g>
    <defs>
        <clipPath id="clip0_239_1800">
            <rect width="187" height="36.3909" fill="white"/>
        </clipPath>
    </defs>
</svg>
