<svg width="187" height="46" viewBox="0 0 187 46" fill="none" xmlns="http://www.w3.org/2000/svg">
    <g clip-path="url(#clip0_239_1798)">
        <path d="M162.86 10.6533C157.873 7.93333 151.753 8.72667 147.447 12.4667C143.14 16.2067 141.667 22.2133 143.707 27.4267C145.747 32.64 150.733 36.2667 156.4 36.2667C158.667 36.2667 160.82 35.7 162.86 34.68V36.2667H170V9.06667H162.86V10.6533ZM156.4 29.1267C153.793 29.1267 151.413 27.54 150.507 25.16C149.487 22.78 150.053 19.9467 151.867 18.1333C153.68 16.32 156.513 15.7533 158.893 16.7733C161.273 17.7933 162.86 20.06 162.86 22.6667C162.86 26.18 159.913 29.1267 156.4 29.1267ZM93.6134 31.5067C93.6134 35.1333 90.6667 37.9667 87.1534 37.9667H86.1334V45.3333H87.1534C94.7467 45.3333 100.867 39.2133 100.867 31.5067V9.06667H93.6134V31.5067ZM89.5334 16.2067V9.06667H88.5134C80.92 9.06667 74.8 15.1867 74.8 22.6667V36.2667H82.0534V22.6667C82.0534 19.1533 85 16.2067 88.5134 16.2067H89.5334ZM126.933 9.06667C119.453 9.06667 113.333 15.1867 113.333 22.6667V36.2667H120.473V22.6667C120.587 19.1533 123.42 16.4333 126.933 16.4333C130.447 16.4333 133.28 19.1533 133.393 22.6667V36.2667H140.533V22.6667C140.533 15.1867 134.413 9.06667 126.933 9.06667ZM103.133 9.06667H109.933V36.2667H103.133V9.06667ZM106.533 0C104.607 0 103.133 1.47333 103.133 3.4C103.133 5.32667 104.607 6.8 106.533 6.8C108.46 6.8 109.933 5.32667 109.933 3.4C109.933 1.47333 108.46 0 106.533 0ZM96.3334 6.8C98.26 6.8 99.7334 5.32667 99.7334 3.4C99.7334 1.47333 98.26 0 96.3334 0C94.4067 0 92.9334 1.47333 92.9334 3.4C92.9334 5.32667 94.4067 6.8 96.3334 6.8ZM173.4 0H180.2V36.2667H173.4V0ZM66.64 10.88C62.3334 8.38667 56.8934 8.38667 52.5867 10.88C48.28 13.3733 45.56 17.9067 45.56 22.78C45.56 26.0667 43.0667 28.7867 39.78 29.24C36.4934 29.6933 33.4334 27.6533 32.5267 24.48C31.62 21.3067 33.32 18.02 36.38 16.7733C39.44 15.5267 42.9534 16.7733 44.6534 19.6067C45.22 17 46.4667 14.62 48.3934 12.6933C44.0867 8.72667 37.6267 7.93333 32.3 10.6533V9.06667H24.9334V45.3333H32.3V35.02C34.34 36.1533 36.6067 36.6067 38.8734 36.6067C46.58 36.6067 52.9267 30.4867 52.9267 22.78C52.9267 19.4933 55.42 16.7733 58.7067 16.32C61.9934 15.8667 65.0534 17.9067 65.96 21.08C66.8667 24.2533 65.1667 27.54 62.1067 28.7867C59.0467 30.0333 55.5334 28.7867 53.8334 26.0667C53.2667 28.6733 52.02 31.0533 50.0934 32.98C54.1734 36.72 60.18 37.6267 65.1667 35.4733C70.38 33.32 73.6667 28.3333 73.6667 22.8933C73.6667 17.9067 70.9467 13.3733 66.64 10.88ZM13.8267 19.04H8.84003C8.04669 19.04 7.36669 18.36 7.36669 17.68C7.36669 17 8.04669 16.32 8.84003 16.32H22.44V9.06667H8.84003C5.66669 8.95333 2.72003 10.6533 1.13336 13.26C-0.453307 15.98 -0.453307 19.2667 1.13336 21.9867C2.72003 24.7067 5.66669 26.2933 8.84003 26.18H13.7134C14.5067 26.18 15.0734 26.86 15.0734 27.54C15.0734 28.3333 14.5067 28.9 13.7134 28.9H0.113359V36.2667H13.7134C16.8867 36.38 19.8334 34.68 21.42 32.0733C23.0067 29.3533 23.0067 26.0667 21.42 23.3467C19.8334 20.6267 16.8867 19.04 13.8267 19.04ZM185.3 0H184.733V0.113333C184.053 0.34 183.6 1.02 183.6 1.7C183.6 2.60667 184.393 3.4 185.3 3.4C185.753 3.4 186.207 3.17333 186.547 2.94667C186.887 2.60667 187 2.15333 187 1.7C187 0.793333 186.207 0 185.3 0ZM185.187 0.226667H185.3C185.413 0.226667 185.413 0.226667 185.527 0.34C185.527 0.453333 185.64 0.453333 185.64 0.566667C185.64 0.68 185.64 0.68 185.64 0.793333C185.64 0.906667 185.527 0.906667 185.527 0.906667C185.413 0.906667 185.413 0.906667 185.3 0.906667H184.96V0.226667C184.96 0.226667 185.073 0.226667 185.187 0.226667ZM185.3 3.17333C184.507 3.17333 183.827 2.49333 183.827 1.7C183.827 1.13333 184.167 0.566667 184.733 0.34V2.26667H184.96V1.24667H185.3C185.3 1.24667 185.3 1.24667 185.413 1.24667L185.527 1.36C185.527 1.47333 185.64 1.58667 185.64 1.7L185.867 2.15333H186.093L185.867 1.58667C185.867 1.47333 185.753 1.36 185.753 1.24667L185.64 1.13333C185.753 1.13333 185.867 1.02 185.867 0.906667C185.98 0.793333 185.98 0.68 185.98 0.453333C185.98 0.34 185.98 0.226667 185.98 0.113333C186.547 0.34 187 0.793333 187 1.47333C186.773 2.49333 186.093 3.17333 185.3 3.17333Z" fill="black"/>
    </g>
    <defs>
        <clipPath id="clip0_239_1798">
            <rect width="187" height="45.3333" fill="white"/>
        </clipPath>
    </defs>
</svg>
