<svg width="142" height="100" viewBox="0 0 142 150" fill="none" xmlns="http://www.w3.org/2000/svg">
    <g clip-path="url(#clip0_223_565)">
        <path d="M68.964 19.6273C43.8205 19.6273 23.4426 37.2503 23.4426 58.9722C23.4426 80.694 43.8205 98.317 68.964 98.317C94.1075 98.317 114.477 80.7009 114.477 58.9722C114.477 37.2434 94.0994 19.6273 68.964 19.6273ZM137.19 58.9791C137.19 91.5549 106.647 117.958 68.964 117.958C31.2809 117.958 0.746094 91.5549 0.746094 58.9791C0.746094 26.4033 31.2889 0 68.964 0C106.639 0 137.19 26.4102 137.19 58.9791Z" fill="#E30613"/>
        <path d="M68.9641 38.7622C56.0474 38.7622 45.5776 47.813 45.5776 58.9791C45.5776 70.1451 56.0474 79.2028 68.9641 79.2028C81.8808 79.2028 92.3506 70.1521 92.3506 58.9791C92.3506 47.806 81.8808 38.7622 68.9641 38.7622Z" fill="#E30613"/>
        <path d="M7.50132 131.857H0V127.848H20.4983V131.857H13.005V149.487H7.50132V131.857Z" fill="#E30613"/>
        <path d="M18.1237 149.487H23.6916L25.6572 144.667H35.0117L36.8971 149.487H42.6174L33.2628 127.848H27.6147L18.1157 149.487H18.1237ZM30.3505 133.188H30.4227L33.5757 141.123H27.1013L30.3585 133.188H30.3505Z" fill="#E30613"/>
        <path d="M44.7915 149.487H50.2951V141.026H55.7988C58.5667 141.026 59.5856 142.024 59.9706 144.292C60.2434 146.019 60.1792 148.12 60.8451 149.48H66.3488C65.378 148.252 65.4101 145.707 65.3058 144.348C65.1293 142.17 64.3591 139.902 61.6554 139.292V139.236C64.4233 138.265 65.6107 136.351 65.6107 133.813C65.6107 130.546 62.7706 127.848 58.2939 127.848H44.7995V149.487M50.2951 131.545H56.3203C58.7672 131.545 60.099 132.446 60.099 134.548C60.099 136.649 58.7672 137.634 56.3203 137.634H50.2951V131.552V131.545Z" fill="#E30613"/>
        <path d="M87.4804 147.018C85.563 149.182 83.0278 150 80.5969 150C72.8629 150 68.314 145 68.314 138.744C68.314 132.488 72.8709 127.328 80.5969 127.328C85.7315 127.328 90.5532 130.061 91.1549 134.964H85.8999C85.2742 132.571 83.2043 131.337 80.5969 131.337C75.6709 131.337 73.8096 134.964 73.8096 138.751C73.8096 142.537 75.6709 145.998 80.5969 145.998C84.175 145.998 86.253 144.327 86.5658 141.345H81.0221V137.794H91.548V149.494H88.042L87.4804 147.032" fill="#E30613"/>
        <path d="M95.3027 127.848H114.012V131.857H100.798V136.483H112.921V140.172H100.798V145.471H114.277V149.487H95.3027V127.848Z" fill="#E30613"/>
        <path d="M124.233 131.857H116.748V127.848H137.238V131.857H129.737V149.487H124.233V131.857Z" fill="#E30613"/>
        <path d="M137.358 145.561C137.992 145.561 138.546 145.527 138.546 144.868C138.546 144.348 138 144.25 137.479 144.25H136.468V145.561H137.358ZM136.476 147.94H135.738V143.703H137.599C138.754 143.703 139.332 144.07 139.332 144.902C139.332 145.658 138.778 145.991 138.064 146.068L139.452 147.933H138.618L137.326 146.095H136.468V147.933L136.476 147.94ZM137.374 148.883C139.292 148.883 140.816 147.58 140.816 145.811C140.816 144.042 139.3 142.759 137.374 142.759C135.449 142.759 133.917 144.07 133.917 145.811C133.917 147.552 135.433 148.883 137.374 148.883ZM133.058 145.811C133.058 143.703 135.032 142.149 137.366 142.149C139.701 142.149 141.659 143.703 141.659 145.811C141.659 147.919 139.677 149.487 137.366 149.487C135.056 149.487 133.058 147.933 133.058 145.811Z" fill="#1D1D1B"/>
    </g>
    <defs>
        <clipPath id="clip0_223_565">
            <rect width="141.667" height="150" fill="white"/>
        </clipPath>
    </defs>
</svg>
