<svg width="187" height="63" viewBox="0 0 187 63" fill="none" xmlns="http://www.w3.org/2000/svg">
    <g clip-path="url(#clip0_221_400)">
        <path d="M13.4654 0.164441C13.4654 5.09764 13.5402 10.0308 13.4654 14.964C13.4654 16.5338 13.9888 16.9072 15.4085 16.833C17.7257 16.6834 20.1173 16.833 22.5093 16.833C22.5093 18.4777 22.5093 19.898 22.5093 21.5419C20.0425 21.5419 17.5761 21.6167 15.1841 21.5419C13.8386 21.4671 13.39 21.8411 13.39 23.2617C13.4648 35.296 13.39 47.4047 13.39 59.4394C13.39 60.0378 13.39 60.7104 13.39 61.3825C11.5209 61.3825 9.87694 61.3825 7.93305 61.3825C7.93305 60.7104 7.85825 60.112 7.85825 59.4394C7.85825 47.4047 7.85825 35.3708 7.85825 23.4109C7.85825 21.9159 7.4844 21.3929 5.9151 21.4677C3.97195 21.6173 2.0282 21.4677 0.0102539 21.4677C0.0102539 19.898 0.0102539 18.4777 0.0102539 16.7589C2.0282 16.7589 4.04675 16.6841 6.0647 16.7589C7.4102 16.8337 7.85885 16.3851 7.85885 14.9646C7.7094 9.95663 7.7094 5.02344 7.7094 0.0154419C9.65345 0.164441 11.5224 0.164441 13.4654 0.164441Z" fill="#010202"/>
        <path d="M129.4 0.164429C129.4 5.17242 129.474 10.2554 129.4 15.2632C129.4 16.5338 129.848 16.9078 131.044 16.833C133.511 16.7582 135.978 16.833 138.519 16.833C138.519 18.4777 138.519 19.898 138.519 21.5419C135.529 21.5419 132.614 21.5419 129.549 21.5419C129.549 34.9224 129.549 48.1521 129.549 61.4573C127.68 61.4573 125.961 61.4573 124.018 61.4573C124.018 60.9337 123.943 60.3359 123.943 59.738C123.943 48.9738 123.943 38.2109 123.943 27.4468C123.943 25.5778 123.793 23.7095 123.793 21.8405C121.924 21.7657 120.056 21.6909 118.187 21.6161C117.588 21.6161 116.916 21.6161 116.169 21.6161C116.169 20.1212 116.169 18.6259 116.169 16.9072C118.187 16.9072 120.205 16.8324 122.223 16.9072C123.569 16.982 124.018 16.608 124.018 15.1878C123.868 10.1798 123.943 5.24647 123.868 0.238478C125.662 0.164429 127.53 0.164429 129.4 0.164429Z" fill="#010202"/>
        <path d="M186.955 39.4813C173.65 39.4813 160.345 39.4813 147.04 39.4813C146.143 45.3862 150.105 52.5621 155.636 55.5517C160.27 58.0185 165.054 58.0933 169.987 56.5235C174.995 54.9538 178.285 51.4404 180.826 46.8816C182.471 47.7033 183.891 48.5256 185.385 49.273C181.05 59.9624 167.895 65.2687 156.01 61.3077C145.022 57.6452 138.594 44.714 141.882 32.6789C145.245 20.2714 156.756 13.4688 169.763 16.3097C180.377 18.7013 187.553 28.8672 186.955 39.4813ZM180.825 34.6976C179.555 25.728 171.556 20.7947 163.633 20.9444C155.56 21.094 147.786 27.6719 147.563 34.6976C158.551 34.6976 169.613 34.6976 180.825 34.6976Z" fill="#010202"/>
        <path d="M70.1244 16.9078C72.1424 16.9078 73.8617 16.9078 75.7307 16.9078C75.7307 31.7823 75.7307 46.5077 75.7307 61.3826C73.9365 61.3826 72.2178 61.3826 70.1992 61.3826C70.1992 58.9911 70.1992 56.5987 70.1992 54.2073C70.1244 54.1325 69.9748 54.0577 69.9 53.9829C63.7708 61.0834 56.2215 63.8493 47.102 61.9804C41.1971 60.7842 36.7121 57.3461 33.274 52.5616C26.5465 43.218 28.266 29.6143 36.7869 21.5413C44.4113 14.2911 61.304 12.1976 70.1244 24.8301C70.1244 22.0655 70.1244 19.5988 70.1244 16.9078ZM70.5732 39.4065C70.5732 29.0168 62.8742 21.0931 52.7834 21.0931C42.8421 21.0931 34.8438 29.1664 34.8438 39.2574C34.8438 49.3479 42.9169 57.6453 52.7834 57.6453C62.8742 57.4957 70.5732 49.7219 70.5732 39.4065Z" fill="#010202"/>
        <path d="M92.5493 61.4573C90.5314 61.4573 88.812 61.4573 87.0176 61.4573C87.0176 46.5831 87.0176 31.8573 87.0176 16.9826C88.812 16.9826 90.5308 16.9826 92.5493 16.9826C92.5493 18.9257 92.5493 20.8695 92.5493 22.8128C92.6241 22.8871 92.7737 22.9624 92.8485 23.0367C97.0345 17.5801 101.818 13.768 109.368 17.132C108.321 18.7767 107.424 20.2718 106.527 21.6912C101.07 20.4952 97.1084 22.5878 94.7917 27.6709C92.9971 31.6326 92.7737 35.8186 92.6989 40.004C92.5493 46.5068 92.6241 53.01 92.6241 59.5133C92.5493 60.112 92.5493 60.7096 92.5493 61.4573Z" fill="#010202"/>
    </g>
    <defs>
        <clipPath id="clip0_221_400">
            <rect width="187" height="62.6337" fill="white"/>
        </clipPath>
    </defs>
</svg>
