<svg width="187" height="60" viewBox="0 0 187 60" fill="none" xmlns="http://www.w3.org/2000/svg">
    <g clip-path="url(#clip0_213_143)">
        <path d="M185.489 31.299C184.546 29.6564 183.341 28.2926 182.04 27.1577C182.477 26.9088 182.914 26.5703 183.35 26.1024C185.341 23.9421 186.345 20.3185 184.581 17.9889C179.718 11.5479 171.537 10.7117 166.743 13.6385C164.744 14.8531 163.207 16.3364 162.089 18.0984C161.408 16.3165 159.941 15.1716 158.055 15.0721C157.339 15.0322 156.099 15.1119 155.183 15.2114C152.886 15.4404 151.236 17.3618 150.965 20.0497C150.572 19.1935 149.97 18.4767 149.175 17.9989C148.556 17.6306 147.578 17.2124 146.259 16.6549C146.268 16.6549 145.08 16.1572 145.08 16.1572C145.098 16.1572 145.107 16.1671 145.124 16.1771C142.609 15.0522 140.313 15.8884 138.838 18.4668C138.156 19.6515 136.986 21.9511 135.991 25.1865C136.375 19.2831 136.445 14.9526 136.445 14.5444C136.445 14.5942 136.445 14.644 136.445 14.6838C136.681 10.5026 135.362 7.96405 131.896 5.93319C120.467 -0.796526 109.71 -0.906033 103.449 1.23434C96.9444 3.45435 92.081 9.57679 90.9808 16.874C85.5586 13.3498 80.5643 13.7182 77.1328 15.5897C77.1852 14.7435 77.0717 13.7978 76.5304 12.9217C75.5088 11.2592 73.7276 11.1497 73.0553 11.1099C71.0558 10.9904 69.2833 10.9904 68.3927 11.0004C68.288 11.0004 68.1483 11.0004 67.9911 10.9805C67.0306 10.9307 64.7779 10.8013 63.477 13.4295C63.4682 13.4494 63.4595 13.4792 63.442 13.4991C62.403 15.7192 61.2068 18.2179 60.3162 19.9999L55.8894 13.4295C55.8894 13.4295 55.8283 13.3399 55.7933 13.3L55.741 13.2304C54.4662 11.5081 52.8771 11.1597 50.7466 12.1253C49.2623 12.8023 47.1318 13.8476 45.7261 14.6639C45.1498 15.0024 43.7964 15.7789 43.3948 17.5708C43.2987 17.9989 43.2725 18.417 43.2987 18.8152C42.024 18.1383 40.6531 17.6604 39.195 17.4314C36.8812 17.0631 34.6023 17.302 32.5067 18.0785C32.5242 16.8043 31.9916 13.1806 31.4852 11.9959C31.4852 11.976 31.4502 11.9063 31.4328 11.8565C30.4811 9.37769 28.7261 8.36226 26.2202 8.85006C17.5062 10.5424 14.3804 10.7316 4.78461 10.8311C1.32698 10.861 0.462575 13.2901 0.253022 14.3254C-0.070039 15.8784 -0.0613076 22.7973 0.148246 24.3005C0.689591 28.4419 4.03371 28.3623 5.13386 28.3423C6.76663 28.3025 7.91918 28.2229 8.8447 28.1632C8.99314 28.1632 9.14157 28.1432 9.27254 28.1333C9.46463 31.5579 10.3116 39.2831 11.892 46.7396L11.9094 46.8192C12.9223 51.6773 16.3275 51.2294 17.3491 50.9805C18.554 50.6818 22.7713 49.3379 24.3516 48.641C25.8272 47.9939 26.7353 46.5106 26.7877 44.6788C26.7877 44.5395 26.7877 44.4001 26.7877 44.2508C27.6434 45.2562 28.63 46.1223 29.7389 46.8491C32.987 48.9695 37.1082 49.5867 40.4872 48.4419C42.7836 47.6654 44.7307 46.5703 46.3198 45.1666C46.6079 45.8436 46.9921 46.421 47.3326 46.8889C47.9875 47.7849 51.4626 52.2946 54.9377 52.8421C56.1601 53.0412 56.8149 52.7824 57.6007 52.4041L57.6793 52.3642C60.2202 51.1298 63.8175 46.1024 68.3578 37.4314C68.5499 37.0631 68.742 36.6948 68.9253 36.3364C68.6983 37.0034 68.5499 37.6704 68.48 38.2876C68.2268 40.6569 69.2659 42.0208 70.0779 42.8371L70.3486 43.1159C72.1298 44.9675 75.8406 48.8202 82.7122 49.1686C83.3496 49.1985 85.611 49.2284 88.0645 48.2328C88.0296 50.1044 89.0774 51.5081 89.4354 51.986C89.4528 52.0059 89.4616 52.0258 89.479 52.0457C89.8894 52.5733 93.574 57.1925 96.6824 58.7555C100.804 60.8262 102.716 60.4578 105.973 56.9735C107.474 55.3707 110.207 51.4583 113.569 45.1467C113.394 47.0979 113.15 49.8854 113.071 50.6121C112.818 52.8122 112.67 55.1019 114.005 56.8441C115.219 58.4469 117.027 58.6559 118.275 58.6659C118.336 58.6659 118.389 58.6659 118.45 58.6659C118.694 58.6559 124.387 58.2975 126.491 57.9591C130.097 57.4016 131.032 56.0676 131.861 53.091L132.053 52.424C133.153 48.651 133.983 44.201 134.603 39.7112C135.319 42.9964 137.065 45.7839 139.615 47.5459C143.509 50.2438 148.486 50.0746 152.913 47.088C154.833 45.7938 156.37 44.1114 157.61 42.2199C157.732 42.4588 157.863 42.6679 157.977 42.857L158.073 43.0263C159.557 45.5151 164.359 50.3931 171.868 51.0302C174.514 51.2592 179.482 51.0701 183.027 47.317C183.926 46.3613 186.1 43.7132 186.816 39.761C187.358 36.7346 186.904 33.748 185.524 31.3488L185.489 31.299Z" fill="white"/>
        <path d="M130.683 8.59141C120.51 2.60833 110.461 1.98115 104.209 4.11157C92.6574 8.06378 89.0775 24.7985 99.7822 33.0115C100.428 33.5093 100.027 34.5546 99.2059 36.2171C98.2018 38.2878 96.342 42.3694 93.0503 45.3161C91.077 47.0882 89.7847 47.8249 91.4175 50.015C91.4175 50.015 95.0323 54.6342 97.7128 55.9782C100.935 57.5909 101.747 57.3221 104.139 54.7636C105.65 53.1509 108.636 48.7507 112.251 41.7422C114.119 38.0986 116.625 38.0289 116.284 44.022C116.284 44.022 115.787 49.796 115.656 50.9807C115.254 54.4252 115.569 55.6098 118.267 55.6397C118.267 55.6397 124.073 55.2713 126.09 54.9528C128.928 54.5148 128.77 53.9871 129.513 51.4386C133.477 37.8298 133.808 14.4849 133.808 14.4849C133.983 11.349 133.11 10.015 130.683 8.59141ZM123.252 21.1748C123.252 21.1748 119.646 23.9921 119.559 24.0717C119.253 24.3405 118.834 24.6591 118.773 25.9632C118.747 26.5108 118.607 30.3435 118.598 30.8313C118.598 31.359 118.389 32.8025 116.922 31.339C116.922 31.339 114.468 28.8901 114.102 28.5217C114.014 28.4421 113.176 27.347 111.866 27.9941L108.025 29.7462C108.025 29.7462 105.711 30.8214 106.575 28.452C107.413 26.1424 107.972 24.241 108.156 23.6238C108.348 22.9767 108.278 22.0708 107.815 21.4336C107.605 21.1449 105.754 18.3674 105.335 17.6805C105.335 17.6805 103.816 15.6297 106.339 15.7691C106.339 15.7691 110.653 15.8786 110.723 15.8886C110.792 15.8886 111.604 15.9583 112.181 14.9229C112.888 13.6487 114.975 10.672 114.538 11.3092C114.905 10.7816 115.743 9.47742 116.302 11.6377C116.302 11.6377 117.096 14.4749 117.472 15.6696C117.725 16.4859 117.891 17.0235 119.175 17.4914L123.139 19.124C123.139 19.124 124.99 19.7811 123.243 21.1748" fill="#0060AE"/>
        <path d="M47.1669 26.6899C45.3158 23.1956 42.3559 20.9557 38.8284 20.3883C34.323 19.6615 29.9573 21.7621 27.4514 25.8537C25.6091 28.8601 25.0154 32.4938 25.7837 36.0677C27.6348 44.6889 35.0652 47.0981 39.719 45.5252C44.9666 43.7531 47.9003 40.2589 48.6949 34.8333C49.079 32.225 48.5202 29.2584 47.1669 26.6899ZM34.3929 38.3475C32.926 37.79 31.8258 35.122 32.3585 32.215C32.8911 29.3181 34.6723 27.3071 36.34 27.9144C37.8156 28.452 38.8983 31.2793 38.3831 34.1862C37.8418 37.2723 36.078 38.9945 34.3929 38.3475Z" fill="#F4811F"/>
        <path d="M141.047 20.0995C140.619 20.8461 137.266 26.65 136.847 35.5698C136.663 39.532 138.191 43.0362 140.942 44.9377C143.998 47.0482 147.953 46.869 151.533 44.4598C159.225 39.2732 160.081 26.202 159.863 20.3085C159.819 18.9447 159.112 18.1283 157.933 18.0686C157.479 18.0387 156.51 18.0885 155.401 18.198C154.292 18.3075 153.62 19.1935 153.559 20.6271V21.0153C153.498 26.5007 153.175 31.3488 151.088 34.3453C149.717 36.3165 148.084 37.1029 147.01 36.5952C146.05 36.1472 145.439 34.6739 145.587 33.1706C145.954 29.4275 147.342 26.4807 148.198 24.5992L148.564 23.7928C149.088 22.5285 148.826 21.1746 147.944 20.6569C147.438 20.3583 146.32 19.8904 145.342 19.4822L144.155 18.9745C143.317 18.5962 142.068 18.3075 141.038 20.1094L141.047 20.0995Z" fill="#72BD44"/>
        <path d="M167.992 16.2868C164.656 18.3177 162.936 21.0952 162.587 25.0275C162.107 30.3435 168.446 34.0369 169.948 34.9727C171.764 36.0977 171.825 37.3918 171.353 38.1683C170.611 39.3829 168.559 39.0344 167.04 38.3475C165.372 37.5909 164.534 36.685 163.163 34.8632C162.36 33.798 159.915 36.8443 159.531 38.9747C159.356 39.9503 159.688 40.3983 160.212 41.2744C161.539 43.5043 165.818 47.4466 172.026 47.9842C173.737 48.1335 178.19 48.253 181.194 45.0673C182.416 43.7731 183.734 41.6427 184.197 39.0942C184.512 37.3421 184.485 35.0324 183.289 32.9319C181.604 29.9852 178.784 28.024 175.658 26.3416C171.1 23.8926 171.982 22.4491 172.995 21.7721C173.947 21.1449 177.195 21.583 179.735 24.3406C181.028 25.7343 183.7 21.4038 182.582 19.9304C178.522 14.5446 171.624 14.0568 167.983 16.2768L167.992 16.2868Z" fill="#EC135A"/>
        <path d="M74.2517 16.655C71.7109 26.0328 60.8665 47.5062 56.6318 49.5669C56.0293 49.8556 55.9158 49.9352 55.2959 49.8357C53.0432 49.4773 50.2491 46.1423 49.3411 44.9178C48.9394 44.3703 48.075 43.1259 48.7735 42.4688C51.4192 39.98 54.7022 36.1672 54.8593 33.9472C54.8942 33.4494 54.7633 32.9517 54.6148 32.7128C54.3704 32.3245 47.4988 21.6326 46.8003 20.4878C45.6302 18.5465 45.639 18.0786 46.9312 17.332C48.2235 16.5853 50.2841 15.5599 51.7335 14.9029C53.1829 14.2459 53.4012 14.7038 53.8116 15.2513L59.9672 24.4002C60.4125 24.7585 60.8141 24.659 61.1372 24.211C61.923 23.1159 65.2497 16.0278 65.7735 14.9128C66.3847 13.6784 67.3976 14.0069 68.4192 14.0069C69.5018 14.0069 71.1695 14.0069 72.9245 14.1164C74.6097 14.216 74.7669 14.7735 74.2517 16.665V16.655Z" fill="#72BD44"/>
        <path d="M77.3339 18.8949C74.5661 20.9257 73.2389 23.4842 73.1778 26.9287C73.0905 31.5878 78.5563 34.6639 79.9184 35.3608C81.5599 36.197 81.7957 37.1925 81.5075 37.9491C81.071 39.0641 80.0931 39.2732 78.9405 38.9845C76.8537 38.4768 75.2297 36.3264 73.5795 35.2513C72.6452 34.644 71.2831 36.7346 71.0823 38.6161C70.9862 39.4723 71.2132 39.9501 71.8157 40.5574C73.3524 42.1303 76.5219 45.8137 82.8085 46.1323C84.3016 46.2119 88.1871 45.8635 90.5969 42.857C91.5748 41.6425 92.5964 40.0198 92.8409 37.7799C93.0068 36.2269 92.7012 34.3354 91.6709 32.4937C90.8065 30.9506 89.2261 29.4076 86.4495 28.0636C81.9529 25.8735 83.3761 23.6833 84.4413 23.2652C85.3494 22.9068 86.9559 23.1856 89.6103 25.0771C91.0509 26.1024 92.9631 22.0805 91.7669 21.0651C85.8034 15.988 80.355 16.6848 77.3252 18.9048L77.3339 18.8949Z" fill="#EC135A"/>
        <path d="M4.8022 13.8078C14.5552 13.7182 17.8556 13.4992 26.6568 11.7869C28.6389 11.3987 28.8048 12.5634 29.1191 13.3101C29.3898 13.9273 29.9049 17.1826 29.87 18.0189C29.8351 18.8451 30.1843 20.0497 28.9969 20.4479C25.286 21.6724 24.3168 22.0507 21.8546 22.9168C20.7195 23.315 20.7894 23.8725 20.8243 24.9079C20.9989 30.6022 22.6055 38.1184 23.7406 42.3195C24.2208 44.0915 24.4303 45.3558 23.3826 45.8138C21.9244 46.4509 17.8556 47.7551 16.7729 48.0238C14.8869 48.4917 14.6163 46.8591 14.4329 46.0228C12.8351 38.4569 12.0318 30.7516 11.8834 27.8745C11.8048 26.4011 11.3944 25.0373 10.2244 25.0672C9.01946 25.097 7.67482 25.2663 5.05541 25.326C3.65839 25.3559 2.91622 25.2663 2.73286 23.8427C2.5495 22.429 2.60189 15.998 2.80271 14.9925C3.00354 13.987 3.99891 13.8277 4.79347 13.8178L4.8022 13.8078Z" fill="#EC135A"/>
    </g>
    <defs>
        <clipPath id="clip0_213_143">
            <rect width="187" height="60" fill="white"/>
        </clipPath>
    </defs>
</svg>
