<svg width="187" height="100" viewBox="0 0 187 187" fill="none" xmlns="http://www.w3.org/2000/svg">
    <g clip-path="url(#clip0_225_967)">
        <path fill-rule="evenodd" clip-rule="evenodd" d="M187 0H0V187H187V0Z" fill="white"/>
        <path fill-rule="evenodd" clip-rule="evenodd" d="M99.9932 83.886C99.1188 83.873 98.4436 83.6652 97.9588 83.2626C97.4739 82.8557 97.2315 82.3233 97.2229 81.6653H96.0238V97.9499H97.2229C97.2315 97.2876 97.4739 96.7552 97.9588 96.3526C98.4436 95.9457 99.1188 95.738 99.9932 95.7293H114.875V103.421C113.59 104.564 111.313 105.824 108.04 107.196C104.768 108.573 100.417 109.321 94.9849 109.443C90.4787 109.447 86.3405 108.581 82.5572 106.841C78.7783 105.101 75.7395 102.452 73.4366 98.8936C71.1381 95.3354 69.9564 90.8249 69.8914 85.3707C69.9477 80.1546 71.1424 75.8216 73.4799 72.363C75.8174 68.9043 78.9601 66.3201 82.9122 64.6016C86.8643 62.8831 91.2882 62.026 96.1883 62.0303C100.067 62.0823 103.573 62.6147 106.703 63.6233C109.837 64.6319 112.33 65.8006 114.183 67.1296C116.035 68.4585 116.988 69.6272 117.031 70.6358C117.018 71.2981 116.957 71.8219 116.858 72.2115L118.057 73.0426L126.446 57.8705L125.234 57.3164C125.052 57.6021 124.788 57.8402 124.446 58.0349C124.104 58.2297 123.732 58.3293 123.334 58.338C123 58.312 122.07 57.9484 120.546 57.2385C119.022 56.5286 117.096 55.6325 114.771 54.5417C112.282 53.6673 109.425 52.8881 106.205 52.2042C102.984 51.5159 99.5863 51.1566 96.0108 51.1177C89.8727 51.1004 83.8905 52.3081 78.0597 54.7408C72.2333 57.1779 67.4024 60.9482 63.5715 66.0604C59.7406 71.1726 57.7581 77.7305 57.6152 85.7343C57.7061 93.7424 59.4636 100.3 62.8789 105.408C66.2943 110.516 70.8178 114.291 76.4451 116.728C82.0724 119.165 88.2495 120.373 94.9719 120.351C99.9976 120.286 104.725 119.637 109.157 118.407C113.585 117.178 117.486 115.763 120.858 114.161C124.23 112.559 126.84 111.17 128.693 109.997V108.702C128.134 108.577 127.736 108.343 127.493 107.997C127.251 107.651 127.13 107.114 127.139 106.387V88.1454C127.152 87.1455 127.32 86.4183 127.636 85.9724C127.952 85.5265 128.333 85.2625 128.783 85.1846V83.8903H99.9889L99.9932 83.886Z" fill="black"/>
        <path fill-rule="evenodd" clip-rule="evenodd" d="M167.906 72.4538C168.408 72.4495 168.863 72.3283 169.278 72.0946C169.694 71.8608 170.023 71.5362 170.274 71.1249C170.525 70.7137 170.651 70.2419 170.659 69.7094C170.651 69.1813 170.525 68.7138 170.274 68.3026C170.023 67.8914 169.694 67.5711 169.278 67.3373C168.863 67.1036 168.408 66.9824 167.906 66.978C167.4 66.9824 166.941 67.1036 166.525 67.3373C166.11 67.5711 165.777 67.8957 165.53 68.3026C165.279 68.7138 165.153 69.1813 165.145 69.7094C165.149 70.2419 165.279 70.7137 165.53 71.1249C165.781 71.5362 166.11 71.8608 166.525 72.0946C166.941 72.3283 167.4 72.4495 167.906 72.4538ZM165.69 69.7094C165.69 69.2722 165.794 68.8827 165.989 68.545C166.183 68.2031 166.447 67.9347 166.781 67.7356C167.114 67.5364 167.491 67.4369 167.911 67.4325C168.326 67.4325 168.698 67.5364 169.027 67.7356C169.356 67.9347 169.62 68.2031 169.815 68.545C170.01 68.887 170.11 69.2766 170.114 69.7094C170.11 70.151 170.01 70.5449 169.815 70.8912C169.62 71.2331 169.361 71.5059 169.027 71.7006C168.698 71.8954 168.326 71.9993 167.911 71.9993C167.491 71.9993 167.114 71.8954 166.781 71.7006C166.447 71.5059 166.183 71.2331 165.989 70.8912C165.794 70.5492 165.694 70.1553 165.69 69.7094ZM167.331 69.9259H167.876L168.703 71.2937H169.235L168.343 69.9042C168.577 69.8783 168.772 69.796 168.923 69.6618C169.075 69.5233 169.153 69.3155 169.157 69.0385C169.157 68.7268 169.066 68.5017 168.88 68.3546C168.694 68.2074 168.417 68.1381 168.049 68.1381H166.854V71.2981H167.331V69.9302V69.9259ZM167.331 69.519V68.5407H167.98C168.153 68.5364 168.309 68.5623 168.447 68.6273C168.586 68.6879 168.659 68.8134 168.664 69.0082C168.655 69.2419 168.582 69.3891 168.434 69.4497C168.287 69.5103 168.11 69.532 167.902 69.5233H167.335L167.331 69.519Z" fill="black"/>
        <path fill-rule="evenodd" clip-rule="evenodd" d="M58.9614 101.681C57.7969 98.9542 57.0178 96.0583 56.546 93.0628C56.4074 92.1754 56.3079 91.4222 56.217 90.5305C56.0481 88.8553 55.9702 87.4355 55.9529 85.7516C55.9529 85.7343 55.9529 85.717 55.9529 85.6997C55.9702 84.6045 56.0178 83.6782 56.1044 82.5873C56.1823 81.5874 56.2776 80.7433 56.4204 79.7477C56.5676 78.7434 56.7191 77.8993 56.9355 76.9081C57.1347 76.0034 57.3294 75.2459 57.5935 74.3585C58.1519 72.4798 58.7622 70.9345 59.6323 69.1987C60.4288 67.6144 61.2209 66.3374 62.2728 64.9306C62.697 64.3678 63.1299 63.8181 63.5758 63.2856V58.5803C63.5541 57.8272 63.658 57.2904 63.8831 56.9701C64.1082 56.6497 64.5843 56.4939 65.3072 56.5026V55.5416H53.0094V56.5026C53.7323 56.4939 54.2171 56.6497 54.4638 56.9701C54.7106 57.2904 54.8231 57.8272 54.8058 58.5803V87.2753C54.8404 90.0846 54.4552 92.4178 53.6544 94.1277C52.8536 95.8375 51.4338 97.0755 49.3993 97.8417C47.3604 98.6079 44.5035 98.9845 40.8284 98.9715C37.149 98.9845 34.2921 98.6079 32.2576 97.8417C30.2188 97.0755 28.8033 95.8375 28.0025 94.1277C27.2017 92.4178 26.8207 90.0846 26.851 87.2753V58.5803C26.8337 57.8272 26.9463 57.2904 27.193 56.9701C27.4397 56.6497 27.9202 56.4939 28.6475 56.5026V55.5416H16.3496V56.5026C17.0725 56.4939 17.5443 56.6497 17.7738 56.9701C18.0032 57.2904 18.1027 57.8272 18.0811 58.5803V88.9419C18.1417 95.4999 20.1545 100.119 24.124 102.798C28.0934 105.478 33.6644 106.767 40.8328 106.677C48.0054 106.767 53.5765 105.478 57.5415 102.798C58.048 102.456 58.5198 102.084 58.9657 101.677L58.9614 101.681Z" fill="black"/>
        <path fill-rule="evenodd" clip-rule="evenodd" d="M112.784 82.0939H122.351C122.329 81.7173 122.316 81.3364 122.312 80.9468C122.355 77.0077 123.286 73.7352 125.104 71.1249C126.922 68.5147 129.372 66.5625 132.445 65.2639C135.523 63.9653 138.969 63.3203 142.782 63.3203C145.804 63.3592 148.531 63.7618 150.968 64.5237C153.405 65.2855 155.348 66.1686 156.79 67.1728C158.231 68.1771 158.972 69.0602 159.006 69.822C158.993 70.3241 158.95 70.718 158.872 71.0124L159.807 71.6401L166.335 60.182L165.391 59.7621C165.248 59.9785 165.045 60.1603 164.776 60.3032C164.508 60.4504 164.218 60.5239 163.911 60.5283C163.651 60.511 162.928 60.2339 161.738 59.6972C160.552 59.1647 159.054 58.4851 157.244 57.6627C155.305 57.0047 153.085 56.416 150.578 55.8966C148.072 55.3771 145.427 55.1044 142.644 55.0741C137.865 55.0611 133.207 55.9745 128.671 57.8099C128.562 57.8531 128.454 57.8964 128.35 57.944L118.611 75.5575L114.923 72.9949L115.247 71.731C115.269 71.6444 115.282 71.5751 115.295 71.4842C115.295 71.4842 115.295 71.4842 115.295 71.4799C115.308 71.3803 115.321 71.2938 115.33 71.1942C115.343 71.0211 115.351 70.8782 115.36 70.7051C115.36 70.6964 115.356 70.6877 115.351 70.6834C115.351 70.6834 115.351 70.6748 115.347 70.6704C115.308 70.5752 115.265 70.5016 115.208 70.4194C115.208 70.4194 115.208 70.4194 115.208 70.415C115.165 70.3501 115.118 70.2852 115.061 70.2159C113.602 73.3586 112.836 77.025 112.763 81.2195C112.763 81.5138 112.771 81.8039 112.784 82.0895V82.0939Z" fill="black"/>
        <path fill-rule="evenodd" clip-rule="evenodd" d="M128.822 95.1795V105.179C132.822 106.651 137.164 107.378 141.847 107.365C145.76 107.313 149.44 106.824 152.89 105.897C156.336 104.967 159.374 103.898 161.997 102.69C164.621 101.482 166.655 100.435 168.097 99.5429V98.5646C167.664 98.4694 167.352 98.2919 167.162 98.0322C166.971 97.7724 166.88 97.3655 166.885 96.8158V83.0419C166.898 82.2843 167.023 81.7389 167.27 81.4013C167.517 81.0636 167.815 80.8645 168.162 80.8082V79.83H145.747C145.068 79.8213 144.54 79.6655 144.163 79.3581C143.787 79.0508 143.596 78.6482 143.592 78.1504H142.657V90.4483H143.592C143.596 89.9505 143.787 89.5479 144.163 89.2406C144.54 88.9332 145.068 88.7774 145.747 88.7687H157.335V94.5779C156.336 95.4393 154.561 96.3916 152.015 97.4305C149.466 98.4694 146.081 99.0321 141.852 99.1273C138.345 99.1317 135.121 98.478 132.177 97.1621C130.961 96.621 129.844 95.9587 128.822 95.1795Z" fill="black"/>
        <path fill-rule="evenodd" clip-rule="evenodd" d="M23.652 135.692H22.4573V134.947C22.349 135.017 22.2062 135.116 22.0244 135.246C21.8426 135.372 21.6694 135.475 21.4963 135.549C21.2972 135.644 21.0677 135.727 20.808 135.791C20.5483 135.856 20.2453 135.887 19.8947 135.887C19.254 135.887 18.7086 135.679 18.2627 135.259C17.8169 134.839 17.5918 134.307 17.5918 133.662C17.5918 133.129 17.7087 132.701 17.9381 132.372C18.1718 132.043 18.5008 131.787 18.9294 131.597C19.3622 131.411 19.886 131.281 20.492 131.216C21.1024 131.151 21.7517 131.099 22.4529 131.064V130.883C22.4529 130.614 22.4053 130.394 22.3101 130.22C22.2149 130.043 22.0763 129.909 21.8989 129.805C21.73 129.71 21.5266 129.645 21.2842 129.61C21.0461 129.575 20.795 129.558 20.5396 129.558C20.2236 129.558 19.873 129.597 19.4878 129.679C19.1025 129.762 18.6999 129.878 18.2887 130.034H18.2238V128.835C18.4575 128.775 18.7952 128.705 19.2367 128.627C19.6782 128.554 20.1154 128.515 20.544 128.515C21.0461 128.515 21.4833 128.554 21.8556 128.636C22.2278 128.718 22.5482 128.857 22.8209 129.052C23.0893 129.242 23.2927 129.493 23.4355 129.796C23.5741 130.099 23.6477 130.48 23.6477 130.93V135.683L23.652 135.692ZM22.4573 133.969V132.021C22.0893 132.043 21.6608 132.073 21.163 132.116C20.6652 132.16 20.2756 132.22 19.9856 132.298C19.6393 132.393 19.3622 132.545 19.1501 132.748C18.938 132.952 18.8298 133.229 18.8298 133.584C18.8298 133.986 18.9553 134.285 19.2021 134.488C19.4488 134.692 19.8254 134.792 20.3319 134.792C20.7518 134.792 21.137 134.709 21.4876 134.549C21.8383 134.389 22.1586 134.194 22.4573 133.969Z" fill="black"/>
        <path fill-rule="evenodd" clip-rule="evenodd" d="M43.2483 135.692H42.0492V134.913C41.6467 135.224 41.2571 135.467 40.8891 135.636C40.5169 135.804 40.11 135.887 39.6641 135.887C38.9153 135.887 38.3309 135.662 37.9153 135.211C37.4998 134.761 37.292 134.103 37.292 133.233V128.688H38.491V132.675C38.491 133.03 38.5084 133.333 38.543 133.588C38.5776 133.839 38.6512 134.056 38.7594 134.237C38.8763 134.419 39.0235 134.553 39.2053 134.64C39.3871 134.722 39.6555 134.766 40.0018 134.766C40.3134 134.766 40.6511 134.688 41.019 134.527C41.3869 134.367 41.7289 134.168 42.0492 133.921V128.692H43.2483V135.692Z" fill="black"/>
        <path fill-rule="evenodd" clip-rule="evenodd" d="M62.0735 133.675C62.0735 134.315 61.8051 134.839 61.264 135.246C60.7273 135.657 59.9914 135.861 59.0607 135.861C58.5326 135.861 58.0478 135.8 57.6106 135.675C57.1691 135.553 56.8011 135.415 56.5024 135.272V133.947H56.5674C56.944 134.229 57.3682 134.45 57.8314 134.614C58.2945 134.779 58.7404 134.861 59.1646 134.861C59.6927 134.861 60.1039 134.779 60.4026 134.61C60.7013 134.441 60.8485 134.181 60.8485 133.822C60.8485 133.545 60.7662 133.337 60.6061 133.194C60.4459 133.051 60.1342 132.93 59.6754 132.831C59.5066 132.792 59.2815 132.748 59.0088 132.701C58.7361 132.649 58.485 132.597 58.2599 132.536C57.6366 132.372 57.1907 132.134 56.931 131.818C56.6713 131.502 56.5371 131.116 56.5371 130.653C56.5371 130.363 56.5977 130.095 56.7189 129.839C56.8401 129.584 57.0262 129.359 57.273 129.156C57.511 128.961 57.814 128.805 58.182 128.688C58.5499 128.571 58.9611 128.515 59.4157 128.515C59.8399 128.515 60.2727 128.567 60.7099 128.666C61.1471 128.77 61.5107 128.891 61.7964 129.039V130.298H61.7315C61.4242 130.078 61.0519 129.891 60.6147 129.736C60.1775 129.584 59.7446 129.506 59.3248 129.506C58.9049 129.506 58.5153 129.588 58.2123 129.753C57.9093 129.917 57.7578 130.164 57.7578 130.489C57.7578 130.779 57.8487 130.995 58.0305 131.142C58.208 131.29 58.498 131.406 58.9005 131.502C59.1213 131.554 59.368 131.601 59.6451 131.653C59.9221 131.705 60.1472 131.748 60.329 131.792C60.8874 131.917 61.316 132.134 61.619 132.437C61.922 132.744 62.0735 133.155 62.0735 133.666V133.675Z" fill="black"/>
        <path fill-rule="evenodd" clip-rule="evenodd" d="M80.3279 135.631C80.1028 135.692 79.856 135.739 79.592 135.774C79.3279 135.813 79.0899 135.83 78.8821 135.83C78.1549 135.83 77.6008 135.64 77.2242 135.255C76.8476 134.869 76.6571 134.255 76.6571 133.406V129.684H75.8477V128.692H76.6571V126.68H77.8562V128.692H80.3322V129.684H77.8562V132.874C77.8562 133.242 77.8648 133.528 77.8821 133.735C77.8995 133.943 77.9601 134.134 78.0596 134.315C78.1549 134.484 78.2804 134.605 78.4449 134.683C78.6094 134.761 78.8604 134.8 79.1937 134.8C79.3885 134.8 79.592 134.77 79.8084 134.714C80.0205 134.657 80.1764 134.61 80.2673 134.571H80.3322V135.631H80.3279Z" fill="black"/>
        <path fill-rule="evenodd" clip-rule="evenodd" d="M99.0578 129.978H98.9929C98.8154 129.935 98.6423 129.904 98.4734 129.887C98.3046 129.87 98.1055 129.857 97.8761 129.857C97.5038 129.857 97.1489 129.939 96.8026 130.099C96.4563 130.259 96.1273 130.467 95.807 130.723V135.692H94.6079V128.692H95.807V129.727C96.2831 129.35 96.703 129.086 97.0666 128.926C97.4302 128.77 97.8025 128.692 98.1791 128.692C98.3869 128.692 98.5384 128.697 98.6336 128.71C98.7288 128.718 98.8674 128.74 99.0535 128.77V129.978H99.0578Z" fill="black"/>
        <path fill-rule="evenodd" clip-rule="evenodd" d="M117.663 135.692H116.468V134.947C116.36 135.017 116.217 135.116 116.035 135.246C115.853 135.372 115.68 135.475 115.507 135.549C115.308 135.644 115.078 135.727 114.819 135.791C114.559 135.856 114.256 135.887 113.905 135.887C113.265 135.887 112.719 135.679 112.273 135.259C111.828 134.839 111.603 134.307 111.603 133.662C111.603 133.129 111.719 132.701 111.949 132.372C112.178 132.043 112.512 131.787 112.94 131.597C113.373 131.411 113.897 131.281 114.503 131.216C115.113 131.151 115.762 131.099 116.464 131.064V130.883C116.464 130.614 116.416 130.394 116.321 130.22C116.226 130.043 116.087 129.909 115.91 129.805C115.741 129.71 115.537 129.645 115.295 129.61C115.057 129.575 114.806 129.558 114.55 129.558C114.234 129.558 113.884 129.597 113.499 129.679C113.113 129.762 112.711 129.878 112.299 130.034H112.235V128.835C112.468 128.775 112.806 128.705 113.247 128.627C113.689 128.554 114.126 128.515 114.555 128.515C115.057 128.515 115.494 128.554 115.866 128.636C116.239 128.718 116.559 128.857 116.832 129.052C117.1 129.242 117.303 129.493 117.446 129.796C117.585 130.099 117.658 130.48 117.658 130.93V135.683L117.663 135.692ZM116.472 133.969V132.021C116.104 132.043 115.676 132.073 115.178 132.116C114.68 132.16 114.291 132.22 114.001 132.298C113.654 132.393 113.377 132.545 113.165 132.748C112.953 132.952 112.845 133.229 112.845 133.584C112.845 133.986 112.97 134.285 113.217 134.488C113.464 134.692 113.84 134.792 114.347 134.792C114.767 134.792 115.152 134.709 115.503 134.549C115.853 134.389 116.174 134.194 116.472 133.969Z" fill="black"/>
        <path fill-rule="evenodd" clip-rule="evenodd" d="M132.827 135.692H131.627V125.944H132.827V135.692Z" fill="black"/>
        <path fill-rule="evenodd" clip-rule="evenodd" d="M148.531 127.519H147.176V126.299H148.531V127.519ZM148.453 135.692H147.254V128.692H148.453V135.692Z" fill="black"/>
        <path fill-rule="evenodd" clip-rule="evenodd" d="M168.404 135.692H167.209V134.947C167.101 135.017 166.958 135.116 166.776 135.246C166.595 135.372 166.421 135.475 166.248 135.549C166.049 135.644 165.82 135.727 165.56 135.791C165.3 135.856 164.997 135.887 164.647 135.887C164.006 135.887 163.461 135.679 163.015 135.259C162.569 134.839 162.344 134.307 162.344 133.662C162.344 133.129 162.461 132.701 162.69 132.372C162.924 132.043 163.253 131.787 163.681 131.597C164.114 131.411 164.638 131.281 165.244 131.216C165.854 131.151 166.504 131.099 167.205 131.064V130.883C167.205 130.614 167.157 130.394 167.062 130.22C166.967 130.043 166.828 129.909 166.651 129.805C166.482 129.71 166.279 129.645 166.036 129.61C165.798 129.575 165.547 129.558 165.292 129.558C164.976 129.558 164.625 129.597 164.24 129.679C163.854 129.762 163.452 129.878 163.041 130.034H162.976V128.835C163.209 128.775 163.547 128.705 163.989 128.627C164.43 128.554 164.867 128.515 165.296 128.515C165.798 128.515 166.235 128.554 166.608 128.636C166.98 128.718 167.3 128.857 167.573 129.052C167.841 129.242 168.045 129.493 168.187 129.796C168.326 130.099 168.4 130.48 168.4 130.93V135.683L168.404 135.692ZM167.214 133.969V132.021C166.846 132.043 166.417 132.073 165.919 132.116C165.421 132.16 165.032 132.22 164.742 132.298C164.396 132.393 164.119 132.545 163.906 132.748C163.694 132.952 163.586 133.229 163.586 133.584C163.586 133.986 163.712 134.285 163.958 134.488C164.205 134.692 164.582 134.792 165.088 134.792C165.508 134.792 165.893 134.709 166.244 134.549C166.595 134.389 166.915 134.194 167.214 133.969Z" fill="black"/>
    </g>
    <defs>
        <clipPath id="clip0_225_967">
            <rect width="187" height="187" fill="white"/>
        </clipPath>
    </defs>
</svg>
