<svg width="187" height="133" viewBox="0 0 187 133" fill="none" xmlns="http://www.w3.org/2000/svg">
    <g clip-path="url(#clip0_226_995)">
        <path d="M187 0H0V132.768H187V0Z" fill="black"/>
        <path d="M22.8943 3.65417H3.30713V129.277H22.8943V3.65417Z" fill="#FFADAD"/>
        <path d="M183.693 3.65417H164.106V129.277H183.693V3.65417Z" fill="#FFADAD"/>
        <path d="M43.1265 3.65417H22.894V129.277H43.1265V3.65417Z" fill="#F9DCDE"/>
        <path d="M83.1788 3.65417H62.9463V129.277H83.1788V3.65417Z" fill="#F9DCDE"/>
        <path d="M123.641 3.65417H103.408V129.277H123.641V3.65417Z" fill="#F9DCDE"/>
        <path d="M164.106 3.65417H143.874V129.277H164.106V3.65417Z" fill="#F9DCDE"/>
        <path d="M63.0382 3.65417H42.8057V129.277H63.0382V3.65417Z" fill="#FFADAD"/>
        <path d="M103.411 3.65417H83.1787V129.277H103.411V3.65417Z" fill="#FFADAD"/>
        <path d="M143.873 3.65417H123.641V129.277H143.873V3.65417Z" fill="#FFADAD"/>
        <path d="M135.659 69.9935C134.38 68.7516 134.082 67.0937 134.082 65.7399C134.082 64.7848 134.368 63.2245 135.544 61.9567C136.336 61.102 137.575 60.3018 139.606 60.3018C140.134 60.3018 140.839 60.3649 141.484 60.4911C141.986 60.5914 143.01 61.0159 143.01 61.0159L142.933 63.365H142.686C142.686 63.365 142.712 62.2091 142.147 61.6728C141.691 61.2368 140.75 60.8123 139.589 60.8123C137.833 60.8123 136.967 61.4462 136.534 61.9567C135.625 63.0323 135.332 64.1509 135.332 65.608C135.332 68.6139 137.079 71.1293 140.047 70.8396C140.693 70.7765 140.934 70.7192 141.327 70.5585C141.745 70.3865 142.161 70.1197 142.434 69.8157C142.712 69.503 142.787 69.4027 142.964 69.0613C143.036 68.9208 143.099 68.9351 143.171 68.9667C143.231 68.9954 143.228 69.004 143.228 69.1187C143.228 69.1617 143.137 69.678 142.663 70.1771C142.428 70.4237 142.15 70.6704 141.806 70.8597C141.232 71.1724 140.561 71.333 140.254 71.3645C138.163 71.5825 136.697 71.006 135.656 69.9935H135.659Z" fill="black"/>
        <path d="M171.434 67.1798C171.434 68.5565 171.394 69.6178 171.469 70.2172C171.512 70.6331 171.761 71.0146 172.203 71.072C172.409 71.1007 172.825 71.0949 172.825 71.0949V71.3674H169.097L169.105 71.1121C169.105 71.1121 169.535 71.1064 169.65 71.0376C169.888 70.8941 170.003 70.8339 170.109 70.3033C170.227 69.7096 170.178 68.5422 170.178 67.1654L170.172 61.016L167.978 61.0073C167.069 61.0217 166.851 61.1393 166.676 61.515C166.555 61.7703 166.575 62.1776 166.575 62.1776L166.286 62.1833L166.263 60.3362C166.263 60.3362 166.561 60.3677 167.017 60.3735C167.278 60.3763 167.657 60.3907 168.052 60.3993C168.881 60.4136 169.894 60.4251 170.809 60.4165C172.277 60.4022 173.505 60.4165 174.36 60.4165C174.52 60.4165 175.315 60.3534 175.315 60.3534V60.5685C175.315 60.6976 175.28 60.9299 175.275 61.1364C175.263 61.6211 175.269 62.146 175.269 62.146L174.994 62.1518C174.956 61.7359 174.959 61.4806 174.692 61.2598C174.46 61.0676 174.084 61.0274 173.247 61.0274L171.434 61.036V67.1826V67.1798Z" fill="black"/>
        <path d="M146.839 64.5725C146.839 62.2951 146.865 62.1517 146.839 61.6842C146.811 61.188 146.682 60.904 146.28 60.7262C146.134 60.6631 145.54 60.6488 145.54 60.6488V60.3792C145.54 60.3792 149.507 60.3878 149.679 60.3964C149.802 60.4021 150.023 60.4078 150.023 60.4078C150.023 60.4078 150.373 60.448 150.545 60.4767C151.03 60.557 151.414 60.7291 151.787 60.9815C151.965 61.1019 152.229 61.2941 152.455 61.6182C152.696 61.9682 152.883 62.4443 152.883 62.9663C152.883 63.2531 152.82 63.6776 152.656 64.0935C152.481 64.5324 152.191 64.9597 151.839 65.2781C151.213 65.846 150.396 66.15 150.396 66.15C150.396 66.15 151.041 66.3881 151.592 67.3059C151.856 67.7448 152.266 68.4417 152.67 69.1043C152.963 69.5862 153.313 69.959 153.54 70.2028C153.858 70.547 154.234 70.8339 154.555 70.9486C154.994 71.1063 155.384 71.0834 155.384 71.0834L155.39 71.3501C154.945 71.3501 154.09 71.3731 153.694 71.3157C153.379 71.2698 153.135 71.1838 152.972 71.092C152.358 70.7564 151.994 70.309 151.302 69.1359C150.683 68.0832 150.012 67.0105 149.458 66.5831C149.315 66.4713 149.031 66.3508 148.919 66.3307C148.775 66.302 148.299 66.2762 148.101 66.2877C148.047 66.2877 148.03 66.3279 148.03 66.3565V67.1396C148.03 68.5421 148.004 69.589 148.076 70.2C148.119 70.6245 148.256 70.9027 148.672 71.0174C149.031 71.1178 149.49 71.0863 149.49 71.0863L149.495 71.3587H145.764L145.755 71.0977C145.755 71.0977 146.16 71.0977 146.28 71.049C146.604 70.9142 146.713 70.7335 146.771 70.3118C146.842 69.698 146.842 68.545 146.842 67.1453V64.5754L146.839 64.5725ZM148.012 65.5477C148.012 65.6194 148.027 65.7284 148.099 65.7743C148.314 65.9062 148.887 65.9206 149.513 65.9206C149.854 65.9206 150.264 65.8288 150.6 65.6079C151.119 65.2695 151.581 64.7389 151.638 63.3822C151.669 62.6106 151.423 62.0685 151.084 61.6584C150.625 61.0991 149.946 60.818 149.065 60.818C148.638 60.818 148.316 60.8323 148.173 60.8754C148.101 60.904 148.004 60.97 148.004 61.0589L148.01 65.5506L148.012 65.5477Z" fill="black"/>
        <path d="M115.174 70.7163L115.168 68.3614L115.501 68.3787C115.501 68.3787 115.521 68.7974 115.578 69.0183C115.871 70.2 117.001 70.7679 118.309 70.7679C120.185 70.7679 121.111 69.7382 121.111 68.7171C121.111 68.1836 120.968 67.63 120.609 67.1654C120.228 66.6692 119.605 66.2619 118.739 65.6768L117.537 64.9597C115.59 63.5313 115.349 62.6938 115.349 61.6068C115.349 60.6545 115.942 59.794 116.806 59.272C117.362 58.9364 118.157 58.7959 119.132 58.7844C119.505 58.7816 120.156 58.8303 120.707 58.945C121.277 59.0626 121.739 59.2462 121.739 59.2462L121.753 61.1593H121.435C121.435 61.1593 121.332 60.5111 121.214 60.3361C121.097 60.1612 120.775 59.4068 118.991 59.3064C117.646 59.2319 116.484 59.9747 116.45 61.2425C116.439 61.6727 116.49 62.0858 117.187 62.7168C117.964 63.4195 119.396 64.3172 119.396 64.3172C121.349 65.5821 122.31 66.6835 122.31 67.9599C122.31 68.6138 122.227 69.8759 120.879 70.6589C120.038 71.1379 119.313 71.3616 118.26 71.3616C117.807 71.3616 117.115 71.3788 116.464 71.2182C115.796 71.0547 115.171 70.7134 115.171 70.7134L115.174 70.7163Z" fill="black"/>
        <path d="M125.761 64.5754C125.761 62.3181 125.772 61.8908 125.755 61.4232C125.738 60.9299 125.431 60.689 125.095 60.6087C124.963 60.5771 124.564 60.5685 124.564 60.5685V60.2731C124.564 60.2731 125.064 60.3218 125.795 60.3362L127.72 60.3591C127.837 60.3591 129.945 60.3362 130.332 60.3218C130.651 60.3075 131.374 60.2788 131.374 60.2788L131.351 62.126H131.09C131.09 62.126 131.075 61.7101 130.966 61.515C130.863 61.3343 130.768 61.0073 129.862 60.9184C129.575 60.8897 127.206 60.8783 127.02 60.8783C126.954 60.8783 126.905 60.9672 126.905 61.0676L126.911 65.0372C126.911 65.1376 126.928 65.1806 127.011 65.1806C127.229 65.1806 129.099 65.172 129.486 65.1777C129.928 65.1835 129.98 65.0573 130.066 64.9712C130.132 64.9053 130.206 64.5525 130.206 64.5525H130.464L130.473 66.9102H130.218C130.218 66.9102 130.232 66.5889 130.109 66.2591C130.017 66.0095 129.739 65.826 129.449 65.803C128.996 65.76 127.309 65.7284 127.023 65.7284C126.939 65.7284 126.905 65.7715 126.905 65.8288V67.1023C126.905 67.5928 126.888 69.2736 126.905 69.5776C126.928 70.0021 126.873 70.5241 127.031 70.6647C127.324 70.9285 128.064 70.8339 129.007 70.8339C129.446 70.8339 130.568 70.8626 130.981 70.6446C131.546 70.3463 131.514 69.4084 131.514 69.4084H131.769L131.715 71.3617H124.757V71.092C124.757 71.092 125.035 71.092 125.184 71.0576C125.388 71.0117 125.64 70.7249 125.706 70.3061C125.789 69.6981 125.755 68.5106 125.755 67.1224V64.5754H125.761Z" fill="black"/>
        <path d="M158.014 64.6213C158.014 62.3812 158.025 61.9567 158.008 61.492C157.991 61.0044 157.67 60.7635 157.32 60.686C157.179 60.6545 156.763 60.6459 156.763 60.6459V60.3505C156.763 60.3505 157.285 60.3992 158.051 60.4136L160.062 60.4365C160.185 60.4365 162.388 60.4136 162.792 60.3992C163.128 60.3849 163.879 60.3562 163.879 60.3562L163.856 62.189H163.584C163.584 62.189 163.569 61.776 163.455 61.5838C163.349 61.4031 163.248 61.079 162.302 60.9929C162.003 60.9643 159.525 60.9528 159.333 60.9528C159.264 60.9528 159.213 61.0388 159.213 61.1392L159.218 65.0773C159.218 65.1777 159.236 65.2207 159.325 65.2207C159.554 65.2207 161.507 65.2121 161.912 65.2179C162.373 65.2236 162.428 65.0974 162.517 65.0142C162.586 64.9511 162.666 64.5983 162.666 64.5983H162.936L162.944 66.9388H162.677C162.677 66.9388 162.692 66.6204 162.566 66.2934C162.471 66.0468 162.181 65.8661 161.877 65.8403C161.401 65.7972 159.64 65.7657 159.342 65.7657C159.256 65.7657 159.218 65.8087 159.218 65.8661V67.131C159.218 67.6186 159.201 69.285 159.218 69.5862C159.241 70.0078 159.187 70.5241 159.35 70.6646C159.657 70.9256 160.429 70.831 161.418 70.831C161.874 70.831 163.047 70.8597 163.481 70.6445C164.071 70.3491 164.037 69.4198 164.037 69.4198H164.304L164.246 71.3587H156.973V71.092C156.973 71.092 157.265 71.092 157.42 71.0576C157.632 71.0117 157.896 70.7277 157.965 70.3118C158.054 69.7095 158.017 68.5307 158.017 67.151V64.6213H158.014Z" fill="black"/>
        <path d="M18.1159 69.4428C19.0423 67.2256 21.3599 61.3343 21.8217 60.1497C21.9163 59.9088 22.0024 59.6363 22.0024 59.4871C22.0024 59.3552 21.9507 59.2118 21.7872 59.1286C21.5893 59.0626 21.1189 59.0483 21.1189 59.0483V58.7988H24.2597V59.0655C24.2597 59.0655 23.6545 59.0712 23.3389 59.2663C23.1238 59.4126 22.8915 59.6707 22.4441 60.7836C22.2605 61.2425 21.3857 63.1872 20.5396 65.2035C19.5271 67.5956 18.8473 69.3309 18.4658 70.134C18.0012 71.1178 17.9926 71.4104 17.8262 71.4104C17.6254 71.4104 17.5451 71.1809 17.2296 70.395L13.1567 60.3361C12.8068 59.3925 12.4167 59.1487 11.8345 59.0598C11.7284 59.0426 11.4473 59.0397 11.4473 59.0397V58.7959H15.1932V59.054C15.1932 59.054 14.7572 59.034 14.5421 59.1257C14.4417 59.1688 14.3356 59.2577 14.3413 59.4585C14.347 59.6707 14.5593 60.1841 14.8088 60.8237L18.1188 69.4399L18.1159 69.4428Z" fill="black"/>
        <path d="M28.2807 67.1797C28.2807 68.5823 28.2463 69.5345 28.3209 70.1483C28.3668 70.5728 28.4844 70.9199 28.9146 71.049C29.1182 71.1092 29.7292 71.1293 29.7292 71.1293L29.7349 71.4132H25.9718V71.1465C25.9718 71.1465 26.2844 71.1321 26.4221 71.1035C26.7233 71.0461 26.9728 70.7306 27.0244 70.2028C27.0818 69.5862 27.0646 68.5852 27.0646 67.1826L27.0703 64.561C27.0703 62.2837 27.0531 62.3439 27.0617 61.8735C27.0675 61.6096 27.0359 61.2109 26.8782 60.9499C26.7864 60.7979 26.6487 60.7205 26.4623 60.6717C26.2959 60.6287 25.9316 60.6029 25.9316 60.6029V60.3677H29.3649L29.3592 60.6373C29.3592 60.6373 28.9834 60.6516 28.8199 60.6889C28.5503 60.752 28.3811 60.8667 28.3237 61.3744C28.2721 61.8276 28.2635 62.3181 28.2635 64.5954L28.275 67.174L28.2807 67.1797Z" fill="black"/>
        <path d="M82.2379 67.174C82.2379 68.5766 82.2035 69.5317 82.278 70.1455C82.3239 70.57 82.4415 70.9171 82.8718 71.049C83.0754 71.1093 83.6863 71.1293 83.6863 71.1293L83.6921 71.4133H79.929V71.1465C79.929 71.1465 80.2445 71.1322 80.3793 71.1035C80.6804 71.0462 80.9328 70.7278 80.9816 70.2C81.0418 69.5834 81.0218 68.5795 81.0218 67.1769L81.0304 64.5525C81.0304 62.2722 81.0131 62.3325 81.0218 61.8621C81.0275 61.5982 80.9959 61.1995 80.8382 60.9385C80.7464 60.7865 80.6087 60.7091 80.4223 60.6603C80.2559 60.6173 79.8945 60.5943 79.8945 60.5943V60.3591H83.3278L83.3221 60.6287C83.3221 60.6287 82.9435 60.6431 82.7828 60.6804C82.5132 60.7435 82.344 60.8582 82.2866 61.3687C82.235 61.8248 82.2264 62.3124 82.2264 64.5926L82.2379 67.174Z" fill="black"/>
        <path d="M33.6243 69.9963C32.3049 68.7572 31.998 67.0994 31.998 65.7456C31.998 64.7905 32.2963 63.233 33.5067 61.9653C34.3242 61.1105 35.6005 60.3103 37.6972 60.3103C38.2422 60.3103 38.9707 60.3705 39.6361 60.4996C40.1524 60.6 41.2079 61.0245 41.2079 61.0245L41.1276 63.3707H40.8752C40.8752 63.3707 40.901 62.2177 40.3188 61.6784C39.8484 61.2453 38.8761 60.8208 37.68 60.8208C35.8702 60.8208 34.9753 61.4519 34.5278 61.9653C33.5899 63.0409 33.2888 64.1595 33.2888 65.6108C33.2888 68.6138 35.0929 71.1264 38.1533 70.8396C38.8187 70.7765 39.0682 70.7191 39.4727 70.5585C39.9029 70.3864 40.3331 70.1196 40.6142 69.8185C40.901 69.5058 40.9785 69.4055 41.162 69.0641C41.2366 68.9236 41.2997 68.9379 41.3743 68.9695C41.4374 68.9982 41.4345 69.0068 41.4345 69.1215C41.4345 69.1645 41.3399 69.6808 40.8523 70.1799C40.6113 70.4265 40.3245 70.6761 39.9689 70.8625C39.378 71.1752 38.6839 71.3358 38.3684 71.3673C36.2115 71.5853 34.6999 71.0088 33.6243 69.9963Z" fill="black"/>
        <path d="M49.0037 67.2199C49.0037 68.5966 48.9635 69.6579 49.0381 70.2602C49.084 70.6761 49.3335 71.0576 49.781 71.1149C49.9875 71.1436 50.412 71.1379 50.412 71.1379V71.4104H46.6431L46.6517 71.1551C46.6517 71.1551 47.0877 71.1494 47.2053 71.0805C47.4462 70.9371 47.561 70.8769 47.6671 70.3434C47.7876 69.7497 47.7359 68.5794 47.7359 67.2027L47.7302 61.0474L45.5102 61.0388C44.5895 61.0532 44.3715 61.1708 44.1937 61.5494C44.0732 61.8047 44.0904 62.2119 44.0904 62.2119H43.7978L43.7749 60.3677C43.7749 60.3677 44.0789 60.3992 44.5379 60.405C44.8017 60.4078 45.1832 60.4222 45.5848 60.4308C46.4223 60.4451 47.4462 60.4566 48.3698 60.448C49.8556 60.4336 51.0946 60.448 51.958 60.448C52.1215 60.448 52.9246 60.3849 52.9246 60.3849V60.6C52.9246 60.7291 52.8901 60.9614 52.8844 61.1679C52.8701 61.6555 52.8787 62.1775 52.8787 62.1775L52.6004 62.1833C52.5632 61.7674 52.566 61.5121 52.2935 61.2912C52.0584 61.0991 51.6797 61.0589 50.8336 61.0589L49.0008 61.0675V67.2199H49.0037Z" fill="black"/>
        <path d="M60.2274 60.2529C63.4857 60.2529 65.9151 62.2836 65.9151 65.6165C65.9151 68.9494 63.6291 71.4677 60.1385 71.4677C56.1717 71.4677 54.5225 68.4217 54.5225 65.846C54.5225 63.5284 56.2319 60.2529 60.2245 60.2529H60.2274ZM60.5314 70.9256C61.8336 70.9256 64.5268 70.1827 64.5268 66.0181C64.5268 62.5848 62.413 60.7377 60.127 60.7377C57.7091 60.7377 55.8992 62.3123 55.8992 65.4444C55.8992 68.7773 57.927 70.9227 60.5314 70.9227V70.9256Z" fill="black"/>
        <path d="M69.5201 64.5553C69.5201 62.2349 69.546 62.0857 69.5201 61.6096C69.4915 61.1048 69.3653 60.8151 68.9723 60.6344C68.8289 60.5684 68.2495 60.5541 68.2495 60.5541V60.2816C68.2495 60.2816 72.1274 60.2902 72.2966 60.2988C72.4171 60.3046 72.6322 60.3103 72.6322 60.3103C72.6322 60.3103 72.9735 60.3505 73.1427 60.3791C73.616 60.4594 73.9917 60.6373 74.356 60.8926C74.5281 61.013 74.7891 61.2109 75.0071 61.5408C75.2423 61.8993 75.4258 62.384 75.4258 62.9147C75.4258 63.2043 75.3656 63.6403 75.2021 64.0619C75.03 64.5094 74.7461 64.9425 74.4019 65.2695C73.7881 65.8489 72.9907 66.1558 72.9907 66.1558C72.9907 66.1558 73.6217 66.3996 74.1609 67.3346C74.4191 67.782 74.8206 68.4905 75.2164 69.1674C75.5033 69.6579 75.8446 70.0365 76.0654 70.286C76.3781 70.6388 76.7452 70.9285 77.0607 71.049C77.491 71.2096 77.8724 71.1866 77.8724 71.1866L77.8782 71.4562C77.4451 71.4562 76.6075 71.4792 76.2203 71.4218C75.9106 71.3759 75.6725 71.287 75.5119 71.1952C74.9124 70.8539 74.5567 70.3979 73.8798 69.2018C73.2718 68.1291 72.6178 67.0363 72.0757 66.6003C71.9352 66.4885 71.657 66.3651 71.548 66.3422C71.4074 66.3135 70.9428 66.2877 70.7477 66.2992C70.6932 66.2992 70.676 66.3393 70.676 66.368V67.1654C70.676 68.5937 70.6502 69.6607 70.7219 70.286C70.7621 70.7162 70.8969 71.0002 71.3042 71.1178C71.6541 71.2182 72.1044 71.1895 72.1044 71.1895L72.1102 71.4648H68.4618L68.4532 71.1981C68.4532 71.1981 68.849 71.1981 68.9666 71.1493C69.2849 71.0117 69.3911 70.8281 69.4456 70.3979C69.5144 69.7726 69.5144 68.5966 69.5144 67.1711V64.5524L69.5201 64.5553ZM70.6674 65.5506C70.6674 65.6251 70.6818 65.737 70.7535 65.78C70.9629 65.912 71.5222 65.9292 72.136 65.9292C72.4715 65.9292 72.8702 65.8345 73.2001 65.6108C73.7078 65.2666 74.1581 64.7274 74.2154 63.342C74.247 62.5561 74.0032 62.0054 73.6762 61.5867C73.2259 61.0159 72.5633 60.7291 71.7 60.7291C71.2812 60.7291 70.9686 60.7434 70.8281 60.7864C70.7592 60.8151 70.6617 60.8839 70.6617 60.9729L70.6674 65.5477V65.5506Z" fill="black"/>
        <path d="M90.7453 60.9212C90.9202 60.448 90.9776 60.3619 91.0665 60.3619C91.1554 60.3619 91.2128 60.4336 91.3849 60.8782C91.6028 61.4232 93.9663 67.3145 94.7723 69.5231C95.234 70.788 95.6843 70.9715 95.9912 71.0576C96.2092 71.1293 96.5305 71.1379 96.5305 71.1379L96.5362 71.4132H93.1316V71.158C93.1316 71.158 93.5619 71.1637 93.7999 70.9801C93.9003 70.9027 93.8917 70.6847 93.8544 70.57C93.5733 69.698 92.535 67.174 92.535 67.174C92.5063 67.1166 92.4777 67.0879 92.4031 67.0879H89.314C89.2423 67.0851 89.1792 67.2027 89.1505 67.2744L88.3015 69.8242C88.1696 70.1828 88.0979 70.4208 88.0835 70.6761C88.0635 70.9773 88.399 71.0863 88.5912 71.1178C88.6801 71.1321 88.9469 71.158 88.9469 71.158C88.9469 71.2985 88.9469 71.4132 88.9469 71.4132L85.8291 71.4018V71.1637C85.8291 71.1637 86.1188 71.1436 86.2335 71.1178C86.8789 70.9801 87.1858 70.5413 87.4468 69.8242L90.7481 60.9212H90.7453ZM92.2539 66.6003C92.3257 66.6003 92.3256 66.5573 92.3142 66.5L90.946 62.6508C90.8743 62.4357 90.7911 62.4099 90.7194 62.625L89.4316 66.5028C89.4029 66.5745 89.4316 66.6032 89.4746 66.6032H92.2511L92.2539 66.6003Z" fill="black"/>
        <path d="M100.299 70.8425L100.293 68.7745L100.577 68.7917C100.577 68.7917 100.595 69.1588 100.643 69.3567C100.893 70.395 101.851 70.8941 102.967 70.8941C104.561 70.8941 105.35 69.9877 105.35 69.09C105.35 68.6196 105.227 68.1349 104.923 67.7247C104.599 67.2887 104.068 66.9302 103.334 66.4168L102.313 65.7858C100.658 64.5266 100.451 63.7924 100.451 62.8372C100.451 61.9997 100.956 61.2454 101.69 60.7836C102.164 60.4882 102.838 60.3648 103.666 60.3562C103.985 60.3533 104.538 60.3964 105.006 60.4968C105.491 60.6 105.884 60.7606 105.884 60.7606L105.898 62.4443H105.628C105.628 62.4443 105.539 61.8735 105.442 61.7215C105.342 61.5666 105.069 60.904 103.552 60.8151C102.407 60.7492 101.421 61.4031 101.392 62.5189C101.383 62.8975 101.426 63.2589 102.02 63.8153C102.68 64.432 103.896 65.2236 103.896 65.2236C105.557 66.3365 106.374 67.3031 106.374 68.4274C106.374 69.0039 106.305 70.1139 105.158 70.8023C104.444 71.2239 103.827 71.419 102.929 71.419C102.545 71.419 101.957 71.4362 101.403 71.2956C100.836 71.1522 100.302 70.8511 100.302 70.8511L100.299 70.8425Z" fill="black"/>
        <path d="M96.3699 59.6765C96.3843 59.7654 96.4187 59.9777 96.5936 60.1067C96.7342 60.21 97.0583 60.2473 97.2304 60.3534C97.4541 60.4939 97.5172 60.7435 97.5029 60.9184C97.4828 61.168 97.4111 61.3888 97.2103 61.6355C96.9637 61.9367 96.3929 62.0485 96.3154 62.0715C96.3154 62.1632 96.3154 62.1919 96.3154 62.1919C96.3154 62.1919 96.869 62.1891 97.2075 61.9367C97.5488 61.6843 97.9589 61.3114 97.9589 60.4911C97.9589 59.7855 97.3939 59.1746 96.9665 59.1459C96.6309 59.1229 96.3269 59.3983 96.3699 59.6794V59.6765Z" fill="black"/>
    </g>
    <defs>
        <clipPath id="clip0_226_995">
            <rect width="187" height="132.768" fill="white"/>
        </clipPath>
    </defs>
</svg>
