<svg width="187" height="150" viewBox="0 0 187 150" fill="none" xmlns="http://www.w3.org/2000/svg">
    <path d="M36.4533 72.5383H34.7039C34.5604 72.5383 34.4744 72.4463 34.4744 72.3542V71.296C34.4744 71.2039 34.5604 71.1119 34.7039 71.1119H40.0672C40.2105 71.1119 40.2967 71.2039 40.2967 71.296V72.3542C40.2967 72.4463 40.2105 72.5383 40.0672 72.5383H38.3176V77.7377C38.3176 77.8297 38.2029 77.9217 38.0882 77.9217H36.6255C36.5108 77.9217 36.396 77.8297 36.396 77.7377V72.5383H36.4533ZM42.3617 77.7377C42.3617 77.8297 42.4763 77.9217 42.5912 77.9217H44.0252C44.1686 77.9217 44.2546 77.8297 44.2546 77.7377V75.161H47.7251V77.7377C47.7251 77.8297 47.8111 77.9217 47.9545 77.9217H49.3885C49.5032 77.9217 49.618 77.8297 49.618 77.7377V71.296C49.618 71.2039 49.5032 71.1119 49.3885 71.1119H47.9545C47.8111 71.1119 47.7251 71.2039 47.7251 71.296V73.7576H44.2546V71.296C44.2546 71.2039 44.1686 71.1119 44.0252 71.1119H42.5912C42.4763 71.1119 42.3617 71.2039 42.3617 71.296V77.7377ZM52.6295 77.7377C52.6295 77.8297 52.7155 77.9217 52.859 77.9217H57.878C58.0215 77.9217 58.1076 77.8297 58.1076 77.7377V76.6794C58.1076 76.5874 58.0215 76.4953 57.878 76.4953H54.5224V75.184H57.3045C57.4191 75.184 57.534 75.115 57.534 75V73.9417C57.534 73.8496 57.4191 73.7576 57.3045 73.7576H54.5224V72.5613H57.878C58.0215 72.5613 58.1076 72.4693 58.1076 72.3773V71.319C58.1076 71.2269 58.0215 71.1349 57.878 71.1349H52.859C52.7155 71.1349 52.6295 71.2269 52.6295 71.319V77.7377ZM67.5149 77.8987C67.5722 77.9447 67.6296 78.0138 67.7156 78.0138H67.8304C67.9164 78.0138 68.0025 77.9677 68.0311 77.8987L71.817 71.342C71.8744 71.2039 71.7883 71.0889 71.6163 71.0889H69.9814C69.8954 71.0889 69.7807 71.1349 69.7807 71.2039L67.773 74.7469H67.7156L65.708 71.2039C65.6793 71.1579 65.5933 71.0889 65.5073 71.0889H63.8724C63.6717 71.0889 63.5855 71.2269 63.6717 71.342L67.5149 77.8987ZM73.796 77.7377C73.796 77.8297 73.9108 77.9217 74.0255 77.9217H75.4882C75.6029 77.9217 75.7176 77.8297 75.7176 77.7377V71.296C75.7176 71.2039 75.6029 71.1119 75.4882 71.1119H74.0255C73.9108 71.1119 73.796 71.2039 73.796 71.296V77.7377ZM79.7043 77.7377C79.7043 77.8297 79.819 77.9217 79.9338 77.9217H81.3965C81.5112 77.9217 81.6259 77.8297 81.6259 77.7377V72.5383H83.3755C83.5189 72.5383 83.6049 72.4463 83.6049 72.3542V71.296C83.6049 71.2039 83.5189 71.1119 83.3755 71.1119H78.0121C77.8687 71.1119 77.7827 71.2039 77.7827 71.296V72.3542C77.7827 72.4463 77.8687 72.5383 78.0121 72.5383H79.7616V77.7377H79.7043ZM87.19 75.5981L88.1078 73.9877L89.0256 75.5981H87.19ZM84.0638 77.6457C84.0064 77.7837 84.0925 77.8987 84.2646 77.8987H85.6126C85.842 77.8987 85.9854 77.7837 86.0429 77.6687L86.473 76.8865H89.7714L90.2015 77.6457C90.3163 77.8297 90.4023 77.8987 90.6317 77.8987H91.9797C92.1806 77.8987 92.2666 77.7607 92.1806 77.6457L88.3947 71.0889C88.3372 71.0429 88.2799 70.9739 88.1939 70.9739H88.0505C87.9645 70.9739 87.8783 71.0199 87.8497 71.0889L84.0638 77.6457ZM93.9013 77.6917C93.8727 77.8297 93.9875 77.8987 94.1309 77.8987H95.5649C95.6796 77.8987 95.7656 77.8297 95.7943 77.7377L96.3105 74.7239H96.3393L98.4043 77.8757C98.4617 77.9217 98.5477 77.9907 98.605 77.9907H98.8059C98.8632 77.9907 98.9779 77.9447 99.0066 77.8757L101.043 74.7239H101.072L101.617 77.7377C101.617 77.8067 101.731 77.8987 101.846 77.8987H103.28C103.424 77.8987 103.538 77.8067 103.51 77.6917L102.162 71.1579C102.133 71.0659 102.047 70.9969 101.961 70.9969H101.76C101.703 70.9969 101.588 71.0429 101.559 71.0889L98.7485 75.276H98.7198L95.8518 71.0889C95.7943 71.0429 95.7083 70.9969 95.6509 70.9969H95.4502C95.3641 70.9969 95.2494 71.0659 95.2494 71.1579L93.9013 77.6917ZM105.976 77.7377C105.976 77.8297 106.091 77.9217 106.206 77.9217H107.668C107.783 77.9217 107.898 77.8297 107.898 77.7377V71.296C107.898 71.2039 107.783 71.1119 107.668 71.1119H106.206C106.091 71.1119 105.976 71.2039 105.976 71.296V77.7377ZM110.852 77.7377C110.852 77.8297 110.967 77.9217 111.081 77.9217H112.515C112.659 77.9217 112.745 77.8297 112.745 77.7377V74.1257L117.535 77.9907C117.563 78.0138 117.649 78.0368 117.707 78.0368H117.907C118.022 78.0368 118.137 77.9677 118.137 77.8757V71.296C118.137 71.2039 118.022 71.1119 117.907 71.1119H116.445C116.301 71.1119 116.215 71.2039 116.215 71.296V74.7469L111.368 71.0199H111.053C110.938 71.0199 110.823 71.0889 110.823 71.1809L110.852 77.7377ZM124.82 76.9785C124.734 77.1165 124.763 77.1395 124.877 77.2545C125.164 77.4846 126.024 77.9907 127.601 77.9907C129.38 77.9907 130.47 76.9785 130.47 75.9892C130.47 74.6779 128.979 74.0797 128.003 73.7576C127.056 73.4585 126.684 73.1825 126.684 72.8144C126.684 72.5383 127.028 72.3082 127.458 72.3082C128.203 72.3082 129.093 72.8374 129.208 72.8834C129.323 72.9524 129.552 72.8604 129.61 72.7454L130.24 72.0092C130.298 71.9401 130.298 71.7561 130.183 71.7101C129.839 71.503 128.835 70.9739 127.573 70.9739C125.709 70.9739 124.791 71.9401 124.791 72.9064C124.791 74.0797 126.11 74.7239 127.142 75.046C127.974 75.322 128.375 75.6211 128.375 76.0122C128.375 76.3573 128.031 76.5874 127.544 76.5874C126.741 76.5874 125.881 76.0812 125.823 76.0582C125.737 76.0122 125.508 75.9892 125.422 76.1042L124.82 76.9785ZM132.936 77.7377C132.936 77.8297 133.05 77.9217 133.165 77.9217H134.6C134.743 77.9217 134.829 77.8297 134.829 77.7377V75.161H138.3V77.7377C138.3 77.8297 138.386 77.9217 138.53 77.9217H139.963C140.078 77.9217 140.193 77.8297 140.193 77.7377V71.296C140.193 71.2039 140.078 71.1119 139.963 71.1119H138.53C138.386 71.1119 138.3 71.2039 138.3 71.296V73.7576H134.829V71.296C134.829 71.2039 134.743 71.1119 134.6 71.1119H133.165C133.05 71.1119 132.936 71.2039 132.936 71.296V77.7377ZM146.961 76.4493C145.642 76.4493 144.552 75.5751 144.552 74.5168C144.552 73.4355 145.642 72.5613 146.961 72.5613C148.31 72.5613 149.399 73.4355 149.399 74.5168C149.371 75.5981 148.31 76.4493 146.961 76.4493ZM146.961 71.0199C144.523 71.0199 142.601 72.5843 142.601 74.5168C142.601 76.4723 144.523 78.0138 146.961 78.0138C149.399 78.0138 151.32 76.4723 151.32 74.5168C151.349 72.5843 149.371 71.0199 146.961 71.0199ZM155.623 74.0337V72.5383H156.77C157.287 72.5383 157.717 72.8374 157.717 73.2745C157.717 73.7116 157.287 74.0337 156.77 74.0337H155.623ZM153.759 77.7377C153.759 77.8297 153.845 77.9217 153.988 77.9217H155.422C155.537 77.9217 155.651 77.8297 155.651 77.7377V75.4601H156.914C158.405 75.4601 159.609 74.4938 159.609 73.2745C159.609 72.1012 158.405 71.1349 156.885 71.1349H153.96C153.816 71.1349 153.73 71.2269 153.73 71.319L153.759 77.7377ZM163.596 74.0337V72.5383H164.743C165.259 72.5383 165.689 72.8374 165.689 73.2745C165.689 73.7116 165.259 74.0337 164.743 74.0337H163.596ZM161.732 77.7377C161.732 77.8297 161.819 77.9217 161.962 77.9217H163.396C163.51 77.9217 163.625 77.8297 163.625 77.7377V75.4601H164.887C166.379 75.4601 167.583 74.4938 167.583 73.2745C167.583 72.1012 166.379 71.1349 164.858 71.1349H161.933C161.79 71.1349 161.704 71.2269 161.704 71.319L161.732 77.7377ZM169.676 77.7377C169.676 77.8297 169.762 77.9217 169.906 77.9217H174.925C175.068 77.9217 175.154 77.8297 175.154 77.7377V76.6794C175.154 76.5874 175.068 76.4953 174.925 76.4953H171.57V75.184H174.351C174.466 75.184 174.581 75.115 174.581 75V73.9417C174.581 73.8496 174.466 73.7576 174.351 73.7576H171.57V72.5613H174.925C175.068 72.5613 175.154 72.4693 175.154 72.3773V71.319C175.154 71.2269 175.068 71.1349 174.925 71.1349H169.906C169.762 71.1349 169.676 71.2269 169.676 71.319V77.7377Z" fill="#14377D"/>
    <path d="M178.023 71.8021C178.023 72.1932 177.621 72.5383 177.105 72.5383C176.618 72.5383 176.188 72.2162 176.188 71.8021C176.188 71.411 176.589 71.0889 177.105 71.0889C177.593 71.0889 178.023 71.3879 178.023 71.8021ZM176.417 71.8021C176.417 72.1241 176.732 72.3772 177.105 72.3772C177.478 72.3772 177.793 72.1241 177.793 71.8021C177.793 71.48 177.507 71.2269 177.105 71.2269C176.732 71.2499 176.417 71.48 176.417 71.8021ZM176.962 72.1702H176.761V71.457C176.818 71.457 176.962 71.434 177.105 71.434C177.277 71.434 177.335 71.457 177.421 71.48C177.478 71.526 177.507 71.549 177.507 71.641C177.507 71.733 177.449 71.8021 177.306 71.8021C177.392 71.8251 177.421 71.8711 177.478 71.9631C177.507 72.0781 177.535 72.1241 177.535 72.1241H177.335C177.306 72.1011 177.277 72.0321 177.277 71.9631C177.249 71.8941 177.22 71.8481 177.076 71.8481H176.962V72.1702ZM176.962 71.7791H177.048C177.163 71.7791 177.249 71.733 177.249 71.687C177.249 71.641 177.191 71.572 177.048 71.572C176.99 71.572 176.962 71.572 176.933 71.572L176.962 71.7791Z" fill="#14377D"/>
    <path d="M32.8396 66.0966C31.7497 65.4754 26.1282 64.6702 23.5183 67.2469C18.872 71.9172 25.0097 77.7607 25.0097 77.7607L32.8396 66.0966Z" fill="#15BEF0"/>
    <path d="M21.1665 74.6088C19.7898 72.5383 17.9542 69.5245 17.7248 69.1794C15.5163 66.0736 12.5622 65.7515 10.8127 65.7515H5.9082C5.9082 65.7515 16.5775 82.1318 16.721 82.3389C17.3806 83.1901 18.3557 83.5352 19.3595 83.5352C20.3922 83.5352 21.3099 83.2361 21.9982 82.3389L25.0385 77.7377C25.0385 77.7607 23.4896 78.1058 21.1665 74.6088Z" fill="#14377D"/>
</svg>
