<svg width="187" height="42" viewBox="0 0 187 42" fill="none" xmlns="http://www.w3.org/2000/svg">
    <g clip-path="url(#clip0_215_100)">
        <path fill-rule="evenodd" clip-rule="evenodd" d="M20.4955 30.5289C29.7817 32.2427 36.577 23.2487 40.9312 15.4637C42.6748 12.345 45.3185 4.18138 42.356 1.09593C39.6425 -1.88988 37.5435 2.0292 35.936 3.33446L37.1781 4.80577C39.6591 7.93772 37.5003 13.8861 36.0323 17.0679C33.827 20.9836 29.6621 26.9054 24.7932 26.0817C23.737 25.8326 22.8602 24.8097 22.4915 23.7336C25.112 21.1397 28.2174 16.5796 29.9644 13.5506C31.4257 11.0829 33.9598 6.31695 31.6217 4.35408C29.6821 3.00897 25.7962 4.94527 23.7138 6.70221C22.4451 7.8414 21.5915 8.778 20.6084 10.1065C17.9281 13.7366 15.3774 19.964 15.6431 24.7599C14.3578 25.6932 12.8865 26.6198 11.1428 26.0851C9.41244 25.6965 9.10024 24.2252 8.85447 23.0694C7.75181 16.1246 14.7132 7.35318 18.619 2.31483C18.619 2.31483 15.5368 3.14847 13.2883 3.24478C8.12047 3.46731 4.2811 1.0594 1.4846 4.51682C0.644324 5.74237 0.156099 7.03434 0 8.56876C1.14583 7.58899 2.843 7.8248 4.46377 7.91779C7.27023 8.16356 8.65187 8.50233 11.1793 7.82147C8.92422 10.9999 5.1712 17.2671 4.48037 21.1762C4.11504 23.7701 4.14493 27.8619 6.36353 29.6986C10.0402 32.1464 13.6902 30.4359 16.9517 28.1841C17.9182 29.3067 19.1138 30.2864 20.4922 30.5322L20.4955 30.5289ZM26.7295 8.82781C27.7059 8.34955 27.4137 9.80094 27.4137 9.80094C27.2742 11.4483 26.0785 13.4111 25.2283 14.9157C24.3548 16.4567 21.2893 20.0869 19.9574 20.8674C20.0139 18.672 22.3653 13.8728 23.5676 12.0428C24.1821 10.9667 25.753 9.30608 26.7295 8.82449V8.82781Z" fill="#E30F23"/>
        <path fill-rule="evenodd" clip-rule="evenodd" d="M174.612 13.1222C174.1 13.7964 172.357 15.6928 171.792 16.284C171.765 16.3072 171.5 16.563 171.5 16.563C166.797 21.2792 163.203 24.0192 161.124 24.4576C159.706 24.7698 159.055 24.8528 158.391 23.5708C158.377 23.5476 158.364 23.5011 158.364 23.5011C158.364 23.4911 158.294 22.9033 158.294 22.9033C158.294 21.2028 160.506 17.3867 163.462 14.8393C164.591 13.8528 164.724 13.4178 164.741 13.3082C164.319 12.6472 164.063 12.335 163.489 12.0959C162.668 12.0527 161.406 12.9262 160.576 13.5074C159.988 13.9093 158.321 15.4437 156.551 17.0612C155.076 18.4129 153.555 19.8112 152.705 20.512C152.705 20.512 151.519 21.4818 151.263 21.6943C151.273 21.4452 151.306 20.9437 151.306 20.9437C151.336 20.0669 152.26 18.6056 153.578 16.6361C154.056 15.912 155.232 13.8528 155.375 13.4875L155.395 13.451L155.375 13.4144C154.993 12.7867 154.259 12.2985 153.675 12.2719C153.615 12.2952 153.15 12.6738 153.15 12.6738C152.157 13.4842 150.038 15.3939 147.989 17.2472C146.109 18.9476 144.332 20.5485 143.893 20.8673C140.439 23.4313 137.45 25.1019 134.498 26.1415C133.969 26.2943 132.166 26.7294 131.273 25.723C131.273 25.723 131.07 25.4972 130.964 25.3676C131.097 25.3079 131.389 25.185 131.389 25.185C133.97 24.0856 137.218 22.5778 139.576 20.5551C139.612 20.5252 143.193 17.4498 143.193 14.4208C143.193 14.2846 143.183 14.1584 143.173 14.0255C142.95 12.9395 142.02 12.604 140.695 12.4347C136.357 12.4646 132.462 15.1315 130.439 17.4066L130.084 17.7952C129.144 18.8148 126.291 21.9202 125.132 24.6735C125.132 24.6735 125.082 24.7964 125.065 24.8196C125.059 24.813 124.959 24.8562 124.959 24.8562C123.003 25.6832 120.88 26.4769 118.519 26.726C117.244 26.8855 115.44 26.9917 114.427 26.0684C114.427 26.0684 114.181 25.8492 114.069 25.7463C114.264 25.64 118.997 23.1092 118.997 23.1092C122.9 20.7411 125.51 17.1376 125.51 15.2577C125.431 13.079 123.391 12.5874 121.691 12.5609C119.167 12.5775 116.838 13.5074 113.899 15.6729C112.195 16.9283 108.628 21.0035 107.675 25.1883C107.675 25.1883 107.649 25.3245 107.632 25.3876C107.556 25.4108 107.263 25.4806 107.263 25.4806C105.397 25.9455 102.258 26.7028 101.68 24.8827C100.75 21.9202 103.716 19.0705 106.094 16.7822L107.433 15.467C107.619 15.2577 107.848 14.7695 107.785 14.3842C107.761 14.2016 107.668 14.0654 107.506 13.9658C106.234 13.4045 105.011 13.8362 103.72 14.3012C102.75 14.6433 101.743 14.9954 100.681 14.919C100.681 14.919 100.471 14.8924 100.348 14.8858C100.362 14.7728 100.378 14.5437 100.378 14.5437C100.431 13.9193 100.797 13.544 101.122 13.2152C101.129 13.2152 101.229 13.1056 101.229 13.1056C101.285 13.0391 101.318 12.9063 101.318 12.7568C101.318 12.6273 101.295 12.4778 101.235 12.3483C101.152 12.149 101.023 12.0295 100.867 12.0195C100.123 11.9265 98.8339 12.6638 97.6682 13.8429C96.5456 14.9854 95.8415 16.2209 95.8415 17.0678L95.8514 17.2438C95.8581 17.2671 95.8548 17.3136 95.8548 17.3136C95.7186 19.2333 94.0447 21.0733 91.7231 23.6273L90.7135 24.7399L90.3249 25.1418C88.9333 26.5633 88.0531 27.6261 87.7808 28.214L87.6978 28.3833L87.8871 28.3335C88.8735 28.0379 91.7098 26.6662 96.7914 20.2728C96.7914 20.2728 96.8677 20.1832 96.8976 20.1267C96.9641 20.1333 97.087 20.1533 97.087 20.1533C97.3261 20.1832 97.615 20.0603 97.9239 19.9407C98.442 19.7348 99.0332 19.5056 99.5912 19.8743C99.5912 19.8743 99.8071 20.0105 99.8967 20.0769C99.8004 20.1964 98.9004 21.3456 98.9004 21.3456C97.4822 23.1225 96.0275 24.9458 96.0275 27.1345C96.0275 27.553 96.0806 27.9848 96.2035 28.4332C96.4725 29.7152 97.7844 30.3229 98.8273 30.4558C100.936 30.8211 103.583 29.6521 105.921 28.6291L107.104 28.111C107.765 27.9316 107.951 28.3368 108.094 28.6225C108.256 28.9745 108.489 29.4661 109.508 29.9078C112.919 31.4522 117.925 30.6883 124.388 27.6427C124.388 27.6427 124.58 27.5497 124.703 27.4932C124.75 27.6095 124.836 27.832 124.836 27.832C125.301 29.0841 126.178 29.858 127.606 30.2731C133.172 31.0138 137.766 27.8287 142.203 24.7499C142.21 24.7499 144.229 23.2088 144.561 22.9564C144.644 23.0361 145.003 23.4313 145.056 23.4944C144.983 23.6007 143.106 26.2411 143.106 26.2411C142.452 27.201 141.838 28.1044 141.452 29.1173C141.452 29.1107 141.339 29.5425 141.339 29.5425L141.389 29.765C141.486 29.9377 141.725 30.0573 142.07 30.1071C145.451 29.6388 148.706 26.8821 150.855 25.0621L151.499 24.5174C152.422 23.7103 153.306 22.9564 153.658 22.88C153.658 22.88 153.794 22.8402 153.861 22.8236C153.91 22.88 154.017 23.0029 154.017 23.0029C154.027 23.0162 154.027 23.0361 154.027 23.0527C154.027 23.2188 153.777 23.6107 153.598 23.883L153.259 24.4277C152.97 25.0322 152.396 26.2146 152.396 27.2641C152.396 27.646 152.472 28.0147 152.685 28.3335C153.698 29.8978 154.578 29.9476 155.531 30.0008L155.87 30.0207C159.855 29.765 163.771 26.3042 167.564 22.9531L170.384 20.512C170.384 20.512 172.665 18.5159 173.127 18.104C173.19 18.2469 173.287 18.5159 173.287 18.5159C173.572 19.2432 173.632 19.9108 173.632 20.3359L173.562 21.1297C173.519 21.4784 172.891 23.9362 172.028 24.6336L171.848 24.7333C171.842 24.7333 171.3 24.8694 171.3 24.8694C169.215 25.4042 166.853 26.0053 165.973 28.0844C165.97 28.0911 165.893 28.5594 165.893 28.5594C165.893 28.8383 166 29.2402 166.471 29.5557C167.943 29.9344 169.467 29.5723 170.812 29.2469L172.539 28.8782C173.951 28.8848 175.322 29.0542 176.648 29.2137C178.494 29.4329 180.231 29.6454 182.078 29.4561C184.469 28.8317 186.369 26.1249 186.96 23.883L187.013 23.697L186.837 23.7867C183.875 25.2514 180.45 25.3145 177.677 23.9561C177.677 23.9561 177.485 23.8598 177.395 23.8133C177.431 23.7203 177.518 23.5077 177.518 23.5077C177.541 23.4646 179.228 19.3362 179.228 13.9857C179.228 13.7432 179.228 13.4941 179.218 13.2484H179.228C179.192 13.1188 179.178 12.996 179.178 12.8764C179.178 12.3848 179.428 11.9797 179.657 11.6143C179.886 11.249 180.082 10.9301 180.082 10.5515C180.082 10.4951 180.079 10.4419 180.075 10.3788C180.065 10.3722 180.065 10.3589 180.065 10.3456C180.065 10.2991 180.079 10.2393 180.079 10.2393C180.082 10.2327 180.082 10.226 180.082 10.2161C180.082 10.0832 179.873 10.0168 179.773 9.99022C177.455 9.40568 176.136 11.1261 174.622 13.1222H174.612ZM113.534 22.3553C113.683 21.0899 115.576 18.6421 116.586 17.6158C117.506 16.6892 118.702 15.9386 119.854 15.5566C120.465 15.4105 120.954 15.5301 121.209 15.8821C121.309 16.0316 121.362 16.2043 121.362 16.387C121.362 16.6161 121.282 16.8553 121.133 17.0944C119.867 19.0772 116.609 21.8737 113.952 22.714C113.952 22.714 113.643 22.8136 113.467 22.8734C113.487 22.704 113.534 22.3486 113.534 22.3486V22.3553ZM131.402 21.8737C131.671 19.9839 134.428 17.1708 134.454 17.1409C135.374 16.2176 136.57 15.467 137.729 15.0817C138.204 14.8758 138.662 14.919 138.945 15.1913C139.051 15.3042 139.2 15.5101 139.2 15.8556C139.2 16.0515 139.154 16.284 139.034 16.5763C138.742 17.3103 136.517 19.4624 135.889 20.0138C135.185 20.6813 133.259 22.0198 131.784 22.2589C131.784 22.2589 131.508 22.3054 131.336 22.3287C131.359 22.1826 131.405 21.8737 131.405 21.8737H131.402Z" fill="#E30F23"/>
        <path fill-rule="evenodd" clip-rule="evenodd" d="M77.2126 4.29102H77.2092C74.2101 4.56668 71.3871 6.23727 68.0525 9.70466C66.6908 10.9933 60.397 18.8248 59.3575 24.7798C59.3575 24.7798 59.3409 24.8928 59.3276 24.9426C59.2844 24.9658 59.1848 25.019 59.1848 25.019C58.2714 25.5105 55.5248 26.6896 53.7877 26.2512C53.2663 26.1216 52.8777 25.8526 52.6419 25.4541C52.3729 24.9359 52.2467 24.4079 52.2467 23.8466C52.2467 22.548 52.9641 21.3888 53.5851 20.3493C53.5918 20.3493 53.9206 19.8013 53.9405 19.7614C53.9505 19.7714 54.0601 19.7382 54.0601 19.7382C55.6709 19.2798 58.1917 16.2044 58.836 14.3312L58.856 14.278L58.8095 14.2448C56.9297 13.0957 54.4088 13.1222 52.6319 13.3414C49.6993 13.6835 46.3614 14.9755 43.6978 16.7922C40.4928 18.9809 37.7228 23.4381 37.1449 26.2279C36.8327 27.8221 36.6268 29.4396 37.7295 30.1902C40.0211 31.522 44.5281 29.1041 47.6036 26.1582C47.6036 26.1582 48.0054 25.7762 48.2446 25.5437C48.2213 25.8692 48.1449 26.746 48.1449 26.746C48.1051 27.128 48.0719 27.5631 48.0719 27.9948C48.0719 28.8085 48.208 29.6256 48.7461 30.1337C51.2835 32.1464 56.5045 29.9411 59.3874 27.9716C59.3874 27.9716 59.5568 27.852 59.6431 27.7989C59.7129 27.8819 59.8391 28.0446 59.8391 28.0446C60.7557 29.1772 61.8385 30.3961 63.0673 30.6053C66.2856 31.0537 68.8031 29.2004 71.045 27.1313C71.045 27.1313 71.3373 26.8623 71.4834 26.7228C71.5299 26.9586 71.7026 27.759 71.7026 27.759C71.8653 28.586 72.0181 29.3698 72.6591 29.8879C74.2865 31.1467 77.9266 29.4362 79.9758 27.9782C79.9758 27.9782 80.4475 27.6461 80.7198 27.4468C80.6501 27.7358 80.494 28.3303 80.494 28.3303C80.1419 29.6853 79.4943 30.9806 78.8665 32.2361L78.3053 33.3819L78.2123 33.5347L78.0462 33.8037C77.1727 35.2019 75.5553 37.8191 73.9777 38.0516L73.8681 38.0682C73.4629 37.9187 73.2038 37.6929 73.0676 37.3907L72.9514 36.8028C72.9514 36.0954 73.3234 35.2916 73.6489 34.5809L73.7186 34.4414L73.5658 34.4513C72.8318 34.5643 72.1775 34.8731 71.4601 35.2385C70.0021 36.102 68.5009 38.0549 68.5009 39.8085C68.5009 40.1739 68.5607 40.516 68.6869 40.8348C68.9891 41.5024 69.7829 41.5256 70.115 41.509C80.1087 40.5757 85.7117 29.2403 89.8068 20.9604L90.6105 19.3263C90.8563 19.0009 90.8995 18.8016 90.8995 18.6887L90.8928 18.589L90.74 18.403C90.75 18.4163 90.6404 17.8085 90.6404 17.8085C90.8065 17.0081 92.7427 15.3242 92.7627 15.3043C92.7627 15.3076 93.0085 15.1216 93.0085 15.1216C93.2077 14.9921 93.3306 14.8593 93.3339 14.753C93.3339 14.6367 93.2044 14.484 93.0085 14.3611C92.6165 14.1086 92.1881 13.9293 90.564 13.4743C87.5616 12.634 82.397 13.2651 77.7141 17.8019C77.2225 18.2735 76.3191 19.416 75.5785 20.3327L74.6319 21.5117C72.3502 24.1754 69.9988 26.9387 66.1096 26.1648C65.5981 25.9556 65.0601 25.5271 64.8542 25.0024C64.7412 24.7001 64.7512 24.3979 64.8774 24.1256L64.9239 24.0292C67.0794 22.5181 69.2947 20.5519 71.5731 18.1705C75.3958 14.0854 80.0755 7.21372 79.461 5.5066C79.0027 4.31759 77.641 4.27773 77.2258 4.29766L77.2126 4.29102ZM45.6208 17.7122C47.7397 16.676 50.3868 16.749 52.3596 17.9048C52.3596 17.9048 52.5854 18.0344 52.7017 18.1041C52.6087 18.2336 51.247 20.1301 51.247 20.1301C49.0051 22.8535 44.6809 25.5504 42.8342 25.3843C41.974 25.3046 41.3696 24.8828 41.2201 24.2418L41.1902 23.7004C41.1902 21.8571 43.6413 19.0108 44.9233 18.1373C44.91 18.1473 45.6208 17.7122 45.6208 17.7122ZM70.6896 11.1195C71.7159 9.85744 73.4031 8.74814 73.9079 8.50901C74.2965 8.32634 74.5024 8.54555 74.5589 8.61197C74.6452 8.71493 74.6718 8.85774 74.6718 9.00056C74.6718 9.16662 74.622 9.33268 74.5622 9.40575H74.5821C73.6821 12.5443 68.0027 19.1968 64.7346 21.525C64.7346 21.525 64.3427 21.8007 64.1102 21.9667C64.1434 21.7176 64.2098 21.2161 64.2098 21.2161C64.4888 18.9843 68.7135 13.5474 70.6929 11.1162L70.6896 11.1195ZM77.0797 25.3511L77.0233 25.3179C76.1398 24.6802 75.8641 23.7801 76.2295 22.7207C76.5583 21.4918 79.9758 17.7155 82.6793 17.1908C85.1304 16.7158 86.1135 17.5461 86.5851 17.9414C86.5851 17.948 86.8409 18.1506 86.9671 18.2569C86.8641 18.3698 85.6386 19.6817 85.6386 19.6817C83.8351 22.2258 79.3249 26.4006 77.083 25.3544L77.0797 25.3511Z" fill="#E30F23"/>
    </g>
    <defs>
        <clipPath id="clip0_215_100">
            <rect width="187" height="41.5057" fill="white"/>
        </clipPath>
    </defs>
</svg>
